<svg width="50" height="50" fill="none" xmlns="http://www.w3.org/2000/svg"><path d="M46.74 0H3.26A3.265 3.265 0 000 3.26v43.48A3.265 3.265 0 003.26 50h43.48A3.265 3.265 0 0050 46.74V3.26A3.265 3.265 0 0046.74 0zm1.086 46.74c0 .599-.488 1.086-1.087 1.086H3.261a1.088 1.088 0 01-1.087-1.087V3.261A1.09 1.09 0 013.26 2.174h43.478a1.09 1.09 0 011.087 1.087v43.478z" fill="#F2F2F2"/><path d="M29.348 8.696H14.13c-.6 0-1.087.487-1.087 1.087v30.434c0 .602.488 1.087 1.087 1.087h15.218c4.195 0 7.608-3.414 7.608-7.608v-2.174A7.612 7.612 0 0033.264 25a7.612 7.612 0 003.692-6.522v-2.174c0-4.195-3.413-7.608-7.608-7.608zm5.435 22.826v2.174a5.441 5.441 0 01-5.435 5.434h-14.13V26.087h14.13a5.441 5.441 0 015.435 5.435zm0-13.044a5.441 5.441 0 01-5.435 5.435h-14.13V10.87h14.13a5.441 5.441 0 015.435 5.434v2.174z" fill="#F2F2F2"/></svg>