<svg width="50" height="50" fill="none" xmlns="http://www.w3.org/2000/svg"><g clip-path="url(#clip0)" fill="#F2F2F2"><path d="M45.366 10.511a25.466 25.466 0 00-2.11-2.576l-2.28 2.137a22.01 22.01 0 011.846 2.254l2.544-1.815zm-4.538-4.848a25.41 25.41 0 00-2.703-1.934l-1.643 2.655c.827.512 1.62 1.078 2.373 1.694l1.973-2.415z"/><path d="M47.113 13.344l-2.761 1.462c5.635 10.683 1.543 23.911-9.14 29.547-10.683 5.635-23.912 1.543-29.547-9.14C.03 24.53 4.122 11.301 14.805 5.666A21.87 21.87 0 0125.003 3.14a21.684 21.684 0 018.904 1.885l1.275-2.852C22.575-3.45 7.798 2.214 2.176 14.82s.041 27.385 12.649 33.006c12.607 5.622 27.384-.041 33.005-12.648a24.992 24.992 0 00-.717-21.836z"/><path d="M39.205 21.49c0 .69-.16 1.372-.47 1.99l-6.39 11.64-5.073-14.797h2.418v-3.124h-9.373v3.124h3.652l1.451 4.232-5.744 10.825-5.16-15.057h2.677v-3.124H7.82v3.124h3.393l6.427 18.745h3.614l5.552-10.466 3.593 10.466h3.341l7.498-13.621.285-.569a7.586 7.586 0 00-4.946-10.757l-.758 3.03a4.466 4.466 0 013.386 4.339z"/></g><defs><clipPath id="clip0"><path fill="#fff" d="M0 0h50v50H0z"/></clipPath></defs></svg>