<svg width="50" height="50" fill="none" xmlns="http://www.w3.org/2000/svg"><path d="M15.242 18.464c-1.918 0-2.878 1.129-2.878 3.383 0 2.101.96 3.152 2.878 3.152 1.859 0 2.786-1.068 2.786-3.198 0-.886-.213-1.646-.638-2.284-.52-.7-1.234-1.053-2.148-1.053z" fill="#F2F2F2"/><path d="M0 0v50h49.998V0H0zm29.556 35.076h-5.519V19.012c-.403.141-.92.295-1.638.46.243.698.429 1.354.429 1.964 0 1.95-.59 3.649-1.76 5.095-1.174 1.446-2.688 2.308-4.545 2.58-1.22.18-1.829.838-1.829 1.966 0 .394.195.79.592 1.187.52.577 1.276.945 2.283 1.093 4.357.674 6.532 2.484 6.532 5.44 0 4.723-2.822 7.084-8.46 7.084-2.312 0-4.231-.413-5.722-1.232-1.889-1.037-2.858-2.668-2.858-4.89 0-2.558 1.317-4.313 4.2-5.256v-.09c-1.042-.64-1.505-1.615-1.505-2.925 0-1.706.463-2.773 1.505-3.201v-.092c-1.042-.334-1.838-1.096-2.6-2.283-.858-1.281-1.28-2.648-1.28-4.111 0-2.196.78-4.021 2.335-5.485 1.492-1.37 3.272-2.055 5.345-2.055 1.49 0 2.814.363 4.094 1.095 1.431 0 3.096-.354 4.885-1.05v-.958h5.52v21.728h-.003zm-.388-25.157c-.627.67-1.364 1.005-2.216 1.005-.886 0-1.639-.335-2.264-1.005a3.374 3.374 0 01-.936-2.376c0-.943.31-1.752.936-2.42.626-.672 1.38-1.005 2.264-1.005.849 0 1.587.333 2.216 1.004.623.67.94 1.48.94 2.421a3.38 3.38 0 01-.94 2.376zm13.775 24.262c-1.045.614-2.44.917-4.024.917-2.223 0-3.721-.794-4.573-2.381-.642-1.184-.964-3.059-.964-5.618V19.27H30.66v-5.038h2.722v-2.908h4.927c.026.718.062 2.245.078 2.908h4.222v5.038h-4.216v8.06c0 2.04.66 3.061 2.005 3.061.943 0 1.716-.255 2.55-.776v4.567h-.005v-.002z" fill="#F2F2F2"/><path d="M11.862 39.487c0 1.58 1.338 2.373 4.02 2.373 2.346 0 3.517-.824 3.517-2.468 0-1.554-1.278-2.332-3.838-2.332-2.467.003-3.7.81-3.699 2.427z" fill="#F2F2F2"/></svg>