<svg width="50" height="50" fill="none" xmlns="http://www.w3.org/2000/svg"><g clip-path="url(#clip0)" fill="#F2F2F2"><path d="M42.786 12.682a279.5 279.5 0 01-.133-10.722 1.4 1.4 0 00-.054-.386c.062-.698-.347-1.434-1.24-1.41C30.082.458 18.81.017 7.535 0c-.938-.002-1.349.823-1.233 1.546a1.412 1.412 0 00-.062.415c.17 13.454.633 32.785.647 46.242 0 .302.086.546.223.74.083.57.493 1.075 1.234 1.057 4.873-.121 9.749-.2 14.618-.438 4.34-.213 9.75.072 13.898-1.344 1.468-.502 2.782-1.244 3.909-2.317 2.058-1.963 2.761-4.598 2.94-7.374.17-2.667-.145-5.464-.208-7.921-.16-6.347-.508-11.579-.716-17.924zm-7.134 23.997c-.794.005-1.56.624-1.206 1.576.713 1.914 1.039 4.291-.057 6.123-1.326 2.214-3.692 2.154-5.943 2.437-1.375.174-2.838.082-4.225.121-1.08.03-14.747.363-14.747.417-.032-12.952-.46-31.78-.633-44.731 10.41.045 20.817.402 31.227.18-.04 10.633.903 26.005.958 34.409a13.5 13.5 0 00-5.007-.61c-.136.009-.256.04-.367.078zm1.016 8.853c1.046-1.781 1.306-3.967.763-6.336 1.26.049 2.5.291 3.675.79.006.014.01.03.015.044-.382 2.808-2.158 4.53-4.453 5.502z"/><path d="M23.99 15.533c-2.686.096-5.371.187-8.06.194-1.69.005-1.69 2.626 0 2.622 1.136-.003 2.27-.027 3.405-.054.482 1.926.803 3.889.762 5.88-.015.727-.079 1.704-.571 2.291-.565.672-1.887-.08-2.448-.365-1.504-.764-2.83 1.497-1.323 2.263 2.722 1.385 5.646 1.316 6.663-1.985.778-2.523.22-5.582-.401-8.16.658-.022 1.315-.041 1.973-.065 1.685-.06 1.69-2.681 0-2.62zm5.704 3.202c-.253-.525-.136-.917-.314-.793.765-.534 2.322-.178 3.153-.078 1.676.201 1.658-2.423 0-2.622-1.75-.21-4.422-.45-5.415 1.424-.798 1.505.19 3.29.962 4.583.951 1.594 2.14 3.05 2.947 4.73.066.137.158.477.19.6-.815.428-2.56-.07-3.384-.221-1.652-.307-2.358 2.22-.697 2.527 1.778.33 4.715 1.017 6.123-.594 1.205-1.38.298-3.253-.48-4.594-.977-1.685-2.235-3.201-3.085-4.962z"/></g><defs><clipPath id="clip0"><path fill="#fff" d="M0 0h50v50H0z"/></clipPath></defs></svg>