<svg width="50" height="50" fill="none" xmlns="http://www.w3.org/2000/svg"><g clip-path="url(#clip0)" fill="#F2F2F2"><path d="M37.5 41.667a5.214 5.214 0 01-5.209-5.209A5.214 5.214 0 0137.5 31.25a5.214 5.214 0 015.208 5.208 5.214 5.214 0 01-5.208 5.209zm0-8.334a3.129 3.129 0 00-3.125 3.125 3.129 3.129 0 003.125 3.125 3.129 3.129 0 003.125-3.125 3.129 3.129 0 00-3.125-3.125z"/><path d="M39.114 50h-3.229a2.053 2.053 0 01-2.041-1.88l-.259-2.651a9.486 9.486 0 01-1.727-1.032l-2.335 1.086c-.973.456-2.11.081-2.642-.865l-1.612-2.875a2.106 2.106 0 01.573-2.714l2.083-1.544a8.838 8.838 0 01-.069-1.065c0-.379.03-.737.069-1.064l-2.083-1.544a2.104 2.104 0 01-.575-2.713l1.614-2.879a2.037 2.037 0 012.64-.864l2.335 1.085a9.48 9.48 0 011.727-1.031l.259-2.654a2.056 2.056 0 012.043-1.88h3.23c1.062 0 1.941.809 2.041 1.88l.258 2.652a9.486 9.486 0 011.728 1.031l2.335-1.085a2.032 2.032 0 012.642.864l1.612 2.875c.517.923.269 2.09-.573 2.715l-2.083 1.544c.04.325.069.685.069 1.064 0 .38-.03.738-.07 1.065l2.084 1.543c.844.625 1.09 1.79.575 2.713l-1.614 2.88a2.03 2.03 0 01-2.64.864l-2.335-1.086a9.48 9.48 0 01-1.727 1.032l-.259 2.654A2.056 2.056 0 0139.114 50zm-7.108-7.823c.244 0 .486.085.68.252a7.482 7.482 0 002.241 1.344c.37.137.631.477.67.873l.32 3.273 3.197-.002.288-3.271c.04-.394.3-.736.67-.873a7.442 7.442 0 002.242-1.344c.31-.269.748-.33 1.12-.154l2.92 1.356 1.56-2.873-2.583-1.935a1.042 1.042 0 01-.408-1.01 8.04 8.04 0 00.135-1.355c0-.464-.06-.912-.135-1.354-.065-.39.091-.78.408-1.01l2.586-1.917-1.617-2.898-2.867 1.36c-.37.171-.808.113-1.118-.154a7.485 7.485 0 00-2.242-1.343 1.04 1.04 0 01-.671-.873l-.319-3.273-3.198.004-.287 3.27c-.04.394-.3.736-.671.874a7.441 7.441 0 00-2.242 1.343c-.312.267-.75.325-1.118.155l-2.921-1.357-1.56 2.873 2.583 1.936c.314.23.473.623.408 1.01-.075.442-.135.89-.135 1.354 0 .465.06.913.135 1.354.065.39-.092.78-.408 1.01l-2.586 1.917 1.617 2.898 2.867-1.36c.14-.067.291-.1.44-.1z"/><path d="M23.729 50H9.375a5.214 5.214 0 01-5.208-5.208V5.208A5.214 5.214 0 019.375 0h31.25a5.214 5.214 0 015.208 5.208v15.25a1.042 1.042 0 01-2.083 0V5.208a3.129 3.129 0 00-3.125-3.125H9.375A3.129 3.129 0 006.25 5.208v39.584a3.129 3.129 0 003.125 3.125h14.354a1.042 1.042 0 010 2.083z"/><path d="M11.458 18.75a1.042 1.042 0 01-1.042-1.042V7.292c0-.575.467-1.042 1.042-1.042h3.125a4.17 4.17 0 014.167 4.167 4.17 4.17 0 01-4.167 4.166H12.5v3.125c0 .575-.467 1.042-1.042 1.042zM12.5 12.5h2.083a2.085 2.085 0 002.083-2.083c0-1.15-.935-2.084-2.083-2.084H12.5V12.5zm19.792 6.25a1.042 1.042 0 01-1.042-1.042V7.292c0-.575.467-1.042 1.042-1.042h3.125a4.17 4.17 0 014.166 4.167 4.17 4.17 0 01-4.166 4.166h-2.084v3.125c0 .575-.466 1.042-1.041 1.042zm1.041-6.25h2.084a2.085 2.085 0 002.083-2.083c0-1.15-.935-2.084-2.083-2.084h-2.084V12.5zm-5.208 6.25a1.042 1.042 0 01-1.041-1.042V7.292a1.042 1.042 0 012.083 0v10.416c0 .575-.467 1.042-1.042 1.042z"/><path d="M27.604 14.583h-5.208a1.042 1.042 0 010-2.083h5.208a1.042 1.042 0 010 2.083z"/><path d="M21.875 18.75a1.042 1.042 0 01-1.041-1.042V7.292a1.042 1.042 0 012.083 0v10.416c0 .575-.467 1.042-1.042 1.042z"/></g><defs><clipPath id="clip0"><path fill="#fff" d="M0 0h50v50H0z"/></clipPath></defs></svg>