<svg width="50" height="50" fill="none" xmlns="http://www.w3.org/2000/svg"><path d="M50 25a24.973 24.973 0 01-.329 4.06C47.733 40.935 37.425 50 25 50a24.9 24.9 0 01-16.511-6.229 25.087 25.087 0 01-4.278-4.88A24.88 24.88 0 010 25C0 11.193 11.193 0 25 0s25 11.193 25 25z" fill="#F2F2F2"/><path d="M43.63 27.83c-.759.286-.728.291-1.129-.44a6.341 6.341 0 01-.808-2.973c-.02-.913.23-1.762.545-2.595.25-.662-.076-.895-.65-.956a6.246 6.246 0 00-1.266.004c-1.087.112-1.195.206-1.483 1.262-.172.626-.308 1.258-.593 1.853-.702 1.464-1.5 2.874-2.319 4.274-.146.252-.268.524-.475.739-.593-.888-.816-1.868-.866-2.897-.05-1.015.261-1.96.603-2.893.115-.314.02-.51-.252-.645a1.094 1.094 0 00-.387-.126c-.698-.056-1.394-.047-2.075.143-.306.085-.506.257-.574.6a9.157 9.157 0 01-.62 1.955c-.775 1.74-1.545 3.484-2.32 5.226-.673 1.513-1.337 3.03-2.134 4.484-.057.103-.104.282-.244.246-.143-.036-.093-.212-.1-.332-.045-.857.188-1.674.387-2.493.316-1.295.66-2.583.995-3.874.096-.37-.065-.62-.372-.797-.442-.254-.882-.267-1.36.09.065-.527.094-.99.071-1.451-.051-1.031-.529-1.702-1.36-1.857-.607-.113-1.182.064-1.725.32-1.265.6-2.282 1.503-3.137 2.599-.1.127-.201.245-.346.323-1.605.875-3.21 1.75-4.81 2.632-.176.098-.29.07-.416-.066-.806-.864-1.742-1.577-2.668-2.3-1.295-1.013-2.635-1.972-3.752-3.192-.653-.715-1.198-1.497-1.47-2.442-.446-1.545-.113-2.984.628-4.351.877-1.617 2.177-2.866 3.61-3.979 2.277-1.765 4.774-3.167 7.405-4.321 2.947-1.29 6.004-2.123 9.26-1.997 1.29.05 2.542.273 3.691.905.813.447 1.352 1.093 1.504 2.04.179 1.111-.087 2.137-.58 3.109-1.101 2.172-2.851 3.711-4.92 4.916-1.722 1.003-3.58 1.64-5.547 1.974-1.086.184-2.177.296-3.27.13-1.254-.192-2.413-.61-3.271-1.621-.1-.116-.225-.197-.393-.115-.173.083-.16.236-.143.383.012.101.04.203.075.3.23.619.66 1.086 1.162 1.494 1.309 1.065 2.859 1.377 4.486 1.409 1.593.031 3.161-.17 4.713-.542 3.501-.837 6.434-2.554 8.575-5.497 1.28-1.76 2.09-3.698 2.018-5.917-.046-1.407-.52-2.65-1.545-3.66-1.219-1.199-2.732-1.802-4.356-2.164-1.808-.402-3.634-.46-5.48-.239-1.604.192-3.173.52-4.7 1.046a41.933 41.933 0 00-6.75 2.996c-2.213 1.23-4.297 2.64-6.126 4.405-1.618 1.562-3.009 3.286-3.793 5.426-.334.916-.575 1.858-.35 2.849.287 1.275.916 2.38 1.742 3.375 1.25 1.508 2.784 2.696 4.366 3.83 1.27.913 2.6 1.744 3.82 2.724.346.278.344.278-.063.49-.476.249-.957.488-1.424.752-1.884 1.065-3.706 2.22-5.193 3.826-.731.79-1.228 1.678-1.46 2.664a25.081 25.081 0 004.278 4.88c2.776-.216 4.902-1.66 6.472-4.05.758-1.155 1.114-2.46 1.247-3.838a8.972 8.972 0 00-.363-3.55c-.062-.203-.294-.406-.203-.586.085-.166.34-.25.527-.357.758-.44 1.517-.874 2.296-1.322.034.168-.031.266-.06.372-.447 1.64-.758 3.293-.418 4.997.211 1.06.563 2.06 1.233 2.939.688.904 2.226.8 2.85-.025.593-.784.986-1.667 1.395-2.547.225-.482.431-.971.645-1.458a16.29 16.29 0 00-.016 1.726c.021.562.111 1.116.403 1.612.351.596 1.011.769 1.625.45.647-.335 1.087-.888 1.43-1.488 1.47-2.58 2.835-5.216 3.964-7.969.241-.584.488-1.168.76-1.818.042.213.07.344.096.475a12.438 12.438 0 001.345 3.718c.138.25.123.422-.053.662-.595.811-1.249 1.575-1.892 2.346-.541.65-1.12 1.27-1.577 1.984-.41.643-.175 1.3.508 1.447.21.045.432.058.647.055 1.193-.014 2.294-.37 3.32-.954 1.38-.787 2.199-1.94 2.16-3.582-.017-.747-.219-1.464-.52-2.149-.066-.152-.069-.262.03-.405a39.77 39.77 0 002.578-4.283c.137-.26.234-.549.457-.803.03.103.053.168.066.234.247 1.224.58 2.421 1.204 3.514.171.3.086.451-.15.651a9.368 9.368 0 00-2.044 2.427c-.42.72-.708 1.49-.705 2.334.003.938.722 1.491 1.637 1.27a7.282 7.282 0 002.633-1.197c1.73-1.266 2.236-2.602 1.694-4.466-.212-.734-.208-.722.528-.944 1.61-.486 3.242-.506 4.883-.239.185.03.369.065.55.105.096-.582.172-1.172.225-1.77-2.099-.512-4.195-.246-6.266.54zM9.628 40.957a3.484 3.484 0 01-1.447.197c-.618-.049-1.01-.485-1.05-1.14-.044-.755.18-1.437.51-2.1.6-1.204 1.61-2.021 2.64-2.823 1-.78 2.076-1.447 3.164-2.095.33-.196.335-.194.41.199.098.504.186 1.01.153 1.467.086 2.748-1.91 5.42-4.38 6.295zm14.977-13.856c-.173 1.158-.552 2.261-.955 3.35-.549 1.489-1.084 2.984-1.774 4.414-.159.33-.325.657-.581.926-.242.254-.456.224-.623-.086-.327-.606-.286-1.28-.34-1.77.016-2.458.84-4.466 2.199-6.27.38-.504.864-.913 1.506-1.077.436-.111.637.064.568.513zm9.51 7.275c-.465.804-1.135 1.388-1.958 1.805-.088.043-.2.12-.28.018-.076-.097.046-.161.1-.222.818-.893 1.625-1.793 2.353-2.762.01-.015.038-.017.1-.044a2.408 2.408 0 01-.315 1.205zm5.644-.035c-.121.057-.262.164-.38.072-.13-.1-.079-.28-.04-.416.187-.623.437-1.22.782-1.777a6.57 6.57 0 011.043-1.259c.16-.153.23-.134.285.086.056.226.061.45.065.68-.01 1.257-.648 2.092-1.755 2.614z" fill="#313131"/></svg>