<svg width="50" height="50" viewBox="0 0 50 50" fill="none" xmlns="http://www.w3.org/2000/svg">
<path d="M46.7391 0H3.26087C1.46325 0 0 1.46325 0 3.26087V46.7391C0 48.5367 1.46325 50 3.26087 50H46.7391C48.5367 50 50 48.5367 50 46.7391V3.26087C50 1.46325 48.5367 0 46.7391 0ZM47.8261 46.7391C47.8261 47.3389 47.3378 47.8261 46.7391 47.8261H3.26087C2.66219 47.8261 2.17391 47.3389 2.17391 46.7391V3.26087C2.17391 2.66219 2.66219 2.17391 3.26087 2.17391H46.7391C47.3378 2.17391 47.8261 2.66219 47.8261 3.26087V46.7391Z" fill="#F2F2F2"/>
<path d="M29.3478 8.69556H14.1304C13.5307 8.69556 13.0435 9.18278 13.0435 9.78251V40.2173C13.0435 40.8186 13.5307 41.3043 14.1304 41.3043H29.3478C33.5433 41.3043 36.9565 37.89 36.9565 33.6956V31.5216C36.9565 28.7575 35.4752 26.3326 33.2641 24.9999C35.4752 23.6672 36.9565 21.2423 36.9565 18.4782V16.3043C36.9565 12.1087 33.5433 8.69556 29.3478 8.69556ZM34.7826 31.5216V33.6956C34.7826 36.6921 32.3444 39.1303 29.3478 39.1303H15.2174V26.0869H29.3478C32.3444 26.0869 34.7826 28.5251 34.7826 31.5216ZM34.7826 18.4782C34.7826 21.4747 32.3444 23.9129 29.3478 23.9129H15.2174V10.8695H29.3478C32.3444 10.8695 34.7826 13.3077 34.7826 16.3043V18.4782Z" fill="#F2F2F2"/>
</svg>
