<svg width="50" height="50" viewBox="0 0 50 50" fill="none" xmlns="http://www.w3.org/2000/svg">
<path d="M15.2419 18.4641C13.3244 18.4641 12.364 19.5927 12.364 21.8468C12.364 23.9484 13.3244 24.9992 15.2419 24.9992C17.1007 24.9992 18.0277 23.931 18.0277 21.8007C18.0277 20.915 17.815 20.1546 17.3896 19.5165C16.8705 18.8165 16.1562 18.4641 15.2419 18.4641Z" fill="#F2F2F2"/>
<path d="M0 0V50H49.9984V0H0ZM29.5565 35.0757H24.0373V19.0117C23.6341 19.153 23.1166 19.307 22.3991 19.472C22.642 20.1705 22.8277 20.8261 22.8277 21.4356C22.8277 23.3865 22.2388 25.0849 21.0689 26.531C19.8943 27.9771 18.3799 28.839 16.5227 29.1104C15.3037 29.2914 14.6941 29.9486 14.6941 31.0772C14.6941 31.4708 14.8894 31.8677 15.2862 32.2645C15.8053 32.8407 16.5624 33.209 17.5688 33.3566C21.9261 34.0312 24.1008 35.8408 24.1008 38.7965C24.1008 43.5204 21.2785 45.8808 15.6418 45.8808C13.329 45.8808 11.4099 45.4681 9.91936 44.649C8.03041 43.6125 7.06054 41.9807 7.06054 39.7584C7.06054 37.2012 8.37804 35.4456 11.2607 34.5027V34.4138C10.2194 33.7725 9.75587 32.7979 9.75587 31.4883C9.75587 29.7819 10.2194 28.7152 11.2607 28.2866V28.1945C10.2194 27.8612 9.42252 27.0993 8.66059 25.9119C7.80342 24.6309 7.38119 23.2642 7.38119 21.8007C7.38119 19.6054 8.16058 17.7799 9.71618 16.3164C11.2083 14.9465 12.9877 14.2608 15.0608 14.2608C16.5513 14.2608 17.8752 14.6243 19.1546 15.356C20.5864 15.356 22.2515 15.0021 24.0404 14.3052V13.348H29.5597V35.0757H29.5565ZM29.1676 9.91936C28.5406 10.5892 27.8041 10.9242 26.9517 10.9242C26.0659 10.9242 25.3135 10.5892 24.6881 9.91936C24.0643 9.2495 23.7515 8.45582 23.7515 7.5431C23.7515 6.60021 24.0611 5.79066 24.6881 5.12238C25.3135 4.45093 26.0675 4.11759 26.9517 4.11759C27.8009 4.11759 28.539 4.45093 29.1676 5.12238C29.7914 5.79225 30.1073 6.6018 30.1073 7.5431C30.1073 8.45582 29.7914 9.2495 29.1676 9.91936ZM42.9426 34.1805C41.8982 34.7948 40.5029 35.0979 38.9187 35.0979C36.6964 35.0979 35.1979 34.3043 34.3455 32.7169C33.7042 31.5327 33.382 29.6581 33.382 27.0993V19.2705H30.6597V14.2322H33.382V11.3242H38.3092C38.3346 12.0417 38.3711 13.5687 38.3869 14.2322H42.6093V19.2705H38.3933V27.3294C38.3933 29.3692 39.0536 30.3914 40.3981 30.3914C41.341 30.3914 42.114 30.1359 42.9474 29.6152V34.182H42.9426V34.1805Z" fill="#F2F2F2"/>
<path d="M11.8623 39.4869C11.8623 41.0663 13.2004 41.86 15.8815 41.86C18.2276 41.86 19.3991 41.0361 19.3991 39.3916C19.3991 37.8376 18.1212 37.0598 15.5608 37.0598C13.0941 37.063 11.8607 37.8694 11.8623 39.4869Z" fill="#F2F2F2"/>
</svg>
