<svg width="50" height="50" viewBox="0 0 50 50" fill="none" xmlns="http://www.w3.org/2000/svg">
<g clip-path="url(#clip0)">
<path d="M42.7858 12.6816C42.68 9.48295 42.6214 5.16126 42.6527 1.96036C42.6538 1.81763 42.631 1.69193 42.5987 1.57351C42.6606 0.875991 42.2516 0.139932 41.3585 0.163235C30.0833 0.459115 18.8107 0.0175921 7.53606 2.91785e-06C6.59823 -0.00178961 6.1874 0.822663 6.30302 1.54629C6.26571 1.67199 6.23961 1.8071 6.24129 1.96103C6.41147 15.415 6.87394 34.7463 6.88839 48.2027C6.88839 48.5047 6.97399 48.7494 7.11078 48.9439C7.19357 49.5139 7.60372 50.0179 8.34527 49.9998C13.2185 49.8786 18.0937 49.8007 22.9633 49.5617C27.3038 49.349 32.7122 49.634 36.8607 48.218C38.329 47.7162 39.6431 46.9743 40.7696 45.9008C42.8284 43.9381 43.531 41.3035 43.7091 38.5274C43.8792 35.8603 43.5652 33.063 43.5025 30.6059C43.3422 24.2588 42.9939 19.0275 42.7858 12.6816ZM35.6517 36.6794C34.8581 36.6838 34.0912 37.3034 34.4456 38.2551C35.159 40.1695 35.485 42.5464 34.3886 44.3776C33.0626 46.5918 30.6966 46.5316 28.4465 46.8153C27.071 46.9889 25.6083 46.8968 24.2209 46.936C23.1415 46.9661 9.47423 47.2994 9.47423 47.353C9.44208 34.4014 9.014 15.5727 8.84102 2.62192C19.2508 2.66684 29.6577 3.02445 40.0675 2.80196C40.0277 13.4354 40.9705 28.8068 41.0262 37.2105C39.4117 36.7008 37.7425 36.4858 36.0193 36.6013C35.8833 36.6099 35.7632 36.6407 35.6517 36.6794ZM36.6683 45.5321C37.714 43.7509 37.9745 41.5651 37.4312 39.1956C38.6902 39.2446 39.9316 39.4874 41.1064 39.9858C41.1121 40 41.1156 40.0154 41.1206 40.0302C40.7388 42.8377 38.9633 44.5603 36.6683 45.5321Z" fill="#F2F2F2"/>
<path d="M23.9894 15.5333C21.3039 15.6294 18.6189 15.7201 15.9309 15.7273C14.2405 15.7319 14.2405 18.3534 15.9309 18.3488C17.0664 18.346 18.2005 18.3221 19.3355 18.2948C19.8165 20.2211 20.1377 22.1838 20.0967 24.1744C20.0817 24.9021 20.0182 25.8794 19.5257 26.4665C18.9614 27.1384 17.639 26.3863 17.078 26.1013C15.5744 25.3366 14.2478 27.598 15.755 28.3643C18.4772 29.749 21.4011 29.6802 22.4183 26.3793C23.1959 23.8558 22.6385 20.7967 22.0167 18.2181C22.6747 18.1969 23.3323 18.178 23.9899 18.1542C25.675 18.0948 25.6807 15.4728 23.9894 15.5333Z" fill="#F2F2F2"/>
<path d="M29.6944 18.7352C29.4414 18.2101 29.5579 17.8181 29.3804 17.9416C30.1445 17.408 31.7022 17.7636 32.5334 17.8637C34.2093 18.0654 34.1906 15.4413 32.5334 15.2423C30.7823 15.0321 28.1112 14.7926 27.1179 16.666C26.3198 18.1707 27.3079 19.9557 28.0799 21.249C29.0312 22.8428 30.2207 24.2992 31.0269 25.9786C31.093 26.1157 31.1851 26.4564 31.2169 26.5792C30.4017 27.0071 28.6563 26.5099 27.8331 26.3575C26.1809 26.0514 25.4749 28.5785 27.1361 28.8852C28.9139 29.2145 31.8506 29.9024 33.2587 28.2906C34.4636 26.9111 33.5567 25.038 32.7796 23.6971C31.8024 22.0121 30.5439 20.4956 29.6944 18.7352Z" fill="#F2F2F2"/>
</g>
<defs>
<clipPath id="clip0">
<rect width="50" height="50.0001" fill="white"/>
</clipPath>
</defs>
</svg>
