<svg width="50" height="50" viewBox="0 0 50 50" fill="none" xmlns="http://www.w3.org/2000/svg">
<g clip-path="url(#clip0)">
<path d="M37.4998 41.6667C34.629 41.6667 32.2915 39.3312 32.2915 36.4583C32.2915 33.5854 34.629 31.25 37.4998 31.25C40.3707 31.25 42.7082 33.5854 42.7082 36.4583C42.7082 39.3312 40.3707 41.6667 37.4998 41.6667ZM37.4998 33.3333C35.7769 33.3333 34.3748 34.7354 34.3748 36.4583C34.3748 38.1812 35.7769 39.5833 37.4998 39.5833C39.2227 39.5833 40.6248 38.1812 40.6248 36.4583C40.6248 34.7354 39.2227 33.3333 37.4998 33.3333Z" fill="#F2F2F2"/>
<path d="M39.1145 49.9998H35.8854C34.8229 49.9998 33.9437 49.1915 33.8437 48.1206L33.5854 45.4686C32.9812 45.1915 32.4041 44.8456 31.8583 44.4373L29.5229 45.5227C28.5499 45.979 27.4124 45.604 26.8812 44.6581L25.2687 41.7831C24.752 40.8602 24.9999 39.6936 25.8416 39.0686L27.9249 37.5248C27.8854 37.1998 27.8562 36.8394 27.8562 36.4602C27.8562 36.0811 27.8854 35.7227 27.9249 35.3957L25.8416 33.8519C24.9979 33.2269 24.752 32.0623 25.2666 31.1394L26.8812 28.2602C27.4104 27.3165 28.5437 26.9519 29.5208 27.3957L31.8562 28.4811C32.402 28.0727 32.9791 27.7269 33.5833 27.4498L33.8416 24.7957C33.9437 23.7248 34.8229 22.9165 35.8854 22.9165H39.1145C40.177 22.9165 41.0562 23.7248 41.1562 24.7957L41.4145 27.4477C42.0187 27.7248 42.5958 28.0707 43.1416 28.479L45.477 27.3936C46.452 26.9436 47.5895 27.3123 48.1187 28.2582L49.7312 31.1332C50.2479 32.0561 49.9999 33.2227 49.1583 33.8477L47.0749 35.3915C47.1145 35.7165 47.1437 36.0769 47.1437 36.4561C47.1437 36.8352 47.1145 37.1936 47.0749 37.5207L49.1583 39.0644C50.002 39.6894 50.2479 40.854 49.7333 41.7769L48.1187 44.6561C47.5916 45.5998 46.4604 45.9706 45.4791 45.5206L43.1437 44.4352C42.5979 44.8436 42.0208 45.1894 41.4166 45.4665L41.1583 48.1206C41.0562 49.1915 40.177 49.9998 39.1145 49.9998V49.9998ZM32.0062 42.1769C32.2499 42.1769 32.4916 42.2623 32.6854 42.429C33.3708 43.0186 34.1249 43.4706 34.927 43.7727C35.2979 43.9102 35.5583 44.2498 35.5979 44.6456L35.9166 47.9186L39.1145 47.9165L39.402 44.6456C39.4416 44.2519 39.702 43.9102 40.0729 43.7727C40.8749 43.4706 41.6291 43.0206 42.3145 42.429C42.6249 42.1602 43.0624 42.0998 43.4333 42.2748L46.3541 43.6311L47.9145 40.7581L45.3312 38.8227C45.0166 38.5915 44.8583 38.1998 44.9229 37.8123C44.9979 37.3707 45.0583 36.9227 45.0583 36.4582C45.0583 35.9936 44.9979 35.5457 44.9229 35.104C44.8583 34.7144 45.0145 34.3248 45.3312 34.0936L47.9166 32.1769L46.2999 29.279L43.4333 30.6394C43.0624 30.8102 42.6249 30.7519 42.3145 30.4852C41.6291 29.8957 40.8749 29.4436 40.0729 29.1415C39.702 29.004 39.4416 28.6644 39.402 28.2686L39.0833 24.9957L35.8854 24.9998L35.5979 28.2707C35.5583 28.6644 35.2979 29.0061 34.927 29.1436C34.1249 29.4457 33.3708 29.8957 32.6854 30.4873C32.3729 30.754 31.9354 30.8123 31.5666 30.6415L28.6458 29.2852L27.0854 32.1582L29.6687 34.0936C29.9833 34.3248 30.1416 34.7165 30.077 35.104C30.002 35.5457 29.9416 35.9936 29.9416 36.4582C29.9416 36.9227 30.002 37.3707 30.077 37.8123C30.1416 38.2019 29.9854 38.5915 29.6687 38.8227L27.0833 40.7394L28.6999 43.6373L31.5666 42.2769C31.7062 42.2102 31.8583 42.1769 32.0062 42.1769Z" fill="#F2F2F2"/>
<path d="M23.729 50H9.37484C6.504 50 4.1665 47.6646 4.1665 44.7917V5.20833C4.1665 2.33542 6.504 0 9.37484 0H40.6248C43.4957 0 45.8332 2.33542 45.8332 5.20833V20.4583C45.8332 21.0333 45.3665 21.5 44.7915 21.5C44.2165 21.5 43.7498 21.0354 43.7498 20.4583V5.20833C43.7498 3.48542 42.3478 2.08333 40.6248 2.08333H9.37484C7.65192 2.08333 6.24984 3.48542 6.24984 5.20833V44.7917C6.24984 46.5146 7.65192 47.9167 9.37484 47.9167H23.729C24.304 47.9167 24.7707 48.3833 24.7707 48.9583C24.7707 49.5333 24.3061 50 23.729 50Z" fill="#F2F2F2"/>
<path d="M11.4582 18.75C10.8832 18.75 10.4165 18.2833 10.4165 17.7083V7.29167C10.4165 6.71667 10.8832 6.25 11.4582 6.25H14.5832C16.8811 6.25 18.7498 8.11875 18.7498 10.4167C18.7498 12.7146 16.8811 14.5833 14.5832 14.5833H12.4998V17.7083C12.4998 18.2833 12.0332 18.75 11.4582 18.75ZM12.4998 12.5H14.5832C15.7311 12.5 16.6665 11.5667 16.6665 10.4167C16.6665 9.26667 15.7311 8.33333 14.5832 8.33333H12.4998V12.5Z" fill="#F2F2F2"/>
<path d="M32.2917 18.75C31.7167 18.75 31.25 18.2833 31.25 17.7083V7.29167C31.25 6.71667 31.7167 6.25 32.2917 6.25H35.4167C37.7146 6.25 39.5833 8.11875 39.5833 10.4167C39.5833 12.7146 37.7146 14.5833 35.4167 14.5833H33.3333V17.7083C33.3333 18.2833 32.8667 18.75 32.2917 18.75ZM33.3333 12.5H35.4167C36.5646 12.5 37.5 11.5667 37.5 10.4167C37.5 9.26667 36.5646 8.33333 35.4167 8.33333H33.3333V12.5Z" fill="#F2F2F2"/>
<path d="M28.1252 18.75C27.5502 18.75 27.0835 18.2833 27.0835 17.7083V7.29167C27.0835 6.71667 27.5502 6.25 28.1252 6.25C28.7002 6.25 29.1668 6.71667 29.1668 7.29167V17.7083C29.1668 18.2833 28.7002 18.75 28.1252 18.75Z" fill="#F2F2F2"/>
<path d="M27.604 14.5833H22.3957C21.8207 14.5833 21.354 14.1167 21.354 13.5417C21.354 12.9667 21.8207 12.5 22.3957 12.5H27.604C28.179 12.5 28.6457 12.9667 28.6457 13.5417C28.6457 14.1167 28.179 14.5833 27.604 14.5833Z" fill="#F2F2F2"/>
<path d="M21.8752 18.75C21.3002 18.75 20.8335 18.2833 20.8335 17.7083V7.29167C20.8335 6.71667 21.3002 6.25 21.8752 6.25C22.4502 6.25 22.9168 6.71667 22.9168 7.29167V17.7083C22.9168 18.2833 22.4502 18.75 21.8752 18.75Z" fill="#F2F2F2"/>
</g>
<defs>
<clipPath id="clip0">
<rect width="50" height="50" fill="white"/>
</clipPath>
</defs>
</svg>
