<svg width="50" height="50" viewBox="0 0 50 50" fill="none" xmlns="http://www.w3.org/2000/svg">
<g clip-path="url(#clip0)">
<path d="M45.3656 10.5112C44.7196 9.60754 44.0152 8.74702 43.2568 7.9353L40.9761 10.0723C41.6406 10.7822 42.2573 11.5352 42.8225 12.3264L45.3656 10.5112Z" fill="#F2F2F2"/>
<path d="M40.8275 5.66265C39.9698 4.9597 39.0671 4.31377 38.125 3.72876L36.4817 6.38435C37.3091 6.89584 38.1018 7.46152 38.8545 8.07768L40.8275 5.66265Z" fill="#F2F2F2"/>
<path d="M47.1134 13.3435L44.3516 14.8056C49.9869 25.4886 45.895 38.7173 35.212 44.3526C24.529 49.9879 11.3004 45.896 5.66507 35.213C0.0297468 24.5301 4.1215 11.3014 14.8045 5.66598C17.9483 4.0076 21.4488 3.14053 25.0031 3.13965C28.0711 3.13116 31.106 3.77377 33.9072 5.02512L35.1819 2.17271C22.5747 -3.44875 7.79755 2.2142 2.17589 14.8213C-3.44556 27.4285 2.21729 42.2057 14.8245 47.8273C27.4316 53.4489 42.2089 47.7859 47.8305 35.1788C49.2576 31.9783 49.9958 28.5135 49.997 25.0093C49.996 20.9444 49.0063 16.9407 47.1134 13.3435Z" fill="#F2F2F2"/>
<path d="M39.2045 21.4898C39.2057 22.1807 39.0452 22.8622 38.7358 23.48L32.3452 35.1208L27.2715 20.3229H29.6896V17.1987H20.317V20.3229H23.9692L25.4204 24.5547L19.6765 35.3801L14.5153 20.3229H17.1927V17.1987H7.82007V20.3229H11.213L17.6395 39.0683H21.2542L26.806 28.6021L30.3988 39.0683H33.7402L41.2383 25.4467L41.5226 24.878C43.3986 21.1322 41.8828 16.5746 38.137 14.6986C37.6397 14.4496 37.1166 14.256 36.577 14.1213L35.8194 17.1518C37.8103 17.6485 39.2066 19.4379 39.2045 21.4898Z" fill="#F2F2F2"/>
</g>
<defs>
<clipPath id="clip0">
<rect width="50" height="50" fill="white"/>
</clipPath>
</defs>
</svg>
