<?xml version="1.0" ?><svg height="32" id="svg7727" version="1.1" viewBox="0 0 32 32" width="32" xmlns="http://www.w3.org/2000/svg" xmlns:cc="http://creativecommons.org/ns#" xmlns:dc="http://purl.org/dc/elements/1.1/" xmlns:inkscape="http://www.inkscape.org/namespaces/inkscape" xmlns:rdf="http://www.w3.org/1999/02/22-rdf-syntax-ns#" xmlns:sodipodi="http://sodipodi.sourceforge.net/DTD/sodipodi-0.dtd" xmlns:svg="http://www.w3.org/2000/svg"><defs id="defs7729"><pattern height="6" id="EMFhbasepattern" patternUnits="userSpaceOnUse" width="6" x="0" y="0"/><pattern height="6" id="EMFhbasepattern-6" patternUnits="userSpaceOnUse" width="6" x="0" y="0"/></defs><g id="layer1" transform="translate(0,-1020.3622)"><g id="g34349" transform="matrix(3.7790713,0,0,3.7790707,10742.85,-1771.0713)"><path d="m -2842.578,743.30092 c 0.031,-0.45232 0.075,-0.91603 0.2387,-1.33901 0.1534,-0.39727 0.4054,-0.75607 0.6794,-1.08221 0.3817,-0.45426 0.8194,-0.87682 1.3221,-1.19227 0.4255,-0.26692 0.9088,-0.44462 1.3956,-0.56861 0.4775,-0.12162 0.9802,-0.22749 1.469,-0.16509 0.4747,0.0606 0.9379,0.25516 1.3405,0.51359 0.3896,0.2501 0.7265,0.59283 0.9916,0.97216 0.2384,0.34105 0.391,0.7399 0.5141,1.13724 0.1343,0.43308 0.2347,0.88566 0.2388,1.339 0.01,0.58198 -0.034,1.19449 -0.2755,1.7242 -0.2412,0.52939 -0.6607,0.9816 -1.1201,1.33901 -0.4341,0.33775 -0.9543,0.57902 -1.4874,0.71536 -0.6769,0.17312 -1.3978,0.17709 -2.0933,0.11005 -0.6029,-0.0581 -1.2408,-0.13339 -1.7629,-0.44022 -0.4479,-0.26324 -0.798,-0.69189 -1.065,-1.13724 -0.186,-0.31019 -0.2827,-0.67171 -0.3489,-1.02718 -0.055,-0.29478 -0.057,-0.59963 -0.037,-0.89878 z" id="path34129" style="fill:none;fill-rule:evenodd;stroke:#000000;stroke-width:0.2646153px;stroke-linecap:butt;stroke-linejoin:miter;stroke-opacity:1"/><path d="m -2842.5597,744.03462 c 0,0 0.6751,-0.22533 0.9916,-0.38519 0.3364,-0.16993 0.6756,-0.35244 0.9549,-0.60531 0.2245,-0.20328 0.4286,-0.44261 0.56,-0.71536 0.1434,-0.2973 0.2075,-0.63376 0.2296,-0.96298 0.019,-0.27589 -0.041,-0.55198 -0.083,-0.82542 -0.048,-0.31892 -0.1914,-0.94845 -0.1914,-0.94845" id="path34131" style="fill:none;fill-rule:evenodd;stroke:#000000;stroke-width:0.2646153px;stroke-linecap:butt;stroke-linejoin:miter;stroke-opacity:1"/><path d="m -2840.246,746.56589 c 0,0 0.076,-0.69474 0.1469,-1.03635 0.1078,-0.51849 0.2568,-1.02855 0.4224,-1.53161 0.1147,-0.34841 0.2234,-0.70282 0.3948,-1.02718 0.2136,-0.40423 0.464,-0.79784 0.7804,-1.12807 0.3293,-0.34367 0.758,-0.57605 1.1385,-0.8621 0.2656,-0.19963 0.5227,-0.41132 0.7988,-0.59613 0.2739,-0.18334 0.8488,-0.5072 0.8488,-0.5072" id="path34133" style="fill:none;fill-rule:evenodd;stroke:#000000;stroke-width:0.2646153px;stroke-linecap:butt;stroke-linejoin:miter;stroke-opacity:1"/><path d="m -2837.0398,746.5893 c 0,0 0.079,-0.62326 0.052,-0.93385 -0.026,-0.2941 -0.1149,-0.58018 -0.2013,-0.86251 -0.057,-0.18584 -0.1633,-0.35558 -0.2077,-0.54475 -0.036,-0.15224 -0.066,-0.3119 -0.046,-0.46692 0.021,-0.15802 0.078,-0.31629 0.1688,-0.44747 0.1672,-0.24202 0.4083,-0.43498 0.6622,-0.58366 0.3047,-0.17837 0.6773,-0.20648 0.9998,-0.35019 0.1849,-0.0824 0.3688,-0.17281 0.5324,-0.29183 0.1732,-0.12602 0.4674,-0.44099 0.4674,-0.44099" id="path34135" style="fill:none;fill-rule:evenodd;stroke:#000000;stroke-width:0.2646153px;stroke-linecap:butt;stroke-linejoin:miter;stroke-opacity:1"/><path d="m -2840.3118,740.20151 c 0,0 0.075,0.2004 0.097,0.3048 0.026,0.12338 0.039,0.37613 0.039,0.37613" id="path34137" style="fill:none;fill-rule:evenodd;stroke:#000000;stroke-width:0.13230765;stroke-linecap:round;stroke-linejoin:round;stroke-miterlimit:4;stroke-dasharray:none;stroke-opacity:1"/><path d="m -2836.6697,740.91487 c 0,0 0.1864,-0.18336 0.2921,-0.25941 0.095,-0.0685 0.3052,-0.1751 0.3052,-0.1751" id="path34139" style="fill:none;fill-rule:evenodd;stroke:#000000;stroke-width:0.13230765;stroke-linecap:round;stroke-linejoin:round;stroke-miterlimit:4;stroke-dasharray:none;stroke-opacity:1"/><path d="m -2836.0984,742.79553 -0.1753,0.28535" id="path34141" style="fill:none;fill-rule:evenodd;stroke:#000000;stroke-width:0.06615382;stroke-linecap:round;stroke-linejoin:round;stroke-miterlimit:4;stroke-dasharray:none;stroke-opacity:1"/><path d="m -2835.8777,742.68529 -0.1363,0.29831" id="path34143" style="fill:none;fill-rule:evenodd;stroke:#000000;stroke-width:0.06615382;stroke-linecap:round;stroke-linejoin:round;stroke-miterlimit:4;stroke-dasharray:none;stroke-opacity:1"/><path d="m -2835.618,742.58801 -0.1363,0.33723" id="path34145" style="fill:none;fill-rule:evenodd;stroke:#000000;stroke-width:0.06615382;stroke-linecap:round;stroke-linejoin:round;stroke-miterlimit:4;stroke-dasharray:none;stroke-opacity:1"/><path d="m -2835.3972,742.50371 -0.1104,0.31128" id="path34147" style="fill:none;fill-rule:evenodd;stroke:#000000;stroke-width:0.06615382;stroke-linecap:round;stroke-linejoin:round;stroke-miterlimit:4;stroke-dasharray:none;stroke-opacity:1"/><path d="m -2835.183,742.40643 -0.084,0.3048" id="path34149" style="fill:none;fill-rule:evenodd;stroke:#000000;stroke-width:0.06615382;stroke-linecap:round;stroke-linejoin:round;stroke-miterlimit:4;stroke-dasharray:none;stroke-opacity:1"/><path d="m -2834.9817,742.26376 -0.078,0.36965" id="path34151" style="fill:none;fill-rule:evenodd;stroke:#000000;stroke-width:0.06615382;stroke-linecap:round;stroke-linejoin:round;stroke-miterlimit:4;stroke-dasharray:none;stroke-opacity:1"/><path d="m -2841.7463,740.99334 c 0,0 0.2076,0.3871 0.3373,0.56355 0.1405,0.19132 0.3091,0.36087 0.4739,0.53177 0.102,0.1057 0.2067,0.20914 0.3181,0.3048 0.1967,0.16879 0.4011,0.32966 0.6168,0.47341 0.2637,0.17576 0.5352,0.34399 0.8245,0.47341 0.2014,0.0901 0.4128,0.16067 0.6283,0.20826 0.2346,0.0518 0.4759,0.0788 0.7161,0.0825 0.3286,0.005 0.6538,-0.0851 0.9825,-0.0825 0.369,0.003 0.7438,0.02 1.1017,0.11006 0.2475,0.0623 0.4942,0.15278 0.707,0.29348 0.1818,0.12021 0.4671,0.45741 0.4671,0.45741" id="path34153" style="fill:none;fill-rule:evenodd;stroke:#000000;stroke-width:0.2646153px;stroke-linecap:butt;stroke-linejoin:miter;stroke-opacity:1"/><path d="m -2842.1098,742.95241 -0.2249,0.69243" id="path34155" style="fill:none;fill-rule:evenodd;stroke:#000000;stroke-width:0.06615382;stroke-linecap:round;stroke-linejoin:round;stroke-miterlimit:4;stroke-dasharray:none;stroke-opacity:1"/><path d="m -2841.9583,743.01202 -0.1744,0.56862" id="path34157" style="fill:none;fill-rule:evenodd;stroke:#000000;stroke-width:0.06615382;stroke-linecap:round;stroke-linejoin:round;stroke-miterlimit:4;stroke-dasharray:none;stroke-opacity:1"/><path d="m -2841.7563,742.98909 -0.1653,0.49067" id="path34159" style="fill:none;fill-rule:evenodd;stroke:#000000;stroke-width:0.06615382;stroke-linecap:round;stroke-linejoin:round;stroke-miterlimit:4;stroke-dasharray:none;stroke-opacity:1"/><path d="m -2841.591,742.98909 -0.1332,0.43564" id="path34161" style="fill:none;fill-rule:evenodd;stroke:#000000;stroke-width:0.06615382;stroke-linecap:round;stroke-linejoin:round;stroke-miterlimit:4;stroke-dasharray:none;stroke-opacity:1"/><path d="m -2841.4487,742.95699 -0.124,0.40354" id="path34163" style="fill:none;fill-rule:evenodd;stroke:#000000;stroke-width:0.06615382;stroke-linecap:round;stroke-linejoin:round;stroke-miterlimit:4;stroke-dasharray:none;stroke-opacity:1"/><path d="m -2841.2651,742.92031 -0.1148,0.32099" id="path34165" style="fill:none;fill-rule:evenodd;stroke:#000000;stroke-width:0.06615382;stroke-linecap:round;stroke-linejoin:round;stroke-miterlimit:4;stroke-dasharray:none;stroke-opacity:1"/><path d="m -2841.0998,742.83777 -0.1102,0.31641" id="path34167" style="fill:none;fill-rule:evenodd;stroke:#000000;stroke-width:0.06615382;stroke-linecap:round;stroke-linejoin:round;stroke-miterlimit:4;stroke-dasharray:none;stroke-opacity:1"/><path d="m -2840.9713,742.82401 -0.069,0.19718" id="path34169" style="fill:none;fill-rule:evenodd;stroke:#000000;stroke-width:0.06615382;stroke-linecap:round;stroke-linejoin:round;stroke-miterlimit:4;stroke-dasharray:none;stroke-opacity:1"/><path d="m -2839.2991,743.76148 -0.2986,0.66148" id="path34171" style="fill:none;fill-rule:evenodd;stroke:#000000;stroke-width:0.06615382;stroke-linecap:round;stroke-linejoin:round;stroke-miterlimit:4;stroke-dasharray:none;stroke-opacity:1"/><path d="m -2839.3185,744.20895 -0.3311,0.57069" id="path34173" style="fill:none;fill-rule:evenodd;stroke:#000000;stroke-width:0.06615382;stroke-linecap:round;stroke-linejoin:round;stroke-miterlimit:4;stroke-dasharray:none;stroke-opacity:1"/><path d="m -2839.2666,744.48781 -0.4285,0.66796" id="path34175" style="fill:none;fill-rule:evenodd;stroke:#000000;stroke-width:0.06615382;stroke-linecap:round;stroke-linejoin:round;stroke-miterlimit:4;stroke-dasharray:none;stroke-opacity:1"/><path d="m -2839.3315,744.92231 -0.474,0.64202" id="path34177" style="fill:none;fill-rule:evenodd;stroke:#000000;stroke-width:0.06615382;stroke-linecap:round;stroke-linejoin:round;stroke-miterlimit:4;stroke-dasharray:none;stroke-opacity:1"/><path d="m -2839.312,745.25953 -0.5129,0.64851" id="path34179" style="fill:none;fill-rule:evenodd;stroke:#000000;stroke-width:0.06615382;stroke-linecap:round;stroke-linejoin:round;stroke-miterlimit:4;stroke-dasharray:none;stroke-opacity:1"/><path d="m -2839.364,745.64215 -0.5064,0.63554" id="path34181" style="fill:none;fill-rule:evenodd;stroke:#000000;stroke-width:0.06615382;stroke-linecap:round;stroke-linejoin:round;stroke-miterlimit:4;stroke-dasharray:none;stroke-opacity:1"/><path d="m -2839.338,745.93398 -0.3766,0.49935" id="path34183" style="fill:none;fill-rule:evenodd;stroke:#000000;stroke-width:0.06615382;stroke-linecap:round;stroke-linejoin:round;stroke-miterlimit:4;stroke-dasharray:none;stroke-opacity:1"/><path d="m -2836.7444,745.23716 c 0,0 0.077,0.18202 0.091,0.27886 0.015,0.10609 -0.013,0.32101 -0.013,0.32101" id="path34185" style="fill:none;fill-rule:evenodd;stroke:#000000;stroke-width:0.13230765;stroke-linecap:round;stroke-linejoin:round;stroke-miterlimit:4;stroke-dasharray:none;stroke-opacity:1"/></g></g></svg>