<?xml version="1.0" ?><!DOCTYPE svg  PUBLIC '-//W3C//DTD SVG 1.1//EN'  'http://www.w3.org/Graphics/SVG/1.1/DTD/svg11.dtd'><svg enable-background="new 0 0 128 128" height="128px" id="Layer_1" version="1.1" viewBox="0 0 128 128" width="128px" xml:space="preserve" xmlns="http://www.w3.org/2000/svg" xmlns:xlink="http://www.w3.org/1999/xlink"><path d="  M87.541,76.17c11.813-6,24.375-19.624,24.375-19.624C101.416,57.671,83.668,54,83.668,54c-4.875-7.125-12.666-23.333-19.063-33.705  l-1.313,3.188c-4.5,10.125-12.127,20.438-16.252,30.563c0,0-21.625,1.252-30.625,5.002c0,0,16,15.248,25,18.248  c0,0-1.5,22.125-3.375,32.25c8.625-9,18.75-15,29.25-21.375c10.5,5.25,19.688,15.938,30.938,20.813  C96.354,98.482,87.541,76.17,87.541,76.17z" fill="none" stroke="#191414" stroke-linecap="round" stroke-linejoin="round" stroke-miterlimit="10" stroke-width="4"/><path d="  M50.413,67.541c0.64,0.804,6.625,8.197,8.947,10.289c6.671-7.279,11.214-11.878,17.927-19.518" fill="none" stroke="#191414" stroke-linecap="round" stroke-linejoin="round" stroke-miterlimit="10" stroke-width="4"/></svg>