<svg width="40" height="40" fill="none" xmlns="http://www.w3.org/2000/svg"><path d="M39.89 21.31C41.166 9.847 31.166.874 20.357.478a1.13 1.13 0 00-.084 0c-.047.003-.105.009-.127.004-.014-.002-.027-.004-.045-.003C9.66.86 1.28 8.179.111 18.678c-1.277 11.466 8.722 20.437 19.531 20.833 10.506.384 19.122-8.095 20.247-18.2zm-1.903.022a16.277 16.277 0 01-.298 2.34c-.113.56-.56 1.337-.958 1.746l-.907.929c-.4.41-.51.328-.284-.194a17.782 17.782 0 001.128-3.64c.11-.56.433-1.286.755-1.615.323-.333.595-.138.564.434zm-.293-4.015c.013.054.026.107.036.16.032.17.06.34.086.508.044.28-.128.71-.373.957-.244.247-.441.112-.464-.298-.022-.41.106-.908.31-1.114.202-.205.384-.302.405-.213zm-1.047-2.474c.165-.177.438.088.584.597.148.51.095 1.092-.093 1.293-.187.198-.406-.079-.53-.613-.125-.534-.126-1.1.04-1.277zm-34.001.056a16.9 16.9 0 011.467-3.49c.28-.498.856-1.215 1.258-1.62C6.714 8.435 8.06 7.084 9.405 5.733c.403-.405 1.114-.99 1.607-1.277 2.618-1.532 5.618-2.469 8.742-2.606 7.457.312 13.495 4.436 16.427 10.786.239.518.28 1.077.12 1.234-.16.158-.455-.147-.702-.662-.315-.664-.678-1.3-1.085-1.911-.317-.476-.447-.976-.257-1.143.19-.168.28-.377.195-.465-.083-.087-.288-.024-.461.143-.173.165-.492.078-.728-.186-.235-.264-.302-.6-.14-.757.163-.158.284-.297.27-.309-.015-.013-.157.103-.32.258-.162.154-.17.149-.01-.01.16-.157.261-.313.222-.347-.038-.034-.197.063-.355.214-.157.152-.605-.06-1.027-.443l-.163-.147c-.428-.378-.682-.765-.546-.892s-.003-.404-.322-.6c-.32-.199-.677-.264-.79-.16-.113.106-.47.009-.805-.198-.338-.208-.547-.433-.46-.513.087-.08-.004-.219-.207-.306-.202-.085-.43-.099-.506-.03-.074.066-.461-.05-.871-.24s-.728-.35-.7-.378c.028-.026-.049-.076-.17-.107-.123-.032-.237-.042-.252-.026-.014.017-.46-.14-1.003-.315a17.85 17.85 0 00-4.75-.871c-6.73-.285-12.52 3.752-15.41 9.412-.26.508-.774 1.26-1.18 1.66-.215.21-.43.423-.645.635-.407.398-.637.271-.477-.277zm18.61 20.163c-.566.067-1.492.067-2.06.007C1.914 33.222.14 7.233 18.523 4.887c7.982-1.02 14.592 5.347 16.18 12.672 1.905 8.803-5.095 16.517-13.446 17.503zM1.987 19.447c0-.51.34-1.244.726-1.642.387-.397.616-.359.535.093-.048.27-.09.544-.127.818a3.161 3.161 0 00-.021.276c-.008.153-.256.522-.551.828-.296.304-.562.137-.562-.373zm1.258 5.325c-.165.163-.446-.144-.597-.695l-.02-.072c-.15-.55-.119-1.141.034-1.31.154-.169.151-.182-.006-.03-.157.151-.307.18-.336.06a3.846 3.846 0 01-.048-.216 10.375 10.375 0 01-.066-.392c-.034-.217.137-.586.377-.822.24-.237.437.036.489.605.047.533.126 1.055.23 1.57.114.56.108 1.139-.057 1.302zm2.181 4.574c-.173.16-.562-.099-.844-.593a20.6 20.6 0 01-.83-1.62c-.237-.52-.282-1.078-.13-1.232.151-.157.433.152.671.67.259.56.551 1.1.875 1.622.3.487.43.993.258 1.153zm16.09 8.75c-1.764.195-3.465.08-5.086-.273-.557-.121-.992-.26-.982-.273.012-.012-.412-.186-.934-.418l-.117-.053c-.52-.235-.97-.412-1.024-.361-.054.051-.522-.09-1.028-.353-.348-.18-.69-.372-1.024-.577-.488-.296-.79-.637-.694-.732.094-.095-.02-.318-.25-.503-.23-.187-.498-.263-.608-.163-.109.1-.564-.102-.994-.477-.41-.355-.802-.73-1.18-1.12-.397-.41-.585-.88-.444-1.021.142-.144.224-.302.185-.354-.04-.053-.194.018-.345.159-.152.14-.483.01-.725-.303-.243-.314-.296-.699-.13-.85.166-.153.188-.451.055-.671-.133-.22.034-.025.402.41 3.156 3.743 8.014 6.147 13.05 6.36a.748.748 0 00.084 0c.048-.002.105-.007.128-.003.014.002.026.004.044.003a18.82 18.82 0 007.247-1.755c.517-.243.753-.293.546-.081-.208.213-.16.315.103.219.262-.096.776-.49 1.151-.87s1.063-.948 1.512-1.302a16.731 16.731 0 002.788-2.76c.355-.447.945-1.155 1.347-1.56l1.755-1.77c.401-.404.576-.295.354.231-2.536 6.005-8.469 10.481-15.187 11.221z" fill="#F2F2F2"/><path d="M22.29 9.667c-2.11.334-2.376 2.604-1.633 4.37.917 2.18 7.502 4.838 4.567 7.756-1.235 1.23-4.757 3.497-4.757 5.409 0 2.125.156 4.015 2.702 2.684 1.947-1.017 3.706-3.599 5.243-5.128.975-.97 5.14-3.83 4.457-5.486a.057.057 0 00-.022-.024c-.017-.012-.353-.352-.754-.756a1344.171 1344.171 0 00-5.308-5.3c-.985-.98-2.804-3.792-4.496-3.525zm.125 2.418c.024-.34.183-.48.352-.31.17.17.157.447-.027.618-.188.172-.347.032-.325-.308zm8.247 8.739c-.755 1.276-2.961 2.902-3.523 3.462l-5.106 5.079c-.664.661.43-.547.43-1.304 0-1.503.152-1.929 1.187-2.958.944-.94 4.331-3.263 4.331-4.853 0-.089-.01-.172-.022-.254-.02-.14.188-.486.472-.773.283-.29.275-.323-.012-.066-.287.256-.596 0-.85-.512a4.798 4.798 0 00-.372-.624c-.325-.47-.545-.902-.412-1.029.133-.127.214-.256.18-.289-.033-.033-.165.043-.296.172-.13.127-.132.127-.002-.002s.225-.243.21-.258c-.014-.014-.131.078-.261.205-.13.128-.56-.1-.98-.487a26.232 26.232 0 00-.312-.286c-.423-.384-.642-.809-.493-.947.15-.139.06-.462-.2-.723-.262-.26-.601-.35-.758-.205-.157.147-.533.048-.801-.252-.271-.3-.245-.764-.008-.988.24-.226.764-.082 1.171.319 1.987 1.96 3.952 3.916 5.916 5.87.401.4.802 1.21.511 1.703z" fill="#F2F2F2"/><path d="M19.477 13.71c.974-.969.686-4.325-1.198-4.003-1.82.31-3.072 2.17-4.287 3.38l-6.471 6.439c-.013.013-.026.024-.038.038-.022.02-.054.064-.078.092-.018.021-.034.037-.04.053-.644 1.572 2.934 3.959 3.867 4.888 1.494 1.486 3.63 4.686 5.598 5.5 1.673.691 2.927-.393 2.927-2.036 0-3.078-2.631-4.561-4.734-6.653-2.425-2.416 2.842-6.092 4.454-7.697zm-7.235 6.028c0 2.288 2.298 3.752 3.809 5.255.594.59 1.38 1.159 1.71 1.944.075.178.078.484.06.794-.024.441-.176.678-.325.53a.366.366 0 01.004-.53c.152-.144.262-.274.246-.29-.018-.017-.153.09-.302.236-.15.147-.598-.062-1.003-.464l-.498-.494c-.405-.404-.607-.843-.453-.986.153-.144.067-.468-.194-.727-.26-.258-.595-.353-.749-.21-.153.142-.413.124-.58-.043l-.303-.302a4.874 4.874 0 00-.206-.19c-.116-.105-.084-.306.075-.453.16-.15.234-.323.167-.391-.068-.068-.252.007-.41.165-.158.158-.64-.01-1.074-.382-.11-.095-.223-.192-.336-.294-.43-.376-.613-.85-.427-1.042.186-.19.196-.487.022-.66-.173-.174-.469-.16-.657.027-.19.189-.673.014-1.01-.448a4.304 4.304 0 01-.26-.391c-.283-.495.114-1.309.519-1.71 2.707-2.692 5.412-5.386 8.12-8.077.67-.668-.425.577-.425 1.325 0 1.505-.142 1.944-1.18 2.977-.93.922-4.34 3.266-4.34 4.831z" fill="#F2F2F2"/></svg>