<svg width="40" height="40" fill="none" xmlns="http://www.w3.org/2000/svg"><g clip-path="url(#clip0)" fill="#F2F2F2"><path d="M38.105 14.807c-.178-.269-.563-.386-.87-.304-.542-1.98-3.335-4.174-4.426-5.234-3.053-2.97-6.423-5.757-10.037-8.02-8.356-5.23-15.31 7.414-21.423 11.223-.512.32-.377.881 0 1.121a47.246 47.246 0 00.038.488c.61 7.914-1.657 16.503.414 24.167.168.625.958.718 1.368.382.047.024.088.053.144.065 5.395 1.181 10.939 1.235 16.437 1.202 5.53-.033 11.349.345 16.84-.169.436-.04.725-.412.773-.786.07.07.13.15.206.214.173.149.47.106.53-.14.414-1.694-.16-3.56-.217-5.306-.076-2.33.164-4.683.377-7 .3-3.27 1.8-8.957-.154-11.903zm-2.763.28a3.29 3.29 0 00-.487.16 10.647 10.647 0 01-.67-.535c-.717-.637-1.401-1.308-2.118-1.944a.4.4 0 00-.555-.003c-.09-.746-.18-1.495-.287-2.242 1.423 1.47 2.782 3.005 4.117 4.564zm-1.5.718c-.674.455-1.303 1.024-1.797 1.484-.002-1.126-.26-2.328-.392-3.365l-.055-.452a45.002 45.002 0 001.874 1.952c.12.119.243.248.37.381zm-3.824-1.881c.084 1.53-.024 3.292.45 4.745.01.032.03.056.044.085-2.377 2.376-4.52 5.009-7.093 7.172-.359-.045-.64.238-.697.568-.075.058-.145.121-.22.179-3.703 2.814-8.172-1.695-10.936-4.055-.515-.44-1.011-.898-1.512-1.352-.05-3.249-1.678-12.118 1.944-12.56 6.04-.738 11.768.016 17.754.65.04 1.524.183 3.052.266 4.568zM21.825 2.869c2.146 1.274 4.108 2.747 5.944 4.353a41.103 41.103 0 00-2.969-.407c-2.524-1.638-5.216-2.93-7.68-4.659 1.523-.388 3.088-.247 4.705.713zm-5.608-.422c1.666 1.514 3.535 2.908 5.473 4.13a68.821 68.821 0 00-2.59-.075c-.672-.476-1.527-.845-2.153-1.28-.853-.59-1.665-1.243-2.482-1.885.579-.358 1.162-.66 1.752-.89zm-2.303 1.248a81.015 81.015 0 002.828 2.422c.134.11.275.228.418.349-.59-.016-1.24-.031-1.914-.028-.348-.17-.767-.282-1.03-.41-.654-.317-1.293-.694-1.853-1.16.513-.425 1.03-.818 1.551-1.173zm-2.078 1.619c.49.46 1.043.844 1.62 1.189-1.34.101-2.595.343-3.396.882-1.565 1.051-2.069 3.17-2.101 5.524a8.03 8.03 0 01-1.767-1.642c-.288-.371-.878.106-.641.494.386.63.917 1.157 1.472 1.638.25.217.591.555.953.668.027.617.078 1.24.145 1.856-.815-.25-1.65-.97-2.24-1.431-.732-.572-1.414-1.207-2.088-1.848 2.618-1.81 5.276-4.927 8.043-7.33zm-9.058 8.589a56.228 56.228 0 00-.116-.563 10.5 10.5 0 00.645-.377c.882.909 1.782 1.803 2.75 2.62.583.493 1.354 1.166 2.164 1.186.151 1.172.341 2.294.5 3.266-2.063-1.962-4.024-4.02-5.942-6.132zm.509 22.162c-.302-6.374.662-12.962-.052-19.288 1.908 2.378 4.228 4.532 6.391 6.549 1.412 1.317 3.062 2.838 4.86 4.065-1.987.487-3.916 2.409-5.434 3.66a161.686 161.686 0 00-5.765 5.014zm17.725 1.897c-5.754.102-11.46-.083-17.189-.598 1.64-1.166 3.185-2.497 4.758-3.73 2.19-1.717 4.553-3.18 6.753-4.839a.869.869 0 00.357-.644c1.27.731 2.598 1.274 3.96 1.462 1.58.218 3.098-.581 4.455-1.657 1.994 1.44 3.931 2.96 5.838 4.51 1.253 1.018 5.216 3.528 5.353 5.262a.823.823 0 00.045.206c-4.652-.637-9.704-.054-14.33.028zm15.245-10.235c-.178 1.962-.683 5.273-.279 7.965-2.187-2.786-7.896-6.816-10.757-8.7.768-.719 1.465-1.463 2.066-2.068 2.088-2.099 5.032-6.633 8.184-7.807.028.011.054.026.082.036.22.078.436-.043.553-.225.16-.035.322-.072.483-.087.052-.005.1-.021.148-.035.044 1.03.177 2.068.156 3.1-.052 2.611-.4 5.222-.636 7.82z"/><path d="M25.355 15.952c-2.41-.835-6.038-.095-8.565-.055-.422.007-5.796-.24-5.166.946.643 1.21 5.215.599 6.353.617 2.197.035 5.28.653 7.378-.074a.75.75 0 000-1.434zm-6.368-3.642c-.545-.688-1.764-.487-2.532-.493-1.39-.01-2.854-.078-4.234.086-.714.084-.714 1.025 0 1.11 1.189.14 2.414.08 3.61.158.947.062 1.94.344 2.876.199.526-.082.538-.734.28-1.06z"/></g><defs><clipPath id="clip0"><path fill="#fff" d="M0 0h40v40H0z"/></clipPath></defs></svg>