<svg width="40" height="32" viewBox="0 0 40 32" fill="none" xmlns="http://www.w3.org/2000/svg">
<mask id="path-1-inside-1" fill="white">
<path fill-rule="evenodd" clip-rule="evenodd" d="M40 3.83334H0V0.833344H40V3.83334ZM40 17.5H0V14.5H40V17.5ZM0 31.1666H40V28.1666H0V31.1666Z"/>
</mask>
<path d="M0 3.83334H-3V6.83334H0V3.83334ZM40 3.83334V6.83334H43V3.83334H40ZM0 0.833344V-2.16666H-3V0.833344H0ZM40 0.833344H43V-2.16666H40V0.833344ZM0 17.5H-3V20.5H0V17.5ZM40 17.5V20.5H43V17.5H40ZM0 14.5V11.5H-3V14.5H0ZM40 14.5H43V11.5H40V14.5ZM40 31.1666V34.1666H43V31.1666H40ZM0 31.1666H-3V34.1666H0V31.1666ZM40 28.1666H43V25.1666H40V28.1666ZM0 28.1666V25.1666H-3V28.1666H0ZM0 6.83334H40V0.833344H0V6.83334ZM-3 0.833344V3.83334H3V0.833344H-3ZM40 -2.16666H0V3.83334H40V-2.16666ZM43 3.83334V0.833344H37V3.83334H43ZM0 20.5H40V14.5H0V20.5ZM-3 14.5V17.5H3V14.5H-3ZM40 11.5H0V17.5H40V11.5ZM43 17.5V14.5H37V17.5H43ZM40 28.1666H0V34.1666H40V28.1666ZM37 28.1666V31.1666H43V28.1666H37ZM0 31.1666H40V25.1666H0V31.1666ZM3 31.1666V28.1666H-3V31.1666H3Z" fill="#FEF1F6" fill-opacity="0.83" mask="url(#path-1-inside-1)"/>
</svg>
