<svg width="25" height="25" fill="none" xmlns="http://www.w3.org/2000/svg"><g clip-path="url(#clip0)" fill="#F2F2F2"><path d="M24.91 16.322V4.172c0-3.102-2.024-3.991-4.75-3.991H3.825a.3.3 0 00-.044.003c-.024.002-.055.007-.069.006l-.025.001C.156.601 0 3.26 0 6.131v12.787c0 2.63.09 5.654 3.595 5.654h11.151c2.117 0 6.267.793 8.234-.46 2.656-1.694 1.93-5.047 1.93-7.79zM23.83 4.964c-.01.278-.02.541-.02.774v.202c0 .111-.183.379-.41.597L22.248 7.65c-.225.218-.37.408-.32.417.05.01.273-.163.5-.382l.977-.951c.225-.22.407-.176.407.097 0 .272-.178.666-.398.878-.219.213-.32.385-.226.385s.272-.09.397-.2c.126-.11.227.054.227.368v3.415c0 .806.017 1.622.04 2.443.008.314-.036.764-.115 1.002-.078.237-.09.355-.006.27.083-.086.157.1.165.414.008.307.013.614.019.921.005.314-.17.752-.39.976l-.888.91c-.22.226-.403.21-.41-.034-.005-.152-.009-.3-.009-.443 0-1.73 1.047-7.204-1.156-7.852a.273.273 0 00-.048-.008c-.027-.002-.075-.01-.108-.015-.032-.005-.064-.014-.07-.025-.008-.01-.02-.012-.031-.002-.01.01-.07.017-.135.028a1.054 1.054 0 00-.116.026c-1.687.47-1.175 1.495-1.26 3.104a5.876 5.876 0 01-.535 2.174c-.133.285-.444.684-.667.906l-.301.301c-.223.222-.325.392-.231.374.093-.016-.004.157-.236.368-1.072.971-2.477 1.582-3.955 1.764-.311.037-.51-.01-.44-.08s.03-.178-.087-.247c-.117-.068-.33-.016-.481.123-.151.139-.528.241-.84.203a6.91 6.91 0 01-1.483-.343 3.082 3.082 0 01-.205-.08c-.113-.047-.027-.265.189-.485.216-.22.204-.225-.027-.012v.002c-.232.212-.59.31-.791.203-.202-.107-.17-.378.061-.59l.784-.72c.231-.212.657-.294.96-.21.411.111.831.181 1.25.203 1.396.073 2.71-.447 3.714-1.323.237-.206.246-.197.015.016a5.064 5.064 0 01-.464.38c-.256.183-.534.351-.599.41-.065.06-.041.139.055.174.095.035.352-.12.572-.344 1.005-1.024 2.01-2.05 3.013-3.077.22-.226.208-.237-.026-.027l-1.308 1.181c-.232.211-.268.178-.108-.092a5.26 5.26 0 00.657-1.791c.02-.114.034-.225.041-.336.015-.186.2-.513.427-.73a655.79 655.79 0 001.742-1.662c.227-.216.392-.416.365-.443-.027-.028-.23.128-.456.347a955.074 955.074 0 00-1.662 1.624c.553-.545 1.13-1.114 1.657-1.631.223-.22.4-.404.394-.41a5.884 5.884 0 00-.415.387l-1.636 1.598c-.225.22-.411.143-.466-.167a3.794 3.794 0 00-.097-.42c-.088-.303-.012-.708.218-.921l.982-.914c.23-.215.27-.481.08-.58-.19-.098-.537.01-.768.223-.221.205-.44.41-.662.614-.23.214-.517.243-.655.078-.14-.164-.074-.459.157-.671l.247-.226c.231-.213.671-.347.984-.333.8.035 1.642-.064 2.111-.064 1.232 0 1.671-.709 1.813-1.605.05-.31.066-.576.08-.589l.023-.022.886-.823.337-.34c.185-.189.333-.088.323.226zm-.422 1.71c-.331.328-.649.636-.96.933-.227.217-.23.215-.005-.004.356-.344.673-.653.96-.933.225-.22.228-.217.005.004zm-2.491 14.578H9.874c-.833 0-6.128.7-6.128-.846v-8.7c0-1.121.815 1.68.818 1.76.1 1.933 1.296 3.63 2.693 4.86 2.288 2.014 5.596 2.03 8.312 1.068 1.451-.515 2.632-1.607 3.554-2.801.443-.576.717-1.282.97-1.951.099-.26.258-1.977.407-3.027.044-.311.28-.381.418-.099.84 1.709.2 5.812.2 6.917 0 .15.146 2.82-.201 2.82zm-11.52-4.895c.186.117.16.372-.07.586l-.656.608c-.23.214-.552.28-.71.138-.158-.142-.092-.44.138-.654l.55-.513c.229-.214.56-.283.747-.165zm2.295-8.314c.31-.052.82-.052 1.13 0 4.748.802 5.375 8.338-.125 8.625-5.143.268-6.006-7.798-1.005-8.625zm9.39-.969c-.083.725-1.238.462-1.718.462-.607 0-1.328.144-1.793-.321-.344-.344-.199-1.272-.199-1.7 0-.273-.11-1.18.06-1.715.094-.3.616-.41.93-.433.891-.066 2.03-.159 2.548.36.343.344.199 1.271.199 1.7 0 .546.036 1.105-.027 1.647zm-19.63-4.47c.32-.805.79-1.415 1.474-1.696.29-.12.577-.146.613-.146.037 0-.112.181-.332.405l-1.54 1.57c-.22.224-.33.16-.214-.132zM.919 8.829l-.014-.244c-.018-.314.15-.746.377-.963C2.358 6.589 3.387 5.6 4.384 4.645c.227-.218.412-.405.412-.417 0-.012-.184.154-.411.372-.979.94-2.015 1.935-3.104 2.978-.227.218-.417.284-.426.147L.84 7.479c-.01-.713.005-1.436.06-2.13.025-.314.234-.75.453-.975l2.54-2.596c.22-.225.221-.224.003.002l-.594.616c-.218.226-.216.227.003.003l1.206-1.23c.22-.224.653-.406.967-.406h1.036c.314 0 .54.028.504.064-.035.036.01.04.103.013.092-.028.176-.05.186-.06.01-.01.274-.017.588-.017H18.63c1.479 0 2.896-.192 4.113.695.253.185.618.551.758.832.099.198.169.416.22.647.066.307-.102.737-.332.95l-.742.69c-.23.215-.424.197-.432-.038a13.8 13.8 0 01-.008-.425.5.5 0 00-.006-.074c-.005-.04.131-.203.306-.365.174-.16.18-.292.016-.292-.165 0-.333.032-.375.07-.043.039-.202-.168-.467-.338-.901-.58-2.729-.29-3.568-.29a.395.395 0 00-.043.002c-.025.003-.056.007-.07.007h-.025c-2.177.254-1.702 2.431-1.702 4.048 0 .408.163.692.427.888.252.188.385.366.233.509l-.276.258-.164.161c-.091.09-.299.043-.473-.091-.176-.134-.234-.314-.121-.417.113-.104.169-.183.126-.177-.044.007-.147.083-.232.17-.085.086-.368.017-.649-.125a6.211 6.211 0 00-1.654-.557 8.587 8.587 0 00-.678-.1 1.218 1.218 0 00-.175.001c-.033.004-.314.024-.625.069-2.412.348-4.405 1.863-4.835 4.424a4.01 4.01 0 00.273 2.307c.126.288.202.565.127.64-.075.075-.136.312-.136.53 0 .219.058.336.128.263l.128-.131.166-.172c.092-.095.323.031.546.252.048.049.098.097.15.142.231.212.259.542.037.765l-.52.52c-.221.223-.58.222-.777-.024-1.213-1.504-1.746-3.538-1.598-5.513.03-.413-.128-.762-.396-.983-.243-.2-.511-.275-.511-.324 0-.049-.037-.051-.083-.005-.046.046-.176.078-.288.09a1.143 1.143 0 00-.202.037c-.854.24-1.291.778-1.504 1.457-.094.3-.303.736-.524.959-.219.221-.438.44-.656.662-.222.224-.393.307-.386.186.006-.102.008-.177.008-.22 0-.072-.008-.263-.021-.545-.014-.3.15-.726.37-.951.967-.994 1.93-1.978 2.886-2.953.22-.224.4-.59.4-.818 0-.228-.185-.236-.41-.017l-2.919 2.829c-.225.218-.421.15-.438-.151-.017-.302.151-.725.376-.944L4.385 6.88c.225-.22.407-.6.407-.85 0-.248-.18-.271-.404-.05L1.352 8.993c-.22.224-.416.149-.434-.165zm1.26 8.41l-.683.705c-.219.225-.396.18-.396-.1 0-.281.177-.693.394-.918l.757-.782c.219-.225.392-.163.369.14-.022.302-.223.73-.441.955zm.313.745c-.012.227-.196.592-.418.815-.21.213-.422.425-.634.638-.22.223-.39.214-.375-.02.015-.232.205-.602.427-.824l.829-.827.098-.096c.055-.054.085.087.073.314zM1.1 15.328V14.31l.014-.183c.007-.1.2-.355.43-.57l.6-.565c.229-.215.391-.135.39.178-.002.229.005.46.016.692.016.314-.146.747-.37.968l-.676.668c-.223.22-.404.145-.404-.17zm-.068 5.626a6.517 6.517 0 01-.014-.475c0-.314.199-.75.421-.971l.63-.626c.224-.222.396-.146.402.168.003.126.008.251.015.375.019.314-.12.753-.333.983l-.651.695c-.216.228-.448.164-.47-.15zm.992 2.034a2.881 2.881 0 01-.552-.63c-.17-.263-.073-.679.156-.895l.6-.564c.229-.216.468-.138.606.145.234.48.606.79 1.19.79h.027c.015 0-.159.175-.389.389l-.762.711c-.23.213-.639.26-.876.054zm21.89-3.857c-.008.314-.201.746-.427.963l-1.37 1.322c-.225.218-.225.395.001.395s.59-.18.813-.403l.526-.525c.222-.222.39-.18.367.096-.022.274-.12.572-.212.664-.094.092-.1.168-.016.168.085 0 .15.041.145.093a2.705 2.705 0 01-.009.094c-.386 3.324-9.498 1.991-11.338 1.991-1.719 0-4.836.454-7.378.118-.311-.04-.383-.271-.162-.495l.046-.046c.22-.224.356-.47.312-.554-.044-.085-.266.018-.498.23a54.41 54.41 0 01-.32.288c-.233.21-.63.332-.88.251-.251-.081-.258-.335-.025-.545l.937-.844c.233-.21.415-.42.41-.47-.004-.049.247-.09.561-.09h15.006c1.37 0 1.738-.836 1.82-1.834.026-.314.065-.612.118-.664l.098-.095 1.086-1.094c.22-.223.402-.149.4.166a44.72 44.72 0 01-.011.82z"/><path d="M4.537 3.332c-.457.464-.928.945-1.413 1.442l-.127.128c-.07.07.057-.05.284-.268L4.47 3.49c.228-.217.421-.432.437-.48.016-.047-.151.096-.371.32zm-2.993 7.427c-.653.67 1.123-1.063 2.843-2.74.225-.22.223-.22-.004-.003-.896.86-1.834 1.77-2.839 2.743z"/></g><defs><clipPath id="clip0"><path fill="#fff" d="M0 0h25v25H0z"/></clipPath></defs></svg>