<svg width="53" height="53" fill="none" xmlns="http://www.w3.org/2000/svg"><g clip-path="url(#clip0)" fill="#F2F2F2"><path d="M34.669 28.477c-.412-.34-1.62.086-1.863.5-1.505 2.561-5.714-2.023-6.687-2.96-2.084-2.007-1.153-3.73-.839-5.54.189-1.089.098-2.046.265-2.174.147-.114.21-.226.118-.307-2.217-1.949-6.399-9.57-10.305-5.469-6.161 6.47 1.968 15.108 6.665 19.483 3.683 3.43 8.35 7.811 13.556 7.39.12-.005.238 0 .359-.013 1.023-.164 1.987-.434 2.968-.92 6.747-3.346-1.153-7.446-4.237-9.99zm3.614 9.102c-1.066.288-2.422.175-2.958-.053-.538-.228-1.159-.248-1.412.007-.253.255-.616.461-.81.46-.192-.002-.684-.103-1.079-.27-.394-.169-.397-.64-.024-1.017.372-.376.635-.709.584-.742-.05-.033-.389.25-.755.637-.367.387-1.206.404-1.836-.023-.629-.427-.789-1.156-.385-1.589.405-.435.189-1.252-.464-1.85-.652-.6-1.539-.725-1.992-.268-.452.457-1.483.228-2.282-.536-.665-.635-1.323-1.275-1.991-1.896a31.45 31.45 0 01-.331-.31c-.182-.174.044-.689.505-1.149.462-.463.621-1.062.361-1.346-.26-.285-.87-.149-1.366.305-.497.455-1.535.191-2.266-.637l-.206-.234c-.724-.835-.803-1.984-.247-2.51.556-.526.997-.967.984-.986-.012-.019-.467.4-1.017.938-.549.538-1.541.261-2.104-.688a16.149 16.149 0 01-.625-1.155c-.485-.993-.166-2.389.552-3.05.717-.663 1.245-1.595 1.225-2.084a8.76 8.76 0 01.007-.887c.021-.263.054-.546.102-.84.076-.46-.487-.218-1.296.534l-.397.368c-.81.752-1.5.908-1.484.35.009-.333.035-.669.078-1.01.398-3.156 3.008-3.566 4.96-1.396.532.592 1.023 1.212 1.523 1.822.699.855 1.242 1.55 1.177 1.626-.051.06-.07.117-.042.165 1.556 2.705-1.576 4.666.524 7.58 1.309 1.815 3.618 3.5 5.512 4.638 1.046.63 2.102.71 3.05.411 1.054-.332 2.409-.48 3.292.182 1.358 1.021 2.693 2.055 3.901 3.374 1.33 1.554 1.004 2.597-.968 3.13z"/><path d="M27.034 1.111C17.036 1.39 8.47 6.774 3.956 15.715c-2.421 4.798-2.753 10.332-1.883 15.546.316 1.894 1.398 3.797 1.145 5.771-.243 1.893-1.198 3.893-1.885 5.678-.971 2.522-1.521 4.84-1.274 7.538.046.501.822.491 1.148.425C7.29 49.41 12.385 47.57 18.346 49.9c3.949 1.543 8.73 1.874 12.878 1.055 8.283-1.635 14.921-6.683 18.726-14.219C58.41 19.976 44.548 1.6 27.034 1.111zm-21.649 15.6c2.333-5.576 6.939-9.827 12.438-12.153 1.017-.43 1.233-.079.445.694-3.981 3.91-8.033 7.893-12.141 11.936-.787.774-1.168.542-.742-.478zM47.51 37.655C43.112 46.37 33.358 50.64 23.954 49.663a9.597 9.597 0 01-.565-.08c-.31-.055-.473-.2-.368-.305.105-.106-.157-.35-.578-.565-.42-.213-.899-.265-1.08-.099-.18.167-1.159-.026-2.169-.472-2.006-.883-3.957-1.746-6.163-1.396a75.458 75.458 0 00-3.583.665c-1.082.224-1.846-.327-1.602-1.224.244-.895-.148-.992-.957-.239l-1.388 1.294c-.808.753-1.928 1.47-2.503 1.596-.575.125-1.078-.677-.929-1.77.3-2.212 1.128-4.337 1.893-6.48.371-1.04 1.167-2.438 1.814-3.104.392-.404.783-.808 1.174-1.206l1.539-1.588c.769-.793 1.272-1.875 1.146-2.424-.125-.549-.839-.367-1.623.412-.411.408-.82.814-1.227 1.221-.783.78-1.424.506-1.733-.555-.186-.637-.425-1.312-.65-1.96-.362-1.044.045-2.54.832-3.314l2.546-2.513c.786-.775 1.518-2.29 1.735-3.367.217-1.076-.153-1.288-.922-.495a4350.1 4350.1 0 00-3.671 3.788c-.769.793-1.419.654-1.367-.308.053-.962.781-2.377 1.552-3.168 2.138-2.19 4.166-4.268 6.044-6.187.773-.789 1.857-2.2 2.504-3.097a24.433 24.433 0 015.282-5.345c.888-.657 2.287-1.757 3.071-2.534.796-.788 1.439-1.415 1.899-1.85l.088-.089a.36.36 0 01.133-.094c.025-.004-.575.64-1.342 1.433l-.193.2c-.767.794-1.304 1.387-1.202 1.322.103-.064.812-.755 1.582-1.547l.014-.014c.77-.792 1.948-1.51 2.636-1.57.415-.037.83-.063 1.247-.075.051.002.101.005.15.01.083.005-.097.263-.401.576-.306.312.3.29 1.38.057l.055-.012c1.08-.23 2.858-.213 3.932.046 14.71 3.545 22.699 20.207 15.524 34.42z"/><path d="M8.942 40.434c-.451.451-.91.912-1.38 1.385-.78.781-.756.805.051.051l1.154-1.076c.808-.754 1.491-1.457 1.526-1.57.035-.116-.571.426-1.351 1.21zm1.582-23.529c-3.411 3.521-4.833 5.005-.11.2.775-.787 1.424-1.473 1.451-1.53.027-.06-.572.537-1.341 1.33z"/></g><defs><clipPath id="clip0"><path fill="#fff" d="M0 0h52.5v52.5H0z"/></clipPath></defs></svg>