<svg width="40" height="40" fill="none" xmlns="http://www.w3.org/2000/svg"><g clip-path="url(#clip0)" fill="#F2F2F2"><path d="M40 10.559c.005-.486-.365-.727-.74-.725-.92-2.06-4.118-2.519-6.114-2.76a53.815 53.815 0 00-5.5-.355c.261-1.191.015-2.668.013-3.838-.001-.427-.34-.723-.748-.748-3.568-.225-7.101.286-10.61.88-.316.054-.517.396-.525.69-.03 1.062-.056 2.1.12 3.136-4.886-.287-13.27-.89-14.604 2.672a.513.513 0 00-.419.5C.57 15.345.8 20.691.637 26.03c-.082 2.676-1.472 6.847.131 9.307 1.666 2.556 4.5 2.614 7.311 2.578a462.504 462.504 0 0015.809-.465c3.565-.168 7.012.294 10.564.34 1.736.022 4.183-.123 4.709-2.17.731-2.85-.11-5.738-.217-8.61-.205-5.517.997-10.945 1.056-16.452zm-22.839-6.24c2.976-.466 5.964-.84 8.977-.723-.056 1.017-.173 2.155.035 3.113-2.512.003-5.028.114-7.531.222a19.37 19.37 0 01-1.649-.031c-.025-.867.093-1.72.168-2.581zM37.78 31.083c.158 1.43.335 3.09-.262 4.45-.451 1.027-2.974.722-3.828.714-2.861-.026-5.655-.425-8.526-.346-4.232.116-8.446.532-12.682.576-3.419.037-10.288 1.186-10.788-3.593-.3-2.879.473-5.864.468-8.759-.007-4.202.029-8.417-.152-12.618a.488.488 0 00.212-.4c-.002-4.628 13.19-2.409 16.42-2.543 3.317-.139 6.631-.259 9.95-.179 1.7.04 9.028-.133 9.305 2.448.04.376.284.616.57.717-.26 6.586-1.418 12.902-.687 19.533z"/><path d="M1.959 10.562c.004 0 .004-.007 0-.007v.007zm31.591.248c-.43-.232-1 .056-.993.571.025 1.868-.216 3.944-.497 5.809-.132.878-2.656.302-3.72.316-1.859.023-3.717.2-5.566.364-3.71.33-7.399.729-11.13.684-2.13-.026-4.43.44-4.441-2.174-.01-2.036.084-4.062-.05-6.096-.045-.692-1.004-.68-1.066 0-.257 2.822-.536 5.667-.599 8.5-.008.363.265.752.63.828 3.423.716 6.852.735 10.286.533a13.2 13.2 0 01-.114.9c-.084.493.207.983.75.985 1.926.008 3.845-.004 5.758-.247.454-.058.78-.324.805-.805.014-.269.05-.537.084-.804.014-.115.07-.42.103-.627 2.958-.24 5.918-.396 8.88-.164.374.03.755-.287.841-.64.376-1.537 1.8-6.981.04-7.932zm-11.479 8.882a6.456 6.456 0 00-.053.57c-1.43.16-2.867.197-4.305.207-.016-.135-.033-.27-.046-.405 1.467-.107 2.935-.242 4.404-.372z"/></g><defs><clipPath id="clip0"><path fill="#fff" d="M0 0h40v40H0z"/></clipPath></defs></svg>