<svg width="30" height="30" viewBox="0 0 30 30" fill="none" xmlns="http://www.w3.org/2000/svg">
<mask id="path-1-inside-1" fill="white">
<path fill-rule="evenodd" clip-rule="evenodd" d="M15 16.4142L23.2929 24.7071L24.7071 23.2929L16.4142 15L24.7071 6.70712L23.2929 5.29291L15 13.5858L6.70711 5.29291L5.29289 6.70712L13.5858 15L5.29289 23.2929L6.70711 24.7071L15 16.4142Z"/>
</mask>
<path d="M23.2929 24.7071L21.1716 26.8284L23.2929 28.9498L25.4142 26.8284L23.2929 24.7071ZM15 16.4142L17.1213 14.2929L15 12.1716L12.8787 14.2929L15 16.4142ZM24.7071 23.2929L26.8284 25.4142L28.9498 23.2929L26.8284 21.1716L24.7071 23.2929ZM16.4142 15L14.2929 12.8787L12.1716 15L14.2929 17.1213L16.4142 15ZM24.7071 6.70712L26.8284 8.82844L28.9498 6.70712L26.8284 4.5858L24.7071 6.70712ZM23.2929 5.29291L25.4142 3.17159L23.2929 1.05027L21.1716 3.17159L23.2929 5.29291ZM15 13.5858L12.8787 15.7071L15 17.8284L17.1213 15.7071L15 13.5858ZM6.70711 5.29291L8.82843 3.17159L6.70711 1.05027L4.58579 3.17159L6.70711 5.29291ZM5.29289 6.70712L3.17157 4.5858L1.05025 6.70712L3.17157 8.82844L5.29289 6.70712ZM13.5858 15L15.7071 17.1213L17.8284 15L15.7071 12.8787L13.5858 15ZM5.29289 23.2929L3.17157 21.1716L1.05025 23.2929L3.17157 25.4142L5.29289 23.2929ZM6.70711 24.7071L4.58579 26.8284L6.70711 28.9498L8.82843 26.8284L6.70711 24.7071ZM25.4142 22.5858L17.1213 14.2929L12.8787 18.5355L21.1716 26.8284L25.4142 22.5858ZM22.5858 21.1716L21.1716 22.5858L25.4142 26.8284L26.8284 25.4142L22.5858 21.1716ZM14.2929 17.1213L22.5858 25.4142L26.8284 21.1716L18.5355 12.8787L14.2929 17.1213ZM22.5858 4.5858L14.2929 12.8787L18.5355 17.1213L26.8284 8.82844L22.5858 4.5858ZM21.1716 7.41423L22.5858 8.82844L26.8284 4.5858L25.4142 3.17159L21.1716 7.41423ZM17.1213 15.7071L25.4142 7.41423L21.1716 3.17159L12.8787 11.4645L17.1213 15.7071ZM4.58579 7.41423L12.8787 15.7071L17.1213 11.4645L8.82843 3.17159L4.58579 7.41423ZM7.41421 8.82844L8.82843 7.41423L4.58579 3.17159L3.17157 4.5858L7.41421 8.82844ZM15.7071 12.8787L7.41421 4.5858L3.17157 8.82844L11.4645 17.1213L15.7071 12.8787ZM7.41421 25.4142L15.7071 17.1213L11.4645 12.8787L3.17157 21.1716L7.41421 25.4142ZM8.82843 22.5858L7.41421 21.1716L3.17157 25.4142L4.58579 26.8284L8.82843 22.5858ZM12.8787 14.2929L4.58579 22.5858L8.82843 26.8284L17.1213 18.5355L12.8787 14.2929Z" fill="white" mask="url(#path-1-inside-1)"/>
</svg>
