<svg width="40" height="40" fill="none" xmlns="http://www.w3.org/2000/svg"><path d="M23.515 17.069c4.612-2.815.746-8.557-3.552-8.942-4.82-.432-8.056 7.79-3.225 9.529-2.356 2.014-1.792 8.102-1.648 10.385.033.527.461.831.97.739.393-.063.789-.096 1.185-.13-.203.658-.18 1.468-.198 2.094-.08 2.614.702 5.176.131 7.782-.113.518.232.963.758.994 1.432.084 2.896.739 4.312.365a.513.513 0 00.399-.605.8.8 0 00.837-1.148c-.643-1.401-.296-3.36-.162-4.84.156-1.726.441-3.446.462-5.182.45.02.899-.019 1.38.056.478.075.933-.194.943-.719.068-3.47 1.16-8.421-2.592-10.378zm.329-4.23a4.33 4.33 0 01-.157-.107c-.59-.422-1.183-.84-1.766-1.27a16.72 16.72 0 01-1.495-1.236c-.156-.146-.304-.333-.47-.49h.007c1.848.018 3.514 1.5 3.88 3.104zM19.21 9.814c-.003.764 1.267 1.664 1.71 2.05.553.48 1.131.932 1.704 1.388.355.283.754.737 1.212.878-.116.436-.35.854-.737 1.224a.528.528 0 00-.17-.203c-1.922-1.399-3.74-2.87-5.443-4.516a3.907 3.907 0 011.724-.821zm-3.08 2.965a4.026 4.026 0 01.982-1.792c1.572 1.806 3.537 3.238 5.235 4.92.014.013.029.016.043.028-.313.366-.195.89.127 1.159a.887.887 0 00-.287.45c-.685-.478-1.382-.939-1.986-1.428-1.33-1.079-2.67-2.227-4.156-3.097.015-.08.023-.158.043-.24zm-.124 1.048a90.995 90.995 0 014.046 3.257c1.165 1 2.492 2.601 4.011 3.036.1.029.188.02.263-.01.354.792.488 1.721.513 2.688a.404.404 0 00-.067-.108c-.812-.927-2.244-1.548-3.235-2.28a27.442 27.442 0 01-2.809-2.394c.262-.383.044-1.058-.497-1a2.737 2.737 0 00-.41.083c-.085-.09-.174-.177-.26-.269a.276.276 0 00-.184-.09c-.863-.83-1.365-1.785-1.37-2.913zm1.631 13.649c-.335-.02-.668-.069-1.001-.11.003-.208.001-.416 0-.625.37.257.741.51 1.112.764-.037-.01-.069-.026-.11-.03zm1.06 5.072a30.778 30.778 0 01-.108-1.684c.368.354.743.7 1.113 1.05.318.298.635.597.945.903.127.126.244.28.393.38.265.18.093.118.09-.066.022.164.14.312.322.333a17.785 17.785 0 00-.13 1.668c-.04-.03-.078-.06-.115-.092a13.331 13.331 0 01-.874-.84c-.53-.54-1.033-1.106-1.589-1.621-.015-.015-.031-.02-.047-.03zm.151 5.48c.052-.397.077-.793.091-1.19.38.32.773.627 1.178.92.269.194.566.422.88.636a15.661 15.661 0 00-2.149-.366zm1.926-.808c-.64-.4-1.247-.854-1.836-1.33a34.274 34.274 0 00-.155-2.347c.344.391.687.785 1.035 1.172.378.421.93 1.191 1.52 1.347.033.554.112 1.09.26 1.594a8.725 8.725 0 01-.824-.436zm.814-4.766c-.18-.195-.402-.357-.61-.526-.794-.641-1.608-1.261-2.397-1.91 0-.184-.01-.367-.006-.552.013-.561.135-.948.014-1.366.884.69 1.752 1.599 2.731 2.03.325.143.648-.15.484-.485-.444-.911-1.65-1.522-2.467-2.062-.89-.59-1.8-1.151-2.706-1.717a59.133 59.133 0 01-.005-2.375c.852.82 1.706 1.639 2.572 2.445.784.73 1.713 1.898 2.795 2.168a.35.35 0 00.185-.007c-.05 1.282-.356 2.804-.59 4.357zm3.045-5.585c-.499.114-1.02.175-1.517.101-.366-.054-.588.192-.603.456a.796.796 0 00-.12.103c-.013-.016-.02-.032-.037-.047-.89-.831-1.944-1.503-2.868-2.306-.934-.812-1.85-1.651-2.833-2.405.064-.984.22-1.79.532-2.529 1.247 1.21 2.598 2.313 3.965 3.38.845.659 2.33 2.201 3.557 2.117-.03.392-.058.771-.076 1.13zm.141-1.997c-.966-.871-2.365-1.489-3.401-2.235a73.386 73.386 0 01-3.88-3.005c.188-.33.418-.654.688-.981.856.915 1.88 1.723 2.799 2.48.937.774 2.23 2.139 3.49 2.29.192.023.317-.087.374-.233-.002.561-.03 1.129-.07 1.684z" fill="#F2F2F2"/><path d="M31.828 10.604c-1.93-4.855-7.175-6.828-12.046-6.667-5.194.172-9.888 3.129-11.509 8.139-1.189 3.676.251 9.186 3.626 11.388.42.275.949-.176.823-.632-.61-2.22-2.289-3.831-2.827-6.19-1.301-5.701 3.339-9.66 8.39-10.722 4.42-.928 9.101.695 11.497 4.576 2.115 3.426 1.664 9.536-1.5 12.15-.904.747.39 2.028 1.286 1.285 3.69-3.057 3.916-9.158 2.26-13.327z" fill="#F2F2F2"/><path d="M36.279 11.819C33.735 2.603 23.335-1.561 14.649.529 6.637 2.458 1.795 9.989 3.175 18.086c.51 2.998 4.75 16.334 9.935 12.26.193-.152.07-.473-.14-.53-2.636-.717-3.87-1.743-5.246-4.187-1.297-2.305-2.094-4.91-2.672-7.48-1.591-7.08 2.607-13.34 9.203-15.595 7.795-2.665 17.024 1.208 20 9.015 2.079 5.451 1.366 14.276-4.982 16.47-1.124.388-.642 2.18.493 1.79 7.325-2.52 8.316-11.472 6.513-18.01z" fill="#F2F2F2"/></svg>