<svg width="52" height="54" fill="none" xmlns="http://www.w3.org/2000/svg"><circle cx="26" cy="29" r="25" fill="#212121"/><path d="M50.375 46.938c-.125.124-.23.312-.313.562a3.569 3.569 0 01-.187.625.927.927 0 01-.25.438c-.125.083-.313.083-.563 0 .25.458.355.708.313.75-.042 0-.063.041-.063.124a9.414 9.414 0 01-1.874.063 12.256 12.256 0 00-1.75 0 2.8 2.8 0 00-.563.063c-.167 0-.313-.021-.438-.063a4.205 4.205 0 00-.687-.063c-.208 0-.417-.02-.625-.062-.708-.292-1.25-.396-1.625-.313a2.706 2.706 0 01-1 .063c-.875 0-1.813.042-2.813.125-.958.083-2.041.167-3.25.25-.75-.333-1.541-.396-2.374-.188a9.482 9.482 0 01-2.438.188c-.458-.083-.708-.042-.75.125a17.964 17.964 0 01-1.938-.188 15.581 15.581 0 00-1.375-.187c-.416 0-.833.02-1.25.063a5.16 5.16 0 01-1.125 0c-.416 0-.645-.021-.687-.063 0-.083-.02-.146-.063-.188-.166-.041-.395 0-.687.126-.25.124-.417.062-.5-.188-.333.208-.625.23-.875.063s-.52-.25-.813-.25c-.208 0-.479.041-.812.124a3.525 3.525 0 01-.938 0l-.875-.187c-.166-.083-.354-.083-.562 0a1.835 1.835 0 01-.438.063 2.33 2.33 0 01-.937-.063 1.608 1.608 0 00-.875-.125c-.25 0-.5.063-.75.188-.25.124-.52.187-.813.187a4.347 4.347 0 01-1.624-.188c-.5-.208-1.042-.166-1.626.126a1.276 1.276 0 01-.562 0 1.276 1.276 0 00-.563 0c-.833-.126-1.583-.126-2.25 0a36.88 36.88 0 00-1.937.312 14.7 14.7 0 01-1.938.125 5.9 5.9 0 01-1.874-.313c.124-.624.395-.916.812-.874A2.81 2.81 0 002.563 48a17.36 17.36 0 002.374-.25A29.2 29.2 0 007 47.312a11.75 11.75 0 001.938-.624 4.729 4.729 0 001.5-1c-.042-.209-.021-.355.062-.438.083-.125.125-.292.125-.5a3.569 3.569 0 00-.625.188c-.167.041-.354.02-.563-.063 0-.458.105-.813.313-1.063.25-.291.52-.479.813-.562 0-.208.083-.375.25-.5.208-.167.354-.396.437-.688a1.788 1.788 0 000-.937 1.705 1.705 0 00-.438-.813c.417-.583.542-1.229.376-1.937-.126-.75-.23-1.48-.313-2.188-.208.084-.375.126-.5.126a4.326 4.326 0 00-.5-.126.838.838 0 01.188-.687c.166-.208.354-.417.562-.625-.167-.042-.333-.23-.5-.563.125-.25.292-.437.5-.562.208-.167.27-.458.188-.875a.77.77 0 00-.626-.313c-.208 0-.416-.083-.624-.25.041-.416.229-.687.562-.812.375-.125.604-.354.688-.688a.975.975 0 000-.687c-.084-.292-.084-.542 0-.75-.126 0-.23.063-.313.188a2.047 2.047 0 01-.313.25c-.291.083-.479.041-.562-.125-.042-.167-.167-.25-.375-.25.083-.334.313-.605.688-.813a1.54 1.54 0 00.75-.938 2.27 2.27 0 00-.5-.562C10.062 27 10 26.771 10 26.437c.458-.208.688-.562.688-1.062.041-.5.02-.98-.063-1.438-.042-.208-.02-.375.063-.5.083-.166.124-.375.124-.625a2.4 2.4 0 00-.124-1.062 6.065 6.065 0 01-.126-1.188v-.812a5.38 5.38 0 00.063-.875c-.167-.417-.23-.708-.188-.875.084-.208.188-.375.313-.5a17.294 17.294 0 010-2.938c.125-1 .23-1.854.313-2.562 0-.792.02-1.458.062-2 .083-.542-.02-1.02-.313-1.438.126-.25.188-.52.188-.812 0-.333-.104-.604-.313-.813a1.474 1.474 0 01-.937-.187c.042-.125.083-.23.125-.313.083-.083.167-.187.25-.312-.042-.458-.25-.75-.625-.875a4.058 4.058 0 01-.938-.5c.084-.333 0-.52-.25-.563-.208-.041-.27-.166-.187-.375a6.674 6.674 0 00-2.188-.25c-.666.042-1.187-.062-1.562-.312-.167.125-.458.208-.875.25-.417.042-.667-.104-.75-.438-.375.084-.604-.02-.688-.312.084-.208.209-.375.376-.5.166-.125.354-.23.562-.313.792.209 1.396.271 1.813.188a4.543 4.543 0 011.312-.188c.208 0 .417.042.625.125.25.084.48.126.688.126.208.041.375.041.5 0A2.21 2.21 0 018.5 2a5.08 5.08 0 011.375.063c.5.041.98.083 1.438.124a8.206 8.206 0 011.75.063c.624.083 1.229.167 1.812.25l1.75.125a8.33 8.33 0 001.75-.188c.208.084.438.126.688.126.291-.042.479.041.562.25a14.29 14.29 0 001.875 0 16.701 16.701 0 011.938-.126c.208 0 .437.042.687.126.25.041.5.062.75.062.292.042.583.02.875-.063a8.434 8.434 0 011-.187 18.63 18.63 0 001.875-.375 5.693 5.693 0 012.063-.125c.25.25.291.5.125.75a.948.948 0 01-.563.5c-.5-.083-1-.083-1.5 0a9.474 9.474 0 00-1.438.25c-.5.125-1 .23-1.5.313-.5.083-.979.124-1.437.124-.417.042-.896.23-1.438.563-.5.333-.791.73-.875 1.188.25.041.417.062.5.062H23c-.25.333-.417.5-.5.5-.083-.042-.188-.042-.313 0a.79.79 0 01-.375.438c-.125.083-.229.229-.312.437.125.083.27.083.438 0 .166-.083.291-.167.375-.25.125 0 .312-.042.562-.125.292-.083.417-.208.375-.375.083-.208.25-.313.5-.313.292 0 .458-.145.5-.437.417-.333.708-.458.875-.375.167.083.25.208.25.375-.083.25-.27.417-.563.5-.25.083-.416.23-.5.438-.083-.084-.166-.105-.25-.063-.083.042-.229.063-.437.063-.667.5-1.25.958-1.75 1.375-.458.416-.542 1-.25 1.75.333-.167.73-.209 1.188-.126.458.042.645.271.562.688-.167.208-.333.313-.5.313a6 6 0 01-.438-.126c.334.292.459.459.375.5-.083.042-.125.146-.125.313-.208.083-.375.125-.5.125-.125-.042-.208-.02-.25.063.084.083.084.187 0 .312l-.187.375a2.775 2.775 0 00-.25.5c-.083.167-.083.354 0 .563.167.166.292.312.375.437.083.125.146.333.188.625-.334.208-.584.563-.75 1.063-.125.458.02.833.437 1.124.042.417-.146.688-.563.813.042.208.042.375 0 .5a.695.695 0 00-.062.313.914.914 0 00.563.187c.25 0 .479.042.687.125.083.458.083.77 0 .938-.083.166-.354.27-.813.312.25.292.25.48 0 .563-.208.041-.354.187-.437.437.083.167.188.27.313.313a.776.776 0 01.312.187.673.673 0 01.063.625 4.37 4.37 0 01-.313.625 12.5 12.5 0 00-.25.688c-.042.208.042.437.25.687.208.125.313.292.313.5.041.167 0 .333-.125.5-.125.042-.209.292-.25.75 0 .458-.021.958-.063 1.5 0 .5-.02 1.02-.063 1.563 0 .541.021 1.041.063 1.5.208.5.23.833.063 1-.167.125-.271.354-.313.687.375.375.48.667.313.875-.125.167-.25.354-.375.563a2.19 2.19 0 00-.313.624c-.042.209-.02.5.063.876.166.166.229.354.187.562 0 .167-.125.313-.375.438.5.124.73.187.688.187v-.188c-.125.376-.167.563-.125.563.083 0 .125.063.125.188-.292.208-.459.374-.5.5a1.58 1.58 0 01-.188.374.695.695 0 00-.063.313c0 .125.063.25.188.375.292-.167.52-.188.688-.063.166.126.354.23.562.313-.167.292-.458.542-.875.75-.292.708-.458 1.313-.5 1.813 0 .458.167.812.5 1.062.083.583.104 1 .063 1.25 0 .208.041.5.125.875.208 0 .25.063.125.188-.084.124-.084.291 0 .5.25-.126.354-.271.312-.438a.705.705 0 01.063-.5c.125.583.187.98.187 1.188 0 .208-.02.416-.063.624 0 .126.084.209.25.25.167 0 .23.105.188.313.25.333.48.438.688.313 0 .458.145.645.437.562.125.25.313.396.563.438.291.041.562.104.812.187.458.167.875.333 1.25.5.375.167.854.23 1.438.188.583-.084.979-.105 1.187-.063.25.042.48.063.688.063 1 .083 1.937.083 2.812 0a57.93 57.93 0 013-.188c.208-.25.48-.438.813-.563a9.2 9.2 0 011-.312c.374-.125.729-.25 1.062-.375.333-.125.604-.313.813-.563a7.92 7.92 0 011.437-1.25 6.53 6.53 0 001.313-1.312c-.084-.333.02-.646.312-.938.333-.291.563-.583.688-.874.166.041.312 0 .437-.126.167-.124.313-.229.438-.312.124-.333.25-.646.374-.938.126-.333.355-.562.688-.687.333-.458.583-1 .75-1.625.167-.667.48-1.167.938-1.5.25-.583.437-1.188.562-1.813.125-.666.354-1.187.688-1.562a1.261 1.261 0 01-.063-.688c.083-.25.23-.416.438-.5A15.08 15.08 0 0048 29.939c0-.834.125-1.605.375-2.313.417-.042.667.104.75.438.125.333.188.729.188 1.187 0 .417-.042.833-.126 1.25-.083.417-.166.688-.25.813.042.916.021 1.812-.062 2.687-.083.833.104 1.5.563 2-.042.625-.084 1.27-.126 1.938 0 .666.167 1.166.5 1.5-.041.291-.208.5-.5.624.084.209.126.438.126.688a1.6 1.6 0 00.374.188c.126 0 .209.062.25.187a8.43 8.43 0 01-.25 1c-.041.208-.166.375-.374.5.041.208.083.438.124.688.084.25.25.416.5.5.042.208.042.458 0 .75-.041.25-.083.52-.124.812 0 .292.02.583.062.875.042.25.167.48.375.688zm-30.313-43c-.541 0-1.041.124-1.5.374-.458.25-.833.542-1.125.875a20.59 20.59 0 011.438-.5 4.057 4.057 0 001.188-.75zm2.563 6.25a33.51 33.51 0 00-.75.312c-.25.125-.292.333-.125.625l.375-.25c.125-.083.146-.23.063-.438l.437-.25zM17.25 5.311c-.333.084-.563.167-.688.25-.083.084-.083.167 0 .25l.375-.25a1.98 1.98 0 00.313-.25zm30.875 31.625v-.562c0-.25-.042-.438-.125-.563-.458.25-.75.626-.875 1.126-.083.458-.27.895-.563 1.312.25 0 .438.02.563.063.125.041.292 0 .5-.126-.042-.166-.125-.27-.25-.312a.98.98 0 01-.25-.188c.25-.333.458-.5.625-.5.208-.041.333-.124.375-.25zM15.187 3.813c-.416-.042-.729.02-.937.187a3.286 3.286 0 00-.625.5c.167-.083.313-.146.438-.188.124-.083.312-.083.562 0 0-.208.083-.291.25-.25.208 0 .313-.083.313-.25zm6.626.312c-.959.083-1.792.333-2.5.75a5.076 5.076 0 01-2.188.75c.083.167.02.333-.188.5-.208.167-.416.208-.625.125-.25-.125-.583-.188-1-.188.084.25.063.438-.062.563L14.875 7l-.375.25a.526.526 0 01-.438.063c-.25.25-.416.354-.5.312-.083-.042-.208-.042-.374 0L13 8.313c0-.042-.104-.063-.313-.063-.333.583-.458.98-.374 1.188.083.166.083.374 0 .624.708-.166 1.27-.416 1.687-.75.458-.374 1-.666 1.625-.874.25-.417.604-.646 1.063-.688.708-.625 1.562-1.208 2.562-1.75 1-.542 1.854-1.167 2.563-1.875zm-3.938-.25a1.926 1.926 0 00-1.188 0 4.99 4.99 0 00-1.25.438c-.416.166-.833.354-1.25.562a6.45 6.45 0 01-1.062.375c-.375.125-.646.313-.813.563-.124.25-.291.437-.5.562l.126.5c.083.125.145.27.187.438.25.041.417.02.5-.063l.313-.313c.124-.125.25-.229.374-.312.126-.083.313-.104.563-.063a3.213 3.213 0 011.438-1 3.985 3.985 0 001.5-.937c.208.083.416.042.625-.125.208-.208.354-.417.437-.625zM17.75 8c-.083-.042-.208-.02-.375.063-.125.041-.23.02-.313-.063.25.083.417.167.5.25.084.042.146-.042.188-.25zm-3.938-4.5a1.54 1.54 0 00-.75.063 9.17 9.17 0 00-.687.312c-.25.083-.5.188-.75.313a.813.813 0 01-.625 0c-.042.25-.104.416-.188.5-.041.083-.02.229.063.437.5 0 .896.146 1.188.438.083-.625.333-1.021.75-1.188a1.734 1.734 0 001-.875zm-.874 1.313c-.292.25-.459.437-.5.562-.042.083 0 .167.124.25.084-.25.167-.396.25-.438.084-.041.126-.166.126-.375zm-1.563-.875c-.375-.167-.625-.23-.75-.188-.083 0-.125.063-.125.188.083-.084.23-.084.438 0 .208.083.354.083.437 0zM48.25 38.124c-.458.333-.77.563-.938.688-.124.083-.25.02-.374-.188 0 .292-.063.48-.188.563-.125.083-.23.229-.313.437-.083.167-.25.333-.5.5-.208.208-.312.375-.312.5.042.125.083.23.125.313-.333.208-.542.333-.625.374a3.775 3.775 0 00-.25.313c.208.125.375.104.5-.063.125-.166.27-.145.438.063.124-.333.25-.5.374-.5.126 0 .313-.02.563-.063.333.167.48.313.438.438l-.126.375c.417-.167.646-.354.688-.563.042-.208.167-.312.375-.312-.333.167-.52.292-.563.375-.041.042-.104.042-.187 0a1.835 1.835 0 01-.063-.438c.042-.166-.02-.291-.187-.374 0-.5.25-.75.75-.75.042-.292.125-.542.25-.75.167-.209.208-.521.125-.938zm-37.875-35c-.125 0-.354-.02-.688-.063-.333-.083-.541-.041-.624.126.708.333 1.145.312 1.312-.063zm10.063 3c-.209 0-.355.042-.438.125-.083.042-.208.042-.375 0-.333.417-.625.708-.875.875-.25.167-.52.25-.813.25.084.417.167.75.25 1-.25 0-.437.042-.562.125-.083.042-.27.02-.563-.063-.25.376-.437.542-.562.5-.125-.041-.188-.02-.188.063-.458.5-.854.792-1.187.875a.934.934 0 00-.625.563c-.333-.042-.52 0-.563.124l-.124.25c-.167-.083-.292-.083-.376 0-.083.084-.208.126-.374.126a.803.803 0 01-.626.624c-.291.084-.458.271-.5.563.126.083.146.208.063.375a1.453 1.453 0 01-.25.375c.458.458.708.646.75.563l.25-.376c.083-.124.313-.291.688-.5.416-.208.645-.333.687-.374.292-.292.5-.438.625-.438.167-.042.292-.042.375 0a3.76 3.76 0 00.5-.375c.125-.083.188-.167.188-.25.541-.25.812-.167.812.25.417-.958.98-1.625 1.688-2a7.639 7.639 0 002-1.438c-.209-.5-.375-.666-.5-.5-.084.125-.209.105-.375-.062a.607.607 0 00.25-.375c.083-.167.291-.208.625-.125-.084-.208-.063-.333.062-.375.125-.042.146-.167.063-.375zm0 4.75c-.25-.042-.459 0-.625.125a9.842 9.842 0 00-.438.313 2.447 2.447 0 01-.5.187c-.167.042-.396 0-.688-.125.25-.417.459-.604.625-.563.167.042.375.042.625 0 .334-.416.605-.708.813-.874.208-.209.208-.48 0-.813a2.443 2.443 0 00-.5.188.705.705 0 01-.5-.063 2.88 2.88 0 01-.438.563c-.125.166-.354.25-.687.25-.292.624-.667.979-1.125 1.062a.8.8 0 01-.313.5 7.463 7.463 0 01-.562.25 2.447 2.447 0 00-.5.188.56.56 0 00-.313.374c-.124.084-.27.167-.437.25A.943.943 0 0014.5 13c-.458 0-.646.042-.563.125.126.083.105.167-.062.25-.042.25.063.292.313.125.291-.208.541-.417.75-.625.124.083.25.083.374 0 .167-.083.334-.146.5-.188-.416.126-.77.459-1.062 1a1.12 1.12 0 00-.625.313 3.96 3.96 0 01-.938.688c-.166.041-.333 0-.5-.126.042.25 0 .376-.124.376-.126 0-.292.104-.5.312-.292.292-.417.688-.376 1.188.042.458.292.645.75.562l.25-.25a.676.676 0 01.5-.188c.459-.208.709-.375.75-.5.084-.125.23-.166.438-.125l.625-.5c.208-.166.417-.312.625-.437-.083.167-.104.25-.063.25a.98.98 0 00.25-.188l.376-.25c.125-.124.25-.166.375-.124 0-.209.104-.396.312-.563.208-.208.354-.23.438-.063a1.59 1.59 0 00.375-.374c.083-.167.25-.23.5-.188.5.25.833.354 1 .313a.544.544 0 01.562.062c.125-.208.25-.333.375-.375.167-.083.25-.23.25-.438a.544.544 0 00-.563.063c-.125.083-.312.083-.562 0 .042.208-.02.333-.188.375-.125 0-.27.042-.437.125-.167-.375-.167-.583 0-.625.167-.083.333-.146.5-.188a.793.793 0 00.375-.187c.125-.083.167-.208.125-.375.208-.167.417-.313.625-.438.208-.166.27-.479.188-.937zM22 18.938c-.167-.167-.354-.167-.563 0a1.09 1.09 0 00-.312.562c.208-.042.354-.125.438-.25.125-.125.27-.23.437-.313zm-2.313-.5a1.11 1.11 0 00-.5-.125c-.166-.042-.291.02-.375.187 0 .125-.041.25-.125.375-.083.125-.062.25.063.375.083-.167.188-.27.313-.313.166-.041.312.021.437.188-.125-.208-.125-.313 0-.313.125-.041.188-.166.188-.375zM48.75 47.75c-.292-.167-.458-.208-.5-.125-.042.042-.146.042-.313 0a.976.976 0 01.563-.813c.333-.166.354-.5.063-1a1.648 1.648 0 01-1-.062c0 .417-.105.708-.313.875-.167.125-.354.27-.563.438l-.5.374a.705.705 0 01-.5.063c-.416.417-.583.646-.5.688a.792.792 0 00.438 0c.167-.042.333-.105.5-.188.208-.083.375-.146.5-.188.417-.25.667-.374.75-.374 0 .208.042.333.125.374.125 0 .25.042.375.126 0 .083.125.124.375.124s.417-.104.5-.312zm-.188-3.25c-.166-.417-.208-.625-.124-.625.124-.042.166-.146.124-.313-.458-.333-.812-.395-1.062-.187-.208.167-.375.208-.5.125-.25.375-.396.542-.438.5-.041-.042-.104 0-.187.125a.984.984 0 00-.25.375c0 .125-.104.146-.313.063.084.208.271.291.563.25.333-.084.604-.042.813.124-.334.292-.709.376-1.126.25a10.389 10.389 0 01-1.187-.562c-.042.292-.146.5-.313.625-.124.125-.312.23-.562.313.25.124.48.145.688.062-.126.583-.292.896-.5.938-.209.166-.563.25-1.063.25-.25.291-.458.52-.625.687-.208.25-.354.396-.438.438-.083.041-.124.104-.124.187.333-.083.77-.083 1.312 0 .583.042 1-.125 1.25-.5.125-.125.25-.188.375-.188.167 0 .292.042.375.126.417-.584.73-.855.938-.813.208.042.479.02.812-.063-.042-.166-.125-.25-.25-.25-.125-.041-.188-.145-.188-.312.5.083.73-.063.688-.438a3.65 3.65 0 00.375-.312c.125-.083.23-.063.313.063.166.041.27-.042.312-.25.042-.25.146-.48.313-.688zM20.125 14.375c-.125.167-.25.25-.375.25-.083 0-.208.042-.375.125-.458-.083-.75-.083-.875 0-.083.042-.104.104-.063.188-.166.166-.416.312-.75.437-.333.125-.625.167-.875.125-.208.375-.562.646-1.062.813-.5.125-.938.291-1.313.5-.041.125-.208.291-.5.5-.25.208-.52.291-.812.25a3.44 3.44 0 01-1 .875c-.417.208-.52.562-.313 1.062-.166.083-.208.23-.124.438a.531.531 0 010 .5l.624-.313c.167-.125.334-.208.5-.25.167-.083.313-.167.438-.25.167-.125.292-.292.375-.5A68.52 68.52 0 0115.438 18c.624-.375 1.229-.75 1.812-1.125.417-.167.625-.333.625-.5.042-.167.208-.208.5-.125-.083-.208-.042-.292.125-.25.208 0 .375-.02.5-.063a.927.927 0 01.25-.437c.167-.125.313-.23.438-.313a1.59 1.59 0 00.375-.374.526.526 0 00.062-.438zm27.938 27.688l-1.126.374a1.5 1.5 0 00-.812.5c-.667.126-1.125.271-1.375.438-.417.417-.583.646-.5.688.083 0 .125.062.125.187a2.45 2.45 0 00-.563.25c-.124.083-.333.104-.624.063-.376.708-.98 1.229-1.813 1.562-.083.375-.396.667-.938.875-.5.208-1.02.375-1.562.5-.125.25-.25.396-.375.438-.125.041-.208.145-.25.312a.98.98 0 00.688 0c.25-.125.541-.146.874-.063a8.46 8.46 0 00.313-.562 1.72 1.72 0 01.5-.438c.333-.166.625-.374.875-.624s.604-.417 1.063-.5c.25-.209.437-.334.562-.376.125-.083.292-.124.5-.124.458-.5.813-.855 1.063-1.063.291-.208.562-.396.812-.563.25-.166.5-.312.75-.437.292-.125.563-.167.813-.125-.084-.333.02-.563.312-.688.333-.124.563-.333.688-.624zM20.25 23.625l-.875-.438c.292.375.458.563.5.563.083 0 .208-.042.375-.125zm-.563-6.125c-.333-.083-.625-.042-.875.125s-.604.25-1.062.25c-.583.292-1 .563-1.25.813s-.5.52-.75.812c-.583.25-1.125.52-1.625.813a11 11 0 01-1.563.812 1.453 1.453 0 00-.374-.25c-.167-.083-.313-.042-.438.125.208.167.25.417.125.75-.083.292 0 .5.25.625.333-.208.646-.438.938-.688.291-.291.687-.458 1.187-.5.5-.458.938-.812 1.313-1.062.374-.292.75-.604 1.124-.938.334 0 .709-.104 1.125-.312-.083-.333.125-.583.625-.75.542-.208.959-.417 1.25-.625zM20 20.25a1.384 1.384 0 01-.063-.438c.042-.166 0-.27-.125-.312a1.58 1.58 0 01-.375.188 1.625 1.625 0 01-.5.062c-.458.458-1.062.833-1.812 1.125-.708.25-1.354.5-1.938.75-.25.333-.437.5-.562.5a.554.554 0 00-.25.063c-.5.125-.75.25-.75.375a.554.554 0 01.063.25c-.417.125-.75.312-1 .562-.209.25-.48.458-.813.625.083.208.104.417.063.625-.042.167-.021.354.062.563.375 0 .604-.188.688-.563.124.125.25.146.374.063a.526.526 0 01.438-.063c.583-.5 1.083-.75 1.5-.75a19.13 19.13 0 011.813-1.625c.541-.458 1.25-.813 2.125-1.063.25-.291.437-.5.562-.625.125-.125.292-.229.5-.312zm-.313 2.188c-.5-.084-.75-.084-.75 0 0 .041-.125.041-.375 0-.333.291-.52.416-.562.375 0-.084-.063-.125-.188-.125-.291.25-.541.375-.75.375a3.22 3.22 0 01-.875.812 8.6 8.6 0 01-1.062.5c.042.292-.104.5-.438.625-.291.125-.562.23-.812.313-.125.416-.5.583-1.125.5.083.166.083.291 0 .375a.708.708 0 01-.25.25 2.047 2.047 0 01-.313.25.42.42 0 00-.187.375 6.751 6.751 0 001.688-.75c.541-.375 1.062-.73 1.562-1.063.417-.042.625-.02.625.063.042.041.104.062.188.062.125-.292.229-.52.312-.688.125-.166.333-.187.625-.062 0-.25.083-.458.25-.625.208-.167.417-.23.625-.188.25-.083.417-.166.5-.25.125-.083.292-.125.5-.125.25-.333.417-.541.5-.625a.943.943 0 00.313-.375zM37.876 48.25c-.083-.083-.208-.104-.375-.063a.424.424 0 00-.313.126c.209-.042.355-.021.438.062.125.083.208.042.25-.125zM20.25 27.812a1.788 1.788 0 010-.937c.125-.333.125-.688 0-1.063-.333 0-.583.063-.75.188-.125.125-.292.25-.5.375.292-.458.48-.73.563-.813l.312-.312.313-.313c.083-.125.104-.312.062-.562a4.37 4.37 0 01-.625-.313c-.167-.166-.417-.25-.75-.25-.25.542-.292.771-.125.688.208-.083.292-.042.25.125-.375.083-.542.167-.5.25.042.042 0 .083-.125.125-.417.375-.813.583-1.188.625-.333 0-.625.104-.875.313-.333.375-.541.52-.625.437-.041-.125-.104-.167-.187-.125-.458.292-.75.458-.875.5a1.936 1.936 0 01-.375.125c.125.25.063.48-.188.688-.25.166-.5.291-.75.375a5.71 5.71 0 00-1 .812c-.291.292-.416.77-.374 1.438.333.083.541.062.624-.063.126-.125.25-.292.376-.5a.785.785 0 00.312.188c.125.041.188.145.188.312.166-.292.333-.417.5-.375.208 0 .312-.042.312-.125.375-.042.604 0 .688.125.083.083.104.146.062.188-.5.166-.813.291-.938.375a.77.77 0 01-.437.125c.042.208-.02.333-.188.375-.166 0-.291.041-.374.125a9.391 9.391 0 00-.876 1c-.25.291-.312.604-.187.937.333-.375.583-.563.75-.563.167.084.25.23.25.438.042.208.063.417.063.625.25-.167.52-.25.812-.25.292-.042.417.063.375.313-.458 0-.833.187-1.125.562.458 0 .854-.146 1.188-.438.333-.291.75-.479 1.25-.562a.934.934 0 01.624-.563c.292-.083.563-.187.813-.312.292-.208.48-.354.563-.438.125-.083.229-.166.312-.25a.98.98 0 01.25-.187c.083-.042.23-.02.438.063.25-.209.479-.396.687-.563.208-.167.48-.292.813-.375v-.938c0-.291.041-.604.125-.937.041-.208-.021-.438-.188-.688h.25zm-1.438 4.313c.209-.375.188-.646-.062-.813-.25.167-.417.23-.5.188-.042-.042-.104-.063-.188-.063-.458.375-.875.709-1.25 1-.333.292-.729.48-1.187.563-.333.292-.5.48-.5.563.042.041.02.062-.063.062-.374.083-.75.27-1.124.563-.376.25-.75.479-1.126.687 0 .25-.083.417-.25.5a.602.602 0 00-.312.25c.083.333.146.563.188.688A1.09 1.09 0 0013 36c.167-.167.333-.146.5.063.292-.5.604-.896.938-1.188.124-.125.25-.188.374-.188.167 0 .292-.041.376-.124 0-.167.062-.271.187-.313.125-.083.313-.104.563-.063.25-.208.395-.354.437-.437a.679.679 0 01.125-.25c.208-.125.417-.188.625-.188.208-.041.208-.145 0-.312.5-.25.813-.458.938-.625.166-.167.416-.25.75-.25zm.938.813c-.5-.209-.75-.23-.75-.063a.68.68 0 01-.063.313c-.291.166-.5.229-.625.187a.777.777 0 00-.437 0c-.292.25-.48.438-.563.563-.083.083-.187.104-.312.062-.375.167-.563.313-.563.438-.083 0-.208.083-.375.25-.166.166-.27.312-.312.437h-.688c-.208.375-.437.604-.687.688-.292.5-.5.77-.625.812a2.423 2.423 0 01-.313.125.672.672 0 01-.374.125c-.126 0-.23.02-.313.063.083.291.042.479-.125.562-.167.042-.27.167-.313.375.084.125.146.313.188.563.083.25.23.333.438.25.166-.209.312-.313.437-.313.125-.042.23-.042.313 0 .083-.167.124-.354.124-.563 0-.208.105-.25.313-.124l.25-.626c.125-.208.292-.354.5-.437.292.042.48 0 .563-.125.124-.167.229-.313.312-.438a.927.927 0 01.438-.25c.166-.083.375-.083.625 0 .208-.583.479-1.02.812-1.312a4.646 4.646 0 011.313-.813c.041-.208.145-.333.312-.374.208-.084.375-.209.5-.376zm-.063 1.187c-.416.208-.77.375-1.062.5-.25.083-.52.188-.813.313-.041.458-.291.687-.75.687-.333.292-.583.5-.75.625-.166.083-.27.292-.312.625-.292.125-.52.23-.688.313a.602.602 0 00-.312.25c-.125.25-.292.374-.5.374-.167 0-.313.084-.438.25-.291.5-.416.792-.374.876a.695.695 0 01.062.312c-.542.417-.938.792-1.188 1.125-.25.292-.291.73-.124 1.313.458-.042.666-.021.624.062-.041.042-.02.104.063.188.083-.5.23-.792.438-.876a1.02 1.02 0 00.5-.437c.083.208.229.292.437.25.25-.042.417.02.5.188 0 .208-.083.354-.25.437-.125.042-.23.146-.313.313-.208.124-.354.104-.437-.063-.042-.167-.167-.27-.375-.313-.208.5-.27.75-.188.75.126 0 .188.042.188.126-.125 0-.313.02-.563.062-.25 0-.354.063-.312.188.292.25.354.479.188.687l-.5.5c-.126.125-.25.292-.376.5-.124.167-.166.375-.124.625.25-.083.479-.188.687-.313.208-.166.48-.25.813-.25.124-.291.291-.354.5-.187.208.125.395.063.562-.188-.125-.208-.27-.291-.438-.25-.124 0-.145-.104-.062-.312.292-.25.542-.375.75-.375.25-.042.52-.104.813-.188-.126-.124-.063-.333.187-.624.292-.292.563-.5.813-.626a.728.728 0 01.187-.124 1.58 1.58 0 01.375-.188c.125-.083.23-.146.313-.188.125-.041.166-.062.125-.062a.568.568 0 01.625 0c.208.083.312.063.312-.063 0-.374.104-.624.313-.75.208-.124.416-.27.625-.437-.125-.375-.271-.604-.438-.688 0 .209-.083.334-.25.376a.42.42 0 00-.375.187c-.167-.167-.313-.188-.438-.063l-.375.25a3.65 3.65 0 01-.312-.374c-.083-.209-.063-.355.063-.438.333.25.562.333.687.25.125-.083.313-.063.563.063.166-.542.333-.834.5-.876.208-.041.27-.208.187-.5-.333.126-.542.167-.625.126-.042-.042-.063-.146-.063-.313.417-.375.646-.646.688-.813.042-.208.167-.291.375-.25-.042-.333-.083-.52-.125-.562 0-.083.02-.25.063-.5-.084-.333-.063-.604.062-.813a.791.791 0 00.063-.687zM22.188 48c-.041-.208-.125-.333-.25-.375-.083-.083-.145-.23-.187-.438-.333 0-.583.042-.75.126a2.775 2.775 0 01-.5.25c.083-.292.167-.5.25-.626.083-.124.23-.166.438-.124-.084-.292-.271-.438-.563-.438-.375-.083-.583 0-.625.25a.8.8 0 01-.313.5c0 .125.084.104.25-.063.167-.208.355-.27.563-.187-.125.083-.23.313-.313.688.375.374.73.562 1.063.562.333-.042.646-.083.938-.125zm-1.812-2.5a.784.784 0 00-.375-.688c-.208-.166-.417-.124-.625.126-.375-.042-.667.02-.875.187a5.42 5.42 0 00-.563.5 6.83 6.83 0 00-.562.5c-.167.125-.354.23-.563.313 0 .083-.062.166-.187.25a1.453 1.453 0 01-.375.25c-.125.083-.27.187-.438.312a.607.607 0 00-.25.375c.542.125 1 .146 1.376.063a4.458 4.458 0 001.125-.376c.375-.208.708-.416 1-.624.333-.25.687-.459 1.062-.626l.25-.562zm-.75-2.688c-.083-.208-.167-.354-.25-.437-.042-.125 0-.23.125-.313a10.686 10.686 0 01-.063-.812c.042-.125.042-.23 0-.313-.208 0-.354-.041-.437-.124a.98.98 0 00-.188-.25c-.041.416-.104.624-.187.624-.042 0-.083.042-.125.126-.417.208-.646.291-.688.25 0-.042-.02-.021-.062.062-.125.375-.27.583-.438.625-.166.042-.25.167-.25.375-.458-.208-.708-.23-.75-.063.417.292.646.417.688.376.083-.084.23-.105.438-.063 0-.25.125-.458.375-.625a6 6 0 00.437.125c.167 0 .25.063.25.188-.5.124-.813.229-.938.312-.041.25-.145.417-.312.5a4.44 4.44 0 00-.563.188c-.791.374-1.375.708-1.75 1-.374.25-.854.458-1.437.624-.25.25-.396.355-.438.313-.041-.042-.124-.063-.25-.063-.708.75-1.374 1.459-2 2.126.542.166 1.126.187 1.75.062.626-.167 1.105-.396 1.438-.688a.77.77 0 01.438-.124c.208 0 .354-.084.437-.25.208-.084.333-.209.375-.376.042-.208.125-.229.25-.062.125-.208.292-.375.5-.5.208-.167.438-.25.688-.25.166-.458.437-.75.812-.875a7.824 7.824 0 001.25-.5c.167 0 .25-.042.25-.125a.785.785 0 01.188-.313l.25-.374c.125-.126.187-.25.187-.376zm-.563-35.437c-.333.375-.645.563-.937.563.125-.125.25-.271.375-.438.125-.208.313-.25.563-.125zm-.312 4.375c-.25.042-.48.125-.688.25a.673.673 0 01-.625.063c-.25.083-.479.25-.687.5-.167.208-.417.27-.75.187 0-.292.104-.417.313-.375.25 0 .333-.125.25-.375.25-.167.5-.292.75-.375a.771.771 0 00.562-.563c.083.209.23.334.438.376.208 0 .354.104.437.312zm.125 15a.413.413 0 01-.375.063 2.047 2.047 0 00-.313-.25c-.25.375-.354.604-.312.687.042.083.02.167-.063.25-.083-.167-.187-.27-.312-.313a.98.98 0 01-.25-.187c.167-.125.333-.208.5-.25a.79.79 0 00.375-.438c.417.084.667.23.75.438zm-1.188.75c-.333.208-.562.292-.687.25-.083-.042-.208-.042-.375 0 .292.25.417.417.375.5-.042.083-.02.125.063.125l-.75.5c0-.208.02-.354.062-.438l.25-.25c-.375-.083-.563.042-.563.375.042.334-.104.542-.437.625.042-.291-.02-.395-.188-.312A.434.434 0 0115 28.75l.25.813c-.292.041-.5 0-.625-.125s-.333-.167-.625-.125c.583-.125.896-.209.938-.25.208-.459.479-.813.812-1.063.375-.25.77-.375 1.188-.375 0-.417.083-.52.25-.313.208.167.375.23.5.188zM15 32.063c-.5-.084-.73-.23-.688-.438.25.083.417.167.5.25a.41.41 0 01.188.188zM19 36c-.458-.042-.708-.02-.75.063-.042.041-.104.041-.188 0-.083-.209.021-.292.313-.25.333 0 .542.062.625.187zm-4.938-3.688a6.643 6.643 0 01-.687.063c-.125 0-.27-.042-.438-.125a.77.77 0 01.438-.125 1.39 1.39 0 00.5-.188l.188.375zM18.5 38.25c-.417.292-.667.417-.75.375-.083-.042-.23-.042-.438 0-.125.375-.187.583-.187.625.042 0 .063.042.063.125a1.58 1.58 0 00-.375.188 2.423 2.423 0 01-.313.124c-.292.084-.396.042-.313-.124A8.46 8.46 0 0016.5 39c.25-.125.438-.27.563-.438a1.24 1.24 0 01.437-.374c.208-.126.396-.188.563-.188.208 0 .354.083.437.25zm-3.563.125c-.083.208-.25.354-.5.438a1.375 1.375 0 00-.562.25.755.755 0 01.438-.438l.624-.25zm2 1.625c0 .25-.145.458-.437.625-.292.125-.542.25-.75.375-.042.042-.083-.042-.125-.25-.042-.208.042-.458.25-.75.125.083.313.167.563.25.25.042.416-.042.5-.25zM16 39.812a2.423 2.423 0 01-.313.126.777.777 0 01-.437 0c.125.333.063.541-.188.624a.673.673 0 01-.624-.062c.374-.208.604-.375.687-.5l.313-.313c.124-.124.229-.187.312-.187.125 0 .208.104.25.313z" fill="#FD347D"/></svg>