<svg width="40" height="40" fill="none" xmlns="http://www.w3.org/2000/svg"><g clip-path="url(#clip0)" fill="#F2F2F2"><path d="M35.126 21.04c-1.793-2.035-4.1-3.714-6-5.686-2.347-2.434-4.535-5.02-6.726-7.593-.372-.437-.977-.301-1.366 0-3.487 2.697-6.97 5.411-10.232 8.38-1.425 1.297-5.665 4.525-5.096 6.828.004.016.015.03.022.044-.506 1.742.345 3.839.691 5.566.228 1.14.46 2.28.687 3.419-.218-.142-.572.096-.386.338.192.252.395.496.599.739.358 1.84.69 3.686.938 5.548.068.513.375.933.939.94 1.352.015 3.17.323 4.88.358.181.114.364.096.496.002 1.139-.015 2.205-.179 3.02-.667.35-.21.43-.642.274-.965.764-4.026.646-8.143.609-12.227l4.034.003c.46 3.739.248 7.519.524 11.272a.919.919 0 00.467.756c.055.303.24.587.561.698 2.514.868 5.366.171 7.93-.163.433-.056.814-.255.935-.712 1.307-4.919 2.05-10.667 2.206-15.76.23-.31.267-.807-.006-1.117zM9.764 19.72a66.7 66.7 0 003.567 3.878c.999 1.007 2.061 2.225 3.306 2.967l.018 1.509c-2.65-2.384-5.748-4.209-8.127-6.888.43-.493.842-1.002 1.236-1.466zm.232 17.957a84.01 84.01 0 00-.326-2.06l.302.307c.539.548 1.078 1.128 1.625 1.7-.546.022-1.084.043-1.6.053zm3.014-.098c-.692-.631-1.414-1.236-2.078-1.855-.512-.476-1.01-.967-1.507-1.457a106.25 106.25 0 00-.707-3.44c.58.747 1.188 1.477 1.822 2.202 1.288 1.471 2.664 3.204 4.22 4.552a30.22 30.22 0 00-1.75-.002zm3.6.02c-2.627-2.748-5.627-5.185-8.175-8.029-.034-.146-.064-.294-.099-.44-.26-1.1-.452-2.473-.82-3.737 1.216 1.448 2.506 2.835 3.773 4.235 1.499 1.657 3.128 4.071 5.06 5.219a.421.421 0 00.339.042 83.892 83.892 0 01-.078 2.71zm-4.288-8.045c-1.867-1.826-3.635-3.735-5.391-5.664a4.805 4.805 0 00-.54-.85c.575-.274 1.137-.772 1.679-1.345 2.27 3.07 5.755 5.019 8.467 7.662.043.041.09.063.135.087.02 1.456.036 2.91.028 4.366-1.116-1.588-3.024-2.932-4.378-4.256zm4.297-4.415l.002.126c-.881-.77-1.878-1.45-2.739-2.22-1.316-1.175-2.528-2.48-3.727-3.775.162-.178.32-.344.473-.488.124-.117.254-.227.379-.343 1.23 1.473 2.62 2.805 4.033 4.101.583.536 1.25 1.26 1.966 1.871a.905.905 0 00-.387.728zm1.686-.924c-.19-.131-.383-.258-.571-.39-.885-.627-1.689-1.398-2.493-2.123a59.146 59.146 0 01-3.744-3.707c.47-.429.95-.848 1.431-1.266 1.201 1.602 2.589 3.08 4.01 4.48.873.86 2.018 2.172 3.234 3.004l-1.867.002zm3.73-.004c-.006-.005-.008-.013-.014-.019-1.238-1.353-3.114-2.326-4.515-3.551a50.61 50.61 0 01-4.246-4.206c.338-.292.687-.57 1.028-.858 2.316 3.112 5.122 5.954 8.097 8.634h-.35zm9.201 12.49c-.102.467-1.518.614-3.06.627a4.18 4.18 0 01-.202-.137c-.422-.308-.804-.68-1.178-1.043-.177-.172-1.468-1.452-1.39-1.607.086-.175-.144-.384-.285-.22-.443.517.442 1.472.727 1.832.329.414.694.797 1.078 1.16a40.04 40.04 0 01-2.038-.113c-.119-2.137-.136-4.277-.208-6.413.689.784 1.455 1.504 2.232 2.2.712.637 1.424 1.272 2.108 1.94.614.6 1.079 1.325 1.833 1.748.134.075.29.043.396-.044l-.013.07zm.653-3.842c-.1-.063-.198-.124-.29-.187-.855-.58-1.712-1.157-2.561-1.744-.927-.642-1.853-1.291-2.74-1.988-.32-.251-.995-.66-1.183-1.02-.113-.217-.486-.065-.397.167.5 1.3 1.976 2.18 3.048 3.006.87.67 1.759 1.32 2.645 1.968.367.268.826.729 1.306.972-.115.727-.24 1.453-.388 2.175-.508-1.485-2.269-2.58-3.441-3.528-1.153-.933-2.247-1.872-3.25-2.936a52.42 52.42 0 00-.289-3.805c2.527 2.179 5.119 4.265 7.587 6.318.012.01.025.013.038.022-.026.193-.058.386-.085.58zm.354-2.651l-.098.763c-5.522-5.578-12.067-9.952-17.413-15.764.435-.362.881-.708 1.318-1.066 4.42 5.696 11.136 9.431 16.382 14.326-.062.604-.118 1.194-.189 1.74zm.328-2.98c-2.108-2.364-4.746-4.236-7.283-6.106-1.673-1.232-3.344-2.463-4.954-3.778-.823-.673-1.592-1.404-2.356-2.142-.284-.275-2.125-1.448-.776-1.226a.077.077 0 00.04-.148l-.496-.25c.815-.66 1.623-1.331 2.447-1.978 1.56-1.224 1.882-2.421 3.158-.912 1.49 1.762 3.01 3.499 4.563 5.207 2.055 2.26 4.407 5.186 7.284 6.413-.43.56-.743 1.21-.982 1.904-1.985-2.012-4.457-3.781-6.473-5.623-1.52-1.39-3.023-2.798-4.536-4.196-.82-.757-1.628-1.826-2.711-2.189-.068-.023-.142.05-.12.119.807 2.373 4.286 4.723 6.036 6.432 2.256 2.203 4.676 5.18 7.384 7.046-.092.471-.165.95-.225 1.427z"/><path d="M35.627 15.012a.888.888 0 00.16-.468c.017-.401.05-.812.091-1.226.3-.037.534-.39.25-.664l-.161-.154c.434-3.638 1.307-7.621-.558-10.855C33.91-.95 29.895.223 27.586.541c-.366.05-.656.493-.64.84a71.54 71.54 0 01.015 5.558 407.955 407.955 0 01-5.484-5.318c-.431-.428-1.006-.344-1.446 0C12.626 7.426 5.583 14.111.22 21.881c-.472.683.598 1.501 1.145.884C7.402 15.96 13.582 9.401 20.69 3.706c2.965 2.919 6 5.767 8.988 8.662a349.39 349.39 0 015.87 5.795c.718.729 2.529 2.31 2.814 2.886.338.682 1.24.397 1.465-.191.53-1.393-2.003-3.91-4.2-5.846zM34.273 3.614c.134.402.223.812.294 1.224-.324-.235-.652-.464-.948-.703a54.48 54.48 0 01-2.682-2.304c1.466-.08 2.813.214 3.336 1.783zm-.258 10.014c-.512-.433-.922-.781-1.148-1.003a549.058 549.058 0 00-4.718-4.547c.072-.41.127-.823.178-1.236 2.067 1.62 3.893 3.485 5.85 5.21a27.16 27.16 0 00-.162 1.576zm.307-2.66c-1.862-1.68-3.873-3.292-5.935-4.634.052-.494.085-.99.12-1.487.878 1.12 1.93 2.131 2.92 3.115.83.823 1.822 2.06 2.951 2.598l-.056.408zm-5.47-8.555c.39 1.234 1.651 2.2 2.552 3.063.749.718 1.52 1.414 2.295 2.103.271.24.59.594.936.87-.036.37-.076.742-.123 1.113-2.055-1.781-4.33-3.493-5.939-5.698.031-.577.059-1.155.083-1.734.578-.094 1.199-.202 1.812-.263a.278.278 0 00.027.367c.812.864 1.677 1.674 2.555 2.47.513.467 1.057 1.055 1.663 1.475.013.314.015.628.006.945-.031-.024-.064-.047-.094-.071a90.408 90.408 0 01-2.124-1.777c-.978-.842-2.56-1.899-3.178-3.062-.137-.258-.56-.08-.471.199z"/></g><defs><clipPath id="clip0"><path fill="#fff" d="M0 0h40v40H0z"/></clipPath></defs></svg>