<svg width="153" height="146" fill="none" xmlns="http://www.w3.org/2000/svg"><path d="M148.497 30.081c-1.779-2.549-4.558-4.355-7.714-5.014l-38.127-7.973c-3.084-.644-6.277-.141-8.893 1.401l-78.68 46.396c-5.51 3.248-7.008 10.134-3.347 15.38l30.12 43.145c3.661 5.246 11.096 6.864 16.607 3.614l78.68-46.394c2.616-1.543 4.444-4 5.091-6.846l8.007-35.176c.663-2.91.034-5.986-1.744-8.533zm-31.154 33.69c-6.297 3.715-14.794 1.865-18.979-4.13-4.184-5.993-2.472-13.862 3.826-17.577 6.297-3.712 14.793-1.862 18.978 4.13 4.184 5.996 2.472 13.865-3.825 17.577z" fill="#931341"/></svg>