<svg width="25" height="25" fill="none" xmlns="http://www.w3.org/2000/svg"><g clip-path="url(#clip0)" fill="#F2F2F2"><path d="M2.086 4.997c.255.043.514.053.771.047.133.007.298-.002.473-.03.036 0 .068.008.104.008.837 0 1.499-.242 1.984-.724.484-.484.724-1.077.724-1.782-.031-.715-.26-1.31-.688-1.782C5.06.302 4.527.076 3.864.04a2.499 2.499 0 00-.142-.026c-.353-.037-.59.005-.642.052-.626.084-1.144.304-1.55.66-.529.47-.792 1.065-.792 1.79 0 .705.241 1.299.718 1.782.33.33.744.539 1.24.643a4.304 4.304 0 01-.312.03c.037-.022-.19-.067-.426-.088-.022.006.046.027.065.04a2.63 2.63 0 01-.592-.195A2.382 2.382 0 01.149 2.965C.024 2.216.227 1.389.783.86 1.32.316 2.083.084 2.806.05l.04-.002c.579-.016-.159-.056-.45-.004-.13.026-.263.042-.39.082a2.12 2.12 0 01-.08.026C1.33.33.775.685.43 1.23c-.433.686-.464 1.586-.157 2.331a2.43 2.43 0 001.812 1.435zM24.71 22.48c-.107.084-.292.241-.492.247-.387.038-.926-.005-1.631-.004-1.4-.009-3.363.053-5.151.444-.231-.145.153-.315-.6-.44-2.935-.065-6.158.679-9.28.734-.634-.534-2.916-.798-3.882-.537-.1.264 1.488.28 1.426.465-.583.228-1.56.039-2.46-.203l-1.192-.342-.027-.009c-.234-.097-.512-.248-.577-.366-.002 0-.002-.005-.002-.008.013 0 .016-.015.045-.037a1.08 1.08 0 01.279-.164c.23-.102.494-.177.76-.243 1.074-.253 2.217-.38 3.36-.494a76.017 76.017 0 013.468-.243c.323-.015.646-.026.97-.038a3.04 3.04 0 001.37.357c.24-.002.46-.039.672-.087h.31c.096 0 .186-.015.278-.028-.188.096-.42.19-.668.245-.668.178-1.319-.003-1.289.091.38.168 1.028.248 1.665.054a3.216 3.216 0 001.248-.708 87.87 87.87 0 012.448.023 57.8 57.8 0 014.104.249c.215.133.438.241.661.322.618.23 1.294.214 1.834.04.079.015.158.027.236.044.419.096 1.194.197 1.57.394.198.088.226.269.254.208.019-.006.016-.147-.081-.255a1.134 1.134 0 00-.337-.242 2.844 2.844 0 00-.107-.055c-.017-.008-.027-.017-.046-.024-.022-.01-.045-.015-.068-.024-.047-.02-.086-.04-.142-.059-.098-.034-.197-.062-.296-.092l-.093-.029c-.118-.034-.237-.062-.355-.09.057-.033.116-.066.17-.1a2.2 2.2 0 001.838-2.17V13.19c0-1.116-.149-2.081-.45-2.892-.302-.811-.718-1.49-1.248-2.037a4.823 4.823 0 00-1.892-1.208 6.439 6.439 0 00-.653-.188 7.417 7.417 0 00-2.546-.386 6.039 6.039 0 00-2.267.452 4.333 4.333 0 00-1.025.577 7.76 7.76 0 00-.543.47c-.051-.495-.85-.896-1.889-.964a2.038 2.038 0 00-.75-.244c-1.044-.02-2.147-.093-3.145.566a.784.784 0 00-.19.205.419.419 0 00-.064.217l.002.1.008.38L8.26 9l.01 1.522.02 3.03c.025 1.749.035 3.46.076 5.183l-.007.143c-.004.288-.045.648.086 1.006.121.35.35.668.631.922.055.05.119.085.177.13a84.61 84.61 0 00-4.087.244 2.198 2.198 0 001.058-1.875V9.206A2.206 2.206 0 004.017 7h-.754a2.206 2.206 0 00-2.206 2.206v10.1c0 .855.493 1.589 1.205 1.954-.155-.053-.353-.12-.553-.197-.049 0 .088.084.115.119a2.723 2.723 0 01-1.028-.82 1.827 1.827 0 01-.368-1.11l-.005-1.197.001-2.414.03-4.85.009-1.205c.004-.2-.007-.401.018-.595.029-.194.09-.383.18-.557.222-.42.571-.755.975-.993.023-.013.049-.031.07-.041l.034-.017c.094-.052.192-.096.29-.136l.078-.03c.023-.01.047-.016.07-.025a2.99 2.99 0 01.282-.085l.055-.013c.315-.065.469-.058.5-.071.033-.008-.059-.025-.217-.023-.28-.008-.74.118-1.035.265l-.03.015c-.03.015-.066.03-.091.045-.028.016-.055.035-.082.053-.017.01-.04.02-.055.03-.017.011-.032.024-.048.035a3.229 3.229 0 00-.265.199c-.056.048-.11.098-.161.15-.02.02-.042.036-.061.056-.01.01-.015.018-.024.029-.03.033-.058.067-.086.1a1.807 1.807 0 00-.072.093c-.022.03-.047.057-.068.087a1.928 1.928 0 00-.344 1.205l-.015 2.504-.03 5.056c0 .844-.01 1.676.005 2.523.085.878.751 1.523 1.475 1.864a1.693 1.693 0 00-.611.155c-.25.126-.361.29-.264.348a1.362 1.362 0 00-.424.112.719.719 0 00-.254.193.656.656 0 00-.114.196c-.017.038-.026.084-.035.129l-.002.016v.051l-.007.012-.008.024c0 .049.01.126.025.18a1.06 1.06 0 00.137.322c.07.11.14.195.21.273.138.148.274.265.409.37a4.937 4.937 0 001.625.843c.18-.026-.258-.255.031-.245 1.154.86 3.227.84 3.33.468a11.246 11.246 0 01-2.353-.536 12.965 12.965 0 01-1.862-.785c.046.02.09.042.137.062.472.194.958.34 1.45.463.986.242 1.998.382 3.02.468 2.045.167 4.13.106 6.2-.015 2.073-.125 4.132-.31 6.152-.453l3.011-.202c.5-.034 1-.067 1.51-.122.256-.03.513-.062.787-.123.137-.03.278-.067.435-.128.154-.07.333-.13.548-.392.058-.192.038-.37-.014-.455-.05-.088-.111-.09-.17-.058zm-5.58-11.11c.403.602.607 1.394.607 2.38v5.556a2.2 2.2 0 001.026 1.857 2.593 2.593 0 01-.52-.25 2.349 2.349 0 01-.857-.887 1.68 1.68 0 01-.18-.59c-.015-.211-.01-.438-.015-.656l-.013-2.656.015-2.685c-.033-.894-.23-1.868-.939-2.551a2.099 2.099 0 00-.605-.368c.664.098 1.162.376 1.48.85zm-4.86-2.285c.008-.015.014-.38.015-.854 1.097-1.15 2.74-1.653 4.297-1.557.043.002.086.008.13.01-.574.017-1.095.082-1.551.219-.519.157-.96.351-1.329.587-.37.238-.674.496-.929.772-.118.13-.227.259-.325.384a3.15 3.15 0 00-.298.444c-.005.02-.018.011-.01-.005zm.015 10.22v-5.902c0-.221.01-.432.029-.627.016-.149.046-.283.085-.41a4.14 4.14 0 01.42-.56c.112-.118.256-.252.344-.309l.125-.085c.041-.029.056-.026.083-.043.04-.023.12-.05.182-.077.52-.18 1.33-.144 1.8.07.232.104.412.275.51.444.042.078.113.185.132.238.023.062.05.1.075.178a3.2 3.2 0 01.134.44c.073.306.107.636.115.977l.025 1.127c.105 1.171.196.551.295.899-.043.706-.07 1.432-.082 2.156l-.008 1.084.001.27.001.153.01.147c.024.27.083.478.173.695.165.367.396.664.658.907-.705-.06-1.412-.11-2.123-.143a83.33 83.33 0 00-3.646-.079c.402-.398.662-.939.662-1.55zm-5.603-5.01c-.055-.105-.079.366-.128.359l-.05-2.95-.026-2.569-.026-1.292c0-.048-.013-.114.02-.173a.445.445 0 01.11-.134c.086-.074.18-.132.278-.182.195-.1.402-.174.613-.232a4.711 4.711 0 011.298-.16c.33.011.68-.026 1.015.038h-.49c-1.219 0-2.205.226-2.2.505l.009.506c.011.505.02 1.114.02 1.828v4.921c0 1.415-.007 2.93-.018 4.544 0 .082.014.16.023.24-.01-.024-.024-.049-.032-.074-.012-.037-.018-.04-.028-.083l-.012-.078-.003-.02c0 .033 0-.002-.001 0l-.005-.039-.076-.626c-.107-.83-.236-1.631-.34-2.319.116.162.221-.92.049-2.011zm-.008 5.175c.135.505.466.905.889 1.176.043.057.086.113.134.165l-.008-.004c-.502-.299-.92-.78-1.015-1.337zm-7.84 3c-.019.025-.02-.011-.027-.024.039.03.016.01.03.016 0 .003 0 0-.004.009zm1.723-1.085l.06.018c-.022 0-.044.002-.065 0 .008-.005.009-.011.005-.018zm-.164.128c-.048.01-.098.015-.147.024-.075.016-.149.032-.224.046-.033-.04.042-.092.109-.144.086.03.174.054.262.074z"/></g><defs><clipPath id="clip0"><path fill="#fff" d="M0 0h25v25H0z"/></clipPath></defs></svg>