<svg width="25" height="25" fill="none" xmlns="http://www.w3.org/2000/svg"><g clip-path="url(#clip0)"><path d="M23.426 10.38l-4.168-4.17c-.829-.83-1.638-1.97-2.735-2.427-.005-.002-.012-.001-.018-.003-.013-.01-.043-.018-.1-.018H8.833c-.411 0-1.06.024-1.335.358-.856 1.043.67 1.986 1.364 2.682l1.602 1.603c.29.29.98.448.772.448H7.263c-2.008 0-4.674-.502-6.614.18-.76.267-.642 1.064-.642 1.704v4.515c0 1.696 4.479.955 5.447.955h4.4c1.543 0 .681.501-.152 1.336-.956.957-4.214 3.69-.992 3.69h5.258c1.093 0 1.932.08 2.935-.335.672-.278 1.328-1.272 1.825-1.77l4.19-4.193c.513-.514 1.69-1.294 1.974-1.98.473-1.144-.712-1.822-1.466-2.576zm-2.65-1.043l.217-.354.22.22a99.015 99.015 0 01-1.784 3.433c-.112.204-.138.192-.056-.025.322-.85.67-1.69 1.02-2.526.09-.215.26-.55.382-.748zm-3.343-3.003l.313-.614c.004-.01.004-.02.009-.03.112.124.224.246.335.366-.076.047-.164.09-.245.122a.874.874 0 00-.262.137c-.06.063-.115.13-.171.196-.094.11-.085.03.021-.177zm-.977-1.875c.012.009.024.015.035.024l-.686 1.102c-.122.198-.123.197-.004-.002.223-.373.441-.747.655-1.124zm-2.509-.384h.66a.807.807 0 00-.21.179c-.375.496-.75.992-1.119 1.494-.138.187-.162.172-.057-.035.24-.47.475-.942.707-1.416a.282.282 0 00.019-.222zm-4.494.211l-.7 1.253c-.014.025-.019.053-.027.08a6.62 6.62 0 01-.4-.483c.005-.006.01-.01.014-.018.177-.283.356-.564.535-.846a.316.316 0 00.057-.197h.725a.693.693 0 00-.204.211zm1.712 3.651c-.452-.477-1.018-.913-1.435-1.31.017-.02.038-.034.053-.06a87.72 87.72 0 011.4-2.294.267.267 0 00.046-.198h2a.665.665 0 00-.196.222 101.855 101.855 0 01-1.868 3.64zM.806 11.7c.327-.778.67-1.55 1.032-2.311a.3.3 0 00.023-.223h.799a.678.678 0 00-.202.214A75.725 75.725 0 00.775 12.7c.023-.316.044-.57.044-.692 0-.075-.005-.182-.013-.308zm-.031 3.016c.768-1.823 1.643-3.593 2.576-5.336a.276.276 0 00.03-.214h1.642a.734.734 0 00-.207.2c-1.237 1.97-2.523 3.903-3.98 5.713a3.565 3.565 0 01-.061-.363zm2.172 1.178H1.52a.518.518 0 01-.368-.147c.026-.023.056-.042.078-.069 1.666-1.977 3.103-4.122 4.48-6.312a.27.27 0 00.043-.195c.303.007.623.025.955.047a.64.64 0 00-.134.157c-1.201 2.1-2.405 4.2-3.593 6.308a.277.277 0 00-.034.211zm3.725 0H4.334a.734.734 0 00.206-.203c1.25-2.077 2.428-4.202 3.624-6.314.011-.022.012-.04.02-.06.78.041 1.565.048 2.285-.056a.77.77 0 00-.086.118 233.533 233.533 0 01-2.08 3.696c-.544.864-1.072 1.736-1.592 2.614a.266.266 0 00-.039.205zm1.985 0h-1.18a.709.709 0 00.204-.208l1.517-2.635c1.895-3.019 3.93-5.95 6.072-8.796a.268.268 0 00.061-.18h.465l.02.01a1.379 1.379 0 00-.14.202c-1.736 3.128-3.825 6.069-5.658 9.138-.446.75-.887 1.505-1.325 2.261a.273.273 0 00-.036.208zm.954-.202a.269.269 0 00-.042.202h-.2c.085-.06.16-.13.205-.208.725-1.25 1.458-2.494 2.212-3.723 1.042-1.697 2.142-3.36 3.197-5.048.123-.197.123-.197.002.001-1.794 2.924-3.58 5.853-5.374 8.776zm.704.184a.706.706 0 00.182-.184c2.182-3.555 4.347-7.12 6.538-10.67.01-.016.013-.036.022-.054.043.04.087.08.13.123-.01.014-.023.022-.031.039-1.468 2.887-2.954 5.765-4.52 8.594-.414.738-.827 1.471-1.253 2.188-.34-.068-.71-.054-1.068-.036zm-1.888 4.821c-.48-.222-.587-.634.157-1.378.45-.45 1.091-.953 1.687-1.49-.028.049-.058.097-.085.148-.17.282-.339.566-.51.847-.415.625-.832 1.25-1.25 1.873zm1.205.233a8.13 8.13 0 01-.228-.017.67.67 0 00.192-.211 86.48 86.48 0 011.255-2.32c1.714-2.593 3.42-5.193 5.138-7.783.13-.194.16-.178.064.034-.199.443-.406.88-.624 1.312-1.524 2.581-3.099 5.13-4.834 7.575-.3.408-.601.813-.904 1.218a.256.256 0 00-.059.192zm3.702.093c-.719-.048-1.367-.105-1.673-.105-.275 0-.781.029-1.33.03a.83.83 0 00.256-.21c.3-.4.595-.805.885-1.212 1.828-2.484 3.578-5.03 4.95-7.765.91-1.543 1.804-3.096 2.705-4.645l1.176 1.177-.148.365a128.34 128.34 0 01-1.115 2.098 378.777 378.777 0 00-5.747 9.951c-.077.137-.051.252.041.316zm4.201-5.81c-.152.434-.306.868-.46 1.3-.08.22-.242.558-.366.754-.47.739-.961 1.48-1.48 2.211-.134.19-.158.175-.051-.03.572-1.1 1.151-2.198 1.75-3.285l.541-.98c.113-.202.143-.19.066.03zm-1.692 4.735l-.266.731c-.068.186.005.334.155.377-.385.044-.905.041-1.451.019h.131a.976.976 0 00.681-.33c.22-.282.434-.567.646-.853.138-.187.184-.163.104.056zm1.057.348l-.446.446.03-.077c.426-1.174.852-2.348 1.273-3.523.079-.22.245-.555.37-.75 1.35-2.119 2.57-4.322 3.703-6.57l.126.126c-1.748 3.415-3.402 6.88-5.056 10.348zm5.768-7.255a96.91 96.91 0 00-1.21 2.693 5283.22 5283.22 0 00-2.839 2.841 374.052 374.052 0 013.93-8.036l.336.337c.193.193.38.375.545.552l-.762 1.613z" fill="#F2F2F2"/></g><defs><clipPath id="clip0"><path fill="#fff" d="M0 0h25v25H0z"/></clipPath></defs></svg>