<svg width="40" height="40" viewBox="0 0 40 40" fill="none" xmlns="http://www.w3.org/2000/svg">
<path d="M23.5154 17.0687C28.1266 14.2541 24.2609 8.51204 19.9634 8.127C15.1436 7.69517 11.9072 15.9167 16.7384 17.656C14.3815 19.6698 14.9463 25.7575 15.0902 28.0409C15.1234 28.568 15.5513 28.8722 16.06 28.7799C16.4529 28.7172 16.8489 28.6838 17.2448 28.6505C17.0422 29.3078 17.0659 30.1179 17.047 30.7443C16.967 33.3581 17.7492 35.9203 17.1783 38.5255C17.0647 39.0439 17.4095 39.4889 17.9358 39.5198C19.3677 39.6041 20.8324 40.259 22.2479 39.8855C22.5744 39.7993 22.6876 39.5349 22.647 39.2799C23.1955 39.3867 23.7922 38.8031 23.4842 38.1322C22.8415 36.7308 23.1884 34.7713 23.3222 33.2926C23.4783 31.5657 23.7633 29.8462 23.7839 28.1096C24.2331 28.1306 24.6829 28.091 25.1635 28.1659C25.642 28.2405 26.0971 27.9725 26.1072 27.4473C26.1746 23.9776 27.2668 19.0259 23.5154 17.0687ZM23.8437 12.8396C23.7912 12.804 23.7384 12.7689 23.6871 12.732C23.0975 12.3095 22.5041 11.8929 21.921 11.4613C21.4005 11.076 20.8982 10.6691 20.4258 10.2262C20.2701 10.0804 20.1223 9.89329 19.9564 9.73663C19.9589 9.73663 19.9611 9.73601 19.9634 9.73601C21.8105 9.75436 23.4774 11.236 23.8437 12.8396ZM19.2113 9.81269C19.2082 10.5772 20.4783 11.4767 20.9213 11.8622C21.4741 12.3429 22.0521 12.7947 22.6247 13.2511C22.9798 13.5341 23.3791 13.9878 23.8371 14.1289C23.7213 14.5645 23.4873 14.9827 23.1 15.3533C23.0648 15.281 23.0141 15.2109 22.9308 15.1505C21.0081 13.7515 19.1894 12.2808 17.4872 10.6343C17.983 10.2247 18.5745 9.93946 19.2113 9.81269ZM16.1318 12.778C16.3004 12.092 16.6485 11.4809 17.1125 10.9864C18.685 12.7922 20.6498 14.2238 22.3479 15.9055C22.3617 15.9194 22.3769 15.9218 22.3907 15.9336C22.0778 16.2999 22.1964 16.8236 22.5175 17.0926C22.3771 17.2111 22.2747 17.3727 22.2312 17.543C21.5462 17.0648 20.8489 16.6041 20.2454 16.1146C18.9153 15.0363 17.5757 13.8884 16.0887 13.0181C16.1039 12.9378 16.1116 12.86 16.1318 12.778ZM16.0071 13.8264C17.3836 14.8778 18.7353 15.9519 20.0533 17.0831C21.2183 18.0833 22.5449 19.6842 24.0641 20.1194C24.164 20.148 24.2523 20.1393 24.3267 20.1082C24.681 20.9012 24.8152 21.8302 24.8401 22.7971C24.823 22.7575 24.801 22.7204 24.7729 22.6887C23.9612 21.7615 22.5286 21.1407 21.538 20.4085C20.5348 19.6675 19.6105 18.8696 18.7293 18.015C18.9909 17.6325 18.7732 16.9568 18.2324 17.0151C18.0879 17.0308 17.9545 17.0633 17.8226 17.0982C17.7366 17.0075 17.648 16.9213 17.5627 16.8294C17.5074 16.7698 17.4427 16.7447 17.378 16.7393C16.5145 15.9092 16.013 14.9543 16.0071 13.8264ZM17.6383 27.4747C17.3028 27.4543 16.9703 27.4063 16.6368 27.3653C16.6405 27.1571 16.6382 26.9487 16.6378 26.7403C17.007 26.9965 17.3784 27.25 17.7494 27.504C17.7121 27.4943 17.6804 27.4782 17.6383 27.4747ZM18.6976 32.5475C18.6459 31.986 18.6112 31.4247 18.5904 30.8626C18.9579 31.2169 19.3329 31.5638 19.7035 31.9126C20.0207 32.2113 20.3379 32.5099 20.6475 32.8164C20.7749 32.9424 20.8922 33.0951 21.0408 33.1959C21.3057 33.3759 21.1344 33.3144 21.1311 33.1302C21.1532 33.2936 21.2715 33.4418 21.4529 33.4631C21.3859 34.0247 21.3354 34.5842 21.3222 35.1314C21.2836 35.1009 21.2453 35.071 21.2076 35.0389C20.9003 34.7769 20.6164 34.4873 20.334 34.1998C19.8035 33.6593 19.3009 33.0929 18.7452 32.5778C18.7302 32.5633 18.7137 32.558 18.6976 32.5475ZM18.8495 38.0271C18.9015 37.6305 18.9264 37.2339 18.9404 36.8377C19.3207 37.1574 19.7126 37.4637 20.1182 37.7573C20.3866 37.9512 20.6836 38.1788 20.9977 38.3927C20.2969 38.2198 19.5664 38.1003 18.8495 38.0271ZM20.7749 37.2187C20.1355 36.8196 19.5277 36.3647 18.9388 35.8881C18.9204 35.1092 18.8563 34.3273 18.7836 33.5422C19.128 33.9334 19.471 34.3265 19.8193 34.7142C20.1974 35.1351 20.7485 35.9054 21.3381 36.0609C21.3721 36.6151 21.451 37.1515 21.5996 37.6548C21.315 37.5175 21.0322 37.3792 20.7749 37.2187ZM21.5889 32.4533C21.4086 32.2576 21.1872 32.0958 20.9792 31.9274C20.1848 31.2858 19.3712 30.6657 18.5816 30.0177C18.5811 29.8334 18.5712 29.6495 18.5756 29.4646C18.5892 28.9038 18.7106 28.5173 18.5898 28.0991C19.4745 28.7884 20.3423 29.6978 21.321 30.1288C21.6462 30.2718 21.9686 29.9795 21.8053 29.6442C21.3614 28.7327 20.1543 28.1215 19.3382 27.5817C18.4474 26.992 17.5379 26.4307 16.6316 25.8651C16.6194 25.0736 16.6079 24.2814 16.6275 23.4901C17.479 24.3107 18.3332 25.1288 19.1985 25.9352C19.9826 26.6659 20.9116 27.833 21.9944 28.103C22.0597 28.1193 22.1211 28.1123 22.1791 28.096C22.1286 29.3783 21.8227 30.9001 21.5889 32.4533ZM24.6342 26.8679C24.1354 26.9819 23.6131 27.0427 23.1169 26.9691C22.751 26.9149 22.5286 27.1614 22.514 27.4252C22.4707 27.4553 22.4305 27.4898 22.3936 27.5283C22.3811 27.5124 22.3732 27.4955 22.3573 27.4807C21.4669 26.6498 20.4134 25.9778 19.4893 25.1748C18.5548 24.3631 17.6387 23.5239 16.6563 22.7695C16.7196 21.7857 16.8755 20.9807 17.1884 20.2412C18.4354 21.4501 19.7859 22.5541 21.153 23.6208C21.9979 24.28 23.483 25.8222 24.7101 25.7379C24.68 26.13 24.6517 26.509 24.6342 26.8679ZM24.775 24.8709C23.8085 23.9997 22.4103 23.3821 21.3735 22.6357C20.0494 21.6824 18.7543 20.6744 17.4932 19.6315C17.6818 19.301 17.9121 18.9772 18.1819 18.6497C19.0377 19.5653 20.0624 20.3733 20.9806 21.1308C21.9183 21.9042 23.2119 23.2687 24.4703 23.4198C24.6633 23.4427 24.788 23.3333 24.8447 23.1867C24.8434 23.748 24.8144 24.3156 24.775 24.8709Z" fill="#F2F2F2"/>
<path d="M31.828 10.6042C29.8988 5.74856 24.6534 3.77594 19.7816 3.93734C14.5883 4.10925 9.89378 7.0659 8.27343 12.0756C7.08429 15.7524 8.52449 21.2617 11.8992 23.4642C12.3197 23.7387 12.8475 23.2884 12.7218 22.8316C12.1111 20.6124 10.4332 19.001 9.89481 16.6425C8.59395 10.9408 13.234 6.98139 18.2851 5.92047C22.7051 4.99208 27.3862 6.6147 29.7824 10.4962C31.8968 13.9216 31.446 20.0318 28.2826 22.6454C27.3779 23.3927 28.6726 24.6741 29.5684 23.9313C33.2585 20.8742 33.4844 14.7729 31.828 10.6042Z" fill="#F2F2F2"/>
<path d="M36.2786 11.8189C33.7355 2.60289 23.3352 -1.56043 14.6487 0.529682C6.63744 2.45736 1.79535 9.98773 3.17453 18.0851C3.68531 21.0834 7.92427 34.4185 13.1096 30.3444C13.3031 30.1925 13.1794 29.872 12.9698 29.8149C10.3339 29.098 9.09919 28.0717 7.72392 25.6281C6.42677 23.3228 5.6299 20.7174 5.05192 18.1472C3.46064 11.0674 7.65858 4.80822 14.2546 2.55321C22.0496 -0.111572 31.2791 3.76069 34.2555 11.5677C36.3339 17.0191 35.6211 25.8437 29.2728 28.0377C28.149 28.4262 28.631 30.2179 29.7661 29.8277C37.0908 27.3078 38.0824 18.3562 36.2786 11.8189Z" fill="#F2F2F2"/>
</svg>
