<svg width="40" height="40" viewBox="0 0 40 40" fill="none" xmlns="http://www.w3.org/2000/svg">
<path d="M39.8894 21.3106C41.1669 9.84553 31.1674 0.873381 20.3576 0.476502C20.3297 0.475469 20.3018 0.476502 20.2739 0.477536C20.2274 0.479603 20.1695 0.485804 20.1468 0.480636C20.1333 0.478569 20.1199 0.476502 20.1023 0.477536C9.65946 0.859945 1.27953 8.17946 0.110598 18.6781C-1.16582 30.1442 8.83263 39.1153 19.6424 39.5112C30.1483 39.8946 38.7639 31.4165 39.8894 21.3106ZM37.9867 21.3323C37.9443 22.126 37.843 22.9053 37.689 23.6722C37.5764 24.2324 37.1299 25.0086 36.7309 25.4178C36.4281 25.7279 36.1263 26.039 35.8235 26.347C35.4235 26.7563 35.3139 26.6746 35.5403 26.1527C36.0354 25.0117 36.4147 23.7952 36.6679 22.5126C36.7785 21.9524 37.1009 21.2269 37.4234 20.8982C37.7459 20.5654 38.0177 20.7597 37.9867 21.3323ZM37.6942 17.317C37.7066 17.3707 37.72 17.4245 37.7304 17.4772C37.7624 17.6467 37.7903 17.8162 37.8161 17.9846C37.8596 18.2647 37.688 18.6947 37.443 18.9417C37.1991 19.1887 37.0017 19.0544 36.979 18.644C36.9573 18.2348 37.0854 17.7356 37.289 17.5299C37.4906 17.3252 37.6735 17.2281 37.6942 17.317ZM36.6472 14.8427C36.8115 14.666 37.0854 14.9305 37.2312 15.4401C37.379 15.9506 37.3262 16.5325 37.1381 16.733C36.9511 16.9315 36.732 16.6545 36.6079 16.1201C36.4829 15.5858 36.4818 15.0194 36.6472 14.8427ZM2.64587 14.8985C3.00347 13.6779 3.49854 12.509 4.11349 11.4082C4.39255 10.9111 4.96926 10.1938 5.37131 9.78972C6.71387 8.43371 8.05954 7.08288 9.40521 5.73205C9.80829 5.3269 10.5194 4.74191 11.0124 4.45459C13.6303 2.92289 16.6296 1.9865 19.754 1.84904C27.211 2.16117 33.2489 6.28499 36.1811 12.635C36.4198 13.1529 36.4612 13.712 36.301 13.8691C36.1408 14.0272 35.8462 13.7223 35.5992 13.2066C35.284 12.5431 34.9212 11.9064 34.514 11.2956C34.1967 10.8202 34.0675 10.3199 34.2566 10.1525C34.4468 9.98505 34.5367 9.77628 34.452 9.68843C34.3693 9.60058 34.1636 9.66362 33.991 9.83106C33.8184 9.99642 33.4991 9.90857 33.2634 9.64502C33.0278 9.38147 32.9606 9.04557 33.1239 8.88847C33.2861 8.73034 33.4071 8.59081 33.3926 8.57944C33.3781 8.56601 33.2365 8.68176 33.0732 8.83679C32.911 8.99079 32.9037 8.98562 33.0639 8.82646C33.2221 8.67039 33.3244 8.51433 33.2851 8.48022C33.2469 8.44612 33.0877 8.54327 32.9296 8.69417C32.7735 8.8461 32.325 8.63422 31.9033 8.25078C31.8485 8.2022 31.7947 8.15259 31.74 8.10402C31.3121 7.72574 31.0578 7.3392 31.1943 7.21207C31.3297 7.08495 31.1912 6.80796 30.8718 6.61159C30.5514 6.41315 30.1948 6.34803 30.0811 6.45242C29.9695 6.55784 29.6119 6.46069 29.2771 6.25398C28.9391 6.04624 28.7303 5.82093 28.8171 5.74135C28.9039 5.66073 28.813 5.52224 28.6104 5.43542C28.4078 5.34964 28.1794 5.3362 28.104 5.40441C28.0296 5.47056 27.643 5.35584 27.2327 5.16567C26.8234 4.97549 26.5051 4.8153 26.533 4.78739C26.5609 4.76052 26.4844 4.71091 26.3625 4.6799C26.2395 4.64786 26.1258 4.63753 26.1113 4.65406C26.0969 4.6706 25.6514 4.51454 25.1078 4.33884C23.575 3.8417 21.9772 3.53578 20.3576 3.46756C13.6272 3.18334 7.83733 7.22034 4.94756 12.88C4.68814 13.3885 4.17447 14.1399 3.76726 14.5399C3.55331 14.7507 3.33834 14.9626 3.12336 15.1745C2.71615 15.5734 2.48567 15.4463 2.64587 14.8985ZM21.2568 35.0618C20.6904 35.129 19.7644 35.129 19.1959 35.069C1.91412 33.2221 0.139537 7.23274 18.5231 4.88661C26.5051 3.86754 33.1146 10.2341 34.7021 17.5588C36.6079 26.3625 29.6078 34.0758 21.2568 35.0618ZM1.98647 19.4471C1.98647 18.9365 2.32547 18.2027 2.71201 17.8048C3.09856 17.4079 3.328 17.4462 3.24739 17.8978C3.19881 18.1686 3.15644 18.4415 3.12026 18.7164C3.10786 18.8094 3.10269 18.9014 3.09856 18.9923C3.09132 19.1453 2.84327 19.5143 2.54768 19.8202C2.25209 20.1241 1.98647 19.9566 1.98647 19.4471ZM3.24429 24.7719C3.07892 24.9352 2.7978 24.6282 2.6469 24.0773C2.6407 24.0546 2.63346 24.0288 2.62726 24.005C2.4774 23.4541 2.50841 22.864 2.66137 22.6945C2.81537 22.526 2.81227 22.5126 2.65517 22.6655C2.49807 22.8164 2.34821 22.8443 2.31927 22.7255C2.3017 22.6542 2.28413 22.5818 2.27069 22.5095C2.24589 22.3782 2.22418 22.248 2.20455 22.1167C2.17147 21.8997 2.34201 21.5307 2.58179 21.2951C2.82157 21.0584 3.01897 21.3312 3.07065 21.8997C3.11819 22.433 3.19674 22.9549 3.30113 23.4707C3.41482 24.0298 3.40862 24.6086 3.24429 24.7719ZM5.42505 29.3463C5.25245 29.5055 4.86281 29.2471 4.58065 28.7531C4.28093 28.226 4.0029 27.6854 3.75072 27.1335C3.51404 26.6137 3.46856 26.0555 3.62049 25.9005C3.77242 25.7444 4.05355 26.0535 4.29229 26.5713C4.55068 27.1304 4.84317 27.671 5.16667 28.1929C5.46639 28.6797 5.59662 29.1861 5.42505 29.3463ZM21.5141 38.0963C19.7509 38.2906 18.0497 38.1769 16.4291 37.8234C15.8721 37.7015 15.4369 37.563 15.4473 37.5495C15.4586 37.5382 15.0349 37.3635 14.513 37.132C14.4737 37.1134 14.4354 37.0968 14.3962 37.0793C13.8763 36.8436 13.4257 36.6669 13.3719 36.7175C13.3182 36.7692 12.85 36.6276 12.3436 36.3651C11.9963 36.1853 11.6542 35.993 11.3204 35.7884C10.8325 35.4917 10.5307 35.1507 10.6258 35.0556C10.7199 34.9605 10.6051 34.7383 10.3757 34.5533C10.1463 34.3662 9.87754 34.2897 9.76798 34.39C9.65946 34.4892 9.20367 34.2877 8.77372 33.9135C8.36444 33.558 7.97169 33.1839 7.59342 32.7932C7.19654 32.3829 7.00947 31.9136 7.15003 31.772C7.29162 31.6284 7.37431 31.4702 7.33503 31.4175C7.29576 31.3648 7.14073 31.4361 6.98983 31.5767C6.8379 31.7173 6.50717 31.587 6.26532 31.2739C6.02244 30.9597 5.96869 30.5752 6.13509 30.4233C6.30149 30.2713 6.3232 29.9727 6.18987 29.7525C6.05654 29.5324 6.22398 29.7277 6.59192 30.1628C9.74834 33.9063 14.606 36.3103 19.6414 36.5232C19.6693 36.5253 19.6982 36.5243 19.7261 36.5232C19.7737 36.5212 19.8315 36.516 19.8543 36.5201C19.8677 36.5222 19.8801 36.5243 19.8977 36.5232C22.5115 36.4137 24.9569 35.7977 27.1449 34.7683C27.6616 34.5254 27.8983 34.4747 27.6906 34.6866C27.4828 34.8995 27.5314 35.0019 27.7939 34.9057C28.0564 34.8096 28.5701 34.4158 28.9453 34.0365C29.3205 33.6562 30.0078 33.0877 30.4574 32.7343C31.4909 31.9271 32.4252 31.0021 33.2448 29.9737C33.6003 29.5272 34.1895 28.8192 34.5915 28.4141C35.1796 27.8219 35.7656 27.2307 36.3465 26.6447C36.7485 26.2395 36.9232 26.3491 36.701 26.8751C34.1646 32.88 28.2321 37.3563 21.5141 38.0963Z" fill="#F2F2F2"/>
<path d="M22.2893 9.66667C20.1809 10.0005 19.9142 12.2712 20.6573 14.0375C21.5741 16.2162 28.1587 18.8745 25.2245 21.7932C23.9894 23.0231 20.4671 25.2896 20.4671 27.2017C20.4671 29.3266 20.6232 31.217 23.1688 29.8858C25.116 28.8688 26.8751 26.287 28.412 24.7584C29.3866 23.7889 33.5528 20.9271 32.8686 19.2724C32.8644 19.262 32.8551 19.2527 32.8469 19.2476C32.8303 19.2362 32.4944 18.8962 32.0934 18.4921C30.3168 16.7051 28.5504 14.948 26.7852 13.1921C25.8002 12.2123 23.9812 9.40001 22.2893 9.66667ZM22.4154 12.0851C22.4391 11.7441 22.5983 11.6056 22.7668 11.7751C22.9363 11.9446 22.9239 12.2216 22.7399 12.3931C22.5518 12.5647 22.3926 12.4252 22.4154 12.0851ZM30.662 20.8237C29.9075 22.1001 27.7009 23.7259 27.1386 24.2861C25.4364 25.98 23.7352 27.6719 22.033 29.3649C21.3694 30.0263 22.4639 28.8181 22.4639 28.0605C22.4639 26.5578 22.6148 26.132 23.6504 25.1026C24.5941 24.1631 27.981 21.8397 27.981 20.2501C27.981 20.1612 27.9706 20.0785 27.9593 19.9959C27.9386 19.8563 28.1474 19.5101 28.4306 19.2228C28.7137 18.9334 28.7065 18.9003 28.4192 19.1566C28.1319 19.4129 27.8228 19.1566 27.5696 18.645C27.4632 18.43 27.3371 18.2213 27.1965 18.0208C26.872 17.5515 26.6518 17.1185 26.7852 16.9924C26.9175 16.8653 26.9991 16.7361 26.965 16.703C26.9319 16.6699 26.7996 16.7464 26.6694 16.8746C26.5382 17.0017 26.5371 17.0017 26.6673 16.8735C26.7976 16.7443 26.8916 16.6296 26.8771 16.6151C26.8627 16.6007 26.7459 16.6927 26.6157 16.8198C26.4854 16.9479 26.0555 16.7206 25.6369 16.333C25.5325 16.2358 25.4281 16.1408 25.3237 16.0467C24.901 15.6633 24.6819 15.2385 24.8307 15.1C24.9816 14.9615 24.8907 14.638 24.6302 14.3775C24.3688 14.1171 24.0298 14.0261 23.8727 14.1719C23.7156 14.3186 23.3404 14.2204 23.0717 13.9197C22.8009 13.62 22.8267 13.1559 23.0644 12.9316C23.3042 12.7063 23.8282 12.85 24.2354 13.251C26.2219 15.2116 28.1866 17.1671 30.1514 19.1204C30.5524 19.5204 30.9534 20.3318 30.662 20.8237Z" fill="#F2F2F2"/>
<path d="M19.477 13.7108C20.4506 12.7414 20.1633 9.38548 18.2791 9.70691C16.4581 10.017 15.2075 11.8773 13.992 13.0876C11.835 15.2332 9.67804 17.3789 7.52105 19.5255C7.50761 19.539 7.49521 19.5503 7.48281 19.5638C7.4611 19.5844 7.42906 19.6278 7.40529 19.6558C7.38669 19.6775 7.37118 19.693 7.36498 19.7095C6.72109 21.2805 10.2992 23.6679 11.2325 24.5971C12.7259 26.0833 14.8612 29.2832 16.8301 30.0966C18.5034 30.788 19.7571 29.7038 19.7571 28.0615C19.7571 24.9826 17.1257 23.4995 15.0235 21.4076C12.5978 18.9922 17.8647 15.3159 19.477 13.7108ZM12.2423 19.7384C12.2423 22.0257 14.5398 23.4902 16.0508 24.9929C16.6451 25.5831 17.4316 26.1515 17.7613 26.937C17.8358 27.1148 17.8389 27.4207 17.8213 27.7308C17.7975 28.1721 17.6446 28.4088 17.4957 28.261C17.3459 28.1111 17.3479 27.8765 17.4999 27.7318C17.6518 27.5871 17.7624 27.4569 17.7458 27.4404C17.7283 27.4238 17.5929 27.5303 17.444 27.677C17.2942 27.8238 16.8456 27.615 16.4405 27.213C16.2751 27.0487 16.1098 26.8843 15.9434 26.719C15.5382 26.3148 15.3356 25.8756 15.4896 25.733C15.6426 25.5893 15.5568 25.2648 15.2964 25.0064C15.0359 24.748 14.701 24.6529 14.547 24.7955C14.3941 24.9382 14.1336 24.9196 13.9672 24.7532C13.8659 24.6529 13.7657 24.5527 13.6644 24.4514C13.6107 24.3976 13.5404 24.3335 13.4577 24.2602C13.3419 24.1558 13.374 23.9553 13.5331 23.8075C13.6923 23.6586 13.7667 23.485 13.6995 23.4168C13.6324 23.3486 13.4484 23.424 13.2903 23.5822C13.1321 23.7403 12.6495 23.5729 12.2164 23.1998C12.1058 23.1047 11.9932 23.0075 11.8795 22.9062C11.4506 22.53 11.2666 22.0567 11.4526 21.8644C11.6387 21.6732 11.649 21.3766 11.4754 21.204C11.3017 21.0304 11.0061 21.0438 10.818 21.2309C10.6289 21.42 10.1452 21.2453 9.80723 20.7833C9.70905 20.649 9.6212 20.5177 9.54885 20.3916C9.26463 19.8966 9.6615 19.0832 10.0667 18.6811C12.7735 15.9898 15.4793 13.2964 18.1861 10.6051C18.8569 9.93739 17.7624 11.1818 17.7624 11.9301C17.7624 13.4349 17.6198 13.8741 16.5821 14.9066C15.6529 15.8286 12.2423 18.1726 12.2423 19.7384Z" fill="#F2F2F2"/>
</svg>
