<svg width="40" height="40" viewBox="0 0 40 40" fill="none" xmlns="http://www.w3.org/2000/svg">
<g clip-path="url(#clip0)">
<path d="M38.1047 14.8067C37.9267 14.5384 37.5416 14.4212 37.235 14.5027C36.6929 12.5226 33.8996 10.3286 32.8091 9.26856C29.7557 6.29859 26.3863 3.5124 22.7715 1.24952C14.416 -3.98141 7.4613 8.6631 1.3485 12.4724C0.837176 12.7911 0.972174 13.3534 1.34957 13.5932C1.35898 13.7235 1.36883 13.8536 1.37931 13.9837C1.37974 14.0162 1.38017 14.0476 1.3868 14.0806C1.99761 21.9946 -0.270197 30.584 1.80056 38.2481C1.96937 38.8726 2.75946 38.9663 3.16938 38.6304C3.21559 38.6539 3.25667 38.683 3.31315 38.6952C8.70753 39.8762 14.2519 39.9297 19.7502 39.897C25.2796 39.8642 31.0987 40.2416 36.5895 39.7282C37.0258 39.6875 37.3146 39.3157 37.3634 38.9419C37.4323 39.0127 37.4939 39.0912 37.569 39.1561C37.7416 39.305 38.0388 39.2624 38.0991 39.0162C38.5127 37.3217 37.9391 35.4557 37.8818 33.7101C37.8056 31.3799 38.0463 29.0273 38.2594 26.7101C38.5595 23.4398 40.0591 17.7531 38.1047 14.8067ZM35.3418 15.0868C35.1796 15.1248 35.017 15.1807 34.8547 15.2468C34.6202 15.0699 34.3885 14.894 34.1844 14.7119C33.4685 14.0746 32.7837 13.4039 32.067 12.7682C31.8753 12.5984 31.6532 12.6373 31.512 12.7655C31.4224 12.0188 31.3321 11.27 31.2251 10.5231C32.6476 11.9921 34.0066 13.528 35.3418 15.0868ZM33.8419 15.8052C33.1684 16.26 32.5389 16.8293 32.0454 17.2893C32.043 16.1633 31.7848 14.9607 31.6534 13.924C31.6342 13.7742 31.6166 13.6223 31.5982 13.4719C32.2007 14.1437 32.8305 14.7894 33.4724 15.4239C33.5915 15.5425 33.7154 15.6723 33.8419 15.8052ZM30.0183 13.924C30.1023 15.4541 29.9936 17.2159 30.468 18.6688C30.4787 18.7011 30.4983 18.7249 30.512 18.7542C28.1347 21.1302 25.9929 23.763 23.4187 25.9264C23.0602 25.8809 22.7782 26.1639 22.7221 26.4936C22.6472 26.5518 22.5775 26.6153 22.5024 26.6729C18.7993 29.4869 14.3304 24.9776 11.566 22.6178C11.0506 22.1775 10.5545 21.7201 10.0541 21.2663C10.0045 18.0171 8.3757 9.14768 11.998 8.70546C18.0385 7.96821 23.766 8.7215 29.7523 9.35691C29.7917 10.8798 29.9352 12.4082 30.0183 13.924ZM21.8251 2.86886C23.9713 4.14268 25.9326 5.61611 27.7691 7.2224C26.7879 7.04547 25.795 6.91988 24.8002 6.81462C22.2763 5.17709 19.5838 3.88552 17.1192 2.15621C18.6429 1.76769 20.2081 1.90932 21.8251 2.86886ZM16.2172 2.44739C17.8834 3.96125 19.7522 5.35488 21.6903 6.57693C20.8244 6.53692 19.9593 6.50911 19.0992 6.50183C18.4285 6.0256 17.5734 5.65676 16.9469 5.22245C16.0941 4.63111 15.282 3.97944 14.4654 3.33654C15.0437 2.97882 15.6273 2.67738 16.2172 2.44739ZM13.9141 3.69468C14.8402 4.52157 15.7786 5.33285 16.7422 6.11674C16.8765 6.22606 17.0167 6.34501 17.1596 6.46568C16.57 6.45049 15.9206 6.43487 15.2463 6.43765C14.8982 6.26885 14.4789 6.15632 14.2151 6.02816C13.5619 5.71067 12.9231 5.33413 12.363 4.86752C12.8758 4.44284 13.3929 4.04961 13.9141 3.69468ZM11.8365 5.31359C12.3262 5.77378 12.8788 6.15846 13.4556 6.50269C12.1165 6.6041 10.8615 6.84586 10.0597 7.38478C8.49487 8.43631 7.99146 10.5541 7.95872 12.9088C7.80233 12.8035 7.65043 12.6914 7.50409 12.5736C7.02614 12.1885 6.56787 11.7524 6.19133 11.2666C5.90401 10.8958 5.31352 11.3731 5.551 11.7606C5.93717 12.3906 6.46775 12.9178 7.02336 13.3994C7.27303 13.6159 7.61427 13.9541 7.97627 14.0671C8.00322 14.6837 8.05414 15.3067 8.12068 15.9231C7.30555 15.6727 6.47032 14.9522 5.88176 14.492C5.14943 13.9197 4.46737 13.2851 3.79302 12.6437C6.41105 10.8336 9.06866 7.71661 11.8365 5.31359ZM2.7785 13.9028C2.73956 13.7154 2.70191 13.5277 2.66169 13.3405C2.87649 13.2261 3.09129 13.0979 3.30651 12.9627C4.18861 13.872 5.08888 14.7658 6.05655 15.5833C6.63976 16.076 7.4106 16.7489 8.2208 16.7692C8.37228 17.941 8.56204 19.0633 8.721 20.0348C6.65816 18.0734 4.69672 16.0153 2.7785 13.9028ZM3.28705 36.0646C2.98539 29.691 3.9492 23.1026 3.23549 16.7773C5.14279 19.1555 7.46344 21.3091 9.62599 23.3255C11.0384 24.6426 12.6882 26.1643 14.4851 27.3909C12.4988 27.878 10.5697 29.7999 9.0524 31.0512C7.09674 32.6642 5.1721 34.3535 3.28705 36.0646ZM21.0119 37.9621C15.2578 38.0645 9.55196 37.8788 3.82298 37.3637C5.46328 36.1983 7.00753 34.8671 8.58087 33.6333C10.7704 31.9169 13.1336 30.4541 15.3344 28.7954C15.5704 28.6176 15.675 28.3821 15.6915 28.151C16.9604 28.8821 18.2888 29.4253 19.6512 29.6129C21.2309 29.8307 22.7491 29.0316 24.1061 27.9561C26.0999 29.3957 28.0371 30.916 29.9444 32.4656C31.1971 33.484 35.1597 35.9944 35.2969 37.7282C35.3029 37.8014 35.3196 37.8694 35.3422 37.934C30.6902 37.2965 25.638 37.8799 21.0119 37.9621ZM36.2569 27.7268C36.0793 29.6891 35.5735 32.9996 35.9781 35.6917C33.7911 32.9061 28.0818 28.8765 25.2212 26.9912C25.9888 26.2732 26.6861 25.5287 27.2866 24.9245C29.3749 22.8251 32.3192 18.2908 35.4712 17.1167C35.4988 17.128 35.5254 17.1432 35.5532 17.153C35.7731 17.2307 35.9894 17.1098 36.1062 16.9284C36.2669 16.8931 36.4278 16.8563 36.5891 16.8411C36.6407 16.8364 36.6886 16.8199 36.7374 16.806C36.7806 17.8355 36.9139 18.8736 36.8931 19.9056C36.8407 22.5172 36.4922 25.1282 36.2569 27.7268Z" fill="#F2F2F2"/>
<path d="M25.3549 15.9521C22.9457 15.1175 19.3166 15.8569 16.7897 15.8971C16.3676 15.9038 10.9935 15.6562 11.6236 16.8425C12.2667 18.0539 16.8391 17.442 17.9771 17.4602C20.1741 17.4951 23.2572 18.1129 25.3549 17.3862C26.0624 17.141 26.0624 16.1973 25.3549 15.9521Z" fill="#F2F2F2"/>
<path d="M18.9871 12.3098C18.4417 11.6222 17.2227 11.8229 16.4546 11.8173C15.0657 11.8068 13.6008 11.7386 12.2209 11.9027C11.5072 11.9874 11.5074 12.9277 12.2209 13.0124C13.4096 13.1538 14.6346 13.0924 15.831 13.1707C16.7783 13.233 17.7706 13.5147 18.707 13.3697C19.2325 13.2884 19.2455 12.6356 18.9871 12.3098Z" fill="#F2F2F2"/>
</g>
<defs>
<clipPath id="clip0">
<rect width="40" height="40.0002" fill="white"/>
</clipPath>
</defs>
</svg>
