<svg width="30" height="30" viewBox="0 0 30 30" fill="none" xmlns="http://www.w3.org/2000/svg">
<g clip-path="url(#clip0)">
<path d="M28.2278 5.13132C23.1952 5.13132 18.1642 5.13132 13.1311 5.13132C10.1973 5.13132 7.26307 5.13132 4.32879 5.13132C3.23193 5.13132 1.80947 4.90658 0.788801 5.41691C0.518561 5.55175 0.276276 5.74964 0.220364 5.80665C0.163904 5.86256 0.095933 5.97383 0.0811328 6.04893C0.0668808 6.12458 0.101963 6.4288 0.101963 6.73193C0.101963 9.39926 0.101963 12.0666 0.101963 14.7345C0.101963 16.6645 0.101963 18.5962 0.101963 20.5268C0.101963 21.3551 -0.134292 22.8428 0.110733 23.6102C0.696711 25.4525 3.85244 24.8079 5.3374 24.8079C9.53188 24.8079 13.7269 24.8079 17.9219 24.8079C21.1791 24.8079 24.4373 24.8079 27.6945 24.8079C29.9786 24.8079 29.8783 23.1887 29.8783 21.3589C29.8783 20.4566 29.8783 19.5538 29.8783 18.6516C29.8783 18.349 29.8838 17.9757 29.8843 17.8178C29.8854 17.6748 29.8854 17.5322 29.8854 17.5322C29.88 16.8854 29.8789 16.2342 29.8783 15.5825C29.8783 15.2799 29.8832 14.7887 29.8843 14.4861C29.8854 14.1413 29.8854 13.7615 29.8854 13.7615C29.8816 13.5915 29.88 13.4205 29.8794 13.2479C29.8778 12.9639 29.8838 12.5873 29.8843 12.4048C29.8854 12.2382 29.8854 12.0726 29.8854 12.0726C29.8805 11.7289 29.8794 11.383 29.8783 11.035C29.8783 10.7318 29.8838 10.3602 29.8843 10.2018C29.8854 10.0444 29.8805 9.88657 29.8794 9.84984C29.8783 9.82737 29.8783 9.80489 29.8783 9.78187C29.8789 8.07437 30.666 5.13132 28.2278 5.13132ZM28.0568 23.9944C25.0578 23.9944 22.0594 23.9944 19.0605 23.9944C14.7838 23.9944 10.507 23.9944 6.23144 23.9944C4.97506 23.9944 3.71924 23.9944 2.46342 23.9944C2.36475 23.9944 2.2765 23.9846 2.19537 23.9687C2.04901 23.9391 2.11643 23.7204 2.33734 23.5126C2.77312 23.1026 3.21165 22.6904 3.65291 22.2743C3.87327 22.0671 4.05252 21.8583 4.05252 21.8079V21.718C4.05252 21.718 4.05252 21.5579 4.05252 21.3611C4.05252 21.1638 3.88478 21.183 3.67813 21.4044C3.1064 22.0172 2.53248 22.6284 1.95747 23.2391C1.74972 23.4594 1.41589 23.4468 1.3227 23.1591C1.19224 22.7518 1.17854 22.2464 1.17854 21.758C1.17854 16.7319 1.17854 11.7053 1.17854 6.67876C1.17854 6.37618 1.38794 5.98973 1.68558 5.93437C1.91088 5.89326 2.16686 5.88174 2.4223 5.88503C2.72543 5.88887 2.79341 6.07963 2.57414 6.28957C2.24744 6.60312 1.91691 6.9205 1.58143 7.24172C1.36327 7.45111 1.18567 7.63365 1.18567 7.64845C1.18567 7.6638 1.36217 7.50593 1.58089 7.29653C1.9339 6.95723 2.28088 6.62395 2.62677 6.29176C2.84493 6.08237 3.15354 5.92176 3.31525 5.93217C3.42762 5.93985 3.52739 5.94423 3.60796 5.94423C5.36919 5.94423 7.13096 5.94423 8.89218 5.94423C13.25 5.94423 17.6084 5.94423 21.9673 5.94423C22.9321 5.94423 28.8039 5.2267 28.8039 6.76373C28.8039 7.91321 28.8039 9.06214 28.8039 10.2127C28.8039 10.5153 28.6296 10.933 28.4142 11.1468C28.2618 11.297 28.1089 11.4483 27.9559 11.599C27.74 11.8122 27.5563 11.7393 27.5223 11.4384C27.3787 10.1776 26.9216 9.26989 25.6772 10.1519C24.5206 10.9714 23.364 11.7909 22.2074 12.6098C21.3222 13.2369 20.0033 13.8031 20.2489 15.0732C20.3574 15.6334 21.2438 16.3033 21.9383 16.8092C22.1828 16.9868 22.2063 17.3059 21.9925 17.5202C21.9492 17.5635 21.9059 17.6062 21.8626 17.6495C21.6478 17.8639 21.2789 17.8891 21.0388 17.7049C20.66 17.4138 20.2982 17.1293 19.9781 16.8487C19.3482 16.2972 18.8165 15.9075 17.9099 15.9673C17.2981 16.0067 16.7379 16.4831 16.2704 16.8142C15.5868 17.2965 15.0644 17.3365 14.5963 17.1705C14.3107 17.0696 14.2882 16.7577 14.5097 16.5516C14.5574 16.5077 14.6045 16.4633 14.6522 16.4195C14.8737 16.2134 14.9054 16.0752 14.7399 16.1564C14.6396 16.2052 14.5464 16.266 14.4636 16.3395C14.4636 16.3395 14.3452 16.4442 14.1994 16.5741C14.0531 16.704 13.7708 16.6914 13.5718 16.5406C13.4539 16.4513 13.3339 16.3597 13.2106 16.2709C13.1744 16.2402 13.13 16.2117 13.0686 16.1876C11.3534 15.5156 10.4204 16.6377 9.21888 17.7038C7.86933 18.901 5.86636 20.1053 5.04084 21.747C4.94656 21.9339 5.07318 22.1192 5.24805 22.1883C6.21554 22.5742 7.23127 22.4371 8.26729 22.4371C10.5175 22.4371 12.7682 22.4371 15.0189 22.4371C17.2691 22.4371 19.5198 22.4371 21.77 22.4371C22.8526 22.4371 23.8042 22.549 24.8095 22.1504C25.0469 22.0567 25.1691 21.8068 25.0534 21.5809C24.9641 21.4082 24.8605 21.2378 24.7465 21.0706C24.5749 20.8212 24.5875 20.4572 24.7997 20.2407C24.8495 20.1886 24.9 20.1376 24.9488 20.0866C25.1603 19.8696 25.3949 19.7495 25.4739 19.8186C25.5534 19.8871 25.6356 19.9682 25.6652 19.9935C25.6942 20.0187 25.7474 20.0587 25.7874 20.079C25.8263 20.0998 26.0747 20.2484 26.3751 20.2889C27.2839 20.4133 27.5514 19.2238 27.5974 17.9105C27.6089 17.6073 27.7761 17.1874 27.9877 16.9709C28.133 16.8224 28.2766 16.6755 28.4213 16.5264C28.634 16.3099 28.8045 16.1838 28.8045 16.2446C28.8045 16.2808 28.8045 16.3181 28.8045 16.3548C28.8045 16.5417 28.8434 17.1748 28.8763 18.0009C28.8878 18.3035 28.8609 18.5836 28.8187 18.6286C28.776 18.6724 28.7776 18.7404 28.8231 18.7793C28.8686 18.8188 28.9119 19.0967 28.9163 19.3993C28.9448 21.5387 28.827 23.9944 28.0568 23.9944ZM28.4295 13.6343C28.2432 13.8333 28.0573 14.0328 27.871 14.2323C27.6643 14.4533 27.5097 14.3864 27.5273 14.0843C27.5382 13.9095 27.5481 13.7154 27.5574 13.5115C27.57 13.2089 27.7427 12.7841 27.9488 12.5632C28.11 12.3905 28.27 12.2184 28.4295 12.0468C28.6362 11.8254 28.8034 11.8912 28.8034 12.1938C28.8034 12.3582 28.8034 12.5221 28.8034 12.6854C28.8028 12.9875 28.6362 13.4123 28.4295 13.6343ZM28.8028 14.3392C28.8028 14.6237 28.6302 15.0283 28.4169 15.2426C28.2585 15.4021 28.1006 15.5616 27.9433 15.7195C27.7301 15.9344 27.5448 15.8922 27.5267 15.6269C27.5092 15.361 27.6692 14.9713 27.8819 14.7564C28.0634 14.5733 28.241 14.3924 28.4175 14.2154C28.6296 14.0005 28.8028 14.0558 28.8028 14.3392ZM27.4949 14.8825C27.4949 15.0118 27.4922 15.065 27.4889 15.0003C27.4873 14.957 27.4867 14.9181 27.4867 14.8836C27.4867 14.8496 27.4878 14.8096 27.4889 14.7652C27.4927 14.6999 27.4949 14.7525 27.4949 14.8825ZM26.3619 18.8999C26.3783 19.2019 26.3449 19.2419 26.1169 19.0424C24.8221 17.9099 23.5252 16.7763 22.2299 15.6427C21.5403 15.0398 21.0163 14.4746 21.9684 13.8004C22.9611 13.0971 23.9533 12.3944 24.946 11.6905C25.3538 11.4017 26.4118 10.2829 26.4118 11.0678C26.4118 12.0046 26.4118 12.942 26.4118 13.8788C26.4118 15.1511 26.4118 16.4244 26.4118 17.6961C26.4118 17.9307 26.3383 18.4822 26.3619 18.8999ZM23.3509 21.1435C23.6425 21.3989 24.2997 21.6242 23.7505 21.6242C22.2546 21.6242 20.7581 21.6242 19.2616 21.6242C15.202 21.6242 11.1418 21.6242 7.08108 21.6242C5.42729 21.6242 6.79439 21.001 7.63965 20.2516C8.47504 19.51 10.4117 17.0647 11.8802 16.8728C12.1806 16.8344 12.6196 17.0663 12.8614 17.2483C13.6644 17.8513 14.6067 18.5145 15.6098 18.1133C16.6053 17.7137 17.9192 16.3899 18.9366 17.2806C19.7106 17.9576 20.484 18.6351 21.258 19.3121C21.9558 19.9227 22.6531 20.5334 23.3509 21.1435ZM22.6454 18.252C22.6766 18.2191 22.7062 18.1867 22.7364 18.1538C22.9431 17.9329 23.2878 17.9088 23.5066 18.0996C23.7247 18.2909 23.734 18.6242 23.5257 18.844C23.5044 18.867 23.4824 18.89 23.4611 18.9125C23.2528 19.1323 22.9058 19.1581 22.681 18.9766C22.4563 18.7963 22.4393 18.4729 22.6454 18.252ZM23.5038 19.6838C23.3575 19.5511 23.409 19.2715 23.6222 19.0567C23.6452 19.0336 23.6683 19.0106 23.6907 18.9876C23.9045 18.7716 24.1978 18.7042 24.3469 18.8347C24.4954 18.9651 24.4444 19.2452 24.2312 19.4606C24.2044 19.4875 24.1769 19.5144 24.1512 19.5407C23.938 19.7561 23.6502 19.817 23.5038 19.6838Z" fill="#F2F2F2"/>
<path d="M9.83288 14.8627C9.92826 14.3573 9.74846 13.9649 9.44643 13.6365C9.24197 13.4134 9.21346 13.0993 9.42889 12.8866C9.49905 12.8181 9.56921 12.7491 9.63938 12.68C9.8548 12.4668 10.2297 12.4366 10.4764 12.6115C10.7044 12.7732 10.933 12.9349 11.1611 13.0966C11.4077 13.2715 11.4346 13.5872 11.2197 13.801C9.69639 15.3166 8.23336 16.7725 6.83228 18.1659C6.6174 18.3797 6.44363 18.6889 6.44363 18.8566V19.1608C6.44363 19.2255 6.44802 19.2853 6.45624 19.3384C6.47049 19.4355 6.67276 19.3341 6.88325 19.1175C7.54981 18.4279 8.21746 17.7395 8.88128 17.0619C9.83069 16.0807 10.7713 15.1111 11.7065 14.149C11.9175 13.932 12.2881 13.898 12.5353 14.0729C12.9387 14.3584 13.3427 14.6451 13.7462 14.9302C13.7697 14.9472 13.7982 14.9631 13.8289 14.9773C15.8949 15.8215 17.5153 14.0279 19.0748 12.9223C20.9846 11.5694 23.9342 10.2188 25.2898 8.26898C25.4301 8.06726 25.3978 7.8195 25.1445 7.72796C24.1825 7.38042 23.1722 7.5065 22.156 7.5065C19.8954 7.5065 17.6348 7.5065 15.3742 7.5065C13.0588 7.5065 10.7434 7.5065 8.42796 7.5065C7.34645 7.5065 6.20135 7.34479 5.17465 7.7159C4.9384 7.80141 4.59196 8.04643 4.79369 8.3375C5.40104 9.21181 6.39265 9.88056 7.36892 10.4983C7.62491 10.66 7.65835 10.9632 7.44292 11.1748C7.3744 11.2422 7.30533 11.3102 7.23681 11.3776C7.02139 11.5903 6.6459 11.6199 6.39923 11.4455C5.7102 10.9566 5.02117 10.4682 4.33104 9.97923C4.30418 9.96059 4.27513 9.94524 4.24443 9.93373C4.20935 9.91729 4.17811 9.90304 4.14905 9.89207C4.09588 9.87015 4.05148 9.66514 4.05148 9.42998C4.05148 9.19537 3.87552 9.17618 3.65791 9.38777C3.63269 9.41189 3.60803 9.43601 3.58281 9.46013C3.36574 9.67062 3.17772 9.84712 3.16237 9.85425C3.14812 9.86138 3.31202 9.69693 3.52909 9.48589C3.57185 9.44423 3.6146 9.40202 3.65791 9.35981C3.87498 9.14877 3.86785 9.14165 3.64749 9.34885C3.57459 9.41737 3.50223 9.48644 3.42933 9.55605C3.21116 9.76545 2.99683 9.96662 2.95408 10.0077C2.91187 10.0494 2.70576 10.2577 2.48814 10.4682C2.17515 10.7719 1.85667 11.0805 1.53106 11.3946C1.09583 11.8408 1.56341 11.394 2.41798 10.5647C2.6356 10.3536 2.80059 10.1979 2.78744 10.2171C2.77373 10.2358 2.58791 10.4232 2.37029 10.6343C2.11101 10.8853 1.8468 11.1419 1.57766 11.4033C1.36059 11.6144 1.18408 12.0299 1.18408 12.333V12.4487C1.18408 12.7513 1.35511 12.8209 1.56669 12.6033C1.71305 12.4542 1.85831 12.3045 2.00467 12.1554C2.21626 11.9383 2.36755 12.0074 2.36042 12.3105C2.35385 12.5698 2.35604 12.8324 2.36426 13.0906C2.37303 13.3931 2.21461 13.8119 2.00138 14.0274C1.85722 14.1726 1.7136 14.3179 1.56889 14.4637C1.3562 14.6791 1.18408 14.8995 1.18408 14.9548C1.18408 15.0113 1.36443 14.8891 1.58533 14.6824C1.72511 14.5514 1.86489 14.4198 2.00467 14.2877C2.22503 14.08 2.41908 14.1567 2.441 14.4588C2.46841 14.837 2.49198 15.1467 2.49198 15.3364C2.49198 15.4164 2.48595 15.5468 2.47773 15.7135C2.46731 15.9212 2.28368 16.2622 2.06826 16.4754C1.90381 16.6377 1.73882 16.8005 1.57437 16.9638C1.3584 17.1771 1.18463 17.5942 1.18463 17.8973V18.5074C1.18463 18.81 1.35565 18.8785 1.56615 18.6609C1.72402 18.497 1.88134 18.3342 2.03866 18.1714C2.2497 17.9543 2.42291 18.024 2.441 18.326C2.44155 18.3419 2.44265 18.3578 2.44374 18.3737C2.46293 18.6757 2.32315 19.0956 2.11266 19.3132C1.93012 19.5012 1.74759 19.6898 1.5656 19.8773C1.35511 20.0943 1.18463 20.4419 1.18463 20.6518C1.18463 20.8618 1.3584 20.859 1.57218 20.6441C1.86708 20.3503 2.16199 20.0554 2.45745 19.7616C2.48485 19.7348 2.51226 19.7068 2.53912 19.6805C2.58462 19.6355 2.65917 19.7556 2.73591 19.9348C2.8132 20.1146 2.7392 20.415 2.52542 20.6304C2.20694 20.9506 1.88846 21.2707 1.57053 21.5914C1.35675 21.8062 1.18408 21.9992 1.18408 22.0222C1.18408 22.0452 1.35785 21.8906 1.57218 21.6769C1.90381 21.3458 2.23764 21.0152 2.57037 20.6842C2.78579 20.4709 3.15086 20.5186 3.4518 20.489C3.67764 20.4665 3.95062 20.3262 4.28116 20.033C5.39556 19.0435 6.50996 18.0552 7.62491 17.0658C8.15936 16.5927 9.68159 15.6647 9.83288 14.8627ZM8.98762 12.2206C8.91746 12.2935 8.84675 12.3659 8.77658 12.4383C8.56554 12.6553 8.27941 12.7595 8.13798 12.6674C8.05083 12.6104 7.96586 12.5534 7.88528 12.4969C7.8513 12.4733 7.81841 12.4498 7.78497 12.4262C7.72961 12.3873 7.85678 12.1795 8.06782 11.9625C8.14346 11.8852 8.21801 11.809 8.29256 11.7322C8.50415 11.5152 8.70587 11.3595 8.74205 11.3842C8.76398 11.399 8.7859 11.4138 8.80728 11.4286C8.90101 11.4949 8.99475 11.5612 9.08848 11.6275C9.24471 11.7372 9.19921 12.0025 8.98762 12.2206ZM6.49461 8.67462C6.27371 8.46797 6.35154 8.23719 6.65248 8.20485C8.24049 8.03218 10.1157 8.31777 11.5508 8.31777C14.9307 8.31777 18.3112 8.31777 21.6917 8.31777C22.3456 8.31777 23.0012 8.31777 23.6557 8.31777C23.9588 8.31777 23.9654 8.38136 23.7127 8.54635C23.2128 8.87141 22.5276 9.453 22.2102 9.67829C20.7916 10.6831 19.3724 11.6884 17.9538 12.6931C17.1486 13.2632 16.1273 14.3617 15.0486 14.3617C14.7454 14.3617 14.3113 14.1233 14.0646 13.9479C12.8779 13.107 11.69 12.2661 10.5033 11.4242C9.32912 10.5915 7.64574 9.74681 6.49461 8.67462ZM3.56965 19.2557C3.56965 19.1564 3.56965 19.0589 3.56965 18.9608C3.56965 18.798 3.57514 18.4724 3.57568 18.235C3.57678 18.0196 3.57678 17.8041 3.57678 17.8041C3.57294 17.5849 3.5713 17.3629 3.5702 17.1403C3.56911 16.8378 3.57514 16.4897 3.57568 16.3636C3.57678 16.2496 3.57678 16.135 3.57678 16.135C3.61077 15.2569 3.76809 12.4399 3.71656 11.2329C3.7034 10.9303 3.84099 10.8354 4.08766 11.0114C5.46518 11.9871 6.84269 12.9639 8.22021 13.9407C9.28637 14.6967 8.27667 15.3407 7.66109 15.8872C6.69414 16.7446 5.72829 17.6024 4.76134 18.4603C4.39682 18.7826 3.56965 19.8581 3.56965 19.2557Z" fill="#F2F2F2"/>
<path d="M25.4515 9.99721L25.5501 9.92759C25.7968 9.75328 26.181 9.44796 26.408 9.24788C26.8602 8.84882 27.3124 8.44977 27.763 8.0529C27.99 7.85282 28.1001 7.64398 27.9976 7.62315C27.8935 7.60177 27.6309 7.77279 27.4139 7.98329C26.7424 8.63449 26.0709 9.28406 25.3988 9.93307C25.1807 10.1441 25.2037 10.1721 25.4515 9.99721Z" fill="#F2F2F2"/>
<path d="M1.57857 10.0213C2.26103 9.35696 2.95664 8.6789 3.66211 7.98329C3.87809 7.7706 4.05185 7.36606 4.05185 7.08048C4.05185 6.79379 3.87809 6.73404 3.66321 6.94782C2.96541 7.64069 2.2687 8.33082 1.57474 9.02095C1.35931 9.23418 1.18555 9.62995 1.18555 9.90567C1.18555 10.1803 1.36205 10.2329 1.57857 10.0213Z" fill="#F2F2F2"/>
<path d="M19.8399 13.9719C20.0531 13.8217 20.4023 13.53 20.6227 13.3212C22.5324 11.5041 24.2849 9.83109 25.8526 8.3253C25.9716 8.21019 26.096 8.08795 26.227 7.96188C26.4337 7.76125 26.5855 7.5979 26.5658 7.5979C26.5466 7.5979 26.4139 7.70972 26.2687 7.84731C26.1234 7.98435 26.1207 7.98435 26.2621 7.84676C26.4041 7.70972 26.4797 7.5979 26.4315 7.5979C26.3832 7.5979 26.1678 7.76892 25.9496 7.97942C24.2098 9.66499 22.4875 11.3423 20.7992 13C20.5827 13.2121 20.5827 13.2116 20.7986 12.9994C23.0252 10.8084 26.0949 7.80072 25.5665 8.27158C23.6189 10.1759 21.7151 12.0363 19.8454 13.8628C19.63 14.0738 19.6267 14.1231 19.8399 13.9719Z" fill="#F2F2F2"/>
<path d="M26.682 20.8184C26.5164 20.9878 26.352 21.1571 26.1864 21.3265C25.9748 21.5436 25.9118 21.7184 26.0455 21.7184C26.1793 21.7184 26.3322 21.6746 26.3876 21.6203L26.4885 21.5217C26.643 21.366 26.7982 21.2103 26.9544 21.0535C27.1676 20.8387 27.2789 20.6112 27.2032 20.5448C27.1265 20.4791 26.893 20.6019 26.682 20.8184Z" fill="#F2F2F2"/>
</g>
<defs>
<clipPath id="clip0">
<rect width="30" height="30" fill="white"/>
</clipPath>
</defs>
</svg>
