<svg width="52" height="54" viewBox="0 0 52 54" fill="none" xmlns="http://www.w3.org/2000/svg">
<circle cx="26" cy="29" r="25" fill="#212121"/>
<path d="M50.375 46.9375C50.25 47.0625 50.1458 47.25 50.0625 47.5C50.0208 47.7083 49.9583 47.9167 49.875 48.125C49.8333 48.2917 49.75 48.4375 49.625 48.5625C49.5 48.6458 49.3125 48.6458 49.0625 48.5625C49.3125 49.0208 49.4167 49.2708 49.375 49.3125C49.3333 49.3125 49.3125 49.3542 49.3125 49.4375C48.6875 49.5208 48.0625 49.5417 47.4375 49.5C46.8542 49.4583 46.2708 49.4583 45.6875 49.5C45.5208 49.5 45.3333 49.5208 45.125 49.5625C44.9583 49.5625 44.8125 49.5417 44.6875 49.5C44.4375 49.4583 44.2083 49.4375 44 49.4375C43.7917 49.4375 43.5833 49.4167 43.375 49.375C42.6667 49.0833 42.125 48.9792 41.75 49.0625C41.4167 49.1458 41.0833 49.1667 40.75 49.125C39.875 49.125 38.9375 49.1667 37.9375 49.25C36.9792 49.3333 35.8958 49.4167 34.6875 49.5C33.9375 49.1667 33.1458 49.1042 32.3125 49.3125C31.5208 49.4792 30.7083 49.5417 29.875 49.5C29.4167 49.4167 29.1667 49.4583 29.125 49.625C28.3333 49.5833 27.6875 49.5208 27.1875 49.4375C26.7292 49.3542 26.2708 49.2917 25.8125 49.25C25.3958 49.25 24.9792 49.2708 24.5625 49.3125C24.1875 49.3542 23.8125 49.3542 23.4375 49.3125C23.0208 49.3125 22.7917 49.2917 22.75 49.25C22.75 49.1667 22.7292 49.1042 22.6875 49.0625C22.5208 49.0208 22.2917 49.0625 22 49.1875C21.75 49.3125 21.5833 49.25 21.5 49C21.1667 49.2083 20.875 49.2292 20.625 49.0625C20.375 48.8958 20.1042 48.8125 19.8125 48.8125C19.6042 48.8125 19.3333 48.8542 19 48.9375C18.7083 48.9792 18.3958 48.9792 18.0625 48.9375L17.1875 48.75C17.0208 48.6667 16.8333 48.6667 16.625 48.75C16.4583 48.7917 16.3125 48.8125 16.1875 48.8125C15.8542 48.8542 15.5417 48.8333 15.25 48.75C14.9583 48.625 14.6667 48.5833 14.375 48.625C14.125 48.625 13.875 48.6875 13.625 48.8125C13.375 48.9375 13.1042 49 12.8125 49C12.2708 49.0417 11.7292 48.9792 11.1875 48.8125C10.6875 48.6042 10.1458 48.6458 9.5625 48.9375C9.35417 48.9792 9.16667 48.9792 9 48.9375C8.83333 48.8958 8.64583 48.8958 8.4375 48.9375C7.60417 48.8125 6.85417 48.8125 6.1875 48.9375C5.5625 49.0208 4.91667 49.125 4.25 49.25C3.625 49.3333 2.97917 49.375 2.3125 49.375C1.6875 49.375 1.0625 49.2708 0.4375 49.0625C0.5625 48.4375 0.833333 48.1458 1.25 48.1875C1.70833 48.2292 2.14583 48.1667 2.5625 48C3.47917 47.9583 4.27083 47.875 4.9375 47.75C5.64583 47.625 6.33333 47.4792 7 47.3125C7.70833 47.1458 8.35417 46.9375 8.9375 46.6875C9.52083 46.4375 10.0208 46.1042 10.4375 45.6875C10.3958 45.4792 10.4167 45.3333 10.5 45.25C10.5833 45.125 10.625 44.9583 10.625 44.75C10.4167 44.7917 10.2083 44.8542 10 44.9375C9.83333 44.9792 9.64583 44.9583 9.4375 44.875C9.4375 44.4167 9.54167 44.0625 9.75 43.8125C10 43.5208 10.2708 43.3333 10.5625 43.25C10.5625 43.0417 10.6458 42.875 10.8125 42.75C11.0208 42.5833 11.1667 42.3542 11.25 42.0625C11.3333 41.7708 11.3333 41.4583 11.25 41.125C11.1667 40.7917 11.0208 40.5208 10.8125 40.3125C11.2292 39.7292 11.3542 39.0833 11.1875 38.375C11.0625 37.625 10.9583 36.8958 10.875 36.1875C10.6667 36.2708 10.5 36.3125 10.375 36.3125C10.25 36.2708 10.0833 36.2292 9.875 36.1875C9.83333 35.9375 9.89583 35.7083 10.0625 35.5C10.2292 35.2917 10.4167 35.0833 10.625 34.875C10.4583 34.8333 10.2917 34.6458 10.125 34.3125C10.25 34.0625 10.4167 33.875 10.625 33.75C10.8333 33.5833 10.8958 33.2917 10.8125 32.875C10.6458 32.6667 10.4375 32.5625 10.1875 32.5625C9.97917 32.5625 9.77083 32.4792 9.5625 32.3125C9.60417 31.8958 9.79167 31.625 10.125 31.5C10.5 31.375 10.7292 31.1458 10.8125 30.8125C10.8958 30.6042 10.8958 30.375 10.8125 30.125C10.7292 29.8333 10.7292 29.5833 10.8125 29.375C10.6875 29.375 10.5833 29.4375 10.5 29.5625C10.4167 29.6458 10.3125 29.7292 10.1875 29.8125C9.89583 29.8958 9.70833 29.8542 9.625 29.6875C9.58333 29.5208 9.45833 29.4375 9.25 29.4375C9.33333 29.1042 9.5625 28.8333 9.9375 28.625C10.3125 28.4167 10.5625 28.1042 10.6875 27.6875C10.5208 27.4375 10.3542 27.25 10.1875 27.125C10.0625 27 10 26.7708 10 26.4375C10.4583 26.2292 10.6875 25.875 10.6875 25.375C10.7292 24.875 10.7083 24.3958 10.625 23.9375C10.5833 23.7292 10.6042 23.5625 10.6875 23.4375C10.7708 23.2708 10.8125 23.0625 10.8125 22.8125C10.8542 22.4792 10.8125 22.125 10.6875 21.75C10.6042 21.3333 10.5625 20.9375 10.5625 20.5625C10.5625 20.2708 10.5625 20 10.5625 19.75C10.6042 19.5 10.625 19.2083 10.625 18.875C10.4583 18.4583 10.3958 18.1667 10.4375 18C10.5208 17.7917 10.625 17.625 10.75 17.5C10.6667 16.5417 10.6667 15.5625 10.75 14.5625C10.875 13.5625 10.9792 12.7083 11.0625 12C11.0625 11.2083 11.0833 10.5417 11.125 10C11.2083 9.45833 11.1042 8.97917 10.8125 8.5625C10.9375 8.3125 11 8.04167 11 7.75C11 7.41667 10.8958 7.14583 10.6875 6.9375C10.3542 6.97917 10.0417 6.91667 9.75 6.75C9.79167 6.625 9.83333 6.52083 9.875 6.4375C9.95833 6.35417 10.0417 6.25 10.125 6.125C10.0833 5.66667 9.875 5.375 9.5 5.25C9.16667 5.125 8.85417 4.95833 8.5625 4.75C8.64583 4.41667 8.5625 4.22917 8.3125 4.1875C8.10417 4.14583 8.04167 4.02083 8.125 3.8125C7.375 3.60417 6.64583 3.52083 5.9375 3.5625C5.27083 3.60417 4.75 3.5 4.375 3.25C4.20833 3.375 3.91667 3.45833 3.5 3.5C3.08333 3.54167 2.83333 3.39583 2.75 3.0625C2.375 3.14583 2.14583 3.04167 2.0625 2.75C2.14583 2.54167 2.27083 2.375 2.4375 2.25C2.60417 2.125 2.79167 2.02083 3 1.9375C3.79167 2.14583 4.39583 2.20833 4.8125 2.125C5.22917 2 5.66667 1.9375 6.125 1.9375C6.33333 1.9375 6.54167 1.97917 6.75 2.0625C7 2.14583 7.22917 2.1875 7.4375 2.1875C7.64583 2.22917 7.8125 2.22917 7.9375 2.1875C8.10417 2.10417 8.29167 2.04167 8.5 2C8.95833 1.95833 9.41667 1.97917 9.875 2.0625C10.375 2.10417 10.8542 2.14583 11.3125 2.1875C11.8958 2.14583 12.4792 2.16667 13.0625 2.25C13.6875 2.33333 14.2917 2.41667 14.875 2.5C15.4583 2.54167 16.0417 2.58333 16.625 2.625C17.2083 2.625 17.7917 2.5625 18.375 2.4375C18.5833 2.52083 18.8125 2.5625 19.0625 2.5625C19.3542 2.52083 19.5417 2.60417 19.625 2.8125C20.2083 2.85417 20.8333 2.85417 21.5 2.8125C22.2083 2.72917 22.8542 2.6875 23.4375 2.6875C23.6458 2.6875 23.875 2.72917 24.125 2.8125C24.375 2.85417 24.625 2.875 24.875 2.875C25.1667 2.91667 25.4583 2.89583 25.75 2.8125C26.0833 2.72917 26.4167 2.66667 26.75 2.625C27.3333 2.54167 27.9583 2.41667 28.625 2.25C29.2917 2.08333 29.9792 2.04167 30.6875 2.125C30.9375 2.375 30.9792 2.625 30.8125 2.875C30.6875 3.125 30.5 3.29167 30.25 3.375C29.75 3.29167 29.25 3.29167 28.75 3.375C28.2917 3.41667 27.8125 3.5 27.3125 3.625C26.8125 3.75 26.3125 3.85417 25.8125 3.9375C25.3125 4.02083 24.8333 4.0625 24.375 4.0625C23.9583 4.10417 23.4792 4.29167 22.9375 4.625C22.4375 4.95833 22.1458 5.35417 22.0625 5.8125C22.3125 5.85417 22.4792 5.875 22.5625 5.875C22.6458 5.875 22.7917 5.875 23 5.875C22.75 6.20833 22.5833 6.375 22.5 6.375C22.4167 6.33333 22.3125 6.33333 22.1875 6.375C22.1042 6.58333 21.9792 6.72917 21.8125 6.8125C21.6875 6.89583 21.5833 7.04167 21.5 7.25C21.625 7.33333 21.7708 7.33333 21.9375 7.25C22.1042 7.16667 22.2292 7.08333 22.3125 7C22.4375 7 22.625 6.95833 22.875 6.875C23.1667 6.79167 23.2917 6.66667 23.25 6.5C23.3333 6.29167 23.5 6.1875 23.75 6.1875C24.0417 6.1875 24.2083 6.04167 24.25 5.75C24.6667 5.41667 24.9583 5.29167 25.125 5.375C25.2917 5.45833 25.375 5.58333 25.375 5.75C25.2917 6 25.1042 6.16667 24.8125 6.25C24.5625 6.33333 24.3958 6.47917 24.3125 6.6875C24.2292 6.60417 24.1458 6.58333 24.0625 6.625C23.9792 6.66667 23.8333 6.6875 23.625 6.6875C22.9583 7.1875 22.375 7.64583 21.875 8.0625C21.4167 8.47917 21.3333 9.0625 21.625 9.8125C21.9583 9.64583 22.3542 9.60417 22.8125 9.6875C23.2708 9.72917 23.4583 9.95833 23.375 10.375C23.2083 10.5833 23.0417 10.6875 22.875 10.6875C22.7083 10.6458 22.5625 10.6042 22.4375 10.5625C22.7708 10.8542 22.8958 11.0208 22.8125 11.0625C22.7292 11.1042 22.6875 11.2083 22.6875 11.375C22.4792 11.4583 22.3125 11.5 22.1875 11.5C22.0625 11.4583 21.9792 11.4792 21.9375 11.5625C22.0208 11.6458 22.0208 11.75 21.9375 11.875C21.8958 11.9583 21.8333 12.0833 21.75 12.25C21.6667 12.375 21.5833 12.5417 21.5 12.75C21.4167 12.9167 21.4167 13.1042 21.5 13.3125C21.6667 13.4792 21.7917 13.625 21.875 13.75C21.9583 13.875 22.0208 14.0833 22.0625 14.375C21.7292 14.5833 21.4792 14.9375 21.3125 15.4375C21.1875 15.8958 21.3333 16.2708 21.75 16.5625C21.7917 16.9792 21.6042 17.25 21.1875 17.375C21.2292 17.5833 21.2292 17.75 21.1875 17.875C21.1458 17.9583 21.125 18.0625 21.125 18.1875C21.2917 18.3125 21.4792 18.375 21.6875 18.375C21.9375 18.375 22.1667 18.4167 22.375 18.5C22.4583 18.9583 22.4583 19.2708 22.375 19.4375C22.2917 19.6042 22.0208 19.7083 21.5625 19.75C21.8125 20.0417 21.8125 20.2292 21.5625 20.3125C21.3542 20.3542 21.2083 20.5 21.125 20.75C21.2083 20.9167 21.3125 21.0208 21.4375 21.0625C21.5625 21.1042 21.6667 21.1667 21.75 21.25C21.875 21.4583 21.8958 21.6667 21.8125 21.875C21.7292 22.0833 21.625 22.2917 21.5 22.5C21.4167 22.7083 21.3333 22.9375 21.25 23.1875C21.2083 23.3958 21.2917 23.625 21.5 23.875C21.7083 24 21.8125 24.1667 21.8125 24.375C21.8542 24.5417 21.8125 24.7083 21.6875 24.875C21.5625 24.9167 21.4792 25.1667 21.4375 25.625C21.4375 26.0833 21.4167 26.5833 21.375 27.125C21.375 27.625 21.3542 28.1458 21.3125 28.6875C21.3125 29.2292 21.3333 29.7292 21.375 30.1875C21.5833 30.6875 21.6042 31.0208 21.4375 31.1875C21.2708 31.3125 21.1667 31.5417 21.125 31.875C21.5 32.25 21.6042 32.5417 21.4375 32.75C21.3125 32.9167 21.1875 33.1042 21.0625 33.3125C20.9375 33.4792 20.8333 33.6875 20.75 33.9375C20.7083 34.1458 20.7292 34.4375 20.8125 34.8125C20.9792 34.9792 21.0417 35.1667 21 35.375C21 35.5417 20.875 35.6875 20.625 35.8125C21.125 35.9375 21.3542 36 21.3125 36C21.3125 35.9583 21.3125 35.8958 21.3125 35.8125C21.1875 36.1875 21.1458 36.375 21.1875 36.375C21.2708 36.375 21.3125 36.4375 21.3125 36.5625C21.0208 36.7708 20.8542 36.9375 20.8125 37.0625C20.7708 37.1875 20.7083 37.3125 20.625 37.4375C20.5833 37.5208 20.5625 37.625 20.5625 37.75C20.5625 37.875 20.625 38 20.75 38.125C21.0417 37.9583 21.2708 37.9375 21.4375 38.0625C21.6042 38.1875 21.7917 38.2917 22 38.375C21.8333 38.6667 21.5417 38.9167 21.125 39.125C20.8333 39.8333 20.6667 40.4375 20.625 40.9375C20.625 41.3958 20.7917 41.75 21.125 42C21.2083 42.5833 21.2292 43 21.1875 43.25C21.1875 43.4583 21.2292 43.75 21.3125 44.125C21.5208 44.125 21.5625 44.1875 21.4375 44.3125C21.3542 44.4375 21.3542 44.6042 21.4375 44.8125C21.6875 44.6875 21.7917 44.5417 21.75 44.375C21.7083 44.2083 21.7292 44.0417 21.8125 43.875C21.9375 44.4583 22 44.8542 22 45.0625C22 45.2708 21.9792 45.4792 21.9375 45.6875C21.9375 45.8125 22.0208 45.8958 22.1875 45.9375C22.3542 45.9375 22.4167 46.0417 22.375 46.25C22.625 46.5833 22.8542 46.6875 23.0625 46.5625C23.0625 47.0208 23.2083 47.2083 23.5 47.125C23.625 47.375 23.8125 47.5208 24.0625 47.5625C24.3542 47.6042 24.625 47.6667 24.875 47.75C25.3333 47.9167 25.75 48.0833 26.125 48.25C26.5 48.4167 26.9792 48.4792 27.5625 48.4375C28.1458 48.3542 28.5417 48.3333 28.75 48.375C29 48.4167 29.2292 48.4375 29.4375 48.4375C30.4375 48.5208 31.375 48.5208 32.25 48.4375C33.1667 48.3542 34.1667 48.2917 35.25 48.25C35.4583 48 35.7292 47.8125 36.0625 47.6875C36.3958 47.5625 36.7292 47.4583 37.0625 47.375C37.4375 47.25 37.7917 47.125 38.125 47C38.4583 46.875 38.7292 46.6875 38.9375 46.4375C39.3958 45.9375 39.875 45.5208 40.375 45.1875C40.875 44.8125 41.3125 44.375 41.6875 43.875C41.6042 43.5417 41.7083 43.2292 42 42.9375C42.3333 42.6458 42.5625 42.3542 42.6875 42.0625C42.8542 42.1042 43 42.0625 43.125 41.9375C43.2917 41.8125 43.4375 41.7083 43.5625 41.625C43.6875 41.2917 43.8125 40.9792 43.9375 40.6875C44.0625 40.3542 44.2917 40.125 44.625 40C44.9583 39.5417 45.2083 39 45.375 38.375C45.5417 37.7083 45.8542 37.2083 46.3125 36.875C46.5625 36.2917 46.75 35.6875 46.875 35.0625C47 34.3958 47.2292 33.875 47.5625 33.5C47.4792 33.2917 47.4583 33.0625 47.5 32.8125C47.5833 32.5625 47.7292 32.3958 47.9375 32.3125C48.0208 31.5208 48.0417 30.7292 48 29.9375C48 29.1042 48.125 28.3333 48.375 27.625C48.7917 27.5833 49.0417 27.7292 49.125 28.0625C49.25 28.3958 49.3125 28.7917 49.3125 29.25C49.3125 29.6667 49.2708 30.0833 49.1875 30.5C49.1042 30.9167 49.0208 31.1875 48.9375 31.3125C48.9792 32.2292 48.9583 33.125 48.875 34C48.7917 34.8333 48.9792 35.5 49.4375 36C49.3958 36.625 49.3542 37.2708 49.3125 37.9375C49.3125 38.6042 49.4792 39.1042 49.8125 39.4375C49.7708 39.7292 49.6042 39.9375 49.3125 40.0625C49.3958 40.2708 49.4375 40.5 49.4375 40.75C49.5625 40.8333 49.6875 40.8958 49.8125 40.9375C49.9375 40.9375 50.0208 41 50.0625 41.125C49.9792 41.5417 49.8958 41.875 49.8125 42.125C49.7708 42.3333 49.6458 42.5 49.4375 42.625C49.4792 42.8333 49.5208 43.0625 49.5625 43.3125C49.6458 43.5625 49.8125 43.7292 50.0625 43.8125C50.1042 44.0208 50.1042 44.2708 50.0625 44.5625C50.0208 44.8125 49.9792 45.0833 49.9375 45.375C49.9375 45.6667 49.9583 45.9583 50 46.25C50.0417 46.5 50.1667 46.7292 50.375 46.9375ZM20.0625 3.9375C19.5208 3.9375 19.0208 4.0625 18.5625 4.3125C18.1042 4.5625 17.7292 4.85417 17.4375 5.1875C17.9792 4.97917 18.4583 4.8125 18.875 4.6875C19.2917 4.52083 19.6875 4.27083 20.0625 3.9375ZM22.625 10.1875C22.4167 10.2708 22.1667 10.375 21.875 10.5C21.625 10.625 21.5833 10.8333 21.75 11.125C21.875 11.0417 22 10.9583 22.125 10.875C22.25 10.7917 22.2708 10.6458 22.1875 10.4375L22.625 10.1875ZM17.25 5.3125C16.9167 5.39583 16.6875 5.47917 16.5625 5.5625C16.4792 5.64583 16.4792 5.72917 16.5625 5.8125C16.6875 5.72917 16.8125 5.64583 16.9375 5.5625C17.0625 5.47917 17.1667 5.39583 17.25 5.3125ZM48.125 36.9375C48.125 36.7708 48.125 36.5833 48.125 36.375C48.125 36.125 48.0833 35.9375 48 35.8125C47.5417 36.0625 47.25 36.4375 47.125 36.9375C47.0417 37.3958 46.8542 37.8333 46.5625 38.25C46.8125 38.25 47 38.2708 47.125 38.3125C47.25 38.3542 47.4167 38.3125 47.625 38.1875C47.5833 38.0208 47.5 37.9167 47.375 37.875C47.2917 37.8333 47.2083 37.7708 47.125 37.6875C47.375 37.3542 47.5833 37.1875 47.75 37.1875C47.9583 37.1458 48.0833 37.0625 48.125 36.9375ZM15.1875 3.8125C14.7708 3.77083 14.4583 3.83333 14.25 4C14.0417 4.125 13.8333 4.29167 13.625 4.5C13.7917 4.41667 13.9375 4.35417 14.0625 4.3125C14.1875 4.22917 14.375 4.22917 14.625 4.3125C14.625 4.10417 14.7083 4.02083 14.875 4.0625C15.0833 4.0625 15.1875 3.97917 15.1875 3.8125ZM21.8125 4.125C20.8542 4.20833 20.0208 4.45833 19.3125 4.875C18.6458 5.29167 17.9167 5.54167 17.125 5.625C17.2083 5.79167 17.1458 5.95833 16.9375 6.125C16.7292 6.29167 16.5208 6.33333 16.3125 6.25C16.0625 6.125 15.7292 6.0625 15.3125 6.0625C15.3958 6.3125 15.375 6.5 15.25 6.625C15.125 6.75 15 6.875 14.875 7C14.75 7.08333 14.625 7.16667 14.5 7.25C14.375 7.33333 14.2292 7.35417 14.0625 7.3125C13.8125 7.5625 13.6458 7.66667 13.5625 7.625C13.4792 7.58333 13.3542 7.58333 13.1875 7.625C13.0625 8.08333 13 8.3125 13 8.3125C13 8.27083 12.8958 8.25 12.6875 8.25C12.3542 8.83333 12.2292 9.22917 12.3125 9.4375C12.3958 9.60417 12.3958 9.8125 12.3125 10.0625C13.0208 9.89583 13.5833 9.64583 14 9.3125C14.4583 8.9375 15 8.64583 15.625 8.4375C15.875 8.02083 16.2292 7.79167 16.6875 7.75C17.3958 7.125 18.25 6.54167 19.25 6C20.25 5.45833 21.1042 4.83333 21.8125 4.125ZM17.875 3.875C17.5 3.75 17.1042 3.75 16.6875 3.875C16.2708 3.95833 15.8542 4.10417 15.4375 4.3125C15.0208 4.47917 14.6042 4.66667 14.1875 4.875C13.8125 5.04167 13.4583 5.16667 13.125 5.25C12.75 5.375 12.4792 5.5625 12.3125 5.8125C12.1875 6.0625 12.0208 6.25 11.8125 6.375C11.8542 6.54167 11.8958 6.70833 11.9375 6.875C12.0208 7 12.0833 7.14583 12.125 7.3125C12.375 7.35417 12.5417 7.33333 12.625 7.25C12.75 7.125 12.8542 7.02083 12.9375 6.9375C13.0625 6.8125 13.1875 6.70833 13.3125 6.625C13.4375 6.54167 13.625 6.52083 13.875 6.5625C14.25 6.10417 14.7292 5.77083 15.3125 5.5625C15.8958 5.35417 16.3958 5.04167 16.8125 4.625C17.0208 4.70833 17.2292 4.66667 17.4375 4.5C17.6458 4.29167 17.7917 4.08333 17.875 3.875ZM17.75 8C17.6667 7.95833 17.5417 7.97917 17.375 8.0625C17.25 8.10417 17.1458 8.08333 17.0625 8C17.3125 8.08333 17.4792 8.16667 17.5625 8.25C17.6458 8.29167 17.7083 8.20833 17.75 8ZM13.8125 3.5C13.5625 3.45833 13.3125 3.47917 13.0625 3.5625C12.8542 3.64583 12.625 3.75 12.375 3.875C12.125 3.95833 11.875 4.0625 11.625 4.1875C11.4167 4.27083 11.2083 4.27083 11 4.1875C10.9583 4.4375 10.8958 4.60417 10.8125 4.6875C10.7708 4.77083 10.7917 4.91667 10.875 5.125C11.375 5.125 11.7708 5.27083 12.0625 5.5625C12.1458 4.9375 12.3958 4.54167 12.8125 4.375C13.2708 4.20833 13.6042 3.91667 13.8125 3.5ZM12.9375 4.8125C12.6458 5.0625 12.4792 5.25 12.4375 5.375C12.3958 5.45833 12.4375 5.54167 12.5625 5.625C12.6458 5.375 12.7292 5.22917 12.8125 5.1875C12.8958 5.14583 12.9375 5.02083 12.9375 4.8125ZM11.375 3.9375C11 3.77083 10.75 3.70833 10.625 3.75C10.5417 3.75 10.5 3.8125 10.5 3.9375C10.5833 3.85417 10.7292 3.85417 10.9375 3.9375C11.1458 4.02083 11.2917 4.02083 11.375 3.9375ZM48.25 38.125C47.7917 38.4583 47.4792 38.6875 47.3125 38.8125C47.1875 38.8958 47.0625 38.8333 46.9375 38.625C46.9375 38.9167 46.875 39.1042 46.75 39.1875C46.625 39.2708 46.5208 39.4167 46.4375 39.625C46.3542 39.7917 46.1875 39.9583 45.9375 40.125C45.7292 40.3333 45.625 40.5 45.625 40.625C45.6667 40.75 45.7083 40.8542 45.75 40.9375C45.4167 41.1458 45.2083 41.2708 45.125 41.3125C45.0833 41.3542 45 41.4583 44.875 41.625C45.0833 41.75 45.25 41.7292 45.375 41.5625C45.5 41.3958 45.6458 41.4167 45.8125 41.625C45.9375 41.2917 46.0625 41.125 46.1875 41.125C46.3125 41.125 46.5 41.1042 46.75 41.0625C47.0833 41.2292 47.2292 41.375 47.1875 41.5C47.1458 41.625 47.1042 41.75 47.0625 41.875C47.4792 41.7083 47.7083 41.5208 47.75 41.3125C47.7917 41.1042 47.9167 41 48.125 41C47.7917 41.1667 47.6042 41.2917 47.5625 41.375C47.5208 41.4167 47.4583 41.4167 47.375 41.375C47.3333 41.2083 47.3125 41.0625 47.3125 40.9375C47.3542 40.7708 47.2917 40.6458 47.125 40.5625C47.125 40.0625 47.375 39.8125 47.875 39.8125C47.9167 39.5208 48 39.2708 48.125 39.0625C48.2917 38.8542 48.3333 38.5417 48.25 38.125ZM10.375 3.125C10.25 3.125 10.0208 3.10417 9.6875 3.0625C9.35417 2.97917 9.14583 3.02083 9.0625 3.1875C9.77083 3.52083 10.2083 3.5 10.375 3.125ZM20.4375 6.125C20.2292 6.125 20.0833 6.16667 20 6.25C19.9167 6.29167 19.7917 6.29167 19.625 6.25C19.2917 6.66667 19 6.95833 18.75 7.125C18.5 7.29167 18.2292 7.375 17.9375 7.375C18.0208 7.79167 18.1042 8.125 18.1875 8.375C17.9375 8.375 17.75 8.41667 17.625 8.5C17.5417 8.54167 17.3542 8.52083 17.0625 8.4375C16.8125 8.8125 16.625 8.97917 16.5 8.9375C16.375 8.89583 16.3125 8.91667 16.3125 9C15.8542 9.5 15.4583 9.79167 15.125 9.875C14.8333 9.95833 14.625 10.1458 14.5 10.4375C14.1667 10.3958 13.9792 10.4375 13.9375 10.5625C13.8958 10.6458 13.8542 10.7292 13.8125 10.8125C13.6458 10.7292 13.5208 10.7292 13.4375 10.8125C13.3542 10.8958 13.2292 10.9375 13.0625 10.9375C12.9792 11.2708 12.7708 11.4792 12.4375 11.5625C12.1458 11.6458 11.9792 11.8333 11.9375 12.125C12.0625 12.2083 12.0833 12.3333 12 12.5C11.9167 12.6667 11.8333 12.7917 11.75 12.875C12.2083 13.3333 12.4583 13.5208 12.5 13.4375C12.5833 13.3125 12.6667 13.1875 12.75 13.0625C12.8333 12.9375 13.0625 12.7708 13.4375 12.5625C13.8542 12.3542 14.0833 12.2292 14.125 12.1875C14.4167 11.8958 14.625 11.75 14.75 11.75C14.9167 11.7083 15.0417 11.7083 15.125 11.75C15.375 11.5833 15.5417 11.4583 15.625 11.375C15.75 11.2917 15.8125 11.2083 15.8125 11.125C16.3542 10.875 16.625 10.9583 16.625 11.375C17.0417 10.4167 17.6042 9.75 18.3125 9.375C19.0625 9 19.7292 8.52083 20.3125 7.9375C20.1042 7.4375 19.9375 7.27083 19.8125 7.4375C19.7292 7.5625 19.6042 7.54167 19.4375 7.375C19.5625 7.29167 19.6458 7.16667 19.6875 7C19.7708 6.83333 19.9792 6.79167 20.3125 6.875C20.2292 6.66667 20.25 6.54167 20.375 6.5C20.5 6.45833 20.5208 6.33333 20.4375 6.125ZM20.4375 10.875C20.1875 10.8333 19.9792 10.875 19.8125 11C19.6875 11.0833 19.5417 11.1875 19.375 11.3125C19.2083 11.3958 19.0417 11.4583 18.875 11.5C18.7083 11.5417 18.4792 11.5 18.1875 11.375C18.4375 10.9583 18.6458 10.7708 18.8125 10.8125C18.9792 10.8542 19.1875 10.8542 19.4375 10.8125C19.7708 10.3958 20.0417 10.1042 20.25 9.9375C20.4583 9.72917 20.4583 9.45833 20.25 9.125C20.0833 9.16667 19.9167 9.22917 19.75 9.3125C19.5833 9.35417 19.4167 9.33333 19.25 9.25C19.125 9.45833 18.9792 9.64583 18.8125 9.8125C18.6875 9.97917 18.4583 10.0625 18.125 10.0625C17.8333 10.6875 17.4583 11.0417 17 11.125C16.9583 11.3333 16.8542 11.5 16.6875 11.625C16.5208 11.7083 16.3333 11.7917 16.125 11.875C15.9583 11.9167 15.7917 11.9792 15.625 12.0625C15.4583 12.1458 15.3542 12.2708 15.3125 12.4375C15.1875 12.5208 15.0417 12.6042 14.875 12.6875C14.7083 12.7708 14.5833 12.875 14.5 13C14.0417 13 13.8542 13.0417 13.9375 13.125C14.0625 13.2083 14.0417 13.2917 13.875 13.375C13.8333 13.625 13.9375 13.6667 14.1875 13.5C14.4792 13.2917 14.7292 13.0833 14.9375 12.875C15.0625 12.9583 15.1875 12.9583 15.3125 12.875C15.4792 12.7917 15.6458 12.7292 15.8125 12.6875C15.3958 12.8125 15.0417 13.1458 14.75 13.6875C14.5 13.7292 14.2917 13.8333 14.125 14C14 14.125 13.8542 14.25 13.6875 14.375C13.5208 14.5 13.3542 14.6042 13.1875 14.6875C13.0208 14.7292 12.8542 14.6875 12.6875 14.5625C12.7292 14.8125 12.6875 14.9375 12.5625 14.9375C12.4375 14.9375 12.2708 15.0417 12.0625 15.25C11.7708 15.5417 11.6458 15.9375 11.6875 16.4375C11.7292 16.8958 11.9792 17.0833 12.4375 17C12.5208 16.9167 12.6042 16.8333 12.6875 16.75C12.8125 16.625 12.9792 16.5625 13.1875 16.5625C13.6458 16.3542 13.8958 16.1875 13.9375 16.0625C14.0208 15.9375 14.1667 15.8958 14.375 15.9375C14.5833 15.7708 14.7917 15.6042 15 15.4375C15.2083 15.2708 15.4167 15.125 15.625 15C15.5417 15.1667 15.5208 15.25 15.5625 15.25C15.6458 15.2083 15.7292 15.1458 15.8125 15.0625C15.9375 14.9792 16.0625 14.8958 16.1875 14.8125C16.3125 14.6875 16.4375 14.6458 16.5625 14.6875C16.5625 14.4792 16.6667 14.2917 16.875 14.125C17.0833 13.9167 17.2292 13.8958 17.3125 14.0625C17.4792 13.9375 17.6042 13.8125 17.6875 13.6875C17.7708 13.5208 17.9375 13.4583 18.1875 13.5C18.6875 13.75 19.0208 13.8542 19.1875 13.8125C19.3958 13.7292 19.5833 13.75 19.75 13.875C19.875 13.6667 20 13.5417 20.125 13.5C20.2917 13.4167 20.375 13.2708 20.375 13.0625C20.1667 12.9792 19.9792 13 19.8125 13.125C19.6875 13.2083 19.5 13.2083 19.25 13.125C19.2917 13.3333 19.2292 13.4583 19.0625 13.5C18.9375 13.5 18.7917 13.5417 18.625 13.625C18.4583 13.25 18.4583 13.0417 18.625 13C18.7917 12.9167 18.9583 12.8542 19.125 12.8125C19.2917 12.7708 19.4167 12.7083 19.5 12.625C19.625 12.5417 19.6667 12.4167 19.625 12.25C19.8333 12.0833 20.0417 11.9375 20.25 11.8125C20.4583 11.6458 20.5208 11.3333 20.4375 10.875ZM22 18.9375C21.8333 18.7708 21.6458 18.7708 21.4375 18.9375C21.2708 19.1042 21.1667 19.2917 21.125 19.5C21.3333 19.4583 21.4792 19.375 21.5625 19.25C21.6875 19.125 21.8333 19.0208 22 18.9375ZM19.6875 18.4375C19.5208 18.3542 19.3542 18.3125 19.1875 18.3125C19.0208 18.2708 18.8958 18.3333 18.8125 18.5C18.8125 18.625 18.7708 18.75 18.6875 18.875C18.6042 19 18.625 19.125 18.75 19.25C18.8333 19.0833 18.9375 18.9792 19.0625 18.9375C19.2292 18.8958 19.375 18.9583 19.5 19.125C19.375 18.9167 19.375 18.8125 19.5 18.8125C19.625 18.7708 19.6875 18.6458 19.6875 18.4375ZM48.75 47.75C48.4583 47.5833 48.2917 47.5417 48.25 47.625C48.2083 47.6667 48.1042 47.6667 47.9375 47.625C47.9792 47.25 48.1667 46.9792 48.5 46.8125C48.8333 46.6458 48.8542 46.3125 48.5625 45.8125C48.2292 45.8958 47.8958 45.875 47.5625 45.75C47.5625 46.1667 47.4583 46.4583 47.25 46.625C47.0833 46.75 46.8958 46.8958 46.6875 47.0625C46.5208 47.1875 46.3542 47.3125 46.1875 47.4375C46.0208 47.5208 45.8542 47.5417 45.6875 47.5C45.2708 47.9167 45.1042 48.1458 45.1875 48.1875C45.3125 48.2292 45.4583 48.2292 45.625 48.1875C45.7917 48.1458 45.9583 48.0833 46.125 48C46.3333 47.9167 46.5 47.8542 46.625 47.8125C47.0417 47.5625 47.2917 47.4375 47.375 47.4375C47.375 47.6458 47.4167 47.7708 47.5 47.8125C47.625 47.8125 47.75 47.8542 47.875 47.9375C47.875 48.0208 48 48.0625 48.25 48.0625C48.5 48.0625 48.6667 47.9583 48.75 47.75ZM48.5625 44.5C48.3958 44.0833 48.3542 43.875 48.4375 43.875C48.5625 43.8333 48.6042 43.7292 48.5625 43.5625C48.1042 43.2292 47.75 43.1667 47.5 43.375C47.2917 43.5417 47.125 43.5833 47 43.5C46.75 43.875 46.6042 44.0417 46.5625 44C46.5208 43.9583 46.4583 44 46.375 44.125C46.25 44.25 46.1667 44.375 46.125 44.5C46.125 44.625 46.0208 44.6458 45.8125 44.5625C45.8958 44.7708 46.0833 44.8542 46.375 44.8125C46.7083 44.7292 46.9792 44.7708 47.1875 44.9375C46.8542 45.2292 46.4792 45.3125 46.0625 45.1875C45.6458 45.0208 45.25 44.8333 44.875 44.625C44.8333 44.9167 44.7292 45.125 44.5625 45.25C44.4375 45.375 44.25 45.4792 44 45.5625C44.25 45.6875 44.4792 45.7083 44.6875 45.625C44.5625 46.2083 44.3958 46.5208 44.1875 46.5625C43.9792 46.7292 43.625 46.8125 43.125 46.8125C42.875 47.1042 42.6667 47.3333 42.5 47.5C42.2917 47.75 42.1458 47.8958 42.0625 47.9375C41.9792 47.9792 41.9375 48.0417 41.9375 48.125C42.2708 48.0417 42.7083 48.0417 43.25 48.125C43.8333 48.1667 44.25 48 44.5 47.625C44.625 47.5 44.75 47.4375 44.875 47.4375C45.0417 47.4375 45.1667 47.4792 45.25 47.5625C45.6667 46.9792 45.9792 46.7083 46.1875 46.75C46.3958 46.7917 46.6667 46.7708 47 46.6875C46.9583 46.5208 46.875 46.4375 46.75 46.4375C46.625 46.3958 46.5625 46.2917 46.5625 46.125C47.0625 46.2083 47.2917 46.0625 47.25 45.6875C47.4167 45.5625 47.5417 45.4583 47.625 45.375C47.75 45.2917 47.8542 45.3125 47.9375 45.4375C48.1042 45.4792 48.2083 45.3958 48.25 45.1875C48.2917 44.9375 48.3958 44.7083 48.5625 44.5ZM20.125 14.375C20 14.5417 19.875 14.625 19.75 14.625C19.6667 14.625 19.5417 14.6667 19.375 14.75C18.9167 14.6667 18.625 14.6667 18.5 14.75C18.4167 14.7917 18.3958 14.8542 18.4375 14.9375C18.2708 15.1042 18.0208 15.25 17.6875 15.375C17.3542 15.5 17.0625 15.5417 16.8125 15.5C16.6042 15.875 16.25 16.1458 15.75 16.3125C15.25 16.4375 14.8125 16.6042 14.4375 16.8125C14.3958 16.9375 14.2292 17.1042 13.9375 17.3125C13.6875 17.5208 13.4167 17.6042 13.125 17.5625C12.875 17.8958 12.5417 18.1875 12.125 18.4375C11.7083 18.6458 11.6042 19 11.8125 19.5C11.6458 19.5833 11.6042 19.7292 11.6875 19.9375C11.7708 20.1042 11.7708 20.2708 11.6875 20.4375C11.9375 20.3125 12.1458 20.2083 12.3125 20.125C12.4792 20 12.6458 19.9167 12.8125 19.875C12.9792 19.7917 13.125 19.7083 13.25 19.625C13.4167 19.5 13.5417 19.3333 13.625 19.125C14.2083 18.75 14.8125 18.375 15.4375 18C16.0625 17.625 16.6667 17.25 17.25 16.875C17.6667 16.7083 17.875 16.5417 17.875 16.375C17.9167 16.2083 18.0833 16.1667 18.375 16.25C18.2917 16.0417 18.3333 15.9583 18.5 16C18.7083 16 18.875 15.9792 19 15.9375C19.0417 15.7708 19.125 15.625 19.25 15.5C19.4167 15.375 19.5625 15.2708 19.6875 15.1875C19.8542 15.0625 19.9792 14.9375 20.0625 14.8125C20.1458 14.6875 20.1667 14.5417 20.125 14.375ZM48.0625 42.0625C47.6875 42.1875 47.3125 42.3125 46.9375 42.4375C46.6042 42.5208 46.3333 42.6875 46.125 42.9375C45.4583 43.0625 45 43.2083 44.75 43.375C44.3333 43.7917 44.1667 44.0208 44.25 44.0625C44.3333 44.0625 44.375 44.125 44.375 44.25C44.125 44.3333 43.9375 44.4167 43.8125 44.5C43.6875 44.5833 43.4792 44.6042 43.1875 44.5625C42.8125 45.2708 42.2083 45.7917 41.375 46.125C41.2917 46.5 40.9792 46.7917 40.4375 47C39.9375 47.2083 39.4167 47.375 38.875 47.5C38.75 47.75 38.625 47.8958 38.5 47.9375C38.375 47.9792 38.2917 48.0833 38.25 48.25C38.5 48.3333 38.7292 48.3333 38.9375 48.25C39.1875 48.125 39.4792 48.1042 39.8125 48.1875C39.9375 47.9792 40.0417 47.7917 40.125 47.625C40.25 47.4583 40.4167 47.3125 40.625 47.1875C40.9583 47.0208 41.25 46.8125 41.5 46.5625C41.75 46.3125 42.1042 46.1458 42.5625 46.0625C42.8125 45.8542 43 45.7292 43.125 45.6875C43.25 45.6042 43.4167 45.5625 43.625 45.5625C44.0833 45.0625 44.4375 44.7083 44.6875 44.5C44.9792 44.2917 45.25 44.1042 45.5 43.9375C45.75 43.7708 46 43.625 46.25 43.5C46.5417 43.375 46.8125 43.3333 47.0625 43.375C46.9792 43.0417 47.0833 42.8125 47.375 42.6875C47.7083 42.5625 47.9375 42.3542 48.0625 42.0625ZM20.25 23.625L19.375 23.1875C19.6667 23.5625 19.8333 23.75 19.875 23.75C19.9583 23.75 20.0833 23.7083 20.25 23.625ZM19.6875 17.5C19.3542 17.4167 19.0625 17.4583 18.8125 17.625C18.5625 17.7917 18.2083 17.875 17.75 17.875C17.1667 18.1667 16.75 18.4375 16.5 18.6875C16.25 18.9375 16 19.2083 15.75 19.5C15.1667 19.75 14.625 20.0208 14.125 20.3125C13.6667 20.6042 13.1458 20.875 12.5625 21.125C12.4792 21.0417 12.3542 20.9583 12.1875 20.875C12.0208 20.7917 11.875 20.8333 11.75 21C11.9583 21.1667 12 21.4167 11.875 21.75C11.7917 22.0417 11.875 22.25 12.125 22.375C12.4583 22.1667 12.7708 21.9375 13.0625 21.6875C13.3542 21.3958 13.75 21.2292 14.25 21.1875C14.75 20.7292 15.1875 20.375 15.5625 20.125C15.9375 19.8333 16.3125 19.5208 16.6875 19.1875C17.0208 19.1875 17.3958 19.0833 17.8125 18.875C17.7292 18.5417 17.9375 18.2917 18.4375 18.125C18.9792 17.9167 19.3958 17.7083 19.6875 17.5ZM20 20.25C19.9583 20.125 19.9375 19.9792 19.9375 19.8125C19.9792 19.6458 19.9375 19.5417 19.8125 19.5C19.6875 19.5833 19.5625 19.6458 19.4375 19.6875C19.3125 19.7292 19.1458 19.75 18.9375 19.75C18.4792 20.2083 17.875 20.5833 17.125 20.875C16.4167 21.125 15.7708 21.375 15.1875 21.625C14.9375 21.9583 14.75 22.125 14.625 22.125C14.5417 22.125 14.4583 22.1458 14.375 22.1875C13.875 22.3125 13.625 22.4375 13.625 22.5625C13.6667 22.6458 13.6875 22.7292 13.6875 22.8125C13.2708 22.9375 12.9375 23.125 12.6875 23.375C12.4792 23.625 12.2083 23.8333 11.875 24C11.9583 24.2083 11.9792 24.4167 11.9375 24.625C11.8958 24.7917 11.9167 24.9792 12 25.1875C12.375 25.1875 12.6042 25 12.6875 24.625C12.8125 24.75 12.9375 24.7708 13.0625 24.6875C13.1875 24.6042 13.3333 24.5833 13.5 24.625C14.0833 24.125 14.5833 23.875 15 23.875C15.6667 23.2083 16.2708 22.6667 16.8125 22.25C17.3542 21.7917 18.0625 21.4375 18.9375 21.1875C19.1875 20.8958 19.375 20.6875 19.5 20.5625C19.625 20.4375 19.7917 20.3333 20 20.25ZM19.6875 22.4375C19.1875 22.3542 18.9375 22.3542 18.9375 22.4375C18.9375 22.4792 18.8125 22.4792 18.5625 22.4375C18.2292 22.7292 18.0417 22.8542 18 22.8125C18 22.7292 17.9375 22.6875 17.8125 22.6875C17.5208 22.9375 17.2708 23.0625 17.0625 23.0625C16.8125 23.3958 16.5208 23.6667 16.1875 23.875C15.8958 24.0417 15.5417 24.2083 15.125 24.375C15.1667 24.6667 15.0208 24.875 14.6875 25C14.3958 25.125 14.125 25.2292 13.875 25.3125C13.75 25.7292 13.375 25.8958 12.75 25.8125C12.8333 25.9792 12.8333 26.1042 12.75 26.1875C12.7083 26.2708 12.625 26.3542 12.5 26.4375C12.4167 26.5208 12.3125 26.6042 12.1875 26.6875C12.0625 26.7708 12 26.8958 12 27.0625C12.5833 26.8958 13.1458 26.6458 13.6875 26.3125C14.2292 25.9375 14.75 25.5833 15.25 25.25C15.6667 25.2083 15.875 25.2292 15.875 25.3125C15.9167 25.3542 15.9792 25.375 16.0625 25.375C16.1875 25.0833 16.2917 24.8542 16.375 24.6875C16.5 24.5208 16.7083 24.5 17 24.625C17 24.375 17.0833 24.1667 17.25 24C17.4583 23.8333 17.6667 23.7708 17.875 23.8125C18.125 23.7292 18.2917 23.6458 18.375 23.5625C18.5 23.4792 18.6667 23.4375 18.875 23.4375C19.125 23.1042 19.2917 22.8958 19.375 22.8125C19.5 22.7292 19.6042 22.6042 19.6875 22.4375ZM37.875 48.25C37.7917 48.1667 37.6667 48.1458 37.5 48.1875C37.375 48.1875 37.2708 48.2292 37.1875 48.3125C37.3958 48.2708 37.5417 48.2917 37.625 48.375C37.75 48.4583 37.8333 48.4167 37.875 48.25ZM20.25 27.8125C20.1667 27.4792 20.1667 27.1667 20.25 26.875C20.375 26.5417 20.375 26.1875 20.25 25.8125C19.9167 25.8125 19.6667 25.875 19.5 26C19.375 26.125 19.2083 26.25 19 26.375C19.2917 25.9167 19.4792 25.6458 19.5625 25.5625C19.6875 25.4375 19.7917 25.3333 19.875 25.25C20 25.125 20.1042 25.0208 20.1875 24.9375C20.2708 24.8125 20.2917 24.625 20.25 24.375C20.0417 24.2917 19.8333 24.1875 19.625 24.0625C19.4583 23.8958 19.2083 23.8125 18.875 23.8125C18.625 24.3542 18.5833 24.5833 18.75 24.5C18.9583 24.4167 19.0417 24.4583 19 24.625C18.625 24.7083 18.4583 24.7917 18.5 24.875C18.5417 24.9167 18.5 24.9583 18.375 25C17.9583 25.375 17.5625 25.5833 17.1875 25.625C16.8542 25.625 16.5625 25.7292 16.3125 25.9375C15.9792 26.3125 15.7708 26.4583 15.6875 26.375C15.6458 26.25 15.5833 26.2083 15.5 26.25C15.0417 26.5417 14.75 26.7083 14.625 26.75C14.5417 26.7917 14.4167 26.8333 14.25 26.875C14.375 27.125 14.3125 27.3542 14.0625 27.5625C13.8125 27.7292 13.5625 27.8542 13.3125 27.9375C12.9792 28.1458 12.6458 28.4167 12.3125 28.75C12.0208 29.0417 11.8958 29.5208 11.9375 30.1875C12.2708 30.2708 12.4792 30.25 12.5625 30.125C12.6875 30 12.8125 29.8333 12.9375 29.625C13.0208 29.7083 13.125 29.7708 13.25 29.8125C13.375 29.8542 13.4375 29.9583 13.4375 30.125C13.6042 29.8333 13.7708 29.7083 13.9375 29.75C14.1458 29.75 14.25 29.7083 14.25 29.625C14.625 29.5833 14.8542 29.625 14.9375 29.75C15.0208 29.8333 15.0417 29.8958 15 29.9375C14.5 30.1042 14.1875 30.2292 14.0625 30.3125C13.9375 30.3958 13.7917 30.4375 13.625 30.4375C13.6667 30.6458 13.6042 30.7708 13.4375 30.8125C13.2708 30.8125 13.1458 30.8542 13.0625 30.9375C12.7292 31.2708 12.4375 31.6042 12.1875 31.9375C11.9375 32.2292 11.875 32.5417 12 32.875C12.3333 32.5 12.5833 32.3125 12.75 32.3125C12.9167 32.3958 13 32.5417 13 32.75C13.0417 32.9583 13.0625 33.1667 13.0625 33.375C13.3125 33.2083 13.5833 33.125 13.875 33.125C14.1667 33.0833 14.2917 33.1875 14.25 33.4375C13.7917 33.4375 13.4167 33.625 13.125 34C13.5833 34 13.9792 33.8542 14.3125 33.5625C14.6458 33.2708 15.0625 33.0833 15.5625 33C15.6875 32.7083 15.8958 32.5208 16.1875 32.4375C16.4792 32.3542 16.75 32.25 17 32.125C17.2917 31.9167 17.4792 31.7708 17.5625 31.6875C17.6875 31.6042 17.7917 31.5208 17.875 31.4375C17.9583 31.3542 18.0417 31.2917 18.125 31.25C18.2083 31.2083 18.3542 31.2292 18.5625 31.3125C18.8125 31.1042 19.0417 30.9167 19.25 30.75C19.4583 30.5833 19.7292 30.4583 20.0625 30.375C20.0625 30 20.0625 29.6875 20.0625 29.4375C20.0625 29.1458 20.1042 28.8333 20.1875 28.5C20.2292 28.2917 20.1667 28.0625 20 27.8125H20.25ZM18.8125 32.125C19.0208 31.75 19 31.4792 18.75 31.3125C18.5 31.4792 18.3333 31.5417 18.25 31.5C18.2083 31.4583 18.1458 31.4375 18.0625 31.4375C17.6042 31.8125 17.1875 32.1458 16.8125 32.4375C16.4792 32.7292 16.0833 32.9167 15.625 33C15.2917 33.2917 15.125 33.4792 15.125 33.5625C15.1667 33.6042 15.1458 33.625 15.0625 33.625C14.6875 33.7083 14.3125 33.8958 13.9375 34.1875C13.5625 34.4375 13.1875 34.6667 12.8125 34.875C12.8125 35.125 12.7292 35.2917 12.5625 35.375C12.4375 35.4167 12.3333 35.5 12.25 35.625C12.3333 35.9583 12.3958 36.1875 12.4375 36.3125C12.6458 36.2708 12.8333 36.1667 13 36C13.1667 35.8333 13.3333 35.8542 13.5 36.0625C13.7917 35.5625 14.1042 35.1667 14.4375 34.875C14.5625 34.75 14.6875 34.6875 14.8125 34.6875C14.9792 34.6875 15.1042 34.6458 15.1875 34.5625C15.1875 34.3958 15.25 34.2917 15.375 34.25C15.5 34.1667 15.6875 34.1458 15.9375 34.1875C16.1875 33.9792 16.3333 33.8333 16.375 33.75C16.4167 33.625 16.4583 33.5417 16.5 33.5C16.7083 33.375 16.9167 33.3125 17.125 33.3125C17.3333 33.2708 17.3333 33.1667 17.125 33C17.625 32.75 17.9375 32.5417 18.0625 32.375C18.2292 32.2083 18.4792 32.125 18.8125 32.125ZM19.75 32.9375C19.25 32.7292 19 32.7083 19 32.875C19 33 18.9792 33.1042 18.9375 33.1875C18.6458 33.3542 18.4375 33.4167 18.3125 33.375C18.1875 33.3333 18.0417 33.3333 17.875 33.375C17.5833 33.625 17.3958 33.8125 17.3125 33.9375C17.2292 34.0208 17.125 34.0417 17 34C16.625 34.1667 16.4375 34.3125 16.4375 34.4375C16.3542 34.4375 16.2292 34.5208 16.0625 34.6875C15.8958 34.8542 15.7917 35 15.75 35.125H15.0625C14.8542 35.5 14.625 35.7292 14.375 35.8125C14.0833 36.3125 13.875 36.5833 13.75 36.625C13.6667 36.6667 13.5625 36.7083 13.4375 36.75C13.3125 36.8333 13.1875 36.875 13.0625 36.875C12.9375 36.875 12.8333 36.8958 12.75 36.9375C12.8333 37.2292 12.7917 37.4167 12.625 37.5C12.4583 37.5417 12.3542 37.6667 12.3125 37.875C12.3958 38 12.4583 38.1875 12.5 38.4375C12.5833 38.6875 12.7292 38.7708 12.9375 38.6875C13.1042 38.4792 13.25 38.375 13.375 38.375C13.5 38.3333 13.6042 38.3333 13.6875 38.375C13.7708 38.2083 13.8125 38.0208 13.8125 37.8125C13.8125 37.6042 13.9167 37.5625 14.125 37.6875C14.2083 37.4792 14.2917 37.2708 14.375 37.0625C14.5 36.8542 14.6667 36.7083 14.875 36.625C15.1667 36.6667 15.3542 36.625 15.4375 36.5C15.5625 36.3333 15.6667 36.1875 15.75 36.0625C15.875 35.9375 16.0208 35.8542 16.1875 35.8125C16.3542 35.7292 16.5625 35.7292 16.8125 35.8125C17.0208 35.2292 17.2917 34.7917 17.625 34.5C18 34.1667 18.4375 33.8958 18.9375 33.6875C18.9792 33.4792 19.0833 33.3542 19.25 33.3125C19.4583 33.2292 19.625 33.1042 19.75 32.9375ZM19.6875 34.125C19.2708 34.3333 18.9167 34.5 18.625 34.625C18.375 34.7083 18.1042 34.8125 17.8125 34.9375C17.7708 35.3958 17.5208 35.625 17.0625 35.625C16.7292 35.9167 16.4792 36.125 16.3125 36.25C16.1458 36.3333 16.0417 36.5417 16 36.875C15.7083 37 15.4792 37.1042 15.3125 37.1875C15.1875 37.2292 15.0833 37.3125 15 37.4375C14.875 37.6875 14.7083 37.8125 14.5 37.8125C14.3333 37.8125 14.1875 37.8958 14.0625 38.0625C13.7708 38.5625 13.6458 38.8542 13.6875 38.9375C13.7292 39.0208 13.75 39.125 13.75 39.25C13.2083 39.6667 12.8125 40.0417 12.5625 40.375C12.3125 40.6667 12.2708 41.1042 12.4375 41.6875C12.8958 41.6458 13.1042 41.6667 13.0625 41.75C13.0208 41.7917 13.0417 41.8542 13.125 41.9375C13.2083 41.4375 13.3542 41.1458 13.5625 41.0625C13.7708 40.9792 13.9375 40.8333 14.0625 40.625C14.1458 40.8333 14.2917 40.9167 14.5 40.875C14.75 40.8333 14.9167 40.8958 15 41.0625C15 41.2708 14.9167 41.4167 14.75 41.5C14.625 41.5417 14.5208 41.6458 14.4375 41.8125C14.2292 41.9375 14.0833 41.9167 14 41.75C13.9583 41.5833 13.8333 41.4792 13.625 41.4375C13.4167 41.9375 13.3542 42.1875 13.4375 42.1875C13.5625 42.1875 13.625 42.2292 13.625 42.3125C13.5 42.3125 13.3125 42.3333 13.0625 42.375C12.8125 42.375 12.7083 42.4375 12.75 42.5625C13.0417 42.8125 13.1042 43.0417 12.9375 43.25C12.7708 43.4167 12.6042 43.5833 12.4375 43.75C12.3125 43.875 12.1875 44.0417 12.0625 44.25C11.9375 44.4167 11.8958 44.625 11.9375 44.875C12.1875 44.7917 12.4167 44.6875 12.625 44.5625C12.8333 44.3958 13.1042 44.3125 13.4375 44.3125C13.5625 44.0208 13.7292 43.9583 13.9375 44.125C14.1458 44.25 14.3333 44.1875 14.5 43.9375C14.375 43.7292 14.2292 43.6458 14.0625 43.6875C13.9375 43.6875 13.9167 43.5833 14 43.375C14.2917 43.125 14.5417 43 14.75 43C15 42.9583 15.2708 42.8958 15.5625 42.8125C15.4375 42.6875 15.5 42.4792 15.75 42.1875C16.0417 41.8958 16.3125 41.6875 16.5625 41.5625C16.6042 41.5208 16.6667 41.4792 16.75 41.4375C16.875 41.3542 17 41.2917 17.125 41.25C17.25 41.1667 17.3542 41.1042 17.4375 41.0625C17.5625 41.0208 17.6042 41 17.5625 41C17.7708 40.875 17.9792 40.875 18.1875 41C18.3958 41.0833 18.5 41.0625 18.5 40.9375C18.5 40.5625 18.6042 40.3125 18.8125 40.1875C19.0208 40.0625 19.2292 39.9167 19.4375 39.75C19.3125 39.375 19.1667 39.1458 19 39.0625C19 39.2708 18.9167 39.3958 18.75 39.4375C18.5833 39.4375 18.4583 39.5 18.375 39.625C18.2083 39.4583 18.0625 39.4375 17.9375 39.5625C17.8125 39.6458 17.6875 39.7292 17.5625 39.8125C17.4792 39.7292 17.375 39.6042 17.25 39.4375C17.1667 39.2292 17.1875 39.0833 17.3125 39C17.6458 39.25 17.875 39.3333 18 39.25C18.125 39.1667 18.3125 39.1875 18.5625 39.3125C18.7292 38.7708 18.8958 38.4792 19.0625 38.4375C19.2708 38.3958 19.3333 38.2292 19.25 37.9375C18.9167 38.0625 18.7083 38.1042 18.625 38.0625C18.5833 38.0208 18.5625 37.9167 18.5625 37.75C18.9792 37.375 19.2083 37.1042 19.25 36.9375C19.2917 36.7292 19.4167 36.6458 19.625 36.6875C19.5833 36.3542 19.5417 36.1667 19.5 36.125C19.5 36.0417 19.5208 35.875 19.5625 35.625C19.4792 35.2917 19.5 35.0208 19.625 34.8125C19.75 34.6042 19.7708 34.375 19.6875 34.125ZM22.1875 48C22.1458 47.7917 22.0625 47.6667 21.9375 47.625C21.8542 47.5417 21.7917 47.3958 21.75 47.1875C21.4167 47.1875 21.1667 47.2292 21 47.3125C20.875 47.3958 20.7083 47.4792 20.5 47.5625C20.5833 47.2708 20.6667 47.0625 20.75 46.9375C20.8333 46.8125 20.9792 46.7708 21.1875 46.8125C21.1042 46.5208 20.9167 46.375 20.625 46.375C20.25 46.2917 20.0417 46.375 20 46.625C19.9583 46.8333 19.8542 47 19.6875 47.125C19.6875 47.25 19.7708 47.2292 19.9375 47.0625C20.1042 46.8542 20.2917 46.7917 20.5 46.875C20.375 46.9583 20.2708 47.1875 20.1875 47.5625C20.5625 47.9375 20.9167 48.125 21.25 48.125C21.5833 48.0833 21.8958 48.0417 22.1875 48ZM20.375 45.5C20.375 45.2083 20.25 44.9792 20 44.8125C19.7917 44.6458 19.5833 44.6875 19.375 44.9375C19 44.8958 18.7083 44.9583 18.5 45.125C18.3333 45.25 18.1458 45.4167 17.9375 45.625C17.7292 45.7917 17.5417 45.9583 17.375 46.125C17.2083 46.25 17.0208 46.3542 16.8125 46.4375C16.8125 46.5208 16.75 46.6042 16.625 46.6875C16.5417 46.7708 16.4167 46.8542 16.25 46.9375C16.125 47.0208 15.9792 47.125 15.8125 47.25C15.6875 47.3333 15.6042 47.4583 15.5625 47.625C16.1042 47.75 16.5625 47.7708 16.9375 47.6875C17.3542 47.6042 17.7292 47.4792 18.0625 47.3125C18.4375 47.1042 18.7708 46.8958 19.0625 46.6875C19.3958 46.4375 19.75 46.2292 20.125 46.0625L20.375 45.5ZM19.625 42.8125C19.5417 42.6042 19.4583 42.4583 19.375 42.375C19.3333 42.25 19.375 42.1458 19.5 42.0625C19.4583 41.6458 19.4375 41.375 19.4375 41.25C19.4792 41.125 19.4792 41.0208 19.4375 40.9375C19.2292 40.9375 19.0833 40.8958 19 40.8125C18.9583 40.7292 18.8958 40.6458 18.8125 40.5625C18.7708 40.9792 18.7083 41.1875 18.625 41.1875C18.5833 41.1875 18.5417 41.2292 18.5 41.3125C18.0833 41.5208 17.8542 41.6042 17.8125 41.5625C17.8125 41.5208 17.7917 41.5417 17.75 41.625C17.625 42 17.4792 42.2083 17.3125 42.25C17.1458 42.2917 17.0625 42.4167 17.0625 42.625C16.6042 42.4167 16.3542 42.3958 16.3125 42.5625C16.7292 42.8542 16.9583 42.9792 17 42.9375C17.0833 42.8542 17.2292 42.8333 17.4375 42.875C17.4375 42.625 17.5625 42.4167 17.8125 42.25C17.9375 42.2917 18.0833 42.3333 18.25 42.375C18.4167 42.375 18.5 42.4375 18.5 42.5625C18 42.6875 17.6875 42.7917 17.5625 42.875C17.5208 43.125 17.4167 43.2917 17.25 43.375C17.0833 43.4167 16.8958 43.4792 16.6875 43.5625C15.8958 43.9375 15.3125 44.2708 14.9375 44.5625C14.5625 44.8125 14.0833 45.0208 13.5 45.1875C13.25 45.4375 13.1042 45.5417 13.0625 45.5C13.0208 45.4583 12.9375 45.4375 12.8125 45.4375C12.1042 46.1875 11.4375 46.8958 10.8125 47.5625C11.3542 47.7292 11.9375 47.75 12.5625 47.625C13.1875 47.4583 13.6667 47.2292 14 46.9375C14.125 46.8542 14.2708 46.8125 14.4375 46.8125C14.6458 46.8125 14.7917 46.7292 14.875 46.5625C15.0833 46.4792 15.2083 46.3542 15.25 46.1875C15.2917 45.9792 15.375 45.9583 15.5 46.125C15.625 45.9167 15.7917 45.75 16 45.625C16.2083 45.4583 16.4375 45.375 16.6875 45.375C16.8542 44.9167 17.125 44.625 17.5 44.5C17.9167 44.375 18.3333 44.2083 18.75 44C18.9167 44 19 43.9583 19 43.875C19.0417 43.75 19.1042 43.6458 19.1875 43.5625C19.2708 43.4375 19.3542 43.3125 19.4375 43.1875C19.5625 43.0625 19.625 42.9375 19.625 42.8125ZM19.0625 7.375C18.7292 7.75 18.4167 7.9375 18.125 7.9375C18.25 7.8125 18.375 7.66667 18.5 7.5C18.625 7.29167 18.8125 7.25 19.0625 7.375ZM18.75 11.75C18.5 11.7917 18.2708 11.875 18.0625 12C17.8542 12.125 17.6458 12.1458 17.4375 12.0625C17.1875 12.1458 16.9583 12.3125 16.75 12.5625C16.5833 12.7708 16.3333 12.8333 16 12.75C16 12.4583 16.1042 12.3333 16.3125 12.375C16.5625 12.375 16.6458 12.25 16.5625 12C16.8125 11.8333 17.0625 11.7083 17.3125 11.625C17.6042 11.5417 17.7917 11.3542 17.875 11.0625C17.9583 11.2708 18.1042 11.3958 18.3125 11.4375C18.5208 11.4375 18.6667 11.5417 18.75 11.75ZM18.875 26.75C18.75 26.8333 18.625 26.8542 18.5 26.8125C18.4167 26.7292 18.3125 26.6458 18.1875 26.5625C17.9375 26.9375 17.8333 27.1667 17.875 27.25C17.9167 27.3333 17.8958 27.4167 17.8125 27.5C17.7292 27.3333 17.625 27.2292 17.5 27.1875C17.4167 27.1458 17.3333 27.0833 17.25 27C17.4167 26.875 17.5833 26.7917 17.75 26.75C17.9167 26.6667 18.0417 26.5208 18.125 26.3125C18.5417 26.3958 18.7917 26.5417 18.875 26.75ZM17.6875 27.5C17.3542 27.7083 17.125 27.7917 17 27.75C16.9167 27.7083 16.7917 27.7083 16.625 27.75C16.9167 28 17.0417 28.1667 17 28.25C16.9583 28.3333 16.9792 28.375 17.0625 28.375L16.3125 28.875C16.3125 28.6667 16.3333 28.5208 16.375 28.4375C16.4583 28.3542 16.5417 28.2708 16.625 28.1875C16.25 28.1042 16.0625 28.2292 16.0625 28.5625C16.1042 28.8958 15.9583 29.1042 15.625 29.1875C15.6667 28.8958 15.6042 28.7917 15.4375 28.875C15.2708 28.9167 15.125 28.875 15 28.75L15.25 29.5625C14.9583 29.6042 14.75 29.5625 14.625 29.4375C14.5 29.3125 14.2917 29.2708 14 29.3125C14.5833 29.1875 14.8958 29.1042 14.9375 29.0625C15.1458 28.6042 15.4167 28.25 15.75 28C16.125 27.75 16.5208 27.625 16.9375 27.625C16.9375 27.2083 17.0208 27.1042 17.1875 27.3125C17.3958 27.4792 17.5625 27.5417 17.6875 27.5ZM15 32.0625C14.5 31.9792 14.2708 31.8333 14.3125 31.625C14.5625 31.7083 14.7292 31.7917 14.8125 31.875C14.8958 31.9167 14.9583 31.9792 15 32.0625ZM19 36C18.5417 35.9583 18.2917 35.9792 18.25 36.0625C18.2083 36.1042 18.1458 36.1042 18.0625 36.0625C17.9792 35.8542 18.0833 35.7708 18.375 35.8125C18.7083 35.8125 18.9167 35.875 19 36ZM14.0625 32.3125C13.7292 32.3542 13.5 32.375 13.375 32.375C13.25 32.375 13.1042 32.3333 12.9375 32.25C13.0625 32.1667 13.2083 32.125 13.375 32.125C13.5833 32.0833 13.75 32.0208 13.875 31.9375L14.0625 32.3125ZM18.5 38.25C18.0833 38.5417 17.8333 38.6667 17.75 38.625C17.6667 38.5833 17.5208 38.5833 17.3125 38.625C17.1875 39 17.125 39.2083 17.125 39.25C17.1667 39.25 17.1875 39.2917 17.1875 39.375C17.0625 39.4167 16.9375 39.4792 16.8125 39.5625C16.7292 39.6042 16.625 39.6458 16.5 39.6875C16.2083 39.7708 16.1042 39.7292 16.1875 39.5625C16.3125 39.3542 16.4167 39.1667 16.5 39C16.75 38.875 16.9375 38.7292 17.0625 38.5625C17.1875 38.3958 17.3333 38.2708 17.5 38.1875C17.7083 38.0625 17.8958 38 18.0625 38C18.2708 38 18.4167 38.0833 18.5 38.25ZM14.9375 38.375C14.8542 38.5833 14.6875 38.7292 14.4375 38.8125C14.2292 38.8542 14.0417 38.9375 13.875 39.0625C13.9583 38.8542 14.1042 38.7083 14.3125 38.625C14.5208 38.5417 14.7292 38.4583 14.9375 38.375ZM16.9375 40C16.9375 40.25 16.7917 40.4583 16.5 40.625C16.2083 40.75 15.9583 40.875 15.75 41C15.7083 41.0417 15.6667 40.9583 15.625 40.75C15.5833 40.5417 15.6667 40.2917 15.875 40C16 40.0833 16.1875 40.1667 16.4375 40.25C16.6875 40.2917 16.8542 40.2083 16.9375 40ZM16 39.8125C15.9167 39.8542 15.8125 39.8958 15.6875 39.9375C15.5625 39.9792 15.4167 39.9792 15.25 39.9375C15.375 40.2708 15.3125 40.4792 15.0625 40.5625C14.8542 40.6458 14.6458 40.625 14.4375 40.5C14.8125 40.2917 15.0417 40.125 15.125 40C15.25 39.875 15.3542 39.7708 15.4375 39.6875C15.5625 39.5625 15.6667 39.5 15.75 39.5C15.875 39.5 15.9583 39.6042 16 39.8125Z" fill="#FD347D"/>
</svg>
