<svg width="25" height="25" viewBox="0 0 25 25" fill="none" xmlns="http://www.w3.org/2000/svg">
<g clip-path="url(#clip0)">
<path d="M3.09106 19.4663C5.37583 20.9491 10.149 20.8958 12.1704 19.0101C12.605 18.6051 12.2862 16.9117 12.2862 16.406C12.2862 14.8381 12.2862 13.2702 12.2862 11.7023C12.2862 10.359 7.87766 11.0474 6.99381 11.0474C6.9518 11.0474 6.90709 11.0538 6.86131 11.0657C6.78968 11.084 6.64641 11.1217 6.54407 11.1599C6.47459 11.1858 6.41534 11.2192 6.37495 11.2601C5.8121 11.8224 5.85627 13.3057 6.05286 14.0393C6.10672 14.2402 6.3868 14.4314 6.59685 14.4314C8.40227 14.4314 8.71951 16.8859 6.95718 16.8298C3.61135 16.7232 4.00346 11.0781 5.07259 9.12776C6.24514 6.98841 8.36133 8.51913 10.0219 8.50998C10.3192 8.50836 10.5675 8.44696 10.582 8.45235C10.5912 8.45558 10.5998 8.45827 10.6084 8.46097C10.6283 8.46689 10.6477 8.46851 10.666 8.46689C10.6983 8.4642 10.6973 8.44642 10.6639 8.43996C10.6305 8.4335 10.6439 8.41734 10.6935 8.40333C10.7231 8.39472 10.7522 8.3861 10.7813 8.37317C11.3059 8.14696 11.9495 5.78086 11.6447 5.42053C10.9488 4.59969 9.18863 4.61746 8.23476 4.53398C5.13238 4.26144 2.24706 5.30203 0.891386 8.24014C-0.690504 11.6694 -0.28978 17.2731 3.09106 19.4663ZM1.26895 11.1088C1.29157 10.812 1.49409 10.4064 1.70899 10.2007C1.744 10.1673 1.77955 10.1333 1.81456 10.0999C2.02946 9.89474 2.23413 9.60981 2.27453 9.46439C2.31439 9.31843 2.18404 9.37444 1.97452 9.58612C1.89589 9.66583 1.81671 9.74554 1.73808 9.82526C1.52856 10.0369 1.36159 10.1861 1.36428 10.1597C1.36644 10.1436 1.36805 10.1269 1.37021 10.1107C1.44238 9.58342 1.56572 9.07983 1.73915 8.60639C1.84149 8.32685 2.11402 7.93744 2.323 7.72469C2.89878 7.13815 3.47347 6.55537 4.04493 5.97637C4.25445 5.7647 4.64279 5.49162 4.92556 5.39791C5.15877 5.32088 5.4033 5.25841 5.65968 5.21262C5.85735 5.17761 6.05771 5.15176 6.26076 5.13399C6.557 5.10813 6.70511 5.10921 6.59039 5.11675C6.47567 5.12429 6.27584 5.24171 6.14335 5.37475C6.01085 5.50832 6.04047 5.57565 6.21067 5.53471C6.38087 5.49324 6.60224 5.38552 6.70134 5.2848C6.80099 5.18462 7.12307 5.09844 7.42038 5.11083C7.60351 5.11837 7.7861 5.13076 7.96869 5.14691C8.26546 5.17438 8.47929 5.23201 8.44966 5.26056C8.42004 5.29018 8.6064 5.31496 8.86439 5.32358C9.12238 5.33381 9.42239 5.36397 9.5355 5.38659C9.6039 5.4006 9.67176 5.41514 9.73909 5.43022C10.8378 5.67583 10.6203 5.96829 10.38 6.98087C10.1129 8.10764 10.6111 7.80817 9.49725 7.58196C8.79168 7.43815 8.00854 7.4096 7.29166 7.47531C6.44389 7.55341 5.45554 7.72469 4.79737 8.32362C2.9047 10.0455 2.3941 15.1322 4.68372 16.7792C5.77979 17.5677 7.56419 17.844 8.53369 17.0141C8.7599 16.8212 9.05883 16.442 9.27535 16.2385C9.31574 16.2002 9.35614 16.1614 9.39707 16.1232C9.61305 15.9191 9.78864 15.7467 9.78864 15.7365C9.78864 15.7268 9.61682 15.8878 9.40354 16.0957C9.36206 16.1367 9.32059 16.1771 9.27858 16.2185C9.06583 16.4264 8.98881 16.4464 9.06367 16.2444C9.10676 16.1286 9.14123 16.0042 9.16655 15.8695C9.27535 15.2835 9.17948 14.1885 8.50245 13.9747C8.35756 13.9294 8.19275 13.9133 8.02739 13.9014C7.7624 13.8847 7.58681 13.8244 7.63206 13.7819C7.67838 13.7393 7.715 13.6607 7.715 13.6068C7.715 13.553 7.64444 13.5799 7.55719 13.6671C7.47047 13.7544 7.25503 13.7926 7.16562 13.658C7.1193 13.588 7.09345 13.498 7.09345 13.3779C7.09345 13.2513 7.07621 13.0698 7.05898 12.8668C7.03474 12.5851 7.17639 12.2011 7.36114 12.0098C7.54588 11.8197 7.93691 11.6657 8.23422 11.6657C8.49598 11.6657 8.75828 11.6657 9.02005 11.6657C9.3179 11.6657 9.51718 11.7072 9.46602 11.7583C9.41431 11.8095 9.44501 11.8515 9.53442 11.8515C9.62383 11.8515 9.74124 11.8095 9.79618 11.7583C9.85112 11.7072 9.90929 11.6651 9.92652 11.6651C9.93676 11.6651 9.94645 11.6651 9.95722 11.6651C10.1587 11.6651 10.3278 11.6598 10.4711 11.6544C10.7549 11.6452 10.9402 11.7104 10.8863 11.7599C10.8325 11.81 10.8777 11.851 10.9876 11.851C11.0975 11.851 11.2321 12.0319 11.2386 12.2603C11.2418 12.3756 11.2423 12.5129 11.2423 12.6745C11.2423 14.1169 11.2423 15.5587 11.2423 17.0017C11.2423 17.5656 11.2423 18.13 11.2423 18.6945C11.2423 19.7405 8.0651 19.7927 7.26473 19.7803C5.07529 19.7464 3.59573 18.9024 2.64725 17.6141C2.47112 17.3755 2.36986 17.146 2.39733 17.1218C2.42426 17.0965 2.39033 16.9392 2.33162 16.7679C2.27291 16.5966 2.20505 16.4824 2.17273 16.5142C2.15334 16.5342 2.13395 16.5535 2.11456 16.5719C2.10487 16.5826 2.09517 16.5929 2.08548 16.6031C2.06986 16.6203 1.95352 16.4205 1.84957 16.1464C1.74669 15.8727 1.744 15.5792 1.82533 15.4989C1.90666 15.4182 1.96968 15.3357 1.96645 15.3153C1.96321 15.2948 1.91151 15.3255 1.85118 15.3815C1.79086 15.4381 1.72192 15.5027 1.69822 15.5264C1.67506 15.5501 1.61797 15.4456 1.57488 15.291C1.53233 15.137 1.58673 14.9275 1.69014 14.8257C1.79355 14.7234 1.86196 14.4918 1.84795 14.307C1.83395 14.1228 1.72677 14.0749 1.60504 14.2009C1.48278 14.3264 1.35136 14.2386 1.32012 14.0049C1.28888 13.7711 1.39175 13.4565 1.53879 13.3047C1.68583 13.1528 1.80594 12.7887 1.81779 12.4919C1.82102 12.4197 1.82425 12.3486 1.82749 12.2786C1.8431 11.9818 1.72084 11.8838 1.54256 12.0594C1.36482 12.2355 1.21832 12.1375 1.22802 11.8396C1.23663 11.5957 1.2501 11.3522 1.26895 11.1088Z" fill="#F2F2F2"/>
<path d="M17.1072 7.28941C16.9629 4.59045 12.7526 4.97555 12.6179 7.49408C12.5554 8.66016 13.3348 9.27256 14.2612 9.39536C14.5558 9.4336 14.8612 9.42498 14.9409 9.43306C14.9878 9.43899 15.0357 9.44222 15.0853 9.44222C15.0977 9.44222 15.1117 9.4406 15.1235 9.43899C15.1451 9.43522 15.1435 9.42337 15.1219 9.40667C15.0998 9.39051 15.3223 9.34473 15.6029 9.24401C16.3995 8.95747 17.056 8.31922 17.1078 7.36266C17.1083 7.35512 17.1061 7.34973 17.1034 7.34434C17.0986 7.33465 17.0991 7.31849 17.1034 7.3088C17.1056 7.30179 17.1072 7.29587 17.1072 7.28941ZM13.6973 7.61903C13.686 7.57218 13.6757 7.52532 13.6682 7.47846C13.6499 7.36535 13.6494 7.25009 13.6628 7.13537C13.6865 6.94578 13.902 6.64092 14.0959 6.44325C14.2887 6.24559 14.342 6.12602 14.2251 6.19819C14.1088 6.27036 14.1707 6.15941 14.4266 6.05923C14.5741 6.0016 14.7384 5.98059 14.914 6.00914C14.9862 6.02045 15.0535 6.04038 15.1176 6.06515C15.2264 6.1077 15.1386 6.33069 14.9296 6.5429C14.6571 6.82028 14.384 7.09659 14.1115 7.37397C13.9047 7.58618 13.7172 7.69713 13.6973 7.61903ZM15.9578 8.05746C15.7882 8.55136 15.4176 8.94778 14.8133 8.84814C14.7454 8.83683 14.6813 8.81905 14.6199 8.79589C14.5165 8.75657 14.4443 8.70433 14.4513 8.6984C14.4583 8.69194 14.4233 8.60792 14.3856 8.50504C14.349 8.40217 14.2898 8.35369 14.2407 8.40163C14.1923 8.44903 14.0296 8.36447 13.9224 8.1808C13.8152 7.99768 13.9117 7.69606 14.0969 7.52586C14.2822 7.35673 14.5251 6.98994 14.7233 6.76857C14.7998 6.68294 14.8849 6.60484 14.977 6.5359C15.2145 6.35762 15.653 6.43141 15.8054 6.68671C15.8646 6.78742 15.9147 6.89515 15.9535 7.00664C16.0526 7.28671 16.0542 7.77577 15.9578 8.05746Z" fill="#F2F2F2"/>
<path d="M24.4458 17.2396C23.6648 17.14 22.594 16.9703 22.594 16.0046C22.594 15.5215 22.4028 12.8063 23.124 12.8063C23.5775 12.8063 24.198 12.9028 24.5589 12.5392C25.0657 12.027 24.8228 11.1415 24.8228 10.4612C24.8228 9.77452 24.4522 9.67595 23.9546 9.67703C23.6567 9.67757 23.1725 9.63502 22.9355 9.45459C22.0888 8.80664 23.1316 7.62494 22.3899 6.95976C22.0264 6.63444 20.6739 6.8962 20.2479 6.8962C18.5211 6.8962 18.4861 7.22637 18.4861 8.92675C18.4861 9.80468 17.9399 9.92317 17.4315 10.1973C17.1703 10.3395 16.9915 10.3217 16.9155 10.1015C16.8606 9.94095 16.7809 9.82461 16.6661 9.77613C15.9509 9.47398 14.5112 9.67757 13.7356 9.74651C13.0591 9.8063 12.7575 10.0831 12.7575 10.7214C12.7575 12.236 12.7575 13.7521 12.7575 15.2672C12.7575 16.5911 12.3686 18.6276 12.8695 19.8696C13.1043 20.4519 15.9045 20.0393 16.5089 19.8249C17.3809 19.5163 16.9166 17.2148 16.9166 16.4926C16.9166 15.2414 16.9166 13.9902 16.9166 12.7385C16.9166 12.7105 16.9177 12.6782 16.9198 12.6404C16.923 12.5866 17.0986 12.718 17.3593 12.8602C17.9647 13.1914 18.4872 13.144 18.4872 14.3877C18.4872 16.0687 18.2399 17.81 19.2391 19.254C20.2156 20.6662 23.0357 20.51 24.4043 19.9725C25.153 19.6795 25.2284 17.3403 24.4458 17.2396ZM15.0148 19.5966C14.9054 19.5966 14.8052 19.5917 14.7148 19.5836C14.5499 19.5675 14.4201 19.5125 14.4201 19.4861C14.4201 19.4598 14.4034 19.456 14.3835 19.4765C14.363 19.4969 14.2155 19.4818 14.0846 19.3876C13.9542 19.2939 14.0103 19.0536 14.1562 18.9061C14.3022 18.7596 14.4201 18.6255 14.4201 18.6088C14.4201 18.5915 14.2984 18.7052 14.1487 18.863C13.9995 19.0203 13.7803 18.9292 13.7673 18.6405C13.7539 18.3518 13.9192 17.9619 14.0975 17.7718C14.2758 17.5811 14.4201 17.1858 14.4201 16.8874C14.4201 16.806 14.4201 16.7226 14.4201 16.6396C14.4201 16.3423 14.2806 16.2421 14.1088 16.415C13.9375 16.589 13.7975 16.4893 13.7975 16.1909C13.7975 15.7751 13.7975 15.3577 13.7975 14.9414C13.7975 14.6435 13.9375 14.2595 14.1088 14.0839C14.2806 13.9083 14.4201 13.6837 14.4201 13.5819C14.4201 13.4807 14.2806 13.5259 14.1088 13.6827C13.9375 13.8394 13.7975 13.7257 13.7975 13.4274C13.7975 13.1904 13.7975 12.9523 13.7975 12.7153C13.7975 12.4175 13.9375 12.0442 14.1088 11.881C14.2806 11.7178 14.4201 11.5584 14.4201 11.5239C14.4201 11.49 14.2801 11.5993 14.1083 11.7668C13.9365 11.9349 13.7975 11.8304 13.7975 11.5325C13.7975 11.1684 13.7975 10.8038 13.7975 10.4402C13.7975 10.3842 13.7986 10.3379 13.7997 10.2986C13.8018 10.2199 13.9979 10.158 14.2424 10.158C14.3894 10.158 14.5376 10.158 14.6851 10.158C14.8823 10.158 15.0482 10.1526 15.1871 10.1526C15.465 10.1526 15.6277 10.2813 15.5685 10.3401C15.5092 10.3977 15.4963 10.4445 15.541 10.4445C15.5857 10.4445 15.6525 10.4149 15.6913 10.3778C15.7295 10.3417 15.8399 10.4521 15.8598 10.6454C15.8706 10.7435 15.8744 10.8593 15.8744 10.9982C15.8744 12.9221 15.8744 14.846 15.8744 16.7694C15.876 17.8515 16.3861 19.5966 15.0148 19.5966ZM22.0991 19.7732C21.3693 19.7134 20.8339 19.4501 20.4466 19.0542C20.2376 18.8414 20.1574 18.5888 20.2102 18.5371C20.2635 18.4849 20.2883 18.3761 20.2678 18.2926C20.2473 18.2091 20.1789 18.1978 20.11 18.2689C20.04 18.34 19.8725 18.1827 19.7793 17.9C19.7233 17.7319 19.678 17.5552 19.6409 17.3743C19.5822 17.0823 19.692 16.7064 19.8542 16.5389C20.0168 16.3708 20.1493 15.9987 20.1493 15.7062C20.1493 15.4143 20.0103 15.3173 19.8401 15.4897C19.6694 15.662 19.5396 15.6098 19.5552 15.3723C19.5687 15.1353 19.7082 14.8148 19.8655 14.6559C20.0227 14.4976 20.1493 14.3139 20.1493 14.246C20.1493 14.204 20.1493 14.1626 20.1493 14.1227C20.1493 14.1103 20.1482 14.0974 20.1472 14.085C20.1455 14.064 20.0217 14.1776 19.8692 14.3387C19.7173 14.4992 19.6069 14.3882 19.5962 14.0909C19.5951 14.0613 19.5935 14.0322 19.5913 14.0031C19.5762 13.7058 19.5848 13.4058 19.6576 13.3277C19.7308 13.2496 19.727 13.1274 19.6312 13.0859C19.5735 13.0606 19.5116 13.046 19.4475 13.046C19.4373 13.046 19.4265 13.046 19.4168 13.046C19.4001 13.046 19.2935 12.8101 19.0678 12.6168C18.8319 12.4153 18.4969 12.2963 18.0229 12.2963C17.752 12.2963 17.7267 10.5744 18.3315 10.4262C18.6186 10.3551 19.015 10.1472 19.1599 9.8984C19.2051 9.8203 19.2444 9.74436 19.2795 9.66895C19.3376 9.53861 19.5477 9.27469 19.7615 9.08564C19.9753 8.89551 20.1488 8.70269 20.1488 8.65422C20.1488 8.60466 19.9861 8.72208 19.7857 8.91598C19.5854 9.10988 19.4847 9.04094 19.51 8.75386C19.5353 8.46678 19.7017 8.06498 19.9172 7.85923C20.0615 7.72135 20.2037 7.58508 20.3421 7.45204C20.347 7.4472 20.3524 7.44181 20.3577 7.43642C20.3669 7.42781 20.327 7.42134 20.2716 7.42134C20.2156 7.42134 20.0254 7.56084 19.8482 7.73266C19.671 7.90394 19.5278 8.03643 19.5278 8.02889C19.5278 8.02027 19.6608 7.88239 19.8245 7.71919C19.9877 7.55599 19.9829 7.54468 19.8202 7.70034C19.657 7.85654 19.5272 7.92979 19.5267 7.86354C19.5261 7.82476 19.5261 7.7849 19.5261 7.74343C19.5261 7.67341 19.5181 7.61416 19.5057 7.56407C19.4809 7.46766 19.6673 7.40465 19.9646 7.40465C20.2516 7.40465 20.5382 7.40465 20.8258 7.40465C20.9141 7.40465 20.9938 7.40788 21.0622 7.41434C21.1926 7.42619 21.2518 7.4989 21.1974 7.55115C21.143 7.60393 21.1646 7.64648 21.2459 7.64648C21.3272 7.64648 21.414 7.62763 21.4393 7.60501C21.4651 7.58185 21.6127 7.77682 21.5955 8.07414C21.5836 8.28096 21.5518 8.53788 21.5518 8.84865C21.5524 9.65656 21.9456 9.97219 22.656 10.1779C22.7028 10.1946 22.768 10.2049 22.8634 10.2049C24.1425 10.2049 23.7817 10.9875 23.7817 12.0399C23.7817 12.1029 23.7924 12.1546 23.8075 12.195C23.8404 12.2764 23.8242 12.3065 23.7278 12.3011C23.6777 12.2984 23.6196 12.2968 23.5506 12.2968C23.3707 12.2968 23.1946 12.2866 23.0201 12.3383C21.2815 12.8435 21.5535 14.1275 21.5535 15.7558C21.5535 16.2383 21.4 17.1648 21.9439 17.4615C22.2262 17.6161 23.8194 17.8025 23.8194 17.991C23.8172 19.4786 23.9061 19.9213 22.0991 19.7732Z" fill="#F2F2F2"/>
</g>
<defs>
<clipPath id="clip0">
<rect width="25" height="25.0005" fill="white"/>
</clipPath>
</defs>
</svg>
