<svg width="40" height="40" viewBox="0 0 40 40" fill="none" xmlns="http://www.w3.org/2000/svg">
<g clip-path="url(#clip0)">
<path d="M35.1259 21.0408C33.333 19.0051 31.0254 17.3256 29.1251 15.3541C26.7793 12.9204 24.5906 10.3334 22.4004 7.76082C22.0282 7.3236 21.4226 7.45987 21.0336 7.76082C17.5467 10.4577 14.0633 13.1724 10.8016 16.1413C9.37732 17.4378 5.13749 20.6658 5.70555 22.9687C5.70967 22.9852 5.72074 22.9984 5.7279 23.0134C5.22233 24.7553 6.0729 26.852 6.41898 28.5792C6.64747 29.7196 6.87877 30.8584 7.10595 31.9977C6.8881 31.8563 6.53442 32.0938 6.7195 32.3362C6.91218 32.5884 7.11528 32.832 7.31903 33.075C7.67683 34.9155 8.00859 36.7609 8.25661 38.6233C8.32474 39.1358 8.63242 39.5563 9.19592 39.5626C10.5484 39.5782 12.3654 39.8859 14.0763 39.9215C14.2572 40.0345 14.4404 40.0165 14.5721 39.923C15.711 39.9078 16.7771 39.7442 17.5923 39.2562C17.9416 39.0468 18.0215 38.6137 17.8661 38.2906C18.6297 34.2648 18.5118 30.1477 18.4749 26.0637L22.5091 26.0672C22.9691 29.8056 22.7573 33.5856 23.0335 37.339C23.0602 37.7004 23.2507 37.9519 23.4998 38.0947C23.5549 38.3976 23.7409 38.6823 24.0614 38.7927C26.5753 39.6611 29.4267 38.9644 31.9905 38.6304C32.4239 38.5738 32.8049 38.3753 32.9264 37.9179C34.2331 32.9991 34.9751 27.2512 35.1324 22.1574C35.3614 21.8473 35.3991 21.3508 35.1259 21.0408ZM9.7642 19.7204C10.901 21.0636 12.0911 22.3479 13.3305 23.5977C14.3297 24.6051 15.3921 25.8228 16.6367 26.5647C16.6432 27.0675 16.648 27.5715 16.6551 28.074C14.0047 25.6896 10.9068 23.8655 8.52805 21.1857C8.95789 20.693 9.37016 20.1837 9.7642 19.7204ZM9.99637 37.6768C9.89656 36.9885 9.78698 36.3018 9.67003 35.6166C9.77071 35.719 9.87095 35.822 9.97163 35.9244C10.5108 36.4721 11.0496 37.0517 11.597 37.6243C11.0505 37.6456 10.513 37.6668 9.99637 37.6768ZM13.0096 37.5787C12.3183 36.9477 11.5957 36.3432 10.9316 35.7242C10.4199 35.2475 9.9226 34.7571 9.42462 34.2671C9.21046 33.1161 8.97026 31.9702 8.71813 30.8267C9.2979 31.574 9.90567 32.3039 10.5403 33.0293C11.8275 34.5002 13.204 36.2328 14.7604 37.5813C14.1843 37.5618 13.5974 37.5644 13.0096 37.5787ZM16.61 37.5991C13.9834 34.8508 10.9834 32.4141 8.4354 29.5701C8.40112 29.4235 8.37139 29.2759 8.33646 29.1294C8.07521 28.0306 7.88426 26.6565 7.51626 25.3932C8.7318 26.8407 10.0224 28.2285 11.2887 29.6281C12.7878 31.2852 14.4167 33.6993 16.3483 34.8467C16.4622 34.9144 16.5805 34.9194 16.6879 34.8888C16.6736 35.7912 16.6536 36.6941 16.61 37.5991ZM12.322 29.5539C10.4549 27.7277 8.68688 25.8187 6.93063 23.8898C6.77267 23.5845 6.60038 23.2928 6.39186 23.0394C6.96578 22.7658 7.52798 22.2682 8.06978 21.695C10.3403 24.7651 13.8248 26.7136 16.5369 29.3566C16.5798 29.3985 16.6263 29.4204 16.6723 29.4438C16.6924 30.9 16.7081 32.3547 16.6996 33.8104C15.5841 32.2223 13.6757 30.8779 12.322 29.5539ZM16.6191 25.1391C16.6193 25.181 16.6204 25.2227 16.6206 25.2646C15.7395 24.4956 14.7431 23.8153 13.8821 23.0459C12.5659 21.8703 11.3538 20.5652 10.1554 19.2702C10.3169 19.0918 10.4746 18.9263 10.6276 18.7822C10.7517 18.6653 10.8817 18.5546 11.0066 18.4389C12.2365 19.9118 13.6278 21.2437 15.0399 22.5401C15.6227 23.0756 16.2908 23.7993 17.0058 24.4112C16.7775 24.5806 16.6174 24.8386 16.6191 25.1391ZM18.305 24.2146C18.1154 24.0837 17.9221 23.9575 17.734 23.8247C16.8495 23.1978 16.045 22.4271 15.2415 21.7019C13.9376 20.5254 12.6906 19.2826 11.4968 17.9948C11.9674 17.566 12.4476 17.1475 12.928 16.7291C14.129 18.3307 15.5168 19.8092 16.9381 21.2096C17.8105 22.0695 18.9562 23.3811 20.1717 24.2131C19.5494 24.2137 18.9271 24.2141 18.305 24.2146ZM22.0343 24.2113C22.0291 24.2055 22.0272 24.1983 22.0215 24.1922C20.7832 22.8391 18.9065 21.8655 17.5061 20.6409C16.0005 19.324 14.5981 17.9167 13.2604 16.4347C13.5981 16.1433 13.9465 15.8645 14.2881 15.577C16.6037 18.6891 19.4099 21.5312 22.3854 24.2109L22.0343 24.2113ZM31.2361 36.7019C31.1337 37.168 29.7179 37.3153 28.1769 37.3283C28.1085 37.2841 28.0397 37.2394 27.9742 37.1914C27.5524 36.8831 27.1699 36.511 26.7956 36.1477C26.6187 35.9761 25.3279 34.6957 25.4051 34.5412C25.4921 34.3663 25.2615 34.1569 25.1205 34.3214C24.6776 34.838 25.5627 35.7932 25.8482 36.1525C26.1769 36.5667 26.5419 36.9495 26.926 37.3123C26.1407 37.2886 25.4058 37.243 24.8883 37.1997C24.7692 35.0635 24.7518 32.9232 24.6796 30.7867C25.3689 31.5705 26.1348 32.2907 26.9121 32.9863C27.6242 33.6238 28.3359 34.2587 29.0198 34.927C29.6341 35.5269 30.0989 36.2525 30.8527 36.6748C30.9872 36.7503 31.1421 36.7184 31.2491 36.6309C31.2441 36.6548 31.2411 36.6785 31.2361 36.7019ZM31.8888 32.8587C31.7898 32.7958 31.6907 32.7346 31.5985 32.6721C30.744 32.0923 29.8873 31.5152 29.0379 30.9278C28.1111 30.2864 27.185 29.637 26.2987 28.94C25.9786 28.6887 25.3032 28.28 25.1152 27.9193C25.0022 27.7034 24.6286 27.8551 24.7175 28.0868C25.2174 29.3872 26.6944 30.2677 27.7661 31.0929C28.6369 31.7638 29.5245 32.4124 30.4114 33.0612C30.7776 33.3289 31.2367 33.7898 31.7167 34.0328C31.6017 34.7601 31.4761 35.4857 31.3288 36.2076C30.8214 34.7232 29.0602 33.6277 27.8878 32.6797C26.7348 31.7473 25.6414 30.8076 24.6383 29.7441C24.5819 28.4735 24.4984 27.2039 24.3495 25.9387C26.8763 28.1179 29.4675 30.2039 31.9356 32.2572C31.9478 32.2674 31.9613 32.2698 31.9736 32.2787C31.948 32.4723 31.9161 32.6647 31.8888 32.8587ZM32.2435 30.2076C32.2108 30.4621 32.178 30.7167 32.1455 30.9712C26.6233 25.3934 20.0782 21.0193 14.7324 15.2066C15.1668 14.8446 15.613 14.4992 16.0504 14.1412C20.4703 19.8372 27.1859 23.5721 32.4321 28.4668C32.3705 29.0709 32.3139 29.6606 32.2435 30.2076ZM32.5705 27.228C30.4626 24.8642 27.8251 22.9917 25.2875 21.1221C23.6146 19.8895 21.9438 18.6594 20.3343 17.3441C19.5108 16.671 18.7418 15.9397 17.9778 15.2018C17.6938 14.9273 15.8529 13.7537 17.2019 13.9756C17.2993 13.9917 17.3358 13.8628 17.2427 13.8281C17.0771 13.745 16.9116 13.6617 16.746 13.5783C17.561 12.9176 18.3691 12.2467 19.1929 11.6003C20.7535 10.3761 21.075 9.1788 22.3509 10.6877C23.8413 12.4505 25.3609 14.1867 26.9138 15.8946C28.9693 18.1547 31.3209 21.0805 34.1983 22.3084C33.7678 22.8684 33.4554 23.5174 33.2163 24.2115C31.2309 22.1999 28.7592 20.4306 26.743 18.5887C25.2224 17.1993 23.7203 15.7905 22.2073 14.3933C21.3868 13.6356 20.5786 12.5672 19.4958 12.204C19.4279 12.1812 19.3537 12.2547 19.3769 12.3229C20.1832 14.6956 23.6617 17.0461 25.4119 18.7549C27.6683 20.9579 30.0883 23.9349 32.7964 25.8009C32.704 26.2722 32.6309 26.7509 32.5705 27.228Z" fill="#F2F2F2"/>
<path d="M35.6265 15.0124C35.7124 14.8835 35.7784 14.7353 35.7867 14.5441C35.8038 14.1427 35.8379 13.7322 35.8784 13.3175C36.1787 13.2813 36.4116 12.9281 36.1284 12.6538C36.0755 12.6026 36.0201 12.5514 35.9668 12.5002C36.4005 8.86181 37.2736 4.87867 35.4087 1.64542C33.9108 -0.951204 29.8947 0.222886 27.5856 0.540765C27.2202 0.591105 26.9303 1.03353 26.9464 1.38049C27.0301 3.23677 27.021 5.08632 26.9613 6.93935C25.1207 5.17919 23.2835 3.41513 21.4765 1.62112C21.0455 1.19345 20.4705 1.27677 20.0314 1.62112C12.6262 7.42561 5.58275 14.1106 0.218731 21.8818C-0.252555 22.5644 0.816733 23.382 1.36375 22.7652C7.40171 15.9593 13.582 9.40101 20.6903 3.7061C23.6552 6.62451 26.6903 9.47348 29.6784 12.3678C31.6536 14.2807 33.6184 16.2043 35.5478 18.1632C36.2655 18.8916 38.0765 20.4734 38.362 21.049C38.7001 21.7312 39.6029 21.4457 39.8271 20.8575C40.3576 19.4649 37.8237 16.9485 35.6265 15.0124ZM34.2743 3.61388C34.4082 4.01573 34.4971 4.42561 34.5681 4.83831C34.2437 4.60267 33.9156 4.37354 33.6199 4.13507C32.7027 3.39516 31.8052 2.62835 30.938 1.83051C32.4037 1.75109 33.7507 2.04467 34.2743 3.61388ZM34.0156 13.6276C33.5044 13.1947 33.0941 12.8465 32.8682 12.6251C31.3077 11.0974 29.7292 9.58762 28.1502 8.07829C28.2224 7.66711 28.2771 7.25462 28.3283 6.84192C30.3955 8.46278 32.221 10.3271 34.1773 12.0528C34.1102 12.5822 34.0517 13.1084 34.0156 13.6276ZM34.3227 10.9678C32.461 9.28883 30.4498 7.67557 28.388 6.3344C28.4405 5.8399 28.4728 5.34345 28.5073 4.84721C29.3863 5.96705 30.4376 6.97797 31.4286 7.9622C32.2574 8.78522 33.2501 10.0218 34.3795 10.5595C34.3604 10.6955 34.3418 10.8318 34.3227 10.9678ZM28.8526 2.41267C29.2436 3.6473 30.5042 4.61265 31.4047 5.47624C32.1537 6.19423 32.9242 6.89031 33.7004 7.5788C33.9714 7.81921 34.2901 8.17333 34.6356 8.44933C34.6004 8.81972 34.5598 9.19076 34.5128 9.56201C32.4584 7.78102 30.1824 6.06925 28.5742 3.86428C28.605 3.28667 28.6328 2.70885 28.6566 2.12951C29.2355 2.03577 29.8559 1.92815 30.4689 1.86653C30.3966 1.96981 30.3816 2.11172 30.4962 2.23388C31.3079 3.09768 32.1733 3.90811 33.0505 4.70465C33.5643 5.17138 34.1076 5.7594 34.7137 6.17948C34.7265 6.49258 34.7286 6.80743 34.72 7.12379C34.6889 7.09992 34.6557 7.0767 34.6256 7.05261C33.908 6.4724 33.2017 5.87831 32.5022 5.2764C31.5236 4.43429 29.9418 3.37715 29.3243 2.21391C29.1867 1.95592 28.7642 2.13385 28.8526 2.41267Z" fill="#F2F2F2"/>
</g>
<defs>
<clipPath id="clip0">
<rect width="40" height="40" fill="white"/>
</clipPath>
</defs>
</svg>
