<svg width="153" height="146" viewBox="0 0 153 146" fill="none" xmlns="http://www.w3.org/2000/svg">
<path d="M148.497 30.0813C146.718 27.5322 143.939 25.7263 140.783 25.0666L102.656 17.0945C99.5721 16.4496 96.3789 16.953 93.7632 18.4953L15.0828 64.891C9.57312 68.1389 8.07458 75.0248 11.7359 80.2701L41.8562 123.416C45.5174 128.662 52.9521 130.28 58.4626 127.03L137.143 80.6359C139.759 79.0927 141.587 76.6351 142.234 73.7895L150.241 38.6145C150.904 35.7041 150.275 32.6282 148.497 30.0813ZM117.343 63.7709C111.046 67.4857 102.549 65.6358 98.3642 59.6413C94.1796 53.6483 95.8921 45.779 102.19 42.0642C108.487 38.3523 116.983 40.2021 121.168 46.1944C125.352 52.1899 123.64 60.059 117.343 63.7709Z" fill="#931341"/>
</svg>
