<svg width="53" height="53" viewBox="0 0 53 53" fill="none" xmlns="http://www.w3.org/2000/svg">
<g clip-path="url(#clip0)">
<path d="M34.669 28.4772C34.257 28.1372 33.049 28.5632 32.806 28.9772C31.301 31.5382 27.092 26.9542 26.119 26.0172C24.035 24.0102 24.966 22.2862 25.28 20.4762C25.469 19.3882 25.378 18.4312 25.545 18.3032C25.692 18.1892 25.755 18.0772 25.663 17.9962C23.446 16.0472 19.264 8.42619 15.358 12.5272C9.19703 18.9972 17.326 27.6352 22.023 32.0102C25.706 35.4402 30.373 39.8212 35.579 39.4002C35.699 39.3952 35.817 39.3992 35.938 39.3872C36.961 39.2232 37.925 38.9532 38.906 38.4672C45.653 35.1212 37.753 31.0212 34.669 28.4772ZM38.283 37.5792C37.217 37.8672 35.861 37.7542 35.325 37.5262C34.787 37.2982 34.166 37.2782 33.913 37.5332C33.66 37.7882 33.297 37.9942 33.103 37.9922C32.911 37.9912 32.419 37.8902 32.024 37.7222C31.63 37.5542 31.627 37.0822 32 36.7062C32.372 36.3302 32.635 35.9972 32.584 35.9642C32.534 35.9312 32.195 36.2142 31.829 36.6012C31.462 36.9882 30.623 37.0052 29.993 36.5782C29.364 36.1512 29.204 35.4222 29.608 34.9892C30.013 34.5542 29.797 33.7372 29.144 33.1382C28.492 32.5392 27.605 32.4142 27.152 32.8712C26.7 33.3282 25.669 33.0992 24.87 32.3352C24.205 31.7002 23.547 31.0602 22.879 30.4392C22.769 30.3372 22.658 30.2332 22.548 30.1282C22.366 29.9552 22.592 29.4402 23.053 28.9802C23.515 28.5172 23.674 27.9182 23.414 27.6342C23.154 27.3492 22.544 27.4852 22.048 27.9392C21.551 28.3942 20.513 28.1302 19.782 27.3022C19.713 27.2242 19.644 27.1462 19.576 27.0682C18.852 26.2332 18.773 25.0842 19.329 24.5582C19.885 24.0322 20.326 23.5912 20.313 23.5722C20.301 23.5532 19.846 23.9722 19.296 24.5102C18.747 25.0482 17.755 24.7712 17.192 23.8222C16.967 23.4432 16.758 23.0582 16.567 22.6672C16.082 21.6742 16.401 20.2782 17.119 19.6162C17.836 18.9542 18.364 18.0222 18.344 17.5332C18.332 17.2402 18.333 16.9442 18.351 16.6462C18.372 16.3832 18.405 16.1002 18.453 15.8062C18.529 15.3452 17.966 15.5882 17.157 16.3402C17.025 16.4632 16.892 16.5852 16.76 16.7082C15.95 17.4602 15.26 17.6162 15.276 17.0572C15.285 16.7252 15.311 16.3892 15.354 16.0482C15.752 12.8922 18.362 12.4822 20.314 14.6522C20.846 15.2442 21.337 15.8642 21.837 16.4742C22.536 17.3292 23.079 18.0232 23.014 18.1002C22.963 18.1602 22.944 18.2172 22.972 18.2652C24.528 20.9702 21.396 22.9312 23.496 25.8452C24.805 27.6602 27.114 29.3442 29.008 30.4832C30.054 31.1132 31.11 31.1922 32.058 30.8942C33.112 30.5622 34.467 30.4132 35.35 31.0762C36.708 32.0972 38.043 33.1312 39.251 34.4502C40.581 36.0042 40.255 37.0472 38.283 37.5792Z" fill="#F2F2F2"/>
<path d="M27.034 1.11108C17.036 1.38908 8.47002 6.77408 3.95602 15.7151C1.53502 20.5131 1.20301 26.0471 2.07301 31.2611C2.38901 33.1551 3.47101 35.0581 3.21801 37.0321C2.97501 38.9251 2.02002 40.9251 1.33302 42.7101C0.362015 45.2321 -0.187985 47.5501 0.0590151 50.2481C0.105015 50.7491 0.881015 50.7391 1.20702 50.6731C7.29002 49.4101 12.385 47.5691 18.346 49.8991C22.295 51.4421 27.076 51.7731 31.224 50.9541C39.507 49.3191 46.145 44.2711 49.95 36.7351C58.41 19.9761 44.548 1.59908 27.034 1.11108ZM5.38502 16.7101C7.71802 11.1351 12.324 6.88408 17.823 4.55808C18.84 4.12708 19.056 4.47908 18.268 5.25208C14.287 9.16108 10.235 13.1451 6.12702 17.1881C5.34002 17.9621 4.95902 17.7301 5.38502 16.7101ZM47.51 37.6561C43.112 46.3701 33.358 50.6401 23.954 49.6631C23.764 49.6421 23.576 49.6151 23.389 49.5831C23.079 49.5281 22.916 49.3831 23.021 49.2781C23.126 49.1721 22.864 48.9271 22.443 48.7131C22.023 48.5001 21.544 48.4481 21.363 48.6141C21.183 48.7811 20.204 48.5881 19.194 48.1421C17.188 47.2591 15.237 46.3961 13.031 46.7461C11.832 46.9351 10.638 47.1641 9.44802 47.4111C8.36602 47.6351 7.60202 47.0841 7.84602 46.1871C8.09002 45.2921 7.69802 45.1951 6.88902 45.9481C6.42602 46.3791 5.96402 46.8101 5.50102 47.2421C4.69302 47.9951 3.57301 48.7111 2.99801 48.8381C2.42301 48.9631 1.92002 48.1611 2.06902 47.0671C2.36902 44.8561 3.19701 42.7311 3.96201 40.5881C4.33301 39.5471 5.12902 38.1501 5.77602 37.4841C6.16802 37.0801 6.55902 36.6761 6.95002 36.2781C7.46502 35.7471 7.97702 35.2171 8.48902 34.6901C9.25802 33.8971 9.76102 32.8151 9.63502 32.2661C9.51002 31.7171 8.79602 31.8991 8.01202 32.6781C7.60102 33.0861 7.19202 33.4921 6.78502 33.8991C6.00202 34.6781 5.36102 34.4051 5.05202 33.3441C4.86602 32.7071 4.62702 32.0321 4.40202 31.3831C4.04002 30.3401 4.44702 28.8441 5.23402 28.0701C6.08302 27.2311 6.93202 26.3951 7.78002 25.5571C8.56602 24.7821 9.29802 23.2661 9.51502 22.1901C9.73202 21.1141 9.36202 20.9021 8.59302 21.6951C7.36802 22.9571 6.14502 24.2201 4.92202 25.4831C4.15302 26.2761 3.50302 26.1371 3.55502 25.1751C3.60802 24.2131 4.33602 22.7981 5.10702 22.0071C7.24502 19.8161 9.27302 17.7391 11.151 15.8201C11.924 15.0311 13.008 13.6191 13.655 12.7231C15.13 10.6791 16.912 8.87608 18.937 7.37808C19.825 6.72108 21.224 5.62108 22.008 4.84408C22.804 4.05608 23.447 3.42908 23.907 2.99408C23.941 2.96008 23.968 2.93208 23.995 2.90508C24.044 2.85608 24.103 2.81408 24.128 2.81108C24.153 2.80708 23.553 3.45008 22.786 4.24408C22.723 4.30908 22.658 4.37608 22.593 4.44408C21.826 5.23808 21.289 5.83108 21.391 5.76608C21.494 5.70208 22.203 5.01108 22.973 4.21908C22.978 4.21408 22.982 4.20908 22.987 4.20508C23.757 3.41308 24.935 2.69408 25.623 2.63408C26.038 2.59808 26.453 2.57208 26.87 2.56008C26.921 2.56208 26.971 2.56508 27.02 2.56908C27.103 2.57508 26.923 2.83308 26.619 3.14608C26.313 3.45808 26.919 3.43608 27.999 3.20308C28.018 3.19908 28.036 3.19508 28.054 3.19108C29.134 2.96108 30.912 2.97808 31.986 3.23708C46.696 6.78208 54.685 23.4441 47.51 37.6561Z" fill="#F2F2F2"/>
<path d="M8.94202 40.4341C8.49102 40.8851 8.03202 41.3461 7.56202 41.8191C6.78202 42.6001 6.80602 42.6241 7.61302 41.8701C7.99702 41.5131 8.38202 41.1531 8.76702 40.7941C9.57502 40.0401 10.258 39.3371 10.293 39.2241C10.328 39.1081 9.72202 39.6501 8.94202 40.4341Z" fill="#F2F2F2"/>
<path d="M10.524 16.9051C7.113 20.4261 5.691 21.9101 10.414 17.1051C11.189 16.3181 11.838 15.6321 11.865 15.5741C11.892 15.5151 11.293 16.1121 10.524 16.9051Z" fill="#F2F2F2"/>
</g>
<defs>
<clipPath id="clip0">
<rect width="52.5" height="52.5" fill="white"/>
</clipPath>
</defs>
</svg>
