<svg width="40" height="40" viewBox="0 0 40 40" fill="none" xmlns="http://www.w3.org/2000/svg">
<g clip-path="url(#clip0)">
<path d="M40 10.5585C40.0049 10.073 39.6345 9.83204 39.2603 9.83369C38.3405 7.77348 35.1421 7.31536 33.1459 7.07444C31.3196 6.85394 29.484 6.75121 27.6455 6.71862C27.9073 5.52804 27.6614 4.05095 27.6589 2.88079C27.6579 2.45361 27.3184 2.15823 26.9108 2.13266C23.3432 1.90803 19.81 2.41896 16.301 3.01342C15.9854 3.06685 15.7841 3.40884 15.7756 3.70339C15.7453 4.76506 15.7201 5.8032 15.8957 6.83929C11.0102 6.55175 2.62599 5.94924 1.29205 9.5115C1.07836 9.55688 0.889828 9.71797 0.873327 10.0101C0.569493 15.3464 0.799689 20.6921 0.636737 26.0305C0.555261 28.7073 -0.834988 32.8778 0.76813 35.3376C2.43416 37.894 5.26746 37.9524 8.07931 37.9157C13.3639 37.8468 18.6054 37.7002 23.8879 37.451C27.4531 37.2827 30.9004 37.7453 34.452 37.7905C36.1879 37.8126 38.6353 37.6676 39.1609 35.6203C39.8923 32.771 39.0507 29.883 38.9441 27.0105C38.7391 21.4941 39.941 16.0655 40 10.5585ZM17.1611 4.3189C20.1369 3.85294 23.1252 3.4798 26.1377 3.59551C26.0818 4.61324 25.9655 5.75143 26.1732 6.70893C23.6606 6.71244 21.1452 6.82341 18.6415 6.93129C18.2273 6.94923 17.6632 6.93273 16.993 6.89993C16.9682 6.03258 17.0858 5.18089 17.1611 4.3189ZM37.7789 31.0826C37.9369 32.5137 38.1141 34.1736 37.5173 35.5331C37.066 36.5605 34.5433 36.2552 33.6892 36.2472C30.8276 36.221 28.0343 35.8219 25.1635 35.9005C20.9309 36.0166 16.7168 36.4326 12.4807 36.4772C9.06218 36.5135 2.19262 37.6628 1.69345 32.884C1.39271 30.0051 2.16622 27.0196 2.16147 24.1254C2.15425 19.9233 2.18953 15.7078 2.00863 11.5074C2.13136 11.4166 2.22129 11.284 2.22129 11.1068C2.21861 6.47935 15.4107 8.69818 18.6415 8.5637C21.9579 8.4255 25.272 8.30545 28.5919 8.38507C30.2903 8.42591 37.6188 8.25223 37.8962 10.8327C37.9367 11.2087 38.1799 11.4492 38.4655 11.5501C38.2052 18.1358 37.0483 24.4524 37.7789 31.0826Z" fill="#F2F2F2"/>
<path d="M1.95871 10.5619C1.96304 10.5619 1.96304 10.5549 1.95871 10.5549V10.5619Z" fill="#F2F2F2"/>
<path d="M33.5508 10.8108C33.1191 10.5775 32.55 10.8659 32.5572 11.3812C32.5824 13.2493 32.3414 15.3246 32.0601 17.1897C31.9277 18.0678 29.4036 17.4925 28.3392 17.5061C26.4814 17.5294 24.6233 17.706 22.7741 17.8702C19.0631 18.1996 15.3752 18.5989 11.6436 18.5539C9.51453 18.5284 7.21443 18.9943 7.20268 16.3799C7.19339 14.344 7.28725 12.3176 7.15358 10.2842C7.108 9.59198 6.14926 9.60333 6.08718 10.2842C5.82955 13.1064 5.55108 15.951 5.48797 18.7845C5.47992 19.1472 5.75343 19.5358 6.11812 19.6121C9.54114 20.3283 12.9704 20.3466 16.4045 20.1449C16.3742 20.4465 16.341 20.748 16.2902 21.0457C16.2059 21.5382 16.4971 22.0277 17.0402 22.0298C18.966 22.0382 20.8851 22.0263 22.7984 21.7827C23.2516 21.7249 23.5785 21.4594 23.6031 20.978C23.6167 20.709 23.6534 20.4415 23.6866 20.1744C23.7009 20.0593 23.7565 19.7542 23.7904 19.5465C26.7479 19.307 29.7078 19.1513 32.6696 19.3831C33.0442 19.4124 33.4248 19.0962 33.5114 18.7423C33.8866 17.206 35.3109 11.7617 33.5508 10.8108ZM22.0711 19.6917C22.0439 19.8831 22.028 20.076 22.0183 20.2625C20.5885 20.4215 19.1506 20.4588 17.7127 20.4691C17.6972 20.3338 17.6805 20.1989 17.6671 20.0636C19.1345 19.9572 20.6023 19.8215 22.0711 19.6917Z" fill="#F2F2F2"/>
</g>
<defs>
<clipPath id="clip0">
<rect width="40" height="40" fill="white"/>
</clipPath>
</defs>
</svg>
