<svg width="25" height="25" viewBox="0 0 25 25" fill="none" xmlns="http://www.w3.org/2000/svg">
<g clip-path="url(#clip0)">
<path d="M23.4263 10.3793C22.037 8.98911 20.6473 7.59896 19.2584 6.20923C18.4293 5.37969 17.6204 4.23953 16.5227 3.78331C16.5177 3.7812 16.5105 3.78204 16.505 3.78036C16.4916 3.76942 16.4617 3.76184 16.4049 3.76184C13.8813 3.76184 11.3569 3.76184 8.83291 3.76184C8.42171 3.76184 7.77272 3.78583 7.49831 4.12043C6.64183 5.16251 8.16708 6.10612 8.86195 6.80182C9.39604 7.33591 9.92971 7.87043 10.4638 8.40452C10.7538 8.69534 11.4432 8.85317 11.2361 8.85317C9.91161 8.85317 8.58712 8.85317 7.26262 8.85317C5.25462 8.85317 2.58922 8.35107 0.648985 9.03288C-0.111116 9.29972 0.00714973 10.0973 0.00714973 10.7366C0.00714973 12.2416 0.00714973 13.7463 0.00714973 15.2522C0.00714973 16.9479 4.48568 16.2075 5.4537 16.2075C6.92045 16.2075 8.3872 16.2075 9.85395 16.2075C11.3969 16.2075 10.5353 16.708 9.70201 17.543C8.74578 18.5001 5.48779 21.2328 8.71043 21.2328C10.4634 21.2328 12.2159 21.2328 13.968 21.2328C15.0614 21.2328 15.8998 21.3136 16.9032 20.8978C17.5745 20.6196 18.2306 19.6259 18.7277 19.128C20.1242 17.7303 21.521 16.3325 22.9179 14.9348C23.4314 14.4205 24.6082 13.641 24.8922 12.9542C25.3649 11.8111 24.1797 11.1326 23.4263 10.3793ZM20.7752 9.33676C20.8476 9.21891 20.9204 9.10065 20.9933 8.9828C21.0665 9.05603 21.1393 9.12884 21.2125 9.20208C20.6393 10.3582 20.0467 11.5038 19.4289 12.6364C19.3173 12.8401 19.2908 12.8283 19.3733 12.6107C19.6953 11.7602 20.0421 10.9201 20.3931 10.0847C20.4827 9.87043 20.6536 9.53499 20.7752 9.33676ZM17.4331 6.33423C17.537 6.12969 17.6414 5.9243 17.7458 5.71975C17.7504 5.71091 17.7504 5.69997 17.7546 5.69071C17.8674 5.81403 17.9785 5.93566 18.0896 6.05603C18.0139 6.10317 17.9259 6.14694 17.8451 6.17809C17.7193 6.22607 17.617 6.27952 17.5833 6.31529C17.5236 6.37842 17.4676 6.4445 17.4116 6.511C17.3178 6.62085 17.3274 6.54172 17.4331 6.33423ZM16.4562 4.45923C16.4676 4.46765 16.4802 4.47438 16.4912 4.4828C16.2626 4.85022 16.0332 5.21765 15.8051 5.58549C15.6831 5.78331 15.6822 5.78246 15.8013 5.58255C16.024 5.21049 16.2424 4.83634 16.4562 4.45923ZM13.947 4.07497C14.1667 4.07497 14.3868 4.07497 14.6065 4.07497C14.524 4.12758 14.4486 4.1865 14.3973 4.25384C14.0219 4.75006 13.6469 5.24627 13.2782 5.74795C13.1401 5.93482 13.1157 5.92009 13.2214 5.71302C13.4609 5.2429 13.6961 4.7711 13.928 4.29677C13.9693 4.21176 13.9684 4.1381 13.947 4.07497ZM9.45328 4.28625C9.22011 4.70418 8.98695 5.12211 8.75252 5.5392C8.73905 5.56361 8.73442 5.59223 8.72558 5.61874C8.58249 5.46091 8.4457 5.29677 8.32617 5.13642C8.3308 5.12969 8.33543 5.12548 8.34006 5.11832C8.51725 4.83549 8.69612 4.55351 8.87541 4.27236C8.92339 4.19745 8.93644 4.13179 8.93223 4.07455C9.17381 4.07455 9.41498 4.07455 9.65698 4.07455C9.57238 4.13558 9.49789 4.20629 9.45328 4.28625ZM11.1654 7.93735C10.713 7.46049 10.1473 7.02363 9.72979 6.62632C9.74747 6.60654 9.76809 6.59265 9.78282 6.5674C10.239 5.79509 10.7045 5.02952 11.1839 4.2732C11.2311 4.19787 11.2395 4.13221 11.2285 4.07497C11.8956 4.07497 12.5627 4.07497 13.2298 4.07497C13.1473 4.1381 13.0745 4.2126 13.0328 4.29719C12.4377 5.5232 11.8102 6.73448 11.1654 7.93735ZM0.806392 11.7004C1.13299 10.9218 1.476 10.1503 1.83838 9.38895C1.87878 9.30393 1.88005 9.22943 1.86068 9.1663C2.1271 9.1663 2.39351 9.1663 2.65951 9.1663C2.57617 9.22733 2.50168 9.29846 2.45791 9.38011C1.87037 10.4735 1.30808 11.5788 0.775247 12.6991C0.797554 12.3835 0.819439 12.1297 0.819439 12.0076C0.819439 11.9327 0.813968 11.8262 0.806392 11.7004ZM0.774826 14.716C1.54292 12.8927 2.41834 11.1225 3.35143 9.38011C3.3952 9.29846 3.39772 9.22733 3.38005 9.16588C3.92803 9.16588 4.47558 9.16588 5.02314 9.16588C4.93939 9.22396 4.86321 9.29046 4.81565 9.36664C3.5787 11.3368 2.2925 13.2694 0.835432 15.0788C0.809338 14.9655 0.790399 14.8431 0.774826 14.716ZM2.94738 15.894C2.4718 15.894 1.99579 15.894 1.5202 15.894C1.37205 15.894 1.25126 15.8405 1.15193 15.7467C1.17845 15.724 1.20833 15.7046 1.23021 15.6785C2.89646 13.7008 4.33333 11.5565 5.70917 9.36622C5.75504 9.29214 5.76346 9.22733 5.75336 9.17051C6.05639 9.17767 6.37626 9.19576 6.70833 9.21765C6.65403 9.26563 6.60648 9.31782 6.57407 9.37463C5.37289 11.4756 4.16877 13.5741 2.98063 15.6827C2.9356 15.7639 2.93181 15.8338 2.94738 15.894ZM6.67213 15.894C6.03829 15.894 5.40446 15.894 4.77062 15.894C4.62499 15.894 4.47979 15.894 4.33417 15.894C4.41792 15.8347 4.49326 15.7673 4.53998 15.6907C5.78998 13.6141 6.96801 11.4891 8.16371 9.37674C8.1755 9.35527 8.17592 9.33676 8.1835 9.31655C8.9638 9.35822 9.74915 9.36495 10.4688 9.261C10.4373 9.29846 10.4066 9.33718 10.3834 9.37884C9.70243 10.6166 9.00673 11.8473 8.30218 13.0746C7.75925 13.9386 7.23063 14.8111 6.71085 15.6886C6.66371 15.7665 6.65824 15.8347 6.67213 15.894ZM8.65698 15.894C8.26346 15.894 7.87036 15.894 7.47685 15.894C7.5606 15.8338 7.63552 15.7648 7.68097 15.6861C8.18686 14.8077 8.69318 13.9298 9.19781 13.0506C11.0934 10.032 13.1271 7.10107 15.2698 4.25469C15.3207 4.18693 15.3337 4.12758 15.3312 4.07497C15.4861 4.07497 15.6414 4.07497 15.7963 4.07497C15.8034 4.07792 15.8098 4.08255 15.8169 4.08507C15.7677 4.144 15.7184 4.21092 15.6763 4.28667C13.9402 7.41462 11.8506 10.3557 10.0185 13.4251C9.57154 14.1747 9.13131 14.9298 8.69275 15.6861C8.6473 15.7656 8.64225 15.8347 8.65698 15.894ZM9.61068 15.6916C9.56355 15.769 9.55681 15.8355 9.56902 15.8936C9.50294 15.8936 9.43644 15.8936 9.36994 15.8936C9.4537 15.8334 9.52903 15.7644 9.57449 15.6861C10.2988 14.4352 11.0316 13.1916 11.7858 11.963C12.8283 10.2656 13.9284 8.60275 14.9827 6.91504C15.1061 6.71807 15.1065 6.71807 14.9853 6.9163C13.1906 9.84012 11.4053 12.7686 9.61068 15.6916ZM10.3152 15.8763C10.388 15.8216 10.4545 15.7614 10.497 15.692C12.6789 12.1373 14.8438 8.57203 17.0345 5.02236C17.045 5.00553 17.0484 4.98575 17.0572 4.96765C17.1002 5.00889 17.1439 5.04846 17.1864 5.09097C17.1768 5.10485 17.1641 5.11327 17.1557 5.12969C15.6881 8.01689 14.202 10.8948 12.6351 13.7244C12.2222 14.4618 11.8085 15.1953 11.3834 15.9125C11.0429 15.8443 10.673 15.8578 10.3152 15.8763ZM8.42676 20.697C7.9478 20.4748 7.83964 20.0632 8.58417 19.3191C9.03366 18.8692 9.6755 18.3658 10.271 17.8288C10.2428 17.878 10.2134 17.926 10.186 17.9765C10.0168 18.2593 9.84722 18.543 9.6755 18.8241C9.26094 19.4491 8.84385 20.0733 8.42676 20.697ZM9.63215 20.9298C9.55513 20.9247 9.47937 20.9201 9.40403 20.9125C9.48358 20.8515 9.55471 20.7816 9.59637 20.7017C10.0025 19.9226 10.4209 19.1499 10.8506 18.3814C12.5652 15.7892 14.2706 13.1894 15.9895 10.599C16.1183 10.4054 16.1481 10.4205 16.0526 10.6331C15.8544 11.0758 15.6469 11.5131 15.4293 11.9453C13.9045 14.5261 12.3304 17.075 10.5951 19.5198C10.2954 19.9281 9.99368 20.3334 9.69149 20.7378C9.6372 20.8107 9.62457 20.8746 9.63215 20.9298ZM13.3342 21.0228C12.6153 20.9748 11.9672 20.9184 11.6612 20.9184C11.3859 20.9184 10.8796 20.947 10.3312 20.9479C10.4335 20.8898 10.5265 20.8191 10.5867 20.7383C10.8864 20.3372 11.1822 19.9331 11.4722 19.5257C13.2997 17.0417 15.0497 14.4963 16.4217 11.761C17.3316 10.2181 18.226 8.66504 19.1271 7.1158C19.5194 7.50805 19.9112 7.90031 20.3034 8.29299C20.2546 8.4142 20.2054 8.53625 20.1549 8.65788C19.7912 9.36075 19.4167 10.0594 19.04 10.7555C17.0711 14.0413 15.1616 17.3624 13.2929 20.7071C13.2163 20.8443 13.242 20.9592 13.3342 21.0228ZM17.5353 15.213C17.3834 15.6469 17.2285 16.0809 17.0745 16.5139C16.9958 16.7332 16.8333 17.0708 16.7087 17.2669C16.2395 18.0059 15.7475 18.7479 15.2289 19.4782C15.0951 19.668 15.0707 19.6533 15.178 19.4474C15.75 18.3477 16.3295 17.2505 16.9284 16.1625C17.1086 15.8363 17.2887 15.5097 17.4693 15.1836C17.5825 14.9807 17.6119 14.9937 17.5353 15.213ZM15.8434 19.9479C15.7546 20.192 15.6658 20.4357 15.577 20.6793C15.5093 20.8645 15.5816 21.0131 15.7323 21.056C15.3468 21.0998 14.827 21.0973 14.2807 21.075H14.412C14.6444 21.075 14.9499 20.9277 15.093 20.7446C15.3123 20.4626 15.5274 20.1781 15.7395 19.8923C15.8767 19.705 15.9226 19.7294 15.8434 19.9479ZM16.9002 20.2955C16.7517 20.4445 16.6031 20.5926 16.4541 20.7416C16.4642 20.7164 16.4743 20.6924 16.4844 20.665C16.9099 19.4912 17.3359 18.3174 17.7571 17.1419C17.8359 16.9226 18.0017 16.5872 18.1267 16.3915C19.4777 14.2732 20.6974 12.0699 21.8295 9.82118C21.872 9.86369 21.9141 9.90578 21.9562 9.94829C20.2083 13.3628 18.5539 16.8288 16.9002 20.2955ZM22.6683 13.0413C22.2496 13.9315 21.8502 14.8304 21.4583 15.7341C20.7521 16.4403 20.0467 17.1461 19.3413 17.8523C19.1006 18.0926 18.8594 18.3338 18.6191 18.575C19.9053 15.8835 21.1995 13.1966 22.5484 10.5392C22.6608 10.6516 22.7727 10.7635 22.8851 10.8759C23.0783 11.0691 23.2643 11.2509 23.4305 11.4277C23.1763 11.9655 22.9213 12.5038 22.6683 13.0413Z" fill="#F2F2F2"/>
</g>
<defs>
<clipPath id="clip0">
<rect width="25" height="25" fill="white"/>
</clipPath>
</defs>
</svg>
