<?xml version="1.0" encoding="iso-8859-1"?>
<!-- Generator: Adobe Illustrator 16.0.0, SVG Export Plug-In . SVG Version: 6.00 Build 0)  -->
<!DOCTYPE svg PUBLIC "-//W3C//DTD SVG 1.1//EN" "http://www.w3.org/Graphics/SVG/1.1/DTD/svg11.dtd">
<svg version="1.1" id="Capa_1" xmlns="http://www.w3.org/2000/svg" xmlns:xlink="http://www.w3.org/1999/xlink" x="0px" y="0px"
	 width="49.949px" height="49.949px" viewBox="0 0 49.949 49.949" style="enable-background:new 0 0 49.949 49.949;"
	 xml:space="preserve">
<g>
	<g>
		<path d="M16.154,33.595c0.359-0.42,0.806-0.404,1.127,0.046c3.303,4.625,9.781,3.058,14.376-0.357
			c0.442-0.329,1.116-0.315,1.544,0.035c3.813,3.11,8.529,4.462,13.078,1.88c6.53-3.707,3.536-13.292-2.668-15.031
			c-0.532-0.149-1.026-0.226-1.09-0.229c-0.032-0.002-0.071-0.002-0.117,0c-3.396,0.155-6.389,1.522-8.794,3.766
			c-0.404,0.377-1.01,0.373-1.413-0.005c-2.172-2.032-4.993-3.33-7.709-3.535c-0.551-0.042-0.985-0.04-0.966-0.06
			c0.018-0.02-0.242-0.023-0.581,0.019c-0.209,0.026-0.412,0.061-0.61,0.102c-1.83,0.31-3.488,1.177-4.742,2.737
			c-0.346,0.431-0.774,0.41-1.094-0.04c-1.834-2.592-5.05-3.217-8.136-2.161c-0.522,0.179-0.86-0.072-0.778-0.618
			c0.077-0.506,0.154-1.012,0.23-1.518c0.083-0.546,0.599-0.989,1.15-0.989c2.312,0,4.624,0,6.936,0c0.316,0,1.598-0.16,1.598-0.634
			c0-1.229,0-2.458,0-3.688c0-0.113-0.287-0.116-0.334-0.116c-4.125,0-8.25,0-12.375,0c-0.307,0-1.5,0.141-1.583,0.553
			c-0.833,4.146-1.666,8.291-2.5,12.438c-0.037,0.187,0.174,0.196,0.319,0.196c1.396,0,2.792,0,4.188,0
			c0.364,0,1.425-0.127,1.583-0.553c1.587-4.267,5.152,0.322,5.401,2.334c0.5,4.043-4.943,4.873-5.699,1.022
			c-0.022-0.115-0.265-0.116-0.334-0.116c-1.521,0-3.042,0-4.562,0c-0.298,0-1.622,0.168-1.598,0.635
			C0.413,37.667,11.73,38.759,16.154,33.595z M4.608,15.876c0.064-0.315,0.127-0.631,0.19-0.946
			c0.109-0.542,0.644-0.981,1.197-0.981c0.114,0,0.229,0,0.344,0c0.553,0,0.684,0.315,0.292,0.704c-0.504,0.501-1.008,1-1.51,1.499
			C4.728,16.541,4.499,16.417,4.608,15.876z M4.123,19.617c-0.03-0.531,0.267-1.273,0.662-1.658c1.1-1.069,2.224-2.163,3.362-3.273
			c0.396-0.386,1.163-0.714,1.715-0.724c0.747-0.014,1.491-0.014,2.235-0.014c0.9,0,1.801,0,2.702,0
			c0.553,0,0.759,0.359,0.726,0.911c-0.018,0.312-0.021,0.672-0.016,1.026c0.009,0.553-0.416,1-0.969,1c-1.753,0-3.507,0-5.261,0
			c-0.552,0-0.982-0.08-0.963-0.179c0.02-0.099-0.047-0.1-0.148-0.001c-0.103,0.099-0.109,0.079-0.003-0.032
			s0.086-0.116-0.039-0.001C8,16.787,7.862,16.885,7.812,16.885c-0.029,0-0.059,0-0.089,0c-0.374,0-1.523,0.145-1.598,0.634
			c-0.032,0.213-0.065,0.426-0.097,0.639c-0.054,0.352-0.3,0.835-0.549,1.076c-0.148,0.143-0.297,0.288-0.45,0.435
			c-0.408,0.419-0.274,0.301,0.202-0.155c0.383-0.367,0.379-0.346-0.014,0.043C5.109,19.664,5,19.772,4.891,19.879
			C4.499,20.266,4.153,20.147,4.123,19.617z M4.318,23.24c-0.025-0.527,0.25-1.262,0.621-1.641c0.37-0.379,0.619-0.341,0.555,0.086
			c-0.039,0.258-0.078,0.515-0.117,0.772c-0.028,0.188,0.389,0.13,0.834,0.012c0.488-0.13,0.55,0.028,0.161,0.421
			c-0.451,0.455-0.902,0.91-1.354,1.366c-0.388,0.392-0.69,0.54-0.678,0.326c0.01-0.177,0.015-0.309,0.015-0.387
			C4.354,24.073,4.342,23.736,4.318,23.24z M11.476,24.158c-1.893-0.934-4.329-0.853-5.75,0.667
			c-0.377,0.404-0.777,0.812-1.019,0.812c-0.242,0-0.432-0.082-0.425-0.184c0.008-0.102,0.343-0.486,0.746-0.863
			c0.459-0.429,0.916-0.86,1.373-1.292c0.401-0.379,0.751-0.802,0.779-0.942c0.028-0.143,0.408-0.531,0.892-0.798
			c1.026-0.567,1.988-0.751,2.864-0.65c0.549,0.062,0.809,0.393,0.609,0.589c-0.199,0.196-0.373,0.438-0.388,0.538
			c-0.016,0.101,0.252-0.031,0.623-0.258c0.371-0.226,1.088-0.172,1.512,0.182c1.285,1.069,2.187,2.794,2.55,4.528
			c0.004,0.019,0.015,0.032,0.029,0.045c0.023,0.021-0.271,0.351-0.663,0.738c-0.109,0.108-0.219,0.218-0.328,0.325
			c-0.392,0.39-0.681,0.253-0.795-0.287c-0.084-0.399-0.226-0.772-0.414-1.116c-0.266-0.483-0.286-1.102,0.072-1.456
			c0.359-0.354,0.633-0.641,0.611-0.642c-0.013-0.001-0.025-0.002-0.038-0.002c-0.304,0.006-0.581,0.029-0.837,0.065
			c-0.46,0.066-0.894,0.256-0.985,0.35C12.405,24.601,11.972,24.402,11.476,24.158z M6.648,32.392c0.19,0.18,0.322,0.297,0.35,0.31
			c1.551,0.789,5.226,0.095,6.201-1.485c0.104-0.17,0.198-0.336,0.282-0.502c0.145-0.281,0.555-0.842,0.938-1.238
			c0.476-0.491,0.951-0.982,1.425-1.467c0.342-0.353,0.681-0.702,1.02-1.053c0.385-0.396,0.751-0.748,0.81-0.799
			c0.044-0.037,0.075-0.072,0.085-0.107c0.387-1.339,0.968-2.354,1.681-3.093c0.383-0.397,0.712-0.607,0.657-0.553
			c-0.055,0.054,0.028,0.244,0.171,0.437c0.143,0.191,0.557,0.035,0.941-0.36c0.104-0.107,0.208-0.215,0.312-0.322
			c0.385-0.396,1.138-0.81,1.689-0.828c3.044-0.103,6.517,1.869,8.525,4.504c0.322,0.422,1.659-0.1,1.917-0.438
			c1.534-2.012,3.867-4.031,6.446-4.572c0.54-0.113,1.377-0.081,1.844,0.029c0.467,0.11,0.798,0.278,0.753,0.323
			c-0.046,0.045-0.02,0.051,0.061,0.018c0.078-0.034,0.567,0.083,1.06,0.335c2.088,1.073,3.348,2.964,3.778,5.186
			c0.105,0.543-0.178,1.312-0.562,1.707c-0.822,0.844-1.645,1.688-2.468,2.529c-0.387,0.396-0.578,0.773-0.424,0.836
			c0.153,0.061,0.597-0.216,0.984-0.607c0.654-0.661,1.299-1.312,1.932-1.952c0.389-0.394,0.707-0.265,0.656,0.286
			c-0.067,0.718-0.208,1.447-0.428,2.177c-0.898,2.995-2.992,3.947-5.34,3.794c-0.552-0.036-0.863-0.252-0.705-0.406
			s0.186-0.339,0.059-0.41c-0.126-0.072-0.383,0.022-0.571,0.217c-0.189,0.195-0.779,0.248-1.303,0.072
			c-0.261-0.089-0.52-0.186-0.775-0.289c-0.512-0.209-0.644-0.684-0.312-1.022c0.33-0.341,0.352-0.812,0.056-1.063
			c-0.295-0.254-0.841-0.15-1.229,0.24c-0.008,0.01-0.017,0.018-0.023,0.024c-0.39,0.393-1.09,0.483-1.546,0.172
			c-0.759-0.517-1.435-1.068-1.979-1.606c-0.314-0.312-1.527,0.156-1.783,0.407c-2.102,2.075-4.518,3.343-6.776,3.617
			c-0.548,0.065-0.903-0.038-0.787-0.154c0.115-0.114,0.051-0.327-0.133-0.485c-0.185-0.157-0.536-0.101-0.8,0.144
			c-0.263,0.243-0.92,0.36-1.437,0.165c-1.82-0.689-3.312-2.303-4.105-5.005c-0.021-0.072-0.092-0.114-0.192-0.136
			c-0.135-0.025-0.134-0.117,0.006-0.248c0.14-0.131,0.261-0.279,0.267-0.334c0.005-0.055-0.142,0.056-0.329,0.242
			c-0.188,0.188-0.687,0.381-1.082,0.543c-0.318,0.129-0.574,0.297-0.601,0.449c-0.027,0.159-0.06,0.313-0.098,0.465
			c-0.062,0.254-0.177,0.506-0.239,0.568c-0.061,0.062-0.063,0.068-0.004,0.012c0.06-0.056-0.016,0.332-0.26,0.826
			c-1.169,2.377-3.607,3.393-6.087,3.275c-0.552-0.026-0.829-0.262-0.625-0.453c0.203-0.191,0.194-0.458-0.01-0.61
			c-0.204-0.153-0.574-0.061-0.841,0.224c-0.267,0.283-0.916,0.394-1.424,0.176c-0.03-0.014-0.06-0.026-0.091-0.039
			c-0.505-0.225-0.569-0.773-0.178-1.164c0.071-0.071,0.143-0.143,0.215-0.214c0.392-0.39,0.695-0.726,0.679-0.75
			c-0.018-0.025-0.346,0.272-0.735,0.664c-0.081,0.082-0.163,0.163-0.245,0.245c-0.389,0.393-0.896,0.595-1.122,0.436
			c-0.225-0.159-0.08-0.617,0.31-1.008c0.165-0.165,0.331-0.331,0.496-0.496C5.996,32.382,6.462,32.214,6.648,32.392z M3.696,32.492
			c0.036-0.422,0.322-1.025,0.638-1.353c0.316-0.326,0.746-0.372,0.977-0.114c0.229,0.257,0.113,0.779-0.271,1.176
			c-0.173,0.18-0.346,0.356-0.519,0.534c-0.384,0.397-0.74,0.675-0.795,0.621C3.671,33.3,3.659,32.914,3.696,32.492z"/>
		<path d="M39.982,32.429c0.078,0.01,0.113,0.019,0.15,0.021c0.029,0.002,0.071-0.002,0.117-0.008c0.03-0.001,0.056,0,0.09-0.002
			c1.885-0.107,3.67-0.782,4.713-2.425c0.499-0.786,0.617-1.646,0.463-2.46c-0.104-0.542,0.002-1.27,0.388-1.664
			c0.099-0.102,0.197-0.202,0.296-0.303c0.386-0.396,0.408-0.821,0.036-0.889c-0.216-0.038-0.442-0.06-0.682-0.06
			c-0.05,0-0.101,0.004-0.15,0.01c-0.083,0.01-0.331,0.202-0.555,0.427c-0.225,0.225-0.639,0.151-0.979-0.1
			c-0.204-0.151-0.423-0.284-0.653-0.395c-3.049-1.451-6.233,1.162-8.121,3.529c-0.346,0.433-0.603,0.82-0.606,0.843
			s0.28,0.385,0.664,0.78C36.467,31.097,38.085,32.242,39.982,32.429z M37.626,27.033c0.467-0.52,0.981-0.988,1.523-1.428
			c1.392-1.129,3.008-0.255,3.899,0.98c0.98,1.358,0.691,3.875-0.781,4.783c-0.471,0.29-1.392,0.289-1.913,0.111
			c-1.315-0.448-2.464-1.49-3.413-2.436c-0.129-0.127-0.56-0.461-0.469-0.59C36.826,27.958,37.22,27.488,37.626,27.033z"/>
		<path d="M22.869,32.261c0.533,0.142,1.003,0.175,1.027,0.178c0.014,0.001,0.028,0.003,0.044,0.004
			c0.023,0.002,0.047,0.008,0.07,0.009c0.026,0.003,0.06-0.001,0.1-0.006c0.035-0.001,0.065-0.001,0.107-0.004
			c0.774-0.056,1.514-0.239,2.217-0.519c0.514-0.203,1.003-0.354,1.124-0.282c0.12,0.073,0.345,0,0.493-0.148
			c0.089-0.089,0.178-0.178,0.268-0.269c0.457-0.465,0.912-0.934,1.368-1.397c0.356-0.329,0.693-0.676,1.013-1.034
			c0.494-0.506,0.988-1.011,1.482-1.516c0.387-0.395,0.661-0.752,0.611-0.799c-0.048-0.047-0.419,0.215-0.827,0.586
			c-0.173,0.154-0.344,0.311-0.513,0.464c-0.409,0.371-1.002,0.31-1.356-0.114c-0.103-0.123-0.205-0.242-0.311-0.359
			c-0.367-0.413-0.364-1.032,0.036-1.412c0.015-0.014,0.028-0.026,0.042-0.04c0.401-0.38,0.687-0.706,0.637-0.728
			c-0.049-0.022-0.406,0.273-0.8,0.656c-0.392,0.384-0.914,0.492-1.178,0.256c-0.158-0.143-0.32-0.28-0.485-0.416
			c-1.623-1.316-3.359-1.272-5.265-0.655c-1.857,0.603-3.018,2.315-2.916,4.242C19.956,30.753,21.309,31.845,22.869,32.261z
			 M22.816,25.564c1.201-1.303,2.825-0.018,3.732,0.719c0.933,0.756,1.731,1.712,2.427,2.688c0.233,0.332-1.682,1.574-2.922,2.268
			c-0.481,0.27-1.349,0.426-1.87,0.244c-1.435-0.498-2.325-1.799-2.411-3.423C21.723,27.125,22.204,26.227,22.816,25.564z"/>
	</g>
</g>
<g>
</g>
<g>
</g>
<g>
</g>
<g>
</g>
<g>
</g>
<g>
</g>
<g>
</g>
<g>
</g>
<g>
</g>
<g>
</g>
<g>
</g>
<g>
</g>
<g>
</g>
<g>
</g>
<g>
</g>
</svg>
