<?xml version="1.0" encoding="iso-8859-1"?>
<!-- Generator: Adobe Illustrator 16.0.0, SVG Export Plug-In . SVG Version: 6.00 Build 0)  -->
<!DOCTYPE svg PUBLIC "-//W3C//DTD SVG 1.1//EN" "http://www.w3.org/Graphics/SVG/1.1/DTD/svg11.dtd">
<svg version="1.1" id="Capa_1" xmlns="http://www.w3.org/2000/svg" xmlns:xlink="http://www.w3.org/1999/xlink" x="0px" y="0px"
	 width="54.542px" height="54.542px" viewBox="0 0 54.542 54.542" style="enable-background:new 0 0 54.542 54.542;"
	 xml:space="preserve">
<g>
	<g>
		<path d="M47.654,11.463C43.07,5.231,33.73,3.97,27.576,0.112c-0.423-0.265-1.22-0.02-1.545,0.303
			c-1.022,1.02-4.004,1.622-5.361,2.277c-1.454,0.703-2.812,1.567-4.162,2.448c-2.832,1.846-5.398,4.184-8.043,6.288
			c-3.514,2.796-3.94,7.349-1.672,11.12c2.997,4.984,11.227,9.238,16.791,10.083c5.146,0.779,9.929-3.894,14.511-6.49
			c0.961-0.545,1.908-0.008,2.027,1.09c0.158,1.441,0.27,2.883,0.266,4.349c-0.004,1.949-5.158,5.345-6.625,6.554
			c-0.727,0.706-1.445,1.418-2.158,2.137c-3.316,3.317-6.436-0.239-8.533-1.967c-2.29-1.887-4.58-3.771-6.87-5.658
			c-0.509-0.419-1.426-0.122-1.798,0.352c-2.216,2.817-5.502,4.488-7.167,7.732c-0.11,0.215-0.08,0.39,0.138,0.516
			c3.755,2.162,6.416,5.695,10.015,8.098c2.277,1.519,4.793,2.525,6.946,4.254c0.702,0.562,1.39,0.906,2.294,0.94
			c5.262,0.203,12.139-5.173,15.836-8.302c0.926-0.784,5.605-4.179,5.68-5.208c0.189-2.672,0.336-5.346,0.459-8.021
			c0.193-4.225-0.076-8.458,0.133-12.673c0.09-1.819,0.518-3.507,0.393-5.224C49.05,14.006,48.308,12.354,47.654,11.463z
			 M8.728,13.08c0.256-0.316,0.548-0.63,0.878-0.94c0.573-0.539,1.176-1.067,1.797-1.585c0.848-0.708,0.916-0.63,0.126,0.143
			c-0.69,0.674-1.389,1.356-2.096,2.047C8.641,13.516,8.279,13.632,8.728,13.08z M9.375,12.858c0.913-0.888,1.796-1.748,2.596-2.524
			c0.793-0.771,1.548-1.479,1.686-1.583c0.137-0.106-0.394,0.432-1.188,1.199c-0.88,0.851-1.946,1.883-3.166,3.062
			c-0.794,0.769-1.42,1.358-1.399,1.316C7.924,14.287,8.583,13.629,9.375,12.858z M46.802,20.559
			c-0.295,3.366,0.049,6.784-0.039,10.162c-0.078,2.972-0.256,5.941-0.443,8.909c-0.154,2.43-2.855,3.877-4.613,5.525
			c-2.176,2.046-4.621,3.749-7.225,5.184c-0.967,0.531-1.889,0.949-2.037,0.972c-0.145,0.021-0.723,0.05-1.203-0.198
			c-0.482-0.247-1.396,0.036-2.102,0.729c-0.705,0.692-1.949,1.287-2.69,0.99c-0.401-0.159-0.812-0.399-1.235-0.739
			c-0.261-0.21-0.533-0.405-0.81-0.59c-0.461-0.309-0.218-1.168,0.562-1.951c0.038-0.038,0.076-0.076,0.115-0.114
			c0.78-0.783,1.097-1.585,0.71-1.794c-0.387-0.209-1.109,0-1.605,0.483c-0.497,0.481-0.489,0.578-1.054,1.095
			c-0.564,0.517-1.448,0.712-1.973,0.434c-0.317-0.167-0.634-0.336-0.947-0.51c-0.5-0.276-0.974-0.577-1.428-0.896
			c-0.762-0.533-0.709-1.659,0.066-2.446c0.083-0.083,0.165-0.167,0.248-0.251c0.775-0.786,1.363-1.461,1.312-1.509
			c-0.05-0.049-0.748,0.522-1.559,1.272c-0.094,0.088-0.189,0.175-0.284,0.263c-0.81,0.75-1.826,1.056-2.259,0.669
			c-0.434-0.387-0.117-1.314,0.696-2.062c0.107-0.099,0.215-0.197,0.322-0.296c0.814-0.747,1.171-1.646,0.8-2.007
			c-0.372-0.361-1.33-0.041-2.138,0.712c-0.114,0.106-0.227,0.213-0.341,0.318c-0.808,0.755-2.079,0.775-2.878,0.091
			c-0.479-0.411-0.973-0.811-1.492-1.188c-0.219-0.158-0.409-0.312-0.572-0.459c-0.301-0.271,0.123-1.179,0.893-1.972
			c0.302-0.312,0.604-0.622,0.906-0.934c0.77-0.792,1.773-2.01,2.353-2.625c0.58-0.614,1.765-0.456,2.571,0.3
			c2.551,2.392,5.273,4.991,8.083,6.317c1.805,0.853,3.833,1.235,5.577-0.086c0.486-0.369,0.984-0.753,1.486-1.147
			c0.814-0.643,1.584-1.189,1.729-1.218c0.145-0.026,0.545-0.349,0.898-0.701c0.213-0.213,0.424-0.425,0.639-0.641
			c0.361-0.368,0.723-0.74,1.086-1.108c1.357-1.239,2.637-2.524,3.74-3.819c1.484-1.519,2.971-3.032,4.457-4.551
			c0.771-0.79,0.723-0.844-0.104-0.108c-0.562,0.502-1.125,1.006-1.682,1.509c-0.822,0.739-1.109,0.506-1.01-0.594
			c0.047-0.505,0.043-1.019,0.008-1.543c-0.076-1.102,0.404-2.602,1.205-3.363c0.361-0.344,0.721-0.685,1.076-1.023
			c0.801-0.762,1.438-1.461,1.424-1.561c-0.014-0.099-0.662,0.447-1.453,1.22c-0.184,0.178-0.365,0.354-0.547,0.533
			c-0.789,0.772-0.791,0.771-0.002-0.003c0.182-0.18,0.365-0.36,0.553-0.544c0.787-0.774,1.422-1.429,1.418-1.462
			c-0.004-0.033-0.648,0.565-1.439,1.338c-0.371,0.362-0.74,0.725-1.109,1.086c-0.791,0.773-1.504,0.96-1.588,0.419
			c-0.051-0.323-0.1-0.65-0.143-0.981c-0.055-0.415-0.859-0.329-1.104-0.252c-2.744,0.865-5.086,2.303-7.496,3.856
			c-0.49,0.317-0.965,0.614-1.428,0.891c-0.799,0.477-1.482,0.827-1.504,0.83c-0.018,0.003-0.047,0.018-0.064,0.032
			c-0.016,0.016-0.82,0.458-1.854,0.85c-0.291,0.108-0.581,0.208-0.871,0.295c-1.059,0.314-1.503-0.035-0.94-0.561
			c0.562-0.524,0.885-0.985,0.723-1.032c-0.163-0.048-0.765,0.383-1.347,0.965s-1.957,1.094-3.046,0.914
			c-0.141-0.023-0.283-0.05-0.426-0.078c-1.082-0.22-1.311-1.172-0.554-1.953c0.757-0.78,1.092-1.545,0.754-1.719
			c-0.338-0.174-1.241,0.307-2.024,1.086c-0.029,0.028-0.058,0.058-0.087,0.087c-0.783,0.779-1.434,1.403-1.454,1.396
			c-0.012-0.006-0.023-0.01-0.036-0.016c-0.655-0.29-1.37-0.649-2.112-1.068c-0.962-0.542-1.072-1.666-0.285-2.441
			c0.109-0.107,0.218-0.215,0.326-0.322c0.787-0.775,1.106-1.633,0.724-1.927c-0.382-0.294-1.307,0.1-2.075,0.893
			c-0.123,0.127-0.246,0.254-0.369,0.381c-0.769,0.794-1.732,1.188-2.142,0.867c-0.409-0.321-0.106-1.236,0.664-2.027
			c0.144-0.148,0.289-0.297,0.432-0.444c0.771-0.791,1.029-1.768,0.586-2.19c-0.443-0.424-1.433-0.144-2.219,0.631
			c-0.155,0.152-0.309,0.305-0.464,0.457c-0.786,0.776-1.959,0.868-2.543,0.142c-0.585-0.727-0.333-1.995,0.462-2.762
			c0.213-0.205,0.426-0.41,0.639-0.616c0.794-0.768,1.363-1.591,1.285-1.841c-0.078-0.251-0.757,0.18-1.534,0.964
			c-0.265,0.269-0.531,0.537-0.796,0.805c-0.777,0.785-1.79,0.751-2.064-0.151c-0.273-0.903,0.334-2.317,1.107-3.105
			c0.594-0.606,1.188-1.211,1.781-1.815c0.774-0.788,1.504-1.841,1.715-2.32c0.13-0.296,0.285-0.572,0.474-0.817
			c1.277-1.756,1.62-1.765,5.013-4.474c0.863-0.689,1.769-1.475,2.035-1.741c0.266-0.267,1.263-0.923,2.254-1.411
			c0.762-0.375,1.533-0.729,2.308-1.067c0.454-0.199,1.073-0.349,1.671-0.537c0.925-0.292,1.295,0.185,2.301,0.643
			c0.803,0.365,1.84,0.597,2.083,0.682c2.084,0.726,3.994,1.522,5.949,2.51c3.23,1.633,7.137,3.492,9.498,6.428
			c0.691,0.86,1.436,2.517,1.514,3.618C47.31,17.251,46.949,18.886,46.802,20.559z"/>
		<path d="M38.166,14.724c-0.143,0.144-0.281,0.286-0.424,0.429c-0.773,0.786-1.695,1.136-2.059,0.78s-0.031-1.285,0.74-2.076
			c0.141-0.144,0.281-0.289,0.422-0.434c0.771-0.79,1.279-1.548,1.133-1.692c-0.145-0.145-0.912,0.355-1.695,1.133
			c-0.199,0.197-0.328,0.327-0.428,0.431c-0.768,0.794-2.047,0.794-2.814-0.002c-0.09-0.094-0.18-0.188-0.27-0.281
			c-0.762-0.8-0.922-1.898-0.391-2.423c0.318-0.315,0.641-0.632,0.961-0.947c0.234-0.261,0.465-0.52,0.695-0.778
			c0.383-0.431,0.447-1.093,0.154-1.488c-0.291-0.397-0.584-0.762-0.682-0.795c-0.098-0.032-0.803,0.582-1.574,1.373
			c-0.162,0.167-0.326,0.335-0.49,0.503c-0.77,0.791-1.703,0.897-2.293,0.463c-0.289-0.212-0.65-0.392-1.19-0.571
			c-0.482-0.16-1.199,0.112-1.49,0.51c-2.42,3.315-5.987,5.367-8.929,8.153c-0.326,0.309-0.184,0.593,0.193,0.723
			c3.787,1.311,5.789,6.556,9.807,7.166c0.029,0.005,0.061,0.006,0.094,0.005c0.052-0.001,0.215,0.015,0.363,0.005
			c0.081-0.005,0.169-0.019,0.266-0.043c3.357-0.853,5.631-5.383,8.188-7.498c0.152-0.126,0.287-0.394,0.115-0.565
			c-0.033-0.032-0.066-0.065-0.1-0.097c-0.055-0.054,0.561-0.702,1.375-1.448c0.15-0.137,0.299-0.273,0.449-0.41
			c0.814-0.746,1.43-1.394,1.373-1.45C39.611,13.342,38.939,13.938,38.166,14.724z M34.234,17.596
			c-1.051,0.977-1.998,2.081-2.977,3.13c-0.365,0.39-0.883,1.067-1.449,1.693c-0.74,0.82-2.39,1.051-3.303,0.43
			c-2.239-1.521-4.294-4.385-6.294-5.66c-0.78-0.497-0.793-0.119-0.418-0.475c0.979-0.928,2.09-1.731,3.151-2.561
			c1.15-0.898,2.242-1.823,3.249-2.837c0.778-0.784,2.06-0.922,2.736-0.049c0.551,0.711,1.055,1.481,1.58,2.061
			c0.797,0.881,1.668,1.699,2.518,2.529C33.556,16.373,34.894,16.98,34.234,17.596z"/>
	</g>
</g>
<g>
</g>
<g>
</g>
<g>
</g>
<g>
</g>
<g>
</g>
<g>
</g>
<g>
</g>
<g>
</g>
<g>
</g>
<g>
</g>
<g>
</g>
<g>
</g>
<g>
</g>
<g>
</g>
<g>
</g>
</svg>
