<?xml version="1.0" encoding="iso-8859-1"?>
<!-- Generator: Adobe Illustrator 16.0.0, SVG Export Plug-In . SVG Version: 6.00 Build 0)  -->
<!DOCTYPE svg PUBLIC "-//W3C//DTD SVG 1.1//EN" "http://www.w3.org/Graphics/SVG/1.1/DTD/svg11.dtd">
<svg version="1.1" id="Capa_1" xmlns="http://www.w3.org/2000/svg" xmlns:xlink="http://www.w3.org/1999/xlink" x="0px" y="0px"
	 width="40.638px" height="40.638px" viewBox="0 0 40.638 40.638" style="enable-background:new 0 0 40.638 40.638;"
	 xml:space="preserve">
<g>
	<g>
		<path d="M30.475,25.099c2.166,0,4.515,0.229,6.569-0.617c5.882-2.425,3.871-8.169-1.204-9.347
			c-0.538-0.125-1.059-0.185-1.15-0.194c-0.05-0.005-0.105-0.008-0.168-0.008c-4.189,0-8.123-0.33-8.716-5.489
			c-0.335-2.916,0.214-5.192-1.773-7.702c-3.193-4.032-8.2,0.32-9.148,3.669c-1.043,3.685,2.017,9.522-5.448,9.522
			c-2.012,0-4.276-0.212-6.135,0.726c-5.743,2.894-3.458,9.44,2.743,9.44c4.189,0,8.125,0.329,8.719,5.488
			c0.288,2.501-0.665,5.512,1.068,7.699c3.393,4.285,8.538,1.87,9.854-2.778C26.64,32.128,23.58,25.099,30.475,25.099z
			 M16.935,4.854c0.102-0.508,0.56-1.205,1.003-1.532c0.672-0.494,1.288-0.845,1.851-1.052c0.518-0.189,0.643,0.083,0.237,0.457
			C19.328,3.371,18.642,4,17.984,4.607c-0.198,0.194-0.397,0.392-0.599,0.587C17.055,5.518,16.833,5.362,16.935,4.854z
			 M1.754,19.395c-0.117-1.525,0.916-2.93,3.651-3.309c0.547-0.075,0.677,0.227,0.284,0.614c-0.995,0.98-1.996,1.97-3.004,2.964
			C2.294,20.052,1.797,19.947,1.754,19.395z M23.874,32.582c0,1.081-0.02,2.1-0.118,3.183c-0.112,0.879-0.437,1.548-0.96,2.019
			c-0.412,0.367-0.945,0.432-1.059,0.317c-0.114-0.111-0.348-0.06-0.531,0.126c-0.185,0.186-0.78,0.394-1.332,0.379
			c-0.177-0.005-0.361-0.016-0.55-0.031c-0.55-0.051-1.06-0.213-1.137-0.312c-0.076-0.1,0.166-0.507,0.544-0.91
			c0.316-0.338,0.634-0.677,0.95-1.015c0.378-0.403,0.562-1.146,0.489-1.673c-0.042-0.312-0.064-0.631-0.064-0.958
			c0,0,0-0.134,0-0.298s-0.318,0.018-0.712,0.404c-0.555,0.547-1.112,1.095-1.672,1.641c-0.396,0.386-0.771,0.525-0.824,0.312
			c-0.055-0.213-0.207-0.822-0.267-1.371c-0.038-0.35-0.052-0.713-0.054-1.08c-0.002-0.552,0.34-1.316,0.729-1.708
			c0.661-0.664,1.336-1.34,2.023-2.027c0.39-0.393,0.677-0.921,0.618-1.181c-0.06-0.26-0.458-0.161-0.865,0.213
			c-0.627,0.576-1.189,1.096-1.679,1.55c-0.405,0.376-0.725,0.508-0.719,0.295c0.004-0.131,0.007-0.261,0.007-0.387
			c0-1.619-0.482-2.81-1.266-3.685c-0.368-0.412-0.407-0.977,0-1.35c0.025-0.023,0.051-0.046,0.076-0.069
			c0.407-0.373,0.402-0.799-0.026-0.884c-0.428-0.084-1.036,0.137-1.351,0.429c-0.314,0.291-0.879,0.382-1.277,0.242
			c-0.397-0.142-0.594-0.351-0.427-0.506s0.268-0.282,0.222-0.282c-0.045,0-0.202,0.121-0.352,0.271
			c-0.149,0.148-0.704,0.157-1.248,0.064c-0.29-0.05-0.583-0.091-0.879-0.124c-0.549-0.062-0.939-0.143-0.869-0.216
			c0.071-0.073-0.127-0.179-0.435-0.267s-0.671-0.061-0.821,0.089c-0.149,0.148-0.72,0.277-1.266,0.195
			c-0.071-0.01-0.143-0.021-0.212-0.034c-0.543-0.1-0.722-0.501-0.418-0.802s0.536-0.557,0.521-0.569
			c-0.015-0.015-0.283,0.222-0.599,0.525s-0.789,0.473-1.048,0.354c-0.258-0.12-0.147-0.54,0.235-0.918s0.551-0.857,0.404-1.091
			c-0.147-0.232-0.552-0.115-0.938,0.28c-0.083,0.086-0.167,0.172-0.25,0.259c-0.384,0.397-0.92,0.551-1.172,0.315
			c-0.252-0.236-0.123-0.773,0.262-1.17c0.269-0.276,0.534-0.551,0.8-0.824c0.385-0.396,0.693-0.758,0.689-0.807
			c-0.003-0.029-0.004-0.061-0.004-0.09c0-1.051,0.452-2.014,1.206-2.781C6.639,16.23,7.465,15.986,8.018,16
			c1.139,0.025,2.329,0.047,3.395-0.238c2.54-0.681,3.933-2.134,4.641-4.044c0.192-0.518,0.237-0.675,0.131-0.339
			c-0.105,0.336,0.095,0.281,0.487-0.106c0.906-0.895,1.812-1.789,2.719-2.684c0.395-0.388,0.713-1.127,0.713-1.65V5.992
			c0-0.021,0.001-0.041,0.003-0.061c0.002-0.033-0.31,0.26-0.694,0.655c-0.713,0.73-1.428,1.464-2.142,2.195
			c-0.385,0.396-0.653,0.371-0.625-0.057c0.029-0.428,0.349-1.096,0.733-1.491c0.783-0.805,1.535-1.577,2.256-2.317
			c0.385-0.396,0.706-0.751,0.718-0.791c0.013-0.041-0.287,0.251-0.671,0.647c-0.592,0.615-1.406,1.457-2.302,2.381
			c-0.384,0.398-0.695,0.679-0.694,0.628c0.001-0.052,0.316-0.409,0.705-0.803c1.189-1.195,2.084-2.085,2.585-2.558
			c0.077-0.077,0.145-0.146,0.205-0.206c0.113-0.113,0.324-0.641,0.563-1.139c0.022-0.05,0.047-0.098,0.071-0.146
			c0.252-0.491,0.992-0.775,1.427-0.435c0.479,0.375,0.867,0.983,1.166,1.833c0.312,0.813,0.465,1.657,0.463,2.529
			c0.185,2.019-0.121,3.659,0.584,5.635c1.227,3.433,5.1,3.518,8.205,3.496c0.553-0.005,1.448,0.031,1.988,0.146
			c6.031,1.283,4.978,7.913-1.903,7.913c-1.247,0-2.657-0.121-3.85,0.305C24.891,25.788,23.874,28.582,23.874,32.582z"/>
		<path d="M18.107,26.356c0.283-0.268,0.276-0.275-0.007-0.007C17.818,26.62,17.823,26.625,18.107,26.356z"/>
	</g>
</g>
<g>
</g>
<g>
</g>
<g>
</g>
<g>
</g>
<g>
</g>
<g>
</g>
<g>
</g>
<g>
</g>
<g>
</g>
<g>
</g>
<g>
</g>
<g>
</g>
<g>
</g>
<g>
</g>
<g>
</g>
</svg>
