<?xml version="1.0" encoding="iso-8859-1"?>
<!-- Generator: Adobe Illustrator 16.0.0, SVG Export Plug-In . SVG Version: 6.00 Build 0)  -->
<!DOCTYPE svg PUBLIC "-//W3C//DTD SVG 1.1//EN" "http://www.w3.org/Graphics/SVG/1.1/DTD/svg11.dtd">
<svg version="1.1" id="Capa_1" xmlns="http://www.w3.org/2000/svg" xmlns:xlink="http://www.w3.org/1999/xlink" x="0px" y="0px"
	 width="46.297px" height="46.297px" viewBox="0 0 46.297 46.297" style="enable-background:new 0 0 46.297 46.297;"
	 xml:space="preserve">
<g>
	<g>
		<path d="M15.735,33.195c1.636,0,3.273,0,4.909,0c0.177,0,0.32-0.002,0.438-0.006c0.241-0.01,0.617,0.416,0.841,0.98
			c0.136,0.341,0.27,0.682,0.406,1.021c1.418,3.565,2.835,7.131,4.253,10.696c0.098,0.246,0.354,0.392,0.617,0.392
			c2.961,0,5.924,0,8.886,0c0.36,0,1.59-0.271,1.313-0.91c-4.602-10.623-9.203-21.248-13.806-31.872
			c-0.01-0.022-0.024-0.039-0.04-0.056c-0.026-0.027-0.106-0.149-0.222-0.218c-0.065-0.039-0.143-0.068-0.23-0.086
			c-0.118-0.023-0.232-0.03-0.353-0.024c-0.132,0.009-0.248,0.029-0.365,0.062c-0.118,0.036-0.207,0.07-0.291,0.115
			c-0.077,0.039-0.141,0.084-0.202,0.133c-0.075,0.06-0.134,0.124-0.175,0.19c-0.074,0.122-0.362,1.092-0.726,2.136
			c-1.94,5.571-3.882,11.143-5.821,16.714C15.025,32.869,15.291,33.195,15.735,33.195z M22.407,17.096
			c0.145-0.415,0.33-0.593,0.414-0.398c0.085,0.195-0.033,0.532-0.262,0.752C22.33,17.67,22.263,17.511,22.407,17.096z M20.838,21.6
			c0.033-0.095,0.066-0.19,0.1-0.285c0.363-1.043,1.032-2.272,1.492-2.744c0.461-0.471,1.012-0.444,1.231,0.061
			c0.219,0.505-0.232,1.553-1.006,2.34c-0.357,0.363-0.715,0.726-1.072,1.088C20.808,22.849,20.475,22.643,20.838,21.6z
			 M18.694,27.754c0.265-0.76,0.529-1.52,0.794-2.279c0.363-1.043,1.318-2.495,2.133-3.24c0.367-0.336,0.733-0.672,1.101-1.008
			c0.815-0.746,1.666-0.913,1.899-0.375c0.232,0.539,0.305,1.086,0.158,1.223c-0.086,0.081-0.174,0.163-0.266,0.248
			c-3.158,3.117-2.879,2.751-4.466,4.271c-0.798,0.764-1.417,1.341-1.396,1.277C18.667,27.83,18.681,27.793,18.694,27.754z
			 M17.483,31.232c0.088-0.252,0.176-0.505,0.264-0.757c0.146-0.418,0.917-1.368,1.724-2.124c0.523-0.49,1.045-0.979,1.562-1.464
			c0.806-0.755,1.385-1.233,2.203-1.978c0.004-0.004,0.009-0.008,0.013-0.012c0.817-0.742,1.584-1.652,1.715-2.029
			c0.131-0.377,0.595,0.141,1.032,1.154c2.761,6.373,5.521,12.746,8.281,19.119c0.439,1.014,0.322,1.835-0.258,1.835
			c-0.582,0-1.063-0.026-1.078-0.062c-0.014-0.034-0.051-0.034-0.082,0c-0.031,0.033-0.373,0.062-0.763,0.062
			c-0.235,0-0.471,0-0.704,0c-0.291,0-0.58,0-0.871,0c-0.48,0-0.351-0.558,0.293-1.245c0.642-0.689,0.971-1.726,0.735-2.318
			c-0.235-0.592-1.06-0.439-1.842,0.342c-0.156,0.156-0.312,0.312-0.47,0.469c-0.78,0.781-1.744,0.583-2.152-0.443
			c-0.128-0.322-0.256-0.644-0.385-0.965c-0.406-1.027-0.11-2.5,0.662-3.289c0.16-0.162,0.318-0.326,0.479-0.488
			c0.772-0.789,1.388-1.457,1.375-1.489s-0.688,0.542-1.508,1.282c-0.142,0.127-0.282,0.256-0.423,0.383
			c-0.818,0.74-1.813,0.51-2.223-0.518c-0.008-0.02-0.016-0.039-0.022-0.059c-0.408-1.027-0.158-2.408,0.557-3.089
			c0.716-0.681,1.22-1.231,1.13-1.231c-0.093,0-0.219,0.051-0.281,0.112c-0.063,0.062-0.064,0.062-0.002,0s0.08-0.112,0.037-0.112
			c-0.045,0-0.576,0.485-1.188,1.084c-0.612,0.598-1.304,0.59-1.546-0.019c-0.146-0.367-0.292-0.733-0.438-1.101
			c-0.098-0.246-0.354-0.393-0.618-0.393c-0.187,0-0.375,0-0.562,0c-0.312,0-0.48-0.078-0.376-0.174s0.482-1.02,0.845-2.062
			l0.038-0.108c0.363-1.044,0.001-1.279-0.809-0.527c-0.543,0.505-1.086,1.009-1.629,1.513c-0.81,0.752-1.796,1.36-2.203,1.36
			c-0.407,0-0.688-0.147-0.627-0.33C17.402,31.467,17.439,31.357,17.483,31.232z"/>
		<path d="M43.967,46.074c0.32,0,0.641,0,0.961,0c0.364,0,1.369-0.205,1.369-0.705c0-15.037,0-30.076,0-45.113
			c0-0.202-0.462-0.187-0.562-0.187c-5.51,0-11.018,0-16.526,0c-1.104,0-2.445-0.055-2.951,0.119
			c-0.419,0.144-0.759,0.377-0.677,0.585c5.941,15.039,11.883,30.077,17.824,45.115C43.484,46.093,43.795,46.074,43.967,46.074z
			 M40.599,33.383c-0.259-0.655,0.144-1.842,0.897-2.648c0.17-0.183,0.34-0.365,0.51-0.547c0.754-0.808,1.189-1.902,0.977-2.445
			c-0.215-0.543-1.023-0.354-1.807,0.426c-0.158,0.156-0.316,0.314-0.475,0.473c-0.782,0.779-1.746,0.579-2.152-0.447
			c-0.135-0.342-0.27-0.683-0.404-1.023c-0.406-1.027-0.445-2.156-0.086-2.521c0.358-0.367,0.35-0.394-0.023-0.059
			c-0.37,0.334-0.84,0.177-1.049-0.352c-0.127-0.32-0.254-0.64-0.379-0.959c-0.131-0.33-0.262-0.661-0.393-0.991
			c-0.217-0.547,0.258-1.608,1.059-2.37c0.15-0.144,0.301-0.288,0.451-0.431c0.801-0.762,1.422-1.45,1.387-1.537
			c-0.033-0.086-0.703,0.47-1.492,1.242c-0.154,0.152-0.311,0.304-0.465,0.455c-0.789,0.773-0.793,0.769-0.006-0.006
			c0.155-0.154,0.312-0.308,0.469-0.462c0.787-0.775,1.418-1.422,1.408-1.448c-0.011-0.025-0.658,0.581-1.449,1.352
			c-0.154,0.152-0.311,0.303-0.465,0.455c-0.789,0.772-1.744,0.602-2.133-0.381c-0.389-0.982-0.048-2.389,0.762-3.141
			c0.147-0.137,0.295-0.275,0.443-0.412c0.807-0.752,1.295-1.79,1.086-2.319c-0.209-0.529-1.035-0.349-1.846,0.402
			c-0.148,0.136-0.294,0.273-0.441,0.409c-0.811,0.752-1.646,0.904-1.869,0.342c-0.221-0.562,0.26-1.623,1.072-2.371
			c0.143-0.131,0.288-0.265,0.438-0.402c0.812-0.748,1.375-1.596,1.257-1.895c-0.117-0.299-0.865,0.071-1.672,0.826
			c-0.497,0.466-1.015,0.95-1.558,1.458c-0.062,0.061-0.119,0.116-0.174,0.17c-0.095,0.094-0.351-0.285-0.572-0.844
			c-0.221-0.56,0.261-1.618,1.074-2.364c0.146-0.133,0.291-0.266,0.436-0.398c0.814-0.746,1.43-1.467,1.371-1.612
			c-0.057-0.145-0.729,0.377-1.504,1.165C33.12,8.335,32.959,8.5,32.797,8.664c-0.773,0.788-1.566,1.006-1.773,0.488
			c-0.203-0.518,0.256-1.579,1.028-2.369c0.162-0.166,0.324-0.332,0.486-0.497c0.772-0.79,1.349-1.556,1.286-1.713
			s-0.76,0.335-1.559,1.1c-0.156,0.151-0.31,0.296-0.455,0.437c-0.798,0.765-1.771,0.552-2.178-0.475
			c-0.13-0.328-0.259-0.655-0.389-0.983c-0.405-1.027-0.379-2.258,0.06-2.749c0.438-0.491,0.281-0.889-0.353-0.889
			c-0.631,0-1.148-0.011-1.153-0.025c-0.006-0.014,0.884-0.025,1.987-0.025c4.554,0,9.105,0,13.658,0c1.729,0,0.92-0.411,0.92,1.54
			c0,2.562,0,5.124,0,7.685c0,6.354,0,12.707,0,19.061c0,1.104-0.012,1.973-0.023,1.939s-0.639,0.594-1.396,1.396
			c-0.168,0.178-0.336,0.355-0.502,0.531C41.684,33.918,40.857,34.037,40.599,33.383z M41.572,35.848
			c-0.174-0.441,0.314-1.438,1.093-2.223c0.098-0.098,0.194-0.197,0.293-0.295c0.776-0.785,1.407-0.92,1.407-0.301
			s-0.555,1.68-1.238,2.371C42.443,36.09,41.748,36.289,41.572,35.848z M42.812,38.982c-0.041-0.105,0.289-0.562,0.738-1.025
			c0.45-0.461,0.814,0.061,0.814,1.166c0,0.507,0,1.015,0,1.521c0,1.104-0.043,2.045-0.096,2.098
			c-0.054,0.055-0.408-0.715-0.75-1.732c-0.252-0.75-0.47-1.426-0.634-1.838C42.859,39.107,42.836,39.045,42.812,38.982z"/>
		<path d="M5.874,12.635c-0.014,0.021-0.028,0.042-0.042,0.063C5.957,12.564,5.981,12.533,5.874,12.635z"/>
		<path d="M0.575,46.127c0.598,0,1.195,0,1.793,0c0.447-0.01,1.205-0.184,1.352-0.635c4.881-15.037,9.763-30.076,14.645-45.113
			c0.014-0.041,0.014-0.077,0.006-0.108c-0.016-0.06-0.141-0.202-0.295-0.231c-0.074-0.014-0.168-0.022-0.283-0.022
			c-5.479,0-10.959,0-16.438,0C0.936,0.018,0,0.223,0,0.774C0,15.812,0,30.85,0,45.888C-0.001,46.107,0.452,46.127,0.575,46.127z
			 M2.314,1.013c0.211,0,0.212,0.167,0,0.373c-0.211,0.206-0.383,0.206-0.383,0S2.103,1.013,2.314,1.013z M1.931,31.433
			c0-1.104,0.624-2.642,1.394-3.433c0.612-0.631,1.224-1.258,1.832-1.883c0.771-0.791,1.396-1.715,1.396-2.065
			s-0.646-0.011-1.441,0.754c-0.515,0.495-1.092,1.048-1.738,1.667c-0.797,0.764-1.443,0.486-1.443-0.617c0-0.683,0-1.365,0-2.048
			c0-0.317,0-0.634,0-0.951c0-0.525,0.638-1.58,1.424-2.356c0.592-0.584,1.183-1.168,1.774-1.751
			c0.786-0.776,1.425-2.091,1.425-2.939c0-0.848-0.625-0.893-1.396-0.102c-0.61,0.626-1.221,1.252-1.831,1.879
			c-0.771,0.791-1.396,0.952-1.396,0.358c0-0.593,0.624-1.716,1.394-2.508c0.625-0.643,1.236-1.271,1.834-1.886
			c0.245-0.252,0.473-0.548,0.673-0.854c-0.307,0.331-1.245,1.305-2.511,2.614C2.553,16.106,1.93,16.7,1.93,16.64
			s0.631-0.744,1.416-1.521c0.665-0.659,1.198-1.18,1.578-1.539c0.519-0.522,0.822-0.823,0.949-0.945
			c0.405-0.636,0.68-1.314,0.68-1.77c0-0.692-0.658-0.647-1.472,0.101c-0.562,0.518-1.119,1.03-1.667,1.535
			c-0.812,0.748-1.479,0.46-1.482-0.645c-0.001-0.279-0.002-0.558-0.002-0.837C1.928,9.914,2.56,8.384,3.337,7.6
			C3.938,6.995,4.539,6.389,5.14,5.785C5.919,5.001,6.552,4.083,6.552,3.73c0-0.352-0.633-0.003-1.413,0.78
			C4.54,5.111,3.941,5.712,3.341,6.313C2.562,7.095,1.929,6.833,1.929,5.73c0-0.071,0-0.143,0-0.214c0-1.105,0.563-2.56,1.257-3.252
			C3.88,1.573,5.338,1.013,6.443,1.013c2.627,0,5.253,0,7.88,0c1.104,0,1.723,0.852,1.382,1.903
			c-2.845,8.763-5.69,17.527-8.534,26.29c-0.342,1.052-0.618,1.679-0.618,1.4c0-0.279-0.635,0.127-1.418,0.905
			c-0.544,0.541-1.14,1.134-1.789,1.78c-0.782,0.781-1.416,0.518-1.416-0.588C1.931,32.281,1.931,31.857,1.931,31.433z
			 M3.392,34.111c0.562-0.525,1.122-1.051,1.682-1.574c0.807-0.754,1.184-0.514,0.842,0.537c-0.026,0.084-0.054,0.168-0.081,0.25
			c-0.341,1.051-1.272,2.512-2.082,3.264c-0.119,0.109-0.237,0.22-0.356,0.33c-0.81,0.753-1.466,0.734-1.466-0.039
			C1.931,36.104,2.585,34.865,3.392,34.111z M1.931,44.379c0-0.58,0-1.16,0-1.739c0-0.96,0.463-2.168,1.034-2.696
			c0.57-0.529,0.756-0.107,0.415,0.943c-0.264,0.811-0.526,1.623-0.79,2.434c-0.341,1.051-0.669,1.723-0.664,1.486
			C1.928,44.693,1.931,44.552,1.931,44.379z"/>
		<path d="M31.197,2.94c-0.008,0.008-0.018,0.016-0.024,0.024c-0.013,0.013,0.312-0.298,0.72-0.699s0.413-0.418,0.02-0.029
			C31.676,2.468,31.441,2.701,31.197,2.94z"/>
	</g>
</g>
<g>
</g>
<g>
</g>
<g>
</g>
<g>
</g>
<g>
</g>
<g>
</g>
<g>
</g>
<g>
</g>
<g>
</g>
<g>
</g>
<g>
</g>
<g>
</g>
<g>
</g>
<g>
</g>
<g>
</g>
</svg>
