<?xml version="1.0" encoding="iso-8859-1"?>
<!-- Generator: Adobe Illustrator 16.0.0, SVG Export Plug-In . SVG Version: 6.00 Build 0)  -->
<!DOCTYPE svg PUBLIC "-//W3C//DTD SVG 1.1//EN" "http://www.w3.org/Graphics/SVG/1.1/DTD/svg11.dtd">
<svg version="1.1" id="Capa_1" xmlns="http://www.w3.org/2000/svg" xmlns:xlink="http://www.w3.org/1999/xlink" x="0px" y="0px"
	 width="47.577px" height="47.578px" viewBox="0 0 47.577 47.578" style="enable-background:new 0 0 47.577 47.578;"
	 xml:space="preserve">
<g>
	<g>
		<path d="M26.937,10.88c0.019,0.007,0.029,0.011,0.047,0.019c0.01,0.003,0.019,0.004,0.027,0.007c0.106,0.035,0.213,0.07,0.32,0.1
			c0.005,0.001,0.005,0.001,0.01,0.003c0.049,0.013,0.098,0.024,0.145,0.037c0.109,0.045,0.205,0.105,0.318,0.145
			c0.786,0.28,1.627,0.422,2.532,0.422c0.897,0,1.754-0.142,2.56-0.422c0.807-0.28,1.516-0.676,2.133-1.185
			c0.611-0.508,1.093-1.102,1.435-1.777c0.353-0.675,0.517-1.391,0.517-2.145c0-0.757-0.164-1.477-0.517-2.163
			c-0.342-0.682-0.821-1.287-1.435-1.814c-0.186-0.159-0.395-0.283-0.598-0.419c-0.055-0.06-0.111-0.124-0.158-0.17
			c-0.168-0.165-0.369-0.335-0.596-0.488c-0.232-0.166-0.492-0.307-0.74-0.417c-0.43-0.192-0.578-0.129-0.273,0.014
			c0.305,0.144,0.107,0.136-0.4-0.062c-0.291-0.113-0.609-0.228-0.932-0.313c-0.12-0.033-0.23-0.044-0.348-0.069
			c-0.01-0.002-0.021-0.003-0.028-0.005c-0.164-0.034-0.334-0.079-0.483-0.096c-0.054-0.006-0.09-0.009-0.119-0.01
			c-0.67-0.091-1.36-0.098-2.045-0.013c-0.898,0.114-1.793,0.394-2.597,0.861c-0.801,0.476-1.49,1.132-2.012,1.91
			c-1.113,1.518-1.23,3.725-0.214,5.307C24.258,9.46,25.539,10.4,26.937,10.88z M31.22,0.404c0.105,0.034,0.217,0.07,0.336,0.11
			c0.092,0.03,0.176,0.078,0.266,0.111C31.74,0.61,31.66,0.589,31.577,0.576c-0.373-0.143-0.758-0.262-1.156-0.347
			C30.69,0.273,30.957,0.333,31.22,0.404z M23.143,4.127c0.619-1.654,1.989-3.002,3.612-3.57c0.413-0.15,0.837-0.257,1.264-0.327
			c0.06,0.002,0.096,0.009,0.071,0.018c-0.063,0.023,0.144,0.048,0.431,0.022c0.287-0.026,1.012-0.052,1.65,0.098
			c0.217,0.051,0.406,0.098,0.578,0.142c-0.139-0.007-0.271-0.033-0.413-0.033c-0.905,0-1.746,0.14-2.532,0.422
			c-0.791,0.279-1.473,0.681-2.06,1.21c-0.587,0.527-1.052,1.132-1.409,1.814c-0.355,0.686-0.528,1.405-0.528,2.163
			c0,0.754,0.173,1.47,0.528,2.145c0.357,0.675,0.822,1.269,1.409,1.777c0.292,0.253,0.606,0.477,0.946,0.674
			c-0.916-0.355-1.765-0.9-2.432-1.653c-0.575-0.654-1.05-1.428-1.253-2.29C22.806,5.88,22.849,4.961,23.143,4.127z"/>
		<path d="M5.741,46.291c2.087,1.555,5.834,1.519,6.019,0.846c-1.413-0.152-2.84-0.497-4.254-0.969
			c-1.138-0.391-2.278-0.845-3.369-1.422c0.084,0.037,0.167,0.078,0.251,0.113c0.852,0.352,1.731,0.617,2.622,0.838
			c1.781,0.438,3.611,0.691,5.459,0.847c3.697,0.302,7.468,0.19,11.212-0.028c3.748-0.225,7.47-0.559,11.123-0.82l5.444-0.365
			c0.905-0.061,1.808-0.12,2.729-0.221c0.463-0.053,0.929-0.112,1.422-0.22c0.25-0.056,0.506-0.122,0.787-0.233
			c0.279-0.126,0.604-0.234,0.992-0.709c0.104-0.346,0.068-0.67-0.027-0.821c-0.092-0.156-0.199-0.161-0.307-0.102
			c-0.193,0.152-0.529,0.437-0.889,0.447c-0.699,0.067-1.674-0.01-2.95-0.008c-2.53-0.017-6.08,0.095-9.313,0.803
			c-0.418-0.263,0.275-0.571-1.086-0.797c-5.306-0.117-11.133,1.229-16.777,1.328c-1.146-0.965-5.273-1.442-7.021-0.972
			c-0.183,0.478,2.691,0.508,2.579,0.843c-1.055,0.411-2.822,0.068-4.45-0.367l-2.156-0.62c-0.015-0.006-0.032-0.01-0.047-0.018
			c-0.422-0.175-0.924-0.448-1.041-0.661c-0.006-0.001-0.004-0.01-0.005-0.016c0.023,0.001,0.028-0.026,0.081-0.066
			c0.105-0.099,0.301-0.208,0.504-0.297c0.416-0.183,0.892-0.319,1.373-0.438c0.772-0.182,1.567-0.321,2.37-0.444
			c0.151,0.235,0.307,0.436,0.445,0.527c0.175,0.117,0.357,0.191,0.534,0.263c0.333,0.121,0.673,0.188,1.017,0.213
			c0.129,0.015,0.263,0.011,0.396,0.006c0.539,0.08,1.217,0.027,1.889-0.202c0.918-0.315,1.791-0.667,2.616-1.057
			c0.352-0.166,0.673-0.346,1.011-0.519c0.69-0.043,1.379-0.087,2.071-0.122c4.209-0.202,8.456-0.271,12.662-0.165
			c1.041,0.033,2.082,0.075,3.119,0.127c0.183,0.246,0.369,0.495,0.564,0.747c0.215,0.244,0.45,0.475,0.73,0.668
			c0.279,0.183,0.611,0.382,1.061,0.326c0.069-0.01,0.118-0.042,0.176-0.066c0.375,0.221,0.721,0.268,0.969,0.071
			c0.519-0.411,0.938-0.745,0.938-0.745l0.73-0.591c0.846,0.099,1.686,0.214,2.516,0.354c0.521,0.091,1.044,0.179,1.557,0.293
			c0.758,0.174,2.159,0.357,2.84,0.712c0.358,0.159,0.408,0.486,0.459,0.377c0.035-0.012,0.029-0.267-0.146-0.461
			c-0.127-0.153-0.346-0.299-0.609-0.437c-0.061-0.034-0.121-0.066-0.193-0.1c-0.03-0.015-0.051-0.03-0.083-0.043
			c-0.041-0.018-0.082-0.026-0.123-0.042c-0.086-0.036-0.156-0.072-0.257-0.107c-0.178-0.063-0.357-0.114-0.536-0.168
			c-0.056-0.017-0.111-0.036-0.168-0.052c-0.322-0.092-0.646-0.175-0.972-0.248c-0.141-0.034-0.309-0.064-0.483-0.09
			c-1.046-0.212-2.106-0.356-3.171-0.495l1.174-0.923l0.803-0.611c0.443-0.336,0.458-1.438-0.107-2.384
			c-0.336-0.562-0.709-1.109-1.123-1.647c-0.848-1.091-1.797-2.117-2.856-3.081c-1.053-0.958-2.188-1.824-3.392-2.586
			c-0.592-0.374-1.178-0.724-1.76-1.053c-0.985-0.557-1.793-1.238-1.769-1.583c0.024-0.346,0.045-0.625,0.045-0.625
			c0.013-0.143,0.019-0.317,0.022-0.522c0.037-0.003,0.074-0.011,0.111-0.009l0.082,0.005c0.045,0.002,0.118,0.012,0.166,0.02
			c0.047,0.008,0.084,0.015,0.084,0.015c0.122,0.026,0.352,0.062,0.506,0.083c0.688,0.09,1.371,0.152,2.121,0.195l0.026,0.001
			c0.015,0.001,0.054-0.003,0.084-0.008c0.032-0.007,0.058-0.011,0.058-0.011c1.733-0.294,3.506-0.658,5.393-1.53
			c0.438-0.223,0.867-0.456,1.296-0.723c0.457-0.304,0.76-0.444,1.312-0.956c0.082-0.083,0.151-0.173,0.223-0.262
			c0.859-0.711,1.275-1.634,1.023-2.055c-0.074-0.125-0.144-0.242-0.207-0.348c-0.005-0.122-0.006-0.242-0.033-0.381
			c-0.006-0.045-0.027-0.12-0.051-0.191c-0.035-0.104-0.092-0.218-0.113-0.26c-0.023-0.042-0.053-0.092-0.065-0.112
			c-0.015-0.02,0.144-0.396-0.033-0.849c-0.073-0.186-0.188-0.443-0.362-0.802l-0.397-0.702l-0.438-0.727l-0.886-1.39l-0.37-0.581
			c-0.203-0.321-0.639-0.413-0.971-0.205c-0.332,0.209-0.602,0.378-0.602,0.378l-1.215,0.762l-0.607,0.365
			c-0.244,0.134-0.254,0.159-0.455,0.232c-0.398,0.142-0.865,0.279-1.346,0.405c-0.75,0.197-1.284,0.325-1.188,0.323
			c0.098-0.001-0.294-0.042-0.873-0.099c-0.377-0.038-0.742-0.078-1.047-0.121c-0.268-0.044-0.549-0.125-0.814-0.236
			c-0.105-0.041-0.221-0.097-0.322-0.152c-0.133-0.072-0.19-0.081-0.194-0.048c0.024,0.06,0.024,0.079-0.007,0.027
			c-0.014-0.021,0.005-0.018,0.007-0.027c-0.021-0.048-0.056-0.119-0.112-0.216c-0.074-0.128-0.158-0.252-0.256-0.384
			c-0.098-0.129-0.207-0.261-0.361-0.402c-0.086-0.075-0.139-0.127-0.315-0.236c-0.101-0.061-0.101-0.054-0.13-0.069
			c0,0-0.094-0.042-0.131-0.056l-1.229-0.493l-2.492-1.039l-1.266-0.534l-0.315-0.12l-0.196-0.072
			c-0.153-0.048-0.308-0.065-0.394-0.058c-0.403,0.017-0.63,0.114-0.882,0.2c-0.939,0.393-1.709,0.846-2.475,1.542
			c0,0-0.051,0.046-0.077,0.087l-0.244,0.393c-0.135,0.217-0.604,0.72-0.974,1.19c-0.199,0.255-0.41,0.551-0.624,0.882
			c-0.251,0.391-0.506,0.828-0.745,1.32c-0.255,0.531-0.433,1.033-0.602,1.578c-0.333,1.079-0.545,2.209-0.632,3.238
			c-0.039,0.449-0.062,0.884-0.066,1.287c-0.01,0.711,0.214,0.875,0.288,0.301c0.04-0.314,0.084-0.677,0.135-1.038
			c0.044-0.359,0.101-0.724,0.16-1.044c0.106-0.573,0.267-0.091,0.173,1.009c-0.1,1.167-0.229,2.531-0.265,3.926l0.01,0.249
			l0.002,0.062c0.002,0.034-0.003,0.072-0.008,0.086c-0.002,0.006-0.005,0.014-0.009,0.025c-0.051,0.134-0.123,0.286-0.193,0.431
			l-0.447,0.862c-0.146,0.271-0.293,0.538-0.435,0.794c-0.14,0.25-0.405,0.653-0.697,1.079c-0.274,0.363-0.581,0.747-0.88,1.074
			c-0.394,0.435-0.808,0.854-1.237,1.246c-0.867,0.749-1.918,1.332-3.004,1.778c-0.549,0.223-1.104,0.412-1.681,0.582
			c-0.263,0.072-0.661,0.185-0.946,0.411c-0.296,0.216-0.538,0.497-0.703,0.821c-0.085,0.18-0.167,0.36-0.205,0.57
			c-0.062,0.331,0.092,0.808,0.193,1.052c0.062,0.146,0.122,0.284,0.187,0.439c0.234,0.564,0.51,1.139,0.78,1.683
			c0.146,0.293,0.275,0.566,0.413,0.85c0.012,0.023,0.027,0.051,0.039,0.075c-0.478,0.067-0.953,0.143-1.427,0.23
			c-0.135,0.029-0.27,0.058-0.405,0.084c-0.11-0.136,0.48-0.352,0.315-0.481c-0.693-0.1-1.361,0.04-1.807,0.267
			c-0.45,0.227-0.652,0.525-0.477,0.628c-0.231,0.032-0.479,0.068-0.767,0.203c-0.143,0.067-0.303,0.164-0.46,0.348
			c-0.077,0.092-0.153,0.21-0.206,0.355c-0.029,0.069-0.045,0.151-0.062,0.231l-0.005,0.03l-0.002,0.004l0.004,0.08L1.356,43.07
			l-0.001,0.005l-0.007,0.022l-0.013,0.044c0,0.087,0.02,0.226,0.045,0.325c0.018,0.074,0.041,0.152,0.068,0.224
			c0.053,0.136,0.115,0.253,0.18,0.357c0.126,0.2,0.254,0.354,0.381,0.494c0.249,0.268,0.494,0.478,0.738,0.671
			c0.971,0.748,1.973,1.24,2.938,1.522C6.011,46.686,5.218,46.273,5.741,46.291z M34.317,17.583c0.49-0.125,0.979-0.265,1.468-0.432
			c0.489-0.209,0.927-0.458,1.349-0.722c0.717-0.448,1.237-0.84,1.178-0.853c-0.041-0.009,0.148,0.311,0.451,0.796
			c-0.231,0.036-0.468,0.108-0.691,0.254c-0.411,0.269-0.82,0.483-1.231,0.64c-0.765,0.3-1.478,0.502-2.142,0.608
			c-0.663,0.111-1.276,0.131-1.83,0.061c-0.305-0.037-0.571-0.076-0.812-0.118C32.722,17.834,33.64,17.754,34.317,17.583z
			 M2.674,43.004c-0.033,0.044-0.034-0.022-0.047-0.045c0.069,0.054,0.028,0.017,0.055,0.029C2.68,42.993,2.681,42.987,2.674,43.004
			z M7.416,41.677c0.222-0.032,0.446-0.062,0.67-0.091c0.099,0.199,0.205,0.408,0.323,0.636c0.007,0.014,0.022,0.024,0.031,0.039
			C8.045,42.166,7.663,41.995,7.416,41.677z M34.058,41.212c0.275,0.407,0.576,0.749,0.873,1c-0.56-0.067-1.024-0.524-1.4-0.951
			c-0.106-0.141-0.211-0.283-0.315-0.425c0.199,0.011,0.397,0.023,0.597,0.035C33.892,40.988,33.976,41.094,34.058,41.212z
			 M26.201,34.611c1.522,0.594,2.899,1.4,4.136,2.415c1.078,0.888,2.092,1.981,3.051,3.26c-0.203-0.011-0.406-0.025-0.609-0.035
			c-0.489-0.662-0.99-1.32-1.561-1.916c-1.227-1.351-2.688-2.5-4.303-3.345c-0.389-0.203-0.82-0.383-1.232-0.525
			C25.858,34.5,26.033,34.546,26.201,34.611z M22.648,35.265c0.324-0.345,0.848-0.612,1.44-0.754
			c0.369-0.061,0.729-0.065,1.065,0.051c2.228,0.831,4.291,2.282,5.906,4.09c0.472,0.501,0.879,1.029,1.285,1.574
			c-4.035-0.181-8.107-0.176-12.151-0.072c-1.334,0.038-2.664,0.09-3.99,0.15c0.641-0.361,1.26-0.732,1.844-1.119
			c1.245-0.824,2.348-1.696,3.31-2.618C21.817,36.128,22.247,35.692,22.648,35.265z M16.484,28.068
			c0.017-0.111,0.069-0.227,0.106-0.308c-0.015,0.075-0.047,0.182-0.097,0.315C16.492,28.071,16.482,28.08,16.484,28.068z
			 M14.91,29.692c0.169-0.272,0.332-0.55,0.493-0.83c0.16-0.28,0.316-0.562,0.467-0.857c0.041-0.082,0.08-0.158,0.119-0.243
			c0.062-0.136,0.124-0.31,0.136-0.385c0.012-0.077,0.008-0.167,0.008-0.2c-0.001-0.033-0.002-0.061-0.002-0.061
			s-0.001-0.055-0.002-0.108c-0.001-0.061,0.034-0.997,0.137-2.098c0.142-1.506,0.373-3.015,0.742-4.474
			c0.139-0.526,0.293-1.049,0.474-1.563c0.179-0.504,0.398-0.974,0.649-1.473c0.25-0.489,0.516-0.977,0.797-1.457
			c0.464-0.791,0.866-1.383,0.844-1.357c-0.021,0.025,0.367-0.32,0.949-0.658c0.26-0.151,0.53-0.28,0.798-0.396
			c-0.21,0.118-0.411,0.258-0.589,0.423c-0.452,0.418-0.867,0.892-1.242,1.421c-0.766,1.084-1.383,2.292-1.857,3.634
			c-0.158,0.45-0.278,0.933-0.405,1.41c-0.058,0.144-0.117,0.319-0.176,0.54c-0.165,0.624-0.308,1.26-0.429,1.91
			c-0.256,1.329-0.458,2.664-0.57,3.997l-0.005,0.239l-0.001,0.061c-0.001,0.032,0,0.131-0.013,0.218
			c-0.014,0.087-0.081,0.268-0.149,0.404c-0.044,0.088-0.086,0.162-0.131,0.244c-0.162,0.291-0.33,0.567-0.501,0.844
			c-0.174,0.277-0.349,0.554-0.53,0.829c-0.079,0.121-0.195,0.278-0.33,0.454C14.72,29.981,14.833,29.818,14.91,29.692z
			 M6.484,39.835c-0.269-0.547-0.52-1.101-0.75-1.661c-0.05-0.141-0.115-0.278-0.174-0.417c-0.096-0.229-0.141-0.632-0.064-0.867
			c0.047-0.142,0.113-0.277,0.19-0.402c0.309-0.534,0.862-0.801,1.452-0.926c0.175-0.051,0.342-0.122,0.516-0.178
			c0.13,0.006,0.195,0.042,0.072,0.109c-0.208,0.115,0.567,0.128,1.521-0.293c0.953-0.421,1.671-1.147,1.974-1.301
			c0.178-0.089,0.357-0.187,0.54-0.293c0.387-0.238,0.737-0.497,1.097-0.777c0.361-0.286,0.719-0.588,1.071-0.906
			c0.401-0.363,0.717-0.685,0.874-0.848c-0.09,0.128-0.18,0.264-0.268,0.384c-0.675,0.911-1.422,1.688-2.243,2.321
			c-0.829,0.638-1.754,1.167-2.794,1.591c-0.554,0.229-1.17,0.442-1.847,0.641c-1.038,0.303-1.736,0.847-1.541,1.303
			c0.126,0.293,0.242,0.569,0.351,0.827c0.199,0.485,0.418,0.976,0.652,1.473l0.657,1.328c-0.236,0.028-0.472,0.059-0.708,0.089
			L6.484,39.835z"/>
	</g>
</g>
<g>
</g>
<g>
</g>
<g>
</g>
<g>
</g>
<g>
</g>
<g>
</g>
<g>
</g>
<g>
</g>
<g>
</g>
<g>
</g>
<g>
</g>
<g>
</g>
<g>
</g>
<g>
</g>
<g>
</g>
</svg>
