<?xml version="1.0" encoding="iso-8859-1"?>
<!-- Generator: Adobe Illustrator 16.0.0, SVG Export Plug-In . SVG Version: 6.00 Build 0)  -->
<!DOCTYPE svg PUBLIC "-//W3C//DTD SVG 1.1//EN" "http://www.w3.org/Graphics/SVG/1.1/DTD/svg11.dtd">
<svg version="1.1" id="Capa_1" xmlns="http://www.w3.org/2000/svg" xmlns:xlink="http://www.w3.org/1999/xlink" x="0px" y="0px"
	 width="41.835px" height="41.835px" viewBox="0 0 41.835 41.835" style="enable-background:new 0 0 41.835 41.835;"
	 xml:space="preserve">
<g>
	<g>
		<path d="M2.19,32.629c1.761,1.531,4.648,3.326,7.587,4.113c0.32,0.213-0.347,0.103,0.819,0.59
			c4.743,1.628,10.335,1.449,15.297,0.418c0.568,0.064,1.797-0.057,3.067-0.367c1.27-0.303,2.547-0.805,3.216-1.216
			c0.043-0.156-2.366,0.767-2.372,0.614c2.226-0.578,4.297-1.364,6.199-2.387c0.271-0.173,0.555-0.334,0.855-0.498
			c0.292-0.16,0.578-0.345,0.855-0.543c0.098-0.059,0.17-0.125,0.22-0.201c0.092-0.138,0.071-0.35,0.044-0.426
			c-0.017-0.049-0.036-0.095-0.06-0.138c-0.071-0.121-0.193-0.194-0.36-0.229c-0.151-0.031-0.306-0.013-0.458,0.041
			c-0.014-0.024-0.027-0.049-0.039-0.08l-0.027-0.076l-0.102-0.018c-0.202-0.039-0.381-0.055-0.584-0.05
			c-0.046,0-0.104,0.004-0.173,0.017c-0.076,0.017-0.073,0.012-0.162,0.047l-0.242,0.092l-1.024,0.34
			c-0.685,0.227-1.376,0.438-2.073,0.641c-1.395,0.4-2.812,0.752-4.247,1.024c-2.881,0.541-5.824,0.813-8.778,0.758
			c-2.171-0.026-4.338-0.237-6.466-0.61c-0.752-0.154-1.501-0.32-2.241-0.518c-3.433-0.91-6.567-2.172-9.413-3.786
			c-0.117-0.069-0.229-0.104-0.331-0.104c-0.117,0-0.218,0.053-0.303,0.152c-0.007,0.008-0.004,0.018-0.01,0.024
			c-0.207-0.103-0.404-0.185-0.596-0.202c-0.208,0.07-0.199,0.252-0.252,0.318c-0.037,0.084-0.05,0.113-0.02,0.092
			c0.023-0.01,0.067-0.078,0.123-0.158C0.145,30.595,0.896,31.509,2.19,32.629z M36.784,32.486c0.002,0.008,0.005,0.018,0.008,0.024
			c-0.013,0.004-0.023,0.009-0.035,0.013l-0.026-0.019C36.76,32.523,36.778,32.518,36.784,32.486z M28.064,34.628
			c1.525-0.269,3.023-0.625,4.496-1.03c0.735-0.207,1.464-0.421,2.186-0.654l0.514-0.166c0.056,0.039-0.438,0.236-0.312,0.254
			c0.47-0.086,0.968-0.213,1.289-0.356c0.063-0.015,0.134-0.024,0.203-0.03c-0.144,0.043-0.292,0.094-0.433,0.149
			c-2.415,0.862-4.839,1.502-7.264,1.916c-2.429,0.416-4.807,0.624-7.143,0.624c-0.519,0-1.03-0.03-1.543-0.049
			C22.752,35.308,25.442,35.088,28.064,34.628z M0.207,30.214c0.006-0.009,0.01-0.015,0.016-0.022
			c0.041-0.037,0.033-0.043,0.08-0.037c0.067,0.004,0.101,0.02,0.168,0.045l0.357,0.193c0,0.004-0.005,0.008-0.005,0.012
			c0,0.104,0.075,0.213,0.229,0.334c2.677,2.25,5.713,4.012,9.117,5.281c1.606,0.6,3.272,1.051,4.993,1.367
			c-2.533-0.333-5.022-0.98-7.312-2.009C5.025,34.1,2.521,32.303,0.46,30.252C0.335,30.201,0.259,30.197,0.207,30.214z"/>
		<path d="M35.14,29.699c-0.501,0.144-0.999,0.306-1.493,0.515l-0.004,0.001l-0.005,0.003c-0.172,0.114-0.329,0.237-0.479,0.381
			c-0.071,0.089-0.153,0.113-0.199,0.3c0.052,0.194,0.166,0.205,0.268,0.266l0.014,0.009l0.028-0.004
			c0.331-0.042,0.667-0.07,1.004-0.101c0.047-0.002,0.098-0.006,0.151-0.015c0.2-0.017,0.401-0.042,0.602-0.062
			c0.029,0,0.058-0.006,0.086-0.006c0.148,0,0.298-0.008,0.449-0.025c0.08-0.01,0.204-0.025,0.34-0.042
			c0.769-0.032,1.539-0.031,2.312-0.038c0.219,0.322,0.422,0.713,0.473,1.091c-0.015,0.392-0.176,0.812-0.283,1.208l-0.382,1.193
			l-0.469,1.145c-0.035,0.086-0.08,0.207-0.123,0.327c-0.008,0.017-0.015,0.035-0.022,0.058c-0.007,0.019-0.013,0.029-0.019,0.051
			c-0.014,0.138,0.134,0.158,0.196,0.168c0.079,0.012,0.15,0.014,0.211,0.017c0.205,0.03,0.244,0.013-0.062-0.044
			c-0.052-0.014-0.133-0.036-0.225-0.062c-0.015-0.008-0.038-0.015-0.045-0.027c-0.006-0.012-0.004-0.025-0.002-0.041
			c0.001-0.029,0.001-0.059,0.025-0.1c0.009-0.019,0.019-0.037,0.023-0.055l0.1-0.24c0.005-0.014,0.014-0.033,0.02-0.047
			l0.002-0.006l0.268-0.65c0.191-0.432,0.329-0.89,0.472-1.342c0.137-0.457,0.284-0.914,0.376-1.386
			c0.029-0.485-0.24-0.929-0.493-1.321c0.661,0.043,1.096,0.19,1.293,0.45c0.135,0.169,0.177,0.443,0.126,0.823
			c-0.045,0.384-0.154,0.807-0.318,1.271s-0.333,0.936-0.519,1.41l-0.321,0.773l-0.593,0.445c-0.109,0.197,0.09,0.121,0.454-0.109
			l-0.024,0.059c-0.072,0.202-0.03,0.338,0.111,0.405c0.082,0.038,0.17,0.038,0.263,0.001c0.139-0.057,0.561-0.379,0.914-0.727
			c0.211-0.205,0.408-0.43,0.592-0.672c0.366-0.49,0.659-0.985,0.873-1.486c0.217-0.5,0.395-0.996,0.525-1.484
			c0.136-0.49,0.206-0.908,0.206-1.242v-0.207c0-0.168-0.021-0.309-0.058-0.418c-0.017-0.049-0.032-0.094-0.05-0.135
			c-0.029-0.072-0.207-0.232-0.415-0.305c-0.106-0.037-0.234-0.072-0.381-0.107c-0.184-0.043-0.394-0.078-0.628-0.107
			c-0.008-0.004-0.014-0.008-0.022-0.012l-0.014-0.004h-0.005c-0.54-0.089-1.073-0.137-1.603-0.158
			c-0.212-0.08-0.713-0.121-1.211-0.123h-0.01l-0.009,0.002c-0.381,0.035-0.752,0.094-0.973,0.16
			c-0.026,0.06,0.845-0.07,0.827-0.023c-0.303,0.095-0.843,0.125-1.36,0.188C35.63,29.542,35.356,29.617,35.14,29.699z
			 M37.736,30.812c0.155,0,0.3,0,0.437,0c0.014,0,0.022,0.002,0.037,0.002c-0.291,0.004-0.582,0.004-0.873,0.006
			C37.47,30.818,37.604,30.812,37.736,30.812z M35.471,29.71c0.011-0.003,0.022-0.005,0.033-0.007
			c-0.033,0.008-0.065,0.017-0.098,0.023C35.429,29.722,35.449,29.715,35.471,29.71z M35.087,30.057
			c-0.307,0.143-0.594,0.301-0.866,0.475c-0.207,0.136-0.285,0.265-0.253,0.383c0.013,0.047,0.059,0.072,0.099,0.1
			c-0.27,0.023-0.541,0.044-0.808,0.077h-0.001l0,0c-0.086-0.042-0.195-0.093-0.214-0.194c0.025-0.099,0.108-0.166,0.176-0.236
			c0.145-0.137,0.302-0.26,0.467-0.366h-0.002c0.044-0.017,0.089-0.033,0.133-0.05c-0.011,0.021-0.132,0.084-0.093,0.086
			c0.373-0.1,0.723-0.258,0.654-0.279c0.388-0.072,0.896-0.163,1.348-0.232C35.493,29.893,35.267,29.973,35.087,30.057z
			 M35.978,29.736c-0.002-0.004,0.007-0.01,0.042-0.018c0.007,0,0.018,0,0.024,0C36.021,29.725,36,29.73,35.978,29.736z
			 M36.085,29.602l0.723-0.061c-0.1,0.018-0.204,0.037-0.321,0.064c-0.304,0.01-0.605,0.03-0.898,0.084
			c0.16-0.033,0.318-0.068,0.479-0.084C36.072,29.604,36.079,29.602,36.085,29.602z"/>
		<path d="M23.559,25.605c-0.024,0.01-0.045,0.016-0.069,0.024l-0.033,0.019L23.559,25.605z"/>
		<path d="M31.09,10.549c0-0.637-0.051-1.244-0.152-1.822c-0.104-0.578-0.281-1.133-0.543-1.661
			c-0.265-0.526-0.658-1.02-1.183-1.471c-0.896-0.755-1.95-1.281-3.166-1.573c-0.021-0.005-0.041-0.006-0.062-0.012
			c-0.149-0.062-0.294-0.133-0.449-0.189c-1.424-0.389-2.837-0.507-4.281-0.526h-0.01l-0.01,0.001
			c-1.098,0.09-2.189,0.206-3.281,0.451C16.866,4,15.812,4.442,14.876,5.048c-0.939,0.63-1.734,1.424-2.315,2.403
			c-0.281,0.488-0.493,1.005-0.651,1.54c-0.037,0.134-0.081,0.271-0.108,0.402c-0.025,0.156-0.074,0.204-0.079,0.461
			c0.072,0.382,0.25,0.592,0.504,0.817l0.035,0.03l0.059,0.007l2.606,0.315c0.436,0.049,0.871,0.091,1.311,0.117
			c0.224,0.009,0.434,0.026,0.684,0.002c0.086-0.005,0.19-0.052,0.242-0.108l0.07-0.071c0.371,0.02,0.632,0.016,0.693-0.024
			c0.082-0.054,0.151-0.118,0.211-0.194c0.118-0.146,0.192-0.304,0.224-0.477c0.188-0.803,0.588-1.408,1.21-1.812
			c0.344-0.222,0.714-0.388,1.102-0.509l0.231-0.033h-0.014v-0.01c0.004,0,0.008-0.001,0.013-0.002h-0.013V7.886
			c0.029-0.008,0.057-0.017,0.085-0.023c0.37-0.031,1.101-0.066,0.943-0.099c-0.03-0.007-0.061-0.009-0.09-0.015h0.152
			c0.444,0,0.884,0.086,1.326,0.256c0.445,0.171,0.8,0.454,1.076,0.849c0.304,0.411,0.462,0.884,0.479,1.413
			c0.021,0.533,0.024,1.045,0.024,1.545v0.281c0,0.156-0.336,0.332-0.755,0.374c-0.146,0.014-0.296,0.025-0.445,0.037
			c-0.231-0.184-0.727-0.465-1.008-0.466c-0.376-0.004-0.716-0.019-1.171-0.007l-1.247,0.082c-0.852,0.078-1.762,0.153-2.725,0.363
			c-0.474,0.102-0.969,0.247-1.451,0.422c-0.424,0.168-0.927,0.362-1.374,0.617c-0.922,0.493-1.716,1.168-2.37,1.995
			c-0.196,0.138-0.187,0.028-0.265,0.024c-0.039-0.003-0.1,0.022-0.217,0.116c-0.152,0.133-0.326,0.325-0.595,0.697
			c-0.959,1.536-1.187,3.395-1.01,5.104c0.094,0.879,0.337,1.791,0.8,2.625c0.463,0.844,1.158,1.541,1.941,2.031
			c1.54,1.014,3.438,1.271,5.092,1.111c0.832-0.062,1.655-0.173,2.474-0.359c0.752-0.186,1.337-0.504,1.926-0.826
			c0.186-0.075,0.368-0.162,0.551-0.252c0.135-0.037,0.281-0.084,0.45-0.151l0.13-0.065c0.303-0.156,0.778-0.379,1.211-0.477
			c0.1-0.023,0.676,0.703,0.676,0.703l0.03,0.037l0.042,0.037c0.324,0.283,0.636,0.516,0.973,0.74
			c0.168,0.111,0.338,0.219,0.527,0.319c0.097,0.052,0.191,0.101,0.316,0.149l0.094,0.035c0.061,0.021,0.124,0.039,0.187,0.051
			c0.081,0.017,0.086,0.013,0.108,0.016l0.125,0.005l0.104-0.011c0.258-0.049,0.341-0.111,0.448-0.163
			c0.1-0.056,0.181-0.108,0.259-0.161c0.154-0.105,0.284-0.21,0.405-0.312c0.157-0.133,0.29-0.258,0.412-0.379
			c0.222-0.15,0.451-0.326,0.656-0.483c0.259-0.199,0.539-0.412,0.843-0.638c0.668-0.494,1.21-0.928,1.631-1.299
			c0.162-0.129,0.248-0.289,0.248-0.473c0-0.186-0.064-0.361-0.197-0.527c-0.409-0.479-0.788-0.982-1.126-1.517
			c-0.331-0.534-0.501-1.285-0.501-2.263v-6.427V10.549z M21.735,3.582c-0.963,0.067-1.925,0.214-2.877,0.441
			c-0.954,0.227-1.836,0.579-2.649,1.058c-0.812,0.479-1.514,1.096-2.106,1.852C13.515,7.687,13.1,8.621,12.86,9.729
			c-0.065,0.268-0.02,0.462,0.14,0.579c0.159,0.116,0.318,0.193,0.487,0.227l2.09,0.265c0.244,0.031,0.481,0.058,0.709,0.081
			c-0.011,0-0.022,0-0.033,0c-0.432-0.024-0.864-0.066-1.297-0.114l-2.585-0.309c-0.188-0.158-0.359-0.39-0.397-0.628
			C12,9.59,12.083,9.308,12.152,9.057c0.152-0.516,0.358-1.019,0.628-1.487c0.55-0.929,1.336-1.72,2.239-2.32
			c0.913-0.591,1.934-1.017,2.996-1.264c1.065-0.238,2.152-0.353,3.236-0.44h0.002h0.002c0.341,0.004,0.683,0.016,1.023,0.035
			L21.735,3.582L21.735,3.582z M16.797,13.787c-1.411,0.568-2.532,1.411-3.372,2.532c-0.841,1.124-1.261,2.525-1.261,4.205
			c0,2.03,0.611,3.557,1.831,4.571c0.469,0.39,0.994,0.681,1.548,0.921c-0.245-0.062-0.49-0.119-0.727-0.214
			c-0.666-0.258-1.288-0.629-1.828-1.11c-0.518-0.467-0.925-1.086-1.179-1.758c-0.504-1.351-0.535-2.904-0.244-4.322
			c0.297-1.438,1.181-2.709,2.325-3.602c1.147-0.898,2.551-1.421,3.943-1.722c0.351-0.065,0.708-0.102,1.064-0.152
			C18.157,13.296,17.456,13.507,16.797,13.787z M24.888,16.539c0,0.805-0.009,1.551-0.036,2.234
			c-0.023,0.687-0.286,1.397-0.775,2.135c-0.272,0.486-0.607,0.881-1.008,1.184c-0.689,0.521-1.474,0.641-1.545,0.652
			c-0.039,0.008-0.082,0.016-0.129,0.027c-0.098,0.025-0.219,0.039-0.354,0.039c-0.832,0-1.486-0.275-1.963-0.822
			c-0.477-0.551-0.715-1.279-0.715-2.185c0-1.134,0.323-1.99,0.968-2.572c0.649-0.584,1.419-1.012,2.321-1.285
			c0.495-0.103,1.02-0.172,1.569-0.207c0.275-0.017,0.554-0.029,0.832-0.037c0.46-0.014,0.835,0.177,0.835,0.412
			S24.888,16.539,24.888,16.539z M26.416,25.008l-0.045-0.045c0.006,0.005,0.014,0.01,0.02,0.016l-0.522-0.613l-0.063-0.073
			c0.184,0.003,0.35,0.043,0.456,0.167c0.289,0.335,0.523,0.605,0.523,0.605c0.162,0.184,0.398,0.41,0.708,0.682
			c0.102,0.09,0.214,0.181,0.331,0.267c-0.129-0.067-0.375-0.213-0.561-0.351c-0.298-0.213-0.602-0.449-0.872-0.684L26.416,25.008z
			 M28.332,26.74c-0.051,0.024-0.112,0.049-0.175,0.072c-0.083,0.021-0.107,0.049-0.31,0.049l-0.076-0.01l-0.141-0.039
			c-0.075-0.029-0.119-0.049-0.171-0.074c-0.193-0.099-0.344-0.196-0.469-0.285c-0.248-0.178-0.388-0.309-0.348-0.33l0.757,0.361
			c0.137,0.051,0.309,0.16,0.538,0.142c0.222-0.048,0.348-0.147,0.507-0.24c0.001-0.001,0.002-0.002,0.004-0.003
			c0.125,0.057,0.239,0.092,0.335,0.098C28.642,26.566,28.493,26.654,28.332,26.74z"/>
	</g>
</g>
<g>
</g>
<g>
</g>
<g>
</g>
<g>
</g>
<g>
</g>
<g>
</g>
<g>
</g>
<g>
</g>
<g>
</g>
<g>
</g>
<g>
</g>
<g>
</g>
<g>
</g>
<g>
</g>
<g>
</g>
</svg>
