<?xml version="1.0" encoding="iso-8859-1"?>
<!-- Generator: Adobe Illustrator 16.0.0, SVG Export Plug-In . SVG Version: 6.00 Build 0)  -->
<!DOCTYPE svg PUBLIC "-//W3C//DTD SVG 1.1//EN" "http://www.w3.org/Graphics/SVG/1.1/DTD/svg11.dtd">
<svg version="1.1" id="Capa_1" xmlns="http://www.w3.org/2000/svg" xmlns:xlink="http://www.w3.org/1999/xlink" x="0px" y="0px"
	 width="48.992px" height="48.991px" viewBox="0 0 48.992 48.991" style="enable-background:new 0 0 48.992 48.991;"
	 xml:space="preserve">
<g>
	<g>
		<path d="M6.95,48.854c2.119,0.603,4.784-0.932,6.604-1.735c5.062-2.239,10.181-9.341,15.915-5.812
			c2.425,1.493,4.266,3.941,5.83,6.248c0.365,0.54,0.903,1.184,1.604,1.123c0.195-0.017,0.379-0.042,0.554-0.072
			c0.305-0.056,0.575-0.073,0.612-0.011s0.153,0.025,0.261-0.083s0.999-0.516,1.845-1.147c0.464-0.349,0.938-0.751,1.487-1.196
			c1.881-1.521,3.229-1.913,2.518-4.565c-1.144-4.262-7.364-7.964-10.833-9.957c-4.538-3.211,2.682-2.542,4.965-3.097
			c1.985-0.481,6.448-2.026,7.34-4.126c0.831-1.956-1.248-4.121-2.281-5.751c-0.778-1.229-5.182-0.378-7.761,0.304
			c-1.068,0.283-2.784,0.435-3.632-0.273c-0.743-0.619-1.383-1.391-2.256-1.807c-0.965-0.46-1.932-0.921-2.896-1.384
			c-1.877-0.902-3.141-1.498-5.187-0.733c-2.719,1.017-4.184,4.398-5.163,6.838c-0.811,2.018-1.158,4.371-1.302,6.529
			c-0.242,3.609-0.816,5.575-3.155,8.471c-1.892,2.34-4.397,2.764-6.912,4.027c-1.367,0.687-1.467,0.473-1.925,1.738
			C2.798,43.433,5.685,48.495,6.95,48.854z M5.701,43.353c-0.069-0.149-0.137-0.3-0.204-0.451c-0.044-0.1-0.075-0.194-0.094-0.286
			c-0.035-0.163,0.379-0.663,0.876-1.111c0.497-0.449,1.202-0.934,1.581-1.067c0.28-0.101,0.522-0.185,0.682-0.258
			c2.47-1.133,4.311-2.526,6.028-4.651c1.69-2.091,2.376-3.851,2.434-6.415c0.003-0.142,0.012-0.312,0.025-0.509
			c0.019-0.281,0.544-0.978,1.165-1.557c0.62-0.58,1.139-1.16,1.158-1.294c0.02-0.135-0.476,0.271-1.108,0.902
			c-0.632,0.633-1.055,0.254-0.881-0.836c0.008-0.049,0.016-0.1,0.024-0.149c0.178-1.09,0.995-2.607,1.765-3.399
			c0.046-0.047,0.092-0.095,0.138-0.142c0.77-0.792,1.573-1.888,1.833-2.433c0.261-0.544-0.066-0.423-0.77,0.25
			c-0.394,0.377-0.817,0.781-1.273,1.217c-0.157,0.156-0.311,0.31-0.464,0.462c-0.256,0.255-0.245-0.407,0.128-1.447
			c1.131-3.16,2.886-5.609,5.468-4.369c3.704,1.779,6.406,4.713,10.646,4.896c1.464,0.063,3.421-0.396,4.699-1.061
			c2.033-1.058,2.991,1.33,3.663,2.442c1.296,2.146,1.878,2.307-2.61,4.794c-0.348,0.193-16.073,0.498-9.08,5.444
			c3.968,2.282,7.356,4.996,10.054,8.736c2.109,2.923-0.586,4.324-2.525,5.894c-0.008,0.007-0.019,0.011-0.028,0.015
			c-0.016,0.007-0.08-0.061-0.144-0.152c-0.063-0.093-0.218-0.065-0.344,0.06s-0.575,0.148-0.944-0.074
			c-0.369-0.222-0.427-0.664-0.173-0.924s0.363-0.595,0.241-0.748c-0.123-0.152-0.452-0.049-0.733,0.231
			c-0.192,0.19-0.66,0.063-1.17-0.294c0.134,0.056,0.396-0.063,0.646-0.314c0.29-0.291,0.438-0.626,0.325-0.745
			c-0.114-0.119-0.432,0.01-0.711,0.288c-0.27,0.27-0.407,0.584-0.325,0.726c-0.219-0.161-0.441-0.36-0.654-0.601
			c-0.414-0.47-0.815-0.947-1.182-1.379c-0.713-0.843-1.189-1.634-1.006-1.82c0.184-0.186,0.254-0.389,0.155-0.448
			c-0.101-0.061-0.318,0.032-0.49,0.209c-0.171,0.175-0.751-0.061-1.334-0.476c-0.582-0.415-1-0.793-0.897-0.899
			c0.104-0.107-0.105-0.323-0.473-0.468c-0.221-0.087-0.445-0.17-0.672-0.247c-0.034-0.013-0.07-0.021-0.106-0.028
			c-0.06-0.012-0.162,0.032-0.228,0.098c-0.066,0.067-0.801-0.206-1.697-0.42c-0.561-0.135-1.118-0.199-1.654-0.167
			c-3.122,0.187-9.615,7.535-14.188,9.26c-1.034,0.391-1.883,0.281-1.796,0.194c0.087-0.086,0.036-0.39-0.109-0.679
			c-0.093-0.187-0.179-0.362-0.256-0.527c0,0-0.045-0.09-0.1-0.202c-0.055-0.111-0.357,0.034-0.673,0.327
			c-0.317,0.292-0.755,0.354-0.932,0.098c-0.101-0.145-0.196-0.306-0.285-0.483c-0.145-0.291-0.288-0.581-0.428-0.872
			c-0.233-0.483-0.131-1.168,0.222-1.528c0.353-0.358,0.625-0.683,0.607-0.723c-0.012-0.024-0.022-0.049-0.033-0.073
			c-0.038-0.092-0.079-0.188-0.121-0.288c-0.067-0.159-0.42-0.015-0.791,0.319C6.206,43.528,5.814,43.601,5.701,43.353z"/>
		<path d="M28.914,13.123c1.062,0.303,2.037,0.368,2.127,0.37c0.049,0.002,0.103,0,0.164-0.003c3.667-0.195,7.145-1.644,8.645-5.201
			c2.039-4.837-3.727-8.07-7.616-8.276c-3.71-0.196-7.272,1.874-8.717,5.282C21.843,9.238,25.448,12.132,28.914,13.123z
			 M27.889,3.641c-0.37,0.339-0.737,0.676-1.101,1.01c-0.813,0.747-1.417,0.43-0.911-0.552c0.414-0.804,1.06-1.587,1.978-2.31
			c0.483-0.381,0.997-0.652,1.527-0.829c0.914-0.306,1.327,0.091,0.848,0.531s-0.418,0.372,0.232-0.007
			c0.383-0.224,0.795-0.414,1.235-0.569c0.012-0.004,0.024-0.008,0.036-0.011c0.021-0.006,0.067-0.042,0.104-0.081
			s0.971,0.042,1.979,0.492c1.591,0.708,2.983,1.941,3.78,3.288c1.876,3.172-0.458,6.424-3.526,7.593
			c-1.032,0.393-2.216,0.421-2.548,0.373c-0.332-0.047-0.575-0.126-0.549-0.15c0.016-0.015,0.031-0.029,0.047-0.043
			c0.011-0.011,0.021-0.022,0.032-0.032c0.018-0.018-0.045-0.066-0.14-0.108c-0.094-0.042-0.214-0.032-0.271,0.026
			c-0.057,0.058-0.402,0.03-0.761-0.092c-0.359-0.122-0.542-0.35-0.421-0.473c0.119-0.123,0.146-0.274,0.057-0.333
			c-0.09-0.06-0.28-0.019-0.422,0.11c-0.143,0.129-0.894-0.077-1.562-0.632c-0.669-0.555-0.856-1.389-0.575-1.705
			c0.282-0.316,0.389-0.894,0.309-1.31c-0.081-0.416-0.411-0.432-0.805-0.027c-0.395,0.405-0.821,0.498-0.916,0.196
			c-0.094-0.303,0.291-1.002,0.823-1.551c0.534-0.549,1.03-1.253,1.147-1.559c0.07-0.182,0.149-0.362,0.243-0.54
			c0.204-0.389,0.439-0.756,0.707-1.1C28.914,2.674,28.702,2.894,27.889,3.641z"/>
		<path d="M10.108,40.329c0.336-0.119,1.232-0.864,2.007-1.65c1.638-1.66,3.289-3.334,4.952-5.018
			c0.776-0.786,1.057-1.104,0.627-0.708c-0.254,0.234-0.513,0.472-0.778,0.715c-1.982,1.837-3.963,3.677-5.949,5.512
			C10.155,39.93,9.772,40.448,10.108,40.329z"/>
		<path d="M17.903,30.904c0.603-0.553,1.101-1.412,1.127-1.918s-0.414-0.475-1,0.07s-1.066,1.138-1.075,1.323
			c-0.005,0.112-0.01,0.226-0.01,0.337c0.014,0.146,0.023,0.292,0.028,0.438c0.009,0.242-0.031,0.509-0.078,0.595
			C16.848,31.836,17.299,31.457,17.903,30.904z"/>
		<path d="M35.267,43.443c0.267-0.266,0.312-0.649,0.089-0.849c-0.223-0.198-0.611-0.158-0.863,0.085
			c-0.252,0.244-0.284,0.616-0.078,0.839C34.621,43.74,35,43.709,35.267,43.443z"/>
	</g>
</g>
<g>
</g>
<g>
</g>
<g>
</g>
<g>
</g>
<g>
</g>
<g>
</g>
<g>
</g>
<g>
</g>
<g>
</g>
<g>
</g>
<g>
</g>
<g>
</g>
<g>
</g>
<g>
</g>
<g>
</g>
</svg>
