<?xml version="1.0" encoding="iso-8859-1"?>
<!-- Generator: Adobe Illustrator 16.0.0, SVG Export Plug-In . SVG Version: 6.00 Build 0)  -->
<!DOCTYPE svg PUBLIC "-//W3C//DTD SVG 1.1//EN" "http://www.w3.org/Graphics/SVG/1.1/DTD/svg11.dtd">
<svg version="1.1" id="Capa_1" xmlns="http://www.w3.org/2000/svg" xmlns:xlink="http://www.w3.org/1999/xlink" x="0px" y="0px"
	 width="51.126px" height="51.126px" viewBox="0 0 51.126 51.126" style="enable-background:new 0 0 51.126 51.126;"
	 xml:space="preserve">
<g>
	<g>
		<path d="M5.65,41.064c-0.227,0.016-0.448,0.067-0.66,0.169c-0.904,0.426-0.942,1.306-1.041,2.162
			c-0.119,1.037-0.238,2.074-0.356,3.111c-0.099,0.868,0.062,1.786,1.188,1.692c0.851-0.071,1.549-0.68,2.228-1.143
			c0.82-0.56,3.215-1.731,3.402-2.942c0.084-0.546-0.365-0.968-0.43-1.025c-0.035-0.03-0.078-0.062-0.128-0.091
			c-0.029-0.017-0.059-0.035-0.089-0.053c-0.049-0.03,0.338,0.071,0.875,0.051c0.362-0.014,0.677-0.102,0.916-0.283
			c2.64-2.021,4.062-6.192,5.688-9.022c1.614-2.812,3.228-5.621,4.842-8.432c1.038-1.808,4.917-6.228,4.326-8.436
			c-0.392-1.461-4.523-3.684-5.935-2.603c-2.543,1.948-3.882,5.878-5.455,8.616c-1.688,2.939-3.375,5.879-5.063,8.82
			c-1.039,1.81-4.932,6.243-4.34,8.453c0.047,0.175,0.149,0.358,0.293,0.549C6.119,40.934,6.028,41.038,5.65,41.064z M20.409,16.753
			c0.114-0.199,0.229-0.398,0.343-0.598c0.275-0.479,0.626-0.781,0.803-0.699c0.177,0.081,0.008,0.467-0.377,0.863
			c-0.19,0.194-0.38,0.39-0.569,0.584C20.223,17.3,20.134,17.231,20.409,16.753z M7.673,38.935c0.651-1.134,1.302-2.268,1.953-3.399
			c0.275-0.478,0.809-1.188,1.192-1.585c1.208-1.248,2.415-2.493,3.618-3.723c0.106-0.109,0.211-0.219,0.316-0.326
			c0.175-0.181,0.539-0.715,0.814-1.193l0.811-1.412c0.275-0.479,0.181-0.551-0.211-0.161c-1.123,1.117-2.219,2.207-3.294,3.276
			c-0.391,0.39-0.485,0.316-0.21-0.162c1.43-2.49,2.859-4.981,4.289-7.472c0.275-0.479,0.817-1.182,1.21-1.569
			c1.078-1.065,2.156-2.129,3.235-3.191c0.393-0.388,0.872-0.98,1.069-1.323c0.196-0.342,0.761-0.42,1.205-0.091
			c0.579,0.428,0.96,0.917,0.684,1.399c-1.364,2.376-2.727,4.753-4.091,7.129c-2.533,4.411-5.066,8.822-7.599,13.234
			c-0.467,0.812-0.934,1.625-1.4,2.438c-0.275,0.479-0.797,0.672-1.207,0.478c-0.409-0.195-0.811-0.474-0.865-0.625
			c-0.054-0.151-0.127-0.224-0.208-0.148c-0.081,0.075-0.551-0.071-0.955-0.447C7.647,39.703,7.452,39.319,7.673,38.935z
			 M6.684,44.438c0.411-0.369,0.748-0.716,0.754-0.771c0.006-0.057,0.214,0.016,0.464,0.158c0.25,0.144,0.688,0.452,0.509,0.604
			c-0.097,0.082-0.256,0.149-0.361,0.223c-0.421,0.287-0.843,0.574-1.264,0.86c-0.182,0.124-0.408,0.306-0.651,0.494
			C5.78,46.284,5.51,46.25,5.549,45.947s0.402-0.849,0.813-1.218C6.469,44.633,6.577,44.535,6.684,44.438z M6.226,42.863
			c0.147,0.085,0.121,0.288-0.058,0.454c-0.178,0.167-0.297,0.098-0.265-0.152C5.935,42.914,6.08,42.779,6.226,42.863z"/>
		<path d="M46.104,22.602c-1.465,0-2.93,0-4.394,0c-0.017,0-0.036,0.002-0.058,0.005c-0.032,0.004-0.133,0.006-0.225,0.011
			c-0.051,0.002-0.104,0.007-0.166,0.015c-0.608,0.077-1.483,0.204-1.932,0.684c-0.925,0.989-0.143,1.961,0.402,2.994
			c0.666,1.266,1.33,2.533,1.996,3.801c0.388,0.738,0.568,1.507,1.379,1.813c1.402,0.532,3.466,0.212,4.936,0.212
			c1.074,0,3.031-0.245,3.031-1.7c0-1.438,0-2.873,0-4.311c0-1.36,0.432-3.059-1.206-3.498
			C48.753,22.328,47.243,22.602,46.104,22.602z M41.027,24.109c-0.133-0.366,0.236-0.679,0.689-0.679s0.543,0.299,0.197,0.668
			C41.569,24.467,41.159,24.478,41.027,24.109z M49.284,31.307c-0.692,0-1.383,0-2.074,0c-0.342,0-0.683,0-1.024,0
			c-0.491,0-0.863-0.057-1.164-0.173c-0.514-0.199-0.629-0.757-0.44-0.946c0.188-0.191,0.291-0.444,0.228-0.565
			c-0.037-0.071-0.074-0.143-0.114-0.22c-0.009-0.019-0.019-0.037-0.03-0.058c-0.018-0.031-0.193,0.109-0.395,0.316
			c-0.203,0.206-0.422,0.276-0.488,0.154c-0.039-0.071-0.079-0.146-0.12-0.225c-0.071-0.136-0.282-0.535-0.556-1.069
			c-0.254-0.491-0.291-1.059-0.092-1.262c0.201-0.203,0.219-0.641,0.043-0.977c-0.178-0.336-0.478-0.45-0.67-0.256
			c-0.193,0.193-0.461,0.124-0.595-0.159c-0.133-0.283-0.046-0.709,0.193-0.951c0.237-0.24,0.469-0.704,0.688-0.916
			c0.221-0.211,0.545-0.333,0.629-0.418c0.084-0.084,0.49-0.153,0.906-0.153c0.417,0,0.703,0.052,0.641,0.115
			c-0.063,0.064,0.291,0.114,0.789,0.114c0.5,0,0.955-0.052,1.019-0.115s0.56-0.162,1.112-0.156c0.681,0.007,1.373,0.16,1.373,0.944
			c0,1.031,0,2.062,0,3.094c0,1.088,0,2.175,0,3.261C49.143,31.187,50.051,31.307,49.284,31.307z"/>
		<path d="M27.727,22.589c-1.543,0-3.036,0.445-4.146,1.467c-0.407,0.374-0.676,0.771-0.698,0.801
			c-0.019,0.025-0.034,0.037-0.042,0.052c-0.764,1.331-4.48,5.889-2.534,7.065c0.69,0.417,2.278,0.175,3.03,0.175
			c2.01,0,4.021,0,6.031,0c1.02,0,2.202,0.122,3.145-0.354c2.188-1.104,0.275-3.491-0.449-5.067
			C31.126,24.688,30.331,22.589,27.727,22.589z M24.417,25.177c0.169-0.295,0.56-0.914,0.991-1.259
			c0.226-0.18,0.451-0.303,0.672-0.377c0.523-0.175,0.958-0.026,0.926-0.026h-0.058c-0.089,0-0.181,0.007-0.272,0.018
			c-0.149,0.018-0.598,0.35-1.002,0.726c-0.277,0.257-0.553,0.514-0.83,0.77C24.439,25.404,24.248,25.471,24.417,25.177z
			 M25.838,31.294c-1.318,0-5.31,0.658-3.909-1.784c0.004-0.008,0.009-0.016,0.014-0.023c0.008-0.013,0.342-0.327,0.747-0.703
			c0.723-0.67,1.444-1.339,2.167-2.009c0.405-0.376,0.777-0.758,0.832-0.854l0.099-0.171c0.201-0.35,0.508-0.675,0.871-0.948
			c0.442-0.332,0.948-0.58,1.056-0.68c0.107-0.099,0.557,0.092,0.914,0.513c0.487,0.572,0.898,1.274,1.193,1.929
			c0.152,0.335,2.023,4.73,1.917,4.73C29.771,31.294,27.805,31.294,25.838,31.294z"/>
		<path d="M4.523,32.213c2.057,0,3.813-0.159,5.397-1.651c1.239-1.168,1.986-3.238,2.82-4.692c0.623-1.083,1.239-2.282,0.437-2.925
			c-0.431-0.346-0.998-0.4-1.103-0.411c-0.055-0.006-0.118-0.009-0.189-0.009c-3.159,0-6.616-0.431-9.74,0.021
			C0.284,22.813,0,23.892,0,25.518c0,1.812,0,3.624,0,5.437C0.001,32.775,3.501,32.213,4.523,32.213z M3.798,23.761
			c0.019,0,0.095-0.057,0.169-0.127c0.074-0.069,0.583-0.126,1.135-0.126c0.407,0,0.814,0,1.221,0c0.552,0,0.942,0.057,0.872,0.126
			c-0.071,0.07,0.319,0.127,0.872,0.127h0.146c0.552,0,1.055-0.057,1.123-0.126c0.068-0.07,0.455-0.127,0.864-0.127
			s0.786,0.008,0.839,0.022c0.053,0.015,0.051,0.074-0.003,0.13c-0.054,0.056,0.017,0.101,0.159,0.101
			c0.142,0,0.508,0.419,0.365,0.953c-0.254,0.953-1.178,2.186-1.454,2.667c-0.639,1.112-1.2,2.474-2.15,3.368
			c-1.006,0.948-3.541,0.479-4.779,0.479c-0.192,0-0.353-0.023-0.488-0.064c-0.261-0.08-0.316-0.356-0.188-0.49
			c0.129-0.133,0.233-0.688,0.233-1.239v-0.396c0-0.553-0.179-0.822-0.4-0.604c-0.221,0.219-0.4-0.054-0.4-0.605
			c0-0.428,0-0.856,0-1.284c0-0.553,0.179-1.167,0.4-1.375c0.221-0.207,0.385-0.789,0.701-1.106
			c0.187-0.188,0.444-0.302,0.729-0.302C3.763,23.761,3.779,23.761,3.798,23.761z M2.448,23.508c0.243,0,0.486,0,0.729,0
			c0.058,0,0.116,0,0.174,0c0.096,0-0.14,0.317-0.529,0.71c-0.062,0.063-0.124,0.126-0.186,0.188
			c-0.389,0.393-0.704,0.542-0.704,0.334c0-0.126,0-0.251,0-0.377c0-0.125-0.007-0.3-0.03-0.46
			C1.868,23.651,2.045,23.508,2.448,23.508z"/>
		<path d="M42.337,31.409c-0.045-0.084-0.325-0.525-0.596-1.007c-3.906-6.987-7.649-14.045-11.679-20.971
			c-1.01-1.734-2.948-6.89-5.437-7.015c-2.155-0.108-1.524,2.515-1.191,3.758c2.125,7.926,6.568,16.028,10.086,23.425
			c1.188,2.496,1.92,5.348,4.785,6.003c2.443,0.559,4.268-1.958,4.078-4.03C42.381,31.51,42.363,31.456,42.337,31.409z
			 M26.029,6.958c-0.101,0.093-0.326-0.257-0.489-0.784c-0.021-0.066-0.041-0.132-0.06-0.198c-0.161-0.528-0.203-0.765-0.088-0.532
			c0.073,0.146,0.15,0.285,0.233,0.406c0.104,0.153,0.201,0.31,0.298,0.468C26.082,6.579,26.131,6.866,26.029,6.958z M26.872,8.737
			c-0.183,0.188-0.42,0.103-0.526-0.19c-0.105-0.293-0.076-0.646,0.062-0.788c0.139-0.142,0.372-0.058,0.524,0.19
			C27.084,8.195,27.055,8.55,26.872,8.737z M39.898,32.934c-0.582,0.789-1.079,1.152-1.493,1.093
			c-0.548-0.081-0.595-0.792-0.45-0.948c0.146-0.157,0.119-0.561-0.061-0.911s-0.453-0.505-0.614-0.343
			c-0.162,0.163-0.412,0.077-0.552-0.196c-0.141-0.272-0.117-0.632,0.049-0.8c0.166-0.167,0.253-0.401,0.193-0.523
			c-0.06-0.12-0.24-0.075-0.406,0.101s-0.469-0.019-0.676-0.436c-0.205-0.417-0.23-0.903-0.061-1.087
			c0.17-0.182,0.188-0.586,0.04-0.902c-0.147-0.317-0.411-0.435-0.588-0.26c-0.177,0.177-0.513-0.086-0.746-0.587
			c-0.374-0.8-0.742-1.603-1.106-2.407c-0.228-0.504-0.256-1.048-0.067-1.215c0.188-0.168,0.332-0.327,0.319-0.355
			c-0.014-0.027-0.172,0.094-0.356,0.271c-0.185,0.179-0.456,0.048-0.606-0.293c-0.149-0.34-0.121-0.758,0.063-0.935
			c0.185-0.177,0.312-0.372,0.284-0.437c-0.028-0.063-0.199,0.03-0.383,0.21c-0.185,0.18-0.189,0.172-0.008-0.012
			c0.184-0.185,0.328-0.343,0.321-0.357s-0.16,0.119-0.344,0.299c-0.185,0.18-0.515-0.084-0.738-0.589
			c-0.177-0.399-0.354-0.799-0.53-1.199c-0.006-0.014-0.012-0.028-0.019-0.042c-0.011-0.023,0.135-0.185,0.323-0.36
			c0.189-0.177,0.223-0.599,0.074-0.942c-0.147-0.345-0.425-0.478-0.619-0.299c-0.192,0.18-0.48,0.036-0.642-0.321
			c-0.161-0.356-0.132-0.795,0.068-0.979c0.2-0.185,0.29-0.496,0.202-0.696c-0.088-0.199-0.323-0.206-0.524-0.017
			c-0.2,0.19-0.495,0.056-0.657-0.299c-0.162-0.354-0.13-0.804,0.07-1.005c0.201-0.2,0.327-0.443,0.283-0.543
			c-0.045-0.1-0.242-0.015-0.443,0.188c-0.199,0.204-0.486,0.098-0.638-0.237s-0.11-0.775,0.093-0.982
			c0.203-0.206,0.337-0.441,0.301-0.525c-0.037-0.084-0.137-0.086-0.223-0.004c-0.051,0.048-0.102,0.096-0.156,0.147
			c-0.076,0.073-0.148,0.143-0.22,0.21c-0.122,0.116-0.397-0.188-0.613-0.682c-0.215-0.494-0.217-1.06-0.008-1.264
			c0.209-0.203,0.201-0.216-0.009-0.016c-0.209,0.2-0.527,0.015-0.709-0.422c-0.182-0.438-0.159-0.978,0.044-1.204
			c0.202-0.228,0.338-0.481,0.306-0.568c-0.033-0.086,0.094,0.11,0.283,0.438c0.113,0.197,0.229,0.395,0.343,0.591
			c1.782,3.055,3.657,6.053,5.39,9.138c2.183,3.886,4.136,7.899,6.281,11.804C40.23,31.708,40.225,32.487,39.898,32.934z"/>
		<path d="M42.65,34.994c-0.98,0.031-1.807,0.544-2.651,0.98c-0.882,0.454-1.743,0.969-1.491,2.111
			c0.152,0.691,0.887,1.465,1.256,2.048c0.474,0.748,0.819,1.543,1.752,1.772c1.344,0.331,3.879-0.82,4.293-2.335
			c0.146-0.532-0.246-1.383-0.472-1.887C44.77,36.426,44.073,34.949,42.65,34.994z M43.864,40.08
			c-0.155,0.32-0.499,0.539-0.912,0.788c-0.032,0.019-0.063,0.038-0.095,0.057c-0.053,0.032-0.139,0.043-0.189,0.018
			c-0.05-0.025-0.011-0.128,0.08-0.221c0.092-0.093,0.09-0.286-0.003-0.435c-0.093-0.146-0.254-0.181-0.36-0.075
			c-0.105,0.105-0.293,0.033-0.416-0.163c-0.125-0.195-0.139-0.44-0.033-0.548c0.105-0.104,0.104-0.329-0.004-0.5l-0.195-0.308
			c-0.367-0.585-0.182-1.312,0.418-1.619c0,0,0.107-0.056,0.24-0.124c0.134-0.069,0.449,0.273,0.705,0.762
			c0.088,0.17,0.178,0.34,0.267,0.51C43.621,38.712,44.104,39.583,43.864,40.08z"/>
		<path d="M43.073,43.188c-0.329,0.442-0.479,0.945-0.503,1.024c-0.024,0.079-0.032,0.217-0.02,0.3
			c0.012,0.084,0.086,0.602,0.311,1.105c0.673,1.51,2.396,2.344,3.934,2.936c0.719,0.276,1.899,0.231,2.426-0.422
			c0.586-0.728,0.438-1.612,0.354-2.487c-0.155-1.629-0.785-3.883-2.735-4.083C45.566,41.428,43.905,42.065,43.073,43.188z
			 M45.54,45.573c0.134-0.139,0.218-0.357,0.201-0.488c-0.011-0.082-0.017-0.162-0.015-0.236c0.009-0.279,0.144-0.571,0.358-0.845
			c0.318-0.403,0.968-0.276,1.157,0.242c0.163,0.445,0.254,0.926,0.328,1.356c0.042,0.24,0.07,0.484,0.091,0.729
			c0.035,0.406,0.032,0.771,0.021,0.812c-0.011,0.043-0.148,0.022-0.312-0.05c-0.101-0.044-0.198-0.088-0.295-0.13
			c-0.325-0.14-0.668-0.312-0.995-0.521C45.616,46.146,45.406,45.713,45.54,45.573z"/>
	</g>
</g>
<g>
</g>
<g>
</g>
<g>
</g>
<g>
</g>
<g>
</g>
<g>
</g>
<g>
</g>
<g>
</g>
<g>
</g>
<g>
</g>
<g>
</g>
<g>
</g>
<g>
</g>
<g>
</g>
<g>
</g>
</svg>
