<?xml version="1.0" encoding="iso-8859-1"?>
<!-- Generator: Adobe Illustrator 16.0.0, SVG Export Plug-In . SVG Version: 6.00 Build 0)  -->
<!DOCTYPE svg PUBLIC "-//W3C//DTD SVG 1.1//EN" "http://www.w3.org/Graphics/SVG/1.1/DTD/svg11.dtd">
<svg version="1.1" id="Capa_1" xmlns="http://www.w3.org/2000/svg" xmlns:xlink="http://www.w3.org/1999/xlink" x="0px" y="0px"
	 width="46.66px" height="46.66px" viewBox="0 0 46.66 46.66" style="enable-background:new 0 0 46.66 46.66;" xml:space="preserve"
	>
<g>
	<g>
		<path d="M22.689,8.551c0.011,0.009,0.021,0.015,0.032,0.023c0.096,0.083,0.214,0.156,0.346,0.219
			c0.004,0.002,0.007,0.005,0.011,0.007c0.007,0.003,0.012,0.003,0.019,0.005c0.068,0.031,0.133,0.066,0.209,0.086
			c0.062,0.019,0.124,0.018,0.185,0.027c0.011,0.001,0.021,0.003,0.031,0.004c0.05,0.006,0.101,0.021,0.149,0.022
			c0.364,0.379,0.895,0.589,1.448,0.464c1.774-0.4,3.021-1.527,3.998-2.679c1.002-1.169,1.87-2.673,2.139-4.569
			c0.154-1.094-0.01-1.995-0.089-1.995c-0.061,0-0.619,0.061-1.333,0.257c-0.144-0.092-0.312-0.187-0.458-0.251
			c-0.038-0.017-0.072-0.03-0.107-0.043c-0.008-0.002-0.017-0.007-0.022-0.009c-0.007-0.002-0.015-0.003-0.021-0.006
			c-0.031-0.01-0.062-0.024-0.091-0.031c-0.018-0.005-0.036-0.004-0.054-0.009c-0.074-0.02-0.148-0.036-0.225-0.047
			c-0.037-0.006-0.073-0.009-0.11-0.013C28.708,0.01,28.671,0.001,28.633,0c-0.063,0.007-0.094,0.01-0.141,0.016
			c-0.052,0.003-0.101-0.006-0.151,0.002c-0.031,0.005-0.058,0.019-0.089,0.025c-0.013,0.001-0.015,0.002-0.011,0.003
			c-0.268,0.061-0.516,0.171-0.766,0.274c-0.56,0.248-1.103,0.545-1.615,0.892c-1.043,0.679-1.9,1.627-2.569,2.674
			C22.766,4.721,22.363,5.64,22.184,6.6c-0.047,0.194-0.077,0.393-0.082,0.598C22.098,7.25,22.083,7.3,22.081,7.352
			C22.104,7.826,22.343,8.257,22.689,8.551C22.689,8.55,22.689,8.55,22.689,8.551z M23.402,8.79
			c-0.037-0.008-0.075-0.014-0.112-0.025c-0.075-0.022-0.148-0.053-0.219-0.087c-0.011-0.005-0.021-0.01-0.03-0.016
			c0.164,0.073,0.338,0.121,0.511,0.131c0.005,0.006,0.009,0.011,0.014,0.017C23.51,8.806,23.457,8.801,23.402,8.79z M22.267,7.786
			c0.057,0.033-0.055-0.294-0.062-0.658c-0.012-0.027-0.024,0.048-0.037,0.09c0.006-0.313,0.073-0.634,0.149-0.94
			c0.274-1.125,0.842-2.192,1.57-3.126c0.707-0.958,1.652-1.725,2.68-2.305c0.514-0.289,1.047-0.544,1.597-0.728
			c0.387-0.112,0.782-0.043,1.149,0.099c0.155,0.061,0.309,0.133,0.455,0.217c0.004,0.002,0.006,0.003,0.008,0.005
			c-0.219,0.062-0.447,0.135-0.684,0.224c-1.488,0.566-2.859,1.501-3.727,2.515c-0.991,1.156-1.854,2.555-2.147,4.367
			c-0.067,0.418,0.04,0.824,0.257,1.153c-0.019-0.001-0.041,0.001-0.06-0.001c-0.118-0.039,0.088-0.015,0.018-0.044
			C22.979,8.577,22.472,8.211,22.267,7.786z"/>
		<path d="M5.866,21.937c0-0.012,0.001-0.024,0.001-0.037c0-0.001-0.001-0.003-0.001-0.003V21.937z"/>
		<path d="M0.993,42.771c0.053,0.136,0.115,0.252,0.18,0.357c0.126,0.2,0.254,0.353,0.381,0.493
			c0.249,0.269,0.494,0.479,0.738,0.672c0.971,0.748,1.973,1.24,2.938,1.523c0.326-0.048-0.467-0.462,0.057-0.443
			c2.087,1.555,5.834,1.52,6.019,0.846c-1.413-0.152-2.84-0.497-4.254-0.969c-1.138-0.391-2.278-0.844-3.369-1.42
			c0.084,0.037,0.166,0.078,0.25,0.113c0.852,0.351,1.731,0.616,2.622,0.838c1.781,0.438,3.611,0.69,5.459,0.846
			c3.697,0.302,7.468,0.191,11.212-0.028c3.747-0.226,7.469-0.56,11.122-0.819l5.445-0.365c0.904-0.062,1.807-0.121,2.73-0.221
			c0.463-0.054,0.929-0.113,1.422-0.221c0.25-0.056,0.506-0.122,0.787-0.232c0.279-0.127,0.603-0.235,0.992-0.709
			c0.104-0.347,0.068-0.67-0.027-0.822c-0.092-0.156-0.199-0.161-0.307-0.102c-0.193,0.152-0.529,0.437-0.889,0.447
			c-0.699,0.068-1.674-0.01-2.95-0.008c-2.53-0.016-6.079,0.095-9.313,0.803c-0.418-0.263,0.275-0.57-1.086-0.797
			c-5.305-0.117-11.133,1.229-16.777,1.328c-1.146-0.965-5.273-1.442-7.021-0.971c-0.183,0.477,2.69,0.507,2.579,0.842
			c-1.055,0.412-2.822,0.068-4.45-0.367l-2.156-0.62c-0.015-0.006-0.032-0.01-0.047-0.017c-0.422-0.176-0.924-0.449-1.041-0.662
			c-0.006-0.001-0.004-0.01-0.005-0.016c0.023,0.002,0.028-0.026,0.081-0.066c0.105-0.098,0.301-0.208,0.504-0.297
			c0.416-0.182,0.893-0.319,1.373-0.438c1.945-0.458,4.012-0.688,6.078-0.896c1.001-0.094,2.008-0.176,3.019-0.245l0,0
			c0.392,0.299,0.912,0.563,1.382,0.729c0.243,0.088,0.489,0.161,0.742,0.219c0.267,0.052,0.476,0.119,0.887,0.106
			c0.547-0.028,0.993-0.098,1.483-0.194c0.463-0.086,0.992-0.248,1.399-0.389c0.882-0.303,1.651-0.592,2.403-0.734
			c0.74-0.15,1.512-0.16,2.207-0.055c0.717,0.119,1.446,0.378,2.252,0.67c1.726,0.491,0.886,0.045,1.431,0.09
			c1.051,0.385,2.258,0.597,3.506,0.293c0.143-0.033,0.271-0.093,0.408-0.139c0.731-0.109,1.364-0.396,1.936-0.771
			c2.263,0.135,4.504,0.336,6.682,0.705c0.521,0.09,1.044,0.179,1.557,0.293c0.758,0.174,2.16,0.357,2.84,0.713
			c0.358,0.16,0.408,0.486,0.459,0.377c0.035-0.012,0.029-0.266-0.147-0.461c-0.127-0.153-0.346-0.299-0.61-0.437
			c-0.06-0.034-0.121-0.065-0.192-0.1c-0.03-0.015-0.05-0.03-0.083-0.043c-0.041-0.017-0.082-0.026-0.123-0.044
			c-0.086-0.035-0.156-0.071-0.258-0.106c-0.176-0.063-0.356-0.114-0.535-0.167c-0.057-0.017-0.111-0.036-0.168-0.052
			c-0.322-0.093-0.646-0.175-0.971-0.249c-0.142-0.034-0.31-0.062-0.484-0.09c-1.096-0.223-2.207-0.371-3.322-0.516
			c-1.308-0.151-2.628-0.256-3.951-0.342c0.954-0.824,1.709-1.889,2.375-2.805c1.043-1.445,1.947-2.971,2.676-4.66
			c0.438-1.016,0.711-1.886,0.711-1.908c0-0.023-0.826-0.406-1.73-1.042c-1.98-1.395-3.432-3.456-3.677-6.516
			c-0.279-3.364,0.937-5.634,2.735-7.261c0.819-0.741,1.129-1.984,0.326-2.743c-0.322-0.305-0.676-0.583-1.054-0.837
			c-0.05-0.045-0.103-0.096-0.149-0.138c-0.233-0.201-0.47-0.386-0.719-0.557c-0.992-0.689-2.126-1.16-3.289-1.451
			c-1.152-0.291-2.383-0.441-3.597-0.295c-1.21,0.131-2.365,0.508-3.476,0.907c-0.549,0.194-1.123,0.405-1.655,0.619
			c-0.538,0.213-1.035,0.318-1.558,0.218c-1.049-0.193-2.12-0.837-3.261-1.169c-1.13-0.376-2.331-0.641-3.562-0.566
			c-1.217,0.061-2.398,0.408-3.471,0.928c-1.074,0.499-2.084,1.24-2.841,2.153c-0.77,0.902-1.377,1.915-1.868,2.966
			c-0.584,1.264-0.988,2.59-1.246,3.935c-0.193,0.77-0.33,1.708-0.351,2.702v0.013v0.006c0.19,2.316,0.842,4.774,0.998,6.185
			c-0.065,0.069-0.327-0.787-0.534-1.653c-0.212-0.865-0.374-1.736-0.472-1.649c0.004,1.104,0.346,3.016,0.983,4.752
			c0.615,1.743,1.505,3.284,2.052,3.857c0.795,1.615,1.737,3.2,2.873,4.659c0.415,0.519,0.857,1.021,1.364,1.479
			c-1.645,0.108-3.282,0.237-4.9,0.414C6.714,40.091,5.735,40.22,4.767,40.4c-0.135,0.029-0.27,0.058-0.405,0.084
			c-0.11-0.136,0.48-0.352,0.315-0.481c-0.693-0.099-1.361,0.041-1.807,0.267c-0.45,0.227-0.652,0.525-0.477,0.628
			c-0.231,0.032-0.48,0.068-0.767,0.203c-0.143,0.067-0.303,0.164-0.46,0.349c-0.077,0.09-0.153,0.209-0.206,0.354
			c-0.029,0.069-0.045,0.151-0.062,0.231l-0.005,0.031L0.891,42.07l0.004,0.08l-0.001,0.002l-0.001,0.006L0.885,42.18l-0.013,0.044
			c0,0.087,0.019,0.226,0.045,0.325C0.941,42.621,0.964,42.699,0.993,42.771z M6.547,22.671l-0.112-0.798
			c0.001,0.029-0.001,0.059,0,0.088l-0.002-0.105l0.002,0.017c-0.054-1.975,0.17-4.199,0.649-5.893
			c0.062,0.274,0.752-1.104,1.479-2.505c0.025-0.174-0.398,0.393-0.439,0.333c0.345-0.548,0.729-1.074,1.169-1.557
			c0.796-0.9,1.843-1.552,2.954-2.031c1.114-0.479,2.335-0.747,3.565-0.709c1.233,0.042,2.429,0.408,3.58,0.832
			c1.139,0.408,2.275,1.131,3.503,0.87c0.594-0.134,1.153-0.419,1.74-0.617c0.582-0.209,1.163-0.426,1.755-0.612
			c1.182-0.376,2.426-0.617,3.672-0.551c1.24,0.075,2.467,0.368,3.616,0.83c0.388,0.17,0.772,0.369,1.146,0.583
			c-0.83-0.349-1.744-0.617-2.771-0.772c-2.573-0.388-4.526,0.437-6.521,1.157c-0.682,0.247-1.352,0.6-2.027,0.619
			c-0.994,0.03-2.048-0.544-2.889-0.867c-0.886-0.337-1.898-0.675-2.892-0.827c-2.312-0.354-4.388,0.437-5.9,1.366
			c-2.862,1.745-5.017,5.35-5.204,9.783c0,0.607,0,1.211,0,1.818c0.024,0.345,0.076,0.669,0.113,1.005
			c-0.132-0.517-0.263-1.019-0.394-1.472C6.317,22.061,6.534,23.031,6.547,22.671z M9.463,33.631
			c-2.007-3.672-3.18-7.706-3.644-11.718c0,0.007-0.001,0.015-0.001,0.022L5.817,21.9c0,0.004,0.001,0.008,0.002,0.013
			c0.001-0.334,0.015-0.667,0.035-1.001c0.005-0.068,0.008-0.136,0.014-0.204c0.007-0.097,0.019-0.194,0.028-0.292
			c-0.031,0.497-0.046,0.993-0.03,1.484c0.353,2.331,0.979,4.566,1.733,6.695c1.057,3.665,2.816,6.751,4.92,9.313
			c0.216,0.262,0.454,0.526,0.702,0.789c-0.016-0.015-0.032-0.025-0.048-0.039C11.666,37.255,10.478,35.439,9.463,33.631z
			 M2.217,42.087c-0.033,0.044-0.034-0.023-0.047-0.045c0.069,0.054,0.028,0.017,0.055,0.03C2.224,42.074,2.225,42.07,2.217,42.087z
			"/>
	</g>
</g>
<g>
</g>
<g>
</g>
<g>
</g>
<g>
</g>
<g>
</g>
<g>
</g>
<g>
</g>
<g>
</g>
<g>
</g>
<g>
</g>
<g>
</g>
<g>
</g>
<g>
</g>
<g>
</g>
<g>
</g>
</svg>
