<?xml version="1.0" encoding="iso-8859-1"?>
<!-- Generator: Adobe Illustrator 16.0.0, SVG Export Plug-In . SVG Version: 6.00 Build 0)  -->
<!DOCTYPE svg PUBLIC "-//W3C//DTD SVG 1.1//EN" "http://www.w3.org/Graphics/SVG/1.1/DTD/svg11.dtd">
<svg version="1.1" id="Capa_1" xmlns="http://www.w3.org/2000/svg" xmlns:xlink="http://www.w3.org/1999/xlink" x="0px" y="0px"
	 width="43.316px" height="43.316px" viewBox="0 0 43.316 43.316" style="enable-background:new 0 0 43.316 43.316;"
	 xml:space="preserve">
<g>
	<g>
		<path d="M26.975,0.056C15.485-0.72,4.359,6.631,1.428,17.76c-1.508,7.438,1.602,13.391,8.884,15.792
			c2.734,0.9,5.68,0.981,8.518,0.695c1.246-0.125,2.564-0.426,3.74-0.857c1.689-0.623,3.207-2.548,2.818-0.146
			c-0.508,3.146-0.942,6.083,1.408,8.575c1.979,2.1,6.942,1.576,9.389,0.908c3.702-1.013,3.486-10.979,3.92-13.715
			c0.745-4.688,2.086-9.624,2.153-14.385C42.391,5.247,35.697,0.645,26.975,0.056z M4.743,13.652
			c2.13-4.602,5.629-7.977,9.998-10.081c0.498-0.239,0.593-0.097,0.204,0.295c-3.306,3.326-6.605,6.656-9.899,9.991
			C4.657,14.249,4.511,14.153,4.743,13.652z M37.434,33.981c-0.355,2.238-0.711,4.476-1.066,6.715
			c-0.04,0.252-0.132,0.465-0.267,0.643c-0.232,0.309-0.551,0.447-0.568,0.459c-0.019,0.012-0.441,0.221-0.988,0.295
			c-0.118,0.016-0.24,0.027-0.365,0.036c-0.551,0.036-0.744-0.267-0.427-0.591c0.316-0.325,0.45-0.705,0.315-0.864
			c-0.136-0.157-0.551,0.021-0.941,0.411c-0.076,0.076-0.152,0.152-0.229,0.229c-0.391,0.391-0.923,0.676-1.186,0.629
			c-0.263-0.045-0.158-0.405,0.232-0.797c0.253-0.254,0.506-0.506,0.758-0.758c0.39-0.391,0.64-0.838,0.568-1.004
			c-0.069-0.167-0.437,0.01-0.829,0.399c-0.403,0.401-0.808,0.804-1.211,1.206c-0.392,0.389-0.994,0.635-1.343,0.537
			c-0.348-0.098-0.308-0.502,0.085-0.893c0.709-0.703,1.42-1.41,2.131-2.115c0.393-0.39,0.682-0.867,0.654-1.066
			c-0.018-0.133-0.031-0.256-0.041-0.363c-0.009-0.098-0.01-0.225-0.006-0.371c0.006-0.205-0.304-0.061-0.701,0.323
			c-1.012,0.979-2.05,1.983-3.105,3.007c-0.397,0.385-1.037,0.371-1.29-0.119c-0.022-0.041-0.043-0.084-0.063-0.125
			c-0.239-0.498-0.036-1.256,0.353-1.648l4.567-4.633c0.388-0.395,0.728-0.871,0.758-1.068c0.031-0.196-0.255-0.036-0.641,0.359
			c-1.6,1.639-3.201,3.278-4.802,4.92c-0.385,0.396-0.74,0.547-0.786,0.336c-0.028-0.131-0.055-0.258-0.079-0.383
			c-0.11-0.572-0.125-1.152-0.085-1.738c0.038-0.551,0.421-1.315,0.805-1.713c0.258-0.268,0.526-0.543,0.806-0.832
			c0.384-0.396,0.28-0.573-0.243-0.438c-0.523,0.137-0.868-0.219-0.793-0.766c0.017-0.119,0.03-0.238,0.044-0.355
			c0.061-0.55,0.042-1.06-0.014-1.111c-0.054-0.053-0.535-0.307-1.086-0.26c-0.563,0.049-1.094,0.358-1.625,0.74
			c-2.302,1.653-5.071,2.213-7.846,2.169c-0.552-0.009-0.792-0.249-0.536-0.506c0.256-0.256,0.219-0.556-0.079-0.681
			c-0.297-0.123-0.836,0.043-1.208,0.383s-0.891,0.588-1.157,0.551c-0.161-0.023-0.322-0.046-0.481-0.072
			c-0.697-0.121-1.359-0.285-1.988-0.486c-0.526-0.17-0.627-0.656-0.239-1.051c0.258-0.262,0.517-0.523,0.776-0.785
			c0.388-0.395,0.648-0.758,0.582-0.815s-0.447,0.2-0.852,0.575c-0.309,0.285-0.617,0.57-0.926,0.857
			c-0.405,0.375-1.044,0.545-1.415,0.354c-0.37-0.19-0.328-0.667,0.081-1.039c0.423-0.386,0.846-0.771,1.269-1.157
			c0.408-0.371,0.557-0.879,0.35-1.146c-0.206-0.268-0.688-0.188-1.092,0.188c-0.513,0.479-1.025,0.957-1.538,1.436
			c-0.403,0.377-1.093,0.418-1.506,0.052c-0.363-0.324-0.703-0.668-1.017-1.031c-0.361-0.418-0.294-1.091,0.109-1.469
			c0.561-0.526,1.125-1.056,1.696-1.593c0.245-0.252,0.489-0.504,0.733-0.754c0.385-0.396,0.622-0.992,0.551-1.336
			c-0.071-0.342-0.429-0.307-0.821,0.082c-0.364,0.363-0.725,0.723-1.081,1.076c-0.54,0.58-1.082,1.156-1.626,1.733
			c-0.379,0.401-0.92,0.347-1.162-0.149c-0.003-0.007-0.006-0.013-0.009-0.019c-0.24-0.498-0.081-1.231,0.31-1.623
			c1.14-1.136,2.28-2.271,3.426-3.406c0.393-0.389,0.711-0.726,0.712-0.754c0.001-0.027-0.321,0.262-0.719,0.646
			c-0.337,0.324-0.644,0.621-0.898,0.865c-0.398,0.38-1.044,1.001-1.434,1.394c-0.379,0.381-0.757,0.763-1.136,1.145
			c-0.389,0.393-0.791,0.481-0.883,0.195c-0.092-0.286,0.162-0.836,0.556-1.225c1.309-1.29,2.618-2.579,3.927-3.872
			C8.55,19.558,8.916,18.847,9,18.363c0.084-0.485-0.138-0.553-0.523-0.156c-1.497,1.544-2.996,3.088-4.491,4.632
			c-0.384,0.396-0.768,0.371-0.829-0.061c-0.061-0.431,0.222-1.104,0.607-1.501c1.88-1.94,3.709-3.825,5.441-5.607
			c0.385-0.396,0.841-1.141,1.045-1.654c0.293-0.74,0.616-1.44,0.967-2.104c0.258-0.487,0.171-0.558-0.223-0.171
			c-2.368,2.333-4.776,4.707-7.213,7.115c-0.393,0.388-0.682,0.257-0.611-0.291c0.045-0.356,0.103-0.715,0.176-1.077
			c0.104-0.398,0.221-0.785,0.345-1.166c0.171-0.525,0.653-1.252,1.055-1.631c2.051-1.935,4.092-3.886,6.132-5.874
			c1.824-1.845,3.654-3.68,5.484-5.517c0.39-0.392,1.128-0.862,1.655-1.027c0.85-0.267,1.723-0.492,2.617-0.677
			c0.541-0.112,0.654,0.117,0.248,0.492c-0.356,0.327-0.709,0.651-1.049,0.965c-0.147,0.145-0.297,0.291-0.447,0.438
			c-0.247,0.243-0.063,0.212,0.424-0.048c0.892-0.475,1.789-0.882,2.674-1.227c0.032-0.014,0.064-0.025,0.094-0.036
			c0.052-0.021,0.314-0.264,0.587-0.544c0.271-0.28,0.525-0.511,0.565-0.516c0.024-0.004,0.05-0.008,0.073-0.01
			c0.227-0.022,0.449-0.036,0.672-0.047c0.372-0.017,0.587,0.067,0.48,0.178c-0.107,0.11,0.137,0.104,0.548-0.005
			c0.411-0.107,1.194-0.175,1.744-0.126c7.707,0.683,13.406,6.283,13.058,14.702C40.062,21.812,38.375,28.056,37.434,33.981z"/>
		<path d="M31.777,17.287c0.386-0.396,0.365-0.416-0.045-0.046c-0.641,0.578-1.274,1.152-1.903,1.721
			c-0.409,0.37-0.57,0.268-0.395-0.243c0.105-0.304,0.202-0.615,0.289-0.934c0.154-0.56,0.262-1.099,0.327-1.617
			c0.07-0.548,0.403-1.304,0.803-1.685c1.14-1.084,2.239-2.133,3.294-3.142c0.399-0.382,0.69-0.732,0.646-0.781
			c-0.046-0.049-0.405,0.225-0.8,0.61c-1.054,1.027-2.1,2.051-3.139,3.07c-0.395,0.387-0.395,0.385-0.001-0.003
			c1.028-1.014,2.13-2.095,3.13-3.079c0.393-0.388,0.704-0.71,0.693-0.72c-0.01-0.01-0.338,0.296-0.732,0.682
			c-1.036,1.012-2.063,2.016-3.083,3.013c-0.396,0.386-0.71,0.249-0.785-0.298c-0.038-0.277-0.092-0.546-0.16-0.806
			c-0.141-0.534-0.002-1.248,0.403-1.624c0.569-0.53,1.139-1.061,1.708-1.591c0.403-0.377,0.417-0.804,0.017-0.915
			c-0.399-0.11-1.058,0.131-1.462,0.506c-0.309,0.286-0.616,0.572-0.924,0.857c-0.405,0.376-0.917,0.433-1.183,0.162
			c-0.266-0.272-0.178-0.763,0.229-1.136c0.033-0.03,0.065-0.062,0.1-0.092c0.407-0.373,0.669-0.679,0.583-0.679
			c-0.053,0-0.104,0-0.153,0.002c-0.134,0.006-0.272,0.018-0.414,0.034c-0.229,0.026-0.634,0.275-0.906,0.543
			c-0.272,0.267-0.871,0.235-1.375,0.011c-1.043-0.466-2.295-0.731-3.741-0.76c-0.056-0.001-0.118,0.007-0.183,0.019
			c-0.023,0.002-0.035-0.002-0.06,0c-5.295,0.481-7.531,4.855-8.458,9.642c-0.947,4.896,2.077,8.177,7.001,7.755
			c3.323-0.283,5.664-1.984,7.173-4.508c0.284-0.474,0.791-1.199,1.179-1.594C30.226,18.872,31.002,18.081,31.777,17.287z
			 M28.179,16.049c-0.299,3.614-2.192,8.05-6.156,8.712c-9.01,1.504-7.057-13.044-0.884-15.191c0.522-0.182,1.422-0.222,1.97-0.15
			C26.632,9.876,28.496,12.214,28.179,16.049z"/>
		<path d="M33.949,13.29c-0.397,0.384-0.384,0.396,0.029,0.028c0.288-0.256,0.579-0.514,0.872-0.773
			c0.414-0.366,0.736-0.693,0.719-0.729s-0.354,0.246-0.75,0.63C34.529,12.727,34.239,13.009,33.949,13.29z"/>
		<path d="M34.76,18.738c-1.812,1.802-3.642,3.627-5.48,5.471c-0.391,0.392-0.258,0.667,0.279,0.535
			c0.53-0.13,1.041-0.317,1.53-0.569c0.491-0.252,1.159-0.847,1.536-1.251c0.245-0.263,0.49-0.523,0.734-0.785
			c0.377-0.404,0.925-1.109,1.172-1.603c0.236-0.475,0.453-0.991,0.644-1.548C35.354,18.465,35.151,18.348,34.76,18.738z"/>
	</g>
</g>
<g>
</g>
<g>
</g>
<g>
</g>
<g>
</g>
<g>
</g>
<g>
</g>
<g>
</g>
<g>
</g>
<g>
</g>
<g>
</g>
<g>
</g>
<g>
</g>
<g>
</g>
<g>
</g>
<g>
</g>
</svg>
