<?xml version="1.0" encoding="iso-8859-1"?>
<!-- Generator: Adobe Illustrator 16.0.0, SVG Export Plug-In . SVG Version: 6.00 Build 0)  -->
<!DOCTYPE svg PUBLIC "-//W3C//DTD SVG 1.1//EN" "http://www.w3.org/Graphics/SVG/1.1/DTD/svg11.dtd">
<svg version="1.1" id="Capa_1" xmlns="http://www.w3.org/2000/svg" xmlns:xlink="http://www.w3.org/1999/xlink" x="0px" y="0px"
	 width="33.697px" height="33.697px" viewBox="0 0 33.697 33.697" style="enable-background:new 0 0 33.697 33.697;"
	 xml:space="preserve">
<g>
	<g>
		<path d="M12.259,8.471c-0.087-1.294-0.592-1.444-1.15-0.41c0-0.006-0.001-0.013-0.001-0.019c-0.015-0.253-0.042-0.507-0.097-0.755
			C11.007,7.271,11.004,7.256,11,7.24c-0.018-0.071-0.023-0.144-0.05-0.214c-0.056-0.153-0.185-0.337-0.386-0.311
			c-0.182,0.042-0.306,0.181-0.415,0.311c-0.052,0.073-0.095,0.149-0.142,0.224C9.88,7.347,10.148,6.901,10.06,6.955
			c-0.343,0.351-0.519,0.77-0.646,1.049C9.292,8.294,9.25,8.481,9.322,8.443c-0.642,0.932-1.516,2.16-2.121,3.31
			c-0.062,0.197,0.246-0.279,0.12,0.036c-0.937,1.241-1.915,3.521-1.788,3.692c0.768-1.568,1.69-3.124,2.61-4.685L7.63,11.778
			c-1.894,3.547-3.632,7.374-5.366,11.209L0.656,26.52c-0.249,0.586-0.616,1.152-0.653,1.824c-0.023,0.323,0.067,0.688,0.34,0.905
			c0.27,0.206,0.621,0.221,0.93,0.169c0.122,0.428,0.482,0.673,1.05,0.609c1.047-0.118,2.283-1.155,2.764-2.317
			c0.479-1.163,1.867-2.168,3.098-2.247c0.204-0.014,0.398,0.003,0.587,0.031c0.066,0.07,0.13,0.144,0.184,0.223
			c0.032,0.048,0.074,0.089,0.101,0.141c0.018,0.038,0.031,0.092,0.049,0.136c0.046,0.117,0.091,0.234,0.101,0.364
			c-0.024,0.681,0.384,1.481,1.131,1.623c0.122,0.027,0.248,0.03,0.373,0.022c0.286,0.435,0.772,0.673,1.323,0.576
			c0.863-0.149,1.49-1.381,1.398-2.749L12.259,8.471z M8.939,22.244c-0.779,0.072-0.992-0.897-0.477-2.168l0.953-2.339
			c0.518-1.269,0.938-1.186,0.938,0.185v1.712C10.354,21.004,9.72,22.173,8.939,22.244z M9.981,27.66
			c-0.12-0.079-0.217-0.187-0.304-0.303c-0.02-0.028-0.041-0.054-0.062-0.086c-0.078-0.125-0.141-0.26-0.178-0.403
			c-0.003-0.014-0.005-0.027-0.008-0.042c-0.018-0.073-0.03-0.148-0.037-0.226c-0.006-0.053-0.013-0.107-0.018-0.163
			c-0.006-0.065-0.016-0.128-0.023-0.194c-0.006-0.032-0.008-0.062-0.016-0.096c-0.013-0.072-0.036-0.14-0.062-0.209
			c-0.014-0.035-0.023-0.069-0.042-0.104c-0.006-0.013-0.008-0.025-0.015-0.037c-0.037-0.082-0.095-0.166-0.161-0.25
			c0.804,0.218,1.374,0.81,1.386,1.541c0.004,0.276,0.069,0.524,0.174,0.74C10.39,27.826,10.168,27.785,9.981,27.66z M1.503,28.003
			c-0.16,0.332-0.244,0.637-0.27,0.907c-0.373,0.087-0.638,0.041-0.745-0.19c0.014-0.094,0.061-0.069,0.094-0.095
			c0.046-0.033,0.032-0.066,0.121-0.387c0.056-0.315,0.27-0.689,0.484-1.142l0.614-1.313c0.403-0.887,0.795-1.794,1.183-2.71
			c0.775-1.83,1.533-3.691,2.328-5.486c0.591-0.642,1.905-3.301,2.226-4.461C7.451,13.001,6.667,14.85,6.6,14.759
			c0.263-1.055,1.431-3.032,2.023-4.37C9.094,9.46,9.565,8.53,10.038,7.584c0.144-0.286,0.389-0.648,0.569-0.674
			c0.039-0.019,0.13,0.08,0.181,0.233c0.056,0.146,0.079,0.318,0.102,0.483l0.05,0.766L1.503,28.003z"/>
		<path d="M32.91,12.975c-0.131,0-0.273,0.022-0.419,0.057c-0.016-0.268-0.138-0.522-0.405-0.607
			c-0.354-0.126-0.746-0.019-1.088,0.126c-0.35,0.148-0.674,0.352-0.979,0.573c-0.56,0.41-1.062,0.896-1.481,1.445l1.344-7.513
			c0.179-0.989-0.076-1.836-0.588-2.221c-0.024-0.064-0.049-0.131-0.076-0.188c-0.17-0.355-0.391-0.539-0.446-0.534
			c0.144,0.193,0.237,0.397,0.312,0.604c-0.074-0.033-0.152-0.058-0.236-0.073c-0.088-0.192-0.2-0.379-0.357-0.551
			c-0.277-0.307-0.756-0.476-1.156-0.423c-0.44,0.045-0.785,0.255-1.076,0.502c-0.565,0.509-0.908,1.186-1.076,1.891
			c-0.233,1.379-0.403,2.7-0.604,4.058c-0.387,2.698-0.769,5.398-1.207,8.043c-0.219,1.323-0.451,2.634-0.703,3.924l-0.017,0.08
			c-0.202-0.535-0.536-1.162-1.114-1.854c-0.877-1.051-2.644-2.476-2.205-3.362c0.441-0.886,1.99-0.543,2.422-0.377
			c0.435,0.166,0.928-0.141,1.144-0.772c0.217-0.632-0.431-2.017-1.772-2.296c-0.107-0.022-0.227-0.025-0.339-0.038
			c-0.092-0.125-0.188-0.246-0.312-0.342c-0.288-0.246-0.684-0.287-1.051-0.311c-0.748-0.045-1.477,0.218-2.137,0.544
			c-0.658,0.343-1.279,0.774-1.75,1.341c-0.465,0.573-0.676,1.322-0.66,2.049c-0.008,0.183,0.029,0.363,0.031,0.546
			c-0.01,0.181-0.031,0.363-0.002,0.545c0.053,0.362,0.225,0.694,0.414,1c0.003,0.004,0.006,0.008,0.009,0.012
			c-0.011,0.042-0.182-0.197-0.175-0.126c0.268,0.632,0.768,1.076,0.752,0.959c0.418,0.709,1.09,1.654,1.455,2.395
			c0.08,0.104-0.041-0.233,0.074-0.053c0.039,0.135,0.051,0.217,0.047,0.345c-0.01,0.036-0.041,0.184-0.078,0.279
			c-0.088,0.22-0.234,0.445-0.395,0.616c-0.326,0.353-0.652,0.449-0.668,0.517c0.522-0.064,1.084-0.568,1.274-1.148
			c0.113-0.296,0.023-0.569-0.147-0.897c-0.097-0.188-0.212-0.374-0.333-0.557c0.021,0.031,0.046,0.061,0.067,0.092
			c0.165,0.253,0.354,0.531,0.451,0.801c0.008,0.021,0.018,0.04,0.024,0.061c0.028,0.094,0.045,0.186,0.042,0.275
			c-0.059,0.778-0.834,1.592-1.65,1.516c-0.49-0.023-1.002,0.041-1.473,0.257c-0.459,0.202-0.92,0.661-0.926,1.231
			c0.008,0.619,0.451,1.026,0.889,1.259c0.286,0.148,0.595,0.231,0.908,0.271c0.38,0.331,0.971,0.562,1.684,0.553
			c1.629-0.02,3.679-0.378,4.892-1.831l-0.004,0.057l-0.003,0.138l0.009,0.088c0.004,0.023,0.014,0.058,0.022,0.083
			c0.017,0.03-0.019-0.009,0.045,0.083c0.054,0.072,0.164,0.12,0.233,0.119l0.094-0.001l0.98-0.006
			c-0.015,0.223-0.011,0.359,0.019,0.359h0.149c0,0,0.631-0.059,1.41-0.13c0.779-0.07,1.647-1.214,1.938-2.554l0.149-0.697
			c0.049-0.227,0.11-0.401,0.176-0.554c0.027,0.081,0.057,0.162,0.086,0.242c0.13,0.358,0.322,0.708,0.562,1.011
			c0.392,0.498,0.953,0.918,1.593,1.03c0.508,0.465,1.113,0.727,1.668,0.646c0.994-0.144,1.399-1.297,0.907-2.575l-0.682-1.777
			c-0.492-1.279-0.261-3.231,0.519-4.359l1.274-1.85C33.963,13.889,33.84,12.975,32.91,12.975z M17.29,24.776
			c-1.059-0.068-2.053,0.316-2.252,1.098c-0.04,0.158-0.022,0.319,0.025,0.477c-0.354-0.11-0.674-0.296-0.855-0.582
			c-0.074-0.117-0.111-0.258-0.113-0.362c0.004-0.16,0.055-0.287,0.133-0.415c0.16-0.251,0.447-0.441,0.762-0.55
			c0.15,0,0.383-0.02,0.662-0.012c0.143,0.001,0.275,0.014,0.459,0.029c0.197,0.012,0.445-0.004,0.65-0.082
			c0.865-0.303,1.326-1.161,1.33-1.674c-0.037-0.037-0.123,0.359-0.348,0.679c-0.215,0.324-0.529,0.562-0.537,0.517
			c0.184-0.21,0.43-0.49,0.594-0.872c0.08-0.188,0.144-0.4,0.144-0.631c0.004-0.241-0.094-0.449-0.197-0.646
			c-0.228-0.396-0.491-0.745-0.736-1.019c-0.188-0.231-0.381-0.46-0.568-0.689c-0.51-0.621-1.086-1.235-1.342-1.976
			c-0.059-0.185-0.084-0.368-0.068-0.562c0.004-0.086,0.021-0.227,0.004-0.335l-0.025-0.3c-0.021-0.398,0.019-0.8,0.141-1.179
			c0.221-0.785,0.822-1.356,1.5-1.82c0.678-0.452,1.451-0.813,2.246-0.925c0.197-0.031,0.408-0.027,0.6-0.012
			c0.199,0.017,0.424,0.044,0.59,0.103c0.217,0.077,0.396,0.229,0.547,0.414c-0.067-0.005-0.129-0.021-0.198-0.022
			c-1.369-0.025-3.363,1.144-3.982,2.23c-0.312,0.549-0.508,1.268-0.383,2.188c0.043,0.311-0.246,0.757,0.691,1.976
			c0.729,0.944,1.941,2.109,2.24,2.91C19.299,23.532,18.346,24.847,17.29,24.776z M26.553,7.06l-2.859,17.079
			c-0.113,0.676-0.199,1.289-0.245,1.73c-0.264-0.051-0.646-0.089-1.12-0.114c0,0,0.083-0.325,0.211-0.855
			c0.159-0.312,0.291-0.66,0.381-1.05c0,0,0.041-0.219,0.002-0.599c0.379-1.683,0.828-3.88,1.004-5.52
			c0.14-0.29,0.127,0.269,0.392-0.746c0.399-2.019,0.687-4.154,0.94-6.315l0.375-3.253c0.076-0.547,0.095-1.094,0.24-1.55
			c0.146-0.471,0.396-0.923,0.744-1.25c0.193-0.08,0.502-0.226,0.797-0.207c0.239,0.01,0.438,0.13,0.594,0.374
			C27.321,5.138,26.727,6.021,26.553,7.06z M27.807,23.46c-0.195-0.312-0.312-0.664-0.441-1.027c0.311-0.49,0.727-0.266,1.059,0.693
			l0.131,0.371c0.158,0.458,0.41,0.867,0.709,1.203C28.66,24.492,28.145,24.013,27.807,23.46z M29.814,15.016l-0.42,0.607
			c-0.779,1.128-1.217,0.947-0.975-0.402l0.043-0.242c0.187-0.242,0.351-0.477,0.551-0.688c0.258-0.287,0.541-0.554,0.842-0.798
			c0.59-0.463,1.312-0.956,1.982-0.934c0.317,0.019,0.474,0.217,0.467,0.528C31.448,13.356,30.438,14.113,29.814,15.016z"/>
	</g>
</g>
<g>
</g>
<g>
</g>
<g>
</g>
<g>
</g>
<g>
</g>
<g>
</g>
<g>
</g>
<g>
</g>
<g>
</g>
<g>
</g>
<g>
</g>
<g>
</g>
<g>
</g>
<g>
</g>
<g>
</g>
</svg>
