<?xml version="1.0" encoding="iso-8859-1"?>
<!-- Generator: Adobe Illustrator 16.0.0, SVG Export Plug-In . SVG Version: 6.00 Build 0)  -->
<!DOCTYPE svg PUBLIC "-//W3C//DTD SVG 1.1//EN" "http://www.w3.org/Graphics/SVG/1.1/DTD/svg11.dtd">
<svg version="1.1" id="Capa_1" xmlns="http://www.w3.org/2000/svg" xmlns:xlink="http://www.w3.org/1999/xlink" x="0px" y="0px"
	 width="40.5px" height="40.5px" viewBox="0 0 40.5 40.5" style="enable-background:new 0 0 40.5 40.5;" xml:space="preserve">
<g>
	<g>
		<path d="M30.32,12.105c-6.08-2.448-13.19-2.057-19.321,0.073c-0.521,0.182-1.407,0.177-1.535-0.36
			C8.963,9.717,10.255,3.631,6.62,3.631c-2.384,0-6.176-0.332-6.176,3.079c0,8.14-2.704,20.733,5.229,26.022
			c9.697,6.465,30.137,6.252,34.428-7.016C42.214,19.179,35.474,14.181,30.32,12.105z M2.855,5.177
			C3.236,4.82,3.42,5.061,3.069,5.398C2.718,5.734,2.474,5.535,2.855,5.177z M2.375,6.52c0-0.078,0.007-0.147,0.016-0.213
			c0.016-0.117,0.343-0.51,0.725-0.876C3.498,5.065,4.2,4.716,4.688,4.716c0.294,0,0.594,0.009,0.885,0.009
			c0.114,0,0.22,0.011,0.317,0.031C6.064,4.79,5.878,5.165,5.486,5.554c-0.802,0.796-1.602,1.59-2.4,2.383
			c-0.393,0.389-0.71,0.256-0.71-0.297C2.375,7.267,2.375,6.894,2.375,6.52z M35.498,30.498c-2.812,3.102-8.197,4.926-13.824,5.219
			c-0.552,0.029-0.988,0.023-0.975,0.01c0.015-0.016-0.417-0.1-0.958-0.209c-0.143-0.029-0.284-0.059-0.426-0.09
			c-0.539-0.119-1.083-0.127-1.222,0.008c-0.139,0.133-0.698,0.211-1.247,0.15c-0.575-0.062-1.146-0.145-1.71-0.24
			c-0.544-0.096-0.749-0.422-0.463-0.709c0.286-0.287,0.265-0.629-0.044-0.771c-0.309-0.143-0.852,0.006-1.219,0.342
			c-0.366,0.334-1.097,0.488-1.622,0.318c-0.543-0.176-1.073-0.373-1.587-0.588c-0.51-0.213-0.597-0.73-0.209-1.123
			c0.119-0.121,0.238-0.242,0.357-0.363c0.388-0.393,0.63-0.766,0.54-0.828c-0.089-0.062-0.487,0.188-0.893,0.562
			c-0.151,0.141-0.303,0.281-0.455,0.42c-0.405,0.375-1.031,0.525-1.389,0.32c-0.358-0.207-0.306-0.691,0.104-1.062
			c0.228-0.207,0.455-0.412,0.684-0.617c0.409-0.371,0.547-0.859,0.322-1.104s-0.726-0.146-1.129,0.23
			c-0.282,0.264-0.565,0.525-0.846,0.789c-0.404,0.377-1.088,0.408-1.493,0.033c-0.355-0.328-0.688-0.676-0.996-1.043
			c-0.354-0.424-0.28-1.102,0.122-1.48c0.457-0.43,0.916-0.859,1.377-1.293c0.403-0.377,0.626-0.938,0.522-1.256
			c-0.104-0.32-0.474-0.26-0.852,0.145c-0.511,0.547-1.024,1.094-1.537,1.639c-0.379,0.402-0.915,0.342-1.141-0.162
			c-0.011-0.023-0.021-0.049-0.032-0.072c-0.222-0.506-0.037-1.25,0.354-1.641C4.29,25.353,4.97,24.677,5.653,24
			c0.392-0.391,0.71-0.74,0.71-0.783c0-0.045-0.09,0.006-0.201,0.109c-0.11,0.104-0.52,0.504-0.909,0.896
			c-0.562,0.562-1.121,1.127-1.682,1.691c-0.389,0.393-0.781,0.469-0.857,0.164c-0.077-0.305-0.081-0.598-0.029-0.648
			c0.031-0.031,0.062-0.062,0.095-0.094c0.957-0.945,1.915-1.891,2.872-2.834c0.393-0.389,0.712-1.004,0.712-1.375
			c0-0.371-0.311-0.352-0.696,0.046c-0.845,0.873-1.691,1.744-2.536,2.617c-0.384,0.395-0.723,0.459-0.742,0.141
			c-0.011-0.191-0.018-0.383-0.018-0.58c0-0.094,0-0.189,0-0.285c0-0.156,0.312-0.605,0.696-1.004
			c0.878-0.906,1.747-1.802,2.6-2.681c0.385-0.397,0.696-1.165,0.696-1.718v-0.269c0-0.553-0.319-0.686-0.712-0.297
			c-0.852,0.84-1.709,1.688-2.569,2.537c-0.394,0.389-0.711,0.255-0.711-0.297c0-0.435,0-0.869,0-1.303
			c0-0.553,0.327-1.307,0.731-1.684c0.849-0.794,1.695-1.59,2.538-2.392c0.4-0.381,0.724-0.841,0.724-1.026
			c0-0.186-0.315-0.018-0.704,0.375c-0.861,0.871-1.724,1.741-2.585,2.612c-0.389,0.393-0.703,0.263-0.703-0.289
			c0-0.251,0-0.502,0-0.753c0-0.553,0.312-1.319,0.698-1.715c0.866-0.889,1.731-1.775,2.594-2.654c0.387-0.394,0.7-1.048,0.7-1.459
			c0-0.412-0.321-0.434-0.718-0.05c-0.792,0.767-1.65,1.598-2.557,2.478c-0.397,0.384-0.401,0.379-0.009-0.01
			c0.745-0.737,1.643-1.614,2.567-2.517c0.396-0.386,0.391-0.39-0.01-0.009c-0.824,0.787-1.675,1.61-2.549,2.457
			c-0.397,0.384-0.718,0.258-0.718-0.282c0-0.539,0.321-1.29,0.718-1.676c0.842-0.819,1.692-1.647,2.558-2.489
			C6.043,6.563,6.364,5.955,6.364,5.59c0-0.365,0.406-0.413,0.638,0.088c0.569,1.232,0.273,3.32,0.273,4.125
			c0,2.3-0.2,4.27,2.628,3.797c0.029-0.005,0.059-0.014,0.087-0.023c0.047-0.016,0.163-0.037,0.259-0.061
			c0.057-0.015,0.112-0.032,0.168-0.054c0.961-0.383,1.938-0.704,2.925-0.969c0.534-0.143,0.722,0.016,0.414,0.333
			c-0.307,0.317-0.557,0.642-0.557,0.726s0.391-0.068,0.886-0.312c0.262-0.129,0.529-0.253,0.801-0.373
			c0.505-0.224,1.065-0.523,1.24-0.696c0.175-0.172,0.759-0.377,1.308-0.435c5.179-0.545,10.448,0.466,15.087,3.098
			C38.552,18.254,40.246,25.255,35.498,30.498z"/>
		<path d="M34.373,19.203c-0.291,0.289-0.582,0.579-0.875,0.869c-0.391,0.391-0.895,0.299-1.188-0.17
			c-0.209-0.337-0.439-0.657-0.691-0.962c-0.35-0.427-0.432-0.987-0.131-1.294s0.287-0.323-0.031-0.035
			c-0.318,0.287-0.896,0.205-1.332-0.136c-0.164-0.13-0.336-0.256-0.51-0.377c-0.453-0.315-0.609-0.759-0.322-1.032
			c0.287-0.272,0.48-0.505,0.432-0.518c-0.051-0.014-0.189,0.071-0.309,0.189c-0.121,0.117-0.123,0.117-0.002,0
			c0.119-0.118,0.199-0.22,0.178-0.226c-0.023-0.006-0.258,0.201-0.525,0.463c-0.268,0.262-0.875,0.253-1.373,0.018
			c-0.197-0.093-0.396-0.181-0.6-0.265c-0.512-0.212-0.842-0.438-0.725-0.547c0.119-0.109-0.084-0.223-0.449-0.238
			c-0.221-0.009-0.439-0.014-0.662-0.014c-0.092,0-0.18,0.004-0.268,0.008c-0.146,0.007-0.703-0.089-1.248-0.179
			c-7.362-1.214-16.163,2.068-16.803,9.612c-0.546,6.443,8.101,9.797,13.239,9.562c1.644-0.076,3.36-0.35,5.005-0.836
			c0.516-0.156,1.01-0.326,1.484-0.514c0.516-0.203,0.732-0.209,0.502,0.021c-0.23,0.232,0.029,0.385,0.576,0.303
			c0.189-0.029,0.377-0.061,0.564-0.096c0.543-0.102,1.289-0.537,1.674-0.934c2.064-2.129,4.451-4.586,6.959-7.158
			c0.387-0.396,0.703-1.107,0.639-1.582c-0.062-0.477-0.484-0.535-0.875-0.143c-0.984,0.994-1.949,1.967-2.9,2.924
			c-0.389,0.393-0.543,0.291-0.414-0.246c0.004-0.014,0.006-0.027,0.01-0.041c0.127-0.537,0.494-1.301,0.883-1.693
			c0.689-0.693,1.367-1.379,2.031-2.049c0.389-0.393,0.662-0.801,0.605-0.913c-0.057-0.11-0.41,0.126-0.789,0.528
			c-0.607,0.643-1.205,1.273-1.797,1.898c-0.379,0.402-0.688,0.713-0.691,0.697c-0.006-0.016-0.006-0.043,0.002-0.061
			c0.002-0.012,0.006-0.021,0.006-0.035c-0.027-0.309-0.07-0.605-0.125-0.896c-0.094-0.492,0.098-1.209,0.475-1.611
			c0.418-0.449,0.834-0.896,1.25-1.342c0.375-0.403,0.508-0.952,0.273-1.208C35.287,18.691,34.765,18.813,34.373,19.203z
			 M31.564,25.423c-2.027,10.131-20.062,9.572-22.592-0.279c-2.812-10.949,20.24-12.879,22.586-1.697
			C31.671,23.988,31.673,24.882,31.564,25.423z"/>
	</g>
</g>
<g>
</g>
<g>
</g>
<g>
</g>
<g>
</g>
<g>
</g>
<g>
</g>
<g>
</g>
<g>
</g>
<g>
</g>
<g>
</g>
<g>
</g>
<g>
</g>
<g>
</g>
<g>
</g>
<g>
</g>
</svg>
