<?xml version="1.0" encoding="iso-8859-1"?>
<!-- Generator: Adobe Illustrator 16.0.0, SVG Export Plug-In . SVG Version: 6.00 Build 0)  -->
<!DOCTYPE svg PUBLIC "-//W3C//DTD SVG 1.1//EN" "http://www.w3.org/Graphics/SVG/1.1/DTD/svg11.dtd">
<svg version="1.1" id="Capa_1" xmlns="http://www.w3.org/2000/svg" xmlns:xlink="http://www.w3.org/1999/xlink" x="0px" y="0px"
	 width="43.86px" height="43.86px" viewBox="0 0 43.86 43.86" style="enable-background:new 0 0 43.86 43.86;" xml:space="preserve"
	>
<g>
	<g>
		<path d="M5.465,28.437c-0.19,0.102-0.37,1.562-0.008,3.388c0.335,1.824,1.318,3.921,2.492,5.163
			c0.354,0.661-0.426-0.317-0.241,0.098c0.797,1.213,1.912,2.326,3.114,3.186c1.201,0.867,2.483,1.475,3.598,1.879
			c-0.357,0.027,1.232,1.155,3.143,1.384c0.211-0.033-0.674-0.352-0.49-0.396c1.534,0.476,3.143,0.729,4.763,0.721
			c0.239,0,0.479-0.014,0.718-0.025c0.172,0.006,0.34,0.026,0.514,0.026c8.577,0,15.545-6.962,15.545-15.546
			c0-8.147-6.282-14.822-14.258-15.478c-0.495-0.077-0.993-0.129-1.492-0.158c-0.371-0.034-0.716-0.047-1-0.036
			c-0.182,0.001-0.361,0.017-0.543,0.024c-0.159,0.006-0.319,0.01-0.479,0.021c-0.146,0.011-0.292,0.023-0.438,0.038
			c-0.074,0.007-0.148,0.019-0.223,0.028c-0.168,0.019-0.335,0.039-0.503,0.064c-0.095,0.014-0.191,0.02-0.287,0.036
			c-0.054,0.013-0.099,0.025-0.149,0.038c-0.138,0.024-0.276,0.042-0.413,0.069c-0.38,0.11-0.689,0.199-0.947,0.274
			c-0.243,0.064-0.37,0.101-0.402,0.118c-1.644,0.49,0.692-0.103,2.77-0.317c-0.758,0.139-1.5,0.326-2.214,0.571
			c-0.727,0.249-1.371,0.31-1.914,0.208c0.021-0.01,0.051-0.02,0.072-0.029c0.772-0.422,0.798-0.732,0.173-0.773
			c-0.462,0.181-0.938,0.256-1.354,0.188c-0.352-0.415-0.554-1.019-0.554-1.824c0-3.194,0-7.18,0-7.45
			c0-2.114-1.473-3.828-3.585-3.828c-0.065,0-0.121,0.016-0.185,0.019c-0.708-0.179-1.47-0.158-2.163,0.097
			C7.193,0.693,6.413,2.091,6.295,3.443L6.103,11.49c-0.128,5.366-0.262,10.737-0.264,16.013c-0.104,2.674,0.463,5.468,1.716,7.809
			c0.668,1.275,1.522,2.43,2.501,3.433c-1.216-1.177-2.268-2.554-3.045-4.092C6.034,32.727,5.49,30.568,5.465,28.437z
			 M23.066,19.705c4.756,0,8.609,3.853,8.609,8.608c0,4.754-3.854,8.609-8.609,8.609c-0.406,0-0.802-0.037-1.192-0.092
			c0.146-0.075,0.14-0.163-0.065-0.226c-0.347,0.029-0.699,0.021-1.054-0.005c-3.631-1.012-6.298-4.335-6.298-8.287
			C14.457,23.558,18.31,19.705,23.066,19.705z M9.07,36.618c-1.395-1.981-2.199-4.496-2.09-5.952
			c0.097-0.067,0.24,0.905,0.528,1.836c0.276,0.937,0.688,1.815,0.785,1.69c-0.278-1.16-0.783-3.12-0.893-5.056
			c-0.074-1.952-0.188-3.996-0.461-4.835c0.128-4.062,0.385-8.217,0.58-12.328c0-0.015,0.001-0.03,0.002-0.045v16.385
			c0,6.729,4.284,12.444,10.268,14.607c-0.371-0.102-0.74-0.216-1.103-0.345c-2.052-0.729-3.929-1.899-5.492-3.384
			C10.51,38.477,9.738,37.62,9.07,36.618z"/>
	</g>
</g>
<g>
</g>
<g>
</g>
<g>
</g>
<g>
</g>
<g>
</g>
<g>
</g>
<g>
</g>
<g>
</g>
<g>
</g>
<g>
</g>
<g>
</g>
<g>
</g>
<g>
</g>
<g>
</g>
<g>
</g>
</svg>
