<?xml version="1.0" encoding="iso-8859-1"?>
<!-- Generator: Adobe Illustrator 16.0.0, SVG Export Plug-In . SVG Version: 6.00 Build 0)  -->
<!DOCTYPE svg PUBLIC "-//W3C//DTD SVG 1.1//EN" "http://www.w3.org/Graphics/SVG/1.1/DTD/svg11.dtd">
<svg version="1.1" id="Capa_1" xmlns="http://www.w3.org/2000/svg" xmlns:xlink="http://www.w3.org/1999/xlink" x="0px" y="0px"
	 width="55.824px" height="55.824px" viewBox="0 0 55.824 55.824" style="enable-background:new 0 0 55.824 55.824;"
	 xml:space="preserve">
<g>
	<g>
		<path d="M30.474,4.977C16.673,1.972,5.925,18.172,2.203,29.023c-1.082,3.156-1.754,6.47-2.18,9.771
			c-0.233,1.813,1.349,3.093,2.462,4.31c4.97,5.436,12.885,7.143,19.891,7.826c8.103,0.791,16.533-0.018,24.043-3.244
			c4.703-2.021,10.235-5.589,9.301-11.236C52.53,22.532,45.652,8.281,30.474,4.977z M53.494,35.737
			c0.073,0.309-0.187,0.873-0.577,1.265c-0.507,0.506-1.015,1.012-1.521,1.518c-0.392,0.391-0.625,0.373-0.582-0.047
			s0.352-1.08,0.74-1.472c0.386-0.389,0.753-0.759,1.102-1.108C53.044,35.5,53.421,35.431,53.494,35.737z M52.992,33.759
			c0.105,0.403-0.126,1.047-0.518,1.438c-0.322,0.324-0.646,0.648-0.969,0.972c-0.391,0.391-0.743,0.356-0.824-0.07
			s0.138-1.085,0.526-1.475c0.293-0.294,0.587-0.589,0.88-0.883C52.48,33.348,52.886,33.356,52.992,33.759z M51.731,29.501
			c0.114,0.355,0.114,0.736,0.002,0.853c-0.113,0.114-0.112,0.117,0.002,0.007c0.113-0.11,0.344,0.227,0.504,0.755
			c0.003,0.011,0.006,0.021,0.009,0.03c0.16,0.529-0.04,1.271-0.438,1.653c-0.302,0.29-0.603,0.58-0.902,0.87
			c-0.397,0.384-0.873,0.272-1.097-0.231c-0.146-0.334-0.308-0.667-0.479-0.999c-0.252-0.491-0.161-1.199,0.227-1.592
			c0.429-0.434,0.848-0.858,1.258-1.275C51.203,29.179,51.615,29.146,51.731,29.501z M50.481,26.037
			c0.15,0.383,0.299,0.767,0.441,1.151c0.192,0.519,0.027,1.26-0.357,1.656c-0.453,0.464-0.906,0.929-1.359,1.393
			c-0.386,0.396-0.929,0.332-1.232-0.131c-0.185-0.282-0.373-0.562-0.564-0.838c-0.315-0.453-0.268-1.134,0.119-1.528
			c0.63-0.643,1.256-1.282,1.878-1.917C49.792,25.43,50.277,25.524,50.481,26.037z M5.905,24.497
			c0.18-0.408,0.363-0.814,0.552-1.219c0.7-1.511,1.509-2.982,2.412-4.385c0.299-0.464,0.758-1.028,1.01-1.271
			c0.152-0.146,0.304-0.293,0.456-0.441c2.16-2.184,4.326-4.357,6.492-6.531c0.39-0.392,1.08-0.954,1.556-1.234
			c1.607-0.945,3.307-1.678,5.079-2.148c0.533-0.142,0.645,0.073,0.237,0.447c-1.072,0.986-2.12,1.951-3.121,2.872
			c-4.644,4.557-9.44,9.274-14.357,14.125C5.827,25.1,5.682,25.002,5.905,24.497z M3.188,32.275
			c0.135-0.563,0.285-1.123,0.449-1.678c0.156-0.53,0.607-1.278,0.991-1.675c8.794-9.065,16.221-16.648,18.232-18.55
			c1.487-1.497,0.681-0.648-0.997,1.087c-0.384,0.397-0.522,0.559-0.31,0.364c0.13-0.117,0.262-0.233,0.394-0.348
			c1.397-1.438,2.699-2.775,3.922-4.033c0.385-0.396,1.071-0.75,1.534-0.768c0.462-0.019,0.554,0.28,0.203,0.64
			c-0.352,0.359-0.24,0.439,0.258,0.201c0.438-0.21,0.884-0.405,1.336-0.583c0.087-0.034,0.175-0.065,0.263-0.096
			c0.146-0.051,0.712-0.05,1.258,0.033c1.479,0.227,2.984,0.642,4.513,1.272c6.773,2.804,11.23,8.808,14.247,15.505
			c0.227,0.503,0.267,0.754,0.098,0.557c-0.168-0.198-0.624-0.038-1.013,0.354c-0.657,0.662-1.307,1.316-1.951,1.966
			c-0.391,0.393-0.873,0.493-1.083,0.228c-0.21-0.266-0.067-0.798,0.321-1.19c0.655-0.664,1.288-1.304,1.889-1.91
			c0.388-0.393,0.584-0.841,0.437-0.999c-0.146-0.159-0.571,0.041-0.948,0.445c-0.603,0.647-1.205,1.292-1.811,1.937
			c-0.378,0.403-0.944,0.413-1.269,0.024c-0.324-0.389-0.284-1.03,0.092-1.435c0.57-0.612,1.137-1.221,1.699-1.824
			c0.376-0.404,0.52-0.893,0.316-1.088c-0.201-0.195-0.687-0.036-1.079,0.353c-0.56,0.554-1.121,1.108-1.685,1.666
			c-0.392,0.389-0.996,0.357-1.346-0.069c-0.521-0.637-1.143-1.391-1.827-2.157c-0.368-0.411-0.342-1.032,0.071-1.397
			c0.395-0.349,0.788-0.697,1.185-1.047c0.414-0.365,0.687-0.712,0.607-0.771c-0.078-0.06-0.48,0.209-0.884,0.588
			c-0.366,0.345-0.729,0.691-1.089,1.038c-0.397,0.384-1.028,0.37-1.427-0.013c-1.813-1.74-3.851-3.109-5.623-2.634
			c-2.984,0.8-5.194,5.578-7.674,8.509c-0.356,0.422-0.694,0.717-0.721,0.688c-0.025-0.029-0.337,0.216-0.693,0.548
			c-0.357,0.332-1.034,0.846-1.57,0.977c-0.233,0.057-0.473,0.086-0.717,0.084c-0.552-0.004-0.655-0.476-0.251-0.853
			c0.439-0.411,0.879-0.822,1.318-1.232c0.402-0.378,0.633-0.762,0.509-0.853c-0.123-0.092-0.547,0.157-0.938,0.547
			c-0.413,0.41-0.859,0.856-1.344,1.339c-0.391,0.39-1.116,0.516-1.56,0.187c-0.43-0.318-0.874-0.732-1.339-1.258
			c-1.301-1.474-2.592-2.141-3.854-2.198c-0.552-0.025-0.796-0.324-0.543-0.815c0.006-0.011,0.012-0.022,0.018-0.034
			c0.253-0.49,0.16-0.561-0.224-0.163c-0.254,0.262-0.508,0.523-0.762,0.786c-0.385,0.397-1.104,0.91-1.562,1.218
			c-0.859,0.577-1.7,1.38-2.515,2.337c-0.537,0.632-1.206,1.463-1.907,2.412c-0.328,0.443-0.898,1.134-1.282,1.529
			c-0.578,0.598-1.156,1.193-1.734,1.79c-0.386,0.396-0.681,0.661-0.661,0.591C3.167,32.358,3.178,32.315,3.188,32.275z
			 M2.234,35.643c0.012-0.047,0.022-0.094,0.034-0.141c0.139-0.535,0.556-1.252,0.914-1.606c0.358-0.354,0.443-0.243,0.221,0.262
			c-0.112,0.253-0.218,0.506-0.313,0.755c-0.198,0.516-0.492,1.115-0.699,1.325C2.182,36.446,2.099,36.179,2.234,35.643z
			 M2.435,39.516c-0.124,0.132-0.244,0.212-0.272,0.18c-0.016-0.019-0.033-0.037-0.048-0.059c-0.285-0.396-0.347-1.051-0.278-1.819
			c0.048-0.55,0.3-1.149,0.499-1.349c0.199-0.197,0.233,0.074,0.153,0.621c-0.083,0.566-0.09,1.104,0.002,1.594
			c0.02,0.102,0.045,0.2,0.074,0.299C2.612,39.146,2.558,39.384,2.435,39.516z M4.767,42.615c-0.465-0.439-0.909-0.903-1.337-1.391
			c-0.363-0.415-0.582-0.822-0.507-0.893s0.354,0.268,0.695,0.7c0.387,0.493,0.852,0.956,1.372,1.391
			c0.425,0.353,0.731,0.665,0.657,0.733C5.574,43.227,5.169,42.995,4.767,42.615z M5.512,39.846
			c-1.794-2.025-0.527-4.124,0.492-6.262c0.964-2.022,2.312-3.889,3.534-5.754c1.155-2.108,3.126-2.864,5.914-2.267
			c0.54,0.116,1.271,0.581,1.621,1.008c0.424,0.517,0.858,1.05,1.369,1.396c5.746,3.911,9.562-4.032,12.68-7.885
			c1.778-2.197,2.856-2.359,4.86-0.772c2.346,1.857,4.335,4.161,6.256,6.439c2.415,2.862,6.753,8.453,6.612,12.636
			c-0.019,0.552-0.332,1.391-0.645,1.847c-3.569,5.206-12.26,5.946-17.874,6.268c-6.169,0.351-12.497-0.174-18.349-2.223
			C9.421,43.38,7.298,41.864,5.512,39.846z M8.2,44.825c-0.137,0.127-0.567,0.028-0.95-0.234c-0.384-0.265-0.604-0.563-0.503-0.653
			c0.1-0.091,0.513,0.036,0.933,0.264C8.1,44.428,8.337,44.699,8.2,44.825z M12.517,46.741c-0.248,0.229-0.864,0.249-1.369,0.024
			c-0.608-0.27-1.205-0.563-1.788-0.881c-0.484-0.264-0.752-0.613-0.608-0.759c0.145-0.146,0.665-0.075,1.175,0.136
			c0.715,0.297,1.42,0.555,2.086,0.771C12.535,46.208,12.765,46.515,12.517,46.741z M53.784,38.963
			c-0.096,0.544-0.574,1.282-0.964,1.674c-1.276,1.283-2.553,2.563-3.824,3.839c-0.39,0.392-1.096,0.929-1.588,1.179
			c-2.824,1.437-5.979,2.387-8.142,2.93c-4.256,1.067-8.772,1.333-13.238,1.111c-0.553-0.026-1.252-0.104-1.564-0.164
			c-0.312-0.06-0.594-0.085-0.629-0.049c-0.036,0.036-0.512,0.029-1.062-0.024c-0.471-0.048-0.938-0.1-1.405-0.155
			c-0.549-0.065-0.876-0.249-0.733-0.401c0.144-0.15,0.175-0.3,0.072-0.327c-0.062-0.017-0.124-0.033-0.185-0.055
			c-0.408-0.133-0.812-0.274-1.216-0.427c-0.517-0.195-1.151-0.151-1.429,0.116c-0.274,0.268-0.938,0.4-1.479,0.282
			c-0.629-0.137-1.252-0.292-1.868-0.47c-0.531-0.151-0.735-0.516-0.464-0.788s0.93-0.396,1.471-0.284
			c6.415,1.315,16.417,2.233,24.344,0.124c0.533-0.143,0.867-0.181,0.751-0.064s0.024,0.189,0.314,0.162
			c0.29-0.028,0.704-0.233,0.925-0.454s0.819-0.554,1.328-0.77c0.176-0.073,0.35-0.15,0.521-0.229
			c0.502-0.229,0.581-0.121,0.19,0.269c-0.079,0.078-0.157,0.156-0.236,0.235c-0.392,0.39-0.425,0.665-0.076,0.609
			c0.35-0.057,0.945-0.427,1.333-0.819c0.917-0.929,1.831-1.85,2.749-2.779c0.507-0.438,0.972-0.912,1.401-1.419
			c1.337-1.354,2.676-2.712,4.011-4.06c0.39-0.394,0.781-0.267,0.775,0.286C53.865,38.354,53.837,38.662,53.784,38.963z"/>
		<path d="M16.66,16.913c0.518-0.531,1.017-1.045,1.512-1.555c0.073-0.087,0.144-0.177,0.214-0.266
			c0.118-0.147-0.094,0.058-0.479,0.454C13.501,20.09,9.302,24.414,16.66,16.913z"/>
	</g>
</g>
<g>
</g>
<g>
</g>
<g>
</g>
<g>
</g>
<g>
</g>
<g>
</g>
<g>
</g>
<g>
</g>
<g>
</g>
<g>
</g>
<g>
</g>
<g>
</g>
<g>
</g>
<g>
</g>
<g>
</g>
</svg>
