<?xml version="1.0" encoding="iso-8859-1"?>
<!-- Generator: Adobe Illustrator 16.0.0, SVG Export Plug-In . SVG Version: 6.00 Build 0)  -->
<!DOCTYPE svg PUBLIC "-//W3C//DTD SVG 1.1//EN" "http://www.w3.org/Graphics/SVG/1.1/DTD/svg11.dtd">
<svg version="1.1" id="Capa_1" xmlns="http://www.w3.org/2000/svg" xmlns:xlink="http://www.w3.org/1999/xlink" x="0px" y="0px"
	 width="41.882px" height="41.882px" viewBox="0 0 41.882 41.882" style="enable-background:new 0 0 41.882 41.882;"
	 xml:space="preserve">
<g>
	<g>
		<path d="M31.543,15.573c0.252-0.224,0.446-0.412,0.435-0.421c-0.012-0.009-0.216,0.173-0.456,0.405
			C31.284,15.789,31.292,15.795,31.543,15.573z"/>
		<path d="M27.51,13.204c-0.381-0.086-0.732-0.134-0.78-0.135c-0.048-0.002-0.279,0.176-0.518,0.397
			c-0.238,0.222-0.127,0.501,0.238,0.647c0.365,0.146,0.899,0.054,1.202-0.228C27.954,13.604,27.892,13.289,27.51,13.204z"/>
		<path d="M19.639,41.003c0.104,0.001,0.208,0.002,0.312,0.003c0.552,0.002,1.076-0.094,1.169-0.188
			c0.093-0.096-0.249-0.205-0.756-0.294c-0.325-0.057-0.63-0.127-0.907-0.215c-0.022-0.007-0.043-0.014-0.064-0.021
			c-0.035-0.012-0.218,0.136-0.408,0.328C18.794,40.809,19.086,40.994,19.639,41.003z"/>
		<path d="M24.208,12.993c-0.233-0.007-0.51,0.07-0.618,0.171c-0.107,0.102-0.114,0.187-0.018,0.19s0.271,0.019,0.389,0.04
			c0.117,0.021,0.313-0.057,0.441-0.175C24.529,13.102,24.441,13,24.208,12.993z"/>
		<path d="M6.529,0C6.451,0.005,6.336,0.063,6.272,0.128c-0.063,0.065-0.56,0.183-1.088,0.343c-0.372,0.112-0.77,0.26-1.192,0.446
			C3.906,0.956,3.835,0.991,3.781,1.021C3.667,1.086,3.327,1.53,3.06,2.014c-1.822,3.314-0.795,8.693-0.795,12.181
			c0,4.782-0.483,9.861,0.367,14.59c1.471,8.179,10.237,13.553,18.063,13.067c11.871-0.737,22.097-10.773,18.469-23.201
			c-2.09-7.161-7.96-11.37-15.293-11.852C23.483,6.773,23,6.739,22.465,6.714c-0.552-0.024-0.979-0.05-0.953-0.08
			c0.026-0.03-0.398-0.059-0.949-0.015c-0.073,0.006-0.147,0.012-0.219,0.02c-0.55,0.055-0.997,0.158-1.009,0.169
			c-0.011,0.012-0.467,0.08-0.993,0.249c-0.552,0.177-1.03,0.432-1.377,0.793c-2.869,2.988-0.758,6.189,3.077,6.303
			c3.896,0.116,7.164,0.872,9.805,4.089c1.806,2.2,1.797,5.743,1.311,8.348c-0.936,4.997-5.743,7.696-10.591,7.776
			c-11.579,0.193-9.889-13.176-9.912-20.901c-0.013-4.175,1.21-12.634-3.218-13.242C6.89,0.149,6.491,0.166,6.554,0.104
			C6.618,0.042,6.605-0.004,6.529,0z M6.631,1.096c3.31,1.651,2.1,15.738,2.106,17.656c0.022,7.158,0.32,14.997,9.122,16.271
			c2.728,0.395,5.46,0.085,7.869-0.874c0.515-0.204,1.062-0.422,1.239-0.447c0.205-0.029,0.322-0.049,0.322-0.049
			c0.172-0.045,0.34-0.094,0.504-0.146c0.277-0.086,0.809-0.485,1.193-0.882c1.678-1.728,3.539-3.644,5.487-5.644
			c0.387-0.396,0.827-1.146,0.941-1.687c0.034-0.16,0.064-0.319,0.093-0.479c0.097-0.544-0.181-0.672-0.569-0.28
			c-0.43,0.433-0.854,0.861-1.277,1.288c-0.391,0.392-0.683,0.644-0.651,0.563c0.019-0.049,0.035-0.098,0.05-0.147
			c0.082-0.279,0.149-0.554,0.206-0.824c0.096-0.459,0.459-1.153,0.849-1.547c0.273-0.277,0.547-0.552,0.816-0.825
			c0.39-0.393,0.693-0.838,0.678-0.997c-0.016-0.157-0.337,0.038-0.716,0.44c-0.248,0.263-0.494,0.522-0.738,0.784
			c-0.381,0.4-0.645,0.279-0.654-0.272c-0.001-0.069-0.003-0.14-0.006-0.209c-0.023-0.552,0.208-1.323,0.585-1.727
			c0.163-0.175,0.325-0.35,0.487-0.524c0.376-0.404,0.66-0.821,0.632-0.93c-0.019-0.068-0.037-0.133-0.058-0.196
			c-0.046-0.149-0.098-0.294-0.151-0.436c-0.092-0.237-0.493-0.11-0.886,0.279c-0.122,0.121-0.242,0.241-0.364,0.362
			c-0.393,0.389-0.852,0.278-1.093-0.219c-0.566-1.167-1.388-2.183-2.391-3.03c-0.422-0.356-0.483-0.904-0.102-1.268
			c0.382-0.364,0.646-0.684,0.593-0.711c-0.056-0.028-0.397,0.242-0.769,0.604c-0.368,0.361-0.374,0.358-0.007-0.005
			c0.367-0.363,0.652-0.662,0.637-0.67c-0.015-0.008-0.324,0.277-0.692,0.636c-0.367,0.359-1.036,0.399-1.521,0.134
			c-1.854-1.018-4.045-1.6-6.286-1.667c-0.428-0.013-0.838-0.03-1.227-0.068c-0.55-0.054-0.763-0.39-0.489-0.67
			c0.273-0.281,0.38-0.581,0.251-0.689c-0.13-0.108-0.491,0.05-0.824,0.37c-0.334,0.32-1.029,0.398-1.417,0.004
			c-0.339-0.345-0.619-0.808-0.827-1.438c-0.019-0.056-0.03-0.107-0.041-0.157c-0.019-0.088,0.284-0.474,0.678-0.862
			c0.398-0.394,0.798-0.788,1.197-1.182C19.803,8.341,20.135,8,20.147,7.966c0.008-0.021,0.018-0.041,0.027-0.059
			c0.039-0.068,0.08-0.131,0.123-0.19c0.072-0.102,0.586-0.215,1.139-0.207c1.262,0.02,2.456,0.213,2.977,0.295
			c2.218,0.351,4.278,1.014,6.227,2.136c3.375,1.945,5.423,5.639,6.592,9.225c2.744,8.418-1.655,16.535-9.326,20.493
			c-3.596,1.854-7.424,2.041-10.945,1.034c-0.531-0.151-0.751-0.52-0.502-0.785s0.035-0.652-0.462-0.893
			c-0.091-0.044-0.182-0.09-0.271-0.135c-0.492-0.25-1.115-0.25-1.409,0.03c-0.294,0.281-0.931,0.305-1.405,0.024
			c-0.285-0.168-0.565-0.345-0.841-0.528c-0.46-0.306-0.557-0.837-0.235-1.159c0.32-0.321,0.373-0.758,0.127-0.984
			c-0.246-0.228-0.725-0.155-1.077,0.168c-0.353,0.323-0.979,0.295-1.378-0.088c-0.316-0.303-0.622-0.616-0.917-0.94
			c-0.371-0.409-0.339-1.076,0.049-1.469c0.004-0.004,0.008-0.009,0.011-0.013c0.389-0.393,0.653-0.787,0.594-0.878
			c-0.06-0.092-0.435,0.139-0.84,0.514c-0.012,0.011-0.023,0.021-0.036,0.032c-0.405,0.375-0.93,0.429-1.157,0.107
			c-0.229-0.321-0.072-0.888,0.337-1.26c0.041-0.038,0.083-0.076,0.125-0.113c0.408-0.372,0.604-0.922,0.451-1.235
			c-0.152-0.312-0.596-0.264-1,0.113c-0.072,0.067-0.145,0.135-0.216,0.202c-0.404,0.377-0.957,0.294-1.205-0.199
			c-0.271-0.539-0.516-1.091-0.729-1.656c-0.05-0.132-0.093-0.267-0.133-0.403c-0.066-0.227,0.073-0.588,0.309-0.811
			c0.142-0.132,0.283-0.266,0.427-0.399c0.183-0.189,0.365-0.376,0.547-0.563c0.302-0.31,0.506-0.871,0.47-1.251
			c-0.035-0.38-0.372-0.374-0.764,0.017c-0.293,0.291-0.584,0.58-0.87,0.864c-0.087,0.094-0.174,0.187-0.262,0.279
			c-0.145,0.154-0.351-0.161-0.428-0.708c-0.014-0.095-0.026-0.19-0.038-0.285c-0.068-0.548,0.222-1.31,0.613-1.7
			c0.304-0.303,0.608-0.605,0.913-0.908c0.393-0.39,0.711-0.728,0.711-0.756c0-0.027-0.321,0.26-0.719,0.644
			c-0.282,0.271-0.539,0.519-0.757,0.728c-0.398,0.382-0.759,0.719-0.797,0.757c-0.039,0.039-0.087-0.214-0.1-0.565
			s0.302-0.95,0.695-1.338c0.321-0.317,0.644-0.634,0.965-0.951c0.393-0.388,0.712-1.023,0.712-1.417
			c0-0.395-0.312-0.391-0.696,0.006c-0.331,0.34-0.662,0.682-0.993,1.024c-0.385,0.396-0.69,0.307-0.678-0.201
			c0.013-0.508,0.339-1.241,0.723-1.637c0.318-0.328,0.635-0.654,0.948-0.977c0.385-0.396,0.696-1.164,0.696-1.716
			c0-0.064,0-0.128,0-0.191c0-0.552-0.318-0.686-0.712-0.298c-0.284,0.281-0.569,0.562-0.854,0.843
			c-0.394,0.388-0.71,0.579-0.707,0.428c0.002-0.092,0.003-0.183,0.003-0.272c0-0.457-0.018-0.963-0.046-1.506
			c-0.028-0.551,0.264-1.308,0.663-1.69c0.311-0.298,0.623-0.597,0.933-0.896c0.398-0.383,0.72-0.863,0.72-1.071
			s-0.315-0.059-0.703,0.333c-0.336,0.339-0.672,0.679-1.008,1.018c-0.389,0.393-0.734,0.265-0.772-0.286
			c-0.014-0.204-0.028-0.41-0.042-0.618c-0.037-0.551,0.248-1.317,0.635-1.712c0.398-0.405,0.794-0.81,1.19-1.213
			C6.156,9.753,6.47,9.12,6.47,8.731c0-0.387-0.321-0.389-0.718-0.005C5.366,9.101,4.955,9.498,4.521,9.917
			C4.125,10.301,4.116,10.292,4.504,9.9c0.42-0.421,0.839-0.834,1.248-1.233C6.146,8.282,6.141,8.274,5.74,8.656
			C5.337,9.04,4.928,9.435,4.515,9.835c-0.396,0.385-0.736,0.268-0.748-0.262c-0.013-0.53,0.309-1.274,0.704-1.659
			c0.425-0.413,0.851-0.828,1.281-1.247C6.146,6.283,6.468,5.61,6.468,5.167s-0.318-0.489-0.71-0.1
			C5.336,5.483,4.917,5.901,4.497,6.318C4.104,6.708,3.805,6.575,3.852,6.024c0.019-0.23,0.043-0.457,0.069-0.681
			c0.065-0.548,0.473-1.299,0.871-1.681C5.222,3.25,5.648,2.84,6.071,2.437C6.469,2.055,6.802,1.715,6.818,1.68
			C6.833,1.645,6.52,1.925,6.122,2.308C5.694,2.718,5.258,3.137,4.814,3.562C4.417,3.943,4.173,3.812,4.321,3.281
			c0.075-0.268,0.159-0.527,0.254-0.775c0.195-0.517,0.566-1.051,0.75-1.227C5.508,1.106,6.137,0.85,6.631,1.096z"/>
	</g>
</g>
<g>
</g>
<g>
</g>
<g>
</g>
<g>
</g>
<g>
</g>
<g>
</g>
<g>
</g>
<g>
</g>
<g>
</g>
<g>
</g>
<g>
</g>
<g>
</g>
<g>
</g>
<g>
</g>
<g>
</g>
</svg>
