<?xml version="1.0" encoding="iso-8859-1"?>
<!-- Generator: Adobe Illustrator 16.0.0, SVG Export Plug-In . SVG Version: 6.00 Build 0)  -->
<!DOCTYPE svg PUBLIC "-//W3C//DTD SVG 1.1//EN" "http://www.w3.org/Graphics/SVG/1.1/DTD/svg11.dtd">
<svg version="1.1" id="Capa_1" xmlns="http://www.w3.org/2000/svg" xmlns:xlink="http://www.w3.org/1999/xlink" x="0px" y="0px"
	 width="42.492px" height="42.492px" viewBox="0 0 42.492 42.492" style="enable-background:new 0 0 42.492 42.492;"
	 xml:space="preserve">
<g>
	<g>
		<path d="M20.082,21.755c-0.723-0.481-0.91-0.934-0.368-1.325c0.358-0.258,0.654-0.529,0.891-0.815
			c0.779-0.938,1.169-2.176,1.169-3.722c0-1.497-0.384-2.785-1.159-3.859c-0.261-0.356-0.569-0.666-0.905-0.951
			c-0.633-0.945-1.669-1.825-2.927-2.285c-1.612-0.641-3.428-0.697-5.023-0.568c-0.392-0.111,0.309-0.215-1.015-0.332
			C8.133,7.82,5.401,7.911,2.641,8.042l-0.556,0.03C1.837,8.095,1.59,8.154,1.364,8.258C0.912,8.463,0.533,8.812,0.309,9.242
			c-0.241,0.412-0.285,0.978-0.245,1.316l0.054,1.038l0.178,4.127c-0.353,1.16-0.396,5.285-0.099,6.932
			c0.185,0.104,0.054-2.687,0.194-2.613c0.308,1.485,0.033,4.688,0.099,6.719c-0.029,1.354-0.058,2.707-0.076,4.082l-0.017,1.467
			c-0.045,0.508,0.148,1.142,0.578,1.515c0.39,0.406,1.047,0.525,1.519,0.493c0.26,0.189,0.578,0.306,0.925,0.306h9.822
			c1.283,0,2.473-0.114,3.57-0.342c1.098-0.229,2.051-0.65,2.856-1.27c0.716-0.534,1.312-1.199,1.789-1.985
			c0.753-1.19,1.124-2.533,1.124-4.034c0-1.45-0.326-2.685-0.982-3.703C21.206,22.677,20.7,22.167,20.082,21.755z M1.846,10.915
			v22.135c0,0.386,0.143,0.733,0.373,1.007c-0.346-0.021-0.688-0.111-0.955-0.335c-0.35-0.27-0.57-0.691-0.591-1.126l0.015-1.13
			c0.059-0.048,0.086,0.529,0.149,0.405c0.195-1.233,0.079-2.456-0.054-2.271c0.242-1.555,0.597-3.62,0.663-5.427
			c-0.043-0.283-0.139,0.499-0.172,0.027c0.425-2.119,0.278-5.565,0.015-5.704c-0.017,2.439-0.237,4.959-0.45,7.481l0.004-0.137
			c0.143-2.601,0.194-5.266,0.193-7.969c-0.001-1.772-0.024-3.56-0.057-5.354l-0.027-1.348c0.007-0.434-0.067-0.953,0.042-1.246
			c0.11-0.35,0.379-0.659,0.729-0.804c0.325-0.155,0.786-0.099,1.243-0.126c3.602-0.069,7.21-0.207,10.731-0.114
			c1.163,0.081,2.338,0.344,3.359,0.853c-0.881-0.24-1.875-0.372-2.992-0.39H3.418C2.55,9.341,1.846,10.045,1.846,10.915z
			 M16.734,16.458c0,1.063-0.341,1.804-1.025,2.222c-0.685,0.417-1.576,0.627-2.673,0.627H9.252c-0.868,0-1.572-0.704-1.572-1.572
			v-2.431c0-0.868,0.704-1.572,1.572-1.572h3.137c1.21,0,2.207,0.133,2.985,0.395C16.283,14.502,16.734,15.282,16.734,16.458z
			 M15.587,29.787c-0.611,0.3-1.462,0.444-2.56,0.444H9.252c-0.868,0-1.572-0.704-1.572-1.572v-3.592
			c0-0.868,0.704-1.572,1.572-1.572h3.858c1.084,0.011,1.93,0.151,2.53,0.429c1.071,0.487,1.61,1.395,1.61,2.708
			C17.251,28.188,16.695,29.236,15.587,29.787z"/>
		<path d="M40.901,18.772c-0.652-0.968-1.447-1.721-2.374-2.276c-0.263-0.298-0.568-0.604-0.968-0.898
			c-2.098-1.577-6.101-2.192-9.194-0.742c-0.421,0.08,0.215-0.373-1.121,0.174c-0.636,0.334-1.221,0.74-1.772,1.253
			c-0.513,0.47-1.012,1.068-1.393,1.696c-0.784,1.271-1.179,2.729-1.318,4.157c-0.14,1.434-0.06,2.848,0.173,4.254
			c0.242,1.395,0.71,2.778,1.521,3.941c0.086,0.304,0.324,0.744,0.73,1.229c0.401,0.476,0.943,0.927,1.548,1.323
			c1.209,0.814,2.717,1.224,3.573,1.228c0.068-0.076-0.603-0.22-1.252-0.45c-0.654-0.22-1.27-0.544-1.205-0.586
			c0.412,0.121,0.95,0.297,1.556,0.464c1.309,0.607,2.732,0.916,4.276,0.916c2.921,0,5.194-0.884,6.815-2.643
			c0.564-0.6,0.994-1.192,1.289-1.78c0.363-0.722-0.161-1.388-0.936-1.477c-0.019-0.044-0.021-0.093-0.043-0.133
			c-0.286-0.518-0.896-0.74-1.397-0.723l-1.375-0.003c-0.46-0.029-1.015,0.079-1.447,0.268c-0.453,0.205-0.868,0.393-1.266,0.827
			l0.043-0.044c-0.747,0.591-1.729,0.988-2.687,1.027c-0.76,0.017-1.515-0.11-2.187-0.431c-0.433-0.448-0.757-1.003-0.953-1.684
			c-0.238-0.834,0.472-1.551,1.339-1.551h10.049c0.867,0,1.588-0.705,1.566-1.572c-0.021-0.824-0.071-1.499-0.149-2.023
			C42.122,21.096,41.644,19.852,40.901,18.772z M32.704,30c1.017-0.049,2.014-0.449,2.809-1.071l-0.006,0.008
			c0.545-0.546,1.266-0.856,2.006-0.979c0.753-0.023,1.486-0.028,2.231,0.021c0.338,0.062,0.657,0.263,0.828,0.563h-1.583
			c-0.869,0-1.73,0.32-1.998,0.669c-0.17,0.225-0.354,0.415-0.549,0.572c-0.673,0.558-1.554,0.831-2.629,0.831
			c-1.021,0-1.895-0.226-2.611-0.68c-0.087-0.054-0.159-0.121-0.24-0.181C31.523,29.932,32.116,30.014,32.704,30z M27.029,17.753
			c-1.663,1.675-2.495,4.079-2.495,7.221c0,2.862,0.679,5.037,2.025,6.54c-0.051-0.04-0.108-0.071-0.158-0.112
			c-1.311-1.011-2.118-2.571-2.485-4.245c-0.351-1.678-0.419-3.469-0.176-5.195c0.241-1.722,0.914-3.419,2.134-4.682
			c1.198-1.278,2.833-2.109,4.542-2.384c1.708-0.269,3.476-0.143,5.054,0.4c0.164,0.055,0.31,0.139,0.468,0.206
			c-0.766-0.167-1.572-0.257-2.429-0.257C30.853,15.245,28.696,16.08,27.029,17.753z M36.011,22.988h-5.019
			c-0.868,0-1.505-0.711-1.164-1.505c0.215-0.501,0.5-0.935,0.856-1.297c0.666-0.688,1.607-1.037,2.825-1.037
			c1.12,0,2.057,0.326,2.809,0.98c0.411,0.352,0.723,0.795,0.936,1.327C37.578,22.261,36.879,22.988,36.011,22.988z"/>
		<path d="M28.266,12.366c0.132,0.006,0.263,0.006,0.394,0.011c0.284,0.328,0.755,0.543,1.289,0.543h7.043
			c0.868,0,1.572-0.567,1.572-1.265c0-0.612-0.541-1.123-1.259-1.24c-0.113-0.17-0.253-0.32-0.418-0.411
			c-0.084-0.086,0.122-0.009-0.222-0.229c-0.36-0.187-0.794-0.216-1.153-0.193l-1.109,0.041l-2.235,0.105
			c-0.312-0.096-1.427-0.107-1.872-0.027c-0.027,0.05,0.726,0.015,0.706,0.052c-0.398,0.083-1.256,0.01-1.805,0.026
			c-0.393-0.017-0.796-0.039-1.188,0.121c-0.16,0.058-0.309,0.158-0.444,0.273c-0.005,0.004-0.009,0.01-0.014,0.014
			c-0.292,0.255-0.499,0.617-0.447,1.028C27.176,11.819,27.719,12.239,28.266,12.366z M27.302,10.575
			c0.129-0.225,0.319-0.394,0.54-0.513c0.006-0.003,0.01-0.007,0.016-0.01c0.028-0.015,0.06-0.021,0.088-0.035
			c-0.02,0.022-0.105,0.073-0.074,0.074c0.304-0.113,0.608-0.177,0.558-0.208c0.403,0.015,0.973,0.148,1.457,0.154
			c0.076-0.012-0.136-0.038-0.008-0.046c0.572,0.114,1.503,0.075,1.54,0.004c-0.632-0.004-1.284-0.06-1.938-0.116
			c0.129,0.005,0.259,0.006,0.387,0.011c1.495,0.061,3.059,0.026,4.623-0.011c0.486-0.008,0.974-0.03,1.455-0.024
			c0.421,0.028,0.842,0.217,1.115,0.54c-0.023,0-0.045-0.005-0.069-0.005h-7.043c-0.868,0-1.572,0.566-1.572,1.265
			c0,0.258,0.098,0.497,0.263,0.697c-0.371-0.029-0.735-0.127-1.025-0.371C27.188,11.662,27.023,11.029,27.302,10.575z"/>
	</g>
</g>
<g>
</g>
<g>
</g>
<g>
</g>
<g>
</g>
<g>
</g>
<g>
</g>
<g>
</g>
<g>
</g>
<g>
</g>
<g>
</g>
<g>
</g>
<g>
</g>
<g>
</g>
<g>
</g>
<g>
</g>
</svg>
