<?xml version="1.0" encoding="iso-8859-1"?>
<!-- Generator: Adobe Illustrator 16.0.0, SVG Export Plug-In . SVG Version: 6.00 Build 0)  -->
<!DOCTYPE svg PUBLIC "-//W3C//DTD SVG 1.1//EN" "http://www.w3.org/Graphics/SVG/1.1/DTD/svg11.dtd">
<svg version="1.1" id="Capa_1" xmlns="http://www.w3.org/2000/svg" xmlns:xlink="http://www.w3.org/1999/xlink" x="0px" y="0px"
	 width="46.479px" height="46.478px" viewBox="0 0 46.479 46.478" style="enable-background:new 0 0 46.479 46.478;"
	 xml:space="preserve">
<g>
	<g>
		<path d="M7.937,42.704c0.49,0.254,0.924,0.453,0.958,0.47c0.019,0.008,0.039,0.016,0.062,0.024
			c0.019,0.008,0.039,0.015,0.061,0.021c0.035,0.01,0.488,0.156,1.021,0.301c4.86,1.316,10.208,0.759,15.184,0.759
			c5.619,0,10.701,0.134,15.576-3.187c5.79-3.945,5.467-10.609,5.53-16.789c0.018-1.604,0.772-5.281-1.28-6.208
			c-1.864-0.842-5.75,0.49-6.66-2.072c-0.667-1.878-0.469-3.951-1.241-5.846C34.1,2.688,25.727,2.083,18.937,2.083
			c-6.432,0-12.019,0.934-16.275,6.273C-1.003,12.955,0.184,20.433,0.184,25.9C0.185,33.113,1.162,39.201,7.937,42.704z
			 M5.263,7.479c0.449-0.507,0.941-0.985,1.471-1.433c0.421-0.357,0.463-0.308,0.069,0.078C6.319,6.598,5.832,7.075,5.344,7.552
			C4.949,7.938,4.897,7.893,5.263,7.479z M2.592,12.341c0.148-0.532,0.625-1.269,1.012-1.662c2.018-2.043,4.021-4.062,6.003-6.051
			c0.39-0.392,1.129-0.856,1.665-0.99c0.507-0.126,1.023-0.222,1.545-0.294c0.547-0.076,0.677,0.208,0.287,0.599
			c-3.417,3.43-6.829,6.864-10.237,10.304c-0.389,0.392-0.683,0.264-0.609-0.283C2.335,13.408,2.446,12.867,2.592,12.341z
			 M7.528,17.217c-1.64,1.688-3.274,3.379-4.911,5.068c-0.384,0.397-0.686,0.306-0.671-0.202c0.015-0.508,0.342-1.242,0.727-1.638
			c1.758-1.806,3.407-3.497,4.885-5.005c0.386-0.395,0.718-1.162,0.79-1.709c0.011-0.082,0.022-0.163,0.035-0.244
			c0.083-0.546-0.125-0.667-0.519-0.28c-1.679,1.65-3.381,3.326-5.1,5.019c-0.393,0.388-0.697,0.254-0.683-0.298
			c0.01-0.379,0.019-0.756,0.025-1.13c0.009-0.552,0.319-1.298,0.7-1.665c0.23-0.221,0.459-0.442,0.689-0.667
			c3.5-3.541,7.01-7.065,10.521-10.586c0.39-0.391,1.154-0.731,1.706-0.74c1.134-0.02,2.267,0.005,3.366,0.005
			c7.206,0,15.324,2.109,16.878,10.199c0.205,1.068,0.038,4.313,1.484,4.788c2.856,0.937,6.929-0.297,6.962,3.599
			c0.05,5.479,0.693,11.596-2.421,16.35c-3.798,5.798-10.973,5.136-16.948,5.136c-2.276,0-4.68,0.131-7.069,0.1
			c-0.552-0.006-0.875-0.153-0.722-0.314c0.153-0.16,0.114-0.343-0.088-0.408c-0.122-0.041-0.243-0.082-0.363-0.127
			c-0.152-0.061-0.299-0.123-0.445-0.188c-0.244-0.109-0.68,0.038-0.976,0.337c-0.295,0.298-0.981,0.497-1.528,0.422
			c-0.286-0.039-0.571-0.083-0.854-0.133c-0.544-0.098-0.675-0.527-0.297-0.93c0.127-0.135,0.252-0.27,0.378-0.404
			c0.378-0.403,0.344-0.961-0.054-1.273c-0.241-0.189-0.475-0.386-0.699-0.593c-0.025-0.022-0.048-0.048-0.072-0.073
			c-0.039-0.041-0.393,0.239-0.789,0.625c-0.334,0.323-0.668,0.647-1.003,0.971c-0.398,0.384-1.122,0.494-1.598,0.215
			C8.564,41.263,8.276,41.08,8,40.888c-0.454-0.314-0.484-0.918-0.094-1.309c0.535-0.535,1.082-1.085,1.644-1.648
			c0.39-0.392,0.58-0.9,0.435-1.143S9.4,36.648,8.993,37.021c-0.648,0.592-1.301,1.188-1.957,1.789
			c-0.407,0.373-1.059,0.363-1.419-0.057c-0.317-0.369-0.609-0.75-0.876-1.146c-0.309-0.457-0.213-1.168,0.175-1.561
			c0.924-0.938,1.85-1.877,2.782-2.82c0.388-0.394,0.698-0.742,0.692-0.779c-0.006-0.037-0.339,0.236-0.745,0.611
			c-0.96,0.891-1.921,1.779-2.883,2.67c-0.405,0.375-0.888,0.391-1.06,0.025c-0.171-0.365,0.037-0.973,0.444-1.346
			c1.117-1.023,2.231-2.047,3.346-3.072c0.407-0.373,0.735-0.707,0.732-0.746c-0.002-0.023-0.003-0.045-0.003-0.07
			c0,0,0-0.35,0-0.783s-0.328-0.479-0.732-0.102c-1.263,1.174-2.525,2.35-3.787,3.525c-0.404,0.376-0.867,0.255-1.004-0.279
			c-0.179-0.701-0.321-1.42-0.433-2.152c-0.083-0.547,0.179-1.312,0.563-1.709c0.82-0.848,1.64-1.693,2.456-2.527
			c0.75-0.773,1.497-1.545,2.242-2.312c0.384-0.396,0.696-1,0.696-1.351s-0.317-0.317-0.709,0.073
			c-1.651,1.643-3.245,3.229-4.795,4.77c-0.392,0.391-0.743,0.26-0.769-0.293c-0.007-0.15-0.014-0.301-0.019-0.451
			c-0.021-0.553,0.062-1.099,0.172-1.219c0.109-0.119,0.109-0.131,0-0.025c-0.109,0.106-0.204-0.119-0.205-0.502
			c-0.002-0.383,0.319-1.01,0.712-1.397c1.633-1.611,3.267-3.222,4.901-4.833c0.393-0.388,0.712-1.093,0.712-1.576
			C8.225,16.89,7.913,16.821,7.528,17.217z"/>
		<path d="M14.972,18.78c2.588,0,5.176,0,7.764,0c2.577,0,4.154-2.115,3.831-3.838c-0.102-0.543-0.148-1.136,0.147-1.411
			c0.295-0.275,0.114-0.499-0.403-0.499s-0.979,0.039-1.031,0.086c-0.051,0.047-0.401-0.072-0.812-0.182
			c-0.231-0.062-0.483-0.109-0.755-0.141c-2.598-0.297-5.363-0.021-7.979-0.021c-0.047,0-0.097,0.005-0.148,0.014
			c-0.035,0.002-0.056-0.003-0.095,0.001c-1.709,0.195-2.995,0.87-3.721,2.484C10.886,17.239,13.349,18.78,14.972,18.78z
			 M14.233,14.167c0.453-0.316,1.38-0.348,1.932-0.381c3.14-0.186,9.092-0.686,8.608,2.76c-0.263,1.877-4.813,1.172-5.914,1.172
			c-0.835,0-1.669,0-2.504,0c-0.193,0-0.387,0-0.58,0C13.975,17.718,12.845,15.137,14.233,14.167z"/>
		<path d="M27.633,17.974c0.042,0,0.412-0.296,0.825-0.663c1.009-0.893,2.034-1.801,3.062-2.707
			c0.414-0.365,0.716-0.701,0.674-0.751c-0.024-0.03-0.051-0.06-0.081-0.088c-0.019-0.017-0.039-0.032-0.058-0.046
			c-0.034-0.023-0.381,0.267-0.777,0.652c-1.001,0.97-2.001,1.94-3.003,2.907C27.878,17.663,27.589,17.974,27.633,17.974z"/>
		<path d="M26.14,17.275c-0.396,0.386-0.647,0.699-0.563,0.699s0.477-0.309,0.875-0.69c1.34-1.278,2.615-2.5,3.812-3.648
			c0.089-0.086,0.182-0.176,0.275-0.268c0.152-0.148,0.255-0.272,0.229-0.28c-0.026-0.007-0.1,0.039-0.164,0.099
			c-0.064,0.061-0.065,0.061-0.002,0c0.062-0.061,0.062-0.118-0.003-0.123c-0.065-0.004-0.44,0.303-0.837,0.688
			C28.546,14.931,27.339,16.104,26.14,17.275z"/>
		<path d="M25.364,17.974c0.024,0,0.362-0.314,0.756-0.702c2.32-2.283,4.251-4.189,3.723-3.717c-1.281,1.253-2.549,2.492-3.807,3.72
			C25.642,17.661,25.341,17.974,25.364,17.974z"/>
		<path d="M35.536,32.782c0.338,0,0.929-0.315,1.318-0.707c0.76-0.763,1.521-1.526,2.281-2.289c0.39-0.392,0.545-0.806,0.331-0.892
			c-0.214-0.084-0.719,0.188-1.117,0.57c-0.295,0.285-0.59,0.569-0.882,0.852c-0.734,0.715-1.34,1.303-1.822,1.77
			C35.248,32.47,35.198,32.782,35.536,32.782z"/>
		<path d="M23.224,28.409c-2.683,0-9.098-1.138-11.064,1.665c-0.317,0.451-0.438,0.914-0.445,0.936
			c-0.004,0.012-0.007,0.023-0.012,0.037c-0.006,0.02-0.017,0.037-0.022,0.059c-0.006,0.023,0.009,0.037,0.007,0.059
			c0,0.025-0.015,0.049-0.009,0.074c0.006,0.025,0.02,0.044,0.027,0.068c1.086,3.815,9.581,2.281,12.386,2.281
			c2.942,0,9.711,1.277,10.675-2.734c0.053-0.223,0.061-0.426,0.029-0.613c-0.059-0.336-0.022-0.787,0.255-1.066
			c0.276-0.279,0.323-0.506,0.102-0.506c-0.221,0-0.536,0.139-0.703,0.311s-0.674,0.052-1.193-0.135
			C30.316,27.781,24.158,28.409,23.224,28.409z M31.061,32.525c-0.615,0-1.229,0-1.845,0c-1.726,0-3.449,0-5.174,0
			c-1.755,0-7.928,0.964-9.883-0.899c-0.399-0.381-0.381-1.304,0.062-1.633c1.799-1.332,6.812-0.522,8.243-0.522
			c2.751,0,5.502,0,8.253,0C33.711,29.47,32.234,32.525,31.061,32.525z"/>
		<path d="M7.549,15.684c-2.163,2.232-3.172,3.281-0.007,0.06c0.387-0.394,0.701-0.728,0.702-0.746S7.933,15.287,7.549,15.684z"/>
		<path d="M5.56,29.535c-0.39,0.391-0.377,0.402,0.026,0.025c0.631-0.588,1.268-1.184,1.907-1.779
			c0.404-0.377,0.732-0.734,0.732-0.801c0-0.065-0.316,0.199-0.706,0.59C6.902,28.189,6.252,28.841,5.56,29.535z"/>
		<path d="M37.996,32.782h0.23c0.058,0,0.114-0.003,0.169-0.009c0.094-0.008,0.485-0.332,0.875-0.723
			c0.304-0.307,0.596-0.602,0.875-0.883c0.389-0.392,0.689-0.849,0.639-1.009c-0.05-0.161-0.435,0.037-0.824,0.429
			c-0.495,0.495-0.99,0.992-1.486,1.487C38.084,32.464,37.869,32.782,37.996,32.782z"/>
		<path d="M36.754,30.98c0.396-0.385,0.396-0.385-0.002-0.002c-0.376,0.361-0.761,0.731-1.15,1.109
			c-0.398,0.383-0.394,0.387,0.004,0.002C35.935,31.773,36.316,31.404,36.754,30.98z"/>
	</g>
</g>
<g>
</g>
<g>
</g>
<g>
</g>
<g>
</g>
<g>
</g>
<g>
</g>
<g>
</g>
<g>
</g>
<g>
</g>
<g>
</g>
<g>
</g>
<g>
</g>
<g>
</g>
<g>
</g>
<g>
</g>
</svg>
