<?xml version="1.0" encoding="iso-8859-1"?>
<!-- Generator: Adobe Illustrator 16.0.0, SVG Export Plug-In . SVG Version: 6.00 Build 0)  -->
<!DOCTYPE svg PUBLIC "-//W3C//DTD SVG 1.1//EN" "http://www.w3.org/Graphics/SVG/1.1/DTD/svg11.dtd">
<svg version="1.1" id="Capa_1" xmlns="http://www.w3.org/2000/svg" xmlns:xlink="http://www.w3.org/1999/xlink" x="0px" y="0px"
	 width="47.461px" height="47.461px" viewBox="0 0 47.461 47.461" style="enable-background:new 0 0 47.461 47.461;"
	 xml:space="preserve">
<g>
	<g>
		<path d="M47.172,20.375c-0.114-0.222-0.344-0.508-0.511-0.64c-0.167-0.132-0.303-0.238-0.303-0.238
			c-0.188-0.157-0.556-0.249-1.105-0.267c-0.057-0.002-0.118-0.004-0.176-0.006l-0.019-0.016l-0.399-0.313L44.538,18.8l-0.15-0.005
			l-2.668-0.088c-0.471-0.023-0.953-0.068-1.435-0.106c-0.408-0.328-0.673-0.784-0.781-1.375c-0.108-0.601-0.219-1.311-0.331-2.131
			c-0.108-0.795-0.211-1.418-0.314-1.871c-0.104-0.45-0.202-0.823-0.296-1.108c-0.093-0.287-0.19-0.531-0.3-0.735l-0.392-0.724
			c-0.487-0.938-1.164-1.819-2.01-2.634c-0.852-0.812-1.771-1.53-2.782-2.146c-1-0.621-2.031-1.133-3.093-1.541
			c-0.499-0.192-0.981-0.351-1.445-0.477c-0.519-0.141-1.718-0.223-3.092-0.265c-1.39-0.143-2.626-0.232-3.521-0.447
			c-0.061-0.122,1.113-0.104,2.272-0.039c1.161,0.057,2.32,0.168,2.251,0.003c-1.388-0.421-3.922-0.705-6.296-0.632
			c-2.345,0.045-4.617,0.166-5.625,0.538C9.698,3.153,4.678,5.586,1.976,10.119c-0.334,0.539-0.637,1.131-0.881,1.7
			c-0.28,0.639-0.464,1.235-0.641,1.874c-0.151,0.635-0.279,1.279-0.334,1.928c-0.039,0.323-0.042,0.651-0.061,0.97l-0.021,0.868
			c-0.05,2.309-0.055,4.586,0.011,6.812c0.201,2.256,0.377,1.061,0.567,1.73c-0.083,1.363-0.133,2.761-0.157,4.157
			c-0.006,0.711-0.031,1.367-0.002,2.118c0.034,0.756,0.133,1.526,0.3,2.238c0.675,2.912,2.406,5.224,4.137,6.638
			c1.742,1.432,3.452,2.007,4.42,2.163c0.845,0.121,1.175-0.01,0.899-0.375c0.51,0.271,1.036,0.525,1.596,0.745
			c1.011,0.394,2.059,0.658,3.136,0.82c-0.254-0.01-0.508-0.012-0.76-0.035c-0.19-0.017-0.378-0.047-0.566-0.07
			c-0.432-0.057-0.863-0.113-1.288-0.205c-0.014-0.003-0.026-0.006-0.04-0.009c-1.371-0.309-1.968-0.575-2.116-0.573
			c-0.139-0.016,0.2,0.177,0.801,0.424c0.603,0.252,1.483,0.524,2.393,0.687c0.906,0.171,1.841,0.216,2.494,0.215l11.808,0.032
			l2.988,0.018c0.989,0.011,2.015,0.019,3.033-0.111c0.626-0.073,1.241-0.201,1.851-0.354c1.121-0.159,2.211-0.428,3.258-0.834
			c1.72-0.669,3.211-1.587,4.475-2.747c1.261-1.169,2.261-2.541,3-4.125c0.736-1.587,1.104-3.258,1.104-5.017l0.067-6.475
			c0.022-2.21,0.018-4.123-0.013-4.275C47.405,20.9,47.287,20.597,47.172,20.375z M7.336,7.384c-1.261,1.186-2.26,2.571-3,4.159
			c-0.729,1.584-1.105,3.259-1.105,5.028v15.167c0,1.785,0.375,3.47,1.105,5.054c0.74,1.586,1.738,2.962,3,4.132
			c0.663,0.612,1.391,1.153,2.179,1.629c-2.069-0.745-4.003-2.072-5.419-3.929c-1.545-1.983-2.457-4.531-2.421-7.154
			c-0.03-2.637-0.023-5.299,0.005-7.978l0.057-4.027c0.043-1.337,0.003-2.715,0.136-4.016c0.291-2.625,1.567-5.087,3.357-6.971
			c1.622-1.721,3.711-2.929,5.936-3.608C9.717,5.519,8.437,6.35,7.336,7.384z M15.516,14.986c0.526-0.488,1.158-0.734,1.918-0.734
			h7.764c0.755,0,1.391,0.246,1.922,0.734c0.523,0.492,0.787,1.079,0.787,1.751c0,0.654-0.265,1.231-0.787,1.719
			c-0.532,0.493-1.167,0.737-1.922,0.737h-7.764c-0.76,0-1.392-0.243-1.918-0.723c-0.527-0.482-0.789-1.059-0.789-1.733
			C14.727,16.064,14.989,15.478,15.516,14.986z M35.128,33.387c-0.51,0.41-1.138,0.614-1.895,0.614h-15.8
			c-0.76,0-1.392-0.204-1.918-0.614c-0.527-0.404-0.789-0.896-0.789-1.464c0-0.572,0.262-1.055,0.789-1.447
			c0.526-0.391,1.158-0.59,1.918-0.59h15.8c0.757,0,1.385,0.2,1.895,0.59c0.502,0.393,0.757,0.875,0.757,1.447
			C35.886,32.49,35.63,32.981,35.128,33.387z"/>
	</g>
</g>
<g>
</g>
<g>
</g>
<g>
</g>
<g>
</g>
<g>
</g>
<g>
</g>
<g>
</g>
<g>
</g>
<g>
</g>
<g>
</g>
<g>
</g>
<g>
</g>
<g>
</g>
<g>
</g>
<g>
</g>
</svg>
