<?xml version="1.0" encoding="iso-8859-1"?>
<!-- Generator: Adobe Illustrator 16.0.0, SVG Export Plug-In . SVG Version: 6.00 Build 0)  -->
<!DOCTYPE svg PUBLIC "-//W3C//DTD SVG 1.1//EN" "http://www.w3.org/Graphics/SVG/1.1/DTD/svg11.dtd">
<svg version="1.1" id="Capa_1" xmlns="http://www.w3.org/2000/svg" xmlns:xlink="http://www.w3.org/1999/xlink" x="0px" y="0px"
	 width="44.908px" height="44.908px" viewBox="0 0 44.908 44.908" style="enable-background:new 0 0 44.908 44.908;"
	 xml:space="preserve">
<g>
	<g>
		<path d="M28.418,21.987c0.616-0.207,1.124-0.705,1.148-1.776c0.016-0.717,0.023-1.301,0.025-1.772
			c0.006-0.978-0.089-3.115-1.277-3.318c-1.189-0.203-2.137,1.675-2.137,3.332v3.066c0,0,0,0.086,0,0.193
			C26.18,21.819,27.227,22.386,28.418,21.987z"/>
		<polygon points="14.525,5.446 14.524,5.45 14.524,5.451 		"/>
		<path d="M44.512,36.97c-0.193,0.152-0.529,0.436-0.889,0.447c-0.699,0.068-1.674-0.01-2.949-0.008
			c-2.531-0.018-6.08,0.094-9.314,0.803c-0.418-0.264,0.277-0.572-1.086-0.797c-5.305-0.117-11.132,1.229-16.776,1.328
			c-1.147-0.965-5.274-1.443-7.021-0.973c-0.182,0.479,2.69,0.508,2.579,0.844C8,39.026,6.233,38.683,4.605,38.247l-2.154-0.621
			c-0.016-0.006-0.033-0.01-0.048-0.016c-0.423-0.176-0.925-0.449-1.042-0.662c-0.005-0.002-0.004-0.01-0.004-0.016
			c0.023,0,0.028-0.027,0.081-0.066c0.105-0.1,0.3-0.209,0.504-0.297c0.415-0.184,0.892-0.32,1.373-0.439
			c1.579-0.371,3.24-0.592,4.915-0.773c-0.014,0.082-0.03,0.174-0.044,0.252c-0.189,1.088,0.499,1.658,1.534,1.273
			c1.356-0.506,3.121-1.164,4.118-1.537c0.483-0.168,1.002-0.348,1.536-0.533c0.096-0.004,0.192-0.012,0.288-0.016
			c4.209-0.203,8.457-0.271,12.663-0.166c3.651,0.115,7.306,0.299,10.801,0.891c0.521,0.092,1.044,0.18,1.558,0.293
			c0.756,0.174,2.16,0.357,2.838,0.713c0.359,0.158,0.408,0.486,0.459,0.377c0.035-0.012,0.029-0.268-0.146-0.461
			c-0.127-0.154-0.346-0.299-0.609-0.438c-0.061-0.033-0.121-0.066-0.193-0.1c-0.031-0.014-0.051-0.029-0.083-0.043
			c-0.04-0.018-0.082-0.025-0.123-0.041c-0.086-0.037-0.157-0.072-0.257-0.107c-0.178-0.062-0.356-0.115-0.536-0.168
			c-0.056-0.018-0.112-0.037-0.169-0.053c-0.322-0.092-0.646-0.174-0.971-0.248c-0.141-0.033-0.309-0.062-0.484-0.09
			c-1.096-0.223-2.207-0.371-3.322-0.516c-1.992-0.23-4.007-0.371-6.031-0.465c-4.051-0.184-8.139-0.178-12.199-0.074
			c-0.53,0.016-1.059,0.037-1.588,0.055c5.589-1.941,12.801-4.451,17.146-5.982c0.521-0.158,1.048-0.326,1.568-0.477
			c0.643-0.221,1.258-0.295,1.986-0.672c0.166-0.092,0.319-0.207,0.461-0.34c1.281-0.701,1.133-2.086,1.133-2.086V5.385
			c0-1.104-0.896-2-2-2c-5.191,0-18.791,0-20.23,0c-0.186,0-0.34,0.032-0.497,0.062l-0.564-0.002
			c-0.516,0.015-1.036,0.199-1.405,0.565c-0.371,0.362-0.597,0.862-0.675,1.372c-0.347,1.779-0.7,3.537-1.056,5.284
			c-0.084,0.033,0.017-0.708-0.093-0.564c-0.546,1.551-0.688,3.16-0.472,2.955c-0.683,1.954-1.636,4.544-2.151,6.867
			c-0.013,0.377,0.299-0.612,0.23,0.006c-1.055,2.642-1.686,7.139-1.379,7.381c0.617-3.225,1.528-6.507,2.424-9.793
			c-0.076,0.349-0.154,0.689-0.23,1.035c-0.983,4.153-2.384,11.934-3.121,16.143c-0.507,0.049-1.017,0.09-1.521,0.145
			c-0.985,0.113-1.963,0.242-2.933,0.422c-0.135,0.029-0.27,0.059-0.404,0.084c-0.11-0.135,0.48-0.352,0.315-0.48
			c-0.693-0.1-1.362,0.039-1.807,0.266c-0.45,0.229-0.652,0.525-0.477,0.629c-0.232,0.031-0.479,0.068-0.767,0.203
			c-0.142,0.066-0.303,0.164-0.459,0.348c-0.075,0.09-0.151,0.207-0.204,0.354c-0.03,0.07-0.045,0.152-0.062,0.232l-0.005,0.029
			l-0.001,0.004l0.003,0.08L0.02,37.015l-0.001,0.004l-0.006,0.023L0,37.085c0,0.088,0.019,0.227,0.044,0.326
			c0.019,0.074,0.042,0.152,0.069,0.223c0.053,0.137,0.115,0.254,0.179,0.357c0.127,0.201,0.254,0.354,0.381,0.494
			c0.249,0.268,0.494,0.479,0.738,0.672c0.972,0.748,1.973,1.24,2.938,1.521c0.327-0.047-0.466-0.459,0.057-0.441
			c2.087,1.555,5.834,1.518,6.019,0.846c-1.413-0.152-2.84-0.498-4.254-0.969c-1.137-0.391-2.276-0.844-3.367-1.42
			c0.083,0.037,0.165,0.076,0.249,0.111c0.852,0.352,1.731,0.617,2.622,0.838c1.782,0.439,3.612,0.691,5.459,0.848
			c3.698,0.301,7.468,0.189,11.212-0.029c3.748-0.225,7.468-0.559,11.123-0.82l5.445-0.363c0.905-0.062,1.807-0.121,2.729-0.223
			c0.463-0.053,0.929-0.111,1.424-0.219c0.248-0.057,0.504-0.123,0.787-0.234c0.279-0.125,0.603-0.234,0.992-0.709
			c0.104-0.346,0.068-0.67-0.026-0.82C44.727,36.913,44.618,36.909,44.512,36.97z M22.061,7.473h3.455v5.687c0,0-0.26,0.511,0.508,0
			c0,0,1.021-1.341,2.878-1.151c0,0,3.831,0,3.769,5.56c0,0,0.955,6.965-5.305,7.346c0,0-2.811,0.385-5.304-1.534V7.473z
			 M9.895,31.138c0.734-1.416,1.773-6.746,1.781-8.95c-0.215-0.178-0.71,3.466-0.874,3.337c-0.044-1.971,1.048-5.977,1.461-8.625
			c0.774-3.754,1.527-7.575,2.261-11.449l0.005-0.034c0.062-0.417,0.269-0.885,0.578-1.178c0.223-0.221,0.522-0.336,0.838-0.403
			c-0.742,0.584-0.85,1.53-0.85,1.53l-5.378,29.2c-0.026,0.002-0.052,0.006-0.078,0.008C9.271,33.979,9.29,32.909,9.895,31.138z
			 M1.339,36.95c-0.033,0.045-0.035-0.021-0.047-0.045c0.07,0.055,0.028,0.018,0.055,0.029C1.345,36.938,1.346,36.933,1.339,36.95z"
			/>
	</g>
</g>
<g>
</g>
<g>
</g>
<g>
</g>
<g>
</g>
<g>
</g>
<g>
</g>
<g>
</g>
<g>
</g>
<g>
</g>
<g>
</g>
<g>
</g>
<g>
</g>
<g>
</g>
<g>
</g>
<g>
</g>
</svg>
