<?xml version="1.0" encoding="iso-8859-1"?>
<!-- Generator: Adobe Illustrator 16.0.0, SVG Export Plug-In . SVG Version: 6.00 Build 0)  -->
<!DOCTYPE svg PUBLIC "-//W3C//DTD SVG 1.1//EN" "http://www.w3.org/Graphics/SVG/1.1/DTD/svg11.dtd">
<svg version="1.1" id="Capa_1" xmlns="http://www.w3.org/2000/svg" xmlns:xlink="http://www.w3.org/1999/xlink" x="0px" y="0px"
	 width="34.528px" height="34.528px" viewBox="0 0 34.528 34.528" style="enable-background:new 0 0 34.528 34.528;"
	 xml:space="preserve">
<g>
	<g>
		<path d="M8.224,2.704c-4.091,2.127-7.121,6.263-7.943,10.81c-0.884,4.544,0.363,9.335,3.119,12.843
			c2.728,3.551,6.825,5.835,11.136,6.49c0.609-0.163,0.423-0.376-0.267-0.628c-0.688-0.261-1.886-0.597-3.281-1.208
			c-1.396-0.604-2.981-1.504-4.442-2.719c-1.466-1.207-2.794-2.727-3.824-4.352c-0.086-0.48,0.375,0.198-0.163-1.261
			c-1.163-2.806-1.632-6.069-1.022-9.292c0.586-3.208,2.334-6.316,4.918-8.441c0.691-0.266,2.061-1.072,3.598-1.67
			c0.223-0.091,0.448-0.176,0.674-0.258c-4.822,2.42-8.24,7.293-8.517,13.069c-0.393,8.25,5.761,15.269,13.88,16.087
			c-1.056,0.104-1.658,0.143-0.613,0.158c0.123,0.019,0.46,0.043,1.076,0.01c0.018,0.001,0.029,0.001,0.048,0.001
			c0.06-0.003,0.117-0.013,0.177-0.015c0.103-0.008,0.188-0.011,0.305-0.021c0.05-0.004,0.1-0.014,0.15-0.02
			c0.088-0.008,0.178-0.012,0.266-0.022c1.079,0.01,2.137-0.086,3.157-0.29c0.422-0.084,0.897-0.154,1.398-0.206
			c0.564,0.006,1.129,0.042,1.688,0.126c0.599,0.08,1.16,0.279,1.738,0.482l1.729,0.599c1.163,0.38,2.293,0.84,3.494,1.155
			c0.43,0.084,0.932,0.025,1.3-0.229l0.146,0.053c1.703,0.602,2.724-0.332,2.273-2.082l-1.596-6.242
			c-0.449-1.75-0.377-4.219-0.084-5.576c0.177-0.809,0.289-1.641,0.33-2.492c0.359-7.67-4.932-14.278-12.203-15.826
			c-0.362-0.188-0.735-0.368-1.133-0.528c-1.143-0.468-2.429-0.775-3.62-0.849c-0.358,0.041,0.619,0.197,0.026,0.218
			c-1.398-0.327-3.308-0.215-4.791,0.223C9.86,1.22,8.824,1.876,8.814,2.058c2.994-1.389,6.549-1.522,9.709-0.655
			c-0.012-0.002-0.022-0.003-0.035-0.006C15.167,0.602,11.416,0.983,8.224,2.704z M13.498,1.95c-0.256,0.027-0.552,0.07-0.848,0.128
			c-0.812,0.151-1.604,0.405-1.589,0.31c0.947-0.56,2.777-0.919,4.608-0.871C14.928,1.612,14.204,1.753,13.498,1.95z M26.855,32.087
			l4.799,1.693c-0.406,0.172-0.918,0.12-1.412-0.045l-3.59-1.242l-1.791-0.621c-0.258-0.084-0.52-0.141-0.78-0.192
			C25.092,31.698,26.081,31.813,26.855,32.087z"/>
	</g>
</g>
<g>
</g>
<g>
</g>
<g>
</g>
<g>
</g>
<g>
</g>
<g>
</g>
<g>
</g>
<g>
</g>
<g>
</g>
<g>
</g>
<g>
</g>
<g>
</g>
<g>
</g>
<g>
</g>
<g>
</g>
</svg>
