<?xml version="1.0" encoding="iso-8859-1"?>
<!-- Generator: Adobe Illustrator 16.0.0, SVG Export Plug-In . SVG Version: 6.00 Build 0)  -->
<!DOCTYPE svg PUBLIC "-//W3C//DTD SVG 1.1//EN" "http://www.w3.org/Graphics/SVG/1.1/DTD/svg11.dtd">
<svg version="1.1" id="Capa_1" xmlns="http://www.w3.org/2000/svg" xmlns:xlink="http://www.w3.org/1999/xlink" x="0px" y="0px"
	 width="45.35px" height="45.35px" viewBox="0 0 45.35 45.35" style="enable-background:new 0 0 45.35 45.35;" xml:space="preserve"
	>
<g>
	<g>
		<path d="M44.44,29.648c-0.574-9.441-7.901-12.355-16.307-11.255c-2.642,0.345-6.06,1.348-7.925,3.387
			c-3.624,3.962-3.482,8.247-3.3,13.332c0.005,0.129,0.139,0.192,0.324,0.207c0.232,0.016,0.957,0.677,1.689,1.504
			c2.071,2.341,4.616,4.339,7.717,4.974c2.557,0.522,5.781,0.008,8.068,1.185c2.086,1.073,3.773,1.945,6.11,2.341
			c1.109,0.187,3.012-0.593,2.717-2.03c-0.182-0.879-0.233-1.143-0.74-1.933c-1.702-2.66-1.545-4.118,0.319-6.635
			C44.19,33.272,44.55,31.438,44.44,29.648z M18.295,29.716c0.056-1.103,0.821-2.632,1.591-3.424
			c1.737-1.789,3.462-3.563,5.168-5.316c0.771-0.792,0.923-1.311,0.354-1.117c-0.571,0.193-1.67,1.004-2.467,1.768
			c-0.719,0.688-1.508,1.443-2.381,2.278c-0.257,0.255-0.51,0.507-0.761,0.757c-0.42,0.417-0.753,0.729-0.744,0.699
			c0.005-0.019,0.009-0.036,0.016-0.056c1.567-4.668,6.648-6.208,11.29-6.371c1.104-0.039,1.34,0.616,0.544,1.383
			c-1.411,1.361-4.214,4.123-11.199,11.115c-0.781,0.781-1.452,0.521-1.441-0.584C18.266,30.472,18.277,30.093,18.295,29.716z
			 M41.016,35.735c-1.244,1.679-1.281,2.791-0.478,4.755c0.048,0.115,0.289,0.443,0.565,0.862c0.315,0.476,0.112,1.311-0.411,1.837
			c-0.521,0.527-1.124,0.916-1.343,0.859c-0.126-0.033-0.257-0.069-0.396-0.11c-0.141-0.041-0.275-0.091-0.409-0.146
			c-0.224-0.09-0.082-0.493,0.31-0.887c0.392-0.395,0.612-0.717,0.497-0.722c-0.114-0.006-0.489,0.287-0.837,0.655
			c-0.349,0.367-1.074,0.444-1.6,0.133c-0.525-0.311-0.822-0.704-0.67-0.867c0.151-0.162-0.29-0.424-0.967-0.656
			c-0.675-0.234-1.299-0.385-1.42-0.263c-0.122,0.123-1.1,0.036-2.201-0.026c-0.576-0.033-1.161-0.045-1.743-0.062
			c-1.104-0.032-1.447-0.673-0.771-1.352c0.678-0.678,1.072-1.366,0.886-1.542c-0.186-0.175-0.992,0.282-1.809,1.026
			c-0.053,0.049-0.104,0.097-0.156,0.144c-0.814,0.745-1.521,1.339-1.579,1.327c-0.034-0.007-0.068-0.015-0.104-0.024
			c-0.543-0.17-1.062-0.39-1.562-0.646c-0.829-0.43-0.791-1.494,0.013-2.253c0.394-0.372,0.784-0.742,1.174-1.11
			c0.803-0.759,1.438-1.396,1.421-1.422c-0.019-0.027-0.674,0.576-1.464,1.349c-0.392,0.383-0.782,0.765-1.173,1.146
			c-0.789,0.772-2.168,0.888-2.98,0.141c-0.812-0.748-0.738-2.035,0.073-2.785c1.12-1.034,2.24-2.069,3.359-3.105
			c0.811-0.751,1.467-1.976,1.527-2.731c0.062-0.757-0.481-0.754-1.292-0.003c-1.59,1.476-3.179,2.952-4.768,4.43
			c-0.81,0.751-1.678,1.091-1.933,0.749c-0.255-0.34-0.46-0.745-0.465-0.896c-0.005-0.153,0.646-0.89,1.452-1.644
			c2.687-2.509,5.379-5.026,8.033-7.51c0.807-0.755,1.636-1.576,1.865-1.822c0.136-0.145,0.275-0.289,0.427-0.435
			c0.133-0.127,0.274-0.25,0.424-0.37c0.242-0.195,1.013-0.867,1.708-1.518c0.694-0.651,0.721-0.669,0.952-0.855
			c0.23-0.186,0.466-0.348,0.539-0.342c0.046,0.003,0.091,0.007,0.134,0.012C41.653,19.881,45.612,29.536,41.016,35.735z"/>
		<path d="M4.525,32.469c-0.461,2.109-5.116,5.607-1.009,6.572c2.345,0.551,5.179-1.383,7.611-2.97
			c0.157-0.097,0.315-0.19,0.471-0.284c0.26-0.155,0.501-0.308,0.539-0.341c0.037-0.035,0.452-0.31,0.945-0.578
			c0.322-0.177,0.63-0.325,0.918-0.438c0.219-0.085,0.443-0.246,0.437-0.499c-0.126-4.317,0.082-8.023,2.238-11.536
			c0.578-0.941,1.803-2.256,2.702-2.898c6.454-4.611,17.241-4.844,22.992,0.646c0.329,0.315,1.279,0.081,1.396-0.374
			c2.537-9.94-5.189-16.233-13.975-18.819c-7.916-2.33-17.305-0.306-23.32,5.323c-3.282,3.072-5.148,7.584-5.548,11.985
			C0.43,23.678,5.773,26.764,4.525,32.469z M12.973,29.822c-0.012,0.132-0.012,0.591-0.003,1.155
			c0.009,0.64-0.633,1.768-1.441,2.519c-0.944,0.877-1.889,1.754-2.834,2.632c-0.809,0.751-2.012,1.557-2.647,1.367
			c-0.635-0.188-0.368-1.216,0.44-1.971c1.682-1.569,3.372-3.147,5.067-4.731c0.807-0.754,1.452-1.278,1.438-1.169
			C12.986,29.688,12.978,29.755,12.973,29.822z M2.231,17.26c0.054-0.65,0.173-1.306,0.344-1.959
			c0.279-1.069,0.565-1.715,0.481-1.492c-0.083,0.223,0.485-0.231,1.263-1.015c3.021-3.046,6.046-6.085,9.072-9.123
			c0.779-0.783,0.935-1.251,0.359-1.015c-0.574,0.237-1.661,1.089-2.44,1.872c-2.027,2.034-4.053,4.068-6.077,6.104
			c-0.778,0.784-1.015,0.614-0.435-0.326c0.889-1.445,1.896-2.747,2.839-3.784c3-3.302,7.357-4.852,11.76-5.356
			c1.098-0.126,1.336,0.446,0.522,1.193c-2.465,2.267-4.819,4.435-7.029,6.47c-3.007,2.95-6.077,5.967-9.183,9.023
			C2.919,18.627,2.138,18.36,2.231,17.26z M3.452,22.418c-0.21-0.376,0.264-1.322,1.039-2.109c0.797-0.81,1.936-1.969,3.486-3.55
			c1.112-1.144,2.182-2.242,3.212-3.301c0.769-0.791,1.419-1.484,1.449-1.549c0.03-0.065-0.567,0.526-1.336,1.319
			c-2.467,2.545-5.192,5.354-6.836,7.053c-0.768,0.794-1.415,1.384-1.447,1.314c-0.033-0.069,0.567-0.766,1.34-1.556
			c2.778-2.84,5.212-5.316,7.151-7.272c0.777-0.784,1.82-2.215,2.43-3.137c1.243-1.881,2.773-3.52,4.427-4.694
			c0.423-0.305,0.86-0.593,1.31-0.864c0.742-0.448,1.885-1.281,2.514-1.928s1.412-1.169,1.75-1.159
			c0.205,0.006,0.409,0.014,0.611,0.024c0.12,0.006,0.24,0.014,0.361,0.023c0.198,0.015,0.155,0.238-0.096,0.497
			c-0.252,0.258,0.15,0.273,0.91,0.081c0.761-0.192,2.273-0.166,3.343,0.11c7.314,1.892,13.78,7.382,13.688,14.915
			c-0.014,1.104-0.646,1.622-1.271,1.232c-0.625-0.391-0.885-0.903-0.543-1.205c0.343-0.301,0.443-0.552,0.229-0.563
			s-0.596,0.19-0.852,0.436c-0.255,0.246-1.269,0.052-2.313-0.302c-7.089-2.399-16.23-0.586-21.376,4.315
			c-0.03,0.029-0.034,0.049-0.055,0.075c-1.606,1.947-2.56,3.841-3.098,6c-0.268,1.072-1.004,2.597-1.785,3.378
			c-1.528,1.527-3.302,3.304-5.361,5.368c-0.78,0.782-1.657,1.186-1.914,0.862c-0.256-0.32-0.03-1.013,0.374-1.578
			c0.242-0.343,0.461-0.699,0.656-1.074c0.279-0.459,0.465-0.951,0.592-1.461c0.21-0.849,0.861-2.204,1.631-2.997
			c1.142-1.176,2.277-2.348,3.408-3.509c0.77-0.792,1.265-1.655,1.112-1.936c-0.153-0.28-0.624-0.172-1.061,0.246
			c-0.257,0.244-0.519,0.496-0.792,0.756c-0.879,0.874-1.744,1.735-2.601,2.589c-0.783,0.779-1.52,0.51-1.933-0.516
			c-0.053-0.128-0.107-0.257-0.164-0.385c-0.45-1.01-0.285-2.403,0.501-3.18c1.099-1.085,2.198-2.17,3.298-3.254
			c0.787-0.776,1.444-2.128,1.58-3.008c0.136-0.88-0.296-0.936-1.065-0.144c-1.576,1.624-3.149,3.25-4.725,4.875
			C4.462,22.451,3.662,22.794,3.452,22.418z"/>
	</g>
</g>
<g>
</g>
<g>
</g>
<g>
</g>
<g>
</g>
<g>
</g>
<g>
</g>
<g>
</g>
<g>
</g>
<g>
</g>
<g>
</g>
<g>
</g>
<g>
</g>
<g>
</g>
<g>
</g>
<g>
</g>
</svg>
