<?xml version="1.0" encoding="iso-8859-1"?>
<!-- Generator: Adobe Illustrator 16.0.0, SVG Export Plug-In . SVG Version: 6.00 Build 0)  -->
<!DOCTYPE svg PUBLIC "-//W3C//DTD SVG 1.1//EN" "http://www.w3.org/Graphics/SVG/1.1/DTD/svg11.dtd">
<svg version="1.1" id="Capa_1" xmlns="http://www.w3.org/2000/svg" xmlns:xlink="http://www.w3.org/1999/xlink" x="0px" y="0px"
	 width="43.64px" height="43.64px" viewBox="0 0 43.64 43.64" style="enable-background:new 0 0 43.64 43.64;" xml:space="preserve"
	>
<g>
	<g>
		<path d="M33.911,16.266l1.234,0.188c0.782,0.129,1.574,0.306,2.36,0.5l1.201,0.296c0.421,0.103,0.939,0.153,1.427,0.055
			c0.493-0.091,0.998-0.352,1.34-0.781c0.053-0.066,0.092-0.139,0.136-0.211c0.681-0.445,0.956-1.323,0.527-2.396
			C39.185,6.535,32.203,1.208,23.909,0.661c-1.895-0.19-3.812-0.137-5.687,0.18c-1.636,0.304-3.223,0.729-4.751,1.463
			c-1.459,0.898-2.398,2.482-2.572,4.146c-0.045,0.416,0.01,0.848,0.079,1.246c0.064,0.406,0.14,0.812,0.223,1.213
			c0.168,0.805,0.382,1.599,0.641,2.379c0.12,0.389,0.319,0.787,0.65,1.055c0.327,0.276,0.771,0.38,1.187,0.34
			c0.339-0.034,0.656-0.144,0.958-0.284c0.678-0.075,1.428-0.464,2.097-1.071c0.74-0.671,1.594-1.216,2.523-1.62
			c0.307-0.092,0.615-0.181,0.93-0.24c1.596-0.286,3.251-0.118,4.735,0.445c1.49,0.561,2.802,1.535,3.784,2.753
			c0.986,1.327,2.338,2.516,3.938,3.208C33.049,16.04,33.471,16.177,33.911,16.266z M13.67,12.582
			c-0.397,0.038-0.81-0.06-1.115-0.317c-0.311-0.253-0.499-0.621-0.618-1.009c-0.256-0.776-0.438-1.574-0.589-2.376
			c-0.119-0.802-0.326-1.619-0.241-2.41c0.206-1.578,1.175-3.081,2.537-3.857c0.193-0.085,0.396-0.156,0.594-0.233
			c-1.48,0.968-2.546,3.022-2.324,4.705c0.178,1.349,0.478,2.808,0.909,4.071c0.297,0.871,0.867,1.236,1.533,1.256
			C14.136,12.495,13.909,12.559,13.67,12.582z M29.336,12.128c-1.14-1.278-2.629-2.223-4.239-2.722
			c-1.051-0.331-2.145-0.446-3.227-0.399c0.342-0.039,0.689-0.065,1.042-0.065c2.938,0,5.552,1.372,7.239,3.513
			c0.872,1.105,2.154,2.134,3.527,2.712c-0.221-0.062-0.439-0.133-0.656-0.22C31.589,14.378,30.346,13.392,29.336,12.128z"/>
		<path d="M22.913,11.352c-0.537,0-1.057,0.069-1.558,0.186c-1.576,0.12-3.139,0.742-4.355,1.837
			c-1.393,1.228-2.296,3.085-2.31,5.011c-0.032,1.92,0.764,3.844,2.149,5.171c1.372,1.339,3.28,2.09,5.172,2.049
			c1.612-0.013,3.197-0.602,4.436-1.607c1.968-1.196,3.285-3.354,3.285-5.825C29.73,14.404,26.682,11.352,22.913,11.352z
			 M17.537,22.857c-1.155-1.188-1.835-2.813-1.849-4.47c-0.03-1.651,0.541-3.343,1.688-4.633c0.744-0.848,1.74-1.495,2.84-1.845
			c-2.424,1.046-4.126,3.456-4.126,6.266c0,3.051,2.011,5.633,4.775,6.503C19.6,24.421,18.42,23.784,17.537,22.857z"/>
		<path d="M40.175,18.784c-1.48-0.491-3.02-0.973-4.552-1.165c-0.807-0.101-1.538-0.067-2.127,0.012
			c-0.529-0.003-1.06,0.034-1.585,0.135c-0.212,0.043-0.416,0.086-0.641,0.173c-0.031,0.015-0.05,0.017-0.094,0.043l-0.057,0.036
			c-0.061,0.003-0.124,0.245-0.104,0.21l0.002,0.156l-0.016,0.298c-0.023,0.412-0.076,0.801-0.156,1.202
			c-0.626,3.18-3.061,5.865-6.079,6.788c-0.746,0.252-1.528,0.383-2.313,0.427c-0.192,0-0.402,0.019-0.58,0.003l-0.078-0.003
			l-0.039-0.002c0.104-0.011-0.163,0.012-0.143,0.013l-0.019,0.007c-0.024,0.004-0.18,0.062-0.251,0.118l-0.1,0.078
			c-0.104,0.087-0.181,0.164-0.261,0.242c-0.31,0.312-0.591,0.619-0.874,0.93l-3.312,3.771c-1.171,1.588-1.031,3.726-0.023,5.25
			c0.55,0.754,1.071,1.304,1.611,1.97c0.561,0.637,1.033,1.277,1.711,1.893c1.426,1.146,3.131,1.649,4.879,1.722
			c0.438,0.009,0.891-0.035,1.321-0.125c0.402-0.083,0.827-0.189,1.23-0.298c0.816-0.228,1.618-0.497,2.399-0.82
			c1.251-0.512,2.444-1.155,3.567-1.902c6.134-3.647,10.146-10.404,10.146-18.186c0-0.325-0.01-0.646-0.025-0.966
			C43.588,20.254,42.025,19.396,40.175,18.784z M29.332,24.661c1.101-1.347,1.815-2.99,2.044-4.689
			c0.059-0.419,0.092-0.86,0.09-1.279l-0.002-0.326L31.46,18.32c0.158-0.071,0.351-0.129,0.537-0.177
			c0.047-0.012,0.097-0.013,0.145-0.024c0.001,0.019,0.002,0.037,0.002,0.056c0,2.948-1.39,5.569-3.546,7.259
			C28.854,25.186,29.105,24.934,29.332,24.661z M20.639,40.774c-0.552-0.509-1.074-1.22-1.598-1.841
			c-0.497-0.635-1.098-1.319-1.515-1.919c-0.812-1.241-0.828-3.032,0.042-4.138l3.315-3.699c0.141-0.158,0.284-0.306,0.426-0.461
			c-0.364,0.406-0.776,0.872-1.214,1.37c-0.619,0.702-1.245,1.393-1.826,2.038c-1.307,1.448-1.183,3.804,0.062,5.304
			c0.863,1.04,1.727,2.121,2.555,3.056c0.741,0.834,2.017,1.461,3.331,1.784C22.907,42.079,21.602,41.583,20.639,40.774z"/>
		<path d="M8.314,6.712C8.108,6.582,7.881,6.478,7.619,6.45C6.958,6.38,6.4,6.69,5.998,7.021
			c-5.386,5.401-7.394,13.717-4.999,20.858c1.888,7.282,8.097,13.072,15.317,14.811c0.476,0.078,0.999,0.177,1.526-0.153
			c0.093-0.062,0.161-0.15,0.217-0.246c1.006-0.081,1.109-0.948,0.038-2.047c-0.976-1.002-1.965-2.023-2.876-3.083
			c-1.271-1.479-1.131-4.06,0.242-5.443c0.69-0.695,1.393-1.385,2.055-2.109c1.315-1.438,0.561-3.348-0.871-4.672
			c-1.82-1.683-2.96-4.088-2.96-6.762c0-0.25,0.014-0.498,0.036-0.743c0.038-0.409-1.212-1.721-2.118-3.448
			c-0.85-1.62-1.361-3.554-1.678-5.381C9.713,7.382,9.083,6.689,8.314,6.712z M16.429,42.204
			C9.421,40.407,3.482,34.708,1.767,27.656c-2.228-6.892,0.01-14.805,4.877-19.869C6.663,7.77,6.683,7.758,6.702,7.742
			c-3.316,3.73-5.347,8.627-5.347,14.014c0,0.62,0.042,1.236,0.095,1.842c0.395,3.021,1.336,5.998,2.737,8.689
			c2.771,4.818,7.383,8.436,12.875,9.896c0.114,0.03,0.207,0.038,0.312,0.058C17.103,42.311,16.743,42.275,16.429,42.204z"/>
	</g>
</g>
<g>
</g>
<g>
</g>
<g>
</g>
<g>
</g>
<g>
</g>
<g>
</g>
<g>
</g>
<g>
</g>
<g>
</g>
<g>
</g>
<g>
</g>
<g>
</g>
<g>
</g>
<g>
</g>
<g>
</g>
</svg>
