<?xml version="1.0" encoding="iso-8859-1"?>
<!-- Generator: Adobe Illustrator 16.0.0, SVG Export Plug-In . SVG Version: 6.00 Build 0)  -->
<!DOCTYPE svg PUBLIC "-//W3C//DTD SVG 1.1//EN" "http://www.w3.org/Graphics/SVG/1.1/DTD/svg11.dtd">
<svg version="1.1" id="Capa_1" xmlns="http://www.w3.org/2000/svg" xmlns:xlink="http://www.w3.org/1999/xlink" x="0px" y="0px"
	 width="49.866px" height="49.866px" viewBox="0 0 49.866 49.866" style="enable-background:new 0 0 49.866 49.866;"
	 xml:space="preserve">
<g>
	<g>
		<path d="M42.604,22.267c-0.54-0.117-1.075-0.206-1.193-0.22s0.212-0.226,0.318-0.768c0.282-1.42-0.18-4.373-0.272-4.825
			c-0.345-1.672-1.459-3.129-2.54-4.382c-2.097-2.428-5.936-3.787-9.092-3.607c-3.623,0.207-6.569,1.369-9.246,3.84
			c-1.294,1.195-1.527,3.711-3.328,2.501c-1.23-0.826-2.901-0.691-4.275-0.533c-1.825,0.21-4.027,1.778-4.656,3.538
			c-0.273,0.765-0.986,2.893-0.326,3.807c0.324,0.447,0.416,0.394-0.132,0.462c-1.136,0.141-2.197,0.589-3.226,1.106
			c-6.847,3.438-5.618,13.959,0.476,17.274c3.066,1.668,8.567,0.646,11.813,0.646c6.565,0,13.129,0,19.694,0
			c3.948,0,8.47,0.257,11.105-3.321C52.046,31.919,49.57,23.776,42.604,22.267z M10.008,19.842c0.083-0.547,0.57-1.285,0.957-1.68
			c0.272-0.276,0.544-0.554,0.815-0.83c0.387-0.394,1.114-0.898,1.655-1.006c0.363-0.072,0.747-0.109,1.148-0.108
			c0.552,0.001,0.682,0.393,0.293,0.784c-1.367,1.38-2.731,2.761-4.097,4.141c-0.388,0.393-0.801,0.271-0.825-0.28
			C9.94,20.505,9.959,20.165,10.008,19.842z M5.878,23.748c0.8-0.365,1.714-0.548,2.753-0.499c0.01,0.001,0.022-0.001,0.034-0.002
			c0.019-0.001-0.28,0.316-0.669,0.709c-0.746,0.752-1.493,1.504-2.238,2.257c-0.388,0.395-0.69,0.54-0.678,0.326
			c0.01-0.177,0.015-0.309,0.015-0.387c0-0.124-0.014-0.46-0.038-0.956C5.034,24.669,5.376,23.976,5.878,23.748z M47.685,34.42
			c-0.862,4.005-5.122,5.499-8.771,5.499c-4.506,0-9.014,0-13.52,0c-3.828,0-7.656,0-11.483,0c-0.552,0-1.205-0.102-1.449-0.241
			c-0.245-0.14-0.553-0.156-0.705-0.016c-0.152,0.141-0.41,0.257-0.576,0.257c-0.1,0-0.201,0-0.301,0
			c-1.124,0-2.197,0.022-3.31-0.14c-0.131-0.021-0.26-0.044-0.386-0.072c-0.212-0.047-0.056-0.405,0.346-0.784
			c0.487-0.458,0.977-0.919,1.47-1.382c0.402-0.378,0.616-0.872,0.49-1.109c-0.126-0.239-0.522-0.112-0.899,0.29
			c-0.595,0.637-1.19,1.271-1.787,1.905c-0.378,0.402-1.102,0.551-1.557,0.238c-0.023-0.016-0.046-0.032-0.069-0.049
			c-0.451-0.319-0.447-0.961-0.056-1.352c0.925-0.922,1.855-1.844,2.784-2.766c0.392-0.389,0.703-0.735,0.695-0.773
			c-0.008-0.037-0.33,0.25-0.719,0.643c-0.94,0.943-1.879,1.89-2.818,2.835c-0.389,0.392-0.756,0.658-0.819,0.594
			c-0.062-0.064-0.091-0.352-0.065-0.638c0.026-0.286,0.365-0.834,0.756-1.225c0.732-0.73,1.465-1.465,2.2-2.193
			c0.212-0.21,0.425-0.419,0.637-0.629c0.352-0.348,0.618-0.839,0.606-1.098c-0.007-0.154-0.011-0.311-0.011-0.468
			c0-0.046,0.002-0.092,0.005-0.137c0.004-0.076-0.304,0.185-0.688,0.581c-0.886,0.914-1.774,1.826-2.658,2.74
			c-0.384,0.396-0.655,0.277-0.607-0.266c0.048-0.544,0.397-1.306,0.781-1.703c0.922-0.952,1.835-1.896,2.738-2.828
			c0.384-0.396,0.791-1.156,0.965-1.682c0.879-2.64,2.781-4.663,5.128-5.379c0.528-0.161,1.273-0.521,1.639-0.897
			c0.366-0.376,0.583-0.963,0.535-1.32c-0.029-0.213-0.045-0.431-0.045-0.651c0-0.107,0.009-0.212,0.022-0.315
			c0.022-0.175-0.277-0.002-0.67,0.386c-3.289,3.236-6.639,6.54-10.059,9.924c-0.393,0.389-0.673,0.257-0.628-0.293
			c0.051-0.61,0.097-1.18,0.137-1.683c0.043-0.552,0.404-1.302,0.809-1.678c0.996-0.925,1.985-1.854,2.972-2.79
			c0.401-0.38,0.847-0.737,0.973-0.836c0.079-0.062,0.144-0.135,0.185-0.221c0.005-0.012,0.012-0.024,0.02-0.038
			c0.011-0.021,0.345-0.347,0.744-0.728c1.378-1.318,2.752-2.648,4.129-3.991c0.266-0.269,0.533-0.537,0.799-0.806
			c0.39-0.391,1.052-0.628,1.467-0.49c0.244,0.081,0.49,0.175,0.739,0.284c0.467,0.204,1.193,0.093,1.546-0.298
			c1.119-1.239,1.696-2.643,2.803-3.94c0.821-0.963,1.79-1.668,2.845-2.152c0.502-0.231,0.602-0.062,0.196,0.312
			c-0.49,0.451-0.972,0.894-1.441,1.326c-0.688,0.675-1.386,1.361-2.085,2.048c-0.394,0.387-0.592,0.686-0.443,0.666
			c0.089-0.012,0.18-0.021,0.272-0.021c0.205,0,0.404,0.016,0.601,0.042c0.331,0.045,0.909-0.207,1.298-0.598
			c1.074-1.079,1.884-1.88,2.352-2.323c1.658-1.669,0.055-0.005-2.226,2.351c-0.384,0.397-0.683,0.722-0.666,0.727
			s0.342-0.311,0.727-0.708c1.359-1.397,2.616-2.689,3.793-3.899c0.385-0.397,1.02-0.748,1.419-0.76
			c0.399-0.011,0.411,0.326,0.024,0.721c-1.406,1.443-2.814,2.889-4.221,4.332c-0.385,0.396-0.456,0.837-0.175,1.017
			c0.17,0.109,0.333,0.228,0.487,0.357c0.027,0.023,0.053,0.043,0.079,0.062c0.045,0.033,0.401-0.254,0.794-0.642
			c0.542-0.534,1.083-1.068,1.625-1.602c1.008-1.113,1.994-2.224,2.981-3.335c0.367-0.413,1.108-0.677,1.644-0.543
			c1.153,0.286,2.265,0.728,3.271,1.291c2.136,1.196,3.448,3.383,4.225,5.607c0.695,1.989-0.24,3.973,0.003,5.93
			c0.03,0.238,0.415,0.34,0.603,0.334c0.056-0.002,0.112-0.004,0.169-0.006c0.093-0.003,0.617,0.024,1.159,0.127
			C46.638,24.334,48.746,29.499,47.685,34.42z"/>
	</g>
</g>
<g>
</g>
<g>
</g>
<g>
</g>
<g>
</g>
<g>
</g>
<g>
</g>
<g>
</g>
<g>
</g>
<g>
</g>
<g>
</g>
<g>
</g>
<g>
</g>
<g>
</g>
<g>
</g>
<g>
</g>
</svg>
