<?xml version="1.0" encoding="iso-8859-1"?>
<!-- Generator: Adobe Illustrator 16.0.0, SVG Export Plug-In . SVG Version: 6.00 Build 0)  -->
<!DOCTYPE svg PUBLIC "-//W3C//DTD SVG 1.1//EN" "http://www.w3.org/Graphics/SVG/1.1/DTD/svg11.dtd">
<svg version="1.1" id="Capa_1" xmlns="http://www.w3.org/2000/svg" xmlns:xlink="http://www.w3.org/1999/xlink" x="0px" y="0px"
	 width="50.244px" height="50.244px" viewBox="0 0 50.244 50.244" style="enable-background:new 0 0 50.244 50.244;"
	 xml:space="preserve">
<g>
	<g>
		<path d="M30.902,18.18c-0.133,0.534,1.78,0.236,1.915-0.305c0.002-0.009,0.005-0.018,0.008-0.027
			c0.004-0.015,0.799,0.434,1.883,0.644C42.533,20.009,47.27,4.766,37.952,1c-9.359-3.783-22.276,3.804-26.706,12.008
			c-5.268,9.76-7.178,30.511,5.013,36.181c7.341,3.414,25.169-1.786,26.222-10.913c0.053-0.464-0.825-0.271-1.055-0.214
			c-1.545,0.381-3.024,0.855-4.522,1.383c-5.58,1.97-11.032,0.848-13.631-4.383c-1.806-3.631-0.762-8.317-0.213-12.111
			c0.529-3.656,1.187-7.344,2.872-10.662c1.951-3.843,8.863-3.883,6.984,0.973c-0.144,0.371-0.301,0.734-0.464,1.093
			c-0.271,0.598-0.905,1.1-1.353,1.296c-0.398,0.174-0.681,0.414-0.502,0.579c0.122,0.112,0.243,0.217,0.363,0.316
			c0.205,0.171,0.26,0.594,0.139,0.962C31.025,17.727,30.959,17.951,30.902,18.18z M14.966,10.351
			c1.17-1.539,2.544-2.939,4.142-4.198c0.868-0.684,0.99-0.537,0.216,0.25c-1.365,1.388-2.731,2.775-4.095,4.163
			C14.454,11.354,14.296,11.231,14.966,10.351z M31.812,7.879c-5.392,0.395-8.097,4.33-9.459,9.093
			c-1.507,5.271-3.782,14.952-0.372,19.864c3.016,4.344,6.572,4.979,10.391,4.391c1.093-0.17,1.947-0.381,1.93-0.363
			s0.34,0.117,0.806,0.176s1.063-0.154,1.331-0.423c0.267-0.269,1.217-0.705,2.121-0.974c0.902-0.268,1.271-0.105,0.817,0.349
			c-0.452,0.454-0.478,0.747-0.059,0.636s0.766-0.227,0.779-0.24c0.013-0.014-0.283,0.828-0.901,1.744
			c-2.962,4.389-10.051,7.096-15.982,7.121c-1.104,0.006-1.856-0.242-1.683-0.416c0.173-0.176,0.189-0.375,0.039-0.453
			c-0.15-0.078-0.448,0.037-0.669,0.264c-0.221,0.227-1.296,0.296-2.346-0.045c-0.023-0.008-0.046-0.016-0.068-0.023
			c-1.048-0.35-1.421-1.238-0.933-1.742c0.488-0.505,0.553-1.267,0.184-1.734c-0.37-0.467-1.125-0.379-1.727,0.228
			s-1.342,0.88-1.637,0.591s0.028-1.095,0.702-1.773c0.674-0.68,1.199-1.268,1.172-1.312c-0.026-0.044-0.587,0.488-1.254,1.189
			s-1.525,0.914-1.875,0.445c-0.351-0.471,0.009-1.526,0.763-2.334c0.004-0.004,0.008-0.01,0.012-0.014
			c0.754-0.809,1.141-2.033,0.912-2.755s-1.006-0.683-1.783,0.103c-0.117,0.117-0.233,0.234-0.351,0.354
			c-0.777,0.785-1.767,0.602-2.099-0.452c-0.099-0.313-0.191-0.632-0.277-0.952c-0.285-1.066,0.006-2.393,0.552-2.939
			c0.327-0.326,0.656-0.655,0.988-0.987c0.294-0.299,0.588-0.601,0.882-0.901c0.486-0.498,0.867-1.119,0.854-1.387
			c-0.013-0.27-0.685,0.115-1.501,0.859c-0.312,0.283-0.62,0.564-0.924,0.842c-0.816,0.744-1.605,0.46-1.689-0.643
			c-0.01-0.125-0.018-0.252-0.027-0.379c-0.071-1.102,0.575-2.613,1.377-3.371c0.465-0.44,0.928-0.879,1.386-1.312
			c0.802-0.759,1.457-1.454,1.467-1.55c0.009-0.097-0.625,0.45-1.414,1.224c-0.488,0.479-0.976,0.954-1.462,1.43
			c-0.79,0.772-1.441,0.502-1.4-0.603c0.018-0.478,0.043-0.95,0.075-1.417c0.075-1.102,0.832-2.601,1.642-3.352
			c0.669-0.62,1.337-1.239,2.005-1.859c0.81-0.752,1.632-2.123,1.883-3.052c0.25-0.928-0.167-1.06-0.977-0.308
			c-0.838,0.777-1.676,1.556-2.514,2.334c-0.811,0.751-1.339,0.581-1.129-0.369c0.209-0.949,1.079-2.32,1.885-3.075
			c0.291-0.273,0.581-0.545,0.87-0.815c0.806-0.756,1.417-1.267,2.235-2.009c0.095-0.086,0.195-0.177,0.301-0.273
			c0.817-0.743,1.783-1.995,2.225-2.757c0.277-0.478,0.564-0.926,0.859-1.343c0.055-0.077,0.113-0.154,0.173-0.231
			c0.098-0.127-0.397,0.311-1.108,0.979c-0.414,0.388-0.842,0.789-1.289,1.207c-2.672,2.635-2.766,2.661-3.796,3.632
			c-0.804,0.757-1.161,0.535-0.731-0.483c0.183-0.431,0.376-0.854,0.579-1.269c0.486-0.992,1.612-2.362,2.426-3.109
			c1.258-1.153,2.517-2.306,3.777-3.455c0.819-0.822,1.643-1.643,2.466-2.463c0.783-0.779,1.57-1.5,1.759-1.607
			c0.113-0.064,0.226-0.129,0.344-0.19c0.918-0.483,1.897-0.927,2.907-1.299c1.037-0.381,1.833-0.535,1.743-0.454l-0.164,0.144
			l-1.319,1.399c-0.667,0.591-1.166,1.031-1.54,1.36c-0.829,0.729-0.788,0.746,0.143,0.151c0.403-0.258,0.815-0.509,1.235-0.751
			c0.956-0.553,2.223-1.372,2.792-1.898c0.568-0.526,1.673-1.049,2.472-1.074s1.418,0.063,1.384,0.096
			c-0.034,0.032,0.016,0.036,0.11,0.014c0.096-0.023,1.075,0.03,2.129,0.361c1.141,0.357,2.226,0.935,3.214,1.787
			c3.535,3.047,3.078,10.445,0.185,13.136c-0.422,0.392-0.889,0.539-1.249,0.539c0.007-0.007,0.012-0.008,0.019-0.016
			c0.117-0.126,0.166-0.265,0.111-0.31c-0.056-0.046-0.153,0.055-0.215,0.225c-0.015,0.039-0.021,0.069-0.024,0.094
			c-0.274-0.026-0.471-0.139-0.499-0.304c-0.065-0.39-0.423-0.403-0.8-0.031c-0.377,0.373-1.16,0.558-1.694,0.286
			c-0.535-0.271-0.577-1.391-0.145-2.407c0.426-1.004,0.841-2.034,1.073-2.974c0.267-1.072,0.473-2.278,0.889-2.645
			c0.417-0.366,0.417-0.629,0.007-0.544c-0.409,0.085-0.807,0.253-0.896,0.34s-0.696-0.507-1.648-0.693
			C33.092,7.855,32.514,7.828,31.812,7.879z"/>
		<path d="M37.96,15.281c0.312-0.676,0.165-0.819-0.335-0.325c-0.501,0.495-0.757,1.053-0.562,1.235
			C37.256,16.375,37.647,15.958,37.96,15.281z"/>
	</g>
</g>
<g>
</g>
<g>
</g>
<g>
</g>
<g>
</g>
<g>
</g>
<g>
</g>
<g>
</g>
<g>
</g>
<g>
</g>
<g>
</g>
<g>
</g>
<g>
</g>
<g>
</g>
<g>
</g>
<g>
</g>
</svg>
