<svg enable-background="new 0 0 38.702 38.702" height="38.702" viewBox="0 0 38.702 38.702" width="38.702" xmlns="http://www.w3.org/2000/svg"><path d="m38.595 20.619c1.236-11.093-8.439-19.774-18.898-20.158-.027-.001-.054 0-.081.001-.045.002-.101.008-.123.003-.013-.002-.026-.004-.043-.003-10.104.37-18.212 7.452-19.343 17.61-1.235 11.094 8.439 19.774 18.898 20.157 10.165.371 18.501-7.832 19.59-17.61zm-1.841.021c-.041.768-.139 1.522-.288 2.264-.109.542-.541 1.293-.927 1.689-.293.3-.585.601-.878.899-.387.396-.493.317-.274-.188.479-1.104.846-2.281 1.091-3.522.107-.542.419-1.244.731-1.562.312-.322.575-.134.545.42zm-.283-3.885c.012.052.025.104.035.155.031.164.058.328.083.491.042.271-.124.687-.361.926-.236.239-.427.109-.449-.288-.021-.396.103-.879.3-1.078.195-.198.372-.292.392-.206zm-1.013-2.394c.159-.171.424.085.565.578.143.494.092 1.057-.09 1.251-.181.192-.393-.076-.513-.593-.121-.517-.122-1.065.038-1.236zm-32.898.054c.346-1.181.825-2.312 1.42-3.377.27-.481.828-1.175 1.217-1.566 1.299-1.312 2.601-2.619 3.903-3.926.39-.392 1.078-.958 1.555-1.236 2.533-1.482 5.435-2.388 8.458-2.521 7.215.302 13.057 4.292 15.894 10.436.231.501.271 1.042.116 1.194-.155.153-.44-.142-.679-.641-.305-.642-.656-1.258-1.05-1.849-.307-.46-.432-.944-.249-1.106.184-.162.271-.364.189-.449-.08-.085-.279-.024-.446.138-.167.16-.476.075-.704-.18s-.293-.58-.135-.732c.157-.153.274-.288.26-.299-.014-.013-.151.099-.309.249-.157.149-.164.144-.009-.01.153-.151.252-.302.214-.335-.037-.033-.191.061-.344.207-.151.147-.585-.058-.993-.429-.053-.047-.105-.095-.158-.142-.414-.366-.66-.74-.528-.863.131-.123-.003-.391-.312-.581-.31-.192-.655-.255-.765-.154-.108.102-.454.008-.778-.192-.327-.201-.529-.419-.445-.496.084-.078-.004-.212-.2-.296-.196-.083-.417-.096-.49-.03-.072.064-.446-.047-.843-.231-.396-.184-.704-.339-.677-.366.027-.026-.047-.074-.165-.104-.119-.031-.229-.041-.243-.025s-.445-.135-.971-.305c-1.483-.481-3.029-.777-4.596-.843-6.512-.275-12.114 3.631-14.91 9.107-.251.492-.748 1.219-1.142 1.606-.207.204-.415.409-.623.614-.394.386-.617.263-.462-.267zm18.007 19.509c-.548.065-1.444.065-1.994.007-16.721-1.787-18.438-26.933-.651-29.203 7.723-.986 14.118 5.174 15.654 12.261 1.844 8.518-4.929 15.981-13.009 16.935zm-18.645-15.108c0-.494.328-1.204.702-1.589.374-.384.596-.347.518.09-.047.262-.088.526-.123.792-.012.09-.017.179-.021.267-.007.148-.247.505-.533.801-.286.294-.543.132-.543-.361zm1.217 5.152c-.16.158-.432-.139-.578-.672-.006-.022-.013-.047-.019-.07-.145-.533-.115-1.104.033-1.268.149-.163.146-.176-.006-.028-.152.146-.297.173-.325.058-.017-.069-.034-.139-.047-.209-.024-.127-.045-.253-.064-.38-.032-.21.133-.567.365-.795.232-.229.423.035.473.585.046.516.122 1.021.223 1.52.11.541.104 1.101-.055 1.259zm2.11 4.426c-.167.154-.544-.096-.817-.574-.29-.51-.559-1.033-.803-1.567-.229-.503-.273-1.043-.126-1.193.147-.151.419.148.65.649.25.541.533 1.064.846 1.569.29.471.416.961.25 1.116zm15.567 8.466c-1.706.188-3.352.078-4.92-.264-.539-.118-.96-.252-.95-.265.011-.011-.399-.18-.904-.404-.038-.018-.075-.034-.113-.051-.503-.228-.939-.399-.991-.35-.052.05-.505-.087-.995-.341-.336-.174-.667-.36-.99-.558-.472-.287-.764-.617-.672-.709.091-.092-.02-.307-.242-.486-.222-.181-.482-.255-.588-.158-.105.096-.546-.099-.962-.461-.396-.344-.776-.706-1.142-1.084-.384-.397-.565-.851-.429-.988.137-.139.217-.292.179-.343s-.188.018-.334.154c-.147.136-.467.01-.701-.293-.235-.304-.287-.676-.126-.823s.182-.436.053-.649.033-.024.389.397c3.054 3.622 7.754 5.948 12.626 6.154.027.002.055.001.082 0 .046-.002.102-.007.124-.003.013.002.025.004.042.003 2.529-.106 4.895-.702 7.012-1.698.5-.235.729-.284.528-.079-.201.206-.154.305.1.212s.751-.474 1.114-.841c.363-.368 1.028-.918 1.463-1.26 1-.781 1.904-1.676 2.697-2.671.344-.432.914-1.117 1.303-1.509.569-.573 1.136-1.145 1.698-1.712.389-.392.558-.286.343.223-2.454 5.81-8.194 10.141-14.694 10.857z"/><path d="m21.566 9.353c-2.04.323-2.298 2.52-1.579 4.229.887 2.108 7.258 4.68 4.419 7.504-1.195 1.19-4.603 3.383-4.603 5.233 0 2.056.151 3.885 2.614 2.597 1.884-.984 3.586-3.482 5.073-4.961.943-.938 4.974-3.707 4.312-5.308-.004-.01-.013-.019-.021-.024-.016-.011-.341-.34-.729-.731-1.719-1.729-3.428-3.429-5.136-5.128-.953-.948-2.713-3.669-4.35-3.411zm.122 2.34c.023-.33.177-.464.34-.3.164.164.152.432-.026.598-.182.166-.336.031-.314-.298zm7.979 8.455c-.73 1.235-2.865 2.808-3.409 3.35-1.647 1.639-3.293 3.276-4.94 4.914-.642.64.417-.529.417-1.262 0-1.454.146-1.866 1.148-2.862.913-.909 4.19-3.157 4.19-4.695 0-.086-.01-.166-.021-.246-.02-.135.182-.47.456-.748.274-.28.267-.312-.011-.064s-.577 0-.822-.495c-.103-.208-.225-.41-.361-.604-.314-.454-.527-.873-.398-.995.128-.123.207-.248.174-.28-.032-.032-.16.042-.286.166-.127.123-.128.123-.002-.001.126-.125.217-.236.203-.25s-.127.075-.253.198c-.126.124-.542-.096-.947-.471-.101-.094-.202-.186-.303-.277-.409-.371-.621-.782-.477-.916.146-.134.058-.447-.194-.699-.253-.252-.581-.34-.733-.199-.152.142-.515.047-.775-.244-.262-.29-.237-.739-.007-.956.232-.218.739-.079 1.133.309 1.922 1.897 3.823 3.789 5.724 5.679.388.387.776 1.172.494 1.648z"/><path d="m18.845 13.266c.942-.938.664-4.185-1.159-3.874-1.762.3-2.972 2.1-4.148 3.271-2.087 2.076-4.174 4.152-6.261 6.229-.013.013-.025.024-.037.037-.021.02-.052.062-.075.089-.018.021-.033.036-.039.052-.623 1.52 2.839 3.83 3.742 4.729 1.445 1.438 3.511 4.534 5.416 5.321 1.619.669 2.832-.38 2.832-1.969 0-2.979-2.546-4.414-4.58-6.438-2.347-2.337 2.749-5.894 4.309-7.447zm-7 5.832c0 2.213 2.223 3.63 3.685 5.084.575.571 1.336 1.121 1.655 1.881.072.172.075.468.058.768-.023.427-.171.656-.315.513-.145-.145-.143-.372.004-.512s.254-.266.238-.282c-.017-.016-.148.087-.292.229-.145.142-.579-.06-.971-.449-.16-.159-.32-.318-.481-.478-.392-.391-.588-.816-.439-.954.148-.139.065-.453-.187-.703s-.576-.342-.725-.204c-.148.138-.4.12-.561-.041-.098-.097-.195-.194-.293-.292-.052-.052-.12-.114-.2-.185-.112-.101-.081-.295.073-.438.154-.144.226-.312.161-.378s-.243.007-.396.16-.62-.009-1.039-.37c-.107-.092-.216-.186-.326-.284-.415-.364-.593-.822-.413-1.008.18-.185.19-.472.022-.639-.168-.168-.454-.155-.636.026-.183.183-.651.014-.978-.433-.095-.13-.18-.257-.25-.379-.275-.479.109-1.266.501-1.655 2.619-2.604 5.237-5.21 7.856-7.814.649-.646-.41.558-.41 1.282 0 1.456-.138 1.881-1.142 2.88-.899.892-4.199 3.16-4.199 4.675z"/></svg>