<?xml version="1.0" encoding="iso-8859-1"?>
<!-- Generator: Adobe Illustrator 16.0.0, SVG Export Plug-In . SVG Version: 6.00 Build 0)  -->
<!DOCTYPE svg PUBLIC "-//W3C//DTD SVG 1.1//EN" "http://www.w3.org/Graphics/SVG/1.1/DTD/svg11.dtd">
<svg version="1.1" id="Capa_1" xmlns="http://www.w3.org/2000/svg" xmlns:xlink="http://www.w3.org/1999/xlink" x="0px" y="0px"
	 width="46.129px" height="46.129px" viewBox="0 0 46.129 46.129" style="enable-background:new 0 0 46.129 46.129;"
	 xml:space="preserve">
<g>
	<g>
		<path d="M32.005,25.05c-0.874-0.664-3.145-1.094-2.586-2.334c0.718-1.597,1.087-3.367,1.424-5.075
			c0.534-2.708,0.65-12.72-4.882-9.955c-1.533,0.766-3.392,0.468-4.842,1.685c-2.334,1.958-2.978,4.645-3.069,7.611
			c-0.092,2.997,2.843,7.606,0.207,9.296c-3.743,2.398-6.741,5.636-7.44,10.128c-0.064,0.416,0.567,0.378,0.817,0.352
			c0.189-0.02,0.379-0.041,0.568-0.061c0.314-0.035-0.087,0.545-0.894,1.299c-1.019,0.95-2.038,1.901-3.057,2.853
			c-0.808,0.753-0.918,1.512-0.224,1.564c0.694,0.053,1.919-0.511,2.734-1.257c0.983-0.901,1.964-1.805,2.946-2.708
			c0.813-0.747,1.438-1.516,1.392-1.717c-0.045-0.201,0.805-0.473,1.901-0.607c6.159-0.761,12.285-1.49,18.527-0.76
			c0.021,0.002,0.044,0.001,0.067,0.001c0.545,0.053,1.421-0.224,1.496-0.625C37.859,30.614,35.107,27.406,32.005,25.05z
			 M33.694,34.133c-0.862-0.05-1.549-0.078-1.53-0.098c0.018-0.018-0.328-0.034-0.771-0.028c-0.268,0.003-0.535,0.009-0.802,0.016
			c-3.752,0.039-7.449,0.388-11.197,0.857c-2.046,0.259-7.148,2.136-6.029-1.419c0.026-0.084,0.056-0.167,0.087-0.249
			c0.052-0.137,0.26-0.398,0.462-0.588c0.203-0.188,0.365-0.365,0.36-0.393c-0.004-0.027-0.16,0.102-0.348,0.291
			c-0.188,0.188-0.007-0.5,0.632-1.4c1.769-2.495,4.762-4.349,7.19-5.786c0.109-0.064,0.489-0.311,0.378-0.502
			c-1.617-2.79-2.219-5.917-2.12-9.124c0.056-1.812,0.597-3.546,1.586-5.06c1.54-2.357,2.807-1.111,4.347-1.881
			c5.244-2.621,2.278,12.966,1.045,15.261c-0.069,0.13,0.082,0.271,0.188,0.307c3.482,1.16,7.157,4.191,7.95,7.921
			C35.35,33.339,34.559,34.184,33.694,34.133z"/>
		<path d="M39.934,11.406c-2.498,2.317-4.994,4.635-7.492,6.955c-0.81,0.752-1.471,1.379-1.479,1.402
			c-0.007,0.023,0.083,0.542,0.248,1.148s0.989,0.479,1.799-0.273c2.452-2.275,4.903-4.549,7.351-6.824
			c0.809-0.752,1.443-1.911,1.33-2.578C41.579,10.568,40.744,10.654,39.934,11.406z"/>
		<path d="M35.193,8.253c-0.085,0.027-0.576,0.479-1.099,1.008c-0.523,0.53-0.453,0.51,0.155-0.045
			C34.856,8.661,35.278,8.227,35.193,8.253z"/>
		<path d="M7.443,27.451c0.187-0.204,0.375-0.408,0.562-0.613c0.31-0.339-0.083,0.009-0.878,0.775
			c-0.578,0.558-1.132,1.092-1.629,1.571c-0.795,0.767-1.437,1.436-1.426,1.495c0.01,0.06,0.651-0.523,1.434-1.303
			C6.149,28.735,6.793,28.092,7.443,27.451z"/>
		<path d="M11.709,20.883c0.787-0.775,1.403-1.96,1.379-2.645c-0.024-0.685-0.661-0.598-1.43,0.194
			c-2.212,2.28-4.422,4.562-6.631,6.842c-0.769,0.793-1.351,1.869-1.292,2.4c0.059,0.532,0.747,0.334,1.533-0.44
			C7.415,25.116,9.562,23,11.709,20.883z"/>
		<path d="M33.175,14.625c0.562-0.528,1.124-1.054,1.682-1.577c0.807-0.755,1.335-1.185,2.154-1.926
			c0.453-0.411,1.039-0.946,1.743-1.591c0.813-0.747,1.272-1.533,0.989-1.7c-0.284-0.166-0.705-0.088-0.904,0.098
			c-0.117,0.109-0.235,0.22-0.36,0.337c-3.644,3.595-2.984,2.833-5.194,4.969c-0.795,0.768-1.452,1.702-1.49,2.077
			C31.756,15.689,32.369,15.38,33.175,14.625z"/>
		<path d="M40.839,18.768c0.232-0.23,0.433-0.46,0.441-0.514c0.011-0.055-0.62,0.526-1.41,1.298
			c-1.604,1.568-3.198,3.125-4.781,4.672c-0.79,0.771-1.393,1.43-1.345,1.47c0.047,0.041,0.735-0.544,1.537-1.304
			c1.51-1.431,2.983-2.829,4.421-4.194c0.801-0.761,1.474-1.48,1.505-1.607c0.03-0.126-0.136-0.044-0.368,0.183
			C40.604,19,40.604,18.998,40.839,18.768z"/>
		<path d="M35.77,44.639c-0.218,0.229-0.355,0.415-0.31,0.415c0.046,0.001,0.263-0.181,0.485-0.404
			c0.223-0.226,0.362-0.411,0.312-0.417C36.206,44.228,35.987,44.409,35.77,44.639z"/>
		<path d="M45.43,27.611c-0.061,0.062-0.096-0.784-0.08-1.889c0.078-5.352,0.108-10.724-0.071-16.057
			c-0.134-1.959,0.7-5.894-1.639-6.914c-3.496-1.524-7.758-1.221-11.485-1.666c-3.899-0.465-7.682-0.699-11.431-0.753
			c-1.104-0.016-1.932-0.081-1.847-0.166C18.96,0.082,18.723,0.006,18.344,0c-0.378-0.006-0.759,0.068-0.85,0.159
			c-0.09,0.09-1.059,0.175-2.163,0.209c-0.207,0.006-0.414,0.013-0.622,0.021c-1.104,0.039-1.918,0.006-1.818-0.094
			c0.099-0.1-0.318-0.15-0.93-0.092c-0.612,0.058-1.18,0.175-1.267,0.259c-0.086,0.083-0.182,0.152-0.213,0.154
			c-0.032,0.002,0.012-0.062,0.098-0.146s0.129-0.146,0.096-0.143c-0.033,0.003-0.126,0.071-0.209,0.152S9.423,0.688,8.321,0.778
			C6.154,0.957,3.968,1.181,1.745,1.455C1.428,1.493,0.716,1.683,0.637,2.075c-0.896,4.482-0.238,9.657-0.179,14.219
			c0.09,6.905,0.615,13.771,1.915,20.558c0.429,2.235,0.32,6.14,3.1,6.51c5.997,0.8,12.083,1.283,18.113,1.792
			c4.508,0.38,9.137,1.324,13.678,0.84c1.917-0.205,5.331-0.208,6.593-2.047c0.766-1.115,0.702-3.579,0.885-4.822
			c0.295-2.005,0.412-4.034,0.475-6.062c0.033-1.104,0.199-2.164,0.388-2.366c0.188-0.201,0.351-0.878,0.355-1.512
			c0.006-0.634-0.086-1.269-0.203-1.416C45.639,27.618,45.491,27.55,45.43,27.611z M43.376,27.683
			c-0.01,1.104-0.65,2.634-1.432,3.414c-0.521,0.521-1.043,1.043-1.565,1.565c-0.78,0.781-0.621,1.371,0.355,1.354
			c0.978-0.018,1.947-0.189,2.164-0.423c0.218-0.231,0.36,0.475,0.289,1.576c-0.131,2.014-0.34,4.018-0.635,6.025
			c-0.141,0.961-0.412,1.686-0.79,2.234c-0.627,0.908-1.938,1.177-2.416,1.126c-0.477-0.051-0.999,0.042-1.163,0.208
			s-0.131,0.295,0.074,0.278c0.205-0.016-0.521,0.058-1.625,0.049c-0.676-0.006-1.386-0.026-2.119-0.032
			c-6.628-0.057-13.543-1.127-20.122-1.899c-2.569-0.302-5.137-0.582-7.716-0.775c-2.108-0.158-2.458-6.514-2.724-7.896
			c-1.296-6.764-1.497-13.724-1.586-20.59c-0.04-3.12-0.012-6.24-0.002-9.359c0.002-0.618-0.006-1.069,0.004-1.4
			c0.025-0.773,0.716-0.906,0.7-0.827S3.04,2.937,3.038,3.529c-0.002,0.593,0.639,0.448,1.43-0.322
			c0.023-0.023,0.047-0.046,0.07-0.068c0.791-0.771,2.179-1.534,3.103-1.681c0.554-0.087,1.113-0.166,1.681-0.226
			c0.067-0.007,0.135-0.012,0.203-0.016c0.112-0.008-0.436,0.61-1.226,1.382C7.045,3.824,5.77,5.07,4.461,6.348
			C3.67,7.118,3.028,7.757,3.028,7.773S3.669,7.177,4.46,6.407c1.399-1.363,2.766-2.693,3.932-3.824
			C9.185,1.814,9.855,1.19,9.888,1.188c0.033-0.003-0.585,0.618-1.379,1.386c-1.094,1.057-2.46,2.378-4.044,3.912
			C3.672,7.254,3.027,8.421,3.027,9.093c0,0.671,0.628,0.576,1.401-0.212c2.128-2.169,4.245-4.316,6.352-6.449
			c0.776-0.786,2.3-1.473,3.405-1.496c6.177-0.129,12.399,0.606,18.496,1.333c2.41,0.288,4.828,0.394,7.239,0.658
			c4.331,0.475,3.234,4.455,3.427,7.255C43.542,16.005,43.433,21.852,43.376,27.683z"/>
		<path d="M4.819,22.629c2.367-2.437,4.645-4.779,6.792-6.981c0.771-0.791,1.387-2.15,1.378-3.038
			c-0.008-0.887-0.648-0.978-1.436-0.203c-2.284,2.248-4.585,4.515-6.91,6.809c-0.787,0.776-1.39,2.177-1.331,3.128
			C3.372,23.294,4.05,23.421,4.819,22.629z"/>
		<path d="M37.951,27.324c-0.819,0.741-1.393,1.475-1.284,1.64c0.107,0.164,0.815-0.337,1.589-1.126
			c0.683-0.696,1.366-1.395,2.048-2.092c0.773-0.79,1.338-1.464,1.264-1.504c-0.073-0.039-0.798,0.53-1.616,1.271
			C39.276,26.123,38.609,26.728,37.951,27.324z"/>
		<path d="M22.241,42.82c-0.577-0.063-1.327,0.148-1.658,0.487s0.164-0.037-0.001,0.113c-0.166,0.152,0.155,0.324,0.714,0.388
			c0.56,0.062,1.232-0.111,1.501-0.382C23.066,43.158,22.818,42.883,22.241,42.82z"/>
		<path d="M15.762,39.671c-0.012-0.058-0.68,0.504-1.491,1.254c-0.191,0.178-0.381,0.354-0.572,0.529
			c-0.81,0.75-1.312,1.376-1.121,1.398c0.192,0.021,0.976-0.6,1.752-1.386c0.032-0.031,0.063-0.063,0.095-0.097
			c0.776-0.786,1.396-1.463,1.383-1.51c-0.007-0.027-0.014-0.056-0.022-0.086C15.777,39.742,15.77,39.707,15.762,39.671z"/>
		<path d="M10.468,8.625c0.418-0.424,0.837-0.845,1.257-1.266c0.696-0.698,1.259-1.576,1.259-1.958
			c0.001-0.383-0.629-0.057-1.407,0.728c-2.373,2.395-4.742,4.791-7.11,7.187c-0.776,0.786-1.403,1.65-1.401,1.932
			c0.003,0.282,0.654-0.107,1.452-0.872C6.503,12.476,8.483,10.561,10.468,8.625z"/>
		<path d="M32.752,43.967c-0.553-0.05-1.098-0.106-1.638-0.168c-0.902-0.102-1.828,0.009-2.066,0.245s0.408,0.524,1.443,0.635
			c1.034,0.108,2.057-0.011,2.28-0.249c0.225-0.239,0.31-0.439,0.191-0.447C32.892,43.977,32.819,43.971,32.752,43.967z"/>
		<path d="M13.501,27.644c0.094-0.099,0.123-0.621,0.066-1.167c-0.057-0.547-0.73-0.358-1.513,0.42
			c-2.047,2.036-4.044,4.022-5.989,5.956c-0.783,0.778-1.336,1.869-1.223,2.435c0.112,0.565,0.29,0.949,0.388,0.857
			c0.06-0.058,0.119-0.112,0.179-0.17c2.646-2.734,5.289-5.468,7.921-8.155C13.388,27.759,13.444,27.702,13.501,27.644z"/>
		<path d="M45.76,34.111c-0.038,0.039-0.04,0.072-0.005,0.076c0.035,0.005,0.064-0.028,0.067-0.071
			C45.826,34.073,45.798,34.071,45.76,34.111z"/>
	</g>
</g>
<g>
</g>
<g>
</g>
<g>
</g>
<g>
</g>
<g>
</g>
<g>
</g>
<g>
</g>
<g>
</g>
<g>
</g>
<g>
</g>
<g>
</g>
<g>
</g>
<g>
</g>
<g>
</g>
<g>
</g>
</svg>
