<?xml version="1.0" encoding="iso-8859-1"?>
<!-- Generator: Adobe Illustrator 16.0.0, SVG Export Plug-In . SVG Version: 6.00 Build 0)  -->
<!DOCTYPE svg PUBLIC "-//W3C//DTD SVG 1.1//EN" "http://www.w3.org/Graphics/SVG/1.1/DTD/svg11.dtd">
<svg version="1.1" id="Capa_1" xmlns="http://www.w3.org/2000/svg" xmlns:xlink="http://www.w3.org/1999/xlink" x="0px" y="0px"
	 width="51.058px" height="51.058px" viewBox="0 0 51.058 51.058" style="enable-background:new 0 0 51.058 51.058;"
	 xml:space="preserve">
<g>
	<g>
		<path d="M41.041,17.339c-0.002,0.013,0.001,0.022,0.004,0.031c0.006,0.017,0.005,0.046-0.001,0.064s-0.345,0.328-0.79,0.655
			c-2.625,1.928-5.061,2.197-7.308,0.81c-0.471-0.29-1.192-0.824-1.599-1.198c-0.752-0.692-1.36-1.559-1.877-2.438
			c-0.278-0.477-0.104-0.955,0.167-1.435c0.586-1.035,1.316-2.97,1.322-3.012c0.511-3.487-3.514-4.536-6.029-4.131
			c-1.929,0.312-4.07,2.44-3.81,4.519c0.366,2.929,2.37,2.715,0.309,5.738c-0.79,1.16-12.22,6.835-11.341,0.14
			c0.128-0.976-0.345-1.661-0.761-2.466c-2.709-5.238-12.569,0.98-8.248,5.301c1.081,1.081,2.102,1.761,3.708,1.772
			c0.311,0.002,1.376,3.409,1.603,4.011c0.69,1.824,2.252,2.421,4.035,2.421c6.111,0,12.221,0,18.332,0
			c3.591,0,7.543,0.444,11.227,0.067c0.55-0.057,1.107-0.124,1.25-0.124c0.142,0,0.273-0.018,0.296-0.041
			c0.021-0.022,0.006-0.041-0.033-0.041c-0.04,0,0.158-0.037,0.441-0.086c0.172-0.029,0.343-0.062,0.511-0.102
			c2.13-0.493,2.696-2.908,3.337-4.636c0.225-0.606-0.699-1.367,0.035-1.486c0.462-0.074,1.247-0.127,1.763-0.339
			c1.508-0.621,2.293-1.453,3.024-2.867C53.411,13.046,42.222,10.019,41.041,17.339z M24.133,11.374
			c0.671-0.203,1.343-0.406,2.014-0.609c0.528-0.159,0.629,0.014,0.223,0.388c-0.528,0.486-1.048,0.965-1.559,1.435
			c-0.406,0.374-0.97,0.337-1.221-0.104C23.339,12.041,23.604,11.533,24.133,11.374z M25.302,13.841
			c-0.383,0.398-0.675,0.68-0.651,0.63c0.024-0.05,0.194-0.241,0.384-0.426c0.131-0.128,0.25-0.241,0.346-0.333
			C26.414,12.674,26.176,12.933,25.302,13.841z M2.633,20.051c-0.098-0.102-0.169-0.213-0.218-0.333
			c-0.205-0.513,0.144-0.536,0.422-0.059c0.015,0.025,0.03,0.051,0.045,0.075C3.17,20.206,3.016,20.45,2.633,20.051z M4.171,17.563
			c-0.029-0.485,0.299-1.163,0.782-1.43c0.391-0.215,0.788-0.376,1.162-0.458c0.54-0.118,0.666,0.312,0.267,0.695
			c-0.473,0.454-0.952,0.913-1.437,1.378C4.547,18.131,4.199,18.049,4.171,17.563z M7.898,24.059
			c-0.011-0.024-0.022-0.05-0.034-0.075c-0.223-0.506-0.069-1.244,0.316-1.64c0.225-0.23,0.45-0.461,0.675-0.691
			c0.386-0.395,0.486-0.845,0.254-1.044c-0.233-0.2-0.718-0.077-1.114,0.308c-0.089,0.086-0.178,0.172-0.268,0.259
			c-0.397,0.385-0.408,0.374-0.016-0.015c0.088-0.087,0.177-0.176,0.268-0.265c0.394-0.387,0.383-0.398-0.018-0.018
			c-0.086,0.081-0.171,0.163-0.257,0.245c-0.398,0.382-0.757,0.604-0.805,0.491c-0.029-0.067-0.058-0.135-0.087-0.202
			c-0.081-0.184-0.169-0.326-0.267-0.437c-0.188-0.212-0.105-0.587,0.29-0.973c0.13-0.126,0.259-0.252,0.39-0.379
			c0.396-0.385,0.61-0.974,0.542-1.33c-0.069-0.357-0.384-0.339-0.776,0.05c-0.542,0.537-1.083,1.074-1.623,1.61
			c-0.392,0.39-0.78,0.702-0.866,0.697c-0.086-0.004-0.18-0.457-0.212-1.009c-0.002-0.041-0.005-0.082-0.007-0.124
			c-0.032-0.551,0.264-1.307,0.663-1.689c0.504-0.484,1.001-0.962,1.494-1.436c0.398-0.383,1.197-0.529,1.434-0.03
			c0.203,0.426,0.276,1.055,0.16,1.936c-0.037,0.283-0.027,0.616,0.14,0.855c0.714,1.016,1.598,1.693,2.583,2.097
			c0.511,0.209,0.638,0.618,0.249,1.011c-0.653,0.659-1.306,1.318-1.959,1.979C8.661,24.633,8.125,24.562,7.898,24.059z
			 M46.832,19.875c-0.357,0.421-0.99,0.732-1.361,0.866c-0.245,0.089-0.467,0.226-0.574,0.404c-1.183,1.957-1.441,5.927-4.271,5.927
			c-2.756,0-5.512,0-8.269,0c-5.583,0-11.164,0-16.746,0c-0.552,0-1.077-0.072-1.166-0.171c-0.088-0.098-0.229-0.105-0.325-0.007
			c-0.095,0.1-0.56,0.178-1.039,0.178c-0.478,0-0.553-0.32-0.168-0.717c0.038-0.039,0.076-0.078,0.114-0.117
			c0.385-0.396,0.566-1.063,0.404-1.49c-0.162-0.428-0.611-0.461-1.005-0.073c-0.474,0.468-0.949,0.936-1.426,1.407
			c-0.394,0.389-1.142,0.544-1.572,0.197c-0.083-0.066-0.163-0.138-0.239-0.211c-0.398-0.383-0.308-1.08,0.093-1.46
			c0.731-0.695,1.463-1.393,2.192-2.096c0.398-0.383,0.689-0.742,0.648-0.8c-0.041-0.058,0.363-0.018,0.916,0
			c4.132,0.135,9.016-3.018,11.074-6.254c0.296-0.466,0.492-0.864,0.502-0.854c0.01,0.012,0.33-0.301,0.715-0.696
			c0.928-0.955,1.806-1.857,2.642-2.718c0.386-0.396,0.723-0.834,0.767-0.979c0.044-0.143,0.224,0.174,0.258,0.725
			c0.013,0.203,0.01,0.401-0.007,0.594c-0.05,0.551-0.268,0.854-0.305,0.705c-0.037-0.147-0.369,0.05-0.755,0.445
			c-1.228,1.26-2.456,2.52-3.684,3.779c-0.385,0.396-0.96,1.081-1.331,1.489c-0.155,0.171-0.316,0.337-0.483,0.496
			c-0.399,0.382-1.067,0.975-1.452,1.372c-0.195,0.201-0.39,0.402-0.584,0.603c-0.384,0.398-0.458,0.745-0.163,0.763
			c0.177,0.01,0.354,0.016,0.533,0.016c0.122,0,0.242-0.009,0.362-0.019c0.199-0.019,0.678-0.348,1.072-0.735
			c1.614-1.593,3.228-3.188,4.844-4.778c0.046-0.05,0.091-0.1,0.135-0.151c0.075-0.083,0.336,0.25,0.631,0.717
			c1.981,3.125,5.261,4.746,9.02,4.997c2.609,0.173,5.733-0.652,6.134-3.155c0.087-0.546,0.438-1.159,0.957-1.345
			c0.3-0.106,0.586-0.204,0.858-0.292c0.525-0.169,0.637,0.025,0.24,0.41c-0.365,0.355-0.731,0.712-1.097,1.066
			c-0.396,0.385-0.714,0.714-0.71,0.735c0.002,0.013,0.004,0.026,0.008,0.039c0.02,0.068,0.027,0.144,0.025,0.223
			c-0.003,0.124,0.304-0.073,0.719-0.438c0.74-0.652,1.471-1.295,2.191-1.929c0.415-0.364,1.195-0.767,1.747-0.732
			C49.402,15.909,49.048,17.26,46.832,19.875z"/>
		<path d="M40.71,29.802c-3.819,0-7.638,0-11.457,0c-5.309,0-10.618,0-15.927,0c-1.879,0-4.145-0.158-4.719,1.524
			c-0.178,0.522-0.162,1.057-0.16,1.147c0.002,0.052,0.011,0.105,0.032,0.161c1.121,2.968,1.869,6.914,3.625,9.546
			c2.034,3.048,6.094,2.149,9.302,2.149c4.688,0,9.377,0,14.064,0c4.024,0,4.768-4.685,5.858-7.623
			C42.045,34.776,44.874,29.802,40.71,29.802z M10.836,33.24c-0.024-0.062-0.048-0.126-0.071-0.188
			c-0.195-0.517-0.32-1.465,0.18-1.698c0.551-0.258,1.459-0.331,2.401-0.327c0.552,0.002,0.682,0.344,0.289,0.731
			c-0.576,0.569-1.154,1.142-1.734,1.715C11.508,33.861,11.031,33.758,10.836,33.24z M39.136,37.425
			c-1.133,3.056-1.529,5.499-5.218,5.499c-3.81,0-7.62,0-11.43,0c-0.434,0-0.976,0.037-1.577,0.079
			c-0.551,0.039-0.976,0.046-0.949,0.021c0.026-0.023-0.11-0.207-0.261-0.438c-0.093-0.143-0.171-0.29-0.23-0.444
			c0,0-0.02-0.053-0.044-0.117s-0.332,0.152-0.686,0.482c-0.355,0.331-1.091,0.596-1.64,0.535c-0.725-0.08-1.404-0.24-1.967-0.527
			c-0.492-0.252-0.476-0.896-0.073-1.274c0.55-0.517,1.103-1.034,1.663-1.561c0.218-0.226,0.437-0.45,0.654-0.674
			c0.361-0.372,0.562-0.918,0.448-1.219c-0.114-0.302-0.523-0.229-0.915,0.158c-0.271,0.271-0.54,0.537-0.805,0.801
			c-0.525,0.565-1.055,1.127-1.583,1.688c-0.378,0.402-0.692,0.713-0.703,0.694c-0.006-0.012-0.013-0.024-0.018-0.036
			c-0.119-0.314-0.237-0.628-0.356-0.942c-0.195-0.517-0.036-1.25,0.355-1.64c0.804-0.8,1.607-1.601,2.414-2.401
			c0.392-0.39,0.703-0.725,0.693-0.749c-0.009-0.023-0.338,0.267-0.737,0.648c-0.011,0.011-0.021,0.021-0.032,0.031
			c-0.398,0.382-1.043,1.002-1.433,1.393c-0.317,0.319-0.635,0.64-0.952,0.959c-0.389,0.394-0.789,0.488-0.892,0.214
			c-0.104-0.273,0.131-0.811,0.524-1.198c0.806-0.795,1.612-1.589,2.418-2.384c0.393-0.388,0.628-0.925,0.525-1.197
			c-0.104-0.274-0.499-0.176-0.883,0.222c-0.801,0.826-1.603,1.652-2.403,2.479c-0.384,0.396-0.804,0.43-0.938,0.073
			c-0.134-0.354,0.068-0.967,0.452-1.363c0.877-0.904,1.743-1.799,2.594-2.676c0.384-0.396,0.731-0.899,0.854-1.085
			c0.124-0.184,0.371-0.282,0.486-0.274c0.082,0.004,0.154,0.007,0.209,0.007c4.126,0,8.252,0,12.378,0c3.349,0,6.698,0,10.046,0
			C42.558,31.208,39.872,35.442,39.136,37.425z"/>
		<path d="M18.585,20.822c0.067-0.057,0.096-0.104,0.073-0.094c-0.023,0.01-0.079,0.054-0.124,0.1
			C18.489,20.875,18.517,20.879,18.585,20.822z"/>
		<path d="M41.255,20.76c0.05,0.011,0.132-0.016,0.183-0.061c0.051-0.045,0.011-0.052-0.091-0.02
			C41.246,20.715,41.204,20.75,41.255,20.76z"/>
	</g>
</g>
<g>
</g>
<g>
</g>
<g>
</g>
<g>
</g>
<g>
</g>
<g>
</g>
<g>
</g>
<g>
</g>
<g>
</g>
<g>
</g>
<g>
</g>
<g>
</g>
<g>
</g>
<g>
</g>
<g>
</g>
</svg>
