<?xml version="1.0" encoding="iso-8859-1"?>
<!-- Generator: Adobe Illustrator 16.0.0, SVG Export Plug-In . SVG Version: 6.00 Build 0)  -->
<!DOCTYPE svg PUBLIC "-//W3C//DTD SVG 1.1//EN" "http://www.w3.org/Graphics/SVG/1.1/DTD/svg11.dtd">
<svg version="1.1" id="Capa_1" xmlns="http://www.w3.org/2000/svg" xmlns:xlink="http://www.w3.org/1999/xlink" x="0px" y="0px"
	 width="40.739px" height="40.74px" viewBox="0 0 40.739 40.74" style="enable-background:new 0 0 40.739 40.74;"
	 xml:space="preserve">
<g>
	<g>
		<path d="M1.551,39.685c4.619,0.91,10.273,0.021,14.958,0.021c6.816,0,13.632,0,20.448,0c3.211,0,3.342-1.323,3.342-4.197
			c0-7.309,0-14.616,0-21.925c0-1.862,1.118-9.381-0.208-12.015c-0.248-0.493-0.721-0.866-0.88-0.9
			c-0.077-0.017-0.174-0.025-0.294-0.025c-11.85,0-23.698,0-35.547,0c-3.339,0-2.985,2.044-2.985,4.765c0,7.429,0,14.856,0,22.285
			C0.385,29.49-1.024,39.177,1.551,39.685z M3.016,2.6c0.052-0.054,0.105-0.107,0.158-0.161C3.56,2.044,3.648,1.973,3.361,2.275
			C3.075,2.577,3.079,2.574,3.376,2.271C3.672,1.969,4.28,1.724,4.732,1.724c0.273,0,0.546,0,0.82,0c7.527,0,15.054,0,22.581,0
			c2.922,0,5.846,0,8.768,0c0.553,0,1.37,0.3,1.501,0.837c0.269,1.094-0.034,2.799-0.034,3.461c0,3.652,0,7.305,0,10.957
			c0,0.936,0,1.873,0,2.809c0,0.553-0.135,0.863-0.319,0.717c-0.186-0.146-0.317-0.277-0.28-0.318
			c0.038-0.04-0.028-0.072-0.146-0.072c-0.118,0-0.614-0.212-1.149-0.349c-1.47-0.376-3.167-0.13-4.702-0.13
			c-2.034,0-4.067,0-6.102,0c-0.552,0-0.854-0.137-0.67-0.306c0.182-0.169,0.225-0.494,0.16-0.747
			c-0.039-0.15-0.061-0.307-0.061-0.469c0,0,0-0.143,0-0.318c0-0.175-0.329-0.013-0.732,0.363c-0.284,0.263-0.567,0.526-0.852,0.79
			c-0.404,0.376-1.1,0.68-1.404,0.405c-0.304-0.274-0.098-0.909,0.307-1.287c0.655-0.614,1.309-1.226,1.955-1.831
			c0.402-0.378,0.729-0.865,0.729-1.089c0-0.223-0.331-0.103-0.732,0.276c-0.395,0.371-0.984,0.94-2.171,2.11
			c-0.393,0.389-0.843,0.273-0.93-0.271c-0.062-0.391-0.104-0.811-0.133-1.246c-0.035-0.551,0.273-1.32,0.659-1.715
			c0.877-0.899,1.747-1.791,2.607-2.672c0.387-0.396,0.699-0.872,0.699-1.065c0-0.193-0.323-0.039-0.718,0.347
			c-1.241,1.21-0.179,0.234-2.57,2.543c-0.397,0.383-0.715,0.246-0.694-0.307c0.031-0.862,0.086-1.655,0.128-2.266
			c0.039-0.551,0.233-1.168,0.446-1.378c0.128-0.126,0.257-0.253,0.386-0.379c0.797-0.882,1.575-1.76,2.357-2.64
			c0.367-0.413,0.665-0.977,0.665-1.26V4.71c0-0.112-0.011-0.221-0.031-0.327c-0.033-0.179-0.396,0.003-0.782,0.398
			c-0.729,0.748-1.458,1.496-2.187,2.244c-0.385,0.396-0.678,0.385-0.667-0.024c0.011-0.409,0.316-1.061,0.702-1.456
			c0.541-0.557,1.066-1.097,1.575-1.619c0.385-0.396,0.514-0.889,0.241-1.019c-0.272-0.13-0.849,0.139-1.256,0.513
			c-0.227,0.209-0.45,0.415-0.675,0.621c-0.405,0.374-0.811,0.228-1.032-0.277c-0.175-0.402-0.414-0.771-0.737-1.095
			c-1.182-1.182-5.461-0.438-6.805-0.438c-2.196,0-8.152-1.032-10.497,0.953C2.53,3.54,2.32,3.809,2.32,3.632
			C2.316,3.457,2.63,2.994,3.016,2.6z M21.035,20.908c-0.02-0.07-0.045-0.136-0.078-0.197c-0.054-0.104,0.305-0.012,0.844,0.107
			c3.659,0.821,10.769-0.103,12.293-0.103c4.626,0,2.686,11.27,2.686,14.38c0,2.967-3.87,1.943-5.932,1.943
			c-1.933,0-7.297,1-9.056-0.854c-0.38-0.401-0.485-1.312-0.472-1.864C21.429,29.994,22.135,24.976,21.035,20.908z M19.649,19.444
			c0.019,0.069,0.046,0.135,0.078,0.197c0.054,0.105-0.305,0.012-0.844-0.108c-3.659-0.821-10.769,0.103-12.293,0.103
			c-4.626,0-2.686-11.27-2.686-14.38c0-2.967,3.871-1.943,5.932-1.943c2.181,0,8.73-1.273,9.54,1.719
			C20.598,9.546,18.41,14.866,19.649,19.444z M2.366,19.293c0.029,0.047,0.03,0.109,0.002,0.137
			c-0.028,0.029-0.051-0.01-0.051-0.086C2.316,19.267,2.337,19.246,2.366,19.293z M2.316,20.953c0-0.553,0.068-1.063,0.152-1.143
			s0.434,0.222,0.913,0.496c0.268,0.154,0.587,0.284,0.964,0.387c0.067,0.018,0.14,0.034,0.217,0.049
			c0.12,0.021-0.1,0.348-0.493,0.734c-0.346,0.342-0.693,0.684-1.041,1.027c-0.393,0.389-0.712,0.257-0.712-0.297
			C2.316,21.791,2.316,21.371,2.316,20.953z M2.316,34.988c0-0.554,0.326-1.309,0.729-1.687c0.771-0.726,1.547-1.454,2.332-2.19
			c0.403-0.378,0.729-1.027,0.729-1.451c0-0.425-0.096-0.672-0.213-0.557c-0.072,0.071-0.143,0.143-0.213,0.212
			c-0.888,0.956-1.782,1.906-2.677,2.857c-0.379,0.401-0.686,0.407-0.686,0.013c0-0.238,0-0.477,0-0.715c0-0.223,0-0.445,0-0.668
			c0-0.37,0.317-0.984,0.709-1.374c0.789-0.786,1.579-1.572,2.371-2.356c0.392-0.391,0.71-0.734,0.71-0.771
			s-0.249,0.173-0.557,0.467c-0.308,0.295-0.879,0.846-1.269,1.236c-0.42,0.423-0.839,0.846-1.259,1.268
			c-0.389,0.393-0.705,0.403-0.705,0.025c0-0.377,0.319-0.998,0.712-1.387c0.788-0.776,1.577-1.555,2.365-2.332
			c0.393-0.388,0.712-1.012,0.712-1.392c0-0.381-0.311-0.368-0.696,0.028c-0.799,0.824-1.599,1.648-2.398,2.473
			c-0.384,0.396-0.696,0.316-0.696-0.178c0-0.495,0.311-1.219,0.695-1.614c0.811-0.837,1.612-1.663,2.397-2.472
			c0.385-0.396,0.697-0.912,0.697-1.153c0-0.239,0.448-0.44,1-0.47c4.631-0.242,12.271-1.501,12.271,2.376c0,3.888,0,7.772,0,11.661
			c0,0.552,0.095,1.445,0.369,1.927c0.82,1.438,2.353,1.354,4.137,1.354c3.581,0,7.162,0,10.743,0c1.574,0,2.584-0.48,3.226-1.26
			c0.352-0.427,0.518-0.679,0.518-0.463c0,0.215-0.164,0.553-0.368,0.755c-0.203,0.202-0.202,0.365,0.002,0.365
			s0.382,0.452,0.542,0.979c0.082,0.271-0.037,0.129-1.244,0.129c-3.107,0-6.213,0-9.319,0c-7.267,0-14.533,0-21.799,0
			c-0.189,0-0.337,0-0.485,0c-0.203,0-0.538,0.037-0.919,0.067c-0.508,0.041-0.589-0.256-0.179-0.625
			c0.256-0.231,0.512-0.46,0.767-0.69c0.41-0.37,0.742-1.023,0.742-1.457c0-0.435-0.327-0.481-0.731-0.104
			c-0.698,0.651-1.396,1.302-2.094,1.953c-0.404,0.377-0.84,0.608-0.906,0.47c-0.037-0.076-0.058-0.166-0.058-0.268
			C2.316,36.978,2.316,35.982,2.316,34.988z"/>
		<path d="M24.371,13.405c-0.389,0.393-0.383,0.422,0.012,0.06c0.395-0.36,0.714-0.685,0.714-0.726c0-0.04-0.312,0.248-0.701,0.641
			C24.387,13.389,24.379,13.397,24.371,13.405z"/>
	</g>
</g>
<g>
</g>
<g>
</g>
<g>
</g>
<g>
</g>
<g>
</g>
<g>
</g>
<g>
</g>
<g>
</g>
<g>
</g>
<g>
</g>
<g>
</g>
<g>
</g>
<g>
</g>
<g>
</g>
<g>
</g>
</svg>
