<?xml version="1.0" encoding="iso-8859-1"?>
<!-- Generator: Adobe Illustrator 16.0.0, SVG Export Plug-In . SVG Version: 6.00 Build 0)  -->
<!DOCTYPE svg PUBLIC "-//W3C//DTD SVG 1.1//EN" "http://www.w3.org/Graphics/SVG/1.1/DTD/svg11.dtd">
<svg version="1.1" id="Capa_1" xmlns="http://www.w3.org/2000/svg" xmlns:xlink="http://www.w3.org/1999/xlink" x="0px" y="0px"
	 width="38.275px" height="38.275px" viewBox="0 0 38.275 38.275" style="enable-background:new 0 0 38.275 38.275;"
	 xml:space="preserve">
<g>
	<g>
		<path d="M38.266,18.872c0-0.012-0.004-0.098-0.004-0.098c0-0.113-0.006-0.229-0.012-0.342l-0.008-0.173l-0.01-0.132l-0.004-0.069
			c0-0.024-0.021-0.267-0.021-0.267l-0.005-0.068c0-0.003-0.009-0.124-0.009-0.124c0-0.007-0.007-0.074-0.007-0.074l-0.025-0.238
			c-0.003-0.029-0.014-0.093-0.014-0.093l-0.01-0.087c-0.625-5.252-3.506-9.813-7.638-12.696c-1.249-0.874-2.612-1.59-4.059-2.128
			c-0.671-0.247-1.357-0.459-2.056-0.628c0,0-0.016-0.003-0.035-0.007c-0.018-0.004-0.066-0.017-0.108-0.026
			c-0.038-0.009-0.076-0.017-0.076-0.017c-0.096-0.022-0.196-0.043-0.3-0.064l-0.064-0.014c-0.137-0.028-0.262-0.05-0.379-0.074
			l-0.133-0.024c-0.129-0.026-0.258-0.044-0.38-0.065c-0.165-0.022-0.3-0.04-0.438-0.061c-0.041-0.004-0.104-0.013-0.104-0.013
			c-0.024-0.003-0.05-0.004-0.074-0.007c-1.977-0.393-4.03-0.551-6.065-0.29c-2.589,0.3-5.109,1.168-7.34,2.537
			C4.425,6.23,1.348,10.993,0.707,15.884l-0.003,0.021l-0.018-0.003l0,0l0.018,0.003c-0.003,0,0.007,0,0,0l0,0l-0.001,0.009
			l-0.002,0.019l-0.005,0.041l-0.009,0.082c-0.01,0.069-0.007,0.091-0.018,0.145l-0.005,0.02v0.002l-0.027,0.314l0.019-0.315
			l-0.001,0.003l0.001-0.004v0.001l0.004-0.023c0.01-0.054,0.005-0.075,0.013-0.145l0.007-0.083l0.004-0.041l0.001-0.02l0.001-0.008
			H0.685l0,0h0.002v-0.001L0.06,15.819v-0.003l0,0H0.059v0.01l-0.002,0.04l-0.005,0.082l-0.006,0.083
			c0.004-0.011-0.012,0.085,0.009-0.015L0.051,16.05l-0.019,0.172l0.004-0.099l-0.004,0.1v0.001l-0.015,0.367l-0.004,0.116v0.029
			c-0.014,0.112-0.004,0.048-0.006,0.081l0.002,0.058c0.016-0.03,0,0.124,0.001,0.178l0.01,0.308l0.002-0.015
			c-0.002,0.052,0.003,0.1,0.003,0.15l0.008,0.275l0.002-0.023c0.038,1.068,0.205,2.018,0.401,2.879v-0.021
			c0.013,0.098,0.022,0.104,0.034,0.159l-0.001-0.021c0.039,0.226,0.098,0.404,0.144,0.589c-0.112-0.122-0.158,0.34-0.067,1.025
			l0.001,0.012l0.007,0.028l0.013,0.05c0.08,0.566,0.273,1.249,0.574,1.912c0.122,0.137-0.04-0.619,0.05-0.583
			c0.319,1.166,0.769,2.299,1.314,3.388c0.009,0.019,0.015,0.037,0.024,0.055c0.003,0.005,0.005,0.007,0.009,0.012
			c0.953,1.885,2.219,3.626,3.773,5.094c2.804,2.697,6.537,4.465,10.452,4.924l-0.002-0.001l0.006,0.001l0.368,0.041l-0.004-0.001
			l0.445,0.036l0.012,0.001c0.454,0.034,0.913,0.045,1.372,0.044c0.015,0.002,0.029,0.003,0.029,0.003l0.132,0.006l0.172,0.008
			c0.114,0.007,0.233,0.01,0.347,0.015h0.082c0.014,0,0.079,0,0.079,0c0.119,0.005,0.233,0.009,0.345,0.009
			c0.115,0,0.228-0.004,0.343-0.009h0.067c0.011,0,0.1,0,0.1,0c0.111-0.005,0.227-0.007,0.341-0.015l0.175-0.008l0.129-0.006
			l0.07-0.006c0.02-0.004,0.268-0.02,0.268-0.02s0.014-0.001,0.033-0.002c0.016-0.002,0.057-0.007,0.088-0.011
			c0.03-0.003,0.075-0.005,0.101-0.008c0.022-0.002,0.045-0.005,0.045-0.005l0.245-0.024c0.009-0.001,0.027-0.002,0.044-0.005
			c0.024-0.002,0.06-0.007,0.083-0.011c0.021-0.003,0.044-0.006,0.044-0.006c0.702-0.081,1.389-0.207,2.063-0.366
			c0.705-0.169,1.391-0.378,2.062-0.628c1.446-0.537,2.81-1.254,4.06-2.125c4.131-2.885,7.004-7.446,7.637-12.699
			c0,0,0.004-0.019,0.006-0.041c0.002-0.021,0.006-0.057,0.009-0.076c0.002-0.021,0.011-0.098,0.019-0.172
			c0.008-0.065,0.017-0.133,0.017-0.133l0.006-0.065c0-0.018,0.009-0.12,0.009-0.12c0-0.014,0.005-0.083,0.005-0.083l0.021-0.243
			c0-0.023,0.005-0.092,0.005-0.092l0.009-0.125l0.008-0.18c0.006-0.115,0.012-0.225,0.012-0.338l0.004-0.085
			c0-0.012,0-0.085,0-0.085c0-0.11,0.006-0.224,0.006-0.341c0-0.111-0.006-0.225-0.006-0.338v-0.07H38.266z M24.385,5.323
			c0-0.781,0.152-1.431,0.383-1.828c0.99,0.432,1.974,0.88,2.884,1.346c1.468,0.701,0.769,0.129,1.295,0.294
			c2.237,1.804,4.202,4.171,5.476,6.53c0.512,0.92,0.918,1.829,1.25,2.676c-0.324,0.428-0.882,0.7-1.57,0.7H30.5c0,0-0.33,0-0.736,0
			c-0.408,0-1.133-0.875-1.853-1.799c-0.435-0.558-0.929-1.068-1.47-1.521c-0.314-0.261-0.645-0.504-0.988-0.725
			c-0.568-0.366-1.068-1.724-1.068-3.113V5.323z M14.865,3.109c0.568-0.187,1.038,0.823,1.038,2.214v2.561
			c0,1.39-0.499,2.747-1.067,3.112c-0.344,0.22-0.674,0.462-0.987,0.724c-0.544,0.452-1.038,0.963-1.474,1.521
			c-0.721,0.924-1.447,1.801-1.854,1.801H9.784H6.181c-1.39,0-2.252-1.102-1.71-2.381c1.155-2.727,3-5.09,5.312-6.872
			c1.234-0.943,2.598-1.729,4.065-2.313C14.182,3.345,14.521,3.222,14.865,3.109z M6.56,32.126c-2.775-2.628-4.652-6.14-5.321-9.83
			l-0.004-0.019l-0.003-0.013l-0.009-0.033c-0.086-0.5-0.167-1.041-0.206-1.502L1.015,20.7l0.001,0.01l-0.009-0.074l-0.004-0.049
			c-0.083-0.926-0.098-1.815-0.04-2.729l0.002-0.023v0.004c0.002-0.116,0.009-0.231,0.023-0.344l0.001-0.017l0,0l0.007-0.114
			l0.017-0.155v0.003l0.002-0.016L1.013,17.21l0.135-0.906l-0.003,0.017c0.029-0.135,0.038-0.213,0.058-0.339
			c0.219-1.254,0.594-2.642,1.107-3.839c0.509-1.204,1.159-2.216,1.749-2.78c0.104,0.014-0.393,0.747-0.8,1.53
			c-0.419,0.776-0.733,1.595-0.592,1.58c0.586-0.908,1.513-2.497,2.6-3.885c1.06-1.408,2.255-2.609,2.712-3.253
			c1.023-0.753,2.157-1.364,3.338-1.855c-0.523,0.293-1.044,0.591-1.534,0.933c-3.579,2.497-6.218,6.254-7.267,10.633l-0.03,0.123
			c-0.039,0.176-0.064,0.285-0.084,0.396l-0.043,0.192L2.338,15.88l-0.015,0.066c-0.002,0.01-0.011,0.069-0.021,0.126
			c-0.012,0.07-0.023,0.142-0.028,0.162c-0.004,0.018-0.009,0.038-0.009,0.038l-0.017,0.101c0,0-0.007,0.049-0.017,0.11
			c-0.009,0.061-0.018,0.128-0.021,0.146c-0.002,0.017-0.005,0.033-0.005,0.033L2.17,16.906l-0.008,0.087l-0.01,0.066l-0.03,0.266
			c0,0-0.001,0.016-0.003,0.034c-0.002,0.019-0.006,0.054-0.008,0.081c-0.002,0.023-0.003,0.048-0.003,0.048
			c-0.017,0.112-0.027,0.228-0.031,0.345c0,0-0.002,0.019-0.005,0.042c-0.002,0.022-0.005,0.059-0.007,0.08
			c-0.001,0.019-0.003,0.038-0.003,0.038c-0.01,0.113-0.014,0.228-0.024,0.338c-0.005,0.193-0.011,0.317-0.015,0.444l-0.005,0.086
			c0,0.012,0,0.082,0,0.082c0,0.113-0.006,0.227-0.006,0.338c0,0.118,0.006,0.231,0.006,0.341v0.073
			c0,0.012,0.005,0.097,0.005,0.097c0.004,0.127,0.01,0.25,0.015,0.375c0,0.069,0.024,0.404,0.024,0.404l0.005,0.07
			c0,0.008,0.009,0.096,0.009,0.096c0.003,0.111,0.014,0.221,0.025,0.332c0,0,0.003,0.021,0.007,0.049
			c0.003,0.027,0.008,0.065,0.01,0.086c0.001,0.018,0.003,0.036,0.003,0.036l0.03,0.267l0.01,0.066l0.008,0.083l0.035,0.244
			c0,0,0.002,0.016,0.005,0.036c0.002,0.018,0.011,0.087,0.021,0.149c0.009,0.057,0.017,0.114,0.017,0.114l0.017,0.096
			c0,0,0.004,0.016,0.009,0.032c0.004,0.018,0.017,0.088,0.028,0.157c0.012,0.07,0.024,0.144,0.028,0.165
			c0.004,0.02,0.008,0.037,0.008,0.037l0.021,0.106l0.043,0.212c0.021,0.106,0.045,0.211,0.068,0.317l0.016,0.074l0.03,0.125
			c1.049,4.379,3.688,8.138,7.267,10.638c1.249,0.87,2.614,1.59,4.065,2.125c0.414,0.154,0.848,0.268,1.276,0.39
			C11.926,35.976,8.904,34.39,6.56,32.126z M15.903,33.242c0,1.39-0.47,2.398-1.038,2.214c-0.344-0.112-0.683-0.235-1.017-0.369
			c-1.468-0.584-2.831-1.365-4.065-2.313c-2.312-1.781-4.157-4.145-5.312-6.87c-0.542-1.279,0.32-2.382,1.71-2.382h3.603
			c0,0,0.332,0,0.74,0c0.409,0,1.132,0.878,1.852,1.804c0.435,0.558,0.928,1.069,1.473,1.522c0.314,0.26,0.643,0.502,0.987,0.722
			c0.569,0.365,1.067,1.72,1.067,3.111V33.242z M20.143,27.632c-2.512,0-4.767-1.105-6.293-2.861
			c-1.284-1.468-2.058-3.385-2.058-5.491c0-2.096,0.774-4.014,2.058-5.485c1.528-1.752,3.782-2.861,6.293-2.861
			c2.511,0,4.766,1.112,6.299,2.867c1.277,1.468,2.052,3.384,2.052,5.48c0,2.103-0.774,4.02-2.052,5.487
			C24.908,26.521,22.653,27.632,20.143,27.632z M35.812,25.902c-0.043,0.103-0.104,0.195-0.148,0.297
			c0.066-0.159,0.141-0.313,0.202-0.475C35.846,25.783,35.84,25.841,35.812,25.902z M35.535,25.737
			c-0.029,0.074-0.051,0.149-0.081,0.224c-0.19,0.405-0.327,0.71-0.429,0.95c-0.854,1.795-2.006,3.462-3.42,4.894
			c-0.361,0.332-0.717,0.67-1.106,0.97c-1.233,0.947-2.594,1.728-4.06,2.313c-0.332,0.134-0.672,0.257-1.016,0.368
			c-0.568,0.185-1.039-0.823-1.039-2.213v-2.562c0-1.392,0.5-2.746,1.067-3.111c0.345-0.221,0.674-0.462,0.987-0.724
			c0.543-0.453,1.035-0.965,1.471-1.523c0.719-0.925,1.445-1.8,1.852-1.8h0.737h3.603c0.898,0,1.568,0.464,1.789,1.135
			C35.778,25.02,35.674,25.383,35.535,25.737z"/>
		<path d="M0.027,17.813v-0.009l-0.001-0.039C0.027,17.781,0.026,17.797,0.027,17.813z"/>
		<polygon points="0.044,18.205 0.03,17.771 0.028,17.804 		"/>
		<path d="M0.243,15.845l0.442,0.058l0.002-0.022c0.327-3.217,1.602-6.442,3.682-8.909C4.172,6.924,3.23,7.804,2.351,9.18
			c-0.886,1.375-1.602,3.237-1.745,4.776c-0.231,0.623-0.042-0.466-0.211-0.099c-0.086,0.315-0.134,0.599-0.196,0.908
			c-0.05,0.239-0.048,0.309-0.083,0.525l-0.052,0.466l-0.007,0.062c-0.001,0-0.01-0.001,0.009,0.002L0.243,15.845z"/>
		<path d="M0.058,15.807l-0.002,0.009v0.001c0.001,0,0.003,0.001,0.003,0.001v-0.009C0.058,15.81,0.059,15.797,0.058,15.807z"/>
		<path d="M0.017,17.36L0.012,17.41L0,17.115l0.027,0.649c-0.005-0.087-0.005-0.178-0.005-0.269L0.017,17.36z"/>
		<polygon points="17.612,37.33 17.585,37.328 17.577,37.327 		"/>
	</g>
</g>
<g>
</g>
<g>
</g>
<g>
</g>
<g>
</g>
<g>
</g>
<g>
</g>
<g>
</g>
<g>
</g>
<g>
</g>
<g>
</g>
<g>
</g>
<g>
</g>
<g>
</g>
<g>
</g>
<g>
</g>
</svg>
