<?xml version="1.0" encoding="iso-8859-1"?>
<!-- Generator: Adobe Illustrator 16.0.0, SVG Export Plug-In . SVG Version: 6.00 Build 0)  -->
<!DOCTYPE svg PUBLIC "-//W3C//DTD SVG 1.1//EN" "http://www.w3.org/Graphics/SVG/1.1/DTD/svg11.dtd">
<svg version="1.1" id="Capa_1" xmlns="http://www.w3.org/2000/svg" xmlns:xlink="http://www.w3.org/1999/xlink" x="0px" y="0px"
	 width="56.131px" height="56.131px" viewBox="0 0 56.131 56.131" style="enable-background:new 0 0 56.131 56.131;"
	 xml:space="preserve">
<g>
	<g>
		<path d="M42.21,18.831c-6.609-1.895-13.805-1.765-20.553-0.835c-2.393,0.408-2.088-0.296-3.227-2.453
			c-0.445-0.844-1.427-1.668-2.401-1.786c-1.828-0.221-5.641-0.438-7.08,1.021c-2.598,2.634,3.983,4.429-0.758,7.261
			c-4.759,2.843-7.527,6.642-8.122,12.182c-0.221,2.049-0.08,8.346,3.077,8.312c2.103-0.023,4.028-0.725,6.056-1.272
			c5.516-1.49,11.977-2.324,17.194-4.666c4.402-1.976-2.142-10.032-3.519-12.642c-1.448-2.743,10.316-1.224,10.928-1.109
			c2.04,0.383,3.966,1.132,5.879,1.924c3.107,1.287,1.84,1.173,0.536,1.503c-1.833,0.463-4.039,1.542-5.332-0.683
			c-0.746-1.285-2.053-2.495-3.628-2.593c-1.809-0.112-6.106-0.965-6.585,1.713c-0.384,2.152,3.005,6.315,3.961,8.126
			c2.226,4.212,8.837,0.79,12.132-0.1c1.482-0.4,16.096-2.833,15.335-5.672C54.901,22.582,46.136,19.957,42.21,18.831z
			 M12.467,15.061c0.09-0.009,0.177-0.016,0.262-0.021c0.145-0.008-0.053,0.308-0.441,0.7c-0.218,0.22-0.435,0.44-0.653,0.661
			c-0.389,0.393-0.973,0.306-0.962-0.246C10.684,15.587,11.143,15.199,12.467,15.061z M11.407,21.44
			c0.206-0.224,0.24-0.198,0.032,0.029C11.233,21.696,11.201,21.664,11.407,21.44z M3.347,28.529
			c1.168-2.24,3.193-3.523,5.242-4.909c0.458-0.309,0.506-0.252,0.112,0.136c-1.67,1.646-3.352,3.307-5.051,4.984
			C3.258,29.128,3.091,29.018,3.347,28.529z M53.493,28.081c-5.74,1.551-11.481,3.101-17.223,4.653
			c-1.899,0.513-3.663,1.402-5.054,0.257c-0.428-0.353-0.347-1.068,0.041-1.463c0.128-0.131,0.256-0.262,0.383-0.392
			c0.387-0.395,0.66-0.792,0.61-0.886c-0.051-0.094-0.423,0.13-0.831,0.501c-0.133,0.12-0.265,0.239-0.396,0.358
			c-0.408,0.37-0.964,0.284-1.261-0.182c-0.142-0.222-0.299-0.47-0.467-0.735c-0.293-0.469-0.197-1.161,0.203-1.54
			c0.183-0.174,0.363-0.346,0.545-0.517c0.399-0.38,0.702-0.731,0.675-0.783c-0.027-0.052-0.37,0.219-0.766,0.604
			c-0.184,0.179-0.365,0.358-0.549,0.537c-0.396,0.386-0.944,0.316-1.205-0.172c-0.172-0.325-0.334-0.652-0.476-0.973
			c-0.223-0.506-0.026-1.239,0.379-1.615c0.288-0.267,0.576-0.535,0.864-0.802c0.403-0.375,1.175-0.579,1.667-0.329
			c2.419,1.233,3.573,4.395,6.694,3.605c0.643-0.162,1.294-0.296,1.94-0.441c0.539-0.121,0.909-0.17,0.831-0.093
			c-0.078,0.078,0.122,0.212,0.455,0.218c0.203,0.003,0.405-0.018,0.599-0.066c0,0,0.228-0.057,0.505-0.127
			c0.279-0.071,0.812-0.456,1.188-0.859c0.447-0.48,0.893-0.958,1.336-1.434c0.376-0.404,0.417-0.857,0.091-1.01
			c-0.327-0.153-0.761-0.104-0.964,0.098c-0.202,0.201-0.737,0.11-1.225-0.15c-0.845-0.449-1.946-0.909-3.207-1.343
			c-0.523-0.18-0.885-0.371-0.805-0.443c0.081-0.072,0.137-0.132,0.122-0.135s-0.086,0.052-0.161,0.125
			c-0.073,0.072-0.496,0.017-0.943-0.113c-0.448-0.13-0.787-0.252-0.757-0.281c0.029-0.029-0.007-0.063-0.083-0.076
			c-0.077-0.013-0.159-0.004-0.183,0.018c-0.022,0.023-0.03,0.02-0.01-0.003c0.02-0.023,0.019-0.043-0.006-0.047
			c-0.025-0.004-0.062,0.009-0.082,0.029c-0.021,0.02-0.47-0.079-1.007-0.209c-6.854-1.654-15.019-2.01-14.023,2.604
			c0.625,2.896,3.271,6.194,4.659,8.823c1.601,3.031-2.98,3.126-5.036,3.681c-4.144,1.12-8.286,2.239-12.43,3.358
			c-1.165,0.313-2.329,0.629-3.493,0.943c-0.197,0.053-0.379,0.07-0.548,0.058c-0.305-0.023-0.199-0.466,0.203-0.844
			c0.165-0.155,0.33-0.311,0.495-0.465c0.402-0.379,0.661-0.953,0.593-1.289s-0.42-0.283-0.798,0.119
			c-0.31,0.33-0.619,0.66-0.929,0.989c-0.379,0.402-0.923,0.343-1.086-0.185c-0.06-0.192-0.111-0.396-0.156-0.61
			c-0.115-0.54,0.159-1.303,0.551-1.693c0.447-0.444,0.895-0.89,1.343-1.334c0.392-0.389,0.708-0.739,0.706-0.782
			c-0.002-0.042-0.323,0.234-0.717,0.623c-0.45,0.444-0.901,0.896-1.352,1.349c-0.39,0.391-0.741,0.375-0.767-0.039
			c-0.024-0.414,0.174-0.953,0.427-1.206c0.152-0.152,0.306-0.305,0.458-0.456c0.431-0.426,0.862-0.851,1.294-1.274
			c0.394-0.389,0.749-1.099,0.83-1.581c0.081-0.483-0.14-0.548-0.523-0.151c-0.605,0.624-1.211,1.247-1.815,1.872
			c-0.385,0.396-0.685,0.271-0.653-0.281c0.004-0.064,0.008-0.129,0.012-0.192c0.034-0.552,0.388-1.319,0.771-1.717
			c1.01-1.043,2.009-2.073,2.991-3.086c0.385-0.396,0.843-0.978,1.038-1.288c0.116-0.185,0.238-0.369,0.369-0.552
			c0.817-1.153,1.92-2.257,3.29-3.308c0.151-0.116,0.31-0.23,0.472-0.343c0.264-0.184,0.796-0.646,1.182-1.041
			c0.698-0.716,1.377-1.412,2.035-2.087c0.386-0.395,0.676-0.799,0.635-0.899c-0.023-0.059-0.051-0.118-0.082-0.176
			c0,0-0.138-0.26-0.308-0.581c-0.17-0.321-0.626-0.268-1.021,0.12c-0.29,0.286-0.581,0.572-0.873,0.859
			c-0.393,0.388-0.556,0.286-0.639-0.228c-0.045-0.273-0.145-0.566-0.313-0.883c-0.085-0.161-0.171-0.319-0.256-0.473
			c-0.142-0.26-0.121-0.601,0.046-0.762c0.101-0.097,0.201-0.194,0.302-0.292c0.291-0.294,0.583-0.587,0.875-0.88
			c0.39-0.391,0.766-0.857,0.9-0.995c0.134-0.138,0.728-0.169,1.236,0.046c1.637,0.693,2.258,2.439,3.617,4.06
			c0.248,0.296,0.715,0.229,1.043,0.167c0.638-0.112,1.275-0.225,1.913-0.337c0.733-0.101,1.465-0.184,2.195-0.256
			c0.55-0.054,0.978-0.074,0.956-0.053c-0.023,0.021,0.141,0.007,0.365-0.03c0.132-0.022,0.269-0.044,0.406-0.065
			c5.265-0.386,10.481-0.067,15.699,1.176c2.722,0.648,5.269,1.801,7.723,3.116C49.727,23.621,55.733,27.476,53.493,28.081z
			 M42.975,26.428c0.118-0.076,0.237-0.157,0.354-0.243c0.021-0.014,0.038-0.031,0.059-0.048c0.031-0.028-0.041,0.182-0.292,0.326
			C42.844,26.606,42.774,26.555,42.975,26.428z"/>
		<path d="M18.843,30.189c0.151-0.141,0.302-0.281,0.453-0.423c0.404-0.377,0.696-0.75,0.652-0.832
			c-0.044-0.083-0.395,0.167-0.785,0.559c-0.14,0.14-0.28,0.281-0.424,0.425c-0.391,0.391-0.717,0.673-0.729,0.63
			c-0.007-0.025-0.014-0.051-0.025-0.078c-0.269-0.508-0.537-1.016-0.806-1.523c-0.258-0.489-0.155-1.207,0.229-1.604
			c0.062-0.063,0.122-0.126,0.184-0.189c0.384-0.396,0.422-0.886,0.044-0.915c-0.378-0.028-0.841,0.267-1.048,0.473
			s-0.559-0.045-0.916-0.467c-0.229-0.272-0.504-0.494-0.852-0.62c-3.544-1.285-5.937,3.775-6.348,6.495
			c-0.236,1.56,0.092,2.776,1.857,2.742c1.104-0.022,2.193-0.389,3.258-0.657c0.176-0.044,0.37-0.089,0.574-0.136
			c0.317-0.073,0.467-0.027,0.336,0.104c-0.132,0.132-0.227,0.24-0.212,0.244c0.015,0.003,0.151-0.111,0.305-0.254
			c0.153-0.145,0.715-0.358,1.241-0.526c1.079-0.344,2.068-0.859,2.306-1.772C18.273,31.327,18.44,30.567,18.843,30.189z
			 M16.11,31.958c-0.363,0.809-1.927,0.884-2.828,1.112c-0.603,0.151-1.207,0.305-1.812,0.458c-1.469,0.371-1.053-1.674-0.915-2.494
			c0.235-1.405,2.445-5.819,3.812-3.233c0.406,0.768,0.812,1.535,1.218,2.302C15.844,30.591,16.335,31.455,16.11,31.958z"/>
		<path d="M20.052,31.198c-0.72,0.669-1.44,1.337-2.159,2.006c-0.404,0.376-0.299,0.572,0.236,0.436l1.861-0.47
			c0.025-0.007,0.05-0.016,0.073-0.025c0.04-0.016,0.29-0.229,0.561-0.478c0.271-0.248,0.609-0.744,0.57-1.115
			c-0.021-0.209-0.087-0.425-0.2-0.64c0,0-0.047-0.088-0.104-0.198C20.832,30.605,20.457,30.822,20.052,31.198z"/>
		<path d="M45.972,26.163c-0.303,0.325-0.46,0.564-0.35,0.537l0.201-0.051c0.334-0.085,0.572-0.208,0.713-0.354
			C46.846,25.975,46.274,25.838,45.972,26.163z"/>
	</g>
</g>
<g>
</g>
<g>
</g>
<g>
</g>
<g>
</g>
<g>
</g>
<g>
</g>
<g>
</g>
<g>
</g>
<g>
</g>
<g>
</g>
<g>
</g>
<g>
</g>
<g>
</g>
<g>
</g>
<g>
</g>
</svg>
