<?xml version="1.0" encoding="iso-8859-1"?>
<!-- Generator: Adobe Illustrator 16.0.0, SVG Export Plug-In . SVG Version: 6.00 Build 0)  -->
<!DOCTYPE svg PUBLIC "-//W3C//DTD SVG 1.1//EN" "http://www.w3.org/Graphics/SVG/1.1/DTD/svg11.dtd">
<svg version="1.1" id="Capa_1" xmlns="http://www.w3.org/2000/svg" xmlns:xlink="http://www.w3.org/1999/xlink" x="0px" y="0px"
	 width="44.754px" height="44.753px" viewBox="0 0 44.754 44.753" style="enable-background:new 0 0 44.754 44.753;"
	 xml:space="preserve">
<g>
	<g>
		<path d="M28.481,10.475c-0.082-0.024-0.193-0.024-0.319-0.008c-0.177,0.023-0.531,0.08-0.786,0.145
			c-0.186,0.047-0.344,0.109-0.435,0.184c-3.398,2.797-6.797,5.594-10.196,8.391c-1.335,1.099-2.67,2.198-4.005,3.297
			c-0.803,0.66,0.124,3.804,0.225,4.753c0.039,0.369,0.892,0.228,1.079,0.165c3.613-1.193,5.668-3.388,8.561-5.909
			c3.485-3.04,6.974-6.08,10.461-9.121c0.167-0.145,0.345-0.456,0.013-0.554C31.546,11.371,30.013,10.923,28.481,10.475z
			 M31.072,12.549c-0.04,0.032-0.084,0.069-0.132,0.11c-2.001,1.745-4.003,3.49-6.004,5.235c-2.396,2.089-4.791,4.177-7.185,6.267
			c-0.656,0.571-1.312,1.143-1.969,1.716c-0.01,0.009-0.018,0.016-0.025,0.022c-0.014,0.014-0.055,0.033-0.091,0.044
			c-0.036,0.013,0.462-0.522,1.112-1.193c0.651-0.67,1.134-1.638,1.079-2.16c-0.055-0.523-0.735-0.315-1.518,0.465
			c-0.079,0.078-0.157,0.157-0.236,0.235c-0.783,0.778-1.431,1.295-1.445,1.15c-0.009-0.086-0.018-0.172-0.027-0.259
			c-0.028-0.271-0.057-0.541-0.085-0.812c-0.048-0.448-0.077-0.818-0.065-0.829c0.006-0.005,0.013-0.012,0.021-0.019
			c1.435-1.182,2.871-2.362,4.306-3.544c2.476-2.037,4.95-4.074,7.427-6.111c0.852-0.702,2.16-1.09,2.921-0.868
			c0.46,0.134,0.919,0.269,1.378,0.402c0.125,0.037,0.237,0.056,0.337,0.063C31.059,12.481,31.147,12.49,31.072,12.549z"/>
		<path d="M34.387,14.835c-0.127-0.398-0.557-0.515-0.98-0.459c-0.06,0.004-0.117,0.012-0.175,0.024
			c-0.021,0.006-0.039,0.011-0.061,0.017c-0.086,0.024-0.171,0.056-0.25,0.103c-0.07,0.036-0.136,0.077-0.193,0.123
			c-0.101,0.079-0.836,0.752-1.669,1.477c-2.247,1.959-4.494,3.918-6.741,5.877c-2.443,2.13-5.395,5.887-8.501,6.918
			c-0.662,0.22-1.162,0.948-0.366,1.366c8.815,4.62,17.631,9.24,26.446,13.86c0.521,0.272,1.746-0.214,1.518-0.933
			C40.405,33.752,37.396,24.293,34.387,14.835z M36.179,39.221c-0.243-0.128-0.486-0.256-0.73-0.384
			c-0.979-0.514-1.201-1.457-0.497-2.11s0.814-1.423,0.248-1.72c-0.566-0.298-1.597-0.009-2.3,0.645s-1.762,0.929-2.361,0.613
			c-0.602-0.315-0.52-1.102,0.182-1.756s1.156-1.243,1.019-1.316c-0.14-0.072-0.796,0.411-1.466,1.082
			c-0.67,0.67-2.007,0.798-2.985,0.285c-0.075-0.039-0.15-0.079-0.227-0.118c-0.979-0.513-1.237-1.477-0.58-2.153
			c0.656-0.679,0.879-1.391,0.495-1.592c-0.385-0.2-1.239,0.179-1.911,0.849c-0.673,0.669-2.013,0.797-2.99,0.284
			c-0.305-0.16-0.609-0.319-0.914-0.479c-0.979-0.513-1.223-1.47-0.547-2.137c0.678-0.667,0.973-1.341,0.66-1.504
			c-0.312-0.164-0.06-0.75,0.547-1.324c0.369-0.348,0.734-0.698,1.098-1.042l8.447-7.363c0.833-0.725,1.779-0.461,2.114,0.592
			c1.896,5.962,3.794,11.926,5.689,17.889c0.335,1.053,0.198,2.306-0.306,2.799C38.359,39.75,37.157,39.734,36.179,39.221z
			 M39.443,40.931c-0.763-0.399-0.984-1.098-0.496-1.56c0.487-0.463,1.104-0.139,1.379,0.724S40.205,41.332,39.443,40.931z"/>
		<path d="M34.438,8.026c0.947-1.915,1.896-3.83,2.845-5.745c0.1-0.2-0.227-0.234-0.333-0.249C33.257,1.528,29.519,0.777,25.8,0.535
			c-0.197-0.014-1.805,0.25-1.587,0.671c0.977,1.891,1.952,3.78,2.929,5.671c0.042,0.082,0.136,0.124,0.245,0.149
			c1.77,0.517,3.538,1.033,5.308,1.551C33.147,8.708,34.206,8.494,34.438,8.026z M26.966,2.281
			c-0.024-0.049,0.074-0.209,0.223-0.356c0.146-0.148,0.315-0.262,0.376-0.253c0.06,0.008-0.039,0.167-0.223,0.356
			C27.159,2.217,26.991,2.33,26.966,2.281z M28.882,3.027c-0.553,0.566-1.185,0.669-1.413,0.229
			c-0.227-0.44-0.247-0.967-0.044-1.176c0.204-0.208,0.836-0.315,1.413-0.234C29.416,1.927,29.436,2.46,28.882,3.027z M31.068,6.865
			c-0.041-0.012-0.082-0.024-0.124-0.036c-1.061-0.31-1.299-1.208-0.519-1.989c0.007-0.007,0.014-0.014,0.021-0.02
			c0.78-0.781,1.282-1.676,1.109-2.008c-0.171-0.332,0.328-0.499,1.115-0.381c0.477,0.072,0.951,0.142,1.426,0.206
			c0.254,0.034,0.507,0.068,0.76,0.104c0.419,0.057,0.365,0.135,0.172,0.525c-0.091,0.183-0.19,0.422-0.336,0.716
			c-0.284,0.574-0.568,1.148-0.854,1.722C33.369,6.655,32.128,7.174,31.068,6.865z"/>
		<path d="M42.351,5.406c-0.456-1.006-1.12-1.819-1.265-1.901c-0.079-0.045-0.175-0.077-0.281-0.096
			c-0.216-0.045-0.463-0.025-0.696,0.04c-0.072,0.021-0.1,0.029-0.124,0.039c-0.041,0.014-0.08,0.028-0.119,0.045
			c-0.074,0.036-0.109,0.053-0.144,0.073c-0.107,0.061-0.201,0.132-0.272,0.21c-0.13,0.142-0.546,1.109-1.036,2.1
			c-0.791,1.598-1.582,3.196-2.373,4.795c-0.476,0.961,1.093,3.935,1.38,4.837c1.8,5.658,3.602,11.317,5.4,16.976
			c0.286,0.899,1.999,0.358,1.932-0.518c-0.358-4.714-0.72-9.429-1.079-14.144C43.408,14.4,43.972,8.983,42.351,5.406z
			 M41.221,8.567c0.039,0.21,0.021,0.237-0.035,0.062c-0.057-0.176-0.089-0.346-0.07-0.381C41.131,8.213,41.183,8.356,41.221,8.567z
			 M39.588,7.068c0.405-0.717,0.839-1.102,0.942-0.856c0.104,0.246-0.234,0.833-0.743,1.305C39.279,7.99,39.184,7.785,39.588,7.068z
			 M39.085,14.192c-0.047-0.146-0.093-0.293-0.14-0.439c-0.335-1.053,0.05-2.517,0.856-3.27c0.016-0.014,0.029-0.027,0.045-0.041
			c0.809-0.753,1.607-0.477,1.688,0.624c0.027,0.372,0.048,0.746,0.065,1.12c0.047,1.104-0.392,2.428-0.932,2.956
			C40.129,15.67,39.419,15.245,39.085,14.192z M40.695,15.289c-0.529,0.522-0.535,0.518-0.005-0.005
			C41.219,14.76,41.226,14.766,40.695,15.289z M40.714,19.314c-0.278-0.877-0.558-1.753-0.837-2.63
			c-0.008-0.024-0.016-0.048-0.021-0.071c-0.014-0.04,0.385-0.46,0.888-0.939s0.911-0.067,0.927,0.92
			c0.011,0.644,0.03,1.246,0.071,1.787c0.029,0.384,0.059,0.768,0.088,1.151c0.049,0.636-0.046,1.271-0.21,1.42
			C41.455,21.1,41.049,20.367,40.714,19.314z M41.76,22.603c-0.22-0.69-0.271-1.379-0.116-1.537c0.154-0.158,0.333,0.401,0.396,1.25
			C42.106,23.167,41.98,23.293,41.76,22.603z"/>
		<path d="M34.675,42.354c-7.465-3.913-14.929-7.826-22.396-11.739c-0.023-0.012-0.047-0.021-0.072-0.028
			c-0.042-0.014-0.242-0.088-0.453-0.074c-0.11,0.008-0.235,0.032-0.375,0.078c-2.561,0.847-5.122,1.693-7.684,2.542
			c-0.246,0.081-1.344,0.688-0.631,0.98c9.648,3.945,20.279,6.225,30.257,9.26C33.79,43.512,35.518,42.795,34.675,42.354z
			 M13.148,34.639c-0.657,0.654-1.914,0.95-2.802,0.646c-0.887-0.305-1.032-1.128-0.329-1.827c0.703-0.7,1.237-1.276,1.191-1.291
			s-0.6,0.474-1.237,1.086c-0.638,0.61-1.231,1.163-1.312,1.245c-0.081,0.082-0.518,0.016-0.972-0.157s-0.53-0.601-0.172-0.953
			c0.358-0.353,1.311-0.859,2.13-1.13c0.817-0.271,2.2-0.113,3.088,0.353S13.806,33.984,13.148,34.639z M21.218,37.877
			c-0.311,0.29-1.426,0.285-2.488-0.019c-0.977-0.277-1.951-0.562-2.922-0.854c-1.059-0.316-1.453-1.06-0.884-1.645
			c0.57-0.586,1.827-0.646,2.806-0.133c0.029,0.017,0.059,0.031,0.089,0.047c0.979,0.514,1.579,1.121,1.342,1.359
			c-0.238,0.238-0.229,0.245,0.02,0.013c0.249-0.231,0.933-0.169,1.526,0.143C21.301,37.101,21.53,37.587,21.218,37.877z
			 M24.382,39.429c-0.729-0.199-1.162-0.511-0.962-0.695c0.2-0.184,0.853-0.075,1.456,0.241c0.604,0.317,1.035,0.628,0.962,0.694
			C25.766,39.737,25.114,39.629,24.382,39.429z M26.539,40.02c-0.384-0.104-0.645-0.242-0.582-0.306
			c0.062-0.062,0.373,0.022,0.694,0.19C26.972,40.074,26.922,40.125,26.539,40.02z"/>
		<path d="M10.796,27.811c-0.061-0.575-0.12-1.15-0.181-1.728c-0.1-0.955-0.127-1.827-0.161-1.943
			c-0.034-0.116-0.187-0.269-0.304-0.329c-0.118-0.06-1.028-0.473-2.015-0.971c-2.072-1.046-4.144-2.093-6.217-3.139
			c-0.556-0.28-1.595-0.104-1.725,0.625c-0.313,1.761-0.152,3.623-0.152,5.403c0,1.781-0.203,3.69,0.295,5.419
			c0.128,0.443,0.773,0.496,1.136,0.376c2.843-0.938,5.686-1.88,8.527-2.819C10.418,28.567,10.849,28.305,10.796,27.811z
			 M2.181,21.677c0.102,0.051,0.098,0.18-0.01,0.288c-0.107,0.108-0.19,0.066-0.186-0.093C1.99,21.712,2.08,21.625,2.181,21.677z
			 M7.221,28.242c-0.873,0.289-1.437,0.375-1.259,0.192c0.177-0.183,0.129-0.268-0.107-0.188c-0.237,0.077-0.555-0.173-0.637-0.578
			c-0.05-0.247-0.077-0.496-0.077-0.744c0,0,0-0.339,0-0.758c0-0.418-0.638-0.128-1.424,0.646c-0.111,0.11-0.223,0.222-0.334,0.33
			c-0.786,0.776-1.449,0.646-1.424-0.291c0.015-0.572,0.036-1.142,0.036-1.695c0-0.341-0.005-0.685-0.011-1.029
			c-0.01-0.568,0.221-1.252,0.513-1.526c0.293-0.274,1.33-0.092,2.316,0.405c0.635,0.321,1.27,0.642,1.904,0.962
			c0.986,0.497,1.852,1.539,1.934,2.326C8.734,27.082,8.094,27.955,7.221,28.242z"/>
		<path d="M20.797,1.892c-3.748,1.627-6.913,4.907-10.067,7.431c-2.943,2.354-6.59,4.56-8.976,7.525
			c-0.311,0.387-0.146,0.754,0.257,0.958c2.36,1.191,4.721,2.383,7.081,3.574c0.266,0.135,0.594,0.097,0.877-0.031
			c0.115-0.039,0.226-0.097,0.322-0.177c4.911-4.043,9.822-8.086,14.733-12.129c0.295-0.242,0.419-0.533,0.237-0.884
			c-1.05-2.037-2.101-4.075-3.15-6.112C21.886,1.61,21.137,1.745,20.797,1.892z M23.036,8.708c-0.06,0.052-0.13,0.111-0.212,0.179
			c-0.969,0.798-1.938,1.596-2.907,2.393c-2.919,2.402-5.839,4.806-8.758,7.209c-0.853,0.702-1.985,1.049-2.53,0.773
			c-0.544-0.275-0.453-1.044,0.206-1.718c0.658-0.674,0.795-1.42,0.305-1.667c-0.49-0.247-1.44,0.087-2.123,0.749
			c-0.682,0.661-0.707,0.644-0.035-0.022c0.672-0.665,1.214-1.203,1.201-1.21c-0.013-0.007-0.573,0.525-1.256,1.187
			c-0.682,0.661-1.724,0.951-2.324,0.648c-0.363-0.184-0.726-0.367-1.089-0.55c-0.464-0.234,0.298,0.118,0.843-0.318
			c0.184-0.147,0.367-0.293,0.55-0.441c0.875-0.699,1.75-1.399,2.625-2.099c3.589-2.871,7.307-6.761,11.396-9.309
			c0.938-0.584,2.15-0.189,2.656,0.793c0.247,0.479,0.494,0.959,0.742,1.438C22.833,7.728,23.152,8.608,23.036,8.708z"/>
	</g>
</g>
<g>
</g>
<g>
</g>
<g>
</g>
<g>
</g>
<g>
</g>
<g>
</g>
<g>
</g>
<g>
</g>
<g>
</g>
<g>
</g>
<g>
</g>
<g>
</g>
<g>
</g>
<g>
</g>
<g>
</g>
</svg>
