<?xml version="1.0" encoding="iso-8859-1"?>
<!-- Generator: Adobe Illustrator 16.0.0, SVG Export Plug-In . SVG Version: 6.00 Build 0)  -->
<!DOCTYPE svg PUBLIC "-//W3C//DTD SVG 1.1//EN" "http://www.w3.org/Graphics/SVG/1.1/DTD/svg11.dtd">
<svg version="1.1" id="Capa_1" xmlns="http://www.w3.org/2000/svg" xmlns:xlink="http://www.w3.org/1999/xlink" x="0px" y="0px"
	 width="40.665px" height="40.666px" viewBox="0 0 40.665 40.666" style="enable-background:new 0 0 40.665 40.666;"
	 xml:space="preserve">
<g>
	<g>
		<path d="M38.764,10.446h-0.398c-0.023-0.021-0.053-0.038-0.077-0.059c-0.052-0.042-0.104-0.083-0.159-0.122
			c-0.117-0.082-0.234-0.158-0.355-0.227c-0.012-0.006-0.022-0.014-0.034-0.02c-0.037-0.021-0.073-0.045-0.11-0.065
			c-0.082-0.04-0.166-0.075-0.25-0.111c-0.021-0.009-0.041-0.019-0.062-0.028c-0.021-0.009-0.04-0.019-0.061-0.027
			c-0.004-0.002-0.008-0.004-0.012-0.005c-0.001-0.001-0.002-0.001-0.003-0.001c-0.171-0.069-0.347-0.126-0.524-0.173
			c-0.011-0.002-0.021-0.004-0.031-0.006c-0.018-0.004-0.034-0.007-0.051-0.011c-0.014-0.003-0.025-0.01-0.039-0.013
			c-0.041-0.011-0.082-0.013-0.125-0.022c-0.062-0.012-0.127-0.025-0.191-0.034c-0.038-0.005-0.075-0.011-0.113-0.014
			c-0.006-0.001-0.012-0.003-0.018-0.003c-0.021-0.002-0.04,0.003-0.061,0.002c-0.021-0.001-0.043-0.001-0.063-0.001
			c-0.056-0.003-0.111-0.012-0.168-0.011c-0.017,0.002-0.03,0.006-0.046,0.007c-0.059,0.002-0.114,0.012-0.172,0.018
			c-0.043,0.005-0.088,0.009-0.131,0.016c-0.097,0.014-0.189,0.033-0.283,0.056c-0.022,0.006-0.043,0.011-0.066,0.017
			c-0.048,0.013-0.098,0.021-0.145,0.036c-0.059,0.018-0.104,0.042-0.16,0.061c-0.112,0.039-0.221,0.077-0.318,0.121
			c-0.352,0.15-0.636,0.322-0.863,0.501V3.962c0-1.052-0.853-1.904-1.904-1.904h-0.18c-0.15-0.227-0.33-0.435-0.559-0.584
			c-0.292-0.19-0.63-0.317-0.979-0.339c-0.347-0.017-0.65-0.007-0.978-0.011c-2.569-0.008-5.125-0.004-7.632,0.027
			c-0.629,0.012-1.245,0.008-1.876,0.038c-0.312,0.033-0.602,0.147-0.857,0.311c-0.013,0.007-0.025,0.01-0.037,0.018
			c-0.002,0.002-0.004,0.003-0.006,0.005c-0.012,0.008-0.023,0.018-0.036,0.027c-0.367,0.235-0.7,0.665-0.807,1.176
			c-0.012,0.136-0.013,0.269-0.019,0.404c0,0.013-0.002,0.026-0.002,0.04c-0.037,0.905,0.024,1.766-0.108,2.3
			c-0.088,0.045-0.006-1.706-0.122-1.641c-0.187,1.035-0.159,3.625,0.062,4.354c-0.025,0.796-0.064,1.601-0.104,2.408
			c-0.277-0.158-0.594-0.255-0.937-0.255h-0.193c-0.006,0-0.011,0-0.017,0c-0.246-0.343-0.587-0.615-0.98-0.772
			c-0.481-0.209-1.001-0.149-1.462-0.156l-0.227,0.006c-0.109-0.114-0.225-0.229-0.358-0.343c-0.47-0.401-1.077-0.752-1.851-0.999
			c-0.268-0.225-0.551-0.433-0.862-0.595C9.765,7.008,8.786,6.778,7.813,6.686C6.846,6.607,5.856,6.567,4.871,6.777
			c-0.976,0.192-1.949,0.58-2.752,1.247c-0.81,0.653-1.38,1.607-1.665,2.592c-0.271,1.029-0.295,1.997-0.337,2.969L0.05,16.46
			L0,19.332c0.028,0.848,0.552,1.366,0.988,1.718c0.466,0.354,0.963,0.598,1.509,0.759c0.136,0.043,0.275,0.071,0.425,0.102
			c0.178,0.028,0.335,0.044,0.436,0.048c0.248,0.011,0.354,0.033,0.558,0.084c0.364,0.101,0.733,0.275,1.024,0.49
			c0.295,0.213,0.471,0.486,0.45,0.58l-0.012,1.346l-0.025,2.838l-0.007,1.416l-0.002,0.706l-0.003,0.327
			c-0.001,0.07-0.011,0.139-0.023,0.207c-0.052,0.269-0.205,0.511-0.401,0.653c-0.097,0.072-0.207,0.122-0.31,0.146
			c-0.017,0-0.015,0.005-0.046,0.012c-0.041,0.003-0.155,0.008-0.137,0.009c-0.225,0.006-0.436,0.051-0.632,0.122
			c-0.758,0.322-1.116,0.858-1.403,1.356c-0.274,0.527-0.444,1.019-0.501,1.689c-0.038,0.587,0.12,1.217,0.358,1.712
			c0.244,0.514,0.569,0.996,1.094,1.385c0.265,0.187,0.572,0.355,1.017,0.412l0.237,0.015l0.173-0.004l0.346-0.01l0.889-0.025
			c0.15,0.038,0.305,0.063,0.467,0.063h1.999L7.57,37.559l-2.208,0.166l-0.55,0.038l-0.139,0.004l-0.069,0.005l-0.161-0.004
			l-0.138-0.003c-0.101-0.013-0.211-0.033-0.316-0.057c-0.73-0.193-1.129-0.573-1.49-0.955c-0.648-0.78-1.072-1.67-1.067-2.801
			c0.026-0.61,0.146-1.035,0.325-1.512c0.183-0.458,0.426-0.899,0.827-1.331c0.198-0.213,0.45-0.426,0.783-0.598
			c0.163-0.087,0.353-0.158,0.559-0.208c0.096-0.029,0.212-0.037,0.319-0.05l0.164-0.014c-0.095,0.002,0.012-0.002,0.008-0.003
			l0.12-0.01c-0.013-0.004-0.026-0.005-0.038-0.003c-0.013-0.002,0.019-0.004,0.026-0.013c0.027-0.01,0.056-0.03,0.085-0.058
			c-0.05-0.049-0.114-0.082-0.152-0.132c-0.008-0.036-0.059-0.048,0.011-0.043c0.011-0.004,0.063,0,0.042-0.001l-0.133-0.011
			l-0.017-0.001l-0.009-0.001H4.348H4.346c-0.02,0.014,0.169-0.125,0.086-0.066l-0.097-0.001l-0.198,0.007
			C4,29.913,3.868,29.93,3.741,29.962c-1.089,0.261-1.713,0.958-2.164,1.624c-0.226,0.348-0.407,0.717-0.548,1.129
			c-0.07,0.207-0.13,0.425-0.176,0.659c-0.024,0.111-0.046,0.294-0.062,0.439l-0.018,0.257C0.77,34.52,0.8,34.687,0.849,34.976
			c0.05,0.255,0.117,0.499,0.202,0.732c0.17,0.468,0.398,0.907,0.723,1.338c0.329,0.424,0.745,0.86,1.417,1.194l0.269,0.113
			c0.077,0.032,0.19,0.071,0.338,0.106c0.135,0.033,0.273,0.059,0.41,0.076l0.142,0.007l0.062,0.002l0.191,0.006l0.031-0.002
			l0.125-0.007l0.248-0.017c1.323-0.089,2.624-0.238,3.749-0.464c1.001,0.069-0.66,0.275-0.058,0.366l0.725-0.033l0.333-0.025
			c0.154-0.016,0.3-0.043,0.437-0.087c0.285-0.075,0.529-0.196,0.743-0.327c0.241-0.156,0.436-0.323,0.609-0.495
			c0.974-0.085,1.74-0.894,1.74-1.889v-1.299c0-0.747-0.405-1.387-0.99-1.699c-0.113-0.213-0.236-0.42-0.381-0.616
			c-0.205-0.271-0.441-0.529-0.741-0.76c-0.153-0.113-0.322-0.219-0.511-0.309c-0.097-0.043-0.204-0.08-0.305-0.115
			c-0.116-0.037-0.277-0.067-0.412-0.084c-0.105-0.009-0.135,0.001-0.196,0.003c-0.008-0.075-0.022-0.149-0.022-0.229v-6.58
			c0-1.052,0.853-1.905,1.905-1.905c0.533,0,1.03,0,1.47,0c1.052,0,1.905-0.442,1.905-0.99c0-0.398,0.35-0.739,0.852-0.896
			c0.214,0.42,0.271,0.907,0.256,1.364l0.03,6.172l0.006,6.211v3.113c0.015,1.019,0.993,1.864,2.026,1.746l0.078-0.005
			c0.341,0.513,0.923,0.851,1.585,0.851h13.841c1.052,0,1.904-0.853,1.904-1.905V21.735c0-1.052,0.854-1.904,1.904-1.904h1.27
			c1.053,0,1.905-0.853,1.905-1.905v-5.575C40.668,11.299,39.815,10.446,38.764,10.446z M2.785,11.489
			c-0.274,1.015-0.255,2.736-0.256,3.788c-0.002,1.389,0.006,3.259,0.013,4.675c-0.3-0.159-0.57-0.357-0.689-0.54
			c-0.054-0.07-0.06-0.121-0.058-0.132c0.011-0.026,0.023,0.115,0.027-0.165l0.052-1.102l0.108-2.203
			c0.086-1.457,0.106-2.984,0.331-4.188c0.028-0.146,0.061-0.283,0.096-0.395l0.025-0.079c-0.001,0.006-0.003,0.012-0.012,0.041
			l0.006-0.016l0.012-0.032l0.023-0.064l0.093-0.257c0.082-0.159,0.206-0.401,0.341-0.589c0.279-0.378,0.624-0.674,1.05-0.903
			c0.035-0.018,0.077-0.029,0.112-0.046C3.509,9.818,3.046,10.529,2.785,11.489z M4.13,36.389c-0.618-0.35-0.966-1.078-1.077-1.681
			c-0.114-0.616,0.106-1.14,0.373-1.514c0.086-0.005-0.015,0.287-0.059,0.689l-0.01,0.144l-0.002,0.11c0,0.005-0.001,0.067,0,0.026
			l0.004,0.039c0.007,0.103,0.023,0.222,0.056,0.348c0.061,0.25,0.171,0.528,0.322,0.767c0.148,0.241,0.335,0.444,0.505,0.557
			c0.177,0.098,0.207,0.102,0.362,0.099c0.041,0.193,0.117,0.371,0.211,0.538C4.549,36.511,4.301,36.499,4.13,36.389z M4.563,34.278
			v1.3c0,0.018,0.005,0.033,0.005,0.051c-0.094-0.026-0.13-0.052-0.034-0.078c-0.119-0.118-0.375-0.501-0.477-0.915
			C3.945,34.197,3.991,34,4.183,33.51c0.09-0.207,0.219-0.408,0.319-0.506c0.024-0.028,0.044-0.045,0.058-0.056l-0.034,0.003
			l-0.014,0.001c-0.011,0.002-0.024,0.006-0.038,0.006l-0.029-0.001l-0.007-0.002l0.074-0.003c0.004-0.001,0.01-0.004,0.013-0.003
			c0.032-0.008,0.047-0.015,0.052-0.016c0.004,0-0.003,0.004-0.018,0.015H4.56l0.146-0.011l0.306-0.046
			c0.054-0.012,0.1-0.024,0.148-0.038C4.797,33.206,4.563,33.71,4.563,34.278z M6.314,32.375c-0.064,0-0.125,0.013-0.187,0.021
			c0.066-0.048,0.138-0.092,0.199-0.144c0.481-0.405,0.22-0.919,0.385-1.464c0.185-0.536,0.145-1.179,0.122-1.416l-0.07-0.954
			c-0.104-1.223,0.335-2.246,0.148-2.861l0.077-2.178l0.005-0.136l0.003-0.068l0.001-0.034l-0.004-0.113
			c-0.01-0.097,0.005-0.145-0.052-0.378c-0.065-0.256-0.147-0.423-0.24-0.575c0.289,0.087,0.551,0.234,0.765,0.438
			c-0.074,0.187-0.123,0.39-0.122,0.607l0.008,0.799l0.018,1.591l0.043,3.171l0.012,0.79c-0.001,0.233,0.007,0.584,0.103,0.894
			c0.083,0.288,0.228,0.557,0.414,0.791C7.691,31.866,7.059,32.375,6.314,32.375z M16.622,36.733l0.012-3.259l0.012-6.504
			l-0.001-3.242l-0.002-1.618c-0.029-0.55,0.072-1.021-0.112-1.762c-0.032-0.113-0.081-0.226-0.128-0.338
			c0.025-0.001,0.047-0.005,0.072-0.005c0.809,0,1.464,0.852,1.464,1.904v15.735c0,0.208,0.042,0.404,0.103,0.591
			C17.196,38.25,16.559,37.587,16.622,36.733z M27.77,37.357c0,1.053-0.213,1.905-0.477,1.905c-0.263,0-0.476-0.853-0.476-1.905
			V30.26c0-1.052,0.213-1.905,0.476-1.905c0.264,0,0.477,0.854,0.477,1.905V37.357z M29.061,16.552l-2.733,0.122
			c-1.83,0.072-3.673,0.124-5.527,0.161l-1.393,0.024c-0.212-0.005-0.428,0.007-0.639,0.011c-0.16-0.271-0.258-0.582-0.266-0.917
			c0.05,0.031,0.097,0.067,0.149,0.095c0.464,0.278,1.127,0.289,1.483,0.276l0.647-0.009c0.256,0.128,0.541,0.207,0.847,0.207h8.002
			L29.061,16.552z M21.627,2.057c-1.052,0-1.905,0.854-1.905,1.904v10.656c0,0.397,0.123,0.768,0.332,1.073l-0.175-0.001
			c-0.521,0.016-1.029-0.183-1.383-0.55v-2.903c0-0.467-0.175-0.89-0.454-1.221c0.03-1.403,0.054-2.803,0.054-4.186
			c0.001-1.113-0.013-2.216-0.047-3.304c-0.047-0.549,0.02-1.016,0.323-1.438c0.066-0.094,0.144-0.18,0.228-0.26
			c0.03-0.029,0.066-0.047,0.099-0.073c-0.273,0.239-0.481,0.542-0.56,0.875c-0.048,0.191-0.061,0.385-0.046,0.578l0.049,0.653
			c0.062,0.869,0.106,1.731,0.112,2.578c0.083-0.044,0.147-0.607,0.157-1.325c0.005-0.359-0.003-0.757-0.029-1.148
			c-0.02-0.384-0.088-0.806-0.112-1.036c0.063-0.22,0.053,0.161,0.105,0.032c0.041-0.41,0.265-0.86,0.661-1.153
			c0.377-0.314,0.961-0.337,1.455-0.424c-0.115,0.084,0.652,0.156,1.427,0.034c0.074-0.038-0.248-0.055-0.254-0.088l2.045-0.037
			l3.637-0.026l1.836-0.001c0.309,0.006,0.613-0.012,0.925,0.014c0.309,0.037,0.61,0.148,0.868,0.324
			c0.179,0.122,0.322,0.282,0.449,0.455h-9.796V2.057z M36.848,10.446c-1.051,0-1.903,0.853-1.903,1.905v3.554
			c0,1.052-0.853,1.905-1.905,1.905h-1.584c0.102-0.02,0.212-0.044,0.34-0.081c0.42-0.136,0.784-0.37,1.057-0.659
			c0.488-0.502,0.683-1.148,0.67-1.71c0.097-0.228,0.15-0.48,0.15-0.744v-3.988c0.312-0.231,0.727-0.441,1.201-0.584
			c0.487-0.146,1.035-0.226,1.533-0.083c0.404,0.096,0.807,0.271,1.15,0.483h-0.709V10.446z"/>
	</g>
</g>
<g>
</g>
<g>
</g>
<g>
</g>
<g>
</g>
<g>
</g>
<g>
</g>
<g>
</g>
<g>
</g>
<g>
</g>
<g>
</g>
<g>
</g>
<g>
</g>
<g>
</g>
<g>
</g>
<g>
</g>
</svg>
