<?xml version="1.0" encoding="iso-8859-1"?>
<!-- Generator: Adobe Illustrator 16.0.0, SVG Export Plug-In . SVG Version: 6.00 Build 0)  -->
<!DOCTYPE svg PUBLIC "-//W3C//DTD SVG 1.1//EN" "http://www.w3.org/Graphics/SVG/1.1/DTD/svg11.dtd">
<svg version="1.1" id="Capa_1" xmlns="http://www.w3.org/2000/svg" xmlns:xlink="http://www.w3.org/1999/xlink" x="0px" y="0px"
	 width="39.55px" height="39.549px" viewBox="0 0 39.55 39.549" style="enable-background:new 0 0 39.55 39.549;"
	 xml:space="preserve">
<g>
	<g>
		<path d="M9.129,8.766c-0.07,0-0.136,0.014-0.204,0.021c-0.567-0.194-1.19-0.12-1.688,0.191c-0.503,0.31-0.859,0.839-0.956,1.417
			c-0.083,0.575,0.015,1.145-0.06,1.66c-0.03,0.114-0.081,0.22-0.139,0.321c-0.012,0.021-0.022,0.04-0.037,0.062
			c-0.031,0.048-0.07,0.09-0.107,0.135c-0.077,0.094-0.16,0.184-0.251,0.266c-0.024,0.021-0.048,0.044-0.074,0.064
			c-0.023,0.019-0.046,0.036-0.069,0.053c-0.116,0.089-0.234,0.177-0.359,0.251c-0.351,0.224-1.052,0.515-1.47,0.582
			c-0.04,0.008-0.074,0.014-0.108,0.02H3.356c-0.119,0-0.233,0.015-0.347,0.035c-0.333-0.026-0.854,0.032-1.454,0.301
			c-0.332,0.154-0.691,0.368-1.001,0.724c-0.151,0.18-0.289,0.403-0.355,0.676c-0.06,0.308-0.034,0.491-0.048,0.718
			c-0.017,0.884-0.004,1.816,0.05,2.704c-0.061,0.217-0.119-0.171-0.185,0.563c-0.021,0.725-0.02,1.466-0.003,2.217l0.034,1.135
			l0.023,0.57c0.007,0.199,0.032,0.454,0.102,0.667c0.257,0.896,1.06,1.562,1.947,1.663c0.852,0.029,1.556-0.057,2.331-0.064
			c0.648,0.193,2.922,0.225,3.856,0.051c0.038-0.094-1.495-0.028-1.46-0.104c0.271-0.057,0.646-0.078,1.067-0.082
			c0.254,0.01,0.544-0.006,0.826-0.07h0.329c1.104,0,2-0.896,2-2V10.766C11.071,9.662,10.201,8.766,9.129,8.766z M0.652,23.824
			c-0.099-1.958-0.107-3.985-0.11-5.936l0.017-1.462c0.008-0.24,0.003-0.49,0.026-0.719c0.032-0.217,0.148-0.424,0.292-0.597
			c0.302-0.332,0.69-0.579,1.104-0.747c-0.382,0.364-0.622,0.875-0.622,1.444v7.704c0,0.817,0.492,1.519,1.194,1.828
			C1.656,25.377,0.806,24.729,0.652,23.824z M7.064,19.895c0,1.105-0.435,2-0.972,2S5.12,21,5.12,19.895v-0.808
			c0-1.104,0.435-2,0.972-2s0.972,0.896,0.972,2V19.895z M7.188,10.766v1.042c0,1.105-0.896,2-2,2H3.97
			c0.061-0.012,0.117-0.021,0.19-0.04c0.045-0.012,0.089-0.031,0.134-0.044c0.026-0.005,0.044-0.008,0.072-0.014
			c0.034-0.011,0.065-0.031,0.098-0.043c0.125-0.042,0.248-0.088,0.369-0.142c0.055-0.024,0.107-0.052,0.161-0.079
			c0.073-0.036,0.149-0.066,0.221-0.107c0.102-0.051,0.22-0.132,0.339-0.228c0.014-0.01,0.03-0.017,0.044-0.027
			c0.418-0.312,0.822-0.795,0.776-1.367c0.02-0.531-0.072-1.086,0.101-1.59c0.167-0.504,0.546-0.939,1.036-1.162
			c0.35-0.163,0.753-0.204,1.134-0.13C7.808,9.059,7.188,9.835,7.188,10.766z"/>
		<path d="M26.124,13.872h-0.312c-0.256-0.064-0.516-0.097-0.764-0.087l-1.012,0.003l-2.01,0.003c-0.928,0-3.167,0.125-1.965,0.151
			c-0.129,0.033-0.251,0.078-0.369,0.135c-0.015-0.062-0.117-0.116-0.336-0.147c-0.367-0.049-1.188,0.122-1.697,0.971
			c-0.121,0.212-0.218,0.433-0.266,0.726c-0.041,0.24-0.045,0.506-0.061,0.74c-0.026,0.493-0.045,1.016-0.055,1.553
			c-0.021,1.074-0.005,2.208,0.06,3.286c-0.075,0.266-0.144-0.208-0.224,0.686l-0.02,1.336c0.012,0.236-0.029,0.398,0.042,0.801
			c0.076,0.342,0.244,0.626,0.433,0.852c0.384,0.45,0.846,0.731,1.325,0.942c0.486,0.204,0.984,0.342,1.561,0.347
			c0.46-0.021,0.887-0.007,1.337,0.041c0.429,0.049,1.435,0.215,1.445,0.225c-0.014-0.037-0.633,0.146-0.842,0.209
			c-0.426,0.125-0.874,0.209-1.318,0.26c-0.207-0.033-0.467-0.104-0.931-0.09c-0.432,0.021-0.92,0.139-1.387,0.353
			c-0.462,0.218-0.927,0.524-1.222,1.003c-0.071,0.121-0.128,0.254-0.163,0.391c-0.017,0.064-0.029,0.142-0.035,0.225
			c-0.004,0.044,0,0.055,0,0.082c0,0.018,0.001,0.086,0.006,0.098c0.02,0.228,0.092,0.418,0.165,0.567
			c0.095,0.021-0.16-0.483,0.062-1.035c0.231-0.511,0.676-0.767,0.671-0.718c-0.217,0.256-0.627,0.628-0.603,1.203
			c0.014,0.535,0.331,1.104,0.815,1.426c0.458,0.336,1.044,0.41,1.49,0.382c0.006,0,0.014,0.001,0.02,0.001l0.996,0.02l2.009,0.031
			l2.029,0.02c0.371,0.037,0.775-0.033,1.145-0.191c1.096-0.011,1.98-0.9,1.98-1.998V15.872
			C28.124,14.768,27.229,13.872,26.124,13.872z M18.63,24.909c-0.483-0.318-0.912-0.805-0.854-1.411l-0.026-3.603
			c0.005-1.19,0.026-2.37,0.072-3.533c-0.005-0.597,0.073-1.126,0.431-1.528c0.297-0.355,0.726-0.56,1.151-0.591
			c-0.51,0.362-0.846,0.955-0.846,1.628v7.789c0,0.687,0.346,1.29,0.873,1.651C19.15,25.209,18.879,25.074,18.63,24.909z
			 M18.661,29.917c-0.18-0.225-0.318-0.496-0.352-0.762c-0.006-0.066-0.012-0.133-0.008-0.199v-0.014l-0.001,0.01
			c0.001-0.061,0-0.01,0.001-0.02v0.01l0.001-0.01l0.007-0.07c0.004,0.009,0.004,0.006,0.013-0.018
			c0.025-0.069,0.088-0.17,0.177-0.267c0.041-0.043,0.087-0.077,0.131-0.116c-0.042,0.141-0.071,0.289-0.071,0.442
			c0,0.428,0.18,0.815,0.467,1.122c-0.112-0.062-0.216-0.131-0.305-0.209C18.586,29.752,18.87,30.043,18.661,29.917z M19.303,30.495
			c-0.502-0.125-0.957-0.443-1.189-0.879c-0.078-0.123-0.127-0.242-0.154-0.357c-0.002-0.008-0.004-0.015-0.007-0.022
			c-0.131-0.604,0.387-1.089,1.028-1.405c-0.086,0.098-0.161,0.203-0.222,0.316c-0.137,0.08-0.272,0.164-0.383,0.263
			c-0.294,0.261-0.379,0.483-0.292,0.894c0.12,0.564,0.621,1.012,1.252,1.199C19.325,30.498,19.314,30.497,19.303,30.495z
			 M22.19,19.584c0-1.105,0.434-2,0.969-2s0.968,0.895,0.968,2v0.807c0,1.104-0.433,2-0.968,2s-0.969-0.896-0.969-2V19.584z
			 M22.609,27.124c0.23-0.066,0.464-0.15,0.699-0.277c0.078-0.051,0.164-0.105,0.242-0.233c0.103-0.126,0.038-0.392-0.056-0.466
			c-0.17-0.174-0.324-0.219-0.479-0.284c-0.27-0.097-0.537-0.153-0.806-0.203h0.025c1.104,0,2,0.331,2,0.739
			C24.235,26.76,23.534,27.059,22.609,27.124z M25.406,30.678c-0.192,0-0.38-0.006-0.571-0.008h0.623
			C25.441,30.67,25.424,30.678,25.406,30.678z"/>
		<path d="M37.55,13.872h-0.313c-0.255-0.064-0.516-0.097-0.764-0.087l-1.012,0.003l-2.01,0.003c-0.927,0-3.168,0.125-1.965,0.151
			c-0.129,0.033-0.251,0.078-0.369,0.135c-0.016-0.062-0.117-0.116-0.336-0.147c-0.367-0.049-1.189,0.122-1.697,0.971
			c-0.121,0.212-0.218,0.434-0.266,0.726c-0.04,0.241-0.045,0.506-0.061,0.74c-0.025,0.493-0.045,1.016-0.055,1.553
			c-0.021,1.074-0.005,2.208,0.06,3.287c-0.074,0.265-0.145-0.208-0.224,0.685l-0.019,1.336c0.012,0.236-0.029,0.398,0.042,0.801
			c0.075,0.342,0.244,0.626,0.434,0.852c0.384,0.45,0.846,0.731,1.325,0.942c0.485,0.204,0.983,0.342,1.561,0.347
			c0.461-0.021,0.888-0.007,1.337,0.041c0.43,0.049,1.224,0.178,1.184,0.2c-0.158,0.095-0.371,0.17-0.58,0.233
			c-0.425,0.125-0.874,0.209-1.318,0.26c-0.205-0.033-0.467-0.104-0.931-0.09c-0.434,0.021-0.92,0.139-1.389,0.353
			c-0.462,0.218-0.927,0.524-1.222,1.003c-0.071,0.121-0.128,0.254-0.163,0.391c-0.017,0.064-0.028,0.142-0.035,0.225
			c-0.002,0.081-0.002,0.074,0.007,0.18c0.02,0.228,0.092,0.418,0.165,0.567c0.095,0.021-0.16-0.483,0.062-1.035
			c0.231-0.511,0.676-0.767,0.671-0.719c-0.217,0.256-0.626,0.628-0.603,1.204c0.014,0.535,0.331,1.104,0.813,1.426
			c0.458,0.336,1.044,0.41,1.49,0.382c0.006,0,0.014,0.001,0.02,0.001l0.996,0.02l2.01,0.031l2.028,0.02
			c0.371,0.037,0.775-0.032,1.146-0.191c1.095-0.011,1.98-0.9,1.98-1.998V15.872C39.55,14.768,38.654,13.872,37.55,13.872z
			 M30.056,24.909c-0.482-0.318-0.911-0.805-0.854-1.41l-0.026-3.604c0.005-1.19,0.026-2.37,0.072-3.532
			c-0.005-0.597,0.073-1.127,0.431-1.528c0.297-0.355,0.727-0.561,1.151-0.591c-0.51,0.362-0.846,0.955-0.846,1.628v7.789
			c0,0.686,0.346,1.29,0.872,1.65C30.575,25.209,30.305,25.074,30.056,24.909z M30.087,29.917c-0.18-0.225-0.317-0.496-0.352-0.762
			c-0.006-0.066-0.013-0.133-0.009-0.199v-0.014l-0.001,0.01c0.003-0.061,0-0.01,0.001-0.02v0.01l0.002-0.01l0.007-0.07
			c0.004,0.009,0.004,0.006,0.013-0.018c0.025-0.069,0.088-0.17,0.177-0.267c0.041-0.043,0.087-0.077,0.131-0.116
			c-0.042,0.141-0.07,0.289-0.07,0.442c0,0.428,0.18,0.815,0.467,1.122c-0.112-0.062-0.216-0.131-0.305-0.21
			C30.012,29.752,30.296,30.043,30.087,29.917z M30.729,30.495c-0.503-0.125-0.956-0.443-1.19-0.879
			c-0.078-0.123-0.126-0.242-0.154-0.357c-0.002-0.008-0.005-0.016-0.007-0.023c-0.131-0.605,0.387-1.09,1.027-1.405
			c-0.086,0.099-0.16,0.203-0.222,0.315c-0.137,0.082-0.271,0.164-0.383,0.263c-0.295,0.261-0.379,0.483-0.293,0.894
			c0.12,0.564,0.621,1.012,1.252,1.199C30.751,30.498,30.74,30.497,30.729,30.495z M33.616,19.584c0-1.105,0.434-2,0.968-2
			c0.535,0,0.969,0.895,0.969,2v0.807c0,1.104-0.434,2-0.969,2s-0.968-0.896-0.968-2V19.584z M34.036,27.124
			c0.23-0.066,0.463-0.15,0.699-0.277c0.078-0.053,0.164-0.105,0.243-0.233c0.102-0.126,0.038-0.392-0.057-0.466
			c-0.169-0.174-0.324-0.219-0.479-0.284c-0.271-0.097-0.538-0.153-0.807-0.203h0.025c1.104,0,2,0.331,2,0.739
			C35.661,26.76,34.961,27.059,34.036,27.124z M36.832,30.678c-0.192,0-0.38-0.006-0.571-0.008h0.623
			C36.867,30.67,36.85,30.678,36.832,30.678z"/>
		<path d="M14.774,8.818c-0.144,0-0.283,0.015-0.418,0.04h-0.001c-0.008-0.001-0.016-0.003-0.024-0.004
			c-0.204-0.035-0.572-0.018-0.316-0.004c0.022,0.002,0.057,0.004,0.099,0.007c0.051,0.004,0.102,0.018,0.154,0.025
			c-0.827,0.189-1.438,0.821-1.438,1.579c0,0.771,0.631,1.413,1.479,1.589c-0.138,0.01-0.256,0.03-0.235,0.043
			c-0.204-0.014-0.473-0.082-0.685-0.147c-0.037-0.002,0.057,0.031-0.003,0.023c-0.254-0.104-0.622-0.31-0.656-0.296
			c0.21,0.157,0.474,0.27,0.75,0.349c-0.296-0.075-0.584-0.182-0.832-0.371c-0.362-0.271-0.634-0.699-0.644-1.172
			c-0.016-0.472,0.241-0.93,0.612-1.207c0.371-0.283,0.84-0.406,1.268-0.37c0.119-0.038-0.072-0.106-0.412-0.076
			c-0.335,0.027-0.816,0.215-1.106,0.558c-0.047,0.031,0.009-0.053-0.127,0.077c-0.247,0.269-0.395,0.682-0.358,1.065
			c0.025,0.394,0.228,0.752,0.49,1.01c0.057,0.166,0.545,0.497,0.78,0.512c0.018-0.011-0.332-0.149-0.311-0.168
			c0.13,0.058,0.375,0.146,0.604,0.202c0.036,0.008,0.072,0.015,0.108,0.021c0.071,0.014,0.132,0.021,0.189,0.023
			c0.239,0.021,0.482,0.006,0.72-0.048c0.103,0.014,0.206,0.026,0.313,0.026c1.074,0,1.944-0.735,1.944-1.642
			C16.719,9.553,15.848,8.818,14.774,8.818z M14.335,12.069c0.007-0.004,0.001-0.005,0.011-0.01
			c0.007,0.002,0.015,0.005,0.022,0.006C14.358,12.067,14.346,12.067,14.335,12.069z"/>
		<path d="M14.774,13.861c-0.145,0-0.285,0.019-0.421,0.05c-0.381-0.065-0.663-0.027-0.164,0.03
			c0.012,0.002,0.033,0.005,0.046,0.008c-0.81,0.242-1.405,1.002-1.405,1.913v7.746c0,0.932,0.623,1.708,1.461,1.93
			c-0.503,0.036-1.119-0.232-1.464-0.598c-0.07-0.045,0.077,0.131-0.032,0.048c-0.19-0.254-0.381-0.595-0.463-0.905
			c-0.087-0.301-0.096-0.574-0.144-0.605c-0.065,0.779,0.333,1.619,1.133,1.979c-0.055-0.023-0.11-0.044-0.163-0.072
			c-0.039-0.02-0.076-0.043-0.113-0.064c-0.093-0.059-0.184-0.119-0.266-0.191c-0.007-0.006-0.014-0.013-0.021-0.019
			c-0.095-0.085-0.183-0.179-0.259-0.281c-0.334-0.442-0.426-0.971-0.393-1.554c0-1.159-0.03-2.338-0.058-3.516
			c-0.028-1.18-0.055-2.356-0.05-3.512c-0.034-0.574,0.079-1.163,0.45-1.582c0.351-0.424,0.891-0.65,1.391-0.619
			c0.134-0.059,0.101-0.111-0.088-0.153c-0.183-0.032-0.54-0.029-0.929,0.18c-0.387,0.198-0.79,0.612-0.96,1.166
			c-0.173,0.6-0.067,1.112-0.063,1.644c-0.037,0.128-0.07-0.101-0.109,0.332c-0.051,1.708,0.119,3.573,0.175,5.357
			c-0.057,0.19-0.091,0.62-0.095,1.075c-0.009,0.503,0.227,1,0.437,1.201c0.033,0-0.093-0.196-0.18-0.412
			c-0.086-0.217-0.124-0.449-0.098-0.44c0.11,0.312,0.315,0.865,0.748,1.224c0.189,0.172,0.41,0.279,0.615,0.344
			c0.39,0.143,0.826,0.146,1.232,0.021c0.083,0.01,0.165,0.025,0.251,0.025c1.074,0,1.944-0.896,1.944-2v-7.746
			C16.719,14.757,15.848,13.861,14.774,13.861z"/>
	</g>
</g>
<g>
</g>
<g>
</g>
<g>
</g>
<g>
</g>
<g>
</g>
<g>
</g>
<g>
</g>
<g>
</g>
<g>
</g>
<g>
</g>
<g>
</g>
<g>
</g>
<g>
</g>
<g>
</g>
<g>
</g>
</svg>
