<?xml version="1.0" encoding="iso-8859-1"?>
<!-- Generator: Adobe Illustrator 16.0.0, SVG Export Plug-In . SVG Version: 6.00 Build 0)  -->
<!DOCTYPE svg PUBLIC "-//W3C//DTD SVG 1.1//EN" "http://www.w3.org/Graphics/SVG/1.1/DTD/svg11.dtd">
<svg version="1.1" id="Capa_1" xmlns="http://www.w3.org/2000/svg" xmlns:xlink="http://www.w3.org/1999/xlink" x="0px" y="0px"
	 width="45.024px" height="45.024px" viewBox="0 0 45.024 45.024" style="enable-background:new 0 0 45.024 45.024;"
	 xml:space="preserve">
<g>
	<g>
		<path d="M22.872,0.417C10.975,0.044,1.171,9.754,0.09,21.261c-1.205,12.835,9.848,22.975,22.063,23.356
			c0.028,0.001,0.058,0,0.087-0.003c0.047-0.003,0.102-0.009,0.122-0.006c0.011,0.002,0.022,0.003,0.037,0.003
			c11.833-0.37,21.419-8.949,22.535-20.842C46.139,10.935,35.086,0.797,22.872,0.417z M6.052,10.043
			c1.252-1.639,2.744-3.099,4.419-4.325c0.445-0.326,0.499-0.257,0.104,0.129c-1.44,1.41-2.893,2.833-4.397,4.305
			C5.785,10.538,5.717,10.482,6.052,10.043z M6.086,10.292C7.778,8.65,8.797,7.676,7.815,8.686c-0.294,0.283-0.933,0.9-1.835,1.773
			c-0.397,0.384-0.694,0.658-0.665,0.612C5.344,11.024,5.69,10.675,6.086,10.292z M2.264,25.547
			c-0.041-0.197-0.08-0.396-0.111-0.598c-0.008-0.052-0.015-0.104-0.021-0.156c-0.01-0.088,0.231-0.415,0.54-0.733
			s0.587-0.217,0.64,0.225c0.052,0.442-0.124,1.036-0.407,1.329C2.621,25.904,2.332,25.876,2.264,25.547z M2.774,27.722
			c-0.082-0.283,0.078-0.729,0.348-0.997c0.271-0.267,0.537-0.233,0.602,0.077c0.064,0.31-0.082,0.757-0.335,0.999
			C3.137,28.042,2.856,28.005,2.774,27.722z M3.285,29.311c-0.186-0.513-0.114-1.137,0.136-1.386
			c0.25-0.248,0.554-0.015,0.701,0.519c0.004,0.018,0.009,0.035,0.014,0.052c0.148,0.532,0.114,1.132-0.103,1.348
			C3.818,30.057,3.471,29.822,3.285,29.311z M6.308,33.965c-0.226,0.21-0.667,0.016-0.961-0.452
			c-0.271-0.431-0.528-0.874-0.771-1.328c-0.26-0.487-0.431-0.913-0.404-0.937c0.016-0.016,0.031-0.029,0.047-0.045
			c0.103-0.105,0.205-0.211,0.307-0.315c0.169-0.175,0.469,0.103,0.713,0.599c0.247,0.5,0.516,0.958,0.81,1.354
			C6.381,33.282,6.534,33.754,6.308,33.965z M6.847,22.544c4.004-0.136,7.973-0.693,11.891-1.5c0.541-0.112,1.423-0.159,1.971-0.089
			c3.21,0.411,4.107,0.839,2.688,1.286c-1.228,0.437-2.391,0.919-3.565,1.483c-1.834,0.882-3.504,2.086-5.091,3.346
			c-1.858,1.477-3.485,3.221-4.947,5.085c-0.34,0.436-1.086,0.904-1.448,0.487c-1.175-1.356-2.639-5.777-2.814-6.471
			c-0.183-0.847-0.305-1.701-0.367-2.564C5,22.072,5.558,22.587,6.847,22.544z M42.46,18.097c0.085,0.337-0.089,0.849-0.378,1.14
			s-0.524,0.216-0.568-0.165c-0.043-0.38,0.096-0.886,0.34-1.134C42.099,17.69,42.375,17.759,42.46,18.097z M41.071,15.361
			c0.196-0.212,0.511-0.012,0.683,0.454c0.171,0.466,0.112,1.045-0.113,1.286c-0.225,0.241-0.503,0.028-0.646-0.466
			C40.851,16.14,40.873,15.573,41.071,15.361z M40.76,14.59c-0.192,0.191-0.514-0.072-0.765-0.564
			c-1.09-2.134-2.779-3.627-5.211-1.94c-0.072,0.05-0.13,0.098-0.179,0.145c-1.983,1.928-4.24,3.42-6.705,4.666
			c-1.205,0.609-1.992,1.491-1.769,2.859c0.194,1.186,0.862,2.35,2.119,2.427c2.719,0.169,5.429-0.065,8.158,0.188
			c1.364,0.127,2.524,0.17,3.397-0.054c0.535-0.137,1.017-0.393,1.151-0.375s0.557-0.287,0.944-0.681
			c0.097-0.1,0.193-0.198,0.292-0.297c0.387-0.394,0.768-0.271,0.82,0.279c0.236,2.447-0.005,4.815-0.638,7.037
			c-0.151,0.531-0.458,1.108-0.657,1.299c-0.12,0.116-0.239,0.232-0.358,0.348c-0.562,0.547-1.046,1.017-1.458,1.417
			c-0.396,0.384-0.708,0.679-0.695,0.659c0.013-0.021,0.344-0.35,0.74-0.734c0.214-0.208,0.446-0.434,0.698-0.678
			c0.396-0.384,0.396-0.385-0.004-0.002c-0.22,0.212-0.441,0.427-0.667,0.644c-0.397,0.383-0.477,0.318-0.202-0.162
			c0.651-1.142,1.211-2.395,1.362-3.522c0.073-0.547,0.264-1.247,0.567-1.558c0.305-0.309,0.452-0.651,0.312-0.748
			c-0.138-0.095-0.437,0.025-0.648,0.243s-0.542-0.037-0.939-0.408c-0.396-0.37-0.881-0.593-0.975-0.631
			c-0.049-0.02-0.107-0.037-0.176-0.051c-1.967-0.388-3.936-0.594-5.939-0.623c-1.21-0.017-3.34-0.146-4.101,1.097
			c-0.18,0.292-0.285,0.595-0.339,0.904c-0.092,0.529-0.039,0.908-0.067,0.832c-0.029-0.076-0.296,0.107-0.598,0.409
			s-0.707,0.129-0.926-0.378c-0.197-0.461-0.408-0.914-0.637-1.352c-0.202-0.387-0.73-0.423-1.114-0.294
			c-3.774,1.279-7.195,3.254-10.226,5.835c-1.862,1.586-5.126,4.356-3.993,7.042c0.515,1.222,2.838,1.97,3.924,2.356
			c2.291,0.817,4.688,1.354,7.135,1.282c2.594-0.077,6.924-0.189,7.739-3.058c0.151-0.53,0.411-1.268,0.752-1.613
			c0.342-0.347,0.647-0.534,0.683-0.419c0.02,0.068,0.042,0.139,0.066,0.206c0.538,1.437,1.725,1.202,2.92,0.438
			c0.466-0.297,0.864-0.511,0.945-0.429c0.082,0.082,0.479-0.186,0.87-0.576c1.417-1.415,2.836-2.838,4.255-4.259
			c0.39-0.392,0.521-0.3,0.266,0.189c-3.409,6.526-10.376,11.104-18.085,11.411c-2.021-0.067-3.95-0.406-5.77-0.963
			c-0.528-0.162-0.926-0.338-0.897-0.369c0.028-0.03-0.357-0.24-0.846-0.496c-0.07-0.037-0.14-0.074-0.21-0.11
			c-0.487-0.262-0.931-0.435-1.006-0.361c-0.075,0.073-0.54-0.062-1.024-0.327c-0.312-0.171-0.617-0.35-0.918-0.536
			c-0.47-0.29-0.741-0.643-0.621-0.763c0.12-0.12,0.012-0.381-0.23-0.595c-0.243-0.213-0.558-0.279-0.707-0.143
			c-0.15,0.138-0.628-0.022-1.05-0.38c-0.36-0.304-0.71-0.619-1.049-0.947c-0.397-0.384-0.547-0.868-0.357-1.062
			c0.189-0.192,0.293-0.412,0.234-0.493c-0.059-0.081-0.272,0.007-0.475,0.194s-0.578,0.107-0.832-0.185
			c-0.253-0.292-0.267-0.705-0.044-0.907c0.223-0.204,0.275-0.559,0.128-0.8s0.08-0.128,0.601,0.055
			c0.87,0.304,1.875,0.102,3.028-0.852c0.051-0.043,0.092-0.083,0.125-0.121c0.062-0.072,0.356-0.508,0.699-0.939
			c2.819-3.545,6.375-6.516,10.532-8.316c0.506-0.22,0.667-0.125,0.349,0.188c-0.318,0.312-0.468,0.5-0.332,0.425
			c0.136-0.076,0.483-0.359,0.773-0.634c0.291-0.275,0.719-0.571,0.958-0.663c0.144-0.056,0.288-0.109,0.436-0.156
			c0.284-0.09,0.789-0.291,0.823-0.655c0.01-0.111,0.015-0.217,0.016-0.319c0.002-0.177,0.263-0.575,0.593-0.888
			c0.331-0.314,0.58-0.598,0.556-0.633c-0.024-0.035-0.069-0.04-0.097-0.012c0.027-0.028,0.04-0.063,0.024-0.077
			c-0.015-0.014-0.268,0.21-0.564,0.5s-0.557,0.058-0.812-0.431c-1.099-2.089-4.958-0.997-6.932-0.569
			c-3.256,0.706-6.605,1.037-9.926,1.238c-1.048,0.064-2.223-0.046-3.284,0.18c-0.54,0.116-0.962,0.069-0.955-0.243
			c0.007-0.312-0.287-0.249-0.68,0.139c-0.141,0.138-0.281,0.277-0.421,0.416c-0.393,0.388-0.727,0.255-0.712-0.297
			c0.012-0.471,0.042-0.938,0.089-1.401c0.055-0.55,0.451-1.3,0.852-1.68c0.166-0.158,0.332-0.315,0.498-0.473
			c0.4-0.381,0.671-0.218,0.901,0.284c0.249,0.544,0.777,0.942,1.691,1.104c0.029,0.005,0.061,0.008,0.093,0.008
			c0.052,0,0.155,0.007,0.232,0.015c0.042,0.004,0.087,0.006,0.139,0.004c4.486-0.184,10.11-0.258,14.226-2.177
			c0.542-0.253,0.836-0.64,0.946-1.119c0.124-0.539,0.256-1.223,0.565-1.504c0.308-0.282,0.548-0.526,0.536-0.546
			c-0.011-0.019-0.261,0.21-0.558,0.51c-0.297,0.301-0.586,0.237-0.7-0.13c-0.115-0.367-0.06-0.84,0.167-1.072
			c0.227-0.233,0.348-0.525,0.269-0.653c-0.079-0.128-0.314-0.051-0.529,0.168c-0.215,0.219-0.592-0.009-0.869-0.486
			c-0.164-0.282-0.339-0.565-0.521-0.845c-0.3-0.463-0.425-0.96-0.26-1.123c0.1-0.099,0.2-0.197,0.299-0.295
			c0.022-0.024,0.044-0.049,0.066-0.074c0.036-0.041-0.115-0.348-0.34-0.686c-0.226-0.338-0.583-0.435-0.796-0.216
			c-0.213,0.218-0.522,0.214-0.693-0.008c-0.17-0.223-0.128-0.589,0.096-0.819c0.224-0.23,0.396-0.43,0.384-0.447
			c-0.012-0.017-0.201,0.159-0.425,0.392c-0.223,0.232-0.413,0.411-0.423,0.398c-0.01-0.013,0.091-0.129,0.226-0.259
			c0.09-0.088,0.173-0.167,0.245-0.235c0.062-0.063,0.12-0.12,0.172-0.173c0.095-0.095,0.137-0.22,0.095-0.282
			c-0.026-0.039-0.052-0.076-0.077-0.111c-0.09-0.129-0.195-0.246-0.311-0.35c-0.193-0.172-0.546-0.122-0.753,0.068
			c-0.206,0.19-0.45,0.244-0.543,0.119c-0.064-0.085-0.12-0.163-0.166-0.23c-2.429-3.527-7.171,1.28-8.819,3.064
			c-0.837,0.906-2.617,3.185-3.426,5.247c-0.202,0.514-0.617,1.271-1.006,1.663c-0.178,0.18-0.356,0.36-0.534,0.539
			c-0.389,0.393-0.621,0.27-0.488-0.266c0.184-0.74,0.411-1.466,0.679-2.175c0.195-0.517,0.69-1.245,1.077-1.639
			c0.891-0.908,1.781-1.816,2.667-2.714c0.388-0.394,0.958-1.079,1.297-1.515c1.069-1.376,2.302-2.618,3.669-3.698
			c0.433-0.343,1.113-0.919,1.503-1.31c0.044-0.044,0.088-0.088,0.133-0.133c0.39-0.391,1.111-0.897,1.623-1.105
			c0.767-0.311,1.554-0.578,2.358-0.798c0.533-0.146,0.96-0.232,0.949-0.22c-0.012,0.011,0.089-0.015,0.227-0.054
			c0.083-0.023,0.166-0.046,0.249-0.07c0.7-0.14,1.411-0.246,2.13-0.314c8.574-0.806,15.97,4.449,19.635,11.676
			C40.927,13.836,40.953,14.399,40.76,14.59z M39.26,21.419c-2.576,0.018-5.168-0.525-7.776-0.479
			c-1.394,0.024-2.493,0.395-3.118-1.037c-0.807-1.845,1.856-2.854,3.141-3.615c1.367-0.811,2.646-1.79,3.83-2.857
			c0.41-0.37,1.219-0.922,1.661-0.591C38.76,14.166,40.186,21.413,39.26,21.419z M29.37,30.552c0.29-0.292,0.541-0.484,0.56-0.429
			c0.013,0.033,0.023,0.067,0.033,0.102c0.047,0.16,0.09,0.321,0.131,0.484c0.068,0.268-0.116,0.724-0.41,1.02
			c-0.294,0.295-0.598,0.271-0.682-0.057C28.919,31.345,29.08,30.844,29.37,30.552z M28.516,29.959
			c-0.143-0.465-0.052-1.067,0.212-1.352c0.266-0.283,0.604-0.146,0.77,0.298c0.166,0.446,0.067,1.053-0.217,1.353
			C28.995,30.558,28.658,30.423,28.516,29.959z M30.079,33.37c0.292-0.301,0.625-0.105,0.754,0.431
			c0.079,0.329,0.162,0.656,0.25,0.98c0.143,0.533,0.019,1.226-0.298,1.551c-0.317,0.325-0.668,0.151-0.785-0.389
			c-0.076-0.349-0.152-0.701-0.231-1.055C29.65,34.351,29.787,33.671,30.079,33.37z M31.123,27.19
			c-0.896-2.812,3.546-2.28,5.943-1.851c0.544,0.097,1.435,0.35,1.766,0.793c1.247,1.672-1.047,5.121-1.982,6.574
			c-0.625,0.972-1.399,1.83-2.2,2.656c-1.245,1.285-1.433-0.499-1.646-1.429C32.482,31.658,31.831,29.415,31.123,27.19z
			 M28.107,38.638c-1.263,2.598-7.573,1.566-9.561,1.123c-1.387-0.31-2.687-0.91-3.95-1.542c-2.993-1.498-1.227-3.188-0.212-4.416
			c2.544-3.08,6.009-5.481,9.713-7.029c0.511-0.213,1.125,0.035,1.344,0.542c1.259,2.939,2.007,6.266,2.676,9.377
			C28.234,37.233,28.348,38.141,28.107,38.638z M10.137,9.967c0.889-0.962,3.229-3.564,4.833-2.008
			c0.722,0.7,1.263,1.859,1.814,2.694c0.774,1.173,1.513,2.369,2.247,3.568c1.807,2.956-3.654,3.055-4.936,3.25
			c-2.022,0.308-4.064,0.498-6.107,0.612c-0.552,0.031-1.536-0.034-1.769-0.535C5.372,15.72,9.492,10.667,10.137,9.967z"/>
		<path d="M35.782,7.564c-0.101-0.071-0.202-0.138-0.306-0.204c-0.17-0.11-0.464-0.055-0.654,0.123
			c-0.191,0.177-0.485,0.052-0.722-0.234c-0.235-0.286-0.39-0.553-0.294-0.641c0.097-0.088,0.019-0.246-0.174-0.349
			c-0.19-0.104-0.405-0.133-0.473-0.072c-0.068,0.061-0.426-0.102-0.822-0.324s-0.712-0.394-0.685-0.421
			c0.026-0.027-0.047-0.085-0.166-0.129c-0.119-0.044-0.233-0.06-0.255-0.039s-0.32-0.082-0.673-0.216
			c-0.353-0.134-0.681-0.25-0.729-0.266c-0.029-0.01-0.058-0.018-0.088-0.026c-1.525-0.491-3.037-0.798-3.97-0.958
			c-1.802-0.31-9.041-1.03-7.362,2.771c0.005,0.012,0.014,0.02,0.022,0.028c0.015,0.014,0.031,0.044,0.036,0.068
			c0.002,0.014,0.006,0.027,0.016,0.042c1.465,2.107,2.851,4.261,4.169,6.462c0.827,1.38,1.738,2.454,3.511,2.266
			c0.389-0.041,0.781-0.138,1.172-0.273c0.521-0.181,1.034-0.36,1.175-0.341c0.143,0.019,0.483-0.193,0.762-0.453
			c0.277-0.259,0.88-0.712,1.336-1.024c0.306-0.209,0.6-0.414,0.878-0.604c0.949-0.647,2.914-1.85,3.213-3.057
			c0.018-0.071,0.026-0.139,0.034-0.207c0.011-0.115,0.031-0.222,0.049-0.238c0.011-0.01,0.021-0.021,0.032-0.029
			c0,0,0.304-0.282,0.678-0.63c0.375-0.348,0.605-0.732,0.5-0.842C35.929,7.68,35.86,7.619,35.782,7.564z M31.749,10.887
			c-0.637,0.576-1.335,1.076-2.051,1.547c-0.461,0.304-1.166,0.862-1.66,1.109c-0.672,0.336-1.389,0.389-2.152,0.157
			c-0.527-0.16-1.137-0.788-1.418-1.263c-0.186-0.314-0.373-0.627-0.561-0.938c-0.95-1.586-1.964-3.135-3.008-4.661
			c-0.312-0.456-0.79-1.403-0.32-1.693c1.288-0.796,6.03,0.221,6.601,0.377C29.34,6.112,34.802,8.128,31.749,10.887z"/>
		<path d="M22.652,16.038c-0.143,0.131-0.295,0.273-0.5,0.468c-0.401,0.38-0.54,0.654-0.318,0.608
			c0.133-0.028,0.266-0.056,0.401-0.087c0.064-0.015,0.126-0.033,0.185-0.053c0.1-0.034,0.328-0.211,0.512-0.384
			c0.185-0.172,0.443-0.503,0.474-0.762C23.438,15.567,23.058,15.663,22.652,16.038z"/>
		<path d="M12.397,31.87c-0.366,0.34-0.732,0.679-1.099,1.018c-0.405,0.375-0.695,0.711-0.645,0.744
			c0.05,0.033,0.408-0.262,0.795-0.654c0.6-0.607,1.2-1.216,1.802-1.826c0.388-0.393,0.373-0.408-0.034-0.034
			C12.95,31.363,12.677,31.614,12.397,31.87z"/>
	</g>
</g>
<g>
</g>
<g>
</g>
<g>
</g>
<g>
</g>
<g>
</g>
<g>
</g>
<g>
</g>
<g>
</g>
<g>
</g>
<g>
</g>
<g>
</g>
<g>
</g>
<g>
</g>
<g>
</g>
<g>
</g>
</svg>
