<?xml version="1.0" encoding="iso-8859-1"?>
<!-- Generator: Adobe Illustrator 16.0.0, SVG Export Plug-In . SVG Version: 6.00 Build 0)  -->
<!DOCTYPE svg PUBLIC "-//W3C//DTD SVG 1.1//EN" "http://www.w3.org/Graphics/SVG/1.1/DTD/svg11.dtd">
<svg version="1.1" id="Capa_1" xmlns="http://www.w3.org/2000/svg" xmlns:xlink="http://www.w3.org/1999/xlink" x="0px" y="0px"
	 width="50.969px" height="50.969px" viewBox="0 0 50.969 50.969" style="enable-background:new 0 0 50.969 50.969;"
	 xml:space="preserve">
<g>
	<g>
		<path d="M49.717,16.254h-0.133c-0.365-0.426-1.104-0.764-1.948-0.688c-0.545,0.028-1.118,0.15-1.717,0.389
			c-0.575,0.239-1.27,0.592-1.766,1.334c-0.739,1.19-1.434,2.341-2.196,3.672c0,0-0.017,0.029-0.038,0.066
			c-0.021,0.037-0.103-0.108-0.183-0.327l-0.146-0.394l-0.887-2.328l-0.231-0.586c-0.014-0.048-0.146-0.34-0.239-0.493
			c-0.104-0.155-0.22-0.321-0.332-0.436c-0.459-0.498-0.924-0.785-1.388-1.026c-0.941-0.448-1.849-0.773-3.059-0.741
			c-0.504,0.029-0.97,0.101-1.455,0.218c-0.243,0.062-0.487,0.132-0.768,0.247c-0.144,0.062-0.291,0.126-0.493,0.263
			c-0.03,0.021-0.064,0.047-0.103,0.077c-0.055,0.044-0.232,0.062-0.402,0.043c-0.095-0.011-0.194-0.021-0.308-0.029
			c-1.108-0.007-2.002,0.077-3.051,0.227c0,0-0.033,0.005-0.074,0.011s-0.109,0.023-0.154,0.039l-0.081,0.029
			c-0.608,0.219-1.065,0.44-1.592,0.742c-0.523,0.333-1.012,0.604-1.634,1.381c-0.033,0.044-0.072,0.098-0.107,0.15
			c-0.057,0.084-0.108,0.171-0.121,0.191l-0.023,0.038c-0.022,0.038-0.092,0.17-0.092,0.17c-0.014,0.031-0.041,0.093-0.041,0.093
			c-0.142,0.314-0.239,0.705-0.235,1.101c0.012,1.138,2.016,1.838,2.251,1.896c0,0,0.021,0.007,0.046,0.014
			c0.023,0.007,0.062,0.014,0.084,0.019c0.021,0.004,0.073,0.007,0.092,0.01c0.559,0.055,1.553-0.056,2.046-0.25
			c0,0,0.013-0.005,0.028-0.011c0.007-0.003,0.022-0.007,0.041-0.011h0.336c0.752,0,1.396-0.113,1.751-0.277
			c0.07-0.007,0.142-0.017,0.214-0.023c0.009,0,0.148,0.111,0.291,0.22c0.159,0.122,0.268,0.242,0.23,0.31
			c-0.022,0.041-0.048,0.081-0.078,0.117c-0.053,0.065-0.143,0.158-0.174,0.187l-0.078,0.066c-0.237,0.198-0.377,0.263-0.518,0.336
			c-0.268,0.132-0.438,0.181-0.624,0.24c-0.348,0.103-0.646,0.159-0.944,0.205c-0.612,0.067-1.063,0.169-1.995,0.033
			c-0.801-0.167-1.54-0.452-2.271-1.231c-0.019-0.021-0.743-0.075-1.112-0.062c0,0-0.061,0.002-0.135,0.004
			c-0.073,0.003-0.169,0.023-0.213,0.047l-0.078,0.042c-0.113,0.062-0.275,0.156-0.428,0.246c-0.109,0.065-0.206-0.018-0.282-0.199
			v-2.213c0-0.241-0.05-0.469-0.127-0.683c0-0.025,0.006-0.046,0.005-0.071c-0.001-0.278-0.052-0.596-0.183-0.917
			c-0.249-0.642-0.828-1.318-1.71-1.641c-0.114-0.036-0.212-0.073-0.349-0.104c-0.121-0.026-0.321-0.058-0.367-0.061l-0.115-0.015
			c-0.152-0.009-0.148-0.003-0.231-0.005c-0.124-0.002-0.25,0.007-0.377,0.024c-0.508,0.06-1.02,0.258-1.461,0.579
			c-0.445,0.315-0.81,0.767-1.049,1.291c-0.113,0.283-0.199,0.503-0.247,0.88l-0.017,0.13l-0.004,0.065l-0.01,0.134l-0.006,0.333
			l0.001,2.081c0,0.087,0.531,0.729,0.562,0.645c0.044-0.115,0.077-0.227,0.104-0.323c0.05-0.18,0.165-0.131,0.17,0.066
			c0.002,0.117-0.006,0.236-0.027,0.354c-0.038,0.238-0.161,0.481-0.308,0.527c-0.043,0.015-0.03,0.024-0.146,0.011l-0.239-0.044
			l-0.537-0.095l-1.132-0.185c-1.565-0.25-3.314-0.333-5.015-0.358C8.747,22,7.138,22.072,5.769,22.359
			c-0.496,0.081-0.99,0.183-1.48,0.317c-0.456,0.127-0.911,0.271-1.359,0.461c-0.221,0.096-0.444,0.203-0.672,0.331l-0.299,0.183
			l-0.317,0.227c-0.396,0.311-0.758,0.696-1.019,1.162c-0.281,0.52-0.361,0.955-0.469,1.451c-0.104,0.482-0.136,1.009-0.152,1.455
			c-0.008,0.521,0.022,0.991,0.095,1.489c0.034,0.247,0.084,0.487,0.145,0.741c0.055,0.224,0.128,0.484,0.237,0.736
			c0.216,0.498,0.539,0.942,0.918,1.308c0.755,0.733,1.726,1.176,2.658,1.466c0.961,0.303,1.898,0.475,2.875,0.589
			c1.934,0.21,3.837,0.248,5.787,0.167c0.981-0.051,1.927-0.155,2.904-0.304l0.713-0.121c0.315-0.076,0.529-0.137,0.773-0.214
			l0.143-0.048c0.146-0.037,0.281-0.086,0.423-0.129c0.101,0.009,0.238,0.156,0.339,0.371c0.068,0.146,0.139,0.292,0.214,0.44
			c0.278,0.486,0.6,0.979,1.217,1.333c0.168,0.084,0.317,0.147,0.562,0.18c0.073,0.011,0.079,0.007,0.117,0.011l0.083,0.001
			l0.062-0.003c0.082-0.007,0.166-0.007,0.245-0.023c0.247-0.036,0.475-0.117,0.69-0.216c0.59-0.011,1.106-0.115,1.437-0.273
			c0.031,0.021,0.061,0.041,0.092,0.062c0.425,0.27,0.814,0.484,1.264,0.711c0,0,0.025,0.013,0.058,0.029
			c0.031,0.016,0.084,0.026,0.117,0.025l0.062-0.001c0.844-0.022,1.638-0.076,2.48-0.238c0.658-0.043,1.208-0.181,1.635-0.424
			c0.521-0.295,0.909-0.681,1.18-1.159c0.267-0.478,0.456-1.015,0.579-1.615c0.062-0.298,0.111-0.594,0.152-0.889
			c0.041-0.299,0.14-0.538,0.259-0.688c0.11-0.007,0.223-0.014,0.334-0.027c0.241-0.024,0.483-0.083,0.727-0.139
			c0.68-0.042,1.267-0.189,1.742-0.458c0.272-0.156,0.53-0.354,0.771-0.586c0.058,0.062,0.113,0.126,0.175,0.185
			c0.339,0.32,0.737,0.599,1.236,0.742c0.462,0.117,0.895,0.069,1.298-0.055c0.048,0.001,0.095,0.006,0.143,0.006
			c1.059,0,1.89-0.274,1.854-0.614c-0.034-0.339-0.061-0.614-0.061-0.614c-0.036-0.405-0.062-0.797-0.062-1.167v-0.076
			c0.049,0.177,0.109,0.354,0.149,0.529c0.051,0.222,0.093,0.46,0.106,0.651l0.01,0.708l0.009,1.442
			c-0.009,0.209,0.015,0.575,0.127,0.83c0.106,0.272,0.268,0.51,0.454,0.711c0.648,0.664,1.568,1.061,2.504,0.958
			c0.059,0.006,0.117,0.019,0.179,0.019h0.908c1.104,0,2-0.896,2-2v-2.233c0-1.104,0.437-2.78,0.975-3.746l4.649-8.325
			C51.281,17.035,50.822,16.254,49.717,16.254z M1.045,30.784c-0.082-0.207-0.148-0.42-0.203-0.636
			c-0.092-0.356-0.014-0.485,0.093-0.244c0.106,0.241,0.147-0.41,0.141-1.299C1.071,28,1.101,27.445,1.133,26.996
			c0.021-0.25,0.041-0.469,0.055-0.648c0.027-0.359,0.127-1.025,0.631-1.409c0.288-0.219,0.626-0.398,1.006-0.545
			c0.07-0.024,0.15-0.044,0.224-0.067c-0.706,0.501-1.167,1.091-1.366,1.782c-0.203,0.695-0.306,1.422-0.306,2.18
			c0,0.882,0.116,1.684,0.34,2.407c0.226,0.729,0.706,1.358,1.445,1.893c0.306,0.219,0.681,0.413,1.099,0.591
			C2.937,32.768,1.635,32.042,1.045,30.784z M18.783,22.743c0.191-0.429,0.246-0.824,0.274-1.213l0.021-1.961
			c0-0.123,0-0.26,0.002-0.385c0.003-0.213,0.065-0.508,0.138-0.647c0.043-0.083,0.097-0.161,0.161-0.231
			c0.099-0.106,0.211-0.188,0.331-0.254c-0.326,0.355-0.529,0.825-0.529,1.345v2.226c0,0.942-0.321,1.587-0.769,1.665
			C18.583,23.106,18.701,22.921,18.783,22.743z M8.901,26.401c0.018-0.298,0.121-0.584,0.304-0.862
			c0.182-0.274,0.482-0.504,0.899-0.689c0.42-0.186,1.025-0.274,1.823-0.274c0.835,0,1.478,0.082,1.914,0.244
			c0.437,0.164,0.747,0.377,0.934,0.63c0.18,0.257,0.286,0.546,0.306,0.858c0.008,0.15,0.015,0.291,0.021,0.424
			c0.01,0.234-0.885,0.424-1.989,0.424h-2.242c-1.104,0-2.001-0.168-1.992-0.377C8.882,26.661,8.89,26.535,8.901,26.401z
			 M18.188,30.223c-0.549,0-0.994,0-0.994,0H17.13h-1.101c-0.608,0-1.095,0.328-1.274,0.668c-0.099,0.188-0.238,0.371-0.421,0.551
			c-0.405,0.396-1.203,0.592-2.406,0.592c-0.754,0-1.341-0.1-1.761-0.303c-0.414-0.201-0.718-0.457-0.904-0.775
			c-0.184-0.313-0.296-0.659-0.337-1.032c-0.018-0.179-0.032-0.349-0.041-0.511c-0.016-0.28,0.881-0.51,1.985-0.51h6.312
			c1.104,0,2,0.295,2,0.66C19.181,29.927,18.736,30.223,18.188,30.223z M19.661,35.353c-0.469-0.266-0.774-0.703-1.02-1.145
			c-0.071-0.138-0.138-0.276-0.197-0.419c-0.066-0.153-0.09-0.295-0.087-0.385c0.123-0.046,0.245-0.093,0.362-0.143
			c0.258-0.107,0.462,0.393,0.462,1.129c0,0.429,0.298,0.807,0.753,1.05C19.842,35.42,19.75,35.4,19.661,35.353z M23.238,23.996
			l0.182-0.18c0.037-0.033,0.09-0.069,0.175-0.125c0.141-0.09,0.294-0.182,0.451-0.271c0.049-0.028-0.091,0.088-0.2,0.188
			c-0.358,0.328-0.594,0.66-0.611,0.66c-0.006,0-0.011-0.096-0.015-0.25L23.238,23.996z M23.595,35.488
			c-0.206-0.113-0.404-0.231-0.6-0.356c0.01-0.029,0.024-0.059,0.024-0.087c0-0.374,0.012-0.68,0.026-0.68
			c0.016,0,0.215,0.386,0.572,0.761c0.226,0.235,0.476,0.42,0.75,0.553c0.034,0.017,0.079,0.021,0.115,0.038
			C24.101,35.668,23.771,35.586,23.595,35.488z M26.047,32.746c-0.196,0.732-0.652,1.098-1.355,1.098
			c-0.606,0-1.01-0.365-1.201-1.098c-0.191-0.732-0.288-1.892-0.288-3.477c0-1.246,0.058-2.273,0.179-3.068
			c0.124-0.799,0.556-1.194,1.311-1.194c0.834,0,1.314,0.396,1.442,1.194c0.131,0.796,0.201,1.822,0.201,3.068
			C26.336,30.855,26.231,32.014,26.047,32.746z M33.978,28.426c-0.278,0.316-0.7,0.477-1.267,0.477
			c-0.644,0-1.053-0.215-1.215-0.645c-0.17-0.431-0.25-0.881-0.25-1.353c0-0.552,0.088-0.976,0.267-1.271
			c0.174-0.299,0.407-0.506,0.701-0.629c0.291-0.125,0.649-0.195,1.079-0.218c0.22-0.01,0.446-0.022,0.68-0.038
			c0.375-0.026,0.682,0.098,0.687,0.284c0.003,0.097,0.006,0.208,0.01,0.338c0.008,0.347,0.016,0.613,0.016,0.8
			c0,0.387-0.041,0.766-0.126,1.134C34.453,27.734,34.258,28.107,33.978,28.426z M34.215,22.41c-0.035-0.512,0.031-0.942-0.096-1.57
			c-0.077-0.317-0.175-0.606-0.287-0.893c0.26,0.082,0.449,0.213,0.55,0.406c0.178,0.336,0.271,0.781,0.271,1.336v0.522
			c0,0.272-0.199,0.491-0.45,0.513c0.009-0.027,0.031-0.048,0.029-0.079L34.215,22.41z M34.57,29.918
			c-0.061-0.061-0.116-0.125-0.173-0.188c0.251-0.289,0.403-0.52,0.415-0.52c0.016,0,0.068,0.385,0.118,0.858
			c0.008,0.064,0.031,0.125,0.066,0.186C34.846,30.152,34.701,30.043,34.57,29.918z M35.685,16.254
			c-1.104,0-1.799,0.337-1.549,0.752c0.25,0.416,0.275,0.725,0.058,0.698c-0.13-0.016-0.264-0.026-0.398-0.036
			c-0.286-0.021-0.592-0.029-0.929-0.029c-0.808,0-1.569,0.057-2.265,0.172c-0.327,0.053-0.63,0.128-0.905,0.225
			c-0.487,0.17-1.669,0.718-2.114,1.593c-0.166,0.325-0.132,0.647,0.031,0.925c-0.607-0.27-1.078-0.815-0.609-1.345
			c0.263-0.335,0.622-0.618,1.021-0.861c0.634-0.385,2.047-0.749,3.097-0.83c0.635-0.049,1.271-0.061,1.905-0.009
			c0.058,0.003,0.207,0.024,0.336-0.09c0.106-0.097,0.121-0.221,0.131-0.325c0.004-0.091-0.019-0.182-0.05-0.263
			c-0.053-0.138-0.08-0.283-0.019-0.33c0.062-0.049,0.218-0.113,0.336-0.154c0.071-0.024,0.145-0.046,0.219-0.066
			c0.602-0.152,1.242-0.231,1.861-0.198c0.275,0.027,0.555,0.093,0.828,0.174L35.685,16.254L35.685,16.254z M39.827,32.979
			c-0.596-0.686-0.438-1.912-0.441-2.388l-0.006-0.862c-0.029-0.594-0.193-1.15-0.352-1.705c-0.108-0.354-0.23-0.707-0.355-1.056
			V26.83c0-0.938,0.346-1.043,0.769-0.229c0.425,0.812,0.77,2.368,0.77,3.472v2.233c0,0.504,0.193,0.959,0.501,1.311
			C40.375,33.465,40.063,33.252,39.827,32.979z M45.785,18.038l-2.302,4.548c-0.364,0.719-0.853,0.889-1.246,0.529
			c0.074-0.047,0.146-0.097,0.203-0.15c0.29-0.27,0.435-0.601,0.583-0.856l1.83-3.248l0.463-0.802
			c0.147-0.251,0.262-0.348,0.472-0.515c0.222-0.165,0.481-0.304,0.753-0.422C46.223,17.391,45.955,17.701,45.785,18.038z"/>
		<path d="M17.711,34.212c0.002,0.042,0.012,0.08,0.016,0.121c0.035-0.015,0.07-0.026,0.104-0.041L17.711,34.212z"/>
	</g>
</g>
<g>
</g>
<g>
</g>
<g>
</g>
<g>
</g>
<g>
</g>
<g>
</g>
<g>
</g>
<g>
</g>
<g>
</g>
<g>
</g>
<g>
</g>
<g>
</g>
<g>
</g>
<g>
</g>
<g>
</g>
</svg>
