<?xml version="1.0" encoding="iso-8859-1"?>
<!-- Generator: Adobe Illustrator 16.0.0, SVG Export Plug-In . SVG Version: 6.00 Build 0)  -->
<!DOCTYPE svg PUBLIC "-//W3C//DTD SVG 1.1//EN" "http://www.w3.org/Graphics/SVG/1.1/DTD/svg11.dtd">
<svg version="1.1" id="Capa_1" xmlns="http://www.w3.org/2000/svg" xmlns:xlink="http://www.w3.org/1999/xlink" x="0px" y="0px"
	 width="39.923px" height="39.923px" viewBox="0 0 39.923 39.923" style="enable-background:new 0 0 39.923 39.923;"
	 xml:space="preserve">
<g>
	<g>
		<path d="M19.098,3.171C11.929-2.949,5.953,0.304,2.822,8.534C2.744,8.74,2.764,8.898,2.846,9.013
			c0.162,0.225,1.065,0.868,1.787,1.704c3.28,3.8,5.628,8.247,8.562,12.325c2.971,4.127,4.914,8.782,9.404,11.543
			c0.453,0.278,1.469,0.116,1.668-0.446c0.093-0.262,0.157-0.57,0.212-0.904c0.082-0.508,0.167-0.959,0.213-1.008
			c0.045-0.048,0.087-0.271,0.088-0.496c0-0.228,0.062-1.084,0.519-1.72c0.266-0.37,0.642-0.625,1.188-0.687
			c1.345-0.152,2.898,0.389,4.232,0.031c0.09-0.023,0.174-0.053,0.251-0.084c0.137-0.056,0.22-0.094,0.193-0.067
			c-0.025,0.026,0.194,0.071,0.454-0.04c0.259-0.112,0.244-0.354,0.143-0.324c-0.104,0.029,0.325-0.507,0.342-1.37
			c0.016-0.862,0.321-1.446,0.957-1.337c0.368,0.062,0.748,0.123,1.153,0.174c0.474,0.059,1.709-0.412,1.232-1.074
			C30.141,17.858,26.119,9.165,19.098,3.171z M5.451,8.842C5.322,8.7,5.19,8.56,5.058,8.424c-0.032-0.033-0.07-0.062-0.11-0.085
			c-0.066-0.04,0.186-0.9,0.646-1.904c0.762-1.663,1.729-3.288,3.033-4.293C9.501,1.467,9.77,1.89,8.986,2.668
			c-0.424,0.42-0.847,0.84-1.27,1.26C6.932,4.706,5.953,5.94,5.593,6.717c-0.36,0.776,0.032,0.8,0.824,0.029
			c1.4-1.364,2.833-2.758,4.296-4.183c0.791-0.771,1.691-1.367,2.004-1.3c0.182,0.039,0.368,0.089,0.56,0.151
			c0.073,0.024,0.146,0.055,0.216,0.087c0.117,0.052-0.427,0.72-1.216,1.492c-1.598,1.563-3.25,3.176-5.004,4.881
			C6.479,8.644,5.665,9.077,5.451,8.842z M7.303,7.907c3.387-3.324,7.639-7.475,5.944-5.732c-0.636,0.612-2.871,2.774-5.935,5.742
			C6.518,8.686,6.513,8.681,7.303,7.907z M31.843,24.467c-0.279-0.048-0.555-0.092-0.821-0.129c-0.489-0.068-1.438,0.284-1.312,0.92
			c0.45,2.244,0.744,2.823-1.643,2.727c-1.256-0.051-2.439,0.062-3.623,0.459c-0.659,0.22-1.05,0.651-1.29,1.193
			c-0.405,0.917-0.521,1.907-0.696,2.081c-0.176,0.175-0.833-0.127-1.416-0.726c-0.582-0.598-0.375-1.76,0.404-2.541
			c0.113-0.114,0.228-0.229,0.341-0.342c0.779-0.783,1.306-1.586,1.175-1.793c-0.13-0.209-0.894,0.228-1.703,0.979
			c-0.141,0.129-0.273,0.253-0.401,0.373c-0.809,0.752-1.952,0.717-2.521-0.122c-0.569-0.839-0.543-2.003,0.023-2.577
			c0.566-0.574,0.679-0.72,0.249-0.324c-0.255,0.233-0.514,0.471-0.779,0.715c-0.095,0.088-0.19,0.176-0.285,0.264
			c-0.157,0.146-0.451,0-0.654-0.327c-0.204-0.327,0.292-1.198,1.107-1.944c0.147-0.135,0.294-0.27,0.441-0.404
			c0.814-0.748,1.307-1.59,1.105-1.883c-0.202-0.293-1.017,0.076-1.827,0.828c-0.132,0.121-0.264,0.244-0.396,0.367
			c-0.81,0.752-1.628,1.098-1.829,0.778c-0.202-0.321,0.288-1.19,1.096-1.943c0.125-0.116,0.251-0.235,0.377-0.353
			c0.808-0.753,1.435-1.403,1.403-1.453c-0.032-0.049-0.691,0.544-1.472,1.326c-0.127,0.127-0.255,0.257-0.385,0.387
			c-0.78,0.781-1.441,1.371-1.477,1.314c-0.02-0.033-0.042-0.067-0.063-0.102c-0.193-0.3-0.387-0.602-0.58-0.902
			c-0.319-0.5-0.398-1.09-0.178-1.317c0.134-0.138,0.268-0.275,0.4-0.412c0.398-0.412,0.796-0.821,1.192-1.23
			c0.658-0.679,1.081-1.406,0.942-1.624c-0.139-0.217-0.884,0.237-1.667,1.016c-0.132,0.131-0.264,0.261-0.394,0.392
			c-0.783,0.779-1.765,0.861-2.195,0.187c-0.431-0.675-0.148-1.848,0.64-2.624c0.123-0.122,0.246-0.243,0.369-0.365
			c0.786-0.775,1.278-1.618,1.093-1.876c-0.185-0.258-0.96,0.176-1.729,0.97c-0.116,0.119-0.231,0.238-0.347,0.357
			c-0.769,0.793-1.547,1.198-1.741,0.904c-0.194-0.293,0.27-1.172,1.04-1.963c0.104-0.106,0.206-0.212,0.309-0.317
			c0.771-0.792,1.193-1.696,0.934-2.011c-0.26-0.315-1.112,0.062-1.898,0.837c-0.074,0.073-0.148,0.146-0.223,0.219
			c-0.786,0.775-1.716,0.99-2.086,0.488s-0.031-1.521,0.764-2.287c0.017-0.016,0.033-0.032,0.05-0.047
			c0.795-0.767,1.354-1.477,1.251-1.587c-0.102-0.11-0.822,0.44-1.601,1.224c-0.004,0.004-0.007,0.008-0.011,0.011
			c-0.778,0.784-1.678,1.074-2.022,0.657c-0.345-0.418-0.006-1.39,0.767-2.178c0.893-0.912,1.783-1.818,2.671-2.72
			c0.774-0.788,1.788-2.117,2.387-2.885c0.598-0.768,2.02-0.911,2.923-0.275c2.297,1.615,4.234,4.02,5.895,6.03
			c3.635,4.401,6.482,9.331,9.62,14.069C32.152,23.876,32.294,24.545,31.843,24.467z"/>
		<path d="M36.693,29.535c-0.155-1.58-1.361-2.725-2.91-1.584c-0.971,0.715-1.102,1.763-1.671,2.777
			c-0.293,0.521-3.056-0.277-3.78-0.054c-0.614,0.19-1.5,0.396-1.78,1.081c-0.661,1.611-1.628,2.797-2.971,3.926
			c-0.102,0.086-0.162,0.159-0.187,0.221c-0.062,0.15,0.149,0.252,0.187,0.274c0.019,0.013,0.041,0.022,0.067,0.034
			c3.654,1.475,7.414,2.605,11.207,3.663c0.477,0.133,1.56,0.011,1.738-0.574c0.007-0.022,0.012-0.045,0.017-0.067
			c0.009-0.039,0.053-0.106,0.097-0.153c0.044-0.048,0.14-0.327,0.192-0.628c0.054-0.303,0.072-0.551,0.057-0.557
			c-0.017-0.006,0.138-0.895,0.181-1.998C37.219,33.794,36.906,31.691,36.693,29.535z M26.108,35.479
			c-0.084,0.08-0.231,0.114-0.33,0.078c-0.099-0.037,0.521-0.639,1.236-1.48c0.546-0.641,1.003-1.346,1.268-2.131
			c0.073-0.215,0.419-0.271,0.854-0.254c0.52,0.021,0.278,0.715-0.531,1.465c-0.782,0.725-1.564,1.449-2.346,2.173
			C26.207,35.382,26.157,35.43,26.108,35.479z M34.756,38.172c-0.156,0.15-1.018,0.064-1.916-0.206
			c-0.9-0.271-1.366-0.76-1.046-1.082c0.32-0.321,0.339-0.676,0.036-0.791c-0.302-0.114-0.836,0.054-1.193,0.38
			c-0.357,0.328-1.462,0.328-2.456-0.025c-0.994-0.354-1.164-1.301-0.389-2.086c0.361-0.367,0.726-0.735,1.089-1.104
			c0.774-0.785,1.61-1.387,1.865-1.344c0.199,0.033,0.363,0.061,0.463,0.064c0.728,0.035,1.435-0.305,2.041-0.656
			c0.438-0.252,0.777-0.731,0.968-1.189c0.608-1.477,0.462-0.925,0.584,0.322c0.183,1.854,0.428,3.65,0.398,5.451
			C35.182,37.01,34.912,38.021,34.756,38.172z"/>
	</g>
</g>
<g>
</g>
<g>
</g>
<g>
</g>
<g>
</g>
<g>
</g>
<g>
</g>
<g>
</g>
<g>
</g>
<g>
</g>
<g>
</g>
<g>
</g>
<g>
</g>
<g>
</g>
<g>
</g>
<g>
</g>
</svg>
