<?xml version="1.0" encoding="iso-8859-1"?>
<!-- Generator: Adobe Illustrator 16.0.0, SVG Export Plug-In . SVG Version: 6.00 Build 0)  -->
<!DOCTYPE svg PUBLIC "-//W3C//DTD SVG 1.1//EN" "http://www.w3.org/Graphics/SVG/1.1/DTD/svg11.dtd">
<svg version="1.1" id="Capa_1" xmlns="http://www.w3.org/2000/svg" xmlns:xlink="http://www.w3.org/1999/xlink" x="0px" y="0px"
	 width="44.473px" height="44.474px" viewBox="0 0 44.473 44.474" style="enable-background:new 0 0 44.473 44.474;"
	 xml:space="preserve">
<g>
	<g>
		<path d="M17.57,8.609c-0.028-0.036-0.043-0.212-0.133-0.351c-0.091-0.14-0.618-0.315-1.09-0.22
			c-0.305,0.06-0.594,0.22-0.748,0.414c-2.697,3.404-6.163,6.394-8.523,10.009c-1.461,2.239-1.651,4.577-2.038,6.963
			C4.95,25.969,4.41,26.199,3.89,26.385c-0.332,0.118-0.602,0.359-0.637,0.705c-0.411,4.047,2.535,8.628,5.086,11.5
			c4.133,4.654,10.837,6.529,16.865,5.689c11.253-1.57,19.776-17.396,14.407-27.659c-0.13-0.248-0.434-0.334-0.756-0.309
			c-0.476,0.037-0.98-0.114-1.226-0.609c-2.008-4.07-4.972-7.543-8.351-10.682C27.821,3.666,24.45-0.05,22.181,0
			c-0.379,0.009-1.296,0.444-1.048,0.979c0.932,2.008-0.849,4.98-2.797,7.001C17.954,8.38,17.598,8.645,17.57,8.609z M8.774,19.066
			c0.19-0.377,0.405-0.753,0.651-1.129c1.066-1.634,2.791-2.822,4.182-4.186c0.653-0.64,1.2-1.343,1.718-2.065
			c0.321-0.449,0.81-0.631,1.153-0.622c0.209,0.006,0.424-0.045,0.596-0.148c0.041-0.024,0.084-0.053,0.127-0.081
			c0.069-0.047-0.188,0.238-0.572,0.634c-2.525,2.597-5.053,5.191-7.574,7.789C8.669,19.654,8.524,19.558,8.774,19.066z
			 M22.661,4.885c0.122-0.249,0.231-0.5,0.326-0.75c0.195-0.517,0.404-1.079,0.551-1.228c0.146-0.149,0.438-0.127,0.653,0.055
			c0.217,0.181,0.077,0.649-0.309,1.045c-0.335,0.346-0.671,0.691-1.006,1.036C22.491,5.439,22.418,5.381,22.661,4.885z
			 M19.741,9.786c0.009,0.088,0.014,0.176,0.017,0.264c0.005,0.144,0.011,0.252,0.021,0.24c0.007-0.007,0.014-0.014,0.021-0.021
			c1.566-1.732,3.104-3.46,4.637-5.186c0.366-0.413,0.703-0.848,0.746-0.975s0.41,0.063,0.822,0.431
			c0.771,0.688,1.443,1.304,1.79,1.612c4.242,3.77,7.775,8.444,9.457,13.905c0.113,0.369,0.421,0.503,0.759,0.483
			c0.54-0.03,1.01,0.056,1.119,0.598c0.976,4.79-0.542,9.947-3.486,14.053c-0.32,0.449-0.923,1.109-1.319,1.493
			c-0.847,0.815-1.715,1.654-2.604,2.515c-0.396,0.385-1.079,0.959-1.543,1.26c-2.733,1.77-5.852,2.755-9.042,2.527
			c-2.724-0.193-5.795-1.384-8.513-3.229c-0.456-0.311-0.738-0.657-0.644-0.752c0.094-0.096-0.002-0.354-0.207-0.588
			c-0.204-0.232-0.477-0.321-0.618-0.192c-0.141,0.128-0.601-0.052-1.006-0.427c-2.375-2.189-4.188-4.91-4.775-7.844
			c-0.109-0.541-0.091-0.782-0.017-0.529c0.072,0.254,0.447,0.137,0.832-0.26c0.06-0.062,0.12-0.123,0.18-0.186
			c0.386-0.396,0.646-0.926,0.74-1.146c0.093-0.219,0.623-0.256,0.976-0.62c0.352-0.364,0.672-1.017,0.73-1.455
			c0.058-0.44-0.197-0.478-0.589-0.089c-0.309,0.308-0.615,0.613-0.921,0.916c-0.392,0.39-0.6,0.269-0.485-0.271
			c0.218-1.035,0.385-2.053,0.592-3.06c0.111-0.541,0.535-1.29,0.929-1.679c0.821-0.811,1.643-1.62,2.465-2.431
			c0.394-0.388,0.97-1.069,1.327-1.491c0.396-0.468,0.838-0.916,1.328-1.336c2.654-2.272,4.172-4.114,5.191-5.944
			C19.186,9.408,19.672,9.104,19.741,9.786z"/>
		<path d="M18.061,36.873c-0.234,0.218-0.28,0.55-0.09,0.729c0.189,0.18,0.49,0.178,0.657,0.012c0.166-0.168,0.189-0.48,0.066-0.709
			S18.296,36.656,18.061,36.873z"/>
		<path d="M17.794,33.972C17.84,33.927,17.838,33.926,17.794,33.972C17.748,34.016,17.749,34.016,17.794,33.972z"/>
		<path d="M32.828,24.195c0.189-0.205,0.283-0.43,0.214-0.502c-0.042-0.045-0.084-0.088-0.132-0.129
			c-0.113-0.098-0.22-0.191-0.321-0.285c-0.176-0.16-0.43-0.182-0.567-0.045s-0.069,0.478,0.127,0.775
			C32.344,24.309,32.636,24.4,32.828,24.195z"/>
		<path d="M11.231,23.371c-0.255,0.107-0.466,0.281-0.544,0.494C8.69,29.295,10.65,34.873,14.52,38.89
			c0.048,0.054,0.089,0.095,0.141,0.136c3.076,2.434,7.01,3.047,10.598,2.228c0.538-0.123,0.789-0.077,0.57,0.147
			c-0.219,0.223-0.262,0.397-0.097,0.383c0.165-0.018,0.529-0.265,0.814-0.553c0.284-0.287,0.935-0.677,1.436-0.91
			c2.644-1.23,4.863-3.31,6.056-6.045c0.221-0.508,0.469-1.043,0.605-1.179l0.249-0.244c0.222-0.222,0.442-0.444,0.665-0.668
			c0.366-0.368,0.6-0.791,0.557-0.958c-0.042-0.167-0.368,0.01-0.746,0.396c-0.379,0.39-0.582,0.273-0.504-0.266
			c0.047-0.32,0.079-0.648,0.1-0.98c0.015-0.252-0.105-0.422-0.287-0.525c-0.305-0.173-0.633-0.207-0.654-0.312
			c-0.021-0.104,0.273-0.512,0.658-0.906c0.046-0.047,0.091-0.094,0.137-0.141c0.387-0.396,0.606-1.039,0.46-1.426
			s-0.595-0.381-0.973,0c-0.378,0.379-0.789,0.254-0.95-0.275c-0.476-1.555-1.172-2.969-2.521-4.369
			c-0.979-1.015-3.035-4.637-4.868-4.523c-0.018,0.001-0.035,0.003-0.054,0.006c-0.029,0.005-0.101-0.026-0.157-0.068
			c-0.06-0.043,0.016-0.189,0.164-0.327c0.147-0.139,0.096-0.491-0.091-0.805c-0.186-0.312-0.495-0.408-0.725-0.195
			c-0.229,0.212-0.619,0.151-0.847-0.157c-0.229-0.308-0.093-0.842,0.269-1.173c0.363-0.331,0.668-0.756,0.727-0.938
			c0.034-0.107,0.082-0.212,0.147-0.31c0.029-0.043-0.319,0.156-0.904,0.558c-0.455,0.312-0.842,0.608-0.874,0.641
			c-0.033,0.033-0.267-0.329-0.34-0.852c-0.047-0.322-0.027-0.641,0.084-0.944c0.247-0.68-0.57-0.966-1.107-0.792
			c-3.94,1.271-7.695,5.725-9.842,9.825C12.159,22.855,11.615,23.209,11.231,23.371z M22.731,39.605
			c-4.258,0.223-6.624-3.33-6.697-6.852c-0.011-0.553,0.371-1.303,0.777-1.678c1.549-1.43,3.095-2.86,4.64-4.293
			c0.404-0.375,1.183-0.651,1.722-0.531C30.139,27.8,31.044,39.166,22.731,39.605z M17.224,28.56
			c0.446-0.638,1.021-1.188,1.727-1.608c0.475-0.283,0.571-0.129,0.167,0.246c-0.555,0.516-1.109,1.029-1.664,1.545
			C17.049,29.117,16.908,29.012,17.224,28.56z M12.93,25.681c1.086-3.304,4.125-8.368,7.63-10.74
			c0.458-0.31,0.901-0.069,1.051,0.462c0.658,2.353,2.663,5.096,4.54,4.678c0.013-0.003,0.023-0.007,0.033-0.012
			c0.02-0.009,0.315,0.335,0.676,0.752c0.802,0.924,1.866,2.072,2.552,2.802c0.377,0.402,0.991,1.033,1.292,1.496
			c1.122,1.736,1.191,4.006,1.597,5.955c0.03,0.146,0.106,0.248,0.207,0.318c0.178,0.123,0.304,0.568,0.165,1.104
			c-0.67,2.58-2.308,4.64-4.416,5.965c-0.468,0.294-0.509,0.225-0.109-0.156c1.328-1.266,2.269-2.939,2.577-4.789
			c0.521-3.126-1.14-5.646-3.549-7.109c-0.472-0.287-0.85-0.504-0.811-0.541c0.038-0.037,0.027-0.088-0.023-0.11
			c-0.052-0.024-0.124-0.015-0.162,0.022c-0.039,0.037-0.478-0.119-1.003-0.291c-0.293-0.096-0.591-0.177-0.892-0.244
			c-0.538-0.119-0.975-0.178-0.959-0.19c0.014-0.013-0.033-0.026-0.105-0.031c-0.043-0.002-0.087-0.005-0.131-0.005
			c-0.021,0-0.042,0.002-0.062,0.004c-0.034,0.004-0.113-0.001-0.178-0.002c-0.064-0.001-0.166,0-0.226,0.006
			c-0.059,0.006-0.556,0.043-1.101,0.129c-3.778,0.59-6.872,2.996-7.543,7.027c-0.141,0.846-0.122,1.646,0.028,2.395
			c0.108,0.543,0.022,0.59-0.256,0.112c-1.317-2.266-2.052-4.805-1.882-7.403c0.036-0.553,0.385-1.016,0.67-1.176
			C12.727,25.998,12.874,25.852,12.93,25.681z"/>
		<path d="M33.885,25.986c0.319-0.322,0.524-0.672,0.454-0.777c-0.07-0.107-0.363,0.059-0.652,0.365
			c-0.289,0.308-0.491,0.654-0.45,0.775S33.566,26.308,33.885,25.986z"/>
		<path d="M7.533,32.828c-0.321,0.3-0.452,0.789-0.283,1.09c0.17,0.301,0.553,0.324,0.844,0.058c0.291-0.269,0.404-0.75,0.266-1.083
			C8.219,32.558,7.854,32.527,7.533,32.828z"/>
		<path d="M8.798,35.209c-0.254,0.236-0.415,0.49-0.358,0.566c0.058,0.076,0.296-0.058,0.532-0.298
			c0.237-0.239,0.396-0.493,0.357-0.563C9.289,34.843,9.052,34.974,8.798,35.209z"/>
	</g>
</g>
<g>
</g>
<g>
</g>
<g>
</g>
<g>
</g>
<g>
</g>
<g>
</g>
<g>
</g>
<g>
</g>
<g>
</g>
<g>
</g>
<g>
</g>
<g>
</g>
<g>
</g>
<g>
</g>
<g>
</g>
</svg>
