<?xml version="1.0" encoding="iso-8859-1"?>
<!-- Generator: Adobe Illustrator 16.0.0, SVG Export Plug-In . SVG Version: 6.00 Build 0)  -->
<!DOCTYPE svg PUBLIC "-//W3C//DTD SVG 1.1//EN" "http://www.w3.org/Graphics/SVG/1.1/DTD/svg11.dtd">
<svg version="1.1" id="Capa_1" xmlns="http://www.w3.org/2000/svg" xmlns:xlink="http://www.w3.org/1999/xlink" x="0px" y="0px"
	 width="30.888px" height="30.888px" viewBox="0 0 30.888 30.888" style="enable-background:new 0 0 30.888 30.888;"
	 xml:space="preserve">
<g>
	<g>
		<path d="M2.604,28.789c-0.091,0.107-0.258,0.298-0.18,0.461c1.094,2.285,3.001,1.381,5.302,1.32
			c5.269-0.14,11.54-0.807,16.699,0.303c0.047,0.01,0.098,0.015,0.151,0.015c0.085,0,0.246-0.004,0.363-0.011
			c0.067-0.004,0.137-0.013,0.21-0.027c0.835-0.167,1.969-0.459,2.261-1.434c0.495-1.652,1.768-5.709,0.587-7.187
			c-0.599-0.747-2.135-0.02-2.724,0.298c-0.506,0.271-0.566,0.517-0.849,1.071c-1.106,2.182-3.166,3.43-5.821,3.697
			c-3.722,0.376-7.126-0.19-6.919-4.638c0.124-2.665-1.217-5.937,2.84-6.279c3.023-0.255,4.434,0.512,6.438,2.657
			c0.312,0.335,1.056,0.202,1.387,0.2c0.806-0.006,1.545-0.509,1.711-1.363c0.235-1.207,0.462-6.263-0.588-7.592
			c-0.223-0.282-0.742-0.23-1.038-0.15c-0.493,0.133-1.271,0.22-1.591,0.717c-0.461,0.714-1.25,2.248-2.088,2.373
			c-2.485,0.372-6.935,0.608-7.048-3.593c-0.073-2.677-0.701-5.87,3.845-5.959c1.727-0.034,3.477,0.122,5.18,0.385
			c4.097,0.632,1.218,3.224,3.534,3.82c1.486,0.382,2.647-0.689,2.589-2.142c-0.1-2.514,1.065-6.211-2.498-5.681
			c-5.966,0.887-12.21,0.324-18.223,0.297c-0.35-0.001-4.93,0.484-3.07,2.18c1.47,1.34,2.718,1.461,3.105,3.674
			c0.634,3.617-0.023,7.741,0.016,11.408c0.03,2.928,0.419,5.982-0.221,8.867C5.911,26.727,3.154,28.142,2.604,28.789z
			 M5.888,28.719c-0.098,0.092-0.271,0.149-0.385,0.124c-0.143-0.031-0.199-0.06-0.132-0.077c0.122-0.033,0.238-0.065,0.349-0.099
			C5.912,28.61,5.985,28.628,5.888,28.719z M14.479,28.611c2.382,0.202,5.866,0.161,8.384-0.835c0.51-0.203,0.942-0.407,1.317-0.658
			c0.633-0.422,1.551-0.943,1.79-1.752c0.257-0.867,0.343-0.844,0.313-0.379c-0.034,0.551-0.442,1.31-0.831,1.701
			c-0.059,0.058-0.115,0.116-0.173,0.173c-0.39,0.392-0.404,0.663-0.041,0.583c0.365-0.079,0.562,0.28,0.404,0.81
			c-0.052,0.177-0.105,0.345-0.16,0.499c-0.185,0.521-0.886,0.806-1.433,0.727c-4.532-0.651-9.416-0.076-13.946-0.117
			c-0.29-0.002-1.685-0.133-2.892-0.274c-0.549-0.063-0.679-0.444-0.291-0.838c0.695-0.705,1.393-1.412,2.093-2.121
			c0.388-0.393,0.737-0.257,0.939,0.258C10.594,28.022,12.277,28.424,14.479,28.611z M8.937,8.569
			c0.342-0.347,0.586-0.289,0.57,0.132C9.49,9.123,9.211,9.759,8.858,10.124c-0.354,0.365-0.616,0.306-0.588-0.132
			C8.298,9.554,8.594,8.917,8.937,8.569z M8.325,9.04C8.329,8.966,8.613,8.618,8.96,8.264c0.348-0.355,0.622-0.583,0.613-0.51
			C9.565,7.828,9.281,8.175,8.938,8.529C8.596,8.884,8.32,9.113,8.325,9.04z M8.873,11.779c0.017-0.017,0.033-0.033,0.05-0.049
			c0.393-0.388,0.776-0.256,0.945,0.27c0.109,0.338,0.245,0.656,0.414,0.942c0.279,0.476,0.31,1.089-0.082,1.479
			c-0.378,0.376-0.753,0.75-1.126,1.121c-0.392,0.391-0.745,0.26-0.784-0.291c-0.045-0.609-0.082-1.203-0.104-1.769
			C8.163,12.93,8.48,12.167,8.873,11.779z M8.201,25.494c0.136-0.535,0.486-1.239,0.837-1.561c0.351-0.322,0.645-0.374,0.648-0.116
			c0.002,0.164,0.001,0.32-0.006,0.465c-0.008,0.159-0.009,0.31-0.006,0.456c0.006,0.251-0.304,0.759-0.709,1.134
			c-0.201,0.188-0.402,0.373-0.604,0.56C7.956,26.807,7.823,26.707,8,26.185C8.073,25.958,8.142,25.729,8.201,25.494z M8.631,21.707
			c0.008-0.517,0.202-1.126,0.454-1.36c0.251-0.234,0.446-0.021,0.459,0.479c0.014,0.499-0.182,1.107-0.453,1.36
			S8.624,22.225,8.631,21.707z M11.816,14.228c0.22,0.076,0.46,0.126,0.723,0.144c2.1,0.148,6.899,0.958,8.704-0.808
			c0.799-0.783,0.81-2.026,0.666-0.398c-0.08,0.912,0.245,2.326,0.18,2.965c-0.058,0.55-0.549-0.081-0.369-0.251
			c0.179-0.169,0.273-0.312,0.211-0.317c-0.063-0.006-0.236,0.108-0.384,0.254c-0.148,0.145-0.322,0.211-0.386,0.146
			c-0.036-0.036-0.074-0.074-0.114-0.119c-1.744-1.896-7.173-0.732-9.203-0.168c-1.446,0.402-2.019,1.625-2.216,3.078
			C9.555,19.3,9.341,19.955,9.087,20.21s-0.469,0.015-0.493-0.538c-0.017-0.393-0.039-0.788-0.064-1.182
			c-0.035-0.551,0.242-1.319,0.627-1.716c0.432-0.446,0.863-0.893,1.294-1.336c0.385-0.396,0.698-0.904,0.701-1.133
			C11.155,14.078,11.431,14.093,11.816,14.228z M6.333,2.423C6.301,2.405,6.273,2.389,6.25,2.373c-0.046-0.03,0.11-0.251,0.35-0.494
			c0.239-0.243,0.882-0.436,1.434-0.407c0.82,0.044,1.595,0.118,1.858,0.122c2.791,0.037,5.587,0.092,8.378,0.011
			c1.954-0.057,7.142-1.634,6.518,1.872c-0.024,0.14-0.04,0.269-0.05,0.388c-0.016,0.216-0.152,0.253-0.354,0.101
			s-0.271-0.358-0.139-0.479c0.131-0.121,0.15-0.232,0.044-0.247c-0.108-0.015-0.271,0.05-0.362,0.144
			c-0.093,0.094-0.558-0.056-1.074-0.252C20.36,2.187,17.086,2.45,14.71,2.498c-1.859,0.037-3.158,0.527-3.998,1.69
			c-0.324,0.447-0.81,1.183-1.203,1.57c-0.152,0.15-0.305,0.299-0.457,0.449C8.659,6.593,8.323,6.459,8.25,5.913
			c-0.03-0.223-0.067-0.442-0.112-0.655C8.022,4.716,8.173,3.98,8.563,3.588C8.592,3.559,8.623,3.529,8.652,3.5
			C9.042,3.107,9.197,2.752,9,2.711C8.804,2.669,8.405,2.875,8.113,3.17S7.397,3.336,7.051,2.976
			C6.843,2.761,6.605,2.575,6.333,2.423z"/>
	</g>
</g>
<g>
</g>
<g>
</g>
<g>
</g>
<g>
</g>
<g>
</g>
<g>
</g>
<g>
</g>
<g>
</g>
<g>
</g>
<g>
</g>
<g>
</g>
<g>
</g>
<g>
</g>
<g>
</g>
<g>
</g>
</svg>
