<?xml version="1.0" encoding="iso-8859-1"?>
<!-- Generator: Adobe Illustrator 16.0.0, SVG Export Plug-In . SVG Version: 6.00 Build 0)  -->
<!DOCTYPE svg PUBLIC "-//W3C//DTD SVG 1.1//EN" "http://www.w3.org/Graphics/SVG/1.1/DTD/svg11.dtd">
<svg version="1.1" id="Capa_1" xmlns="http://www.w3.org/2000/svg" xmlns:xlink="http://www.w3.org/1999/xlink" x="0px" y="0px"
	 width="35.424px" height="35.424px" viewBox="0 0 35.424 35.424" style="enable-background:new 0 0 35.424 35.424;"
	 xml:space="preserve">
<g>
	<g>
		<path d="M2.477,20.69c0.189,0.504,0.407,1.008,0.652,1.491c0.252,0.499,0.54,0.974,0.811,1.383
			c0.626,0.944,1.408,1.736,2.317,2.353c0.308,0.376,0.917,0.853,1.796,1.154c0.877,0.275,1.771,0.422,2.816,0.514
			c1.03,0.069,2.199,0.077,3.336-0.304c1.062-0.357,1.92-0.769,2.761-1.309l0.267-0.172l0.091-0.192
			c0.132-0.278,0.234-0.532,0.336-0.792c0.057-0.07,0.11-0.141,0.151-0.21c0.194-0.342,0.299-0.562,0.299-0.65v-2.059
			c0.271,0.312,0.543,0.63,0.814,0.922l0.024,0.027l0.031,0.018c0.5,0.292,0.987,0.521,1.465,0.699
			c0.034,0.015,0.066,0.033,0.103,0.047c0.269,0.111,0.541,0.214,0.829,0.296c0.27,0.089,0.665,0.13,0.906,0.132
			c1.093,0.038,2.191,0.284,3.019,0.924c0.401,0.317,0.782,0.718,0.984,1.161c0.117,0.226,0.162,0.452,0.196,0.673l0.011,0.215
			l0.003,0.055c-0.001-0.034-0.001,0.021-0.001,0.027l-0.002,0.108l-0.005,0.431c-0.01,0.579-0.002,1.15-0.037,1.706
			c-0.034,0.528-0.082,1.135-0.165,1.588c-0.104,0.194-0.271,0.427-0.414,0.566c-0.016,0.017-0.031,0.034-0.063,0.062l-0.041,0.034
			v-0.001l-0.022,0.01c-0.002,0.001-0.009,0.003-0.013,0.004c-0.002-0.001,0,0,0,0c-0.017,0.005-0.037,0.011-0.057,0.018
			c-0.109,0.031-0.249,0.057-0.386,0.079c-0.576,0.082-1.131,0.123-1.726,0.094c-0.595-0.02-1.195-0.055-1.781-0.116l-0.225-0.027
			c-0.006-0.006-0.013-0.013-0.018-0.019c-0.155-0.188-0.296-0.419-0.43-0.693c-0.123-0.275-0.191-0.593-0.191-0.953
			c0-0.517,0.092-0.89,0.266-1.132l0.158,0.002c0.228,0.001,0.422,0.018,0.677,0.035l0.081,0.001
			c0.253-0.03,0.268-0.091,0.329-0.123c0.079-0.067,0.112-0.112,0.144-0.151c0.06-0.081,0.097-0.147,0.134-0.215
			c0.004-0.006,0.005-0.013,0.008-0.021c0.024,0.002,0.045,0.001,0.07,0.003c0.082,0.008,0.157,0.014,0.227,0.018
			c0.125,0.009,0.307,0.029,0.405,0.042c0.102,0.013,0.184-0.627,0.184-1.415c0-0.787-0.652-1.412-1.439-1.271
			c-0.004,0-0.008,0.003-0.012,0.003c-0.046-0.025-0.091-0.06-0.138-0.083c-0.509-0.235-1.031-0.362-1.647-0.272l-0.038,0.005
			l-0.037,0.015c-0.919,0.354-1.74,0.752-2.567,1.344c-0.42,0.308-0.784,0.768-0.988,1.258c-0.21,0.479-0.297,1.033-0.311,1.511
			c-0.018,0.971,0.082,1.966,0.515,2.901c0.412,0.901,1.116,1.724,1.997,2.213c0.427,0.251,0.921,0.439,1.395,0.554
			c0.514,0.107,0.966,0.134,1.438,0.169c0.927,0.066,1.887,0.072,2.812-0.003c0.932-0.072,1.858-0.165,2.797-0.404
			c0.258-0.06,0.497-0.148,0.724-0.259c0.386-0.1,0.741-0.225,1.023-0.387c0.598-0.344,1.157-0.792,1.683-1.346
			c0.44-0.457,0.881-1.027,1.312-1.713c0.438-0.685,0.819-1.505,1.164-2.455c0.347-0.951,0.616-2.064,0.822-3.345
			c0.208-1.277,0.311-2.746,0.311-4.405c0-3.304-0.116-5.915-0.354-7.83c-0.24-1.919-0.52-3.399-0.848-4.442
			c-0.323-1.042-0.653-1.768-0.98-2.178c-0.323-0.412-0.562-0.74-0.718-0.984c-0.15-0.24-0.454-0.488-0.896-0.74
			c-0.437-0.25-0.943-0.488-1.494-0.707c-0.059-0.023-0.12-0.04-0.179-0.062c-0.154-0.103-0.314-0.206-0.487-0.312
			c-0.868-0.47-1.773-0.763-2.85-1.097l-0.016-0.005L25.45,2.688c-0.905-0.073-1.873-0.136-2.886-0.188
			c-0.441-0.012-0.783-0.105-1.223-0.252c-0.207-0.073-0.415-0.161-0.605-0.256c-0.094-0.048-0.19-0.099-0.261-0.146l-0.033-0.022
			l-0.359,0.294c-0.003-0.003-0.007-0.005-0.011-0.007c0.1-0.099,0.191-0.203,0.283-0.322c0.033-0.031,0.018-0.001,0.027-0.004
			l0.06,0.04l0.003-0.002l-0.153-0.125c-0.408-0.334-0.792-0.603-1.23-0.868c-0.192-0.119-0.525-0.294-0.697-0.369
			c-0.437-0.188-0.671-0.206-0.94-0.261C16.402,0.041,15.5-0.004,14.494,0l-0.209,0.001l-0.164,0.064
			c-0.36,0.14-0.655,0.28-0.977,0.449c-0.159,0.086-0.318,0.175-0.499,0.295c-0.114,0.084-0.146,0.087-0.367,0.292
			c-0.058,0.057-0.096,0.101-0.096,0.103l-0.019,0.023l-0.074,0.097l-0.014,0.022L12.049,1.39c-0.079,0.137-0.096,0.197-0.129,0.278
			c-0.103,0.327-0.142,0.563-0.169,0.789c-0.265-0.118-0.632-0.003-1.037,0.373c-0.032-0.036-0.065-0.069-0.1-0.098
			c-0.026-0.024-0.055-0.041-0.083-0.062c-0.055-0.034-0.106-0.062-0.155-0.074c-0.035-0.014-0.062-0.042-0.102-0.049
			c-0.239-0.042-0.471,0.082-0.636,0.231L7.654,4.61L5.668,6.48L5.176,6.945c-0.163,0.146-0.343,0.344-0.33,0.596
			c0.018,0.252,0.216,0.425,0.403,0.54c0.037,0.022,0.077,0.037,0.116,0.056C5.39,8.152,5.405,8.161,5.438,8.18
			c0.019,0.008,0.039,0.013,0.058,0.021c0.067,0.028,0.136,0.052,0.206,0.074C5.73,8.284,5.759,8.298,5.788,8.306
			c0.021,0.007,0.049,0.013,0.073,0.019c0.004,0.001,0.007,0.002,0.01,0.003C5.876,8.33,5.883,8.331,5.888,8.332
			C5.91,8.337,5.93,8.343,5.952,8.347c0.259,0.057,0.667,0.052,0.674,0.035C6.665,8.384,6.697,8.39,6.738,8.39h0.027
			c0.01,0.002,0.026,0.003,0.036,0.005l-0.43,0.013C6.149,8.412,5.71,8.431,5.414,8.481C5.09,8.528,4.782,8.593,4.48,8.672
			c-0.303,0.08-0.597,0.171-0.9,0.287C3.426,9.019,3.274,9.08,3.101,9.163C2.913,9.269,2.794,9.275,2.373,9.638L2.28,9.718
			L2.21,9.826c-0.229,0.347-0.403,0.66-0.581,1.003c-0.077,0.155-0.188,0.381-0.258,0.55l-0.047,0.117
			c-0.049,0.117-0.067,0.175-0.092,0.254c-0.041,0.137-0.066,0.255-0.088,0.366c-0.141,0.85-0.146,1.508-0.128,2.289l0.002,0.081
			l0.002,0.013c0.147,1.06,0.311,2.062,0.526,3.118C1.779,18.673,2.107,19.723,2.477,20.69z M22.247,28.368
			c-0.039,0.055-0.096,0.101-0.205,0.107c-0.103-0.01-0.203-0.012-0.305-0.018C21.895,28.401,22.064,28.372,22.247,28.368z
			 M19.957,34.702c-0.953-0.324-1.81-0.964-2.343-1.826c-0.566-0.845-0.785-1.878-0.807-2.875c-0.05-0.979,0.17-2.1,0.975-2.778
			c0.797-0.635,1.707-1.06,2.639-1.423l0.007-0.003h0.007c0.381-0.057,0.759,0,1.111,0.125c-0.263,0.068-0.54,0.121-0.78,0.212
			c-0.701,0.248-1.347,0.648-1.942,1.201c-0.594,0.549-0.896,1.354-0.896,2.41c0,1.053,0.169,1.922,0.512,2.604
			c0.338,0.684,0.771,1.223,1.295,1.619c0.525,0.398,1.103,0.672,1.738,0.827c0.631,0.154,1.254,0.232,1.869,0.232h0.241
			C22.366,35.065,21.146,35.002,19.957,34.702z M27.953,28.641c0,0.883-0.032,1.833-0.104,2.116
			c-0.05,0.188-0.106,0.355-0.172,0.506c-0.12,0.25-0.314,0.477-0.585,0.689c-0.264,0.208-0.619,0.312-1.061,0.312h-1.915
			c-0.534,0-1.059-0.032-1.471-0.087c0.304,0.021,0.606,0.053,0.911,0.063c0.604,0.032,1.211-0.007,1.81-0.09
			c0.286-0.054,0.628-0.076,0.829-0.325c0.042-0.042,0.064-0.098,0.104-0.142c0.065-0.078,0.126-0.16,0.183-0.248
			c0.082-0.115,0.184-0.217,0.251-0.343l0.002-0.003v-0.003c0.209-1.151,0.232-2.317,0.247-3.47c0.001-0.039-0.001-0.082,0-0.122
			c0.105-0.113,0.152,0.923,0.266,0.704c0.043-0.271,0.077-0.541,0.104-0.807c0.012-0.146,0.028-0.233,0.03-0.426
			c-0.003-0.138,0.014-0.235-0.019-0.418c-0.088-0.65-0.379-1.119-0.667-1.457c-0.581-0.657-1.098-0.805-1.019-0.621
			c-0.176-0.186-0.381-0.354-0.603-0.508c0.634,0.17,1.176,0.431,1.615,0.789c0.839,0.686,1.264,1.447,1.264,2.288L27.953,28.641
			L27.953,28.641z M24.547,16.908c0.056-0.184,0.114-0.36,0.177-0.532c0.12-0.273,0.296-0.529,0.515-0.762
			c0.218-0.239,0.512-0.357,0.86-0.357c0.335,0,0.679,0.158,1.037,0.469c0.359,0.31,0.714,0.642,1.064,0.993
			c0.19,0.221,0.382,0.456,0.576,0.707c0.31,0.398,0.05,0.678-0.558,0.59c-0.386-0.056-0.751-0.114-1.094-0.177l-1.691-0.252
			c-0.198-0.034-0.369-0.062-0.516-0.082C24.635,17.463,24.458,17.204,24.547,16.908z M18.119,20.807
			c0.002-0.054,0.02-0.072,0.03-0.105c0.059,0.084,0.103,0.154,0.163,0.232c0.337,0.465,0.71,0.94,1.076,1.399
			c0.086,0.061,0.181,0.115,0.271,0.173c-0.096-0.058-0.198-0.109-0.29-0.17c0.009,0.012,0.018,0.022,0.026,0.032l-0.075-0.061
			c0.016,0.01,0.033,0.019,0.049,0.028c-0.008-0.009-0.015-0.018-0.023-0.026l0.062,0.048c-0.006-0.008-0.012-0.017-0.019-0.024
			c-0.016-0.011-0.031-0.021-0.048-0.03c-0.36-0.426-0.732-0.866-1.075-1.301c-0.054-0.064-0.098-0.126-0.146-0.192
			C18.119,20.809,18.119,20.808,18.119,20.807z M16.941,25.443l-0.06,0.104l-0.126,0.069c-1.231,0.675-2.684,1.143-2.669,0.99
			c0.167-0.093,0.345-0.188,0.532-0.287c0.854-0.17,1.536-0.396,2.027-0.687C16.754,25.57,16.848,25.507,16.941,25.443z
			 M11.153,9.761c0.354-0.137,0.767-0.292,1.021-0.669c0.431-0.709,0.552-1.473,0.617-2.237c0.023-0.771-0.007-1.505-0.004-2.258
			c-0.004-0.756-0.046-1.49,0.13-2.203c0.043-0.169,0.078-0.37,0.177-0.458c0.105-0.094,0.28-0.195,0.436-0.277
			c0.316-0.166,0.65-0.312,0.983-0.434c-0.007,0-0.014-0.001-0.022-0.001l0.041-0.007c-0.007,0.002-0.013,0.006-0.019,0.008
			c0.22,0.004,0.439,0.022,0.66,0.033c-0.092,0.023-0.184,0.045-0.261,0.073c-0.43,0.154-0.727,0.346-0.897,0.582
			c-0.162,0.235-0.257,0.51-0.27,0.824c-0.015,0.31-0.026,0.604-0.026,0.877v2.817c0,1.104-0.347,2.327-0.773,2.729
			c-0.341,0.323-1.2,0.592-2.095,0.69C10.952,9.821,11.054,9.797,11.153,9.761z M10.637,2.863c0.006,0.007,0.01,0.015,0.016,0.022
			l-0.014,0.013c-0.027-0.038-0.048-0.079-0.079-0.115C10.586,2.809,10.613,2.834,10.637,2.863z M6.201,7.026
			c-0.695,0.646-0.61,1.186,0.128,1.325c-0.004,0-0.006,0-0.01-0.001C5.914,8.305,5.495,8.203,5.157,7.957
			C4.99,7.835,4.85,7.634,4.902,7.42c0.047-0.211,0.219-0.363,0.375-0.508l1.904-1.794l1.901-1.757l0.471-0.425
			c0.021-0.019,0.044-0.035,0.065-0.054c0,0.016-0.068,0.087-0.041,0.08C9.79,2.795,9.981,2.682,9.96,2.664
			C9.963,2.663,9.966,2.661,9.97,2.66c0.254-0.075,0.462,0.082,0.606,0.296L6.201,7.026z M2.645,14.384
			c-0.007-0.626,0.028-1.301,0.137-1.897c0.104-0.498,0.477-1.107,0.804-1.619c-0.005,0.004-0.015,0.008-0.02,0.012l0.043-0.049
			c-0.008,0.012-0.016,0.025-0.023,0.037c0.151-0.114,0.555-0.276,0.862-0.37c0.032-0.01,0.065-0.014,0.098-0.023
			c-0.11,0.115-0.223,0.229-0.322,0.354c-0.24,0.333-0.468,0.738-0.674,1.21c-0.204,0.47-0.304,1.034-0.304,1.689
			c0,0.429,0.027,1.017,0.088,1.769c0.061,0.755,0.177,1.571,0.358,2.455c0.173,0.881,0.417,1.784,0.728,2.705
			c0.31,0.923,0.716,1.782,1.21,2.579c0.392,0.632,0.876,1.17,1.41,1.655c-0.228-0.15-0.45-0.314-0.664-0.512
			c-0.646-0.58-1.148-1.243-1.607-2.066c-0.431-0.757-0.773-1.588-1.061-2.486C3.108,18.104,2.858,16.256,2.645,14.384
			c0,0.005,0,0.012,0,0.017l-0.002-0.037C2.644,14.371,2.645,14.378,2.645,14.384z"/>
	</g>
</g>
<g>
</g>
<g>
</g>
<g>
</g>
<g>
</g>
<g>
</g>
<g>
</g>
<g>
</g>
<g>
</g>
<g>
</g>
<g>
</g>
<g>
</g>
<g>
</g>
<g>
</g>
<g>
</g>
<g>
</g>
</svg>
