<?xml version="1.0" encoding="iso-8859-1"?>
<!-- Generator: Adobe Illustrator 16.0.0, SVG Export Plug-In . SVG Version: 6.00 Build 0)  -->
<!DOCTYPE svg PUBLIC "-//W3C//DTD SVG 1.1//EN" "http://www.w3.org/Graphics/SVG/1.1/DTD/svg11.dtd">
<svg version="1.1" id="Capa_1" xmlns="http://www.w3.org/2000/svg" xmlns:xlink="http://www.w3.org/1999/xlink" x="0px" y="0px"
	 width="44.512px" height="44.512px" viewBox="0 0 44.512 44.512" style="enable-background:new 0 0 44.512 44.512;"
	 xml:space="preserve">
<g>
	<g>
		<path d="M40.606,7.27c-0.008-0.012-0.021-0.021-0.031-0.028c-0.021-0.013-0.363-0.498-0.85-1.011
			c-2.746-2.893-6.684-3.197-10.584-3.197c-1.897,0-3.43-0.716-4.91-1.451c-0.632-0.315-1.164-0.585-1.194-0.595
			c-0.019-0.007-0.038-0.01-0.057-0.018c-1.812-0.848-3.685-1.434-6.203-0.474c-0.59,0.225-1.031,0.508-1.364,0.834
			c-0.503,0.496-0.839,0.667-1.267,0.475c-0.214-0.096-0.486-0.144-0.832-0.128c-1.188,0.055-2.123,0.714-2.957,1.491
			C8.589,4.811,6.821,6.456,5.054,8.101c-0.928,0.861-1.157,1.933,0.282,2.271c1.048,0.246,2.294,0.076,3.359,0.076
			c1.52-0.045,4.082-0.224,5.18-1.482c0.044-0.049,0.081-0.102,0.119-0.154c0.06-0.086-0.075,0.407-0.542,0.938
			c-1.97,2.236-6.445,1.152-9.761,2.25c-2.78,0.921-2.659,5.052-2.509,7.301c0.384,5.805,2.592,12.43,8.732,14.012
			c3.181,0.822,7.334,0.365,10.259-1.146c1.745-0.904,1.934-2.051,1.89-3.219c-0.027-0.705,0.301-0.84,0.846-0.391
			c0.359,0.299,0.75,0.557,1.185,0.742c3.3,1.424,7.397,0.312,8.572,4.766c0.346,1.312,0.441,5.779-1.344,5.779
			c-2.719,0-5.469-0.328-5.062-3.574c0.058-0.447,0.854-0.207,1.055-0.186c0.518,0.055,1.814-0.145,2.01-0.756
			c1.972-6.186-5.855-3.004-8.059-1.312c-2.468,1.895-1.351,5.902-0.025,8.008c1.392,2.211,4.604,2.488,6.899,2.488
			c6.168,0,10.023-1.387,13.101-7.02c2.281-4.182,2.177-9.566,2.143-14.172C43.341,18.091,43.287,11.909,40.606,7.27z M12.374,7.109
			c-0.071,0.398-0.176,0.791-0.306,1.186c-0.339,1.029-1.438,0.992-2.339,1.018c-0.105,0-0.24,0.004-0.393,0.009
			C9.12,9.329,9.354,8.935,9.862,8.443c0.565-0.551,1.134-1.105,1.708-1.663C12.077,6.287,12.494,6.443,12.374,7.109z M11.574,4.754
			c-1.181,1.172-2.36,2.343-3.537,3.512c-0.502,0.497-1.36,0.695-1.193,0.315c0.069-0.16,0.218-0.353,0.468-0.585
			c1.112-1.035,2.226-2.07,3.338-3.106c0.567-0.528,1.136-1.057,1.704-1.585c0.016-0.015,0.032-0.029,0.048-0.046
			c0.028-0.025,0.021,0.096,0.044,0.273C12.469,3.708,12.074,4.257,11.574,4.754z M17.588,2.918c0.337-0.341,0.67-0.631,0.742-0.642
			c0.073-0.012-0.206,0.332-0.629,0.764c-0.422,0.431-0.768,0.715-0.751,0.637C16.965,3.6,17.251,3.259,17.588,2.918z M17.752,3.089
			c0.453-0.465,1.205-0.886,1.681-0.86c0.476,0.023,0.458,0.5-0.034,1.005c-0.521,0.536-1.041,1.072-1.562,1.606
			c-0.493,0.507-0.891,0.507-0.896,0.002C16.938,4.338,17.3,3.554,17.752,3.089z M24.446,40.873
			c-0.329,0.332-0.994,0.182-1.34-0.434c-0.094-0.17-0.18-0.342-0.256-0.52c-0.28-0.648-0.24-1.418-0.075-1.664
			s0.38-0.527,0.475-0.627c0.095-0.104-0.115,0.383,0.054,1.068c0.094,0.377,0.316,0.689,0.628,0.953
			C24.474,40.104,24.776,40.539,24.446,40.873z M26.218,34.455c0.424-0.451,0.893-0.545,0.88-0.184
			c-0.015,0.361-0.436,0.672-0.872,0.766C25.787,35.131,25.794,34.906,26.218,34.455z M40.541,31.908
			c-0.273,2.143-0.857,4.369-1.865,6.287c-0.327,0.627-0.907,1.352-1.227,1.656c-0.317,0.309-0.506,0.557-0.42,0.557
			c0.087,0-0.216,0.441-0.747,0.906c-1.355,1.186-3.08,1.957-5.254,2.062c-0.168,0.01-0.338,0.014-0.509,0.018
			c-0.281,0.006-0.432-0.074-0.336-0.17c0.095-0.096,0.074-0.229-0.041-0.299c-0.117-0.072-0.343-0.002-0.502,0.164
			c-0.161,0.164-0.865,0.283-1.566,0.191c-0.43-0.059-0.857-0.137-1.274-0.24c-0.685-0.17-0.822-0.803-0.335-1.312
			c0.003-0.004,0.004-0.004,0.005-0.006c0.488-0.51,1.454-0.85,2.158-0.805c0.987,0.066,1.849,0.059,2.295,0.059
			c1.463,0,2.422-0.441,3.05-1.16c0.464-0.531,1.053-1.502,1.548-2.004l3.622-3.676c0.496-0.504,0.875-1.055,0.827-1.225
			c-0.048-0.172-0.504,0.105-0.996,0.609c-1.051,1.078-2.103,2.156-3.153,3.234c-0.492,0.504-0.78,0.352-0.729-0.354
			c0.033-0.486,0.045-0.986,0.045-1.488c0-0.33-0.014-0.66-0.043-0.99c-0.049-0.547,0.26-1.393,0.749-1.898
			c0.284-0.291,0.569-0.586,0.858-0.883c0.492-0.508,0.472-1.133-0.083-1.293c-0.554-0.158-1.332,0.094-1.719,0.484
			c-0.389,0.391-0.871,0.453-1.143,0.197c-0.271-0.258-0.389-0.561-0.218-0.732c0.171-0.174,0.236-0.314,0.145-0.322
			c-0.093-0.006-0.275,0.104-0.408,0.244c-0.134,0.141-0.445,0.131-0.713,0.016c-0.155-0.066-0.319-0.127-0.496-0.18
			c-0.171-0.049-0.337-0.096-0.5-0.143c-0.277-0.078-0.416-0.234-0.31-0.352c0.108-0.115,0.162-0.229,0.119-0.246
			c-0.023-0.014-0.051-0.025-0.076-0.041c-0.288-0.178-0.554-0.361-0.803-0.555c-0.427-0.326-0.967-0.404-1.238-0.129
			s-1.042,0.33-1.7,0.078c-1.689-0.646-3.226-1.518-4.828-3.107c-0.493-0.488-1.9,0.104-2.288,0.496
			c-0.7,0.709-0.364,2.057-0.364,2.98c0,3.645-3.932,4.211-7.303,3.707c-0.698-0.105-0.94-0.561-0.551-0.957
			c0.39-0.395,0.665-0.756,0.61-0.805c-0.055-0.047-0.46,0.25-0.909,0.666c-0.449,0.416-1.251,0.643-1.771,0.459
			c-0.522-0.186-0.502-0.77,0.018-1.246c0.182-0.168,0.364-0.336,0.545-0.502c0.521-0.479,0.922-0.896,0.892-0.934
			c-0.018-0.021-0.036-0.045-0.051-0.066c-0.128-0.207-0.247-0.42-0.363-0.637c-0.19-0.354-0.752-0.26-1.268,0.225
			c-0.362,0.336-0.724,0.674-1.085,1.012c-0.517,0.482-1.364,0.488-1.79-0.074c-0.403-0.535-0.748-1.133-1.048-1.758
			c-0.306-0.639-0.108-1.586,0.383-2.094c0.643-0.664,1.284-1.324,1.927-1.986c0.493-0.505,0.862-1.033,0.827-1.179
			c-0.023-0.089-0.043-0.178-0.061-0.265c-0.035-0.168-0.063-0.33-0.09-0.491c-0.047-0.273-0.488-0.09-0.989,0.408
			c-0.709,0.707-1.411,1.402-2.105,2.096c-0.501,0.498-1.018,0.559-1.15,0.135c-0.082-0.262-0.161-0.518-0.235-0.766
			c-0.044-0.145-0.091-0.306-0.139-0.477c-0.074-0.264,0.271-0.876,0.764-1.366c0.296-0.296,0.595-0.592,0.893-0.889
			c0.15-0.163,0.3-0.328,0.45-0.491c0.248-0.273,0.037-0.096-0.471,0.396c-0.303,0.291-0.597,0.577-0.88,0.85
			c-0.508,0.489-1.004,0.571-1.094,0.182c-0.09-0.391,0.255-1.112,0.758-1.608c0.943-0.932,1.888-1.861,2.832-2.792
			c0.503-0.497,0.916-1.325,1.009-1.841c0.06-0.328,0.146-0.633,0.266-0.908c0.084-0.188,0.17-0.367,0.259-0.535
			c0.153-0.291-0.105-0.107-0.597,0.399c-1.349,1.389-2.696,2.779-4.044,4.171c-0.491,0.507-0.958,0.443-1.002-0.145
			c-0.045-0.589,0.357-1.478,0.849-1.986c1.076-1.108,2.128-2.19,3.15-3.24c0.493-0.506,1.465-0.929,2.171-0.944
			c1.112-0.021,2.223-0.053,3.37-0.201c1.901-0.247,2.88-1.236,3.379-2.547c0.251-0.661,0.735-1.637,1.238-2.132
			c1.112-1.1,2.226-2.198,3.34-3.296c0.504-0.496,0.914-1.019,0.918-1.169c0.003-0.148,0.564-0.13,1.244,0.065
			c1.748,0.502,3.389,1.08,4.181,1.176c3.712,0.452,7.257,0.124,9.971,2.843c0.5,0.499,1.123,1.466,1.425,2.104
			c1.506,3.179,2.173,7.09,2.361,11.047c0.034,0.705-0.13,1.436-0.334,1.644c-0.205,0.208-0.192,0.417,0.021,0.399
			c0.215-0.018,0.374,0.451,0.366,1.156C41.128,26.402,40.868,29.361,40.541,31.908z"/>
		<path d="M39.059,19.26c-0.093-0.081-0.186-0.152-0.277-0.215c-0.158-0.109-0.705,0.223-1.205,0.721
			c-0.157,0.156-0.312,0.312-0.471,0.468c-0.501,0.499-0.925,0.871-0.949,0.831c-0.012-0.023-0.027-0.047-0.046-0.07
			c-1.396-1.777-2.919-3.382-5.32-2.68c-0.966,0.282-1.598,0.877-2.115,1.719c-0.479,0.777-0.614,1.674,0.342,2.023
			c0.057,0.021,0.12,0.02,0.182,0.029c1.089,0.171,2.146,0.315,3.194,0.498c1.043,0.185,2.027,0.305,3.027-0.126
			c0.215-0.093,0.418-0.206,0.578-0.341c0.283-0.24,0.449-0.55,0.605-0.524c0.086,0.014,0.179,0.029,0.279,0.047
			c0,0,0.258,0.038,0.574,0.085c0.317,0.048,0.965-0.332,1.446-0.849c0.002-0.003,0.005-0.005,0.007-0.008
			c0.482-0.516,0.713-1.087,0.515-1.275C39.305,19.479,39.183,19.367,39.059,19.26z M33.192,21.339
			c-0.083-0.013-0.166-0.024-0.25-0.037c-0.322-0.048-0.646-0.098-0.968-0.146c-0.534-0.081-1.272-0.405-1.159-0.815
			c0.078-0.276,0.235-0.56,0.307-0.701c0.022-0.038,0.05-0.071,0.077-0.105c0.045-0.056,0.177-0.049,0.295,0.024
			c0.071,0.042,0.14,0.09,0.202,0.146c0.108,0.085,0.489,0.413,0.904,0.806C33.085,20.97,33.331,21.36,33.192,21.339z"/>
		<path d="M20.905,9.31c-0.49,0.468-1.024,0.979-1.607,1.538c-0.511,0.488-0.491,0.837,0.03,0.711
			c0.521-0.128,1.176-0.561,1.492-0.885c0.314-0.323,0.723-0.941,0.842-1.402C21.78,8.811,21.414,8.822,20.905,9.31z"/>
	</g>
</g>
<g>
</g>
<g>
</g>
<g>
</g>
<g>
</g>
<g>
</g>
<g>
</g>
<g>
</g>
<g>
</g>
<g>
</g>
<g>
</g>
<g>
</g>
<g>
</g>
<g>
</g>
<g>
</g>
<g>
</g>
</svg>
