<?xml version="1.0" encoding="iso-8859-1"?>
<!-- Generator: Adobe Illustrator 16.0.0, SVG Export Plug-In . SVG Version: 6.00 Build 0)  -->
<!DOCTYPE svg PUBLIC "-//W3C//DTD SVG 1.1//EN" "http://www.w3.org/Graphics/SVG/1.1/DTD/svg11.dtd">
<svg version="1.1" id="Capa_1" xmlns="http://www.w3.org/2000/svg" xmlns:xlink="http://www.w3.org/1999/xlink" x="0px" y="0px"
	 width="46.563px" height="46.563px" viewBox="0 0 46.563 46.563" style="enable-background:new 0 0 46.563 46.563;"
	 xml:space="preserve">
<g>
	<g>
		<path d="M8.554,46.558c0.961,0.103,1.969-1.288,0.663-1.426C0.259,44.188,1.39,37.29,5.135,30.278
			c0.674,2.979,1.861,5.812,3.66,8.175c3.613,4.745,10.149,5.962,15.714,6.348c5.656,0.394,11.977-0.737,16.177-4.771
			c4.396-4.222,1.176-8.604-3.846-9.002c-2.216-0.177-4.444,0.562-6.449,1.416c-2.752,1.171-5.696,3.794-9.094,1.11
			c-3.119-2.463-2.211-6.924,2.137-7.602c4.247-0.662,8.811,0.104,13.049,0.519c2.883,0.282,5.45-0.031,7.737,1.797
			c0.356,0.285,1.825,0.072,1.863-0.499c0.688-10.489-5.412-20.468-15.468-23.714c6.517-3.508,12.479-3.912,12.063,6.354
			c-0.042,1.023,1.923,0.749,1.959-0.141c0.23-5.672-1.783-11.311-8.474-10.104c-2.881,0.52-5.637,1.708-8.243,3.267
			C16.22,1.664,6.361,7.729,4.705,20.13c-0.326,2.441-0.346,5.036-0.021,7.591C-0.438,36.265-2.799,45.361,8.554,46.558z
			 M29.093,4.927c9.12,2.976,14.94,11.672,15.116,21.125c0,0.04,0.005,0.077,0.007,0.116c-0.142-0.043-0.306-0.079-0.508-0.099
			c-0.209-0.021-0.408-0.026-0.595-0.026c-2.854-0.882-6.146-0.603-9.213-0.879c-4.412-0.398-9.08-0.815-13.346,0.621
			c-3.203,1.077-4.038,5.115-1.805,7.646c3.449,3.908,7.371,2.188,11.393,0.154c1.633-0.824,4.007-1.401,6.093-1.324
			c-0.113,0.087-0.229,0.171-0.326,0.269c-0.562,0.562-0.227,0.595,0.779,0.137c0.234-0.106,0.463-0.194,0.692-0.286
			c2.392,0.42,4.047,1.954,3.021,5.379c-1.57,5.239-8.433,6.191-13.777,6.087c-0.015-0.003-0.029-0.005-0.044-0.008
			c-0.687-0.116-1.357-0.147-1.727-0.067c-0.596-0.038-1.169-0.082-1.685-0.134c-1.373-0.138-2.703-0.384-3.978-0.733
			c0.138-0.08,0.267-0.174,0.373-0.28c0.401-0.402,0.419-0.879,0.053-1.087c-0.367-0.208-1.122,0.043-1.687,0.587
			c-0.143,0.137-0.231,0.229-0.286,0.295c-1.769-0.641-3.401-1.521-4.839-2.668c0.251-0.22,0.55-0.501,0.867-0.821
			c0.753-0.763,1.338-1.415,1.304-1.456c-0.033-0.041-0.708,0.526-1.51,1.269c-0.336,0.31-0.628,0.602-0.855,0.844
			c-0.574-0.474-1.114-0.993-1.621-1.557c0.324-0.143,0.677-0.369,1.011-0.677c0.118-0.107,0.235-0.216,0.353-0.323
			c0.813-0.747,1.269-1.732,1.047-2.216c-0.222-0.481-1.035-0.274-1.843,0.478c-0.234,0.218-0.468,0.436-0.702,0.652
			c-0.332,0.31-0.594,0.648-0.772,0.97c-0.556-0.752-1.064-1.565-1.502-2.458c-0.447-0.911-0.813-1.878-1.118-2.878
			c0.275-0.127,0.602-0.366,0.938-0.713c0.811-0.839,1.623-1.676,2.431-2.501c0.115-0.118,0.23-0.236,0.344-0.354
			c0.189-0.195,0.295-0.763,0.253-1.268s-0.703-0.282-1.485,0.497c-0.657,0.652-1.309,1.302-1.954,1.942
			c-0.353,0.353-0.655,0.751-0.874,1.128c-0.207-0.856-0.37-1.733-0.487-2.624c3.229-5.249,7.419-10.152,9.358-12.198
			C18.333,13.012,23.747,8.137,29.093,4.927z M7.633,15.097c1.781-5.993,6.206-9.369,11.498-10.515
			c-0.267,0.192-0.517,0.398-0.729,0.607c-3.432,3.37-6.922,6.802-10.47,10.295c-0.199,0.196-0.402,0.436-0.597,0.702
			C7.428,15.816,7.527,15.453,7.633,15.097z M6.671,19.648c0.182-0.059,0.394-0.196,0.63-0.439c1.576-1.618,3.086-3.167,4.515-4.63
			c0.772-0.79,1.759-2.253,2.328-3.2c1.347-2.245,3.137-4.066,5.295-5.398c0.94-0.579,2.112-1.288,2.541-1.716
			c0.031-0.03,0.049-0.059,0.072-0.089c0.07-0.004,0.141-0.006,0.211-0.01c-0.005,0.005-0.009,0.009-0.014,0.014
			c-0.372,0.384-0.626,0.675-0.569,0.648c0.056-0.025,0.371-0.322,0.71-0.669c1.345-0.062,2.714-0.012,4.094,0.173
			c-3.9,2.581-7.435,5.906-10.511,8.928c-1.061,1.043-2.628,2.739-4.362,4.826c-0.094-0.333-0.503-0.198-1.094,0.411
			c-1.106,1.14-2.21,2.28-3.315,3.421c-0.298,0.309-0.573,0.66-0.799,1.008C6.438,21.823,6.526,20.724,6.671,19.648z M6.649,24.656
			c-0.081,0.118-0.162,0.237-0.242,0.356c-0.002-0.039-0.005-0.078-0.007-0.118C6.478,24.822,6.56,24.742,6.649,24.656z"/>
		<path d="M16.339,18.652c0,0.122,0,0.244,0,0.366c0,0.391,0.908,0.259,1.479-0.019c3.057,0.383,9.695,1.231,13.342-0.131
			c0.72-0.2,1.603-0.697,2.22-1.271c0.942-0.875,1.884-1.75,2.826-2.625c0.809-0.752,1.256-1.733,0.932-2.143
			c-0.325-0.409-1.292-0.092-2.102,0.659c-0.203,0.188-0.405,0.376-0.608,0.563c-0.305,0.283-0.551,0.693-0.777,1.14
			c-0.101-0.921-0.439-1.72-0.938-2.397c0.233-0.152,0.484-0.336,0.75-0.578c0.748-0.684,1.107-1.345,0.792-1.436
			c-0.316-0.09-1.047,0.329-1.627,0.895c-0.172,0.168-0.314,0.337-0.438,0.501c-1.616-1.618-4.263-2.305-6.512-1.93
			c-3.533,0.59-6.846,3.212-8.497,6.44c-0.31,0.606-0.384,1.116-0.295,1.38C16.582,18.182,16.339,18.367,16.339,18.652z
			 M26.342,11.053c2.627-0.208,6.212,3.086,5.254,5.874c-1.053,3.062-10.057,1.455-13.141,1.057
			C19.542,14.616,22.693,11.344,26.342,11.053z"/>
		<path d="M11.269,32.862c0.589-0.552,1.06-1.022,1.052-1.057c-0.008-0.034-0.485,0.412-1.067,0.995S10.68,33.412,11.269,32.862z"/>
		<path d="M11.539,15.265c0.779-0.784,1.414-1.446,1.424-1.473c0.01-0.027-0.604,0.593-1.37,1.39
			C11.107,15.688,11.026,15.78,11.539,15.265z"/>
	</g>
</g>
<g>
</g>
<g>
</g>
<g>
</g>
<g>
</g>
<g>
</g>
<g>
</g>
<g>
</g>
<g>
</g>
<g>
</g>
<g>
</g>
<g>
</g>
<g>
</g>
<g>
</g>
<g>
</g>
<g>
</g>
</svg>
