<?xml version="1.0" encoding="iso-8859-1"?>
<!-- Generator: Adobe Illustrator 16.0.0, SVG Export Plug-In . SVG Version: 6.00 Build 0)  -->
<!DOCTYPE svg PUBLIC "-//W3C//DTD SVG 1.1//EN" "http://www.w3.org/Graphics/SVG/1.1/DTD/svg11.dtd">
<svg version="1.1" id="Capa_1" xmlns="http://www.w3.org/2000/svg" xmlns:xlink="http://www.w3.org/1999/xlink" x="0px" y="0px"
	 width="38.378px" height="38.377px" viewBox="0 0 38.378 38.377" style="enable-background:new 0 0 38.378 38.377;"
	 xml:space="preserve">
<g>
	<g>
		<path d="M24.938,25.984c0.831-0.055,1.645-0.102,2.429-0.127c0.245-0.008,0.575-0.148,0.841-0.326
			c0.42-0.279,0.343-1.572,0.337-2.677c-0.028-4.909-0.174-9.792-0.832-14.671c-0.278-2.071-0.479-6.564-2.805-7.612
			c-3.742-1.685-9.369,0.613-11.799,3.57C9.35,8.714,9.522,16.599,10.223,22.126c0.201,1.586,0.238,3.58,2.049,3.912
			c0.592,0.109,1.202,0.19,1.825,0.247c1.014,0.095,1.801,1.003,1.756,2.106c-0.153,3.797-0.165,9.613,3.331,9.963
			c2.127,0.213,3.348-1.079,3.581-3.021c0.286-2.401,0.151-4.807,0.144-7.211C22.903,27.018,23.834,26.056,24.938,25.984z
			 M20.561,36.744c-0.402,1.029-1.077-0.479-0.672-0.902c0.404-0.422,0.614-1.174,0.51-1.688c-0.104-0.513-0.569-0.521-1.077-0.011
			c-0.507,0.51-1.143,0.294-1.299-0.513c-0.154-0.809,0.281-1.988,0.873-2.621c0.592-0.631,1.053-1.717,1.05-2.422
			c-0.002-0.707-0.081-1.188-0.194-1.072c-0.068,0.068-0.137,0.138-0.206,0.207c-0.296,0.299-0.595,0.598-0.895,0.896
			c-0.496,0.492-0.886,0.192-0.852-0.666c0.032-0.858,0.768-1.567,1.644-1.61c0.875-0.041,1.537,0.805,1.542,1.91
			c0.005,1.41,0.065,2.824,0.05,4.229C21.026,33.166,21.004,35.612,20.561,36.744z M18.848,24.958
			c-0.982,0.006-1.96,0.107-2.854,0.115c-1.104,0.01-1.804-0.423-1.599-0.609c0.204-0.188,0.321-0.524,0.271-0.754
			c-0.028-0.129-0.058-0.269-0.087-0.418c-0.022-0.102-0.045-0.205-0.066-0.312c-0.036-0.172-0.394-0.006-0.802,0.373
			s-0.945,0.433-1.108,0.069c-0.163-0.362,0.175-1.061,0.68-1.532c0.506-0.472,0.905-0.939,0.893-1.043
			c-0.012-0.104-0.435,0.226-0.945,0.737c-0.511,0.512-1.065,0.264-1.181-0.564c-0.115-0.827,0.3-1.982,0.873-2.572
			c0.573-0.59,1.032-1.333,1.033-1.658c0-0.326-0.473-0.113-1.064,0.476c-0.592,0.588-1.113,0.171-1.087-0.933
			c0-0.017,0.001-0.031,0.001-0.046c0.028-1.104,0.642-2.521,1.295-3.164c0.654-0.646,1.254-1.687,1.367-2.321
			c0.114-0.635-0.34-0.558-1.044,0.17c-0.704,0.727-1.221,0.927-1.144,0.449c0.077-0.479,0.773-1.505,1.544-2.297
			c0.012-0.013,0.023-0.024,0.036-0.037c0.769-0.792,1.403-1.461,1.414-1.495c0.011-0.033-0.603,0.583-1.373,1.376
			c-0.021,0.021-0.043,0.044-0.064,0.065c-0.769,0.792-1.381,1.376-1.367,1.305c0.013-0.073,0.651-0.771,1.428-1.558
			c0.024-0.024,0.049-0.05,0.073-0.074c0.776-0.786,1.684-2.254,2.17-3.214c0.486-0.961,0.699-1.358,0.3-0.99
			c-0.244,0.225-0.486,0.446-0.725,0.667c-0.42,0.413-0.845,0.829-1.271,1.247c-0.702,0.689-0.992,0.414-0.516-0.559
			c0.286-0.584,0.609-1.15,0.972-1.697c0.706-1.062,1.72-1.7,2.845-2.116c1.036-0.384,1.829-0.429,1.705-0.314
			c-0.123,0.113-0.093,0.127,0.074,0.039c0.101-0.053,0.203-0.103,0.308-0.149c0.092-0.04,0.195-0.082,0.31-0.125
			c0.172-0.064,0.407-0.128,0.52-0.146c0.067-0.011,0.137-0.022,0.204-0.033c3.199-0.493,3.647,1.275,4.225,3.562
			c1.471,5.799,1.534,11.965,1.529,17.959c0,1.104-0.896,2.025-2.001,2.049C22.695,24.923,20.771,24.949,18.848,24.958z"/>
		<path d="M19.489,32.477c-0.322,0.329-0.315,0.333,0.009,0.007C19.821,32.157,19.811,32.148,19.489,32.477z"/>
	</g>
</g>
<g>
</g>
<g>
</g>
<g>
</g>
<g>
</g>
<g>
</g>
<g>
</g>
<g>
</g>
<g>
</g>
<g>
</g>
<g>
</g>
<g>
</g>
<g>
</g>
<g>
</g>
<g>
</g>
<g>
</g>
</svg>
