<?xml version="1.0" encoding="iso-8859-1"?>
<!-- Generator: Adobe Illustrator 16.0.0, SVG Export Plug-In . SVG Version: 6.00 Build 0)  -->
<!DOCTYPE svg PUBLIC "-//W3C//DTD SVG 1.1//EN" "http://www.w3.org/Graphics/SVG/1.1/DTD/svg11.dtd">
<svg version="1.1" id="Capa_1" xmlns="http://www.w3.org/2000/svg" xmlns:xlink="http://www.w3.org/1999/xlink" x="0px" y="0px"
	 width="53.896px" height="53.896px" viewBox="0 0 53.896 53.896" style="enable-background:new 0 0 53.896 53.896;"
	 xml:space="preserve">
<g>
	<g>
		<path d="M25.766,43.956c0.312-0.046,0.619-0.198,0.822-0.408c5.86-6.046,11.722-12.092,17.583-18.139
			c0.153-0.159,0.274-0.477,0.088-0.665c-1.669-1.678-3.338-3.355-5.006-5.032c-0.27-0.271-0.808-0.249-1.244-0.084
			c-0.177,0.053-0.335,0.134-0.444,0.246c-0.056,0.055-0.078,0.078-0.098,0.101c-5.832,6.017-11.665,12.035-17.498,18.051
			c-0.077,0.079-0.146,0.199-0.172,0.322c-0.043,0.199,0.717,0.977,1.499,1.757c0.73,0.731,1.46,1.46,2.19,2.191
			C24.267,43.075,25.255,44.029,25.766,43.956z M22.188,38.398c-0.141-0.137,0.358-0.878,1.127-1.671
			c1.198-1.236,2.397-2.473,3.596-3.709c3.315-3.421,6.633-6.844,9.949-10.265c0.77-0.794,1.779-1.047,2.257-0.567
			c0.287,0.29,0.575,0.579,0.863,0.868c0.574,0.577,1.147,1.153,1.722,1.729c0.1,0.101,0.183,0.183,0.252,0.25
			c0.14,0.137-0.359,0.879-1.128,1.672c-1.197,1.235-2.395,2.471-3.593,3.707c-3.314,3.419-6.629,6.838-9.942,10.257
			c-0.769,0.793-1.78,1.048-2.258,0.569c-0.289-0.289-0.578-0.577-0.866-0.865c-0.575-0.575-1.15-1.15-1.726-1.726
			C22.339,38.547,22.256,38.465,22.188,38.398z"/>
		<path d="M36.877,36.761c-0.179,0.053-0.336,0.134-0.443,0.243c-0.012,0.013-0.024,0.024-0.037,0.039
			c-0.02,0.019-0.039,0.038-0.056,0.057c-2.839,2.93-5.679,5.858-8.519,8.788c-0.149,0.155-0.279,0.459-0.093,0.646
			c1.903,1.903,3.808,3.808,5.709,5.709c0.781,0.781,1.771,1.728,2.279,1.648c0.312-0.049,0.62-0.203,0.82-0.403
			c2.91-2.911,5.821-5.822,8.733-8.733c0.153-0.153,0.278-0.461,0.093-0.646c-2.416-2.424-4.83-4.849-7.245-7.272
			C37.855,36.569,37.316,36.596,36.877,36.761z M40.181,41.504c0.785,0.788,1.569,1.575,2.354,2.362
			c0.127,0.128,0.255,0.256,0.382,0.384c0.211,0.212-0.245,1.021-1.023,1.806c-0.41,0.413-0.82,0.825-1.229,1.236
			c-0.78,0.781-0.822,0.782-0.083,0.01c0.738-0.773,1.008-1.73,0.599-2.139c-0.409-0.41-1.371-0.107-2.149,0.677
			c-1.093,1.102-2.161,2.179-3.204,3.23c-0.778,0.784-1.067,1.762-0.646,2.183c0.421,0.42,0.747,0.776,0.729,0.795
			c-0.013,0.012-0.309-0.261-0.736-0.678c-0.397-0.387-1.123-1.114-1.629-1.62c-0.307-0.307-0.611-0.611-0.917-0.917
			c-0.773-0.773-1.546-1.546-2.319-2.319c-0.088-0.088-0.176-0.176-0.264-0.264c-0.146-0.146,0.358-0.907,1.128-1.7
			c1.517-1.564,3.033-3.128,4.549-4.693c0.769-0.793,2.025-0.802,2.805-0.019C39.077,40.395,39.629,40.95,40.181,41.504z"/>
		<path d="M16.808,23.619c0.786-0.776,1.214-1.613,0.957-1.87c-0.257-0.257-1.089,0.178-1.858,0.971
			c-1.056,1.089-2.113,2.178-3.168,3.267c-0.768,0.793-1.213,1.615-0.994,1.835c0.22,0.221,1.035-0.231,1.821-1.007
			C14.646,25.748,15.728,24.684,16.808,23.619z"/>
		<path d="M17.047,25.188c-0.795,0.766-2.021,1.949-2.724,2.657c-0.702,0.708-1.248,1.305-1.218,1.335s0.69-0.578,1.473-1.358
			c1.486-1.48,2.97-2.96,4.467-4.439c0.028-0.031,0.057-0.062,0.085-0.093c0.046-0.051,0.073-0.104,0.059-0.118
			s-0.669,0.596-1.464,1.363C17.485,24.767,17.258,24.985,17.047,25.188z"/>
		<path d="M17.039,35.814c0.369,0.369,1.355,0.089,1.668-0.232c0.066-0.067,0.131-0.136,0.197-0.203
			c0.109-0.112,0.227-0.173,0.265-0.136c0.038,0.038,0.691-0.574,1.461-1.367l0.089-0.093c0.769-0.793,0.764-0.851-0.011-0.128
			c-0.774,0.724-0.779,0.667-0.011-0.127c7.984-8.237,15.968-16.473,23.953-24.709c0.015-0.014,0.024-0.027,0.035-0.04
			c0.02-0.023,0.132-0.114,0.166-0.245c0.033-0.13-0.703-0.854-1.483-1.635c-2.241-2.241-4.482-4.482-6.724-6.723
			c-0.372-0.372-1.35-0.085-1.668,0.233c-8.786,8.785-17.57,17.57-26.354,26.354c-0.064,0.063-0.14,0.146-0.179,0.232
			c-0.067,0.149,0.682,0.906,1.463,1.688C12.284,31.06,14.662,33.437,17.039,35.814z M11.981,25.209
			c1.739-1.74,3.479-3.479,5.219-5.219C22.85,14.342,28.498,8.694,34.146,3.045c0.781-0.781,2.047-0.781,2.828-0.001
			c1.47,1.47,2.939,2.939,4.409,4.409c0.781,0.781,0.792,2.059,0.022,2.852C34.104,17.839,26.8,25.373,19.499,32.907
			c-0.769,0.794-2.024,0.805-2.806,0.023c-1.601-1.6-3.201-3.2-4.801-4.8c-0.781-0.782-1.399-1.43-1.381-1.449
			C11.022,26.169,11.501,25.689,11.981,25.209z"/>
		<path d="M15.715,30.124c-0.447,0.474-0.598,1.068-0.34,1.326c0.258,0.259,0.805,0.152,1.219-0.237
			c0.249-0.234,0.498-0.468,0.751-0.705c1.044-1.081,2.086-2.153,3.127-3.224c0.771-0.792,1.181-1.646,0.917-1.91
			c-0.264-0.264-1.113,0.154-1.896,0.934c-1.007,1.001-2,1.99-2.971,2.956C16.254,29.55,15.984,29.836,15.715,30.124z"/>
		<path d="M28.483,32.467c-0.025-0.025-0.333,0.229-0.687,0.566c-0.355,0.339-1.28,1.24-2.059,2.023
			c-0.652,0.656-1.305,1.313-1.956,1.97c-0.778,0.784-1.388,1.44-1.361,1.468c0.026,0.025,0.681-0.586,1.464-1.364
			c1.074-1.069,2.148-2.14,3.226-3.208C27.893,33.145,28.508,32.493,28.483,32.467z"/>
		<path d="M25.662,38.91c-0.275,0.292-0.506,0.587-0.68,0.855c-0.329,0.506,0.2,1.035,0.707,0.706
			c0.268-0.174,0.563-0.406,0.854-0.68c0.779-0.732,1.562-1.467,2.354-2.209c0.387-0.4,0.772-0.798,1.158-1.193
			c0.64-0.658,0.935-1.414,0.661-1.688c-0.274-0.274-0.978-0.02-1.569,0.569c-0.36,0.358-0.72,0.715-1.073,1.066
			C27.274,37.198,26.467,38.054,25.662,38.91z"/>
		<path d="M34.875,41.687c-1.08,1.062-2.165,2.12-3.257,3.177c-0.357,0.347-0.592,0.758-0.688,1.156
			c-0.176,0.732,0.825,1.733,1.552,1.551c0.396-0.1,0.802-0.337,1.142-0.699c1.037-1.106,2.073-2.214,3.112-3.322
			c0.756-0.807,0.964-1.864,0.465-2.363C36.705,40.687,35.664,40.914,34.875,41.687z"/>
	</g>
</g>
<g>
</g>
<g>
</g>
<g>
</g>
<g>
</g>
<g>
</g>
<g>
</g>
<g>
</g>
<g>
</g>
<g>
</g>
<g>
</g>
<g>
</g>
<g>
</g>
<g>
</g>
<g>
</g>
<g>
</g>
</svg>
