<?xml version="1.0" encoding="iso-8859-1"?>
<!-- Generator: Adobe Illustrator 16.0.0, SVG Export Plug-In . SVG Version: 6.00 Build 0)  -->
<!DOCTYPE svg PUBLIC "-//W3C//DTD SVG 1.1//EN" "http://www.w3.org/Graphics/SVG/1.1/DTD/svg11.dtd">
<svg version="1.1" id="Capa_1" xmlns="http://www.w3.org/2000/svg" xmlns:xlink="http://www.w3.org/1999/xlink" x="0px" y="0px"
	 width="48.887px" height="48.887px" viewBox="0 0 48.887 48.887" style="enable-background:new 0 0 48.887 48.887;"
	 xml:space="preserve">
<g>
	<g>
		<path d="M38.281,0.018c-0.448-0.077-1.439,0.081-1.558,0.646c-0.121,0.579-0.171,1.102-0.165,1.592
			C28.566-1.082,11.913-0.851,6.595,7.231c-0.379-0.386-0.809-0.747-1.322-1.09C4.822,5.84,3.689,6.198,3.539,6.729
			c-1.884,6.623-3.92,13.1-3.362,20.06c0.561,6.992,5.158,13.076,10.479,17.265c8.218,6.468,19.152,6.03,27.718,0.597
			c8.316-5.275,10.576-14.394,10.424-23.609C48.676,13.769,47.217,1.575,38.281,0.018z M35.712,3.385
			c0.213,0.106,0.596,0.042,0.959-0.082c0.129,0.605,0.362,1.17,0.702,1.731c0.206,0.34,0.456,0.61,0.708,0.811
			c-0.075,0.007-0.146,0.014-0.226,0.023c-1.666,0.214-3.205,0.63-4.83,1.413c-0.411,0.197-0.934,0.729-0.21,0.921
			c8.278,2.176,8.188,11.817,5.848,18.432c-1.399,3.953-4.448,8.446-8.854,9.239c-4.104,0.736-7.154-1.926-3.692-4.907
			c1.078-0.93,7.469-4.881,3.233-5.959c-2.19-0.559-4.355-0.593-6.228,0.842c-3.496,2.679-5.732-0.571-3.491-4.056
			c1.073-1.668,2.749-2.898,3.97-4.46c0.295-0.378-0.25-0.553-0.524-0.568c-5.852-0.34-3.004-5.262-3.692-8.987
			c-0.104-0.564-1.304-0.213-1.565-0.027c-2.653,1.881-5.768,2.764-9.017,2.593c-0.074-0.004-0.155,0.006-0.238,0.023
			C8.38,9.93,8.189,9.523,7.983,9.141C7.975,9.066,7.955,8.996,7.916,8.943C7.893,8.911,7.859,8.888,7.83,8.867
			c-0.06-0.104-0.12-0.205-0.182-0.305C11.458-0.248,28.417-0.282,35.712,3.385z M43.888,6.55c1.99,3.891,2.575,9.005,2.868,12.715
			c0.658,8.342-0.608,16.261-6.688,22.457c-5.208,5.31-11.799,6.778-18.079,5.527c-0.112-0.047-0.237-0.067-0.367-0.073
			c-1.99-0.432-3.943-1.136-5.809-2.077c0.055-0.052,0.108-0.1,0.165-0.157c0.421-0.428,0.723-0.806,0.673-0.846
			c-0.049-0.04-0.456,0.268-0.907,0.686c-0.07,0.064-0.128,0.124-0.189,0.188c-0.64-0.332-1.269-0.691-1.885-1.078
			c0.166-0.075,0.328-0.171,0.469-0.301c0.495-0.455,0.597-1.086,0.239-1.423c-0.357-0.337-1.063-0.223-1.588,0.268
			c-0.202,0.189-0.324,0.4-0.4,0.608c-1.537-1.09-2.976-2.349-4.28-3.751c0.335,0.008,0.8-0.224,1.22-0.654
			c0.597-0.614,0.892-1.388,0.669-1.736c-0.222-0.349-0.907-0.125-1.543,0.508c-0.47,0.468-0.759,1.018-0.775,1.405
			c-7.939-8.986-5.67-19.938-2.756-30.401c0.035-0.126,0.063-0.246,0.086-0.361c0.081,0.094,0.167,0.192,0.258,0.295
			c0.16,0.18,0.287,0.382,0.426,0.577c-0.139,0.34-0.263,0.689-0.366,1.052c-0.039,0.136,0.074,0.211,0.256,0.244
			c-0.462,0.643-0.88,1.416-1.048,2.016c-0.239,0.852,0.219,0.92,1.01,0.148c0.459-0.447,0.92-0.896,1.383-1.347
			c0.034-0.033,0.064-0.068,0.097-0.103c0.231,0.273,0.467,0.445,0.705,0.451c0.083,0.025,0.183,0.046,0.318,0.054
			c3.555,0.187,6.409-0.396,9.284-2.038c0.126-0.072,0.24-0.144,0.346-0.215c-0.055,0.28-0.09,0.612-0.109,0.972
			c-0.082,0.032-0.176,0.074-0.294,0.133c-0.677,0.338-1.419,0.704-1.617,0.904c-0.197,0.199-0.073,0.367,0.278,0.358
			s1.059-0.456,1.583-0.982c0.011-0.012,0.017-0.02,0.027-0.028c-0.103,1.778-0.47,3.557,0.041,5.291
			c0.331,1.124,3.681,2.12,3.277,2.558c-2.489,2.696-7.463,8.464-1.113,10.277c1.198,0.343,2.589-0.697,3.454-1.34
			c0.704-0.521,2.067-0.948,3.26-1.104c-0.302,0.229-0.636,0.523-0.938,0.823c-0.62,0.618-1.019,1.205-0.883,1.297
			c0.136,0.093,0.909-0.458,1.716-1.213c0.006-0.006,0.012-0.013,0.018-0.019c0.395-0.369,0.686-0.705,0.843-0.947
			c1.416-0.028,2.218,0.491,0.491,2.003c-1.446,1.266-5.752,3.425-5.493,5.824c0.333,3.085,5.863,3.21,8.048,2.816
			c3.892-0.698,6.786-3.825,8.738-7.053c2.481-4.101,3.464-9.18,2.818-13.904c-0.264-1.925-1.048-3.696-2.19-5.238
			c0.197-0.092,0.482-0.304,0.781-0.602c0.458-0.456,0.714-0.887,0.567-0.951C40.838,9,40.385,9.291,39.971,9.71
			c-0.247,0.251-0.423,0.493-0.514,0.677c-0.085-0.107-0.165-0.219-0.253-0.325c-0.307-0.369-0.709-0.692-1.145-0.979
			c0.085-0.063,0.172-0.137,0.257-0.224c0.299-0.306,0.507-0.561,0.467-0.572c-0.041-0.013,0.003-0.065,0.104-0.109
			c0.102-0.045,0.449-0.357,0.78-0.695c0.331-0.339,0.471-0.607,0.313-0.602c-0.157,0.007-0.591,0.305-0.968,0.662
			c-0.222,0.21-0.449,0.424-0.683,0.645c-0.173,0.165-0.338,0.323-0.499,0.478c-0.062,0.06-0.114,0.119-0.16,0.178
			c-2.377-1.396-5.119-1.747,1.42-2.043c0.29-0.014,1.771-0.355,1.273-0.926c-1.04-1.188-1.693-2.188-1.843-3.465
			c-0.048-0.415-0.092-0.778-0.15-1.062c0.182,0.086,0.395,0.18,0.636,0.281c0.509,0.217,0.972,0.494,1.416,0.796
			c-0.113,0.109-0.231,0.226-0.356,0.35c-0.569,0.562-1.029,1.029-1.025,1.045c0.003,0.015,0.479-0.435,1.062-1.001
			c0.13-0.127,0.251-0.246,0.366-0.359c0.749,0.519,1.408,1.148,1.985,1.868c-0.225,0.188-0.504,0.437-0.817,0.731
			c-0.689,0.652-1.196,1.241-1.129,1.312s0.642-0.4,1.283-1.055c0.309-0.315,0.582-0.611,0.784-0.846
			c0.387,0.499,0.734,1.037,1.052,1.605c-0.12,0.072-0.25,0.17-0.381,0.303c-0.333,0.339-0.404,0.586-0.156,0.559
			s0.6-0.192,0.785-0.377C43.884,6.557,43.885,6.553,43.888,6.55z"/>
		<path d="M43.816,20.52c-0.79,0.772-1.435,1.43-1.438,1.466c-0.003,0.037,0.632-0.562,1.419-1.336
			c0.386-0.381,0.76-0.749,1.118-1.103c0.787-0.774,1.421-1.423,1.419-1.444c-0.003-0.021-0.646,0.589-1.436,1.359
			C44.538,19.817,44.176,20.168,43.816,20.52z"/>
		<path d="M44.911,19.599c-0.371,0.361-0.741,0.723-1.11,1.082c-0.791,0.771-1.447,1.51-1.468,1.646
			c-0.021,0.137,0.607-0.371,1.407-1.134c0.396-0.378,0.789-0.754,1.177-1.124c0.798-0.765,1.44-1.491,1.438-1.624
			C46.35,18.311,45.702,18.829,44.911,19.599z"/>
		<path d="M43.891,16.046c0.082-0.076,0.165-0.153,0.248-0.229c0.81-0.752,1.326-1.77,1.105-2.251
			c-0.222-0.482-1.061-0.276-1.829,0.438c-0.771,0.714-1.262,1.757-1.15,2.342C42.376,16.929,43.083,16.799,43.891,16.046z"/>
		<path d="M42.624,10.653c-0.087,0.076-0.192,0.17-0.317,0.279c-0.23,0.222-0.485,0.462-0.757,0.72
			c-0.419,0.396-0.629,0.927-0.486,1.194c0.144,0.269,0.781-0.002,1.439-0.608c0.658-0.608,1.035-1.282,0.828-1.493
			S42.799,10.498,42.624,10.653z"/>
		<path d="M44.856,22.619c-0.265,0.257-0.529,0.514-0.795,0.771c-0.793,0.77-0.769,0.795,0.058,0.062
			c0.213-0.189,0.427-0.379,0.643-0.57c0.826-0.731,1.505-1.398,1.517-1.49C46.287,21.3,45.649,21.849,44.856,22.619z"/>
		<path d="M5.815,36.333c0.02,0.033,0.523-0.422,1.122-1.02c0.361-0.359,0.723-0.72,1.087-1.079c0.054-0.06,0.108-0.118,0.163-0.179
			c0.09-0.1,0.157-0.193,0.15-0.211c-0.006-0.019-0.582,0.518-1.285,1.197C6.351,35.721,5.795,36.298,5.815,36.333z"/>
		<path d="M39.513,30.44c-0.096,0.158,0.319-0.218,0.929-0.841c0.61-0.622,0.688-0.751,0.173-0.287
			C40.099,29.776,39.608,30.283,39.513,30.44z"/>
		<path d="M7.474,31.645c-0.14-0.421-0.861-0.126-1.627,0.663c-0.766,0.79-1.364,1.479-1.341,1.539
			c0.015,0.037,0.029,0.073,0.046,0.11c0.082,0.181,0.169,0.358,0.259,0.537c0.148,0.294,0.867-0.058,1.601-0.781
			C7.146,32.989,7.614,32.067,7.474,31.645z"/>
		<path d="M4.149,18.838c0.663-0.676,1.324-1.351,1.984-2.022c0.774-0.788,1.549-2.028,1.745-2.77
			c0.196-0.74-0.28-0.717-1.074,0.052c-0.663,0.642-1.382,1.337-2.152,2.082c-0.793,0.77-1.562,1.992-1.692,2.736
			C2.832,19.661,3.376,19.627,4.149,18.838z"/>
		<path d="M27.825,48.835c-0.129-0.012-0.253-0.002-0.279,0.022c-0.025,0.026,0.08,0.038,0.233,0.023
			C27.931,48.866,27.953,48.845,27.825,48.835z"/>
		<path d="M5.33,30.284c0.769-0.793,1.268-2.056,1.17-2.831s-0.773-0.78-1.56-0.006c-0.169,0.167-0.338,0.334-0.507,0.501
			c-0.787,0.775-1.3,1.99-1.099,2.701c0.201,0.711,1.027,0.633,1.796-0.16C5.197,30.421,5.264,30.353,5.33,30.284z"/>
		<path d="M4.997,22.928c0.797-0.765,1.466-1.644,1.5-1.963s-0.562,0.06-1.339,0.844c-0.426,0.432-0.852,0.861-1.279,1.292
			c-0.777,0.784-1.406,1.602-1.405,1.823c0.001,0.223,0.658-0.214,1.457-0.977C4.286,23.61,4.642,23.268,4.997,22.928z"/>
		<path d="M33.375,36.359c-0.496,0.215-0.959,0.378-1.012,0.426s0.106,0.132,0.356,0.176c0.25,0.045,0.696-0.183,0.993-0.485
			C34.01,36.169,33.872,36.143,33.375,36.359z"/>
		<path d="M6.842,13.978c0.792-0.771,1.439-1.412,1.445-1.437c0.007-0.024-0.628,0.582-1.419,1.354
			c-0.72,0.702-1.45,1.415-2.192,2.139c-0.791,0.771-1.435,1.41-1.439,1.429c-0.003,0.019,0.636-0.593,1.427-1.363
			C5.399,15.382,6.136,14.665,6.842,13.978z"/>
	</g>
</g>
<g>
</g>
<g>
</g>
<g>
</g>
<g>
</g>
<g>
</g>
<g>
</g>
<g>
</g>
<g>
</g>
<g>
</g>
<g>
</g>
<g>
</g>
<g>
</g>
<g>
</g>
<g>
</g>
<g>
</g>
</svg>
