<?xml version="1.0" encoding="iso-8859-1"?>
<!-- Generator: Adobe Illustrator 16.0.0, SVG Export Plug-In . SVG Version: 6.00 Build 0)  -->
<!DOCTYPE svg PUBLIC "-//W3C//DTD SVG 1.1//EN" "http://www.w3.org/Graphics/SVG/1.1/DTD/svg11.dtd">
<svg version="1.1" id="Capa_1" xmlns="http://www.w3.org/2000/svg" xmlns:xlink="http://www.w3.org/1999/xlink" x="0px" y="0px"
	 width="39.233px" height="39.233px" viewBox="0 0 39.233 39.233" style="enable-background:new 0 0 39.233 39.233;"
	 xml:space="preserve">
<g>
	<g>
		<path d="M34.023,12.123c-1.454-1-3.345-1.492-5.181-1.352c-1.853,0.123-3.628,0.866-5.021,1.969
			c-0.371,0.13-1.1,0.641-1.695,1.346c-0.605,0.698-1.046,1.568-1.174,2.103c0.039,0.055,0.224-0.344,0.45-0.72
			c0.22-0.382,0.481-0.739,0.504-0.693c-0.27,0.582-0.844,1.522-1.171,2.533c-0.167,0.489-0.27,0.986-0.315,1.414
			c-0.001,0.007-0.002,0.014-0.003,0.021c-0.001,0.005-0.001,0.01-0.003,0.015c-0.139,0.926-0.129,1.886,0.052,2.831
			c0.459,2.547,2.187,4.889,4.564,6.088c1.394,0.729,2.987,1.029,4.55,0.932c0.337,0.039,0.676,0.064,1.022,0.064
			c4.765,0,8.63-3.857,8.63-8.63C39.233,16.492,37.086,13.446,34.023,12.123z M26.951,28.25c-2.438-0.594-4.542-2.326-5.596-4.523
			c-0.31-0.625-0.521-1.283-0.659-1.951c0.035,0.006,0.122,0.307,0.144,0.225c-0.075-0.773-0.198-1.516-0.272-1.398
			c0.052-0.986,0.396-2.243,0.78-3.24c0.028-0.17-0.179,0.259-0.109-0.018c0.321-0.571,0.706-1.297,1.075-1.868
			c0.357-0.577,0.679-1.009,0.643-1.1c-1.056,1.151-1.929,2.606-2.311,4.262c0.001-0.004,0.001-0.008,0.002-0.012
			c0.027-0.129,0.051-0.258,0.083-0.386c0.007-0.032,0.016-0.064,0.024-0.097c0.405-1.541,1.198-2.992,2.346-4.155
			c1.522-1.567,3.696-2.569,5.961-2.615c0.4-0.014,0.799,0.015,1.197,0.062c-4.603,0.184-8.287,3.959-8.287,8.609
			c0,4.171,2.959,7.647,6.887,8.454C28.215,28.486,27.575,28.406,26.951,28.25z"/>
		<path d="M0.1,18.534c-0.001,0.007-0.002,0.015-0.003,0.021c-0.001,0.005-0.001,0.009-0.001,0.014
			c-0.139,0.927-0.13,1.887,0.051,2.831c0.46,2.547,2.186,4.891,4.562,6.092c1.393,0.727,2.987,1.029,4.549,0.93
			c0.335,0.041,0.675,0.066,1.021,0.066c4.769,0,8.633-3.863,8.633-8.631c0-3.55-2.144-6.595-5.208-7.92
			c-1.454-1.001-3.345-1.494-5.182-1.354c-1.853,0.122-3.629,0.864-5.02,1.968c-0.371,0.128-1.101,0.64-1.697,1.345
			C1.201,14.594,0.76,15.465,0.633,16c0.039,0.054,0.223-0.345,0.45-0.721c0.219-0.382,0.481-0.738,0.504-0.692
			c-0.27,0.581-0.843,1.521-1.171,2.533C0.249,17.609,0.145,18.104,0.1,18.534z M2.78,13.798c1.522-1.569,3.696-2.571,5.96-2.616
			c0.4-0.013,0.8,0.015,1.199,0.063c-4.605,0.18-8.289,3.959-8.289,8.611c0,4.17,2.956,7.646,6.883,8.455
			C7.891,28.3,7.251,28.22,6.628,28.064c-2.439-0.594-4.542-2.328-5.594-4.527c-0.309-0.625-0.521-1.283-0.659-1.951
			c0.035,0.008,0.122,0.307,0.143,0.227c-0.075-0.775-0.198-1.517-0.273-1.399c0.054-0.986,0.397-2.243,0.781-3.24
			c0.028-0.17-0.179,0.258-0.109-0.019c0.321-0.57,0.706-1.297,1.075-1.868c0.357-0.577,0.679-1.01,0.642-1.101
			c-1.055,1.152-1.928,2.606-2.31,4.261c0.001-0.003,0.001-0.006,0.001-0.01c0.027-0.129,0.051-0.259,0.084-0.388
			c0.008-0.031,0.015-0.063,0.023-0.094C0.84,16.415,1.633,14.962,2.78,13.798z"/>
	</g>
</g>
<g>
</g>
<g>
</g>
<g>
</g>
<g>
</g>
<g>
</g>
<g>
</g>
<g>
</g>
<g>
</g>
<g>
</g>
<g>
</g>
<g>
</g>
<g>
</g>
<g>
</g>
<g>
</g>
<g>
</g>
</svg>
