<?xml version="1.0" encoding="iso-8859-1"?>
<!-- Generator: Adobe Illustrator 16.0.0, SVG Export Plug-In . SVG Version: 6.00 Build 0)  -->
<!DOCTYPE svg PUBLIC "-//W3C//DTD SVG 1.1//EN" "http://www.w3.org/Graphics/SVG/1.1/DTD/svg11.dtd">
<svg version="1.1" id="Capa_1" xmlns="http://www.w3.org/2000/svg" xmlns:xlink="http://www.w3.org/1999/xlink" x="0px" y="0px"
	 width="39.501px" height="39.501px" viewBox="0 0 39.501 39.501" style="enable-background:new 0 0 39.501 39.501;"
	 xml:space="preserve">
<g>
	<g>
		<path d="M0.011,19.688c-0.271,5.03,4.578,9.521,9.518,9.254c4.977-0.269,8.891-3.555,9.603-8.413
			c0.079-0.547,0.078-1.441,0.004-1.988C17.581,7.372,0.638,8.045,0.011,19.688z M17.169,20.681
			c-0.445,2.894-2.136,5.236-4.668,6.265c-0.512,0.208-1.165,0.273-1.428,0.211c-0.263-0.063-0.58-0.027-0.716,0.098
			c-0.136,0.126-0.491,0.248-0.795,0.254c-0.181,0.003-0.363,0-0.55-0.01c-0.136-0.007-0.269-0.02-0.4-0.035
			c-0.221-0.025-0.171-0.271,0.111-0.533c0.281-0.263,0.486-0.487,0.459-0.5s-0.269,0.195-0.54,0.468
			c-0.271,0.271-0.936,0.418-1.455,0.233c-0.168-0.061-0.333-0.126-0.494-0.198c-0.504-0.226-0.567-0.796-0.183-1.191
			c0.006-0.007,0.011-0.013,0.017-0.019c0.385-0.396,0.538-0.868,0.354-1.064c-0.187-0.197-0.643-0.054-1.033,0.337
			c-0.051,0.051-0.102,0.101-0.151,0.15c-0.393,0.39-1.018,0.445-1.353,0.08s-0.553-0.712-0.529-0.733
			c0.015-0.015,0.028-0.027,0.042-0.041c0.117-0.129,0.234-0.258,0.352-0.386c0.194-0.213,0.166-0.206-0.062,0.015
			c-0.229,0.221-0.547,0.219-0.7-0.015c-0.152-0.23,0.056-0.743,0.448-1.131c0.168-0.166,0.336-0.332,0.504-0.497
			c0.394-0.388,0.618-0.955,0.523-1.272c-0.096-0.319-0.461-0.263-0.846,0.135c-0.22,0.227-0.438,0.453-0.658,0.68
			c-0.385,0.396-0.821,0.431-0.947,0.064c-0.126-0.365,0.107-0.988,0.493-1.385c0.314-0.323,0.627-0.645,0.936-0.964
			c0.385-0.396,0.695-0.755,0.691-0.805c-0.002-0.029-0.005-0.06-0.005-0.089c0-0.438,0.036-0.865,0.103-1.284
			c0.085-0.546-0.11-0.664-0.503-0.276c-0.5,0.492-1.002,0.986-1.505,1.482c-0.395,0.388-0.737,0.253-0.682-0.297
			c0.093-0.911,0.357-1.765,0.763-2.537c0.256-0.489,0.847-1.162,1.244-1.545c0.184-0.177,0.366-0.353,0.551-0.531
			c0.396-0.383,1.088-0.951,1.58-1.203c1.236-0.632,2.646-0.959,4.086-0.882c3.774,0.203,6.363,3.501,6.94,6.968
			C17.254,19.239,17.254,20.136,17.169,20.681z"/>
		<path d="M20.344,20.056c-0.347,6.423,4.99,9.116,10.126,8.474c0.548-0.067,1.167-0.182,1.388-0.213
			c0.222-0.03,0.425-0.092,0.456-0.124s0.489-0.182,1.005-0.382c3.032-1.181,5.554-3.636,6.118-7.277
			c0.084-0.547,0.084-1.443,0.007-1.99C37.886,7.545,20.947,8.867,20.344,20.056z M23.918,14.614
			c0.412-0.494,0.888-0.932,1.412-1.306c0.449-0.32,0.521-0.223,0.117,0.152c-0.461,0.428-0.921,0.854-1.383,1.282
			C23.661,15.12,23.564,15.039,23.918,14.614z M37.501,21.051c-0.439,2.712-2.04,4.975-4.24,6.082
			c-0.494,0.248-1.17,0.351-1.47,0.293c-0.301-0.059-0.658-0.006-0.805,0.143s-0.59,0.296-0.988,0.283
			c-0.398-0.014-0.526-0.254-0.288-0.495c0.239-0.239,0.358-0.468,0.268-0.513c-0.09-0.045-0.368,0.137-0.622,0.404
			c-0.254,0.269-0.841,0.42-1.298,0.283c-0.456-0.136-0.541-0.576-0.207-0.935c0.333-0.357,0.347-0.832,0.05-1.085
			c-0.299-0.254-0.836-0.167-1.227,0.224c-0.028,0.027-0.056,0.057-0.084,0.083c-0.39,0.392-1.087,0.467-1.5,0.101
			c-0.278-0.247-0.535-0.516-0.771-0.798c-0.353-0.427-0.272-1.129,0.113-1.523c0.159-0.161,0.317-0.323,0.477-0.485
			c0.387-0.394,0.686-0.749,0.669-0.791c-0.018-0.042-0.362,0.226-0.771,0.596c-0.167,0.15-0.334,0.302-0.5,0.451
			c-0.409,0.37-0.971,0.284-1.19-0.222c-0.096-0.216-0.182-0.436-0.26-0.658c-0.184-0.52,0.041-1.267,0.442-1.646
			c0.302-0.287,0.603-0.572,0.899-0.855c0.399-0.38,0.722-0.734,0.718-0.792c-0.003-0.058-0.092-0.017-0.2,0.089
			c-0.108,0.104-0.109,0.104-0.001-0.001c0.108-0.107,0.196-0.216,0.194-0.242s-0.323,0.265-0.719,0.649
			c-0.315,0.311-0.632,0.618-0.946,0.927c-0.396,0.386-0.808,0.307-0.878-0.185c-0.043-0.297-0.074-0.595-0.091-0.893
			c-0.015-0.248-0.012-0.489,0.005-0.727c0.023-0.401,0.405-1.029,0.811-1.405c0.769-0.714,1.536-1.427,2.303-2.141
			c0.404-0.376,0.956-1.069,1.292-1.508c0.33-0.43,0.699-0.827,1.103-1.188c0.412-0.368,1.223-0.705,1.773-0.729
			c1.276-0.056,2.593,0.204,3.828,0.845c2.438,1.264,3.745,3.774,4.119,6.376C37.588,19.609,37.589,20.505,37.501,21.051z"/>
	</g>
</g>
<g>
</g>
<g>
</g>
<g>
</g>
<g>
</g>
<g>
</g>
<g>
</g>
<g>
</g>
<g>
</g>
<g>
</g>
<g>
</g>
<g>
</g>
<g>
</g>
<g>
</g>
<g>
</g>
<g>
</g>
</svg>
