<?xml version="1.0" encoding="iso-8859-1"?>
<!-- Generator: Adobe Illustrator 16.0.0, SVG Export Plug-In . SVG Version: 6.00 Build 0)  -->
<!DOCTYPE svg PUBLIC "-//W3C//DTD SVG 1.1//EN" "http://www.w3.org/Graphics/SVG/1.1/DTD/svg11.dtd">
<svg version="1.1" id="Capa_1" xmlns="http://www.w3.org/2000/svg" xmlns:xlink="http://www.w3.org/1999/xlink" x="0px" y="0px"
	 width="45.355px" height="45.356px" viewBox="0 0 45.355 45.356" style="enable-background:new 0 0 45.355 45.356;"
	 xml:space="preserve">
<g>
	<g>
		<path d="M0.35,16.155c0,7.692,0,15.385,0,23.076c0,0.772,0.007,1.444,0.003,1.502c-0.003,0.041-0.008,0.071,0.001,0.104
			c0.497,1.835,1.443,2.637,2.682,2.984c0.744,0.209,1.486,0.25,1.622,0.274c0.081,0.014,0.163,0.025,0.247,0.025H5.07
			c0.579-0.026,1.145-0.032,1.731-0.032c3.227,0,7.419,0.755,10.505-0.587c3.065-1.332,2.192-5.617,2.192-8.203
			c0-5.568,3.749-3.688,7.918-4.162c2.89-0.331,4.322-2.062,4.322-4.905c0-2.064,0-4.13,0-6.197c0-2.881,5.478-1.826,7.128-1.826
			c6.789,0,7.278-7.992,5.81-13.42c-1.51-5.583-12.633-3.253-16.852-3.253c-7.556,0-15.637-0.843-23.152,0.012
			C-1.825,2.29,0.35,11.71,0.35,16.155z M3.061,34.811c0-0.771,0.436-1.85,0.974-2.405c1.764-1.823,3.527-3.643,5.284-5.438
			c0.262-0.273,0.524-0.541,0.785-0.812c0.433-0.445,0.784-1.224,0.784-1.738c0-0.516-0.444-0.49-0.992,0.055
			c-2.004,1.993-3.947,3.928-5.842,5.812c-0.548,0.545-0.992,0.357-0.992-0.413c0-0.244,0-0.49,0-0.736
			c0-0.771,0.245-1.644,0.548-1.942c0.183-0.184,0.366-0.364,0.551-0.547c0.164-0.181,0.328-0.358,0.492-0.538
			c0.272-0.298,0.042-0.104-0.514,0.433c-0.023,0.021-0.047,0.045-0.07,0.067c-0.555,0.537-1.006,0.542-1.006,0.013
			s0.445-1.398,0.995-1.94c1.945-1.92,3.89-3.838,5.834-5.755c0.551-0.544,0.996-1.503,0.996-2.146s-0.437-0.714-0.976-0.16
			c-1.962,2.021-3.919,4.043-5.877,6.065c-0.538,0.555-0.973,0.445-0.973-0.246s0.437-1.701,0.976-2.255
			c2.065-2.124,4.039-4.148,5.873-6.027c0.54-0.553,0.977-1.619,0.977-2.383s-0.446-0.943-0.997-0.401
			c-1.924,1.894-3.872,3.811-5.832,5.745c-0.55,0.542-0.997,0.355-0.997-0.418c0-0.512,0-1.02,0-1.532
			c0-0.771,0.452-1.832,1.008-2.367c0.914-0.879,1.827-1.757,2.741-2.649c1.028-1.039,2.06-2.072,3.092-3.107
			c0.545-0.548,0.954-1.653,1.31-2.338c0.257-0.493,0.652-0.896,1.132-1.16c0.677-0.373,1.075-0.343,0.748-0.343
			c-0.327,0-1.033,0.444-1.578,0.992c-2.494,2.513-4.981,5.031-7.469,7.55c-0.543,0.549-0.984,0.368-0.984-0.403
			c0-0.38,0-0.759,0-1.138c0-0.772,0.439-1.845,0.981-2.396c1.192-1.21,2.38-2.413,3.564-3.612C8.15,3.648,8.189,3.205,7.694,3.205
			c-0.494,0-1.346,0.435-1.901,0.972C5.301,4.652,4.72,5.213,4.066,5.845C3.511,6.382,3.062,6.8,3.062,6.777
			c0-0.022,0.45-0.479,1.004-1.019c0.589-0.571,1.14-1.106,1.632-1.582c0.556-0.537,0.989-0.972,0.965-0.972
			c-0.025,0-0.493,0.438-1.045,0.979c-0.513,0.503-1.033,1.01-1.555,1.521c-0.553,0.539-1,0.617-1,0.172c0-0.268,0-0.535,0-0.803
			c0-3.68,14.498-1.9,16.869-1.9c6.604,0,13.208,0,19.811,0c3.361,0,2.229,8.025,2.229,9.854c0,4.747-4.326,3.551-7.96,3.551
			c-6.321,0-4.981,6.726-4.981,11.112c0,4.41-12.241-1.207-12.241,5.912c0,1.668,1.043,8.855-1.733,8.855
			c-1.534,0-4.477,0.435-7.079,0.279c-0.771-0.047-0.95-0.599-0.407-1.148c0.777-0.788,1.554-1.576,2.336-2.369
			c0.542-0.55,0.982-1.098,0.982-1.225s-0.46,0.195-1.027,0.723c-0.992,0.919-1.985,1.839-2.979,2.758
			C6.315,42,5.379,42.321,4.842,42.068c-0.538-0.254-0.439-1.001,0.132-1.521c1.628-1.483,3.256-2.97,4.881-4.458
			c0.57-0.521,1.032-1.477,1.032-2.131s-0.459-0.758-1.025-0.232c-1.927,1.794-3.853,3.591-5.778,5.389
			c-0.565,0.525-1.023,0.326-1.023-0.446C3.061,37.382,3.061,36.097,3.061,34.811z"/>
		<path d="M9.862,31.147c0.564-0.526,1.023-0.989,1.023-1.031s-0.443,0.367-0.988,0.915c-0.065,0.066-0.132,0.134-0.198,0.198
			c-0.545,0.548-0.531,0.565,0.034,0.038C9.776,31.228,9.819,31.188,9.862,31.147z"/>
	</g>
</g>
<g>
</g>
<g>
</g>
<g>
</g>
<g>
</g>
<g>
</g>
<g>
</g>
<g>
</g>
<g>
</g>
<g>
</g>
<g>
</g>
<g>
</g>
<g>
</g>
<g>
</g>
<g>
</g>
<g>
</g>
</svg>
