<?xml version="1.0" encoding="iso-8859-1"?>
<!-- Generator: Adobe Illustrator 16.0.0, SVG Export Plug-In . SVG Version: 6.00 Build 0)  -->
<!DOCTYPE svg PUBLIC "-//W3C//DTD SVG 1.1//EN" "http://www.w3.org/Graphics/SVG/1.1/DTD/svg11.dtd">
<svg version="1.1" id="Capa_1" xmlns="http://www.w3.org/2000/svg" xmlns:xlink="http://www.w3.org/1999/xlink" x="0px" y="0px"
	 width="44.986px" height="44.986px" viewBox="0 0 44.986 44.986" style="enable-background:new 0 0 44.986 44.986;"
	 xml:space="preserve">
<g>
	<g>
		<path d="M27.305,35.713c-0.949,0.479-2.02,0.897-2.738,1.727c-1.484,1.709-1.473,5.23,0.087,6.791
			c0.986,0.986,4.66,0.382,5.734,0.382c2.247,0,11.788,1.66,12.097-2.013c0.059-0.697-0.755-1.867-1.023-2.482
			c-1.104-2.544-2.209-5.089-3.313-7.634c-4.449-10.247-8.898-20.494-13.347-30.741c-0.221-0.507-0.415-0.936-0.43-0.965
			c-0.012-0.021-0.015-0.035-0.03-0.046c-0.033-0.021-0.066-0.043-0.1-0.064c-0.274-0.18-0.548-0.359-0.821-0.538
			c-0.469-0.307-1.246-0.007-1.66,0.265c-1.543,1.013-1.842,2.493-2.577,4.18c-1.695,3.891-3.39,7.781-5.085,11.673
			c-3.587,8.236-7.175,16.471-10.763,24.708c-0.508,1.168-1.889,3.658,0.631,3.658c3.842,0,7.685,0,11.526,0
			c2.453,0,5.153,0.271,5.932-2.607c0.375-1.385,0.007-3.316,0.007-4.754c0-2.088-1.308-2.797-2.458-3.733
			c-0.428-0.349-0.342-0.423,0.202-0.33c0.439,0.076,0.947,0.009,1.642-0.356c0.588-0.308,0.614-1.031,0.614-1.633
			c0-0.816,0-1.634,0-2.451c0-1.322,2.169-0.062,2.169,0.858c0,1.438,1.278,1.614,2.385,1.369c0.539-0.12,0.557-0.101,0.129,0.249
			c-1.424,1.162-3.771,3.63-2.087,4.4c1.619,0.741,3.095-0.242,4.558-0.979C31.477,33.188,28.393,35.164,27.305,35.713z
			 M21.732,2.628c0.06-0.136,0.122-0.271,0.188-0.402c0.246-0.494,0.531-0.845,0.549-0.833c0.018,0.012,0.103,0.183,0.189,0.382
			c0.087,0.198-0.163,0.672-0.558,1.059c-0.008,0.008-0.017,0.016-0.025,0.024C21.68,3.244,21.51,3.134,21.732,2.628z M18.66,9.877
			c0.466-1.069,0.932-2.139,1.398-3.209c0.22-0.506,0.715-1.234,1.104-1.626c0.441-0.444,0.883-0.888,1.323-1.329
			c0.39-0.392,0.884-0.297,1.104,0.21c0.02,0.044,0.038,0.087,0.058,0.131c0.22,0.507,0.083,1.235-0.308,1.627
			c-1.459,1.467-2.917,2.935-4.375,4.403C18.576,10.478,18.44,10.383,18.66,9.877z M15.66,16.765
			c0.369-0.847,0.738-1.693,1.107-2.54c0.143-0.328,0.286-0.656,0.428-0.984c0.221-0.506,0.715-1.233,1.103-1.626
			c1.766-1.78,3.534-3.557,5.302-5.332c0.39-0.392,0.884-0.299,1.104,0.207c0.062,0.139,0.121,0.278,0.182,0.417
			c0.22,0.507,0.078,1.231-0.316,1.617c-2.803,2.753-5.677,5.58-8.596,8.455C15.58,17.366,15.44,17.271,15.66,16.765z M12.54,23.928
			c0.207-0.475,0.413-0.946,0.619-1.42c0.221-0.506,0.712-1.238,1.097-1.634c4.464-4.595,8.342-8.56,10.863-11.096
			c0.39-0.392,0.716-0.687,0.729-0.659c0.012,0.027-0.29,0.372-0.676,0.769c-4.238,4.373-10.326,10.631-2.881,3.042
			c1.025-1.053,1.984-2.039,2.905-2.986c0.385-0.396,0.794-0.494,0.914-0.219c0.12,0.275-0.096,0.82-0.482,1.216
			c-4.273,4.392-8.536,8.788-12.792,13.187C12.452,24.523,12.319,24.434,12.54,23.928z M6.737,43.832
			c-0.54-0.033-0.972-0.135-0.972-0.154s0.335-0.336,0.746-0.703c3.173-2.838,6.324-5.697,9.466-8.565
			c0.408-0.372,0.968-0.459,1.263-0.206c0.294,0.254,0.205,0.762-0.2,1.137c-2.845,2.632-5.7,5.252-8.582,7.849
			C8.047,43.556,7.276,43.865,6.737,43.832z M18.721,35.59c0.211,0.246,0.4,0.511,0.555,0.806c0.7,1.336,0.225,3.836,0.225,5.259
			c0,0.911-0.444,1.482-1.14,1.828c-0.494,0.247-0.926,0.298-0.904,0.273c0.023-0.022,0.017-0.043-0.014-0.043
			c-0.031,0-0.082,0.024-0.112,0.057c-0.031,0.031-0.451,0.132-0.945,0.169c-0.494,0.036-0.817-0.048-0.72-0.146
			c0.098-0.097,0.059-0.225-0.061-0.324c-0.071-0.059-0.134-0.127-0.187-0.207c-0.185-0.283-0.215-0.641-0.08-0.952
			c0,0,0.041-0.095,0.091-0.208c0.05-0.115-0.239,0.094-0.645,0.469c-0.225,0.207-0.45,0.414-0.675,0.622
			c-0.406,0.375-1.181,0.642-1.731,0.593c-0.589-0.051-1.114-0.092-1.522-0.092c-0.169,0-0.447,0.02-0.792,0.045
			c-0.438,0.031-0.48-0.264-0.093-0.656c2.411-2.451,4.869-4.947,7.358-7.473C17.718,35.215,18.369,35.18,18.721,35.59z
			 M19.433,31.662c-0.138,0.234-0.333-0.105-0.189-0.238C19.39,31.289,19.571,31.428,19.433,31.662z M28.233,33.844
			c-0.532,0.27-1.064,0.537-1.597,0.806c-2.031,1.022-0.153-2.38,1.038-2.979c1.093-0.549,1.419-0.854,1.887-1.807
			c0.104-0.211-0.226-0.281-0.349-0.305c-1.822-0.329-3.681,1.635-3.681-1.135c0-1.59-1.773-2.5-3.168-2.123
			c-1.601,0.434-2.863,1.024-2.863,2.963c0,0.042,0,0.078,0,0.115c0,0.063-0.327,0.42-0.731,0.797
			c-0.175,0.162-0.349,0.324-0.523,0.486c-0.404,0.377-0.869,0.672-1.036,0.67c-0.096-0.002-0.196-0.002-0.302,0.002
			c-0.252,0.01-1.522,0.241-1.365,0.719c0.046,0.141,0.103,0.271,0.168,0.396c0.109,0.211-0.107,0.674-0.512,1.051
			c-2.904,2.705-5.807,5.409-8.706,8.123C6.091,42,5.767,41.857,5.773,41.306c0.003-0.306,0.008-0.61,0.013-0.912
			c0.008-0.554,0.196-1.411,0.417-1.918c0.171-0.392,0.341-0.782,0.512-1.175c0.221-0.506,0.726-1.225,1.127-1.603
			c1.877-1.771,3.79-3.567,5.753-5.405c1.657-1.716,3.312-3.426,4.961-5.109c2.364-2.441,4.7-4.848,7-7.211
			c0.385-0.396,0.868-1.107,1.077-1.589c0.21-0.482,0.057-0.563-0.343-0.182c-0.674,0.646-1.449,1.389-2.353,2.252
			c-3.918,3.899-7.566,7.53-10.961,10.905c-1.507,1.623-3.024,3.237-4.544,4.849c-0.379,0.401-0.508,0.316-0.288-0.189
			c0.477-1.096,0.953-2.188,1.43-3.283c0.221-0.506,0.716-1.23,1.107-1.622c1.391-1.387,2.783-2.772,4.185-4.159
			c0.117-0.129,0.234-0.257,0.352-0.385c0.194-0.213,0.029-0.074-0.368,0.311c-0.702,0.678-1.363,1.315-1.84,1.772
			c-0.398,0.383-1.044,1.004-1.433,1.396c-0.259,0.262-0.519,0.521-0.777,0.783c-0.389,0.393-0.526,0.301-0.306-0.205
			c0.08-0.185,0.159-0.367,0.239-0.55c0.221-0.506,0.717-1.229,1.11-1.618c4.786-4.728,9.572-9.451,14.362-14.168
			c0.394-0.387,0.892-0.29,1.111,0.216c2.279,5.248,4.557,10.498,6.835,15.746c0.22,0.506,0.083,1.233-0.306,1.625
			c-0.263,0.265-0.524,0.527-0.787,0.793c-0.39,0.392-0.643,1.174-0.958,1.56c-0.317,0.386-0.897,0.313-0.993,0.409
			c-0.095,0.096-0.618,0.242-1.139,0.426C29.391,33.266,28.822,33.547,28.233,33.844z M30.714,35.145
			c0.476-0.281,0.833-0.553,0.853-0.53c0.019,0.022,0.339-0.284,0.717-0.688c0.761-0.812,1.519-1.625,2.275-2.436
			c0.377-0.402,0.828-0.394,1.008,0.02c0.18,0.414,0.018,1.074-0.363,1.476c-0.767,0.808-1.522,1.603-2.265,2.384
			c-0.38,0.4-0.685,0.743-0.68,0.768c0.005,0.022,0.323-0.276,0.712-0.668c0.766-0.772,1.53-1.547,2.296-2.317
			c0.389-0.394,0.804-0.479,0.928-0.192c0.125,0.287-0.09,0.836-0.479,1.228c-0.903,0.91-1.789,1.803-2.656,2.677
			c-0.39,0.393-0.704,1.157-0.704,1.71v0.211c0,0.554,0.311,0.679,0.694,0.28c0.943-0.979,2.043-2.112,3.255-3.363
			c0.384-0.396,0.425-0.822,0.275-1.109c-0.08-0.152-0.124-0.342-0.124-0.564c0-0.061,0.004-0.124,0.012-0.188
			c0.012-0.104,0.208,0.227,0.428,0.732c0.397,0.918,0.797,1.836,1.196,2.754c0.79,1.817,1.578,3.635,2.367,5.452
			c0.481,1.108,0.504,0.915-0.677,0.915c-0.545,0-1.09,0-1.635,0c-0.553,0-0.938-0.062-0.861-0.138
			c0.076-0.076-0.091-0.269-0.305-0.505c-0.214-0.234-0.579-0.227-0.898,0.084c-0.318,0.309-0.918,0.559-1.337,0.559
			c-0.253,0-0.507,0-0.76,0c-0.228,0-0.47,0.008-0.721,0.02c-0.398,0.02-0.407-0.274-0.02-0.668l2.511-2.547
			c0.388-0.394,0.701-0.84,0.701-0.996c0-0.158-0.312,0.035-0.698,0.431c-1.023,1.048-2.045,2.097-3.069,3.145
			c-0.386,0.396-1.146,0.75-1.697,0.776c-0.491,0.023-0.984,0.036-1.465,0.021c-0.552-0.018-0.979-0.099-0.957-0.121
			c0.022-0.021-0.083-0.039-0.233-0.039s-0.723-0.074-1.222-0.311c-0.952-0.449-1.583-1.286-1.583-2.795
			C25.532,36.713,28.459,36.481,30.714,35.145z"/>
		<path d="M22.813,24.234c-1.164,1.166-2.483,2.487-3.985,3.995c-0.39,0.392-0.379,0.403,0.025,0.026
			c1.207-1.125,2.432-2.269,3.663-3.418c0.404-0.377,0.792-0.823,0.867-0.998C23.459,23.668,23.204,23.844,22.813,24.234z"/>
	</g>
</g>
<g>
</g>
<g>
</g>
<g>
</g>
<g>
</g>
<g>
</g>
<g>
</g>
<g>
</g>
<g>
</g>
<g>
</g>
<g>
</g>
<g>
</g>
<g>
</g>
<g>
</g>
<g>
</g>
<g>
</g>
</svg>
