<?xml version="1.0" encoding="iso-8859-1"?>
<!-- Generator: Adobe Illustrator 16.0.0, SVG Export Plug-In . SVG Version: 6.00 Build 0)  -->
<!DOCTYPE svg PUBLIC "-//W3C//DTD SVG 1.1//EN" "http://www.w3.org/Graphics/SVG/1.1/DTD/svg11.dtd">
<svg version="1.1" id="Capa_1" xmlns="http://www.w3.org/2000/svg" xmlns:xlink="http://www.w3.org/1999/xlink" x="0px" y="0px"
	 width="38.965px" height="38.965px" viewBox="0 0 38.965 38.965" style="enable-background:new 0 0 38.965 38.965;"
	 xml:space="preserve">
<g>
	<g>
		<path d="M1.083,16.487c-0.019,0.022-0.034,0.032-0.043,0.044c-3.736,5.18,3.543,9.873,6.847,13.178
			c2.822,2.82,7.309,9.603,12.01,8.746c4.183-0.762,7.506-5.668,10.296-8.459c3.356-3.357,11.428-8.566,7.589-13.897
			c-0.321-0.446-1.521,0.093-1.839,0.337c-3.663,2.815-6.791,6.657-10.047,9.916c-1.629,1.63-3.258,3.26-4.888,4.89
			c-1.897,1.898-3.839-0.806-5.072-2.042c-2.096-2.101-4.192-4.2-6.288-6.299c-0.44-0.44-0.836-0.873-1.174-1.304
			c-0.341-0.434-0.27-0.489,0.138-0.116c0.51,0.466,1.014,0.866,1.28,1.132c2.078,2.076,4.156,4.15,6.233,6.229
			c1.427,1.424,2.883,3.238,4.789,1.33c3.184-3.188,6.367-6.375,9.55-9.562c1.89-1.891,3.778-3.782,5.667-5.673
			c0.706-0.707,2.251-1.726,2.636-2.691c1.177-2.959-3.174-6.613-6.009-5.456c-0.11,0.045-0.199,0.095-0.271,0.147
			c-0.138,0.101-0.523,0.543-0.913,0.934c-3.036,3.039-6.073,6.078-9.109,9.117c-1.013,1.014-2.637,3.665-4.203,2.095
			c-1.391-1.394-2.792-3.351-4.436-4.436c-1.848-1.22-4.812,0.817-6.115,2.855c-0.297,0.465-0.425,0.432-0.224-0.083
			c0.259-0.662,0.733-1.352,1.469-2.086c5.374-5.368,6.428,4.405,11.378,2.109c3.115-1.445,7.008-5.65,8.698-8.597
			c0.711-1.239-1.408-3.16-2.681-4.273c-0.416-0.364-1.062-0.986-1.452-1.375c-1.613-1.608-2.947-2.761-5.54-2.761
			c-3.334,0-5.975,3.732-8.062,5.82c-3.157,3.157-6.315,6.315-9.472,9.473C1.435,16.12,1.105,16.461,1.083,16.487z M12.99,17.834
			c0.394-0.388,1.018-0.375,1.382,0.04c1.452,1.654,3.732,4.271,5.755,3.107c4.877-2.804,8.931-8.205,12.903-12.394
			c0.38-0.4,0.961-0.691,1.242-0.531c0.28,0.161,0.155,0.636-0.249,1.011c-3.652,3.391-7.309,6.782-10.967,10.175
			c-0.405,0.375-0.529,0.885-0.278,1.137s0.784,0.152,1.188-0.225c3.617-3.362,7.229-6.725,10.835-10.08
			c0,0,0.198-0.184,0.443-0.412c0.245-0.227,0.756-0.089,1.09,0.351c0.608,0.799,0.982,1.588,0.67,1.901
			c-0.827,0.828-1.654,1.657-2.481,2.485c-3.266,3.268-6.529,6.537-9.794,9.806c-0.839,0.842-5.005,5.623-5.589,5.039
			c-0.075-0.074-0.149-0.148-0.223-0.223c-0.124-0.123,0.102-0.531,0.503-0.91c0.067-0.062,0.133-0.126,0.2-0.189
			c0.401-0.379,0.709-0.703,0.689-0.724c-0.021-0.021-0.357,0.276-0.753,0.663c-0.065,0.064-0.13,0.128-0.196,0.191
			c-0.394,0.386-1.03,0.383-1.421-0.008c-0.161-0.162-0.323-0.322-0.484-0.483c-0.391-0.39-0.38-1.013,0.025-1.388
			c0.068-0.062,0.135-0.125,0.203-0.188c0.405-0.376,0.529-0.883,0.278-1.134c-0.251-0.252-0.784-0.15-1.188,0.227
			c-0.068,0.062-0.135,0.125-0.203,0.188c-0.405,0.375-0.949,0.464-1.216,0.195c-0.268-0.267-0.157-0.789,0.247-1.166
			c0.067-0.062,0.135-0.125,0.202-0.188c0.403-0.377,0.671-0.742,0.598-0.814c-0.073-0.074-0.45,0.185-0.841,0.574
			c-0.063,0.064-0.128,0.129-0.193,0.193c-0.391,0.39-1.025,0.391-1.416,0c-0.1-0.1-0.199-0.199-0.299-0.299
			c-0.391-0.389-0.395-1.027-0.01-1.424c0.064-0.065,0.127-0.131,0.191-0.197c0.385-0.395,0.564-0.85,0.401-1.012
			c-0.164-0.164-0.614,0.02-1.005,0.408c-0.065,0.065-0.13,0.129-0.195,0.194c-0.392,0.39-0.983,0.433-1.321,0.095
			c-0.204-0.203-0.408-0.408-0.612-0.611c-0.121-0.121-0.255-0.244-0.394-0.369c-0.222-0.201-0.081-0.678,0.312-1.066
			C11.677,19.128,12.333,18.481,12.99,17.834z M9.794,17.792c0.338-0.337,0.617-0.639,0.859-0.896
			c0.378-0.402,0.409-0.371,0.025,0.025c-0.166,0.171-0.318,0.329-0.456,0.472c-0.384,0.397-0.641,0.643-0.568,0.554
			C9.696,17.896,9.742,17.844,9.794,17.792z M10.213,17.435c0.172-0.175,0.375-0.381,0.611-0.621
			c0.388-0.394,0.982-0.911,1.344-0.83c0.361,0.081,0.284,0.62-0.101,1.017c-0.611,0.63-1.221,1.26-1.832,1.89
			c-0.384,0.396-0.933,0.421-0.949-0.01C9.27,18.449,9.826,17.828,10.213,17.435z M3.981,23.523c-0.225-0.264-0.085-0.807,0.3-1.203
			c0.198-0.204,0.395-0.406,0.591-0.609c0.385-0.396,0.774-0.56,0.883-0.371c0.063,0.108,0.132,0.221,0.208,0.334
			c0.045,0.067,0.094,0.135,0.144,0.201c0.082,0.109-0.161,0.519-0.545,0.914c-0.157,0.162-0.313,0.323-0.469,0.484
			C4.709,23.67,4.206,23.787,3.981,23.523z M14.794,30.912c1.234,1.057,2.541,1.816,3.848,1.822
			c3.605,0.016,6.051-3.588,8.325-5.863c2.832-2.834,5.573-6.084,8.606-8.818c0.411-0.37,0.872-0.436,0.985-0.144
			c0.112,0.293-0.146,0.856-0.538,1.245c-4.155,4.115-8.406,8.346-12.706,12.693c-0.389,0.393-0.598,0.802-0.458,0.9
			c0.084,0.061,0.171,0.116,0.261,0.168c0.455,0.256,0.908,0.362,0.946,0.389c0.015,0.01,0.052,0.018,0.101,0.025
			c0.059,0.008,0.411-0.316,0.788-0.72c3.819-4.086,7.585-8.122,11.209-12.013c0.377-0.403,0.65-0.279,0.493,0.25
			c-0.91,3.062-4.652,5.748-6.828,7.925c-1.668,1.669-4.811,6.086-8.045,7.797c-0.488,0.259-1.195,0.09-1.562-0.282
			c-0.367-0.375-0.986-0.357-1.379,0.029c-0.006,0.007-0.013,0.014-0.02,0.02c-0.393,0.389-0.929,0.625-1.179,0.492
			c-0.146-0.08-0.292-0.169-0.435-0.273c-0.283-0.203-0.561-0.42-0.836-0.647c-0.426-0.353-0.442-0.97-0.052-1.36
			c0.125-0.125,0.25-0.25,0.375-0.377c0.39-0.392,0.555-0.859,0.368-1.047c-0.187-0.187-0.666-0.033-1.069,0.344
			c-0.153,0.144-0.294,0.275-0.422,0.396c-0.402,0.379-1.045,0.383-1.434-0.01c-0.373-0.379-0.741-0.766-1.106-1.156
			c-0.377-0.404-0.362-1.055,0.025-1.447c0.098-0.1,0.196-0.199,0.294-0.297C13.739,30.559,14.374,30.553,14.794,30.912z
			 M12.314,29.895c0.407-0.374,0.945-0.452,1.209-0.182c0.265,0.27,0.354,0.603,0.192,0.752c-0.096,0.088-0.192,0.176-0.293,0.269
			c-0.197,0.183-0.395,0.366-0.593,0.549c-0.328,0.304-0.8,0.321-1.055,0.04s-0.131-0.812,0.275-1.186
			C12.137,30.057,12.226,29.975,12.314,29.895z M7.65,23.537c0.677,0.629,1.391,1.232,1.985,1.827
			c0.56,0.56,1.208,1.331,1.922,2.163c0.36,0.419,0.327,1.061-0.078,1.438c-0.09,0.084-0.181,0.168-0.271,0.252
			c-0.405,0.375-1.034,0.351-1.413-0.051c-0.258-0.273-0.516-0.541-0.774-0.8c-0.173-0.173-0.357-0.351-0.548-0.528
			C8.166,27.549,8.223,27,8.607,26.603c0.086-0.089,0.172-0.177,0.258-0.267c0.385-0.396,0.541-0.873,0.348-1.065
			s-0.668-0.034-1.059,0.356c-0.1,0.1-0.2,0.198-0.3,0.297c-0.392,0.391-1.009,0.438-1.375,0.104
			c-0.366-0.333-0.502-0.763-0.31-0.954c0.116-0.115,0.232-0.23,0.349-0.347c0.117-0.128,0.234-0.257,0.352-0.386
			c0.194-0.213,0.03-0.074-0.367,0.31c-0.007,0.007-0.014,0.013-0.021,0.021c-0.398,0.383-0.878,0.543-1.072,0.355
			c-0.194-0.188-0.029-0.656,0.364-1.045c0.149-0.146,0.299-0.295,0.449-0.441C6.615,23.152,7.246,23.162,7.65,23.537z M2.18,17.626
			c0.061-0.178,0.135-0.356,0.222-0.536c0.24-0.498,0.827-1.176,1.218-1.566c3.141-3.142,6.282-6.283,9.424-9.425
			c1.36-1.36,2.721-2.721,4.081-4.081c0.307-0.307,0.637-0.501,0.984-0.606c0.529-0.16,0.674,0.238,0.284,0.629
			c-5.254,5.271-10.5,10.554-15.73,15.849C2.274,18.281,2,18.148,2.18,17.626z M2.663,18.448c1.922-1.816,3.837-3.646,5.75-5.513
			c3.552-3.592,7.113-7.169,10.677-10.741c0.39-0.391,1.136-0.571,1.62-0.307c0.192,0.104,0.384,0.221,0.575,0.347
			c0.461,0.304,0.765,0.628,0.714,0.675c-0.051,0.047-0.05,0.046,0.005,0.003c0.057-0.043,0.45,0.201,0.859,0.572
			c1.457,1.322,2.718,2.871,3.346,3.498c2.429,2.428-1.675,5.175-3.302,6.804c-1.348,1.349-2.165,2.567-3.219,2.632
			c-0.551,0.034-0.646-0.56-0.261-0.956c0.034-0.035,0.067-0.069,0.101-0.103c0.385-0.396,0.6-0.817,0.466-0.927
			c-0.133-0.11-0.573,0.123-0.971,0.505c-0.052,0.05-0.104,0.1-0.158,0.151c-0.398,0.382-0.867,0.579-1.037,0.428
			c-0.097-0.086-0.196-0.179-0.3-0.283c-1.443-1.445-2.793-2.349-4.139-2.642c-0.54-0.117-0.676-0.42-0.285-0.811l7.913-7.913
			c0.391-0.391,0.377-0.404-0.029-0.03c-1.256,1.155-2.468,2.271-3.621,3.333c-1.552,1.524-3.133,3.078-4.727,4.644
			c-0.394,0.388-1.163,0.747-1.686,0.925c-1.003,0.343-2.032,1.038-3.121,2.125c-1.144,1.143-2.189,2.191-2.575,3.391
			c-0.169,0.526-0.477,1.297-0.87,1.686c-0.339,0.334-0.678,0.668-1.018,1.004c-0.393,0.389-0.936,0.312-1.125-0.207
			c-0.074-0.203-0.136-0.408-0.185-0.613C1.934,19.588,2.261,18.829,2.663,18.448z"/>
		<path d="M10.532,28.004c0.404-0.377,0.719-0.694,0.705-0.709c-0.014-0.014-0.342,0.293-0.733,0.684
			c-0.008,0.009-0.017,0.018-0.025,0.025c-0.39,0.391-0.379,0.403,0.025,0.026C10.513,28.021,10.522,28.012,10.532,28.004z"/>
	</g>
</g>
<g>
</g>
<g>
</g>
<g>
</g>
<g>
</g>
<g>
</g>
<g>
</g>
<g>
</g>
<g>
</g>
<g>
</g>
<g>
</g>
<g>
</g>
<g>
</g>
<g>
</g>
<g>
</g>
<g>
</g>
</svg>
