<?xml version="1.0" encoding="iso-8859-1"?>
<!-- Generator: Adobe Illustrator 16.0.0, SVG Export Plug-In . SVG Version: 6.00 Build 0)  -->
<!DOCTYPE svg PUBLIC "-//W3C//DTD SVG 1.1//EN" "http://www.w3.org/Graphics/SVG/1.1/DTD/svg11.dtd">
<svg version="1.1" id="Capa_1" xmlns="http://www.w3.org/2000/svg" xmlns:xlink="http://www.w3.org/1999/xlink" x="0px" y="0px"
	 width="48.727px" height="48.727px" viewBox="0 0 48.727 48.727" style="enable-background:new 0 0 48.727 48.727;"
	 xml:space="preserve">
<g>
	<g>
		<path d="M38.781,9.754c0.107-0.107,0.223-0.207,0.354-0.273l0.533-0.264c0.136-0.067,0.399-0.13,0.662-0.13c0,0,0.029,0,0.064,0
			c0.036,0,0.628,0.073,1.322,0.163l1.259,0.164l1.06,0.132c0,0,0.237,0.015,0.53,0.034s0.53-1.714,0.53-3.87
			c0-1.709-1.068-3.24-2.547-3.899C41.78,0.928,40.65,0.337,39.477,0.3l-3.868-0.298L35.597,0H35.59
			c-0.553,0.017-1.124,0.04-1.665,0.171c-0.541,0.104-1.083,0.211-1.623,0.408c-0.923,0.429-1.697,0.984-2.479,1.566
			c-0.008-0.004-0.017-0.013-0.025-0.015c-0.104-0.048-0.155-0.044-0.191-0.048l0.061,0.179c-0.058,0.044-0.116,0.086-0.175,0.13
			l-0.4,0.3l0.115,0.003l-0.12,0.13l-0.373,0.437c-0.239,0.299-0.471,0.603-0.671,0.941c-0.389,0.67-0.673,1.384-0.922,2.101
			l-0.004,0.012l-0.002,0.011c-0.185,0.947-0.166,1.911-0.158,2.854l0.003,2.84c-0.008,0.947-0.021,1.895-0.058,2.842l-0.039,0.708
			c-0.009,0.108-0.018,0.223-0.036,0.321h-0.076l-0.178,0.002l-1.425,0.01l-2.852-0.003c-0.722,0.008-1.457,0.015-2.15-0.168
			c-0.363-0.389-0.581-0.852-0.587-1.348c-0.009-0.674-0.015-1.489-0.015-2.449c0-0.351,0.046-0.67,0.13-0.966
			c0.148-0.52,0.535-1.039,0.71-1.214c0.107-0.108,0.222-0.206,0.354-0.272l0.525-0.264c0.137-0.067,0.398-0.13,0.663-0.13
			c0,0,0.03,0,0.067,0c0.037,0,0.631,0.073,1.326,0.163l1.259,0.164l1.061,0.132c0,0,0.236,0.015,0.528,0.034s0.53-1.714,0.53-3.87
			c0-1.984-1.435-3.731-3.287-4.142c-0.51-0.426-1.112-0.737-1.767-0.861c-1.461-0.162-2.972-0.246-4.453-0.374
			c-0.449,0.012-0.925,0.028-1.352,0.112c-0.464,0.086-0.909,0.164-1.351,0.284c-0.877,0.214-1.668,0.714-2.392,1.253
			c-0.708,0.57-1.385,1.204-1.924,1.927C9.648,4.639,9.298,5.491,8.989,6.345C8.75,7.352,8.812,8.407,8.795,9.452l-0.043,3.144
			c-0.03,1.047-0.055,2.091-0.148,3.136c-0.007,0.066-0.014,0.13-0.027,0.201c-0.015,0.027,0.017,0.014-0.046,0.092
			c-0.092,0.03-0.054,0.008-0.087,0.015l-0.098-0.001l-0.391-0.003L7.173,16.03l-0.78-0.007c-0.264-0.004-0.516-0.013-0.756,0.07
			c-0.982,0.353-1.506,1.408-1.749,2.38c-0.249,1.009-0.141,2.059-0.185,3.086l-0.021,1.546l-0.006,0.386l-0.001,0.097V23.6
			c-0.063,0.005-0.055,0.011,0,0.016v0.02c0.023,0.071,0.036,0.037,0.072,0.061c0.091,0.015,0.138,0.014,0.207,0.019l0.773,0.032
			l0.658,0.019v0.803c0,0.033,1.058,0.049,2.197,0.059c0.262,0.354,0.467,0.745,0.608,1.164c-0.045,0.089-0.188-0.146-0.358-0.38
			c-0.222-0.308-0.504-0.57-0.489-0.372c0.3,0.689,0.427,1.461,0.473,2.17c0.038,0.678-0.009,1.458,0.035,2.074
			c0.06,1.238,0.237,1.976,0.426,1.716c-0.343,2.204-0.766,4.771-1.127,7.429l-0.257,2.004l-0.116,1.008l-0.054,0.502l-0.026,0.252
			l-0.016,0.32c0.001,2.239,1.228,4.027,2.759,5.088c0.532,0.26,0.132-0.09-0.138-0.406c-0.267-0.328-0.446-0.565,0.317-0.062
			c0.763,0.698,1.801,1.271,3.043,1.495c0.155,0.025,0.312,0.051,0.472,0.064l0.428,0.031c0.403,0.004,0.703-0.016,1.032-0.058
			c0.648-0.087,1.285-0.271,1.887-0.539c1.201-0.54,2.277-1.431,3.018-2.621c0.369-0.593,0.648-1.261,0.801-1.958
			c0.08-0.348,0.122-0.703,0.138-1.055l0.005-0.426l-0.003-0.305c-0.047-3.246-0.338-5.789-0.711-5.984
			c-0.013,1.912-0.07,3.841-0.159,5.783l-0.027,0.543v-13.01c0-2.238,1.198-4.095,2.716-4.318l1.308-0.057l0.936-0.043l0.085-0.004
			c-0.001,0-0.002-0.001-0.003-0.002c0.007,0,0.011,0.001,0.019,0.001h0.001c-0.003,0-0.003-0.001-0.006-0.001
			c-0.006,0-0.012,0-0.015,0c-0.001,0-0.002-0.001-0.003-0.002c-0.009-0.007-0.024-0.005,0.018,0.002c0.008,0,0.006,0,0.021,0
			l-0.015,0.001l0,0c0.021,0.001,0.038,0.002,0.011,0.002c-0.009-0.001-0.004-0.001-0.011-0.002h-0.001l-0.017,0.001
			c0.038,0.012,0.107,0.047,0.181,0.1c0.324,0.228,0.664,0.662,0.903,1.115c0.247,0.459,0.417,0.971,0.5,1.489
			c0.083,0.479,0.057,1.136,0.081,1.763l0.177,7.521l0.089,3.761l0.046,1.895c0.03,0.709,0.249,1.414,0.604,2.012
			c0.715,1.203,1.908,2.041,3.222,2.372c0.145,0.038,0.292,0.065,0.438,0.09c0.639,0.383,1.379,0.616,2.178,0.616h0.677
			c2.354,0,4.262-1.908,4.262-4.262V29.098c0-2.354,1.542-4.306,3.443-4.359c1.901-0.055,3.442-1.832,3.442-3.969
			c0-1.494-0.753-2.782-1.844-3.438c-0.076-0.134-0.133-0.277-0.224-0.404c-0.396-0.559-0.938-1.037-1.587-1.345
			c-0.324-0.151-0.674-0.264-1.035-0.317c-0.091-0.013-0.182-0.026-0.272-0.031l-0.216-0.021c-0.161-0.011-0.285-0.033-0.387-0.057
			c-0.462-0.079-0.916-0.283-1.272-0.539c-0.011-0.078-0.035-0.153-0.036-0.233c-0.009-0.674-0.014-1.489-0.014-2.449
			c0-0.35,0.046-0.669,0.13-0.964C38.225,10.45,38.605,9.93,38.781,9.754z M22.298,16.503l2.859,0.005l1.425-0.01l0.178-0.002h0.09
			h0.021h0.011c-0.033-0.002,0.057,0.011,0.188-0.035c0.117-0.042,0.222-0.138,0.271-0.223c0.081-0.154,0.069-0.18,0.079-0.206
			c0.036-0.195,0.038-0.292,0.05-0.424l0.039-0.728c0.039-0.959,0.053-1.91,0.061-2.861l0.001-2.845
			c-0.008-0.938-0.02-1.835,0.145-2.699c0.241-0.691,0.512-1.357,0.86-1.955c0.17-0.289,0.393-0.585,0.619-0.864l0.353-0.412
			l0.186-0.2l0.095-0.099l0.05-0.052l0.028-0.029l0.008-0.009c0.82-0.62,1.757-1.294,2.608-1.686
			c0.461-0.168,0.992-0.277,1.519-0.376c0.299-0.059,0.486-0.101,0.767-0.118c0.257-0.021,0.526-0.036,0.773-0.039l2.333,0.184
			l1.176,0.093c0.384,0.033,0.719,0.05,1.032,0.129c0.035,0.009,0.07,0.019,0.105,0.029c0.017,0.005,0.034,0.009,0.051,0.014
			c0.109,0.031,0.217,0.068,0.322,0.11c0.127,0.052,0.25,0.111,0.37,0.177c0.029,0.016,0.06,0.03,0.09,0.047
			c0.02,0.011,0.04,0.021,0.059,0.033c0.003,0.002,0.006,0.005,0.01,0.007L37.55,1.145c-0.153,0-0.353,0-0.597,0
			c-0.33,0-0.79,0.045-1.028,0.101c-0.236,0.056-1.057,0.171-1.792,0.411c-0.733,0.239-1.64,0.831-2.077,1.177
			c-0.438,0.347-0.777,0.628-0.758,0.628s-0.625,0.558-1.234,1.417c-0.609,0.858-0.957,1.893-1.05,2.149
			c-0.056,0.153-0.104,0.313-0.135,0.475c-0.03,0.164-0.047,0.313-0.063,0.462c-0.028,0.256-0.069,0.685-0.069,0.958
			c0,0.165,0,0.33,0,0.494c0,0.33,0,0.534,0,0.864c0,4.433-0.13,6.619-0.201,6.619h-2.119c0,0-1.525-0.016-3.406-0.034
			c-0.642-0.006-1.241-0.148-1.76-0.375C21.617,16.5,21.965,16.498,22.298,16.503z M11.048,45.479
			c-0.209-0.133-0.411-0.279-0.593-0.443c-0.806-0.711-1.301-1.719-1.319-2.678c0.003-1.01,0.006-2.01-0.018-2.92l0.037-1.738
			l0.13-7.569l0.026-1.903c0.022-0.646-0.026-1.371-0.185-2.047c-0.104-0.439-0.254-0.877-0.463-1.299
			c0.977,0.578,1.684,2.148,1.684,4.02v14.244C10.348,44.008,10.609,44.807,11.048,45.479z M4.446,22.193l0.013-1.927
			c-0.006-0.675,0.019-1.171,0.166-1.732c0.139-0.533,0.378-1.039,0.696-1.387c0.158-0.172,0.331-0.298,0.495-0.36
			c0.083-0.033,0.165-0.047,0.223-0.052l0.453-0.001l1.94,0.006h0.03h0.015c0.125-0.049-0.291,0.11,0.412-0.114
			c0.521-0.509,0.229-0.303,0.333-0.409l0.029-0.095l0.017-0.079l0.024-0.17l0.025-0.269l0.033-0.502l0.045-0.985
			c0.047-1.308,0.064-2.61,0.071-3.914C9.493,8.914,9.39,7.588,9.63,6.515c0.291-0.812,0.628-1.609,1.068-2.224
			c0.474-0.642,1.136-1.272,1.796-1.804c0.665-0.497,1.408-0.965,2.157-1.143c0.421-0.114,0.81-0.183,1.324-0.283
			c0.286-0.061,0.812-0.09,1.194-0.099l2.201,0.169l1.121,0.085c0.376,0.033,0.766,0.046,1.035,0.1
			c0.062,0.011,0.121,0.033,0.182,0.048L19.15,1.139c-0.157,0-0.354,0-0.596,0c-0.33,0-0.791,0.045-1.028,0.101
			c-0.237,0.056-1.057,0.171-1.792,0.409c-0.735,0.239-1.639,0.833-2.077,1.179c-0.438,0.347-1.424,1.202-2.013,2.059
			c-0.589,0.857-0.938,1.878-1.03,2.135c-0.055,0.153-0.102,0.313-0.133,0.475c-0.036,0.164-0.053,0.312-0.069,0.46
			c-0.029,0.256-0.063,0.687-0.063,0.96c0,0.165,0,0.33,0,0.494c0,0.33,0,0.534,0,0.864c0,4.433-0.137,6.619-0.2,6.619
			c0,0-1.067,0-2.383,0c-1.315,0-2.382,1.718-2.382,3.837v2.26L4.44,22.969L4.446,22.193z M15.446,47.406
			c-2.499,0.854-5.144-0.199-6.504-2.123c-0.694-0.936-1.032-2.223-0.885-3.299l0.105-1.25L8.16,40.787
			c-0.021,0.369-0.053,0.732-0.073,1.102c-0.016,0.286-0.039,0.62,0.004,0.987c0.038,0.347,0.118,0.69,0.236,1.021
			c0.236,0.662,0.622,1.262,1.102,1.764c0.961,1.003,2.305,1.658,3.764,1.727c0.251,0.012,0.499-0.02,0.747-0.044
			c0.22,0.035,0.44,0.068,0.669,0.068h0.67c0.072,0,0.138-0.019,0.209-0.021C15.475,47.393,15.461,47.4,15.446,47.406z"/>
		<polygon points="17.183,0.331 17.19,0.332 17.192,0.332 		"/>
		<polygon points="8.986,6.353 8.989,6.344 8.99,6.338 		"/>
	</g>
</g>
<g>
</g>
<g>
</g>
<g>
</g>
<g>
</g>
<g>
</g>
<g>
</g>
<g>
</g>
<g>
</g>
<g>
</g>
<g>
</g>
<g>
</g>
<g>
</g>
<g>
</g>
<g>
</g>
<g>
</g>
</svg>
