<?xml version="1.0" encoding="iso-8859-1"?>
<!-- Generator: Adobe Illustrator 16.0.0, SVG Export Plug-In . SVG Version: 6.00 Build 0)  -->
<!DOCTYPE svg PUBLIC "-//W3C//DTD SVG 1.1//EN" "http://www.w3.org/Graphics/SVG/1.1/DTD/svg11.dtd">
<svg version="1.1" id="Capa_1" xmlns="http://www.w3.org/2000/svg" xmlns:xlink="http://www.w3.org/1999/xlink" x="0px" y="0px"
	 width="37.111px" height="37.111px" viewBox="0 0 37.111 37.111" style="enable-background:new 0 0 37.111 37.111;"
	 xml:space="preserve">
<g>
	<g>
		<path d="M1.044,12.579c-0.888,2.718,1.172,2.515,3.395,2.868c5.826,0.924,6.831,6.223,9.654,10.415
			c2.655,3.943,6.684,4.029,10.39,1.246c2.365-1.776,2.531-5.068,3.69-7.644c0.227-0.504,0.883-0.692,1.249-0.278
			c0.26,0.295,0.402,0.624,0.429,0.988c0.039,0.551-0.23,1.42-0.329,1.964c-0.214,1.176-0.524,2.318-0.872,3.472
			c-1.57,5.235-7.967,8.937-13.039,5.478c-5.056-3.449-6.891-14.013-14.77-12C0.506,19.173-0.021,19.397,0,19.813
			C0.505,29.577,8.702,36.337,18.1,36.697c9.209,0.353,17.01-6.771,18.711-15.515c1.929-9.91-5.689-18.653-15.019-20.47
			C12.957-1.006,4.374,4.593,1.044,12.579z M15.129,22.38c-0.283,0.263-0.661,0.192-0.839-0.159
			c-0.177-0.351-0.145-0.798,0.068-0.999c0.215-0.2,0.505-0.062,0.748,0.238C15.351,21.762,15.414,22.117,15.129,22.38z
			 M34.626,22.745c-1.514,7.774-8.476,12.544-15.808,12.688c-0.553,0.011-1.268-0.059-1.597-0.134
			c-0.328-0.075-0.629-0.112-0.675-0.066c-0.047,0.047-0.529,0.034-1.073-0.062c-0.521-0.092-1.041-0.21-1.557-0.354
			c-0.532-0.146-0.828-0.423-0.67-0.581c0.158-0.157,0.071-0.394-0.19-0.532c-0.26-0.141-0.671-0.07-0.915,0.174
			s0.056,0.026-0.033,0.107c-0.09,0.082-0.575-0.023-1.067-0.274c-0.524-0.268-1.031-0.565-1.519-0.892
			c-0.459-0.307-0.605-0.794-0.348-1.055c0.257-0.26,0.436-0.499,0.399-0.533c-0.035-0.033-0.288,0.146-0.562,0.399
			c-0.275,0.255-0.743,0.269-1.033,0.017s-0.277-0.686,0.018-0.957c0.295-0.271,0.344-0.691,0.116-0.948
			c-0.227-0.258-0.649-0.241-0.957,0.046c-0.307,0.287-0.861,0.19-1.211-0.236c-0.339-0.414-0.658-0.843-0.959-1.286
			c-0.31-0.457-0.257-1.132,0.088-1.487c0.346-0.354,0.515-0.857,0.388-1.128c-0.128-0.27-0.518-0.199-0.882,0.162
			c-0.363,0.362-0.859,0.276-1.075-0.206c-0.217-0.481-0.21-1.043-0.011-1.239c0.12-0.119,0.24-0.239,0.361-0.358
			c0.115-0.127,0.231-0.254,0.347-0.38c0.192-0.21,0.025-0.07-0.372,0.313c-0.003,0.002-0.005,0.006-0.008,0.008
			c-0.398,0.384-0.807,0.469-0.906,0.188c-0.1-0.281,0.147-0.825,0.54-1.213c0.029-0.029,0.059-0.059,0.089-0.088
			c0.393-0.388,0.654-0.938,0.592-1.228c-0.038-0.174-0.073-0.349-0.102-0.526c-0.004-0.027-0.008-0.053-0.012-0.079
			c-0.007-0.044-0.325,0.244-0.709,0.64c-0.06,0.062-0.121,0.125-0.182,0.188c-0.385,0.396-0.781,0.391-0.864-0.019
			c-0.084-0.408,0.089-0.973,0.365-1.257c0.276-0.285,0.938-0.405,1.433-0.16c3.683,1.823,6.558,8.176,8.627,10.454
			c2.385,2.624,5.38,3.021,8.698,2.603c3.89-0.493,6.692-3.081,8.406-6.378c0.255-0.49,0.749-1.219,1.139-1.611
			c0.457-0.461,0.909-0.918,1.354-1.367c0.389-0.393,0.751-0.901,0.804-1.137s-0.215-0.103-0.595,0.3
			c-0.401,0.426-0.799,0.848-1.194,1.266c-0.379,0.402-0.525,0.311-0.36-0.218c0.136-0.432,0.255-0.87,0.356-1.31
			c0.126-0.538,0.509-1.306,0.886-1.709c0.256-0.274,0.511-0.548,0.767-0.821c0.376-0.404,0.711-0.976,0.744-1.275
			c0.024-0.212,0.046-0.395,0.063-0.542c0.013-0.108,0.02-0.212,0.021-0.312c0.002-0.172-0.331,0.004-0.725,0.393
			c-0.193,0.192-0.387,0.385-0.581,0.576c-0.392,0.39-0.674,0.257-0.661-0.295c0.01-0.438,0.003-0.871-0.022-1.296
			c-0.094-1.595-3.036-0.628-3.679-0.37c-2.562,1.032-2.968,5.979-3.959,7.958c-0.955,1.907-2.21,2.63-3.494,2.628
			c-0.553-0.001-0.93-0.194-0.855-0.268c0.073-0.073,0.015-0.215-0.121-0.328c-0.137-0.112-0.345-0.115-0.474,0.003
			s-0.649,0.039-1.113-0.261c-0.124-0.081-0.246-0.165-0.367-0.254c-0.444-0.327-0.547-0.849-0.274-1.106
			c0.272-0.257,0.483-0.483,0.471-0.503c-0.013-0.021-0.244,0.178-0.516,0.444c-0.271,0.266-0.821,0.176-1.181-0.244
			c-0.345-0.403-0.649-0.828-0.901-1.255c-0.014-0.022-0.025-0.046-0.039-0.069c-0.02-0.038,0.256-0.342,0.619-0.679
			c0.362-0.337,0.571-0.776,0.467-0.983s0.282-0.332,0.781-0.567c0.462-0.218,0.854-0.598,1.096-1.04
			c0.06-0.11,0.118-0.225,0.174-0.341c0.091-0.189,0.211-0.222,0.287-0.071c0.075,0.148,0.479-0.042,0.883-0.417
			c0.158-0.147,0.316-0.294,0.475-0.44c0.405-0.375,0.759-0.768,0.785-0.876c0.027-0.108,0.243,0.232,0.677,0.575
			c0.313,0.249,0.688,0.369,1.13,0.287c1.565-0.291,2.053-1.627,2.449-3.011c0.089-0.335,0.171-0.683,0.24-1.036
			c0.107-0.542,0.482-1.294,0.888-1.67c0.143-0.134,0.285-0.268,0.43-0.4c0.404-0.376,0.676-0.993,0.55-1.36
			c-0.126-0.368-0.602-0.342-1.007,0.033c0,0,0,0,0,0.001c-0.405,0.375-0.788,0.353-0.926-0.033
			c-0.138-0.384-0.051-0.904,0.259-1.189s0.414-0.641,0.199-0.724c-0.214-0.083-0.576,0.085-0.786,0.282s-0.599,0.063-0.962-0.181
			c-0.221-0.148-0.462-0.255-0.728-0.307c-1.198-0.229-2.336,0.471-2.969,1.439c-0.689,1.056-0.582,2.265-0.419,3.44
			c0.008,0.057,0.017,0.12,0.027,0.188c0.015,0.105-0.088,0.303-0.229,0.442c-0.143,0.139-0.262,0.135-0.268-0.008
			c-0.005-0.088-0.011-0.175-0.02-0.26c-0.05-0.484-0.113-1.075-0.233-1.669c-0.108-0.542,0.025-1.253,0.37-1.605
			c0.345-0.354,0.552-0.735,0.442-0.833c-0.108-0.099-0.451,0.087-0.752,0.381c-0.3,0.294-0.676,0.229-0.923-0.084
			c-0.151-0.192-0.325-0.358-0.529-0.488c-0.932-0.595-2.214-0.141-2.985,0.513c-0.764,0.646-1.231,1.721-1.305,2.702
			c-0.052,0.682,0.122,1.396,0.194,2.069c0.107,1.005,0.289,2.008,0.539,2.987c0.054,0.194,0.112,0.425,0.181,0.669
			c0.104,0.369,0.034,0.836-0.182,1.052c-0.215,0.215-0.589-0.011-0.845-0.5c-0.086-0.165-0.174-0.329-0.263-0.493
			c-0.265-0.485-0.233-1.14,0.093-1.475c0.326-0.336,0.474-0.747,0.322-0.91c-0.151-0.164-0.351-0.225-0.435-0.143
			c-0.05,0.049-0.101,0.097-0.154,0.147c-0.133,0.132-0.265,0.263-0.395,0.393c-0.218,0.218-0.507,0.224-0.654,0.021
			c-0.089-0.122-0.18-0.243-0.273-0.362c-0.197-0.25-0.422-0.477-0.665-0.687c-0.4-0.347-0.599-0.74-0.395-0.941
			c0.203-0.201,0.105-0.498-0.229-0.64c-0.335-0.144-0.745-0.104-0.908,0.064c-0.163,0.168-0.511,0.191-0.782,0.062
			c-0.271-0.131-0.392-0.335-0.264-0.464c0.128-0.129,0.118-0.137-0.014-0.009c-0.131,0.129-0.272,0.22-0.318,0.197
			c-0.048-0.021,0.011-0.138,0.13-0.259c0.119-0.122-0.169-0.312-0.648-0.389c-0.479-0.077-0.94-0.045-1.024,0.038
			s-0.594,0.078-1.134-0.037c-0.184-0.039-0.366-0.082-0.544-0.129c-0.533-0.143-0.802-0.467-0.629-0.634
			c0.173-0.167,0.309-0.353,0.315-0.414c0.004-0.034,0.011-0.07,0.021-0.107c0.043-0.153,0.091-0.304,0.141-0.454
			c0.082-0.249-0.16-0.131-0.549,0.262c-0.004,0.003-0.007,0.007-0.011,0.012c-0.389,0.392-1.037,0.496-1.159,0.076
			c-0.064-0.223-0.058-0.479,0.039-0.778c0.152-0.365,0.316-0.72,0.488-1.065c0.248-0.494,0.783-1.202,1.172-1.595
			C6.355,7.926,8.062,6.203,9.754,4.5c0.39-0.393,1.096-0.932,1.594-1.17c4.577-2.199,10.107-2.208,15.233,0.545
			C33.317,7.496,36.02,15.581,34.626,22.745z M15.782,12.448c0.057-0.113,0.123-0.224,0.196-0.328
			c0.12-0.173,0.257-0.282,0.28-0.262c0.015,0.015,0.028,0.027,0.041,0.039c0.848,0.812,0.969,2.441,1.124,3.526
			c0.203,1.427-0.13,2.833-0.53,4.202c-0.029,0.1-0.061,0.208-0.095,0.321c-0.054,0.178-0.265-0.029-0.413-0.48
			c-0.09-0.274-0.169-0.551-0.245-0.825c-0.325-1.274-0.487-2.567-0.634-3.873C15.413,13.927,15.387,13.23,15.782,12.448z
			 M19.278,17.747c0.015-0.087,0.028-0.174,0.041-0.262c0.079-0.546,0.24-1.128,0.416-1.294c0.177-0.165,0.384,0.054,0.491,0.481
			s-0.086,1.054-0.469,1.409C19.375,18.436,19.187,18.291,19.278,17.747z M21.676,12.888c0.021-0.368,0.123-0.724,0.234-1.072
			c0.041-0.118,0.09-0.232,0.147-0.344c0.096-0.183,0.18-0.349,0.154-0.391c-0.024-0.042,0.127,0.018,0.306,0.175
			c0.107,0.095,0.205,0.201,0.293,0.317c1.228,1.408,0.792,3.591,0.37,5.204c-0.04,0.141-0.092,0.335-0.153,0.546
			c-0.087,0.301-0.183,0.514-0.197,0.481c-0.011-0.019-0.021-0.039-0.029-0.059c-0.387-0.816-0.594-1.727-0.804-2.6
			C21.825,14.426,21.632,13.634,21.676,12.888z"/>
		<path d="M25.745,17.514c-0.396,0.385-0.707,0.713-0.693,0.729c0.013,0.015,0.341-0.287,0.734-0.675
			c0.161-0.158,0.324-0.318,0.488-0.479c0.395-0.387,0.721-0.725,0.729-0.753c0.009-0.028-0.309,0.257-0.704,0.641
			C26.113,17.154,25.929,17.333,25.745,17.514z"/>
		<path d="M26.268,17.103c-0.159,0.156-0.318,0.312-0.478,0.468c-0.396,0.386-0.693,0.729-0.666,0.765
			c0.027,0.035,0.376-0.247,0.775-0.627c0.08-0.076,0.16-0.152,0.239-0.229c0.4-0.38,0.752-0.774,0.784-0.882
			C26.957,16.491,26.663,16.717,26.268,17.103z"/>
		<path d="M31.604,26.286c-1.782,1.796-3.509,3.536-5.178,5.218c-0.389,0.392-0.276,0.574,0.227,0.348
			c1.893-0.849,3.185-2.153,3.98-3.209c0.41-0.544,0.879-1.361,1.265-2.153C32.139,25.992,31.994,25.894,31.604,26.286z"/>
	</g>
</g>
<g>
</g>
<g>
</g>
<g>
</g>
<g>
</g>
<g>
</g>
<g>
</g>
<g>
</g>
<g>
</g>
<g>
</g>
<g>
</g>
<g>
</g>
<g>
</g>
<g>
</g>
<g>
</g>
<g>
</g>
</svg>
