<?xml version="1.0" encoding="iso-8859-1"?>
<!-- Generator: Adobe Illustrator 16.0.0, SVG Export Plug-In . SVG Version: 6.00 Build 0)  -->
<!DOCTYPE svg PUBLIC "-//W3C//DTD SVG 1.1//EN" "http://www.w3.org/Graphics/SVG/1.1/DTD/svg11.dtd">
<svg version="1.1" id="Capa_1" xmlns="http://www.w3.org/2000/svg" xmlns:xlink="http://www.w3.org/1999/xlink" x="0px" y="0px"
	 width="39.258px" height="39.258px" viewBox="0 0 39.258 39.258" style="enable-background:new 0 0 39.258 39.258;"
	 xml:space="preserve">
<g>
	<g>
		<path d="M37.258,5.975c-0.459-0.346-1.035-0.519-1.624-0.485L18.322,5.382L9.75,5.328L5.512,5.311L4.769,5.309
			C4.603,5.307,4.448,5.305,4.307,5.305c-0.271,0.006-0.533,0.001-0.8,0L3.09,5.306c-0.021,0-0.04,0.008-0.06,0.008
			C2.96,5.318,2.891,5.318,2.821,5.328c-0.009,0.001-0.017,0-0.025,0.001C2.704,5.341,2.615,5.364,2.525,5.386
			c-0.03,0.007-0.061,0.011-0.091,0.019C2.407,5.412,2.38,5.423,2.354,5.431C2.331,5.438,2.311,5.448,2.289,5.456
			C2.164,5.499,2.044,5.553,1.928,5.615C1.908,5.625,1.886,5.629,1.867,5.64C1.86,5.644,1.855,5.649,1.848,5.653
			C1.825,5.666,1.805,5.684,1.783,5.697C1.712,5.741,1.645,5.791,1.58,5.842C1.533,5.879,1.486,5.914,1.445,5.951
			C1.428,5.966,1.41,5.977,1.394,5.992C1.366,6.019,1.349,6.046,1.323,6.073c-0.062,0.066-0.121,0.13-0.171,0.195
			C1.11,6.321,1.072,6.372,1.037,6.425C1.021,6.45,1.008,6.472,0.993,6.496C0.819,6.778,0.727,7.044,0.684,7.242
			c-0.065,0.33-0.041,0.502-0.031,0.56C0.695,7.929,0.687,7.573,0.9,7.062c0.204-0.505,0.74-1.125,1.457-1.331
			C2.714,5.61,3.058,5.614,3.436,5.632l0.983,0.015l17.739,0.076l9.018,0.063l4.518,0.026c0.293-0.012,0.559,0.038,0.805,0.122
			H4.124c-1.323,0-2.397,1.074-2.397,2.397v18.148c-0.067-0.017-0.134,0.025-0.203-0.218C2.092,16.859,0.922,5.548,0,8.233
			c0.441,4.893,0.605,9.983,0.627,15.173l-0.008,3.912l-0.021,1.967l-0.011,0.988c0,0.348,0.074,0.697,0.216,1.018
			c0.281,0.644,0.839,1.166,1.516,1.398c0.167,0.059,0.343,0.098,0.53,0.123c0.039,0.004,0.082,0.004,0.123,0.006
			c0.344,0.189,0.732,0.307,1.151,0.307h12.024c2.674,0.051,5.335,0.087,7.975,0.087c2.229,0.001,4.437-0.029,6.623-0.087h2.815
			l-2.492,0.195c-2.033,0.144-4.051,0.248-6.03,0.262c0.204,0.386,5.269,0.602,8.383-0.022c0.692,0.048-0.457,0.19-0.04,0.253
			c0.663-0.023,1.352-0.074,2.044-0.143l0.558-0.059c0.242-0.029,0.484-0.08,0.713-0.164c0.276-0.099,0.527-0.242,0.763-0.406
			c1.032-0.268,1.8-1.196,1.8-2.312V8.331C39.258,7.145,38.393,6.165,37.258,5.975z M13.209,6.892h13.554
			c1.323,0,1.638,0.758,0.701,1.695l-5.278,5.275c-0.937,0.936-2.495,0.979-3.48,0.097L12.599,8.49
			C11.611,7.608,11.885,6.892,13.209,6.892z M6.808,13.619c0-1.323,0.811-1.694,1.811-0.827l6.833,5.916
			c1,0.867,0.959,2.222-0.092,3.027l-6.65,5.092c-1.051,0.806-1.902,0.386-1.902-0.939V13.619z M31.777,32.23H27.34
			c0.372-0.148,3.952,0.004,3.811-0.25c-2.422-0.438-8.483-0.373-10.188,0.145c-4.01-0.125-8.109-0.379-12.167-0.572l-1.8-0.074
			C6.874,31.332,6.807,31.17,6.807,31c0-0.68,0.851-1.885,1.899-2.691l7.376-5.673c1.048-0.808,2.461-0.899,3.153-0.206
			c0.691,0.693,1.842,0.693,2.567,0c0.728-0.693,2.163-0.596,3.208,0.217l7.27,5.651c1.045,0.812,1.894,2.022,1.894,2.702
			C34.175,31.678,33.102,32.23,31.777,32.23z M34.175,25.888c0,1.324-0.834,1.722-1.86,0.888l-6.436-5.225
			c-1.027-0.835-1.098-2.265-0.157-3.196l6.749-6.67c0.94-0.932,1.704-0.612,1.704,0.711V25.888z"/>
	</g>
</g>
<g>
</g>
<g>
</g>
<g>
</g>
<g>
</g>
<g>
</g>
<g>
</g>
<g>
</g>
<g>
</g>
<g>
</g>
<g>
</g>
<g>
</g>
<g>
</g>
<g>
</g>
<g>
</g>
<g>
</g>
</svg>
