<?xml version="1.0" encoding="iso-8859-1"?>
<!-- Generator: Adobe Illustrator 16.0.0, SVG Export Plug-In . SVG Version: 6.00 Build 0)  -->
<!DOCTYPE svg PUBLIC "-//W3C//DTD SVG 1.1//EN" "http://www.w3.org/Graphics/SVG/1.1/DTD/svg11.dtd">
<svg version="1.1" id="Capa_1" xmlns="http://www.w3.org/2000/svg" xmlns:xlink="http://www.w3.org/1999/xlink" x="0px" y="0px"
	 width="47.477px" height="47.477px" viewBox="0 0 47.477 47.477" style="enable-background:new 0 0 47.477 47.477;"
	 xml:space="preserve">
<g>
	<g>
		<path d="M45.421,17.198H44.19c-1.105,0-2-0.896-2-2v-1.079c0-1.104-0.709-2-1.584-2c-0.349,0-0.668,0.147-0.93,0.389
			c-0.048,0.028-0.102,0.042-0.145,0.079c-0.397,0.32-0.635,0.79-0.799,1.262c-0.184,0.479-0.16,0.989-0.219,1.491
			c-0.097,0.496-0.307,0.973-0.623,1.369c-0.134,0.169-0.296,0.321-0.475,0.449c-0.128,0.026-0.26,0.04-0.395,0.04h-1.233
			c-0.536,0-1.021,0.169-1.379,0.441c-0.232,0.092-0.449,0.223-0.632,0.394c-0.35,0.328-0.582,0.86-0.396,1.33
			c0.032,0.069,0.079,0.128,0.121,0.19c0.005,0.011,0.003,0.016,0.01,0.027c0.007,0.009,0.017,0.016,0.023,0.024
			c0.235,0.315,0.585,0.536,0.934,0.703c0.054,0.025,0.111,0.037,0.166,0.06c0.001,0.001,0.002,0.001,0.005,0.002
			c0.113,0.09-0.257-0.048-0.205,0.011c0.562,0.37,1.252,0.372,1.153,0.289c0.431,0.09,0.835,0.167,1.228,0.407
			c0.389,0.215,0.742,0.51,0.979,0.804c0.101,0.076-0.094-0.207,0.058-0.068c0.119,0.208,0.217,0.441,0.235,0.651
			c0.006,0.053-0.001,0.102,0.004,0.155l-0.008,0.239l-0.003,0.459c-0.002,0.573,0.074,1.086,0.164,1.132
			c-0.055-0.417-0.014-0.739-0.006-1.096c0.005-0.338,0.064-0.743,0.025-0.994c-0.076-0.43-0.4-0.827-0.804-1.136
			c0.022,0.016,0.046,0.032,0.067,0.049c0.125,0.094,0.246,0.193,0.351,0.305c0.026,0.029,0.05,0.061,0.076,0.091
			c0.116,0.138,0.224,0.283,0.301,0.445c0.085,0.187,0.106,0.365,0.104,0.576l-0.012,0.672c0.002,0.44-0.053,0.921,0.103,1.406
			c0.141,0.47,0.429,0.922,0.875,1.195c0.221,0.135,0.481,0.217,0.745,0.223c0.259,0.017,0.572-0.12,0.748-0.287
			c0.068-0.064,0.111-0.143,0.17-0.213c0.688-0.218,1.199-0.998,1.199-1.934v-1.386c0-0.239,0.049-0.465,0.127-0.678
			c0.178-0.292,0.388-0.562,0.658-0.767c0.362-0.291,0.832-0.27,1.289-0.267c0.454-0.013,0.92,0.035,1.366-0.1
			c0.269-0.075,0.513-0.213,0.735-0.383c0.627-0.268,1.058-0.786,1.058-1.389C47.421,17.907,46.526,17.198,45.421,17.198z
			 M37.964,16.797c0.347-0.429,0.571-0.941,0.666-1.484c0.052-0.289,0.019-0.54,0.06-0.788c0.033-0.251,0.096-0.5,0.182-0.739
			c0.104-0.282,0.247-0.561,0.43-0.797c-0.175,0.322-0.277,0.71-0.277,1.13v1.079c0,0.863-0.551,1.592-1.315,1.872
			C37.8,16.984,37.887,16.892,37.964,16.797z M37.331,21.133c0.007,0.004,0.014,0.007,0.02,0.011
			c0.006,0.004,0.01,0.008,0.016,0.011C37.354,21.148,37.341,21.141,37.331,21.133z M40.155,25.782
			c-0.264,0.034-0.588-0.075-0.821-0.275c-0.147-0.229-0.448-0.762-0.458-1.383c-0.006-0.328-0.004-0.71-0.023-1.03l-0.033-0.458
			c-0.018-0.163-0.055-0.317-0.109-0.428c-0.005,0.01,0.025,1.44-0.038,1.397c-0.052-0.251-0.071-0.598-0.076-0.987
			c-0.003-0.411-0.215-0.833-0.516-1.144c-0.284-0.3-0.622-0.509-0.937-0.644c-0.248-0.118-0.507-0.211-0.779-0.268
			c-0.531-0.069-1.008-0.061-1.484-0.246c-0.463-0.166-0.928-0.406-1.229-0.774c-0.315-0.344-0.228-0.897,0.072-1.26
			c0.102-0.13,0.231-0.235,0.369-0.329c-0.188,0.241-0.302,0.523-0.302,0.828c0,0.875,0.896,1.584,2,1.584h1.233
			c1.104,0,2,0.896,2,2v1.386c0,0.995,0.578,1.813,1.332,1.968C40.292,25.753,40.225,25.774,40.155,25.782z"/>
		<path d="M0.167,43.588c0.053,0.136,0.115,0.252,0.179,0.356c0.126,0.201,0.254,0.354,0.381,0.494
			c0.249,0.268,0.494,0.479,0.738,0.671c0.972,0.747,1.973,1.241,2.938,1.523c0.327-0.047-0.466-0.46,0.057-0.443
			c2.087,1.555,5.835,1.521,6.02,0.846c-1.413-0.151-2.84-0.497-4.254-0.969c-1.137-0.39-2.277-0.843-3.367-1.42
			c0.083,0.037,0.165,0.077,0.249,0.112c0.852,0.351,1.731,0.617,2.622,0.838c1.782,0.438,3.612,0.69,5.459,0.846
			c3.698,0.302,7.468,0.191,11.212-0.028c3.746-0.225,7.469-0.559,11.123-0.819l5.444-0.365c0.905-0.061,1.808-0.121,2.729-0.221
			c0.463-0.054,0.928-0.112,1.423-0.221c0.249-0.056,0.504-0.122,0.786-0.232c0.279-0.127,0.603-0.235,0.992-0.71
			c0.104-0.347,0.069-0.67-0.025-0.822c-0.092-0.156-0.201-0.161-0.307-0.101c-0.194,0.151-0.529,0.435-0.89,0.446
			c-0.698,0.068-1.674-0.01-2.95-0.008c-2.529-0.016-6.08,0.095-9.313,0.803c-0.417-0.263,0.276-0.57-1.085-0.797
			c-5.306-0.116-11.133,1.229-16.777,1.328c-1.147-0.965-5.274-1.441-7.021-0.971c-0.182,0.477,2.69,0.507,2.579,0.842
			c-1.055,0.412-2.822,0.069-4.45-0.367l-2.154-0.62c-0.015-0.006-0.032-0.01-0.047-0.017c-0.423-0.175-0.925-0.449-1.042-0.662
			c-0.005-0.002-0.004-0.009-0.004-0.015c0.024,0.001,0.028-0.027,0.081-0.067c0.106-0.098,0.3-0.208,0.504-0.297
			c0.415-0.182,0.893-0.319,1.373-0.438c1.944-0.458,4.011-0.688,6.077-0.895c0.777-0.074,1.559-0.132,2.342-0.191
			c0.624,0.402,1.485,0.812,2.488,1.14c0.312,0.102,0.549,0.168,0.854,0.25c0.308,0.074,0.625,0.149,0.932,0.202
			c0.621,0.12,1.258,0.189,1.887,0.239c2.506,0.181,4.896-0.148,5.899-0.546c1.999-0.23,3.986-0.771,5.865-1.646
			c3.205,0.12,6.397,0.319,9.468,0.84c0.521,0.09,1.043,0.178,1.557,0.293c0.758,0.173,2.16,0.357,2.839,0.712
			c0.36,0.159,0.409,0.486,0.461,0.376c0.034-0.011,0.028-0.266-0.147-0.46c-0.125-0.154-0.346-0.299-0.609-0.437
			c-0.062-0.034-0.121-0.066-0.193-0.101c-0.031-0.014-0.05-0.03-0.083-0.044c-0.041-0.017-0.082-0.026-0.123-0.042
			c-0.086-0.036-0.157-0.072-0.257-0.106c-0.178-0.063-0.355-0.114-0.536-0.167c-0.056-0.018-0.112-0.036-0.168-0.053
			c-0.321-0.092-0.646-0.175-0.97-0.249c-0.141-0.034-0.309-0.062-0.485-0.09c-1.096-0.222-2.207-0.371-3.321-0.515
			c-1.994-0.232-4.008-0.372-6.033-0.466c-0.119-0.006-0.241-0.008-0.361-0.013c1.826-1.051,3.486-2.544,4.512-4.514
			c0.569-1.071,0.926-2.265,1.024-3.492c0.086-1.161,0.011-2.456-0.416-3.634c-0.067-0.232-0.22-0.571-0.347-0.866
			c-0.143-0.272-0.275-0.554-0.442-0.812l-0.121-0.196l-0.086-0.133l-0.058-0.082l-0.233-0.326
			c-0.177-0.227-0.375-0.493-0.565-0.703c-0.379-0.449-0.807-0.857-1.181-1.217c-0.401-0.384-0.803-0.741-1.215-1.097l-0.042-0.037
			l-0.039-0.027c-0.816-0.58-1.539-1.11-2.43-1.696l-0.897-0.535l-0.034-0.018l-0.002-0.001c0.026,0.024,0.077,0.071,0.069,0.064
			l-0.004-0.002l-0.009-0.005l-0.015-0.011l-0.056-0.037c-0.016-0.007,0.023,0.041,0.02,0.056c0.018,0.061-0.027,0.021-0.039,0.036
			c-0.054-0.001-0.084,0.052-0.145,0.04c-0.1-0.237-0.152-0.502-0.152-0.796c0-0.392,0.082-0.736,0.229-1.042l0.421-0.436
			c0.272-0.277,0.698-0.612,1.075-0.921c0.758-0.599,1.643-1.284,2.354-2.039c0.439-0.448,0.814-0.954,1.135-1.487
			c0.414-0.58,0.768-1.216,1.034-1.928c0.296-0.761,0.441-1.638,0.441-2.62c0-1.025-0.157-1.938-0.464-2.736
			c-0.312-0.796-0.69-1.5-1.129-2.104c-0.445-0.605-0.908-1.113-1.401-1.521l-0.62-0.503c-0.128-0.104-0.13-0.201-0.031-0.281
			c0.16-0.002,0.354-0.012,0.6-0.048c0.289-0.04,0.632-0.107,0.994-0.191c1.024-0.079,2.473-0.493,3.414-0.994
			c0.883-0.469,0.506-0.86-0.776-0.974c-0.108-0.044-0.213-0.073-0.31-0.099c-0.024-0.005-0.049-0.005-0.074-0.01
			c-0.223-0.05-0.432-0.066-0.618-0.091c-0.011,0-0.021,0-0.031,0c-0.042-0.004-0.084-0.004-0.126-0.007
			c-0.105-0.007-0.211-0.011-0.316-0.014c-0.263-0.009-0.524-0.014-0.785-0.011h-0.168c-0.2,0-0.401-0.001-0.602,0
			c-0.066,0-0.134,0.001-0.201,0l-2.9-0.005c-1.941,0.019-3.883-0.062-5.859,0.036c-0.985,0.06-1.968,0.175-2.944,0.332
			c-0.978,0.145-1.969,0.375-2.901,0.755c-1.858,0.762-3.585,1.894-4.883,3.487c-1.282,1.58-2.098,3.553-2.213,5.621
			c-0.092,2.062,0.585,4.154,1.903,5.76c1.313,1.599,3.192,2.682,5.167,3.214c0.997,0.264,2.023,0.352,3.038,0.363l0.76-0.02
			l0.375-0.018c0.075-0.006,0.123-0.006,0.155-0.005l-0.059,0.157l-0.259,0.7l-0.024,0.064l0.001,0.063
			c0.015,0.846,0.09,1.656,0.335,2.497c0.061,0.2,0.166,0.452,0.294,0.636l0.337,0.507l0.14,0.203
			c-0.026,0.034-0.122,0.119-0.246,0.17c-0.305,0.153-0.615,0.175-1.044,0.211l-1.202,0.133c-0.797,0.1-1.6,0.202-2.393,0.372
			c-3.121,0.651-6.362,1.796-8.495,4.331c-0.524,0.649-0.87,1.378-1.158,2.129c-0.28,0.749-0.485,1.542-0.491,2.357
			c-0.004,0.316,0.026,0.628,0.072,0.938c0.001,0.011,0,0.019,0.001,0.029c0.002,0.018,0.009,0.035,0.011,0.054
			c0.026,0.157,0.059,0.313,0.097,0.47c0.236,1.091,0.827,2.244,1.756,3.132c0.712,0.703,1.557,1.253,2.414,1.697
			c-1.609,0.106-3.211,0.233-4.794,0.407c-0.985,0.112-1.963,0.241-2.933,0.423c-0.135,0.028-0.27,0.057-0.405,0.084
			c-0.11-0.137,0.48-0.353,0.315-0.482c-0.693-0.099-1.362,0.041-1.807,0.268c-0.45,0.227-0.652,0.524-0.477,0.628
			c-0.232,0.031-0.479,0.067-0.767,0.203c-0.143,0.066-0.303,0.164-0.459,0.348c-0.077,0.091-0.153,0.209-0.206,0.354
			c-0.03,0.069-0.045,0.152-0.062,0.232l-0.005,0.03l-0.004,0.002l0.003,0.08l-0.001,0.003l-0.001,0.005l-0.006,0.021l-0.013,0.044
			c0,0.088,0.019,0.227,0.044,0.325C0.116,43.438,0.141,43.518,0.167,43.588z M29.231,28.581c0.842,0.588,1.496,1.144,1.959,1.67
			c0.461,0.524,0.805,1.071,1.033,1.632c0.23,0.566,0.344,1.188,0.344,1.868c0,1.694-0.715,3.093-2.137,4.189
			c-1.421,1.097-3.547,1.646-6.377,1.646c-1.563,0-2.982-0.157-4.25-0.474c-1.276-0.313-2.365-0.778-3.258-1.39
			c-0.903-0.617-1.595-1.321-2.07-2.12c-0.474-0.801-0.708-1.693-0.708-2.674c0-0.949,0.196-1.756,0.604-2.426
			c0.397-0.667,0.873-1.227,1.428-1.66c0.553-0.437,1.106-0.772,1.67-1.001c0.558-0.233,1.003-0.405,1.348-0.518
			c0.614-0.188,1.257-0.333,1.928-0.446c0.676-0.111,1.305-0.201,1.893-0.267c0.59-0.062,1.096-0.104,1.517-0.125
			c0.421-0.016,0.705-0.027,0.855-0.027h0.727c0.1,0,0.205,0.012,0.314,0.033c0.172,0.034,0.948,0.532,1.742,1.087
			C28.304,27.936,28.784,28.27,29.231,28.581z M25.257,3.104c0.894,0.689,1.646,1.533,2.252,2.539
			c0.603,1.004,1.054,2.088,1.353,3.248c0.295,1.165,0.445,2.238,0.445,3.224c0,0.499-0.072,1.122-0.217,1.865
			c-0.145,0.746-0.553,1.444-1.218,2.096c-0.452,0.462-1.03,0.836-1.722,1.115c-0.695,0.283-1.414,0.419-2.152,0.419
			c-1.257,0-2.332-0.333-3.24-1.006c-0.901-0.665-1.66-1.496-2.273-2.479c-0.609-0.989-1.055-2.039-1.341-3.167
			c-0.281-1.124-0.426-2.145-0.426-3.054c0-0.725,0.09-1.432,0.265-2.123c0.181-0.685,0.517-1.319,1.023-1.897
			c0.479-0.519,1.099-0.954,1.844-1.298c0.744-0.342,1.503-0.515,2.268-0.515C23.31,2.07,24.346,2.412,25.257,3.104z M9.054,30.274
			c-0.006,0.183,0.281-0.152,0.801-0.658c0.518-0.512,1.311-1.171,2.175-1.809c0.136-0.188-0.724,0.296-0.711,0.196
			c0.252-0.168,0.51-0.329,0.773-0.48c2.202-1.243,4.73-1.887,7.271-2.239c0.638-0.086,1.278-0.162,1.921-0.225
			c0.323-0.021,0.636-0.074,0.927-0.208c0.262-0.113,0.628-0.372,0.425-0.651c-0.182-0.257-0.368-0.531-0.542-0.802
			c-0.173-0.292-0.252-0.613-0.326-0.931c-0.133-0.64-0.2-1.292-0.207-1.947v-0.01l0.003-0.01l0.275-0.748
			c0.042-0.127,0.119-0.253,0.088-0.342c-0.033-0.095-0.153-0.16-0.263-0.179c-0.507-0.004-1.058,0.056-1.588,0.035
			c-1.068-0.014-2.143-0.148-3.172-0.463c-2.037-0.646-3.948-1.892-5.121-3.717c-1.16-1.813-1.606-4.087-1.129-6.189
			c0.45-2.106,1.626-4.025,3.255-5.41c1.639-1.362,3.612-2.349,5.703-2.712c1.158-0.215,2.322-0.348,3.488-0.419
			c-0.83,0.087-1.69,0.211-2.58,0.378c-1.848,0.345-3.622,1.171-5.33,2.482c-1.244,1.031-2.17,2.194-2.784,3.501
			c-0.605,1.303-0.918,2.587-0.918,3.859c0,1.07,0.21,2.126,0.638,3.165c0.42,1.043,1.058,1.965,1.899,2.77
			c0.846,0.805,1.883,1.457,3.091,1.952c1.213,0.502,2.607,0.749,4.19,0.749c0.305,0,0.624-0.011,0.948-0.03
			c0.158-0.009,0.312-0.021,0.463-0.034c0.254-0.023,0.361,0.159,0.255,0.421c-0.065,0.159-0.125,0.319-0.183,0.479
			c-0.114,0.314-0.172,0.702-0.172,1.169c0,0.883,0.172,1.599,0.514,2.149c0.174,0.276,0.356,0.547,0.544,0.812
			c0.313,0.438,0.064,0.809-0.585,0.854c-0.364,0.027-0.756,0.058-1.172,0.092c-0.913,0.076-1.875,0.202-2.892,0.379
			c-1.017,0.181-2.037,0.428-3.071,0.747c-1.037,0.321-2.01,0.732-2.918,1.238c-1.714,0.955-2.892,2.062-3.535,3.318
			c-0.645,1.258-0.962,2.381-0.962,3.376c0,0.688,0.123,1.352,0.351,1.997c-0.289-0.528-0.505-1.103-0.606-1.709
			C8.032,33.046,8.495,31.465,9.054,30.274z M8.985,37.564c-0.285-0.362-0.527-0.757-0.72-1.174l0,0
			c-0.078-0.169-0.143-0.343-0.205-0.519c0.296,0.769,0.745,1.478,1.296,2.037c0.553,0.565,1.228,1.044,1.932,1.437
			c0.129,0.098,0.249,0.2,0.387,0.295c0.217,0.149,0.453,0.291,0.692,0.429C11.052,39.476,9.855,38.664,8.985,37.564z
			 M12.907,40.961c1.256,0.502,2.399,0.832,3.247,1.111c0.044,0.105-1.163-0.086-2.329-0.459c-0.691-0.207-1.353-0.477-1.779-0.636
			c0.256-0.019,0.511-0.04,0.768-0.057C12.845,40.932,12.876,40.947,12.907,40.961z M1.393,42.904
			c-0.033,0.044-0.035-0.021-0.047-0.045c0.07,0.054,0.028,0.018,0.055,0.03C1.398,42.893,1.399,42.887,1.393,42.904z"/>
	</g>
</g>
<g>
</g>
<g>
</g>
<g>
</g>
<g>
</g>
<g>
</g>
<g>
</g>
<g>
</g>
<g>
</g>
<g>
</g>
<g>
</g>
<g>
</g>
<g>
</g>
<g>
</g>
<g>
</g>
<g>
</g>
</svg>
