<?xml version="1.0" encoding="iso-8859-1"?>
<!-- Generator: Adobe Illustrator 16.0.0, SVG Export Plug-In . SVG Version: 6.00 Build 0)  -->
<!DOCTYPE svg PUBLIC "-//W3C//DTD SVG 1.1//EN" "http://www.w3.org/Graphics/SVG/1.1/DTD/svg11.dtd">
<svg version="1.1" id="Capa_1" xmlns="http://www.w3.org/2000/svg" xmlns:xlink="http://www.w3.org/1999/xlink" x="0px" y="0px"
	 width="43.38px" height="43.38px" viewBox="0 0 43.38 43.38" style="enable-background:new 0 0 43.38 43.38;" xml:space="preserve"
	>
<g>
	<g>
		<path d="M16.663,26.013c-3.471,0.73-6.821,2.458-8.752,5.489c-7.753,12.176,24.617,17.646,28.2,3.387
			c0.893-3.556,0.071-6.374-2.407-9.026c-2.474-2.646-7.522-4.875-2.659-8.593c2.353-1.797,3.55-4.077,3.779-7.004
			c0.107-1.37-0.335-3.003-1.062-4.165c-0.417-0.667-0.831-1.236-1.317-1.783c-0.368-0.412-0.252-0.779,0.29-0.885
			c1.347-0.266,2.65-0.699,3.737-1.618c0.11-0.093,0.243-0.33,0.175-0.481c-1.008-2.236-9.31-0.984-11.291-0.984
			c-7.16,0-14.867,3.005-15.521,11.085c-0.274,3.383,2.058,6.092,4.694,7.756c1.18,0.745,2.857,1.253,4.222,1.327
			c1.121,0.061,2.477-0.216,2.387,0.389c-0.184,1.24-0.331,2.5,0.422,3.625C22.11,25.351,17.401,25.858,16.663,26.013z
			 M9.597,32.037c0.449-0.932,1.167-1.839,2.195-2.677c0.659-0.536,1.353-0.931,2.069-1.229c0.509-0.214,0.612-0.034,0.208,0.342
			c-1.367,1.271-2.733,2.542-4.1,3.814C9.565,32.664,9.358,32.534,9.597,32.037z M24.33,4.811c1.06,0.897,1.754,2.179,2.323,3.415
			c1.017,2.212,1.551,5.334,0.317,7.566c-0.267,0.483-0.902,1.124-1.363,1.428c-5.923,3.891-10.004-7.853-7.82-11.916
			C19.115,2.833,22.539,3.292,24.33,4.811z M27.895,17.14c0.053-0.04,0.149-0.132,0.21-0.205c0.06-0.074,0.37-0.499,0.642-0.981
			c0.104-0.185,0.199-0.374,0.284-0.565c0.224-0.505,0.32-0.834,0.301-0.701c-0.012,0.076-0.025,0.154-0.041,0.238
			c-0.144,0.746-0.553,1.443-1.218,2.096c-0.161,0.164-0.342,0.312-0.539,0.449c-0.318,0.222-0.397,0.237-0.159,0.063
			C27.611,17.361,27.841,17.181,27.895,17.14z M23.989,25.008c-0.026-0.136,0.205-0.487,0.523-0.791
			c0.32-0.304,0.566-0.584,0.553-0.629c-0.016-0.047-0.281,0.167-0.598,0.475c-0.314,0.309-0.703,0.128-0.945-0.368
			c-0.121-0.246-0.244-0.48-0.349-0.725c-0.216-0.508,0.076-1.268,0.482-1.643c0.198-0.184,0.396-0.366,0.593-0.551
			c0.405-0.375,0.626-0.673,0.494-0.664c-0.081,0.006-0.16,0.011-0.24,0.017c-0.324,0.02-0.643,0.029-0.947,0.029
			c-0.052,0-0.103-0.002-0.153-0.004c-0.085-0.004-0.172-0.176-0.277-0.346c-0.058-0.093-0.128-0.189-0.197-0.304
			c-0.141-0.232-0.557-0.236-0.781-0.221c-1.074,0.079-2.113,0.024-3.101-0.155c-0.544-0.101-0.956-0.243-0.932-0.269
			c0.024-0.023-0.117-0.132-0.31-0.25c-0.193-0.117-0.399-0.168-0.466-0.104c-0.066,0.062-0.542-0.039-1.033-0.291
			c-0.272-0.141-0.536-0.292-0.79-0.459c-0.462-0.304-0.648-0.749-0.456-0.939c0.192-0.189,0.172-0.568-0.021-0.863
			c-0.194-0.294-0.524-0.346-0.767-0.095c-0.243,0.251-0.597,0.286-0.781,0.069c-0.185-0.217-0.071-0.655,0.234-0.965
			c0.304-0.311,0.29-0.329-0.018-0.025c-0.307,0.304-0.57,0.526-0.593,0.483c-0.023-0.042,0.208-0.334,0.521-0.653
			c0.312-0.318,0.445-0.914,0.341-1.344s-0.469-0.473-0.862-0.084c-0.018,0.018-0.036,0.034-0.053,0.052
			c-0.394,0.388-0.91,0.3-1.089-0.223c-1.54-4.498,1.579-7.896,5.474-9.812c0.496-0.244,0.595-0.229,0.238,0.045
			c-0.208,0.158-0.415,0.333-0.621,0.524c-5.733,5.35,0.702,16.371,7.634,14.861c0.539-0.117,1.09-0.272,1.254-0.254
			c0.098,0.012,0.196,0.019,0.299,0.019c0.075,0,0.148-0.008,0.222-0.018c0.122-0.015,0.548-0.33,0.952-0.707
			c1.109-1.03,2.217-2.06,3.325-3.092c0.404-0.377,0.763-0.904,0.787-1.18c0.016-0.179,0.023-0.348,0.023-0.5
			c0-0.125-0.009-0.255-0.021-0.386c-0.02-0.214-0.362-0.08-0.769,0.295c-0.204,0.19-0.41,0.382-0.615,0.571
			c-0.405,0.376-0.621,0.243-0.559-0.305c0.003-0.023,0.005-0.047,0.008-0.07c0.06-0.55,0.377-1.303,0.782-1.677
			c0.053-0.049,0.104-0.097,0.157-0.146c0.406-0.375,0.701-0.865,0.658-1.097c-0.042-0.229-0.427-0.12-0.833,0.255
			c-0.018,0.017-0.035,0.032-0.052,0.049c-0.405,0.376-0.768,0.333-0.848-0.096c-0.08-0.428,0.125-1.066,0.493-1.434
			c0.368-0.366,0.632-0.748,0.589-0.853c-0.043-0.104-0.367,0.107-0.723,0.47c-0.355,0.36-0.73,0.358-0.861,0.002
			s0.007-0.907,0.33-1.237c0.323-0.329,0.558-0.646,0.524-0.707c-0.021-0.037-0.04-0.074-0.062-0.11
			c-0.004-0.007-0.009-0.014-0.014-0.021c-0.008-0.012-0.15,0.106-0.317,0.265c-0.098,0.094-0.196,0.187-0.301,0.285
			c-0.098,0.094-0.191,0.184-0.283,0.271c-0.155,0.148-0.458-0.113-0.716-0.566c-0.257-0.453-0.278-1.016-0.008-1.278
			s0.262-0.272-0.01-0.013c-0.271,0.261-0.68,0.188-0.94-0.149S26.837,4.6,27.037,4.377c0.2-0.224,0.148-0.561-0.133-0.715
			c-0.282-0.154-0.644-0.13-0.789,0.02c-0.146,0.148-0.434,0.118-0.653-0.057s-0.356-0.357-0.294-0.424
			c0.063-0.064-0.033-0.141-0.217-0.153c-0.185-0.015-0.713-0.262-1.219-0.483c-0.486-0.212-0.988-0.365-1.5-0.447
			c-0.545-0.087-0.98-0.084-0.961-0.104c0.02-0.021,0.465-0.141,1.003-0.232c0.333-0.057,0.66-0.102,0.979-0.134
			c2.034-0.206,4.159-0.055,6.199-0.055c0.745,0,6.576,0.258,2.123,0.772c-0.375,0.049-0.75,0.1-1.125,0.148
			c-0.436,0.058-0.947,0.258-1.081,0.719c-0.034,0.119-0.069,0.238-0.104,0.356c-0.054,0.188,0.092,0.314,0.217,0.416
			c3.119,2.529,4.237,6.229,2.52,9.993c-0.984,2.156-3.499,3.37-5.075,5.062c-2.908,3.123,3.275,5.972,4.995,7.599
			c2.219,2.1,2.938,4.732,2.406,7.293c-0.112,0.541-0.573,1.285-0.959,1.682c-0.093,0.096-0.187,0.189-0.279,0.286
			c-0.385,0.396-0.859,1.139-1.167,1.598c-0.332,0.495-0.762,0.949-1.294,1.361c-0.086,0.065-0.176,0.13-0.268,0.19
			c-0.152,0.103,0.098-0.066,0.511-0.433c1.354-1.199,2.117-2.831,1.892-4.906c-0.059-0.55,0.081-1.247,0.396-1.57
			c0.313-0.322,0.506-0.673,0.428-0.78c-0.046-0.063-0.094-0.128-0.148-0.19c-0.099-0.112-0.208-0.226-0.325-0.341
			c-0.186-0.183-0.534-0.127-0.769,0.108c-0.233,0.235-0.554,0.228-0.725-0.012s-0.176-0.573,0.004-0.755s0.276-0.366,0.214-0.411
			c-0.061-0.045-0.245,0.06-0.408,0.232c-0.164,0.173-0.515,0.051-0.808-0.251c-0.294-0.304-0.463-0.624-0.354-0.74
			c0.109-0.116,0.104-0.276-0.014-0.357c-0.067-0.048-0.137-0.096-0.211-0.146c-0.144-0.102-0.285-0.196-0.421-0.289
			c-0.234-0.157-0.504-0.205-0.6-0.109c-0.096,0.097-0.543-0.079-1.032-0.337c-1.549-0.821-3.297-1.239-5.102-1.12
			c-4.462,0.295-10.383,1.781-10.773,7.115c-0.492,6.729,10.299,8.968,16.493,6.266c0.506-0.221,0.73-0.274,0.526-0.065
			c-0.203,0.208-0.218,0.354-0.034,0.324c0.185-0.03,0.647-0.38,1.034-0.773l2.811-2.851c0.388-0.394,0.514-0.306,0.229,0.169
			c-0.303,0.504-0.656,0.995-1.06,1.467c-3.442,4.018-10.139,4.408-15.202,3.521c-0.544-0.095-1.067-0.225-1.171-0.268
			c-0.105-0.041-0.201-0.064-0.218-0.049c-0.017,0.017-0.468-0.07-0.99-0.251c-0.381-0.132-0.748-0.284-1.098-0.456
			c-0.496-0.243-0.77-0.59-0.642-0.718s0.023-0.414-0.212-0.661c-0.235-0.248-0.551-0.333-0.729-0.17
			c-0.178,0.163-0.668,0.009-1.04-0.399c-0.318-0.35-0.599-0.721-0.837-1.108c-0.29-0.472-0.168-1.185,0.192-1.55
			c0.361-0.365,0.646-0.755,0.637-0.871c-0.006-0.068-0.01-0.139-0.01-0.21c0-0.009,0.001-0.019,0.002-0.027
			c0.001-0.017-0.325,0.274-0.728,0.647s-0.855,0.328-0.946-0.116c-0.09-0.444,0.228-1.117,0.634-1.49
			c0.277-0.255,0.553-0.51,0.83-0.765c0.407-0.374,0.822-0.893,0.942-1.153c0.07-0.154,0.147-0.312,0.228-0.472
			c0.642-1.257,1.82-2.362,3.534-3.317c0.233-0.13,0.47-0.253,0.712-0.37c0.4-0.193,0.848-0.438,0.991-0.567
			c0.142-0.131,0.7-0.303,1.248-0.373c1.782-0.228,3.571-0.415,5.229-1.128c0.305-0.131,0.604-0.387,0.562-0.744
			C24.017,25.17,24.004,25.088,23.989,25.008z M23.137,20.587c0.021-0.063,0.025-0.062,0.004,0.001
			C23.121,20.651,23.117,20.65,23.137,20.587z M14.602,31.328c1.509-3.19,6.73-3.484,9.735-3.484c1.795,0,4.425,2.441,5.706,4.214
			c0.324,0.447,0.668,1.272,0.749,1.82C32.208,43.431,10.159,40.726,14.602,31.328z"/>
		<path d="M13.852,8.61c-0.472,0.477-0.943,0.951-1.415,1.428c-0.389,0.393-0.723,0.884-0.737,1.099
			c-0.008,0.13-0.014,0.259-0.014,0.388c0,0.022,0.001,0.045,0.003,0.066c0.003,0.037,0.319-0.252,0.708-0.645
			c0.322-0.324,0.645-0.646,0.967-0.971c0.39-0.393,0.79-1.025,0.925-1.401C14.424,8.196,14.241,8.217,13.852,8.61z"/>
	</g>
</g>
<g>
</g>
<g>
</g>
<g>
</g>
<g>
</g>
<g>
</g>
<g>
</g>
<g>
</g>
<g>
</g>
<g>
</g>
<g>
</g>
<g>
</g>
<g>
</g>
<g>
</g>
<g>
</g>
<g>
</g>
</svg>
