<?xml version="1.0" encoding="iso-8859-1"?>
<!-- Generator: Adobe Illustrator 16.0.0, SVG Export Plug-In . SVG Version: 6.00 Build 0)  -->
<!DOCTYPE svg PUBLIC "-//W3C//DTD SVG 1.1//EN" "http://www.w3.org/Graphics/SVG/1.1/DTD/svg11.dtd">
<svg version="1.1" id="Capa_1" xmlns="http://www.w3.org/2000/svg" xmlns:xlink="http://www.w3.org/1999/xlink" x="0px" y="0px"
	 width="32.293px" height="32.293px" viewBox="0 0 32.293 32.293" style="enable-background:new 0 0 32.293 32.293;"
	 xml:space="preserve">
<g>
	<g>
		<path d="M19.138,16.844c-1.027-1.026-1.932-1.8-2.018-1.726c-0.054,0.044-0.104,0.089-0.157,0.134l-0.433,0.433
			c-0.239-0.159-0.487-0.302-0.751-0.416l-6.95,6.875c-0.155,0.146-0.3,0.285-0.411,0.396L7.63,23.326
			c-0.059,0.059-0.102,0.104-0.151,0.152l-0.029,0.029c-1.612,1.612,0.388-0.167,1.116-0.895l7.265-7.192
			c0.002,0,0.002,0.001,0.004,0.002l0.089,0.041l0.187,0.106c0.109,0.066,0.216,0.14,0.321,0.214l-8.386,8.383
			c-1.027,1.026-2.312,2.779-3.189,3.652c-0.669,0.666-0.968,1.4-0.716,1.791c-0.041-0.003-0.083-0.004-0.123-0.007
			c0.003,0.002,0.006,0.004,0.01,0.005l-0.062-0.008c0.018,0.001,0.035,0.002,0.053,0.003c-0.283-0.084-0.461-0.38-0.429-0.722
			c0.017-0.17,0.082-0.345,0.185-0.506c0.051-0.081,0.113-0.156,0.179-0.231l0.252-0.278c0.657-0.765,1.156-1.502,1.573-2.113
			c0.809-1.222,1.266-1.943,0.713-1.671c-0.761,0.951-1.437,1.95-2.201,2.91c-0.191,0.24-0.386,0.474-0.595,0.701
			c-0.214,0.223-0.421,0.489-0.521,0.797c-0.232,0.602,0.069,1.427,0.759,1.562l0.005,0.001h0.002
			c0.586,0.026,1.173,0.004,1.761-0.036c0.11,0.008,0.221,0.02,0.329,0.025c1.387,0.079,2.732-0.211,3.846-0.621
			c0.536-0.199,1.189-0.608,1.77-0.857c0.417,0.059,0.834,0.179,1.281,0.268c0.447,0.09,0.904,0.123,1.35,0.156
			c1.741,0.113,3.491-0.053,5.15-0.462c0.386-0.062,0.762-0.135,1.133-0.218c-0.784,0.289-1.585,0.519-2.396,0.656
			c0.114,0.191,2.523-0.187,3.783-1.021c0.001-0.001,0.003-0.002,0.005-0.002c0.302-0.089-0.173,0.158,0.02,0.116
			c0.253-0.104,0.506-0.232,0.755-0.368c1.5-0.542,2.825-1.25,3.917-2.055c0.105-0.078,0.244-0.171,0.369-0.28
			c0.191-0.17-0.56-1.203-1.588-2.229L19.138,16.844z"/>
		<path d="M26.525,6.453c-0.276-0.071-0.564-0.093-0.852-0.075c-0.045,0-0.079,0.009-0.122,0.012
			c-0.07,0.007-0.141,0.013-0.211,0.025c-0.008,0.002-0.021,0.001-0.028,0.003c-0.045,0.008-0.089,0.024-0.134,0.034
			c-0.075,0.018-0.148,0.034-0.223,0.057c-0.047,0.014-0.092,0.03-0.139,0.047c-0.025,0.01-0.052,0.021-0.076,0.032
			c-0.061,0.024-0.12,0.049-0.179,0.076c-0.025,0.013-0.055,0.021-0.081,0.035c-0.015,0.011-0.023,0.018-0.039,0.027
			c-0.046,0.024-0.094,0.045-0.138,0.071c-0.09,0.073-0.166,0.135-0.231,0.188c-0.188,0.131-0.203,0.141-0.111,0.089
			c-0.519,0.416,0.073-0.071,0.724-0.361c0.123-0.052,0.249-0.099,0.373-0.136c0.105-0.018,0.21-0.042,0.314-0.048
			c0.141-0.024,0.284-0.031,0.427-0.034c0.021-0.001,0.042-0.002,0.063-0.002c0.032,0,0.066,0.001,0.101,0.003
			c0.085,0.003,0.17,0.016,0.254,0.028c-0.465,0.135-0.905,0.374-1.253,0.722l-4.803,4.806c-1.027,1.027-1.027,2.693,0,3.719
			l6.438,6.437c0.299,0.298,0.657,0.502,1.032,0.625c-0.321,0.068-0.659,0.069-0.984-0.001c-0.335-0.093-0.711-0.247-1.045-0.531
			c-0.629-0.572-1.281-1.208-1.569-1.641c0.023-0.079,1.009,1.003,1.039,0.896c-0.5-0.722-2.045-2.232-2.604-2.531
			c-0.979-1.042-1.948-2.14-2.923-3.211c-1.045-0.921-1.103-2.311-0.413-3.233c0.349-0.482,0.121-0.298,0.203-0.473
			c2.513-2.228,5.066-5.375,4.158-4.93c-1.121,1.345-2.362,2.67-3.665,3.984l-0.983,0.991c-0.323,0.347-0.54,0.789-0.646,1.256
			c-0.217,0.939,0.153,1.992,0.873,2.637c1.303,1.367,2.604,2.736,3.918,4.049c0.655,0.656,1.313,1.299,1.978,1.921
			c0.323,0.364,0.758,0.672,1.227,0.851c-0.214-0.072-0.423-0.163-0.614-0.288c-0.332-0.224-0.585-0.471-0.865-0.706
			c-0.549-0.476-1.084-0.958-1.587-1.454c-0.04,0.151,1.164,1.476,2.131,2.112c0.196,0.201-0.184-0.075-0.073,0.055
			c0.409,0.369,0.978,0.599,1.527,0.635c0.494,0.029,0.953-0.095,1.301-0.288c0.806,0.131,1.639-0.139,2.145-0.867
			c1.354-1.949,2.135-4.214,2.135-6.642c0-3.155-1.308-6.046-3.484-8.316C28.218,6.493,27.35,6.304,26.525,6.453z"/>
		<path d="M10.214,15.704c0.479,0.316,1.06,0.482,1.637,0.436c0.138-0.009,0.275-0.031,0.41-0.062
			c0.858,0.204,1.798-0.021,2.468-0.69l8.965-8.96c1.027-1.026,0.853-2.484-0.502-3.013c-1.84-0.72-3.881-1.135-6.028-1.186
			c-0.39,0-0.784,0.008-1.2,0.023c-0.725-0.034-1.453-0.036-2.177,0.026l0.114-0.01l-0.126,0.01
			c-2.851,0.236-5.754,1.133-8.181,2.761C5.29,5.239,4.999,5.456,4.709,5.683c-0.273,0.225-0.573,0.44-0.82,0.768
			C3.41,7.087,3.292,7.927,3.467,8.657C3.618,9.405,4.13,10.03,4.66,10.459c0.184,0.167,0.369,0.324,0.553,0.488
			c0.031,0.029,0.062,0.059,0.094,0.088l-0.732-0.619c-0.308-0.246-0.669-0.57-0.893-0.973C3.217,8.666,3.099,7.639,3.515,6.776
			C3.427,6.771,3.048,7.365,3.086,8.201c0.015,0.409,0.131,0.855,0.34,1.242c0.202,0.387,0.53,0.73,0.805,0.908
			c0.185,0.213-0.186-0.077-0.084,0.061c0.792,0.737,1.816,1.46,2.576,2.015c-0.134-0.021,0.335,0.545,0.939,0.984
			c0.073,0.024-0.114-0.188-0.101-0.22c0.464,0.445,0.927,0.883,1.392,1.342C9.374,14.919,9.749,15.369,10.214,15.704z
			 M7.521,12.909l-1.886-1.817c-0.282-0.301-0.635-0.639-1-0.987C3.865,9.488,3.581,8.387,3.774,7.847
			c0.043-0.018,0.012,0.363,0.101,0.732c0.077,0.372,0.273,0.697,0.306,0.645C4.044,8.797,3.878,8.02,4.111,7.351
			c0.104-0.332,0.282-0.623,0.484-0.838c0.23-0.241,0.429-0.456,0.526-0.597C6.386,4.986,7.85,4.292,9.343,3.805
			C9.42,3.778,9.5,3.76,9.578,3.734c-1.485,0.659-2.846,1.493-4,2.508C4.485,7.201,4.603,8.982,5.63,10.01l5.381,5.379
			c0.271,0.271,0.59,0.466,0.927,0.594c-0.658,0.065-1.343-0.114-1.844-0.554L7.521,12.909z"/>
		<path d="M3.175,23.498L3.175,23.498c0.405,0.304,0.923,0.23,1.368,0.156c0.013-0.002,0.024-0.009,0.037-0.011
			c0.082,0.088,0.159,0.18,0.243,0.267c0.381,0.385,1.545-0.159,2.57-1.186l2.574-2.57c1.025-1.027,1.025-2.691,0-3.719
			l-5.186-5.181c-0.461-0.461-1.014-0.669-1.528-0.648c-0.339-0.176-0.751-0.268-1.138-0.22c-0.435,0.056-0.802,0.285-1.017,0.534
			c0.035-0.112-0.457,0.237-0.551,0.77c0.005,0.063,0.133-0.218,0.12-0.105c-0.001,0.002-0.001,0.004-0.002,0.006
			c-0.086,0.187-0.157,0.38-0.202,0.575c-0.034,0.118-0.058,0.241-0.089,0.36c-0.01,0.036-0.025,0.075-0.034,0.111
			c-0.002,0.018-0.001,0.025-0.003,0.042c-0.271,1.117-0.389,2.285-0.315,3.455c0.084,1.351,0.428,2.689,0.969,3.938
			c0.588,1.23,1.361,2.36,2.182,3.423L3.175,23.498z M2.883,10.667c-0.01,0.003-0.019,0.005-0.029,0.009
			c-0.083-0.029-0.162-0.064-0.246-0.082c-0.007-0.002-0.013-0.005-0.02-0.007C2.688,10.604,2.786,10.635,2.883,10.667z
			 M0.917,19.664c-0.552-1.383-0.842-2.878-0.822-4.357c0.012-0.746,0.092-1.477,0.243-2.197c0.08-0.358,0.167-0.714,0.278-1.062
			c0.096-0.348,0.24-0.685,0.482-0.926c0.318-0.353,0.8-0.472,1.267-0.421c0.09,0.014,0.178,0.025,0.271,0.051
			c-0.369,0.181-0.677,0.514-0.85,1.011c-0.402,1.162-0.619,2.39-0.619,3.662c0,1.619,0.361,3.162,0.992,4.598
			c0.549,1.165,1.238,2.197,2.002,3.164c0.105,0.124,0.22,0.241,0.33,0.36c-0.062,0.014-0.121,0.035-0.184,0.044
			c-0.048,0.007-0.097,0.018-0.146,0.021c-0.173-0.002-0.292,0-0.366,0.005c-0.209-0.014-0.414-0.059-0.557-0.181
			C2.353,22.274,1.488,21.036,0.917,19.664z"/>
	</g>
</g>
<g>
</g>
<g>
</g>
<g>
</g>
<g>
</g>
<g>
</g>
<g>
</g>
<g>
</g>
<g>
</g>
<g>
</g>
<g>
</g>
<g>
</g>
<g>
</g>
<g>
</g>
<g>
</g>
<g>
</g>
</svg>
