<?xml version="1.0" encoding="iso-8859-1"?>
<!-- Generator: Adobe Illustrator 16.0.0, SVG Export Plug-In . SVG Version: 6.00 Build 0)  -->
<!DOCTYPE svg PUBLIC "-//W3C//DTD SVG 1.1//EN" "http://www.w3.org/Graphics/SVG/1.1/DTD/svg11.dtd">
<svg version="1.1" id="Capa_1" xmlns="http://www.w3.org/2000/svg" xmlns:xlink="http://www.w3.org/1999/xlink" x="0px" y="0px"
	 width="40.541px" height="40.54px" viewBox="0 0 40.541 40.54" style="enable-background:new 0 0 40.541 40.54;"
	 xml:space="preserve">
<g>
	<g>
		<path d="M0.653,17.616c-2.139,13.57,8.057,22.209,20.638,22.841c4.993,0.251,12.226,0.095,16.571-2.841
			c1.346-0.908,1.236-2.924,1.236-4.304c0-2.694,0.713-4.727,1.07-7.277c0.037-0.265-0.175-0.526-0.425-0.594
			c-3.819-1.025-11.878-1.572-14.583,1.851c-0.279,0.354-0.184,0.802,0.258,0.96c1.251,0.446,2.205,0.396,3.553,0.409
			c2.76,0.026,2.274,2.813,2.274,4.684c0,4.846-8.11,3.348-10.863,2.497c-3.861-1.195-6.906-4.19-9.166-7.407
			c-4.062-5.782-4.093-13.921-0.222-19.755c4.128-6.221,12.932-6.516,18.658-2.537c0.453,0.315,1.117,0.934,1.331,1.443
			c0.104,0.249,0.163,0.501,0.178,0.755c0.03,0.551-0.196,1.118-0.119,1.259c0.048,0.087,0.118,0.164,0.19,0.216
			c1.976,1.432,7.005-2.457,6.758-4.539c-0.553-4.638-12.393-5.342-15.676-5.272C11.748,0.232,2.343,6.883,0.653,17.616z
			 M28.354,27.004c-0.112,0.111-1.469,0.232-0.951,0.039c0.045-0.018,0.102-0.034,0.172-0.053
			C28.109,26.85,28.465,26.891,28.354,27.004z M9.405,5.979c0.39-0.391,1.062-0.98,1.521-1.287c0.37-0.247,0.749-0.479,1.139-0.694
			c1.119-0.617,2.271-1.089,3.445-1.453c0.527-0.164,0.837-0.16,0.684-0.018C16.041,2.669,16.326,2.601,16.84,2.4
			c0.187-0.072,0.373-0.142,0.56-0.209c0.519-0.187,1.388-0.396,1.936-0.462c2.511-0.305,5.079-0.213,7.647,0.144
			C28.909,2.142,38.577,3.456,34,7.774c-0.129,0.122-0.239,0.21-0.335,0.269c-0.201,0.125-0.09-0.244,0.295-0.618
			c0.385-0.375,0.688-0.689,0.678-0.702c-0.01-0.013-0.332,0.28-0.724,0.654s-0.396,0.367-0.01-0.011
			c0.388-0.378,0.679-0.717,0.647-0.756c-0.029-0.04-0.369,0.233-0.756,0.608s-0.847,0.257-1.029-0.264
			c-0.129-0.368-0.303-0.771-0.594-1.139c-0.007-0.007-0.014-0.013-0.021-0.019c-0.011-0.01,0.126-0.154,0.306-0.321
			s0.078-0.467-0.236-0.654c-0.313-0.186-0.694-0.213-0.842-0.078c-0.146,0.136-0.516,0.066-0.835-0.141s-0.505-0.438-0.401-0.533
			c0.104-0.095,0.025-0.237-0.176-0.308c-0.201-0.071-0.428-0.069-0.508,0.001c-0.08,0.07-0.469-0.045-0.88-0.234
			s-0.739-0.335-0.726-0.35c0.016-0.015-0.055-0.044-0.156-0.065c-0.102-0.02-0.604-0.196-1.133-0.357
			c-4.891-1.49-10.359-0.599-14.597,2.585c-7.473,5.616-6.893,16.732-2.517,23.953c3.498,5.772,13.728,11.617,20.737,8.416
			c0.502-0.229,1.01-0.482,1.164-0.506c0.154-0.022,0.596-0.361,0.986-0.752c0.721-0.721,1.426-1.427,2.11-2.114
			c0.392-0.392,0.707-0.889,0.707-1.111c0-0.222-0.317-0.086-0.709,0.303c-0.226,0.225-0.45,0.447-0.675,0.67
			c-0.394,0.39-0.596,0.304-0.534-0.206c0.062-0.509,0.381-1.241,0.772-1.63c0.146-0.144,0.291-0.288,0.435-0.432
			c0.394-0.389,0.71-0.983,0.71-1.326v-0.62c0-0.016-0.002-0.032-0.004-0.047c-0.004-0.026-0.328,0.264-0.727,0.648
			c-0.143,0.138-0.285,0.275-0.43,0.415c-0.398,0.383-0.741,0.293-0.766-0.203c-0.016-0.319-0.027-0.621-0.027-0.898
			c0-0.219-0.02-0.418-0.057-0.601c-0.062-0.328-0.086-0.672,0.037-0.792l0.222-0.217c0.042-0.042,0.084-0.083,0.125-0.125
			c0.067-0.069,0.015-0.156-0.123-0.179c-0.082-0.013-0.166-0.021-0.252-0.021c0,0-0.035-0.001-0.078-0.001
			s-0.146,0.069-0.231,0.156c-0.084,0.088-0.445-0.203-0.941-0.442c-0.539-0.26-1.192-0.375-1.855-0.427
			c-0.551-0.043-0.91-0.141-0.781-0.242c0.07-0.057,0.15-0.113,0.242-0.171c0.062-0.039,0.129-0.079,0.197-0.117
			c0.111-0.062,0.537-0.149,0.95-0.188c0.323-0.029,0.592-0.048,0.749-0.047c1.783,0.012,3.568,0.021,5.354,0.032
			c1.905,0.011,0.547,1.919,0.379,3.379c-0.164,1.422,0,2.956,0,4.388c0,5.263-10.947,4.7-14.319,4.751
			c-2.528,0.039-5.049-0.29-7.448-0.995c-0.529-0.156-0.922-0.337-0.884-0.379c0.039-0.042-0.339-0.257-0.829-0.511
			c-0.069-0.036-0.139-0.072-0.208-0.108c-0.487-0.26-0.942-0.424-1.032-0.336c-0.091,0.087-0.57-0.028-1.061-0.282
			c-0.32-0.165-0.636-0.338-0.947-0.521c-0.476-0.278-0.716-0.662-0.551-0.827c0.164-0.166,0.104-0.47-0.13-0.689
			c-0.232-0.22-0.579-0.254-0.784-0.066c-0.205,0.188-0.479,0.262-0.612,0.168c-0.081-0.057-0.161-0.113-0.238-0.176
			c-0.482-0.388-0.929-0.798-1.346-1.226c-0.385-0.396-0.433-0.983-0.132-1.288c0.3-0.305,0.502-0.617,0.455-0.699
			c-0.048-0.082-0.35,0.095-0.674,0.396c-0.325,0.302-0.788,0.303-1.021-0.008c-0.232-0.31-0.108-0.846,0.261-1.185
			s0.542-0.874,0.4-1.201s-0.573-0.292-0.978,0.085c-0.403,0.377-0.951,0.293-1.189-0.205c-1.16-2.429-1.67-5.119-1.618-7.831
			c0.011-0.552,0.043-0.951,0.041-0.891c-0.002,0.036-0.003,0.072-0.003,0.109c0,0.189,0.003,0.375,0.008,0.56
			c0.008,0.309,0.338,0.245,0.731-0.144c0.227-0.224,0.453-0.447,0.68-0.67c0.393-0.388,0.724-1.06,0.755-1.5
			c0.031-0.44-0.239-0.473-0.624-0.077c-0.281,0.291-0.564,0.582-0.846,0.873c-0.384,0.397-0.666,0.27-0.601-0.279
			c0.002-0.02,0.005-0.04,0.007-0.059c0.067-0.548,0.458-1.312,0.843-1.707c0.324-0.333,0.645-0.663,0.961-0.988
			c0.385-0.396,0.793-1.155,0.941-1.687c0.116-0.411,0.243-0.811,0.383-1.201c0.185-0.521,0.043-0.618-0.351-0.231
			c-0.396,0.391-0.795,0.784-1.194,1.177c-0.393,0.388-0.576,0.275-0.382-0.242c0.595-1.585,1.376-3.099,2.322-4.487
			C6.232,9.25,6.821,8.575,7.21,8.184C7.941,7.449,8.673,6.714,9.405,5.979z"/>
		<path d="M3.844,23.984c-0.139,0.137-0.276,0.274-0.413,0.411c-0.392,0.389-0.656,0.987-0.58,1.333
			c0.076,0.347,0.46,0.303,0.845-0.093c0.113-0.116,0.226-0.232,0.339-0.349c0.385-0.395,0.649-1.006,0.599-1.361
			C4.583,23.568,4.235,23.595,3.844,23.984z"/>
		<path d="M3.81,21.493c0.099-0.108,0.197-0.218,0.297-0.326c0.165-0.181-0.026-0.019-0.426,0.362
			c-0.192,0.185-0.381,0.365-0.563,0.54c-0.398,0.383-0.717,0.724-0.715,0.757c0.002,0.034,0.318-0.25,0.705-0.636
			C3.341,21.959,3.575,21.726,3.81,21.493z"/>
		<path d="M34.588,35.804c0.315-0.454,0.12-0.579-0.271-0.188c-0.177,0.177-0.353,0.353-0.528,0.528
			c-0.393,0.39-0.662,0.694-0.605,0.682c0.035-0.008,0.069-0.016,0.102-0.023C33.801,36.658,34.256,36.28,34.588,35.804z"/>
	</g>
</g>
<g>
</g>
<g>
</g>
<g>
</g>
<g>
</g>
<g>
</g>
<g>
</g>
<g>
</g>
<g>
</g>
<g>
</g>
<g>
</g>
<g>
</g>
<g>
</g>
<g>
</g>
<g>
</g>
<g>
</g>
</svg>
