<?xml version="1.0" encoding="iso-8859-1"?>
<!-- Generator: Adobe Illustrator 16.0.0, SVG Export Plug-In . SVG Version: 6.00 Build 0)  -->
<!DOCTYPE svg PUBLIC "-//W3C//DTD SVG 1.1//EN" "http://www.w3.org/Graphics/SVG/1.1/DTD/svg11.dtd">
<svg version="1.1" id="Capa_1" xmlns="http://www.w3.org/2000/svg" xmlns:xlink="http://www.w3.org/1999/xlink" x="0px" y="0px"
	 width="58.129px" height="58.129px" viewBox="0 0 58.129 58.129" style="enable-background:new 0 0 58.129 58.129;"
	 xml:space="preserve">
<g>
	<g>
		<path d="M29.911,1.976c-1.902-0.086-5.742-0.048-8.019,1.069c-0.991,0.487-1.95,1.207-2.444,1.398
			c-0.397,0.152-0.691,0.408-0.567,0.648c0.083,0.163,0.173,0.321,0.264,0.479c0.15,0.261-0.229,1.215-0.884,2.104
			C12.788,15.116,5.414,21.387,1.551,29.833c-2.104,4.603-2.106,7.32,0.229,11.83c1.8,3.475,4.845,9.257,8.45,10.969
			c0.233,0.111,0.483,0.172,0.741,0.193c0.424,0.036,0.607,0.194,0.41,0.478c-0.197,0.284-0.652,0.599-0.953,0.812
			c-0.253,0.181-0.344,0.372-0.046,0.479c3.446,1.254,6.889,1.026,10.504,0.862c4.476-0.203,8.99,0.318,13.458,0.513
			c3.732,0.163,13.867,1.174,16.028-3.265c2.064-4.242,3.521-8.689,5.777-12.919c0.181-0.339,0.317-0.759,0.395-1.206
			c0.116-0.694,0.483-1.201,0.981-1.398c0.379-0.15,0.67-0.398,0.591-0.667c-2.821-9.55-7.884-18.341-12.44-27.147
			C42.348,2.933,36.726,2.284,29.911,1.976z M22.576,4.356c0.273-0.28,1.321-0.88,2.414-1.054c0.442-0.069,0.919-0.119,1.411-0.152
			c1.102-0.075,1.364,0.578,0.586,1.36c-0.722,0.725-1.461,1.47-2.221,2.236c-0.776,0.785-1.653,0.994-1.948,0.46
			c-0.179-0.322-0.353-0.646-0.521-0.973c-0.124-0.239-0.204-0.461-0.244-0.666C21.976,5.184,22.301,4.637,22.576,4.356z
			 M19.855,7.993c0.211-0.272,0.396-0.462,0.424-0.418c0.026,0.044-0.143,0.265-0.377,0.495C19.667,8.3,19.645,8.266,19.855,7.993z
			 M3.953,28.509c0.789-1.366,1.67-2.65,2.43-3.789c1.388-2.076,2.934-4.03,4.529-5.943c2.901-2.953,5.783-5.866,8.632-8.733
			c0.778-0.784,1.718-0.937,2.108-0.351c0.392,0.587,0.087,1.689-0.692,2.473c-5.524,5.553-11.04,11.114-16.537,16.688
			C3.646,29.638,3.4,29.465,3.953,28.509z M10.243,50.595c-0.376-0.341,0.046-1.275,0.867-2.016
			c0.153-0.139,0.308-0.277,0.462-0.417c0.819-0.74,1.286-1.622,1.05-1.968c-0.236-0.348-1.08-0.02-1.888,0.734
			c-0.16,0.149-0.319,0.299-0.479,0.448c-0.808,0.753-1.533,1.257-1.624,1.126c-0.058-0.083-0.113-0.163-0.167-0.235
			c-0.37-0.505-0.739-1.011-1.104-1.52c-0.605-0.843-0.431-2.147,0.375-2.905c0.242-0.228,0.485-0.456,0.729-0.685
			c0.805-0.756,1.311-1.65,1.141-2.004c-0.17-0.354-0.906,0.011-1.662,0.816c-0.291,0.311-0.583,0.621-0.875,0.932
			c-0.757,0.805-1.685,0.99-2.051,0.404c-0.366-0.588-0.015-1.703,0.77-2.482c0.422-0.419,0.844-0.839,1.266-1.259
			c0.783-0.778,1.409-1.45,1.398-1.501c-0.013-0.052-0.653,0.542-1.434,1.326c-0.435,0.438-0.871,0.876-1.306,1.314
			c-0.778,0.784-1.552,1.173-1.723,0.865c-0.17-0.309-0.066-0.797,0.227-1.089c0.177-0.177,0.354-0.354,0.53-0.528
			c0.677-0.669,1.354-1.336,2.032-2.004c0.785-0.775,1.389-1.824,1.439-2.335s-0.442-0.269-1.213,0.525
			c-0.804,0.829-1.609,1.659-2.414,2.488c-0.769,0.793-1.557,1.1-1.746,0.676c-0.188-0.423,0.29-1.416,1.06-2.21
			c1.544-1.596,3.068-3.171,4.557-4.702c0.769-0.793,1.771-2.247,2.305-3.216c0.731-1.33,1.559-2.625,2.448-3.893
			c0.635-0.904,0.539-0.987-0.248-0.212C9.762,28.226,6.51,31.436,3.209,34.7c-0.785,0.776-1.427,1.372-1.434,1.329
			c-0.009-0.043,0.042-0.723,0.106-1.519c0.066-0.795,0.229-1.916,0.421-2.487c0.192-0.572,1.046-1.63,1.854-2.384
			c3.419-3.19,6.794-6.425,10.181-9.726c2.353-2.379,4.712-4.744,7.069-7.112c0.778-0.782,1.688-1.022,2.035-0.535
			c0.347,0.486,1.056,1.668,1.557,2.651c0.886,1.74,1.724,3.509,2.547,5.286c0.464,1.003,0.886,2.722,0.673,3.806
			c-0.216,1.102-0.645,2.272-1.313,3.569c-2.213,4.288-4.727,8.449-7.149,12.62c-1.229,2.113-2.511,4.192-3.815,6.258
			c-0.649,1.015-1.315,2.02-1.996,3.013c-0.296,0.438-0.579,0.78-0.853,1.041c-0.538,0.515-0.6,0.117,0.076-0.569
			c0.677-0.687,1.155-1.339,1.068-1.459c-0.086-0.12-0.813,0.391-1.625,1.14c-0.045,0.042-0.091,0.083-0.136,0.124
			C11.663,50.495,10.618,50.938,10.243,50.595z M29.075,27.114c0.495-0.987,1.182-1.016,1.654-0.019
			c1.103,2.321,2.254,4.616,3.526,6.843c0.549,0.959,0.125,1.761-0.979,1.806c-2.433,0.101-4.863,0.189-7.298,0.233
			c-1.104,0.02-1.556-0.751-1.01-1.711c0.38-0.667,0.76-1.334,1.139-2.001C27.037,30.629,28.174,28.91,29.075,27.114z
			 M23.354,37.542c-0.312,0.292-0.432,0.294-0.262,0.005c0.17-0.288,0.423-0.523,0.568-0.527
			C23.806,37.017,23.668,37.25,23.354,37.542z M53.47,41.459c-1.41,2.644-2.824,5.322-3.851,8.141
			c-1.335,3.666-2.994,4.778-7.104,5.254c-3.479,0.401-7.078,0.125-10.562-0.06c-2.971-0.156-5.936-0.354-8.91-0.391
			c-0.781-0.01-1.555,0.012-2.323,0.04c-1.104,0.04-1.773-0.151-1.498-0.427c0.275-0.276,1.012-1.235,1.643-2.143l1.807-2.599
			c0.631-0.907,0.481-1.038-0.334-0.292c-1.503,1.373-3.021,2.765-4.554,4.171c-0.814,0.747-2.373,1.333-3.464,1.159
			c-0.794-0.127-1.59-0.32-2.388-0.61c-0.014-0.005-0.028-0.009-0.046-0.012c-0.024-0.005,0.274-0.333,0.667-0.732
			c0.395-0.399,1.098-0.933,1.504-1.281c0.264-0.225,0.487-0.466,0.657-0.708c0.073-0.104,0.143-0.211,0.213-0.316
			c0.115-0.177,0.839-0.956,1.614-1.742c2.423-2.458,4.865-4.935,7.336-7.438c0.776-0.786,0.989-1.039,0.475-0.567
			c-0.305,0.28-0.614,0.564-0.933,0.856c-1.734,1.606-3.472,3.211-5.209,4.814c-0.812,0.75-0.977,0.609-0.38-0.32
			c0.428-0.666,0.851-1.335,1.268-2.006c0.584-0.938,1.707-2.312,2.521-3.058c1.043-0.956,2.086-1.911,3.127-2.868
			c0.812-0.748,2.365-1.373,3.47-1.403c0.293-0.008,0.587-0.016,0.88-0.024c1.104-0.033,1.358,0.559,0.569,1.331
			c-0.188,0.183-0.374,0.364-0.561,0.547c-0.789,0.771-0.777,0.785,0.024,0.025c0.214-0.201,0.426-0.401,0.638-0.602
			c0.804-0.758,2.35-1.407,3.452-1.449c0.139-0.005,0.275-0.01,0.413-0.016c1.104-0.043,1.815,0.087,1.586,0.294
			c-0.228,0.208-0.19,0.37,0.082,0.363c0.273-0.009,0.661-0.186,0.867-0.396c0.205-0.21,1.266-0.419,2.37-0.463
			c0.459-0.018,0.919-0.035,1.379-0.052c1.103-0.041,1.826,0.101,1.613,0.313s0.188,0.361,0.896,0.33s1.438-0.224,1.63-0.429
			c0.191-0.206,0.453-0.376,0.586-0.38c0.079-0.003,0.158-0.006,0.238-0.008c0.354-0.01,0.705-0.017,1.057-0.021
			c0.584-0.008,0.914,0.14,0.738,0.326c-0.177,0.187-0.183,0.333-0.014,0.325c0.17-0.007,0.453-0.16,0.634-0.343
			s0.732-0.334,1.231-0.342c0.5-0.007,0.768,0.122,0.599,0.292c-0.168,0.17,0.227,0.288,0.882,0.268
			c0.655-0.021,1.294-0.147,1.428-0.284s1.207-0.291,2.154,0.275C54.756,37.504,54.829,38.916,53.47,41.459z M55.139,33.875
			c0.369,1.041,0.487,1.762,0.269,1.651c-0.125-0.063-0.265-0.115-0.419-0.148c-3.372-0.724-7.264-0.333-10.852-0.101
			c-1.103,0.072-1.858-0.023-1.689-0.184c0.17-0.159,0.291-0.315,0.271-0.349s-0.196,0.1-0.396,0.294
			c-0.199,0.195-1.255,0.383-2.358,0.425c-0.189,0.007-0.38,0.016-0.57,0.022c-1.104,0.044-1.993,0.037-2.005-0.018
			c-0.011-0.054,0.618-0.702,1.428-1.456c0.271-0.253,0.543-0.505,0.814-0.758c0.811-0.752,1.297-1.676,1.091-2.064
			c-0.206-0.391-1.025-0.098-1.836,0.654c-0.293,0.272-0.586,0.544-0.879,0.817c-0.81,0.751-1.66,1.04-1.896,0.643
			c-0.237-0.396,0.229-1.333,1.038-2.088c0.32-0.3,0.642-0.6,0.963-0.899c0.807-0.755,1.404-1.479,1.336-1.615
			c-0.069-0.137-0.759,0.383-1.541,1.164c-0.312,0.312-0.642,0.641-0.983,0.983c-0.781,0.78-1.75,0.822-2.152,0.088
			c-0.401-0.735-0.096-1.98,0.676-2.772c0.368-0.379,0.735-0.758,1.104-1.136c0.771-0.792,1.304-1.624,1.193-1.858
			c-0.111-0.233-0.678,0.032-1.267,0.596c-0.337,0.321-0.689,0.66-1.064,1.018c-0.314,0.312-0.623,0.62-0.931,0.926
			c-0.515,0.511-1.296,0.225-1.732-0.646c-0.438-0.871-0.144-2.211,0.642-2.987c0.396-0.391,0.791-0.781,1.188-1.171
			c0.786-0.775,1.267-1.744,1.073-2.167c-0.193-0.422-0.974-0.125-1.741,0.668c-0.406,0.419-0.812,0.838-1.218,1.257
			c-0.769,0.793-1.518,1.171-1.673,0.845c-0.153-0.325,0.324-1.206,1.07-1.965c0.4-0.408,0.85-0.865,1.351-1.375
			c0.226-0.231,0.446-0.46,0.666-0.686c0.368-0.379,0.66-0.699,0.653-0.716c-0.008-0.018-0.637,0.612-1.406,1.404
			c-0.43,0.443-0.846,0.872-1.236,1.276c-0.771,0.793-1.413,1.393-1.439,1.339c-0.024-0.054,0.58-0.738,1.354-1.527
			c0.425-0.434,0.838-0.854,1.237-1.263c0.773-0.788,1.248-1.768,1.057-2.188c-0.192-0.422-0.987-0.135-1.775,0.641
			c-0.198,0.195-0.396,0.39-0.596,0.586c-0.787,0.774-1.517,0.737-1.762-0.051s0.104-2.031,0.882-2.814
			c0.093-0.093,0.187-0.187,0.278-0.279c0.778-0.783,1.332-1.576,1.236-1.77c-0.096-0.192-0.806,0.288-1.583,1.072
			c-0.09,0.09-0.18,0.181-0.268,0.271c-0.777,0.785-1.652,0.927-1.995,0.337c-0.344-0.589-0.021-1.687,0.758-2.472
			c0.112-0.113,0.225-0.227,0.336-0.34c0.777-0.785,1.283-1.646,1.126-1.923c-0.158-0.277-0.932,0.127-1.721,0.899
			c-0.132,0.129-0.265,0.26-0.396,0.39c-0.789,0.772-1.646,1.09-1.92,0.713c-0.273-0.376,0.141-1.301,0.932-2.072
			c0.157-0.154,0.315-0.308,0.476-0.462c0.791-0.771,1.349-1.524,1.246-1.685c-0.062-0.099-0.125-0.196-0.189-0.289
			c-0.076-0.109-0.147-0.222-0.215-0.335c-0.11-0.19-0.822,0.278-1.604,1.058c-0.195,0.194-0.392,0.387-0.586,0.581
			c-0.783,0.778-1.689,1.061-2.024,0.634c-0.336-0.428,0.04-1.394,0.838-2.157c0.479-0.459,0.955-0.914,1.427-1.365
			c0.8-0.765,1.452-1.41,1.464-1.443s-0.63,0.557-1.429,1.319c-0.491,0.468-0.993,0.947-1.505,1.438
			c-0.798,0.763-1.505,1.306-1.578,1.211c-0.074-0.094-0.265-0.393-0.426-0.667c-0.16-0.273,0.357-1.117,1.155-1.88
			c0.87-0.832,1.731-1.656,2.588-2.473c0.799-0.764,1.933-1.372,2.531-1.344c0.6,0.028,0.898,0.237,0.671,0.452
			s-0.387,0.381-0.353,0.366c0.033-0.014,0.233-0.186,0.444-0.387c0.211-0.202,0.898-0.329,1.536-0.271
			c0.637,0.06,1.126,0.143,1.095,0.172c-0.03,0.03,0.117,0.043,0.329,0.037s0.466-0.002,0.568,0.012
			c0.078,0.011,0.142,0.02,0.186,0.025c2.629,0.386,5.376,0.979,7.178,3.034c2.255,2.572,3.481,6.229,5.054,9.243
			C49.813,21.733,52.921,27.603,55.139,33.875z"/>
	</g>
</g>
<g>
</g>
<g>
</g>
<g>
</g>
<g>
</g>
<g>
</g>
<g>
</g>
<g>
</g>
<g>
</g>
<g>
</g>
<g>
</g>
<g>
</g>
<g>
</g>
<g>
</g>
<g>
</g>
<g>
</g>
</svg>
