<?xml version="1.0" encoding="iso-8859-1"?>
<!-- Generator: Adobe Illustrator 16.0.0, SVG Export Plug-In . SVG Version: 6.00 Build 0)  -->
<!DOCTYPE svg PUBLIC "-//W3C//DTD SVG 1.1//EN" "http://www.w3.org/Graphics/SVG/1.1/DTD/svg11.dtd">
<svg version="1.1" id="Capa_1" xmlns="http://www.w3.org/2000/svg" xmlns:xlink="http://www.w3.org/1999/xlink" x="0px" y="0px"
	 width="41.678px" height="41.679px" viewBox="0 0 41.678 41.679" style="enable-background:new 0 0 41.678 41.679;"
	 xml:space="preserve">
<g>
	<g>
		<path d="M41.552,27.812C41.14,27.1,36.914,27.63,36.36,27.63c-7.032,0-14.063,0-21.095,0c-0.078,0-0.162,0.013-0.248,0.035
			c-0.134,0.035-0.351,0.092-0.488,0.13c-0.088,0.022-0.169,0.056-0.238,0.096c-1.597,0.932-2.602,4.11-3.471,5.63
			c-0.597,1.044-3.19,4.061-2.467,5.315c0.082,0.143,0.388,0.182,0.524,0.182c6.837,0,13.675,0,20.511,0
			c1.758,0,4.023,0.402,5.754-0.062c1.742-0.467,2.705-3.664,3.465-4.994C39.257,32.824,42.333,29.162,41.552,27.812z
			 M14.601,29.401c0.281-0.379,0.635-0.643,0.728-0.643c0.093,0-0.022,0.177-0.247,0.403c-0.225,0.227-0.095,0.16-0.402,0.44
			C14.373,29.884,14.321,29.781,14.601,29.401z M39.548,29.101c-1.502,2.625-3.004,5.25-4.505,7.875
			c-0.274,0.479-0.713,0.894-0.983,0.904c-0.139,0.006-0.301,0.009-0.488,0.009c-1.723,0-3.445,0-5.168,0c-4.069,0-8.138,0-12.207,0
			c-0.552,0-0.693-0.326-0.315-0.729c0.134-0.145,0.269-0.286,0.403-0.431c0.378-0.402,0.906-1.119,1.181-1.599l2.961-5.177
			c0.275-0.479,0.18-0.553-0.211-0.162c-2.497,2.483-5.048,4.951-7.634,7.408c-0.4,0.381-1.052,0.688-1.455,0.688
			c-0.243,0-0.486,0-0.729,0c-0.675,0-0.177-0.106,0.198-0.764c0.055-0.097,0.113-0.202,0.173-0.316
			c0.093-0.177,0.365-0.529,0.61-0.783c0.246-0.255,0.255-0.272,0.021-0.041c-0.234,0.231-0.225,0.02,0.012-0.479
			c0.199-0.422,0.412-0.878,0.633-1.352c0.234-0.5,0.742-1.222,1.132-1.611c0.977-0.979,2.001-2.008,3.063-3.074
			c0.39-0.391,1.153-0.708,1.705-0.708c5.624,0,11.249,0,16.873,0c1.451,0,2.902,0,4.354,0
			C40.062,28.759,39.869,28.539,39.548,29.101z"/>
		<path d="M28.151,26.15c0.005,0.01,0.015,0.016,0.024,0.021c0.018,0.009,0.041,0.038,0.065,0.054
			c0.024,0.018,0.06,0.029,0.071,0.035c0.015,0.007,0.453,0.172,1.006,0.182c0.605,0.011,1.257-0.087,1.725-0.09
			c2.583-0.011,5.167-0.021,7.751-0.033c1.15-0.005,3.579,0.087,2.617-1.58c-4.168-7.219-8.344-14.433-12.503-21.654
			c-0.693-1.205-8.671-0.178-10.013-0.172c-0.809,0.004-4.313-0.263-3.364,1.382c0.164,0.282,0.326,0.564,0.489,0.849
			c0.27,0.471,0.237,0.479-0.125,0.062c-0.579-0.665-1.15-1.081-1.683-1.081c-0.44,0-1.029,0.131-1.269,0.55
			c-3.41,5.927-6.837,11.844-10.256,17.766C2,23.629,0,25.877,0,27.333c0,2.171,3.413,6.01,4.491,7.859
			c0.417,0.717,0.853,1.812,1.532,2.286c0.453,0.316,0.992,0.328,1.115,0.344c0.065,0.008,0.129-0.031,0.177-0.114
			c0,0,0.025-0.044,0.057-0.099c0.031-0.053,0.106-0.121,0.165-0.153c0.034-0.02,0.069-0.039,0.105-0.062
			c1.509-0.988,2.597-4.274,3.45-5.753c2.227-3.855,4.453-7.714,6.68-11.569c0.781-1.353,3.108-3.976,3.108-5.624
			c0-0.029-0.007-0.054-0.016-0.076c-0.015-0.04-0.033-0.104-0.04-0.144c-0.003-0.021-0.009-0.046-0.022-0.068
			c-0.391-0.679-1.025-2.102-1.783-3.667c-0.241-0.497-0.219-0.511,0.056-0.031C22.084,15.698,25.093,20.938,28.151,26.15z
			 M13.641,7.068c0.274-0.272,0.505-0.477,0.519-0.453c0.013,0.021-0.259,0.333-0.609,0.692c-0.35,0.361-0.583,0.565-0.519,0.456
			C13.094,7.655,13.367,7.343,13.641,7.068z M11.256,10.84c0.39-0.675,0.779-1.35,1.168-2.023c0.063-0.108,0.127-0.22,0.19-0.328
			c0.105-0.183,0.502-0.65,0.888-1.047c0.005-0.006,0.01-0.011,0.015-0.016c0.385-0.396,0.815-0.516,0.96-0.267
			s-0.049,0.771-0.434,1.166c-0.864,0.889-1.728,1.775-2.591,2.665C11.067,11.387,10.98,11.317,11.256,10.84z M2.932,24.873
			c0.94-1.55,2.221-3.461,2.432-3.827c0.824-1.427,1.648-2.854,2.472-4.282c0.276-0.479,0.819-1.181,1.212-1.569
			c1.902-1.877,3.805-3.756,5.709-5.632c0.393-0.388,0.938-0.314,1.216,0.163c0.166,0.284,0.332,0.569,0.498,0.854
			c0.278,0.477,0.182,1.174-0.216,1.557c-0.991,0.953-2.395,2.299-4.413,4.229c-3.07,3.056-5.964,5.936-8.708,8.665
			C2.742,25.42,2.645,25.346,2.932,24.873z M18.671,15.753c-0.681,1.673-2.506,3.853-3.156,4.978
			c-2.22,3.847-4.44,7.691-6.661,11.537c-0.468,0.811-0.935,1.62-1.402,2.431c-0.276,0.479-0.726,0.479-1.004,0.002
			c-0.127-0.219-0.253-0.436-0.38-0.651c-0.278-0.478-0.189-1.184,0.199-1.576c0.537-0.544,1.075-1.09,1.614-1.637
			c0.388-0.394,0.682-0.747,0.656-0.791c-0.025-0.043-0.375,0.227-0.779,0.602c-0.55,0.511-1.101,1.02-1.652,1.528
			c-0.405,0.375-0.895,0.403-1.093,0.063c-0.198-0.341-0.029-0.919,0.378-1.292c0.552-0.507,1.104-1.014,1.656-1.521
			c0.407-0.373,0.696-0.744,0.647-0.829l-0.089-0.153l-0.056-0.096c-0.031-0.052-0.031-0.138,0-0.19
			c0.031-0.055,0.056-0.098,0.056-0.098l0.545-0.943c0.276-0.479,0.172-0.562-0.232-0.187c-1.053,0.979-2.104,1.96-3.156,2.94
			c-0.404,0.377-0.956,0.295-1.234-0.184c-0.266-0.456-0.532-0.912-0.798-1.369c-0.278-0.477-0.191-1.185,0.192-1.583
			c1.182-1.222,2.363-2.438,3.539-3.642c3.117-3.22,6.191-6.384,9.189-9.46c0.385-0.396,0.864-1.003,1.068-1.358
			c0.204-0.354,0.597-0.255,0.875,0.224c0.278,0.475,0.557,0.95,0.833,1.426C18.703,14.402,18.88,15.241,18.671,15.753z
			 M18.619,6.677c-0.245-0.43-0.467-0.843-0.658-1.227c-0.245-0.495-0.233-1.109-0.016-1.354c0.217-0.243,0.841-0.44,1.393-0.444
			c0.054,0,0.107-0.001,0.161-0.001c0.552-0.002,0.681,0.312,0.288,0.698c-0.272,0.269-0.545,0.537-0.819,0.81
			c-0.393,0.388-0.391,0.391,0.005,0.006c0.279-0.271,0.56-0.545,0.843-0.82c0.396-0.385,1.165-0.698,1.717-0.701
			c0.232-0.001,0.464-0.002,0.697-0.003c0.553-0.002,0.973,0.022,0.937,0.058c-0.036,0.032-0.03,0.061,0.013,0.06
			c0.045,0,0.076,0,0.076,0s0.033,0,0.074,0c0.041-0.001,0.102-0.028,0.135-0.062c0.032-0.033,0.453-0.062,0.939-0.065
			s0.854,0.022,0.82,0.057s0.07,0.062,0.231,0.061c0.161,0,0.319-0.028,0.353-0.062c0.035-0.033,0.121-0.06,0.193-0.06
			c0.043-0.001,0.088-0.001,0.131-0.001c1.735-0.007,2.539,2.914,3.353,4.323c2.308,3.997,4.616,7.994,6.925,11.992
			c0.331,0.574,2.17,3.013,2.977,4.697c0.237,0.498-0.102,0.938-0.654,0.939c-0.92,0.004-1.84,0.008-2.758,0.012
			c-0.215,0.001-0.481,0.017-0.782,0.042c-0.431,0.036-0.66-0.05-0.513-0.2c0.148-0.148,0.201-0.388,0.117-0.532
			s-0.402-0.006-0.711,0.312c-0.309,0.314-1.005,0.615-1.557,0.641c-0.521,0.025-1.025,0.026-1.461-0.017
			c-0.551-0.056-0.653-0.558-0.268-0.951c0.601-0.616,1.203-1.232,1.805-1.85c0.387-0.396,0.547-0.981,0.357-1.31
			s-0.658-0.274-1.048,0.116c-0.62,0.625-1.231,1.242-1.84,1.856c-0.39,0.392-0.829,0.497-0.979,0.234
			c-0.152-0.262,0.041-0.793,0.429-1.185c0.631-0.638,1.247-1.26,1.842-1.859c0.39-0.393,0.638-0.826,0.556-0.968
			s-0.455,0.07-0.83,0.475c-0.388,0.415-0.773,0.831-1.164,1.243c-0.225,0.239-0.447,0.475-0.668,0.709
			c-0.371,0.394-0.855,0.394-1.084,0c-0.228-0.393-0.106-1.04,0.271-1.443c0.608-0.652,1.214-1.304,1.815-1.947
			c0.377-0.404,0.561-0.94,0.412-1.196c-0.147-0.256-0.586-0.148-0.979,0.24c-0.616,0.608-1.235,1.223-1.855,1.838
			c-0.392,0.389-0.933,0.315-1.207-0.162c-0.424-0.734-0.847-1.468-1.27-2.202c-0.275-0.479-0.163-1.163,0.25-1.53
			c0.628-0.556,1.264-1.118,1.906-1.688c0.414-0.366,0.721-0.712,0.686-0.772c-0.035-0.062-0.386,0.2-0.783,0.584
			c-0.621,0.603-1.242,1.203-1.863,1.806c-0.396,0.384-0.864,0.439-1.045,0.127c-0.18-0.312-0.002-0.875,0.397-1.257
			c0.638-0.609,1.263-1.206,1.869-1.786c0.399-0.383,0.692-0.744,0.655-0.808c-0.037-0.062-0.389,0.197-0.784,0.582
			c-0.622,0.604-1.241,1.208-1.858,1.811c-0.396,0.386-0.398,0.381-0.007-0.009c0.683-0.682,1.319-1.312,1.849-1.835
			c0.393-0.391,0.383-0.399-0.019-0.021c-0.627,0.596-1.246,1.196-1.86,1.796c-0.396,0.386-0.848,0.472-1.01,0.19
			c-0.098-0.17-0.195-0.34-0.293-0.511c-0.064-0.111-0.172-0.279-0.311-0.489c-0.176-0.268,0.007-0.785,0.41-1.162
			c0.643-0.599,1.285-1.195,1.926-1.793c0.404-0.376,0.586-0.936,0.406-1.247c-0.182-0.312-0.656-0.262-1.061,0.114
			c-0.665,0.616-1.331,1.234-1.997,1.852c-0.405,0.376-0.905,0.428-1.117,0.114c-0.211-0.312-0.053-0.869,0.354-1.243
			c0.639-0.59,1.33-1.229,2.072-1.914c0.405-0.375,0.651-0.822,0.549-0.999c-0.103-0.178-0.34-0.21-0.531-0.044
			c-0.081,0.071-0.191,0.169-0.344,0.303c-0.57,0.543-1.303,1.234-2.158,2.038c-0.402,0.378-0.895,0.436-1.098,0.125
			c-0.202-0.31-0.227-0.688-0.058-0.844c0.102-0.094,0.205-0.188,0.307-0.28c0.741-0.744,1.486-1.483,2.231-2.227
			c0.391-0.391,0.662-0.784,0.605-0.88c-0.056-0.098-0.414,0.145-0.801,0.538c-0.705,0.718-1.412,1.435-2.118,2.152
			C20.334,8.66,19.867,8.74,19.68,8.441c-0.187-0.298-0.022-0.859,0.364-1.255c0.724-0.738,1.44-1.471,2.149-2.192
			c0.386-0.395,0.673-0.763,0.64-0.819c-0.032-0.058-0.386,0.204-0.786,0.583c-0.323,0.306-0.661,0.625-1.017,0.963
			c-0.433,0.413-0.824,0.787-1.18,1.128C19.448,7.23,18.892,7.157,18.619,6.677z"/>
		<path d="M6.733,26.141c-0.39,0.393-0.379,0.403,0.025,0.027c1.145-1.069,2.308-2.153,3.476-3.244
			c0.404-0.377,0.835-0.863,0.964-1.087s-0.083-0.089-0.473,0.302C9.559,23.307,8.238,24.631,6.733,26.141z"/>
	</g>
</g>
<g>
</g>
<g>
</g>
<g>
</g>
<g>
</g>
<g>
</g>
<g>
</g>
<g>
</g>
<g>
</g>
<g>
</g>
<g>
</g>
<g>
</g>
<g>
</g>
<g>
</g>
<g>
</g>
<g>
</g>
</svg>
