<?xml version="1.0" encoding="iso-8859-1"?>
<!-- Generator: Adobe Illustrator 16.0.0, SVG Export Plug-In . SVG Version: 6.00 Build 0)  -->
<!DOCTYPE svg PUBLIC "-//W3C//DTD SVG 1.1//EN" "http://www.w3.org/Graphics/SVG/1.1/DTD/svg11.dtd">
<svg version="1.1" id="Capa_1" xmlns="http://www.w3.org/2000/svg" xmlns:xlink="http://www.w3.org/1999/xlink" x="0px" y="0px"
	 width="50.393px" height="50.393px" viewBox="0 0 50.393 50.393" style="enable-background:new 0 0 50.393 50.393;"
	 xml:space="preserve">
<g>
	<g>
		<path d="M25.885,12.797c-0.018,0.003-0.074,0-0.123-0.008c-0.028-0.004-0.058-0.007-0.092-0.005
			c-4.571,0.247-8.098,3.225-8.842,7.79c-0.83,5.086,3.74,9.104,8.443,9.358c4.639,0.25,8.373-3.393,9.086-7.776
			c0.829-5.091-3.727-9.109-8.438-9.363C25.909,12.792,25.897,12.794,25.885,12.797z M26.524,28.398
			c-0.988,0.16-1.887,0.123-2.691-0.071c-0.537-0.129-0.728-0.522-0.455-0.775c0.274-0.253,0.279-0.651,0.038-0.913
			c-0.241-0.261-0.702-0.226-1.054,0.102c-0.353,0.326-0.888,0.408-1.164,0.145c-0.276-0.264-0.146-0.811,0.258-1.188
			c0.017-0.016,0.032-0.03,0.049-0.045c0.403-0.379,0.679-0.782,0.619-0.905c-0.059-0.124-0.422,0.09-0.812,0.479
			c-0.042,0.041-0.084,0.082-0.126,0.125c-0.391,0.39-0.98,0.348-1.242-0.14c-0.101-0.187-0.193-0.379-0.278-0.576
			c-0.22-0.507-0.026-1.261,0.358-1.657c0.212-0.218,0.424-0.436,0.636-0.653c0.385-0.396,0.694-0.774,0.689-0.847
			c-0.003-0.043-0.006-0.087-0.006-0.131c0-0.12,0.004-0.238,0.01-0.356c0.011-0.196-0.297-0.045-0.695,0.337
			c-0.257,0.247-0.53,0.508-0.82,0.785c-0.398,0.382-0.807,0.251-0.837-0.301c-0.046-0.807,0.024-1.622,0.214-2.402
			c0.13-0.537,0.616-1.269,1.01-1.656c0.787-0.777,1.574-1.555,2.362-2.331c0.394-0.388,1.134-0.859,1.674-0.974
			c0.063-0.013,0.128-0.026,0.192-0.038c0.543-0.101,1.441-0.095,1.982,0.015C33.68,15.898,34.744,27.06,26.524,28.398z"/>
		<path d="M19.107,13.805c0.019-0.014,0.035-0.027,0.051-0.04c0.027-0.023,0.065-0.051,0.087-0.064
			c0.014-0.008,0.026-0.017,0.037-0.025c9.737-7.636,12.536,3.565,19.931,5.289c1.791,0.418,6.836,2.354,8.609,0.466
			c2.34-2.488-0.316-5.797-1.841-8.137c-2.519-3.866-6.372-6.676-10.498-8.597c-5.24-2.439-17.775-4.123-21.849,1.475
			C10.34,8.695,12.543,18.628,19.107,13.805z M14.597,5.191c0.395-0.617,0.954-1.125,1.621-1.54
			c0.469-0.292,0.562-0.153,0.171,0.236c-0.503,0.5-1.006,1-1.51,1.5C14.487,5.776,14.3,5.657,14.597,5.191z M14.45,7.539
			c0.157-0.153,0.315-0.308,0.477-0.464l4.389-4.119c0.403-0.378,1.167-0.775,1.713-0.86c0.047-0.007,0.094-0.015,0.141-0.021
			c0.547-0.082,0.943-0.082,0.884-0.024c-0.06,0.058,0.17,0.023,0.515-0.059c0.345-0.083,0.974-0.171,1.403-0.195
			c0.273-0.016,0.534-0.027,0.779-0.037c3.622-0.136,7.202,0.956,10.442,2.465c2.841,1.322,5.229,3.41,7.332,5.693
			c0.846,0.917,5.091,6.937,3.54,8.442c-0.396,0.385-1.108,0.3-1.347,0.259c-0.236-0.041-0.444-0.056-0.465-0.037
			c-0.02,0.02-0.123,0.02-0.229-0.002c-0.062-0.012-0.124-0.026-0.189-0.042c-1.121-0.279-2.133-0.535-3.074-0.822
			c-0.527-0.162-0.885-0.37-0.805-0.441c0.082-0.071,0.068-0.18-0.024-0.247c-0.095-0.067-0.249-0.043-0.349,0.053
			c-0.1,0.096-0.461,0.068-0.801-0.078c-0.341-0.146-0.475-0.41-0.308-0.572c0.167-0.162,0.29-0.304,0.274-0.316
			c-0.017-0.013-0.168,0.11-0.343,0.274c-0.173,0.164-0.177,0.161-0.006-0.005s0.28-0.327,0.244-0.362s-0.214,0.082-0.396,0.259
			c-0.184,0.177-0.732,0.12-1.201-0.171c-0.084-0.051-0.166-0.104-0.25-0.158c-0.461-0.302-0.565-0.81-0.26-1.095
			c0.305-0.285,0.365-0.73,0.117-0.979c-0.248-0.25-0.729-0.19-1.057,0.115c-0.329,0.305-0.816,0.349-1.075,0.084
			c-0.259-0.264-0.222-0.707,0.073-0.979c0.295-0.273,0.4-0.585,0.232-0.69s-0.525,0.007-0.796,0.244
			c-0.271,0.236-0.723,0.178-1.032-0.073s-0.434-0.576-0.256-0.752c0.178-0.176,0.232-0.356,0.125-0.399
			c-0.109-0.044-0.326,0.054-0.484,0.214c-0.156,0.16-0.527,0.132-0.838-0.043c-0.312-0.175-0.502-0.37-0.416-0.458
			c0.088-0.088,0.082-0.175-0.014-0.191c-0.095-0.016-0.232,0.028-0.305,0.097c-0.074,0.07-0.504-0.043-0.977-0.203
			c-0.295-0.099-0.588-0.179-0.873-0.237c-4.145-0.837-7.696,0.05-11.021,2.575c-0.015,0.009-0.032,0.018-0.046,0.028
			c-0.552,0.405-1.027,0.565-1.438,0.542c-0.552-0.031-0.578-0.717-0.188-1.109c0.056-0.057,0.112-0.113,0.169-0.17
			c0.39-0.392,0.665-0.865,0.617-1.058c-0.048-0.193-0.398-0.033-0.788,0.358c-0.131,0.131-0.261,0.262-0.392,0.393
			c-0.39,0.391-0.951,0.331-1.151-0.184c-0.022-0.058-0.044-0.116-0.065-0.175c-0.187-0.52,0.033-1.275,0.424-1.667
			c0.254-0.255,0.507-0.509,0.761-0.763c0.39-0.391,0.664-1,0.677-1.359c0.014-0.359-0.253-0.334-0.647,0.052
			c-0.333,0.326-0.666,0.651-0.999,0.977c-0.395,0.387-0.777,0.312-0.831-0.168C13.998,8.394,14.187,7.793,14.45,7.539z"/>
		<path d="M11.359,46.472c2.293,1.562,6.845,4.183,9.73,2.873c0.932-0.423,0.992-1.162,0.62-2c-0.224-0.504-0.192-0.537,0.22-0.17
			c2.05,1.821,4.698,2.981,7.101,2.774c6.976-0.601,13.041-4.946,17.046-10.485c2.385-3.297,3.596-7.31,4.141-11.292
			c0.602-4.38-0.229-5.198-4.231-6.711c-3.073-0.98-7.071-2.375-10.209-0.804c-0.196,0.099-0.573,0.324-0.562,0.597
			c0.099,2.583-0.908,4.905-2.489,6.91c-2.082,2.64-4.767,2.428-7.607,3.188c-2.017,0.541-4.747,4.354-5.766,5.951
			c-1.408,2.209-1.077,4.75,0.199,6.978c0.274,0.479,0.232,0.515-0.162,0.128c-0.784-0.771-1.503-1.393-1.732-1.65
			c-3.146-3.529,1.659-6.544,3.294-9.242c0.982-1.621-0.703-3.727-1.656-4.791c-1.413-1.492-2.166-2.652-2.905-4.67
			c-0.433-1.18,0.046-2.749-0.376-3.8c-0.975-2.431-2.746-4.403-3.625-6.958c-0.961-2.795-0.643-6.309-4.415-5.487
			c-2.878,0.627-5.548,6.498-6.392,8.825c-2.239,6.178-2.015,11.845,0.123,18C3.438,39.627,7.057,43.542,11.359,46.472z
			 M20.294,39.017c0.092-0.344,0.529-0.922,0.92-1.313c1.285-1.289,2.604-2.611,3.964-3.972c0.176-0.178,0.352-0.357,0.527-0.537
			c0.291-0.297,0.654-0.586,0.817-0.625c0.104-0.025,0.205-0.043,0.3-0.049c1.987-0.123,3.797-1.062,5.453-2.076
			c1.924-1.178,3.204-3.18,4.119-5.174c0.248-0.541,0.391-1.109,0.506-1.686c0.109-0.542,0.044-1.436,0.148-1.978
			c0.141-0.726,0.759-0.923,1.854-0.593c0.528,0.159,1.376,0.43,1.917,0.54c1.365,0.279,2.706,0.65,4.021,1.113
			c4.408,1.666,3.742,4.439,2.981,8.379c-0.729,3.771-2.642,7.202-5.03,10.155c-2.588,3.196-6.205,5.397-10.047,6.739
			c-1.285,0.451-2.688,0.539-4.074,0.33c-0.547-0.082-0.931-0.248-0.867-0.312c0.064-0.063,0.043-0.162-0.047-0.22
			c-0.088-0.059-0.229-0.036-0.317,0.055c-0.089,0.09-0.591,0.042-1.104-0.163c-0.217-0.086-0.431-0.18-0.642-0.28
			c-0.498-0.236-0.649-0.713-0.362-1.013c0.287-0.299,0.292-0.812,0.014-1.147c-0.277-0.336-0.807-0.303-1.183,0.076
			c-0.375,0.379-1.03,0.404-1.42,0.013c-0.101-0.103-0.2-0.207-0.297-0.312c-0.371-0.409-0.325-1.101,0.053-1.504
			c0.054-0.058,0.108-0.116,0.162-0.174c0.378-0.403,0.469-1.127,0.316-1.658c-0.02-0.067-0.037-0.134-0.054-0.2
			c-0.132-0.537-0.455-0.674-0.847-0.285c-0.187,0.188-0.374,0.373-0.562,0.56c-0.392,0.39-0.889,0.291-1.037-0.241
			c-0.162-0.579-0.26-1.182-0.274-1.809C20.201,39.46,20.233,39.247,20.294,39.017z M4.143,15.135
			c0.189-0.406,0.383-0.807,0.584-1.203c0.719-1.413,2.363-3.621,3.676-3.753c0.55-0.056,0.585,0.651,0.193,1.04
			c-1.387,1.377-2.772,2.752-4.153,4.123C4.05,15.731,3.912,15.637,4.143,15.135z M5.644,38.058
			c-0.284-0.474-0.171-1.173,0.232-1.552c0.06-0.056,0.118-0.11,0.178-0.167c0.403-0.378,0.631-0.91,0.515-1.191
			c-0.116-0.282-0.511-0.186-0.889,0.218c-0.091,0.097-0.183,0.194-0.273,0.29c-0.378,0.402-0.888,0.33-1.12-0.172
			c-0.005-0.01-0.011-0.021-0.016-0.032c-0.232-0.501-0.088-1.231,0.304-1.62c0.133-0.132,0.265-0.264,0.398-0.396
			c0.392-0.39,0.701-0.734,0.689-0.771c-0.011-0.037-0.336,0.25-0.725,0.643c-0.138,0.139-0.275,0.276-0.413,0.416
			c-0.389,0.392-0.797,0.491-0.902,0.219c-0.106-0.272,0.129-0.81,0.523-1.197c0.161-0.159,0.323-0.318,0.484-0.479
			c0.394-0.388,0.65-0.928,0.58-1.209c-0.069-0.279-0.433-0.188-0.817,0.209C4.196,31.466,4,31.667,3.805,31.869
			c-0.385,0.396-0.707,0.689-0.721,0.654c-0.009-0.021-0.017-0.043-0.024-0.064c-0.07-0.203-0.136-0.406-0.197-0.609
			c-0.105-0.339,0.131-0.937,0.516-1.334c0.234-0.242,0.468-0.482,0.7-0.724c0.384-0.396,0.632-1.053,0.565-1.468
			c-0.04-0.25-0.077-0.502-0.11-0.752c-0.008-0.096-0.016-0.192-0.023-0.289c-0.011-0.16-0.338,0.025-0.731,0.412
			c-0.279,0.277-0.559,0.554-0.839,0.83c-0.393,0.39-0.791,0.263-0.862-0.285c-0.044-0.348-0.081-0.695-0.109-1.045
			c-0.044-0.549,0.269-1.303,0.672-1.682c0.374-0.35,0.748-0.701,1.121-1.052c0.402-0.379,0.735-0.812,0.746-0.968
			c0.011-0.156-0.292,0.037-0.681,0.429c-0.407,0.412-0.815,0.823-1.223,1.234c-0.389,0.393-0.716,0.262-0.708-0.29
			c0.004-0.277,0.013-0.554,0.026-0.831c0.025-0.551,0.379-1.319,0.765-1.714c0.564-0.577,1.126-1.152,1.688-1.727
			c0.387-0.394,0.801-1.15,0.949-1.682c0.025-0.091,0.052-0.182,0.078-0.273c0.155-0.53-0.019-0.643-0.416-0.259
			c-0.65,0.63-1.339,1.297-2.051,1.988c-0.396,0.384-0.401,0.378-0.009-0.011c0.574-0.567,1.297-1.273,2.081-2.038
			c0.396-0.385,0.721-0.711,0.726-0.726c0.004-0.015-0.312,0.285-0.708,0.67C4.351,18.92,3.659,19.59,2.95,20.277
			c-0.396,0.384-0.711,0.649-0.704,0.59c0.005-0.035,0.009-0.07,0.015-0.105c0.074-0.463,0.177-0.92,0.297-1.372
			c0.142-0.534,0.601-1.271,0.996-1.657c0.973-0.946,1.957-1.905,2.961-2.882c0.396-0.385,0.924-1.094,1.203-1.571
			c0.355-0.605,0.736-1.193,1.141-1.764c0.319-0.451,0.812-0.504,0.966-0.08c0.081,0.225,0.153,0.484,0.214,0.787
			c0.323,1.615,0.933,3.1,1.61,4.589c0.633,1.391,2.463,2.994,2.384,4.647c-0.151,3.142,1.405,5.878,3.482,8.073
			c3.696,4.126-2.002,6.046-2.54,9.424c-0.346,2.175,0.122,3.516,1.328,5.046c0.342,0.435,0.963,1.081,1.333,1.49
			c1.009,1.114,2.547,3.056,0.38,2.407c-0.062-0.02-0.123-0.043-0.184-0.065c-0.101-0.039-0.081-0.177,0.045-0.31
			c0.125-0.135-0.177-0.438-0.662-0.7c-0.103-0.056-0.206-0.112-0.308-0.169c-0.483-0.27-1.018-0.357-1.209-0.176
			c-0.192,0.183-0.707,0.153-1.14-0.08c-0.433-0.235-0.723-0.496-0.657-0.563s0.064-0.069-0.003-0.002s-0.355-0.017-0.641-0.19
			c-0.284-0.172-0.316-0.516-0.075-0.758c0.242-0.242,0.213-0.615-0.057-0.843c-0.271-0.228-0.715-0.205-1.001,0.058
			c-0.285,0.262-0.887,0.223-1.323-0.117c-0.336-0.26-0.66-0.532-0.975-0.812c-0.412-0.367-0.459-0.959-0.125-1.298
			c0.335-0.339,0.537-0.694,0.455-0.794c-0.083-0.1-0.442,0.09-0.804,0.424c-0.361,0.335-0.877,0.374-1.138,0.077
			c-0.262-0.297-0.154-0.825,0.229-1.17c0.385-0.347,0.535-0.843,0.346-1.114c-0.188-0.271-0.653-0.199-1.045,0.167
			c-0.393,0.366-0.981,0.308-1.294-0.147C6.168,38.904,5.9,38.486,5.644,38.058z"/>
		<path d="M32.479,31.409c0.489-0.161,0.963-0.357,1.418-0.586c0.493-0.247,1.178-0.817,1.554-1.222
			c0.812-0.871,1.619-1.735,2.418-2.593c0.377-0.403,0.896-1.126,1.104-1.638c0.088-0.214,0.168-0.434,0.241-0.654
			c0.176-0.524-0.047-0.648-0.438-0.259c-2.16,2.138-4.347,4.308-6.553,6.51C31.834,31.359,31.955,31.582,32.479,31.409z"/>
		<path d="M24,43.948c-0.097,0.099-0.095,0.101,0.003,0.003C24.101,43.851,24.097,43.849,24,43.948z"/>
	</g>
</g>
<g>
</g>
<g>
</g>
<g>
</g>
<g>
</g>
<g>
</g>
<g>
</g>
<g>
</g>
<g>
</g>
<g>
</g>
<g>
</g>
<g>
</g>
<g>
</g>
<g>
</g>
<g>
</g>
<g>
</g>
</svg>
