<?xml version="1.0" encoding="iso-8859-1"?>
<!-- Generator: Adobe Illustrator 16.0.0, SVG Export Plug-In . SVG Version: 6.00 Build 0)  -->
<!DOCTYPE svg PUBLIC "-//W3C//DTD SVG 1.1//EN" "http://www.w3.org/Graphics/SVG/1.1/DTD/svg11.dtd">
<svg version="1.1" id="Capa_1" xmlns="http://www.w3.org/2000/svg" xmlns:xlink="http://www.w3.org/1999/xlink" x="0px" y="0px"
	 width="42.998px" height="42.999px" viewBox="0 0 42.998 42.999" style="enable-background:new 0 0 42.998 42.999;"
	 xml:space="preserve">
<g>
	<g>
		<path d="M14.275,42.991c6.319,0.166,13.507-2.213,16.158-8.381c1.381-3.21-0.182-6.527-2.362-8.86
			c-2.329-2.491-7.964-4.226-3.909-7.962c2.014-1.856,4.648-3.384,4.892-6.487c0.109-1.385-0.522-6.943-2.694-7.988
			c-0.498-0.239-0.528-0.202,0.018-0.283c1.285-0.191,2.593-0.5,3.703-1.149c0.478-0.279,0.859-0.597,0.888-0.646
			c0.028-0.048-0.219-0.505-0.726-0.725c-2.517-1.088-10.066-0.107-11.901-0.042c-5.6,0.199-13.511,2.99-14.051,9.656
			c-0.359,4.406,1.717,7.386,5.576,9.223c1.388,0.661,2.973,0.717,4.472,0.798c1.596,0.086,1.215,0.289,0.978,1.894
			c-0.33,2.233,2.53,3.093-0.713,3.444c-1.726,0.187-3.388,0.609-5.054,1.067C7.28,27.175,4.125,28.554,2.8,30.636
			C-2.515,38.984,7.488,42.811,14.275,42.991z M4.022,34.016c0.302-0.276,0.603-0.555,0.905-0.833
			c0.406-0.374,0.822-0.893,0.941-1.154c0.071-0.154,0.146-0.312,0.229-0.471c0.642-1.257,1.82-2.362,3.534-3.317
			c0.233-0.13,0.471-0.253,0.712-0.37c0.4-0.193,0.974-0.552,1.27-0.824c0.297-0.271,0.164-0.406-0.292-0.282
			c-0.273,0.074-0.547,0.152-0.822,0.237c-0.201,0.062-0.398,0.131-0.593,0.204c-0.324,0.121-0.912,0.531-1.316,0.908
			c-1.435,1.334-2.871,2.67-4.306,4.006c-0.404,0.377-0.614,0.247-0.397-0.261c0.361-0.845,0.874-1.646,1.517-2.35
			c3.876-4.247,8.328-2.278,12.552-4.096c0.114-0.049,0.438-0.18,0.418-0.355c-0.01-0.082-0.026-0.159-0.047-0.236
			c-0.034-0.129,0.194-0.482,0.521-0.791c0.325-0.31,0.578-0.596,0.564-0.642c-0.015-0.045-0.287,0.172-0.608,0.486
			c-0.321,0.314-0.745,0.17-0.999-0.296c-0.15-0.277-0.305-0.558-0.427-0.859c-0.062-0.15-0.097-0.3-0.114-0.444
			c-0.03-0.253,0.327-0.765,0.732-1.141c0.199-0.185,0.399-0.37,0.599-0.555c0.405-0.376,0.627-0.674,0.495-0.664
			c-0.08,0.005-0.16,0.011-0.24,0.015c-0.324,0.02-0.643,0.03-0.947,0.03c-0.065,0-0.127-0.002-0.188-0.005
			c-0.104-0.005-0.205-0.128-0.253-0.266c-0.027-0.079-0.062-0.158-0.111-0.238c-0.098-0.161-0.39-0.11-0.539-0.099
			c-1.254,0.091-2.456,0.015-3.578-0.231c-0.54-0.118-0.913-0.314-0.848-0.381c0.064-0.066-0.043-0.209-0.235-0.327
			c-0.193-0.118-0.425-0.145-0.523-0.051c-0.098,0.094-0.594-0.001-1.076-0.271c-0.257-0.145-0.507-0.301-0.748-0.471
			c-0.453-0.317-0.621-0.782-0.418-0.982c0.202-0.2,0.191-0.587-0.002-0.882c-0.193-0.295-0.527-0.342-0.775-0.086
			c-0.248,0.255-0.602,0.291-0.782,0.07c-0.181-0.22-0.064-0.662,0.24-0.973c0.306-0.31,0.292-0.329-0.017-0.024
			c-0.309,0.305-0.572,0.527-0.596,0.485c-0.023-0.042,0.21-0.336,0.523-0.655c0.312-0.32,0.446-0.917,0.343-1.346
			c-0.103-0.429-0.469-0.471-0.862-0.084c-0.018,0.017-0.035,0.034-0.053,0.051c-0.393,0.388-0.91,0.299-1.09-0.223
			c-0.904-2.628-0.242-4.898,1.246-6.727c0.348-0.428,0.604-0.663,0.521-0.567S8.15,5.64,8.416,5.375
			c0.16-0.161,0.32-0.321,0.48-0.482c1.392-1.183,3.13-2.109,4.91-2.746c0.521-0.187,0.789-0.15,0.59,0.05
			c-0.199,0.199-0.037,0.193,0.375,0.016c0.411-0.178,0.841-0.38,0.947-0.487c0.106-0.106,0.627-0.296,1.171-0.388
			c0.633-0.106,1.246-0.171,1.827-0.192c1.598-0.057,3.208,0,4.807,0c0.883,0,1.766,0,2.647,0c0.079,0,4.129,0.825,0.071,1.295
			c-0.375,0.049-0.75,0.099-1.125,0.147c-0.293,0.039-1.271,0.168-1.377,0.538c-0.018,0.059-0.034,0.119-0.052,0.178
			c-0.028,0.098-0.079,0.213-0.067,0.257s0.404,0.338,0.803,0.72c1.759,1.683,2.606,3.603,2.811,6.143
			c0.313,3.906-3.031,5.907-5.481,8.164c-3.511,3.234,2.407,5.824,4.495,7.798c2.159,2.042,2.924,4.57,2.515,7.215
			c-0.084,0.546-0.516,1.3-0.9,1.695c-0.143,0.146-0.282,0.289-0.423,0.433c-0.387,0.396-0.86,1.139-1.167,1.598
			c-0.332,0.496-0.764,0.95-1.295,1.36c-0.16,0.124-0.331,0.239-0.512,0.349c-0.292,0.176-0.723,0.48-0.946,0.711
			c-0.225,0.229-0.257,0.394-0.071,0.364c0.184-0.031,0.646-0.38,1.034-0.773l3.104-3.148c0.389-0.394,0.645-0.544,0.563-0.34
			c-0.047,0.122-0.098,0.245-0.149,0.367c-2.437,5.667-9.904,6.955-16.104,5.72c-0.542-0.107-1.208-0.302-1.49-0.418
			c-0.282-0.114-0.531-0.195-0.562-0.167c-0.031,0.029-0.485-0.076-1.003-0.268c-0.377-0.14-0.743-0.289-1.097-0.448
			c-0.503-0.227-0.78-0.557-0.637-0.702c0.145-0.145,0.053-0.443-0.183-0.69c-0.235-0.247-0.587-0.299-0.81-0.096
			c-0.222,0.203-0.77,0.11-1.159-0.281c-0.339-0.341-0.623-0.708-0.856-1.097c-0.283-0.474-0.12-1.218,0.268-1.61
			c0.031-0.031,0.061-0.062,0.092-0.093c0.388-0.394,0.695-0.807,0.686-0.922c-0.006-0.068-0.01-0.14-0.01-0.21
			c0-0.009,0.001-0.019,0.002-0.027c0.002-0.016-0.326,0.276-0.731,0.651c-0.057,0.053-0.113,0.104-0.17,0.157
			c-0.405,0.375-0.844,0.309-0.901-0.164C3.275,35.08,3.615,34.389,4.022,34.016z"/>
		<path d="M22.487,16.458c0.358-0.415,0.646-0.861,0.873-1.33c0.238-0.498,0.344-0.813,0.319-0.666
			c-0.013,0.085-0.026,0.173-0.046,0.266c-0.144,0.746-0.553,1.444-1.218,2.096c-0.453,0.462-1.031,0.836-1.722,1.115
			c-0.188,0.076-0.377,0.14-0.568,0.193c-0.319,0.089-0.352,0.174-0.062,0.201c0.172,0.016,0.348,0.025,0.527,0.025
			c0.074,0,0.148-0.008,0.222-0.017c0.121-0.015,0.548-0.33,0.952-0.706c1.108-1.032,2.217-2.062,3.324-3.093
			c0.404-0.376,0.764-0.903,0.786-1.179c0.017-0.179,0.025-0.347,0.025-0.499c0-0.125-0.01-0.254-0.022-0.386
			c-0.019-0.212-0.361-0.081-0.767,0.295c-0.202,0.188-0.403,0.374-0.605,0.562c-0.403,0.376-0.61,0.247-0.548-0.302
			c0.003-0.026,0.006-0.052,0.009-0.079c0.059-0.549,0.372-1.303,0.777-1.678c0.047-0.042,0.093-0.085,0.14-0.128
			c0.406-0.375,0.701-0.864,0.658-1.094c-0.042-0.229-0.428-0.122-0.833,0.253c-0.011,0.01-0.021,0.021-0.033,0.031
			c-0.404,0.375-0.768,0.333-0.851-0.093c-0.081-0.426,0.118-1.059,0.483-1.423c0.364-0.363,0.627-0.743,0.584-0.847
			c-0.043-0.103-0.366,0.107-0.722,0.467c-0.354,0.361-0.73,0.359-0.86,0.002s0.007-0.907,0.329-1.236
			c0.321-0.329,0.556-0.645,0.522-0.707c-0.021-0.037-0.04-0.074-0.061-0.11c-0.004-0.007-0.011-0.014-0.015-0.021
			c-0.009-0.012-0.149,0.107-0.316,0.265c-0.099,0.092-0.197,0.187-0.302,0.285c-0.1,0.095-0.193,0.186-0.286,0.274
			c-0.158,0.151-0.466-0.111-0.72-0.566c-0.254-0.455-0.271-1.019-0.001-1.282c0.271-0.263,0.263-0.273-0.01-0.012
			c-0.271,0.261-0.676,0.184-0.93-0.161c-0.255-0.345-0.325-0.784-0.132-1c0.192-0.215,0.137-0.546-0.146-0.701
			c-0.281-0.155-0.633-0.14-0.768-0.001c-0.135,0.138-0.331,0.165-0.441,0.061c-0.067-0.063-0.135-0.125-0.204-0.184
			c-0.06-0.051-0.122-0.098-0.185-0.144c-0.105-0.076-0.155-0.173-0.108-0.222c0.047-0.048-0.032-0.105-0.177-0.115
			c-0.146-0.009-0.655-0.244-1.184-0.406c-2.493-0.764-5.602,0.415-7.381,2.075c-3.403,3.175-0.611,9.771,2.06,12.42
			c2.565,2.544,7.036,1.788,9.566-0.453C22.445,16.488,22.472,16.476,22.487,16.458z M21.199,15.943
			c-0.273,0.48-0.904,1.122-1.38,1.404c-5.763,3.41-11.089-9.438-6.754-13.482c3.742-3.491,7.298,2.473,8.242,4.993
			C22.149,11.103,22.396,13.846,21.199,15.943z"/>
		<path d="M29.357,17.306c-0.798,0-1.951,0.237-2.502,0.885c-1.565,1.841-0.072,3.691,2.137,3.691c1.814,0,2.341,0.759,2.341,2.539
			c0,1.131,0.359,1.825,1.2,2.542c1.764,1.502,3.688-0.997,3.924-2.474c0.181-1.128-0.15-2.607,1.552-2.607
			c0.989,0,1.938-0.117,2.757-0.729c2.147-1.606,0.161-3.542-1.72-3.843c-0.062-0.01-0.126,0.002-0.189,0.004
			c-0.022-0.001-0.036-0.009-0.061-0.009c-1.551,0-2.34-0.429-2.34-2.168c0-1.154-0.336-1.868-1.201-2.605
			c-1.763-1.501-3.687,0.998-3.923,2.474C31.109,16.405,30.983,17.306,29.357,17.306z M31.371,18.476
			c1.451-0.75,1.919-1.723,1.919-3.338c0-0.2,0.045-0.312,0.118-0.358c0.182-0.116,0.261,0.18,0.139,0.3
			c-0.122,0.121-0.221,0.346-0.221,0.504v0.286c0,0.024-0.003,0.047-0.006,0.07c-0.005,0.039,0.177-0.104,0.405-0.318
			s0.549-0.223,0.656,0.012c0.072,0.157,0.117,0.314,0.117,0.45c0,0.827,0.344,1.396,0.912,1.965
			c0.518,0.518,1.24,0.647,1.969,0.672c0.553,0.02,1.283,0.347,1.538,0.837c0.34,0.656,0.234,0.96-0.313,0.915
			c-0.282,0-0.565,0-0.848,0c-0.727,0-1.26,0.199-1.888,0.523c-1.136,0.587-1.37,1.796-1.37,2.949c0,1.182-1.21,0.799-1.21-0.149
			c0-0.539,0.06-1.184-0.196-1.676c-0.724-1.399-1.849-1.647-3.312-1.647c-0.168,0-0.316-0.045-0.442-0.121
			c-0.22-0.131-0.222-0.42-0.092-0.542s0.231-0.251,0.225-0.288c-0.004-0.022-0.007-0.045-0.007-0.069
			c0-0.064,0.006-0.126,0.018-0.188c0.018-0.103-0.103-0.036-0.282,0.144s-0.481-0.056-0.247-0.4
			c0.12-0.176,0.333-0.296,0.656-0.296C30.176,18.716,30.853,18.744,31.371,18.476z"/>
		<path d="M27.09,33.545c-0.045-0.551,0.1-1.25,0.413-1.573c0.315-0.323,0.507-0.673,0.43-0.78
			c-0.047-0.064-0.095-0.128-0.149-0.191c-0.099-0.112-0.207-0.225-0.325-0.34c-0.185-0.181-0.538-0.124-0.776,0.117
			c-0.239,0.24-0.57,0.242-0.757,0.018c-0.185-0.226-0.187-0.562,0.013-0.761c0.196-0.2,0.309-0.397,0.247-0.442
			c-0.062-0.045-0.264,0.076-0.446,0.271c-0.185,0.193-0.567,0.104-0.878-0.18c-0.312-0.283-0.461-0.623-0.315-0.778
			c0.146-0.156,0.17-0.349,0.055-0.431c-0.068-0.047-0.139-0.095-0.213-0.147c-0.145-0.102-0.284-0.197-0.422-0.289
			c-0.233-0.158-0.54-0.169-0.681-0.029c-0.14,0.142-0.622,0.001-1.082-0.305c-0.312-0.207-0.624-0.413-0.938-0.623
			c-1.253-0.838-3.137-0.401-4.535-0.269c-3.393,0.325-9.875,1.61-10.198,6.032C5.75,43.514,27.85,42.985,27.09,33.545z
			 M8.647,31.599c0.95-3.834,6.582-4.211,9.757-4.211c1.888,0,4.664,2.635,5.983,4.471c0.322,0.447,0.669,1.273,0.741,1.821
			C26.323,42.514,6.187,41.528,8.647,31.599z"/>
		<path d="M16.801,25.967c0.075-0.07,0.102-0.125,0.058-0.122c-0.043,0.003-0.14,0.066-0.216,0.141
			c-0.075,0.073-0.102,0.129-0.058,0.122C16.629,26.1,16.727,26.038,16.801,25.967z"/>
		<path d="M8.197,8.413C7.726,8.889,7.254,9.365,6.782,9.841c-0.389,0.392-0.723,0.882-0.737,1.097
			c-0.008,0.13-0.014,0.26-0.014,0.389c0,0.022,0.002,0.044,0.003,0.066c0.003,0.036,0.319-0.253,0.709-0.644
			c0.321-0.324,0.644-0.647,0.966-0.971C8.1,9.386,8.5,8.754,8.635,8.376C8.77,8,8.585,8.021,8.197,8.413z"/>
		<path d="M33.996,17.27c-0.231,0.215-0.178,0.28,0.058,0.062C34.289,17.113,34.228,17.054,33.996,17.27z"/>
		<path d="M34.506,22.195c-0.016-0.027-0.286,0.204-0.604,0.515s-0.575,0.588-0.575,0.619s0.27-0.199,0.603-0.514
			C34.261,22.5,34.521,22.22,34.506,22.195z"/>
	</g>
</g>
<g>
</g>
<g>
</g>
<g>
</g>
<g>
</g>
<g>
</g>
<g>
</g>
<g>
</g>
<g>
</g>
<g>
</g>
<g>
</g>
<g>
</g>
<g>
</g>
<g>
</g>
<g>
</g>
<g>
</g>
</svg>
