<?xml version="1.0" encoding="iso-8859-1"?>
<!-- Generator: Adobe Illustrator 16.0.0, SVG Export Plug-In . SVG Version: 6.00 Build 0)  -->
<!DOCTYPE svg PUBLIC "-//W3C//DTD SVG 1.1//EN" "http://www.w3.org/Graphics/SVG/1.1/DTD/svg11.dtd">
<svg version="1.1" id="Capa_1" xmlns="http://www.w3.org/2000/svg" xmlns:xlink="http://www.w3.org/1999/xlink" x="0px" y="0px"
	 width="41.239px" height="41.24px" viewBox="0 0 41.239 41.24" style="enable-background:new 0 0 41.239 41.24;"
	 xml:space="preserve">
<g>
	<g>
		<path d="M17.968,41.004c0.072,0.55,1.517-0.016,1.721-0.172c3.938-3.005,7.897-6.611,11.348-10.203
			c3.49-3.634,5.606-8.068,6.267-13.045c1.232-9.283-4.74-14.605-12.733-17.557c-0.097-0.036-0.241-0.035-0.405-0.01
			c-0.223,0.035-0.525,0.106-0.68,0.139c-0.107,0.022-0.201,0.052-0.273,0.088c-1.103,0.552-3.946,0.318-5.258,0.552
			c-2.075,0.369-4.008,1.144-5.907,2.026c-4.721,2.192-7.272,6.475-8.09,11.464C3.03,19.945,5.73,25.734,9.825,29.48
			c1.515,1.387,3.052,1.995,5.004,2.379C19.407,32.756,17.562,37.893,17.968,41.004z M7.567,8.765
			c0.877-1.607,2.055-3.059,3.52-4.248c0.584-0.474,1.21-0.88,1.868-1.229c0.975-0.521,1.194-0.18,0.414,0.603
			C11.623,5.645,9.88,7.403,8.137,9.16C7.359,9.944,7.038,9.735,7.567,8.765z M17.534,31.31c-0.478-0.175-0.79-0.382-0.692-0.479
			c0.098-0.099-0.001-0.281-0.211-0.421c-0.211-0.141-0.51-0.137-0.668,0.011c-0.159,0.146-1.146,0.013-2.157-0.42
			c-1.011-0.433-1.459-1.237-1.097-1.604c0.362-0.366,0.343-0.38-0.041-0.027c-0.384,0.352-0.771,0.588-0.864,0.525
			c-0.057-0.037-0.113-0.074-0.168-0.116c-0.13-0.101-0.256-0.203-0.38-0.309c-0.206-0.176-0.011-0.651,0.427-1.054
			s0.667-0.885,0.511-1.079c-0.094-0.117-0.186-0.235-0.271-0.358c-0.035-0.052-0.067-0.104-0.1-0.157
			c-0.054-0.089-0.482,0.195-0.954,0.635c-0.473,0.438-1.057,0.566-1.286,0.271s-0.109-0.817,0.254-1.156
			c0.363-0.34,1.501-0.248,2.604-0.202c2.436,0.103,4.61-1.348,6.064-3.423c0.633-0.906,1.443-2.166,2.009-2.691
			c0.567-0.526,1.342-0.576,1.86-0.295c0.299,0.162,0.635,0.281,1.006,0.347c4.195,0.75-1.238,4.002-2.668,4.929
			c-0.072,0.046-0.124,0.088-0.159,0.126c-0.076,0.082-0.03,0.243,0.021,0.3c0.025,0.027,0.061,0.054,0.111,0.078
			c5.225,2.503,9.988-2.749,10.382-7.854c0.085-1.102,0.426-2.443,1.051-2.998c0.625-0.554,1.107-1.053,1.077-1.114
			c-0.031-0.061-0.545,0.363-1.146,0.944c-0.6,0.581-1.142,0.737-1.252,0.36c-0.111-0.377,0.165-1.053,0.66-1.526
			c0.494-0.473,0.853-0.896,0.802-0.944c-0.052-0.048-0.477,0.286-0.944,0.741c-0.469,0.456-0.485,0.45-0.029-0.007
			s0.815-0.825,0.8-0.825s-0.392,0.354-0.839,0.792c-0.447,0.438-0.993,0.385-1.302-0.069c-0.185-0.271-0.393-0.528-0.623-0.773
			c-0.909-0.96-3.723-0.301-4.831,0.005c-1.061,0.293-2.02,0.705-2.718,1.375c-0.796,0.766-1.104,1.813-1.239,1.946
			c-0.135,0.132-0.322-0.405-0.595-1.147c-0.272-0.741-0.453-1.465-0.228-1.695c0.226-0.231,0.215-0.411-0.022-0.396
			c-0.237,0.016-0.498,0.101-0.582,0.182c-0.085,0.08-0.227,0.05-0.325-0.065c-0.058-0.069-0.118-0.137-0.18-0.203
			c-0.909-0.96-3.721-0.301-4.83,0.005c-1.891,0.523-3.481,1.407-3.814,3.49c-0.324,2.024,0.665,3.982,2.706,4.347
			c4.196,0.75-1.238,4.002-2.669,4.929c-0.071,0.046-0.123,0.087-0.157,0.124c-0.076,0.08-0.031,0.244,0.019,0.301
			c0.025,0.027,0.061,0.054,0.111,0.078c0.069,0.032,0.138,0.062,0.207,0.09c0.115,0.046-0.066,0.358-0.406,0.7
			c-0.339,0.34-0.929,0.178-1.27-0.392c-0.342-0.568-0.419-1.22-0.215-1.431c0.124-0.128,0.248-0.255,0.372-0.381
			c0.211-0.219,0.421-0.436,0.631-0.651c0.349-0.36,0.55-0.873,0.458-1.148C9.651,21.25,9.107,21.5,8.518,22.087
			c-0.589,0.586-1.231,0.708-1.421,0.268c-0.115-0.266-0.226-0.532-0.332-0.802c-0.083-0.21-0.161-0.422-0.232-0.635
			c-0.12-0.354,0.377-1.22,1.094-1.926c0.716-0.707,1.26-1.622,1.236-2.046c-0.023-0.425-0.65-0.127-1.418,0.667
			c-0.007,0.008-0.015,0.015-0.022,0.022c-0.769,0.794-1.464,1.094-1.527,0.667s0.529-1.417,1.299-2.208
			c0.11-0.113,0.219-0.225,0.328-0.336c0.771-0.791,1.447-1.984,1.566-2.658c0.119-0.672-0.377-0.58-1.164,0.195
			c-0.255,0.251-0.511,0.503-0.767,0.755c-0.787,0.775-1.405,0.578-1.245-0.424c0.16-1.003,0.522-1.912,0.673-2.058
			c0.091-0.089,0.183-0.178,0.274-0.267c2.587-2.616,5.181-5.22,7.775-7.823c0.779-0.782,2.273-1.669,3.36-1.863
			c0.144-0.026,0.288-0.05,0.433-0.074c1.091-0.174,1.909-0.165,1.814-0.078c-0.094,0.087,0.179,0.054,0.616-0.052
			c0.436-0.106,1.051-0.193,1.368-0.203c0.192-0.006,0.386-0.01,0.575-0.011c0.12-0.001,0.236-0.018,0.352-0.042
			c0.19-0.043,1.178,0.211,2.181,0.673c7.287,3.358,11.022,8.775,9.858,17.545c-0.576,4.343-3.103,8.107-5.924,11.316
			c-1.723,1.96-3.796,3.531-5.852,5.114c-0.094,0.073-0.183,0.15-0.27,0.229c-0.146,0.13-0.258,0.012-0.25-0.265
			c0.006-0.274-0.631,0.138-1.408,0.921c-0.052,0.053-0.104,0.105-0.156,0.157c-0.778,0.784-1.387,1.072-1.364,0.642
			c0.023-0.433,0.653-1.405,1.415-2.174c0.761-0.768,1.374-1.413,1.369-1.44s-0.623,0.595-1.377,1.388
			c-0.755,0.794-1.346,0.978-1.353,0.411c-0.007-0.565,0.422-1.529,1.005-2.152s0.969-1.229,0.846-1.335
			c-0.073-0.062-0.152-0.122-0.238-0.174c-0.162-0.116-0.355-0.209-0.569-0.287c-0.332-0.121-0.624-0.17-0.634-0.16
			c-0.006,0.007-0.012,0.013-0.018,0.019c-0.166,0.168-0.334,0.335-0.501,0.502c-0.279,0.276-0.653,0.217-0.933-0.049
			c-0.167-0.158-0.358-0.288-0.581-0.384C18.108,31.529,17.821,31.417,17.534,31.31z M16.034,19.219
			c-0.515-0.899-2.316-0.743-3.099-1.223c-0.876-0.537-0.97-1.942-1.065-2.83c-0.222-2.071,1.482-2.936,3.326-3.096
			c1.685-0.147,2.14,0.381,2.707,1.988c0.489,1.386,0.394,2.96,0.159,4.378c-0.408,2.471-1.793,5.369-4.082,5.837
			c-1.082,0.222-1.182-0.611-0.263-1.224C15.282,22.007,16.834,20.62,16.034,19.219z M20.355,16.749
			c0.035-0.56,0.065-1.071,0.14-1.143c0.076-0.07,0.107,0.259,0.17,0.729c0.062,0.47,0.062,0.965-0.113,1.128
			C20.378,17.625,20.32,17.307,20.355,16.749z M26.753,19.219c-0.515-0.899-2.315-0.743-3.099-1.223
			c-0.876-0.537-0.971-1.942-1.065-2.83c-0.222-2.072,1.482-2.936,3.326-3.096c1.685-0.147,2.139,0.381,2.707,1.988
			c0.489,1.386,0.394,2.96,0.16,4.378c-0.408,2.471-1.794,5.369-4.082,5.837c-1.082,0.222-1.183-0.611-0.263-1.224
			C26.002,22.007,27.553,20.62,26.753,19.219z"/>
		<path d="M21.373,12.02c0.17-0.155,0.158-0.17-0.011-0.012S21.202,12.176,21.373,12.02z"/>
		<path d="M28.198,24.906c0.602-0.038,1.681-0.867,2.434-1.675c0.347-0.37,0.691-0.74,1.035-1.108
			c0.753-0.81,1.592-1.987,1.792-2.661s-0.338-0.608-1.122,0.17c-1.264,1.254-2.535,2.52-3.812,3.794
			C27.742,24.204,27.595,24.944,28.198,24.906z"/>
		<path d="M20.3,23.165c0.802-0.759,1.505-1.469,1.57-1.588c0.063-0.119-0.526,0.41-1.316,1.182
			c-0.179,0.175-0.357,0.349-0.535,0.523c-0.79,0.771-1.389,1.384-1.339,1.365c0.05-0.018,0.741-0.647,1.543-1.407
			C20.247,23.214,20.274,23.189,20.3,23.165z"/>
	</g>
</g>
<g>
</g>
<g>
</g>
<g>
</g>
<g>
</g>
<g>
</g>
<g>
</g>
<g>
</g>
<g>
</g>
<g>
</g>
<g>
</g>
<g>
</g>
<g>
</g>
<g>
</g>
<g>
</g>
<g>
</g>
</svg>
