<?xml version="1.0" encoding="iso-8859-1"?>
<!-- Generator: Adobe Illustrator 16.0.0, SVG Export Plug-In . SVG Version: 6.00 Build 0)  -->
<!DOCTYPE svg PUBLIC "-//W3C//DTD SVG 1.1//EN" "http://www.w3.org/Graphics/SVG/1.1/DTD/svg11.dtd">
<svg version="1.1" id="Capa_1" xmlns="http://www.w3.org/2000/svg" xmlns:xlink="http://www.w3.org/1999/xlink" x="0px" y="0px"
	 width="37.576px" height="37.576px" viewBox="0 0 37.576 37.576" style="enable-background:new 0 0 37.576 37.576;"
	 xml:space="preserve">
<g>
	<g>
		<path d="M20.464,0.678c-0.55-0.053-1.06-0.078-1.137-0.082c-0.042-0.001-0.089-0.001-0.142,0C9.86,0.955,2.13,6.842,0.31,16.191
			c-2.161,11.105,7.315,20.37,17.865,20.776c9.345,0.359,17.347-6.637,19.091-15.589C39.355,10.648,30.576,1.641,20.464,0.678z
			 M35.504,17.181c0.002,0.021,0.005,0.043,0.008,0.065c0.07,0.548-0.06,1.162-0.25,1.365c-0.115,0.123-0.23,0.246-0.346,0.368
			c-0.162,0.172-0.32,0.341-0.48,0.51c-0.267,0.281-0.371,0.073-0.345-0.479c0.007-0.135,0.011-0.271,0.009-0.409
			c-0.004-0.552,0.225-1.313,0.586-1.702C35.049,16.509,35.432,16.633,35.504,17.181z M33.865,11.687
			c0.35,0.737,0.656,1.507,0.921,2.309c0.173,0.524-0.003,1.247-0.363,1.604c-0.36,0.357-0.759,0.209-0.928-0.316
			c-0.267-0.832-0.603-1.653-0.963-2.42c-0.236-0.5-0.149-1.157,0.217-1.482S33.628,11.188,33.865,11.687z M32.959,10.015
			c0.18,0.302,0.031,0.828-0.322,1.17c-0.353,0.342-0.775,0.364-0.949,0.054c-0.176-0.31-0.045-0.827,0.305-1.16
			C32.339,9.745,32.779,9.713,32.959,10.015z M14.022,10.715c0.392-0.387,1.11-0.5,1.589-0.225c0.278,0.16,0.55,0.326,0.816,0.498
			c0.464,0.3,0.5,0.876,0.102,1.258c-0.744,0.714-1.624,1.556-2.679,2.564c-0.063,0.062-0.126,0.125-0.188,0.188
			c-0.105,0.104-0.135-0.258-0.15-0.811c-0.014-0.523-0.062-1.142-0.115-1.776C13.349,11.861,13.629,11.102,14.022,10.715z
			 M13.219,9.92c-0.008-0.326,0.172-0.523,0.378-0.436c0.205,0.088,0.2,0.349,0,0.586C13.397,10.307,13.227,10.245,13.219,9.92z
			 M13.447,8.024C13.373,8.001,13.272,8,13.156,8.013c-0.161,0.019-0.516,0.072-0.786,0.142c-0.201,0.052-0.372,0.121-0.461,0.199
			C11.374,8.822,11.434,8.97,11.52,9.71c0.196,1.693,0.248,3.256,0.113,4.922c-0.044,0.55-0.182,1.323-0.281,1.727
			c-0.06,0.244-0.12,0.488-0.181,0.732c-0.511,2.394-1.977,3.344-4.398,2.85c-0.541-0.11-1.119-0.681-1.193-1.229
			c-0.433-3.205,1.881-7.195,3.661-9.394c4.645-5.736,12.432-4.904,17.582-1.065c2.899,2.162,4.276,5.568,4.915,8.991
			c0.302,1.619,0.639,6.076-2.887,4.02c-1.252-0.731-2.18-2.347-3.002-3.479C22.621,13.351,18.76,9.651,13.447,8.024z M31.848,9.858
			c-0.34,0.343-0.357,0.326-0.02-0.018C32.165,9.495,32.186,9.515,31.848,9.858z M30.471,8.045c0.344-0.32,0.918-0.244,1.258,0.192
			c0.037,0.048,0.074,0.096,0.11,0.144c0.335,0.44,0.308,1.083-0.034,1.418c-0.344,0.334-0.748,0.403-0.912,0.157
			c-0.107-0.159-0.209-0.307-0.308-0.438c-0.114-0.157-0.233-0.309-0.356-0.456C30.023,8.814,30.127,8.365,30.471,8.045z
			 M3.617,11.262c1.667-3.39,4.459-6.216,7.872-7.939c0.493-0.249,0.59-0.107,0.2,0.285C9.091,6.222,6.498,8.84,3.906,11.461
			C3.517,11.854,3.373,11.758,3.617,11.262z M2.491,14.227c0.145-0.533,0.616-1.266,1.015-1.648c1.056-1.013,2.112-2.03,3.169-3.06
			c2.133-2.157,4.273-4.302,6.411-6.45c0.39-0.391,1.13-0.854,1.663-0.996c0.745-0.199,1.509-0.347,2.287-0.44
			c0.549-0.066,0.666,0.213,0.26,0.587c-0.259,0.238-0.516,0.475-0.771,0.709c-0.406,0.374-0.345,0.46,0.154,0.222
			c0.473-0.225,0.956-0.429,1.45-0.612c0.518-0.192,1.076-0.453,1.236-0.618c0.16-0.165,0.734-0.251,1.279-0.162
			c3.4,0.557,6.406,1.983,8.834,4.105c0.416,0.363,0.449,0.944,0.097,1.27c-0.353,0.327-0.865,0.388-1.159,0.155
			c-0.295-0.234-0.303-0.631-0.004-0.907s0.359-0.565,0.132-0.639c-0.228-0.074-0.614,0.064-0.862,0.297
			c-0.248,0.234-0.713,0.259-1.053,0.079c-0.339-0.18-0.499-0.434-0.348-0.585c0.15-0.151,0.179-0.291,0.062-0.316
			c-0.116-0.024-0.315,0.066-0.442,0.195c-0.127,0.129-0.506,0.11-0.854-0.022c-0.35-0.133-0.615-0.25-0.589-0.278
			c0.026-0.027,0-0.052-0.06-0.058c-0.037-0.003-0.072-0.006-0.109-0.006c-0.033,0-0.064,0.001-0.098,0.003
			c-0.055,0.002-0.526-0.131-1.062-0.264c-1.807-0.446-3.699-0.593-5.527-0.49c-3.214,0.181-6.889,1.793-9.151,4.087
			c-1.764,1.789-2.943,3.588-3.878,5.907c-0.029,0.074-0.062,0.16-0.095,0.256c-0.05,0.143-0.406,0.575-0.799,0.963
			c-0.328,0.323-0.657,0.647-0.986,0.972c-0.394,0.388-0.681,0.255-0.604-0.292C2.181,15.528,2.316,14.871,2.491,14.227z
			 M2.045,20.294c-0.055-0.439,0.233-1.119,0.618-1.516c0.13-0.133,0.259-0.267,0.388-0.399c0.385-0.396,0.632-0.294,0.6,0.23
			c-0.033,0.524-0.32,1.272-0.705,1.669c-0.028,0.03-0.057,0.06-0.085,0.088C2.476,20.763,2.1,20.733,2.045,20.294z M2.592,22.909
			c-0.035-0.104-0.069-0.21-0.099-0.316c-0.018-0.068-0.035-0.137-0.051-0.204c-0.026-0.113,0.272-0.52,0.664-0.906
			c0.017-0.016,0.033-0.032,0.05-0.048c0.393-0.388,0.77-0.539,0.888-0.363c0.074,0.11,0.159,0.206,0.259,0.281
			c0.032,0.025,0.065,0.047,0.098,0.069c0.056,0.037-0.221,0.378-0.618,0.761c-0.126,0.122-0.248,0.239-0.364,0.351
			C3.021,22.917,2.652,23.083,2.592,22.909z M3.058,24.27c-0.191-0.507-0.006-1.242,0.386-1.632
			c0.136-0.135,0.271-0.271,0.407-0.405c0.392-0.39,1.079-0.438,1.599-0.25c0.003,0.001,0.006,0.002,0.009,0.003
			c0.521,0.188,0.658,0.521,0.267,0.91c-0.535,0.531-1.065,1.058-1.587,1.578C3.747,24.864,3.248,24.778,3.058,24.27z
			 M34.273,22.518c0.146,0.08,0.293,0.153,0.445,0.218c0.071,0.03,0.143,0.058,0.211,0.081c0.115,0.042,0.11,0.507-0.05,1.035
			c-1.795,5.914-6.887,10.787-13.192,12.015c-1.309,0.254-2.595,0.324-3.847,0.235c-0.551-0.039-0.885-0.222-0.75-0.365
			c0.136-0.144-0.168-0.435-0.66-0.685c-0.033-0.018-0.065-0.033-0.099-0.05c-0.491-0.253-1.091-0.271-1.356-0.015
			c-0.266,0.257-0.91,0.335-1.426,0.139c-0.382-0.146-0.758-0.308-1.128-0.481c-0.499-0.236-0.576-0.771-0.188-1.161
			c0.388-0.39,0.524-0.854,0.312-1.049c-0.211-0.194-0.71-0.053-1.117,0.32c-0.059,0.053-0.117,0.105-0.175,0.16
			c-0.408,0.371-1.116,0.434-1.562,0.108C9.29,32.73,8.899,32.419,8.52,32.092c-0.418-0.361-0.424-0.992-0.036-1.385
			c0.205-0.208,0.411-0.417,0.617-0.627c0.388-0.393,0.672-0.753,0.633-0.803s-0.396,0.213-0.802,0.588
			c-0.226,0.208-0.45,0.417-0.676,0.625c-0.405,0.375-0.954,0.46-1.216,0.179c-0.263-0.282-0.136-0.822,0.271-1.195
			c0.292-0.269,0.585-0.537,0.877-0.806c0.407-0.374,0.593-0.925,0.43-1.238c-0.163-0.314-0.614-0.268-1.018,0.11
			C7.247,27.87,6.893,28.2,6.54,28.53c-0.404,0.377-1.005,0.329-1.317-0.126C4.932,27.98,4.659,27.545,4.402,27.1
			c-0.275-0.479-0.166-1.2,0.219-1.597c0.56-0.579,1.121-1.157,1.682-1.733c0.386-0.396,0.654-0.905,0.613-1.142
			c-0.042-0.237,0.381-0.444,0.912-0.594c0.997-0.279,1.971-0.885,2.889-1.605c0.908-0.713,1.51-1.634,1.945-2.642
			c0.22-0.507,0.666-1.255,1.051-1.651c1.13-1.163,2.252-2.317,3.363-3.458c0.385-0.396,1.052-0.442,1.471-0.083
			c2.753,2.36,4.939,5.357,7.391,8.37c1.785,2.195,4.771,2.899,6.89,0.998c0.137-0.123,0.258-0.256,0.366-0.396
			c0.183-0.235,0.617-0.767,1.006-1.16c0.242-0.245,0.482-0.486,0.72-0.727c0.39-0.394,0.709-0.359,0.692,0.074
			c-0.014,0.433-0.362,1.1-0.752,1.491c-0.104,0.104-0.205,0.207-0.309,0.311C34.163,21.944,34.033,22.385,34.273,22.518z"/>
		<path d="M17.371,15.951c-1.309,1.303-3.028,3.021-5.299,5.296c-0.391,0.392-0.67,0.728-0.625,0.749
			c0.045,0.022,0.41-0.269,0.814-0.646c1.651-1.541,3.311-3.091,4.958-4.632c0.403-0.377,0.766-0.859,0.802-1.077
			C18.057,15.424,17.762,15.562,17.371,15.951z"/>
		<path d="M14.377,21.241c-0.405,0.376-0.314,0.512,0.148,0.21c0.343-0.224,0.66-0.478,0.935-0.732
			c0.337-0.309,0.643-0.648,0.916-1.013c0.331-0.44,0.223-0.528-0.182-0.152C15.589,20.115,14.983,20.678,14.377,21.241z"/>
	</g>
</g>
<g>
</g>
<g>
</g>
<g>
</g>
<g>
</g>
<g>
</g>
<g>
</g>
<g>
</g>
<g>
</g>
<g>
</g>
<g>
</g>
<g>
</g>
<g>
</g>
<g>
</g>
<g>
</g>
<g>
</g>
</svg>
