<?xml version="1.0" encoding="iso-8859-1"?>
<!-- Generator: Adobe Illustrator 16.0.0, SVG Export Plug-In . SVG Version: 6.00 Build 0)  -->
<!DOCTYPE svg PUBLIC "-//W3C//DTD SVG 1.1//EN" "http://www.w3.org/Graphics/SVG/1.1/DTD/svg11.dtd">
<svg version="1.1" id="Capa_1" xmlns="http://www.w3.org/2000/svg" xmlns:xlink="http://www.w3.org/1999/xlink" x="0px" y="0px"
	 width="41.271px" height="41.271px" viewBox="0 0 41.271 41.271" style="enable-background:new 0 0 41.271 41.271;"
	 xml:space="preserve">
<g>
	<g>
		<path d="M39.586,15.663c0-3.652,0-7.304,0-10.956c0-0.877-1.621-0.532-1.881,0.038c-1.279,2.803-2.56,5.605-3.84,8.408
			c-0.229,0.503-0.417,0.463-0.419-0.09c-0.008-3.244-0.017-6.488-0.024-9.733c-0.008-3.468-3.57-3.226-5.943-3.226
			c-6.212,0-12.425,0-18.637,0c-1.213,0-2.765-0.267-3.961,0.054C4.054,0.38,1.686,2.468,1.686,3.236c0,4.887,0,9.774,0,14.66
			c0,2.678,0,5.355,0,8.034c0,1.642,1.295,2.298,2.455,3.438c0.675,0.662,2.92,0.219,3.713,0.219c3.332,0,6.664,0,9.996,0
			c2.275,0,4.551,0,6.826,0c0.552,0,0.938,0.204,0.908,0.465c-0.015,0.129-0.023,0.285-0.023,0.476c0,0.815,0,1.633,0,2.448
			c0,0.554-0.448,1.001-1.001,1.001c-6.432,0-12.863,0-19.296,0c-0.374,0-1.328,0.173-1.328,0.719c0,2.071-0.614,5.493,2.239,6.273
			c2.407,0.659,5.785,0.036,8.253,0.036c4.285,0,8.571,0,12.854,0c1.971,0,3.389,0.356,4.84-1.062
			c2.252-2.204,1.424-4.889,1.424-7.984c0-3.741,1.019-5.474,2.744-8.876C37.389,20.914,39.586,18.171,39.586,15.663z
			 M31.518,18.323c0,0.013,0.004,0.023,0.008,0.033c0.008,0.018,0.009,0.073,0.021,0.121c0.012,0.049-0.287,0.396-0.683,0.781
			c-0.803,0.785-1.603,1.565-2.396,2.341c-0.395,0.387-0.717,0.251-0.717-0.301c0-0.457,0-0.914,0-1.37
			c0-0.553,0.328-1.305,0.732-1.681c0.764-0.711,1.527-1.421,2.291-2.132c0.404-0.376,0.732-0.233,0.734,0.319
			C31.514,17.065,31.516,17.693,31.518,18.323z M30.901,19.324c-0.269,0.262-0.535,0.522-0.801,0.783
			c-0.396,0.386-0.396,0.386-0.001-0.002c0.261-0.256,0.527-0.518,0.8-0.783C31.295,18.936,31.297,18.938,30.901,19.324z
			 M30.772,14.371c-0.763,0.707-1.524,1.414-2.287,2.121c-0.403,0.376-0.731,0.262-0.731-0.254c0-0.517,0.33-1.235,0.736-1.609
			c0.628-0.574,1.395-1.278,2.273-2.091c0.406-0.374,0.736-0.268,0.738,0.237C31.504,13.281,31.178,13.996,30.772,14.371z
			 M30.771,11.536c-0.763,0.716-1.632,1.531-2.599,2.436c-0.072,0.072-0.143,0.141-0.209,0.207
			c-0.117,0.113-0.209-0.211-0.209-0.724c0-0.514,0.33-1.233,0.736-1.607c0.419-0.384,0.838-0.767,1.258-1.148
			c0.344-0.347,0.69-0.692,1.036-1.037c0.392-0.39,0.709-0.281,0.712,0.241C31.496,10.427,31.172,11.157,30.771,11.536z
			 M30.789,9.141c-0.777,0.791-1.557,1.583-2.334,2.375c-0.388,0.394-0.701,0.319-0.701-0.168c0-0.486,0.312-1.2,0.697-1.596
			c0.787-0.804,1.566-1.6,2.336-2.384c0.387-0.395,0.7-0.317,0.701,0.173C31.489,8.031,31.178,8.746,30.789,9.141z M3.628,10.979
			c0-0.553,0.323-1.311,0.722-1.693C6.144,7.565,7.879,5.9,9.545,4.306c0.398-0.382,0.722-0.709,0.722-0.73
			c0-0.023-0.323,0.269-0.722,0.65C7.929,5.773,6.188,7.445,4.35,9.209C3.951,9.592,3.628,9.454,3.628,8.901
			c0-1.219,0-2.438,0-3.656c0-0.553,0.312-1.321,0.699-1.716C4.804,3.042,5.275,2.56,5.735,2.09c0.387-0.395,0.39-0.394,0.006,0.005
			c-0.343,0.356-0.69,0.716-1.043,1.081c-0.383,0.398-0.38,0.4,0.006,0.006C5.073,2.806,5.44,2.431,5.809,2.057
			c0.387-0.395,1.148-0.715,1.7-0.715c0.602,0,1.203,0,1.805,0c0.553,0,0.685,0.317,0.296,0.709C7.98,3.693,6.249,5.451,4.386,7.36
			C4.312,7.435,4.238,7.509,4.164,7.584c-0.123,0.124,0.099-0.088,0.497-0.47c1.802-1.729,3.567-3.421,5.305-5.081
			c0.399-0.381,1.171-0.69,1.724-0.69c5.025,0,10.051,0,15.074,0c3.468,0,4.71,0.092,4.72,3.939
			c0.001,0.225,0.001,0.449,0.002,0.674c0.001,0.372-0.073,0.674-0.169,0.674s-0.434,0.248-0.757,0.554
			c-0.19,0.181-0.386,0.365-0.587,0.556c-0.566,0.54-1.061,1.012-1.496,1.431c-0.398,0.382-0.723,0.243-0.723-0.309
			c0-0.173,0-0.345,0-0.517c0-0.553,0.164-1.159,0.367-1.357c0.202-0.197,0.198-0.205-0.005-0.01
			c-0.202,0.195-0.362,0.154-0.362-0.094c0-0.15,0-0.301,0-0.451c0-0.339-0.287-0.518-0.615-0.518c-5.289,0-10.58,0-15.87,0
			c-0.553,0-1.001-0.014-1.001-0.03s-0.014-0.017-0.031,0s-0.241,0.03-0.501,0.03c-0.157,0-0.314,0-0.472,0
			c-0.374,0-1.328,0.173-1.328,0.718c0,0.256,0,0.512,0,0.768c0,0.425-0.318,1.084-0.71,1.474c-0.964,0.957-1.926,1.912-2.887,2.865
			c-0.392,0.39-0.71,0.257-0.71-0.296C3.628,11.287,3.628,11.133,3.628,10.979z M25.811,7.969c0,0.273,0,0.545,0,0.818
			c0,1.87,0,3.74,0,5.611c0,2.248,0,4.496,0,6.745c0,0.553-0.447,1-1,1c-4.644,0-9.287,0-13.933,0c-0.552,0-0.999-0.365-0.999-0.818
			c0-0.273,0-0.545,0-0.818c0-1.87,0-3.74,0-5.611c0-2.248,0-4.496,0-6.745c0-0.552,0.447-1,1-1c4.644,0,9.287,0,13.933,0
			C25.362,7.15,25.811,7.516,25.811,7.969z M3.628,15.766c0-0.301,0-0.603,0-0.903c0-0.498,0.32-1.214,0.717-1.6
			c0.943-0.918,1.9-1.851,2.873-2.797c0.396-0.386,0.717-0.26,0.717,0.282c0,0.541-0.32,1.292-0.716,1.678
			c-0.931,0.908-1.888,1.84-2.877,2.802c-0.396,0.385-0.717,0.661-0.716,0.617C3.627,15.818,3.628,15.79,3.628,15.766z
			 M7.936,11.797c0,0.017-0.321,0.341-0.719,0.725c-0.855,0.827-1.818,1.757-2.867,2.756c-0.4,0.381-0.404,0.377-0.009-0.008
			c0.902-0.879,1.909-1.86,2.879-2.805C7.614,12.08,7.936,11.78,7.936,11.797z M3.442,18.754c0.043-0.55,0.392-1.317,0.778-1.712
			c1.008-1.031,2.012-2.056,3.013-3.074c0.387-0.395,0.701-0.266,0.701,0.286c0,0.269,0,0.538,0,0.807
			c0,0.552-0.315,1.317-0.704,1.71c-1.075,1.085-2.149,2.17-3.223,3.257c-0.389,0.393-0.68,0.264-0.641-0.287
			C3.392,19.405,3.417,19.076,3.442,18.754z M3.281,23.404c-0.021-0.389-0.027-0.787-0.023-1.194
			c0.004-0.552,0.352-1.306,0.753-1.685c1.071-1.01,2.139-2.026,3.203-3.049c0.398-0.382,0.721-0.244,0.721,0.308
			c0,0.369,0,0.738,0,1.107c0,0.553-0.318,1.315-0.712,1.703c-1.042,1.027-2.09,2.062-3.144,3.104
			C3.686,24.085,3.311,23.955,3.281,23.404z M5.324,26.58c-0.384,0.396-0.75,0.665-0.817,0.599c-0.039-0.039-0.08-0.079-0.123-0.121
			c-0.107-0.105-0.203-0.227-0.291-0.359c-0.141-0.215,0.086-0.728,0.47-1.123c0.908-0.938,1.801-1.856,2.675-2.756
			c0.385-0.396,0.697-0.548,0.697-0.338c0,0.127,0,0.254,0,0.381c0,0.149,0.058,0.268,0.15,0.352
			c0.161,0.146,0.045,0.475-0.339,0.87C6.939,24.915,6.131,25.748,5.324,26.58z M5.885,36.433c-0.002-0.072-0.005-0.146-0.006-0.22
			c-0.014-0.553,0.443-1,0.996-1c0.156,0,0.312,0,0.469,0c0.553,0,0.673,0.305,0.27,0.683c-0.305,0.283-0.609,0.567-0.915,0.853
			C6.295,37.124,5.906,36.985,5.885,36.433z M6.76,39.234c-0.303-0.276-0.11-0.894,0.299-1.264c0.768-0.693,1.534-1.39,2.3-2.085
			c0.408-0.372,1.185-0.673,1.738-0.673c0.021,0,0.043,0,0.064,0c0.553,0,0.67,0.305,0.265,0.68
			c-1.097,1.017-2.196,2.03-3.298,3.043C7.722,39.309,7.063,39.511,6.76,39.234z M30.541,39.511c-0.05,0.048-0.086,0.09-0.113,0.128
			c-0.057,0.075-0.202,0.141-0.368,0.136c-0.089-0.003-0.188-0.006-0.302-0.006c-3.565,0-7.133,0-10.697,0c-1.467,0-2.935,0-4.401,0
			c-0.553,0-1.088-0.09-1.196-0.199c-0.109-0.11-0.295-0.111-0.415-0.001c-0.12,0.109-0.665,0.2-1.218,0.2c-1.156,0-2.312,0-3.467,0
			c-0.041,0-0.079-0.003-0.116-0.006c-0.063-0.006,0.199-0.329,0.587-0.723c0.988-1.003,1.981-2.011,2.981-3.024
			c0.388-0.393,0.702-0.731,0.702-0.758c0-0.023,0.448-0.045,1-0.045c4.22,0,8.438,0,12.658,0c0.373,0,1.328-0.172,1.328-0.718
			c0-0.164,0-0.328,0-0.491c0-0.272,0.306-0.819,0.683-1.223c0.847-0.905,1.69-1.811,2.532-2.709c0.377-0.403,0.59-0.291,0.552,0.26
			c-0.009,0.129-0.017,0.259-0.021,0.392c-0.019,0.553-0.308,1.323-0.688,1.725c-0.484,0.512-0.965,1.017-1.439,1.517
			c-0.38,0.401-0.645,0.727-0.59,0.727c0.057,0,0.414-0.317,0.803-0.71c0.41-0.412,0.815-0.822,1.223-1.232
			c0.389-0.393,0.717-0.396,0.74-0.009s-0.227,0.981-0.569,1.327c-0.343,0.345-0.317,0.624,0.056,0.624s0.719,0.445,0.762,0.997
			c0.033,0.435,0.057,0.834,0.057,1.177C31.602,38.404,31.654,38.421,30.541,39.511z M31.703,28.414
			c-0.051,0.099-0.093,0.207-0.13,0.32c-0.06,0.182-0.528,0.331-1.06,0.331c-0.533,0-1.281,0.315-1.672,0.708
			c-0.211,0.213-0.422,0.425-0.633,0.638c-0.39,0.393-0.705,0.262-0.705-0.29c0-0.417,0-0.835,0-1.252
			c0-0.339-0.287-0.519-0.615-0.519c-3.746,0-7.492,0-11.238,0c-1.434,0-2.866,0-4.299,0c-0.552,0-0.829-0.177-0.619-0.394
			c0.211-0.218,0.221-0.55,0.024-0.744c-0.198-0.195-0.677-0.037-1.068,0.353c-0.026,0.025-0.054,0.054-0.08,0.08
			c-0.392,0.39-0.938,0.704-1.218,0.704c-0.17,0-0.339,0-0.509,0c-0.293,0-0.544,0.003-0.761,0.006
			c-0.42,0.005-0.444-0.32-0.054-0.71c0.556-0.554,1.11-1.106,1.67-1.658c0.117-0.129,0.234-0.257,0.352-0.387
			c0.194-0.213,0.029-0.073-0.368,0.31c-0.687,0.663-1.332,1.286-1.803,1.738c-0.398,0.382-0.963,0.681-1.218,0.559
			c-0.255-0.122-0.102-0.604,0.291-0.993c1.059-1.044,2.118-2.088,3.178-3.133c0.393-0.388,1.16-0.702,1.713-0.702
			c4.831,0,9.662,0,14.494,0c0.553,0,1.4,0.061,1.836-0.122c0.309-0.127,0.543-0.338,0.543-0.596c0-0.016,0-0.031,0-0.047
			c0-0.026,0.324-0.356,0.726-0.736c0.881-0.837,1.737-1.651,2.573-2.447c0.4-0.381,1.148-0.501,1.66-0.646
			c0.511-0.143,0.904-0.978,1.135-1.48c0.008-0.018,0.016-0.034,0.023-0.051c0.229-0.503,0.439-0.932,0.469-0.96
			c0.028-0.029,0.054-0.081,0.054-0.118s0.185-0.474,0.415-0.976c0.807-1.768,1.613-3.534,2.421-5.301
			c0.229-0.503,0.415-0.462,0.415,0.091c0,1.226,0,2.453,0,3.68c0,2.967-0.533,4.078-1.901,6.776
			C34.396,23.103,33.049,25.758,31.703,28.414z"/>
		<path d="M33.685,18.733c0.391-0.347,0.708-0.653,0.708-0.685c0-0.031-0.317,0.25-0.708,0.629
			C33.293,19.056,33.293,19.08,33.685,18.733z"/>
		<path d="M31.271,22.859c0.033,0,0.259-0.204,0.505-0.455s0.22-0.251-0.06,0C31.438,22.655,31.238,22.859,31.271,22.859z"/>
	</g>
</g>
<g>
</g>
<g>
</g>
<g>
</g>
<g>
</g>
<g>
</g>
<g>
</g>
<g>
</g>
<g>
</g>
<g>
</g>
<g>
</g>
<g>
</g>
<g>
</g>
<g>
</g>
<g>
</g>
<g>
</g>
</svg>
