<?xml version="1.0" encoding="iso-8859-1"?>
<!-- Generator: Adobe Illustrator 16.0.0, SVG Export Plug-In . SVG Version: 6.00 Build 0)  -->
<!DOCTYPE svg PUBLIC "-//W3C//DTD SVG 1.1//EN" "http://www.w3.org/Graphics/SVG/1.1/DTD/svg11.dtd">
<svg version="1.1" id="Capa_1" xmlns="http://www.w3.org/2000/svg" xmlns:xlink="http://www.w3.org/1999/xlink" x="0px" y="0px"
	 width="47.654px" height="47.654px" viewBox="0 0 47.654 47.654" style="enable-background:new 0 0 47.654 47.654;"
	 xml:space="preserve">
<g>
	<g>
		<path d="M45.481,31.385c-0.345-0.434-0.399-1.354-0.399-1.906c0-2.593,0-5.184,0-7.779c0-1.126,0.414-3.731-1.156-4.155
			c-1.574-0.426-3.15-0.284-4.78-0.284c-1.7,0-6.277-0.764-7.773,0.73c-1.399,1.4-1.238,3.136-0.912,5.011
			c0.182,1.04,1.71,1.186,2.223,1.979c0.425,0.66,0.176,2.381,0.176,3.097c0,1.905,0.396,3.851-1.507,4.937
			c-0.028,0.017-0.053,0.037-0.074,0.059c-0.038,0.036-0.146-0.091-0.295-0.236c-0.09-0.088-0.194-0.158-0.315-0.204
			c-2.554-0.954-1.94-3.646-1.932-5.797c0.014-2.847,0.301-5.926-1.251-8.435c-1.396-2.256-4.9-2.104-7.121-1.926
			c-2.086,0.167-3.497,1.204-4.849,2.418c-0.411,0.369-0.811,0.235-0.859-0.314c-0.217-2.445,0.128-5.121,0.128-7.45
			c0-3.095-2.888-2.764-5.127-2.764c-2.481,0-5.575-0.539-7.955,0.429c-2.558,1.04-1.947,5.116-0.043,6.283
			c1.935,1.19,1.141,5.189,1.135,6.942c-0.011,2.863-0.021,5.725-0.03,8.588c-0.008,1.791-1.422,1.647-2.188,2.656
			c-0.607,0.799-0.459,2.155-0.459,3.091c0,2.333,1.665,2.748,3.602,2.748c1.849,0,11.055,1.435,11.885-1.634
			c0.013-0.047,0.021-0.094,0.027-0.142c0.014-0.077,0.136,0.296,0.415,0.762c0.193,0.321,0.425,0.563,0.69,0.676
			c1.891,0.794,4.473,0.338,6.441,0.338c2.384,0,5.114,0.368,6.797-0.638c0.475-0.283,0.948-0.201,1.407,0.104
			c1.414,0.942,4.262,0.386,5.744,0.386c2.497,0,6.168,0.657,8.6-0.186c1.374-0.477,1.93-1.175,1.93-2.725
			c0-0.91-0.02-1.672-0.176-2.574C47.291,32.389,46.128,32.203,45.481,31.385z M1.936,11.242c-0.218-0.995-0.109-1.858,0.886-1.858
			c0.444,0,0.889,0,1.333,0c0.553,0,0.677,0.311,0.279,0.693c-0.49,0.47-0.987,0.947-1.492,1.431
			C2.542,11.89,2.052,11.782,1.936,11.242z M15.833,33.272c-0.028,0.033-0.058,0.069-0.085,0.108
			c-0.042,0.062-0.14-0.326-0.233-0.87c-0.131-0.749-0.264-1.502-0.33-2.273c-0.05-0.55-0.124-1.444-0.073-1.996
			c0.079-0.871,0.439-1.661,1.081-2.368c0.371-0.409,0.822-0.236,0.808,0.314c-0.015,0.531-0.079,1.086-0.075,1.544
			C16.94,29.677,17.236,31.691,15.833,33.272z M23.948,38.083c-1.931,0-5.751,0.885-6.464-1.749
			c-0.587-2.172,1.416-3.974,1.397-6.115c-0.003-0.35,0.017-0.754,0.039-1.19c0.029-0.552,0.382-1.302,0.787-1.677
			c0.498-0.462,0.996-0.924,1.494-1.386c0.405-0.375,0.724-0.844,0.683-1.041c-0.028-0.138-0.066-0.254-0.12-0.343
			c-0.057-0.095-0.158-0.163-0.291-0.213c-0.19-0.069-0.687,0.228-1.092,0.604c-0.219,0.203-0.438,0.407-0.655,0.61
			c-0.405,0.376-0.739,0.23-0.833-0.312c-0.263-1.536-1.072-2.521-3.28-1.623c-4.535,1.842-1.667,8.395-1.667,11.784
			c0,3.541-2.446,2.651-5.073,2.651c-1.387,0-4.21,0.483-5.753-0.366c-0.482-0.268-0.41-0.97-0.008-1.35
			c0.46-0.433,0.922-0.866,1.387-1.304c0.402-0.379,0.804-1.131,1.142-1.537c0.224-0.27,0.507-0.431,0.815-0.431
			c0.028,0,0.058-0.004,0.084-0.009c0.045-0.01,0.201-0.129,0.35-0.269c0.089-0.083,0.177-0.166,0.267-0.251
			c0.071-0.074,0.143-0.147,0.214-0.221c0.118-0.121,0.31-0.44,0.362-0.728c0.032-0.167,0.05-0.343,0.051-0.524
			c0,0,0-0.156,0.001-0.351c0.001-0.192-0.277-0.071-0.622,0.271c-0.209,0.208-0.418,0.415-0.623,0.618
			c-1.244,1.341-2.498,2.673-3.752,4.004c-0.379,0.402-0.712,0.61-0.727,0.464c-0.009-0.086-0.014-0.174-0.014-0.267
			c0-2.042,1.472-2.674,2.218-3.902c0.285-0.472,0.682-1.24,1.072-1.63c0.582-0.579,1.164-1.159,1.747-1.738
			c0.394-0.389,0.71-0.728,0.71-0.758c0-0.031-0.321,0.256-0.72,0.639c-0.183,0.177-0.352,0.339-0.502,0.483
			c-0.398,0.382-0.992,0.95-1.317,1.279c-0.325,0.327-0.578,0.508-0.569,0.399c0.005-0.062,0.008-0.127,0.008-0.192
			c0-0.163,0.001-0.327,0.002-0.491c0.001-0.271,0.32-0.808,0.714-1.194c0.56-0.552,1.119-1.104,1.678-1.655
			c0.395-0.388,0.713-1.021,0.715-1.413c0.003-0.393-0.308-0.39-0.691,0.008c-0.57,0.588-1.143,1.177-1.712,1.766
			c-0.385,0.396-0.694,0.315-0.692-0.182s0.314-1.222,0.699-1.617c0.577-0.595,1.147-1.183,1.71-1.762
			c0.385-0.396,0.698-1.165,0.7-1.718l0.002-0.21c0.002-0.553-0.316-0.685-0.709-0.298c-0.538,0.53-1.079,1.064-1.62,1.599
			c-0.394,0.388-0.677,0.256-0.632-0.294c0.037-0.459,0.076-0.94,0.108-1.432c0.036-0.551,0.38-1.307,0.78-1.686
			c0.454-0.432,0.909-0.863,1.363-1.298c0.398-0.381,0.723-0.859,0.724-1.065c0.001-0.207-0.312-0.057-0.701,0.336
			c-0.463,0.468-0.927,0.936-1.39,1.404c-0.389,0.393-0.69,0.262-0.708-0.291c-0.007-0.215-0.018-0.428-0.032-0.638
			c-0.04-0.551,0.2-1.314,0.586-1.71c0.223-0.228,0.443-0.454,0.665-0.681c0.387-0.395,0.604-0.77,0.476-0.807
			c-0.076-0.022-0.156-0.035-0.238-0.035c-0.119,0-0.234-0.024-0.344-0.07c-0.182-0.074-0.585,0.095-0.937,0.435
			c-0.351,0.34-0.366,0.325-0.021-0.02c0.345-0.344,0.339-0.359-0.011-0.029c-0.348,0.331-0.731,0.292-0.932-0.058
			c-0.199-0.35-0.123-0.883,0.247-1.243c0.37-0.36,0.658-0.733,0.651-0.834c-0.005-0.059-0.008-0.119-0.008-0.181
			c0,0,0-0.261,0-0.583c0-0.321-0.316-0.267-0.71,0.123c-0.224,0.223-0.447,0.444-0.672,0.667c-0.392,0.389-0.925,0.341-1.145-0.131
			c-0.221-0.473-0.042-1.18,0.355-1.562c0.523-0.501,1.04-0.998,1.552-1.488c0.397-0.383,1.169-0.693,1.721-0.693
			c1.69,0,3.379,0,5.067,0c2.84,0,1.287,10.1,1.803,11.886c0.173,0.598,1.456,0.096,1.731-0.132
			c1.983-1.632,3.636-2.667,5.017-3.235c0.51-0.211,0.62-0.02,0.222,0.362c-0.444,0.426-0.935,0.896-1.48,1.419
			c-0.399,0.381-0.724,0.728-0.724,0.776v0.086c0,0.164,0.008,0.305,0.023,0.422c0.03,0.232,0.448,0.074,0.834-0.321
			c0.839-0.861,1.67-1.716,2.497-2.564c0.386-0.396,1.148-0.769,1.691-0.669c3.832,0.701,3.909,7.512,3.868,12.508
			c-0.022,2.917,2.855,3.23,2.855,5.604C29.641,39.127,26.591,38.083,23.948,38.083z M32.706,18.38
			c0.342-0.316,0.5-0.101,0.184,0.195C32.571,18.874,32.364,18.697,32.706,18.38z M32.245,21.532
			c-0.019-0.119-0.029-0.247-0.029-0.388c0-0.168-0.001-0.33-0.002-0.488c-0.002-0.27,0.33-0.789,0.736-1.163
			c0.283-0.261,0.584-0.537,0.901-0.83c0.405-0.374,1.179-0.678,1.726-0.678s0.662,0.305,0.258,0.68
			c-0.921,0.854-1.841,1.708-2.762,2.561C32.667,21.602,32.278,21.744,32.245,21.532z M44.75,38.23c-2.62,0-5.241,0-7.86,0
			c-0.389,0-0.748,0-1.086-0.008c-0.24-0.005-0.47-0.015-0.684-0.031c-0.377-0.03-0.428-0.341-0.118-0.654
			c0.311-0.312,0.561-0.646,0.561-0.747c0-0.102-0.307,0.14-0.685,0.538s-1.041,0.653-1.397,0.411
			c-0.357-0.243-0.229-0.893,0.148-1.296c0.464-0.497,0.929-0.994,1.392-1.489c0.377-0.402,0.761-1.082,1.025-1.414
			c0.267-0.332,0.885-0.634,1.181-0.949c0.296-0.317,0.59-0.761,0.622-0.997c0.018-0.141,0.027-0.284,0.027-0.435
			c0,0,0-0.263,0-0.587c0-0.323-0.315-0.271-0.708,0.118c-1.315,1.312-2.644,2.638-3.973,3.971c-0.392,0.393-0.715,0.575-0.72,0.409
			c-0.003-0.098-0.005-0.196-0.005-0.301c0-1.903,1.168-1.523,1.727-2.486c0.5-0.863,0.591-1.727,0.6-2.642
			c0.005-0.553,0.197-1.21,0.451-1.469c0.253-0.258,0.252-0.282-0.001-0.055c-0.254,0.229-0.459,0.383-0.459,0.345
			c-0.001-0.023-0.001-0.047-0.001-0.07c0-0.797,0.014-1.574-0.022-2.352c-0.025-0.553,0.197-1.262,0.542-1.588
			c0.343-0.327,0.588-0.624,0.55-0.666c-0.037-0.043-0.319,0.169-0.633,0.477c-0.312,0.307-0.316,0.302-0.006-0.006
			c0.312-0.31,0.558-0.567,0.547-0.582c-0.012-0.014-0.266,0.216-0.568,0.514c-0.304,0.297-0.56,0.479-0.566,0.406
			c-0.005-0.043-0.01-0.087-0.018-0.131c-0.08-0.462-0.323-0.758-0.627-1.001c-0.432-0.345-0.497-0.867-0.093-1.243
			c0.227-0.212,0.453-0.423,0.681-0.635c0.404-0.376,0.73-0.873,0.73-1.111v-0.431c0-1.106,0.896-2,2-2c0,0,0.24,0,0.537,0
			c0.298,0,0.553-0.013,0.568-0.029c0.018-0.017,0.252-0.029,0.522-0.029c0.163,0,0.326,0,0.49,0c3.99,0,3.727,2.829,3.727,6.007
			c0,2.001,0,4.002,0,6.005c0,0.552,0.056,1.459,0.323,1.941c0.659,1.192,1.966,1.432,2.248,3.059
			C45.871,35.849,45.868,38.23,44.75,38.23z"/>
		<path d="M38.292,10.056c-2.897,0-4.068,3.822-2.392,5.855c1.189,1.444,4.432,0.851,6.056,0.851c0.07,0,0.137-0.006,0.199-0.018
			c0.109-0.019,0.642-0.134,1.125-0.4c1.847-1.019,2.561-3.628,1.067-5.438C43.159,9.462,39.917,10.056,38.292,10.056z
			 M37.177,13.924c0-0.222-0.021-0.52-0.019-0.833c0.002-0.459,0.269-1.012,0.5-1.242c0.229-0.229,0.863-0.467,1.416-0.474
			c0.022,0,0.046,0,0.068-0.001c0.553-0.004,0.893,0.11,0.759,0.228c-0.066,0.058-0.146,0.128-0.243,0.214
			c-0.474,0.451-1.058,1.003-1.732,1.637c-0.401,0.379-0.734,0.638-0.741,0.579C37.181,13.997,37.177,13.962,37.177,13.924z
			 M42.917,14.847c-0.232,0.5-1.146,0.548-1.601,0.548c-0.456,0-0.929-0.186-0.997-0.436c-0.04-0.146-0.063-0.301-0.063-0.461
			c0,0,0-0.082,0-0.184s-0.305,0.1-0.681,0.448c-0.376,0.349-0.717,0.632-0.761,0.632c-0.027,0-0.056,0-0.081,0
			c-0.243,0-0.476-0.046-0.682-0.132c-0.355-0.149-0.229-0.713,0.179-1.088c0.78-0.721,1.638-1.512,2.555-2.359
			c0.068-0.075,0.143-0.143,0.223-0.207c0.034-0.031,0.068-0.063,0.104-0.096c0.057-0.053,0.171-0.094,0.254-0.092
			c0.051,0.001,0.102,0.002,0.151,0.002c0.85,0,1.556,0.541,1.556,1.471C43.073,13.39,43.186,14.272,42.917,14.847z"/>
		<path d="M19.603,31.21c-0.396,0.386-0.391,0.392,0.012,0.013c0.544-0.513,1.081-1.021,1.613-1.523
			c0.4-0.379,0.727-0.709,0.727-0.736c-0.001-0.028-0.321,0.263-0.716,0.648C20.691,30.145,20.146,30.679,19.603,31.21z"/>
		<path d="M21.105,33.012c-0.502,0.461-0.974,0.893-1.406,1.293c-0.405,0.374-0.734,0.703-0.733,0.734
			c0.001,0.019,0.001,0.036,0.001,0.057c0,0,0,0.271,0,0.606c0,0.337,0.315,0.291,0.705-0.101c0.07-0.07,0.142-0.142,0.212-0.212
			c0.391-0.391,0.716-1.121,0.864-1.599c0.129-0.416,0.32-0.675,0.533-0.664c0.143,0.006,0.273-0.108,0.382-0.31
			C21.798,32.568,21.511,32.638,21.105,33.012z"/>
		<path d="M36.848,24.775c0.214-0.188,0.199-0.205-0.013-0.013C36.625,24.955,36.633,24.965,36.848,24.775z"/>
	</g>
</g>
<g>
</g>
<g>
</g>
<g>
</g>
<g>
</g>
<g>
</g>
<g>
</g>
<g>
</g>
<g>
</g>
<g>
</g>
<g>
</g>
<g>
</g>
<g>
</g>
<g>
</g>
<g>
</g>
<g>
</g>
</svg>
