<?xml version="1.0" encoding="iso-8859-1"?>
<!-- Generator: Adobe Illustrator 16.0.0, SVG Export Plug-In . SVG Version: 6.00 Build 0)  -->
<!DOCTYPE svg PUBLIC "-//W3C//DTD SVG 1.1//EN" "http://www.w3.org/Graphics/SVG/1.1/DTD/svg11.dtd">
<svg version="1.1" id="Capa_1" xmlns="http://www.w3.org/2000/svg" xmlns:xlink="http://www.w3.org/1999/xlink" x="0px" y="0px"
	 width="43.445px" height="43.445px" viewBox="0 0 43.445 43.445" style="enable-background:new 0 0 43.445 43.445;"
	 xml:space="preserve">
<g>
	<g>
		<path d="M38.275,0c-6.672,0-13.346,0-20.018,0c-3.953,0-7.906,0-11.859,0c-2.066,0-4,0.236-4.425,2.608
			c-0.002,0.01,0.001,0.018,0.004,0.025C1.983,2.646,1.981,2.672,1.974,2.69C1.97,2.701,1.966,2.711,1.967,2.723
			C3.023,14.158,4.079,25.594,5.135,37.03c0.416,4.508,10.488,5.193,13.807,6.086c5.015,1.35,11.581-1.811,16.331-3.09
			c4.235-1.141,3.459-7.28,3.77-10.641c0.693-7.515,1.387-15.029,2.081-22.543C41.405,3.765,42.563,0,38.275,0z M3.956,2.844
			C3.927,2.529,3.954,1.788,4.332,1.385C4.646,1.05,5.09,0.888,5.598,0.821c0.548-0.072,0.684,0.285,0.295,0.678
			C5.504,1.892,5.11,2.292,4.709,2.7C4.323,3.094,3.986,3.158,3.956,2.844z M38.51,14.609c-0.631,6.832-1.261,13.665-1.892,20.497
			c-0.198,2.148-0.463,3.832-2.919,4.492c-3.241,0.873-6.482,1.746-9.723,2.619c-0.745,0.2-1.548,0.256-2.382,0.211
			c-0.552-0.031-0.923-0.172-0.833-0.266c0.09-0.093,0.193-0.217,0.281-0.312c0.087-0.094-0.246-0.28-0.745-0.414
			c-0.499-0.135-1.07-0.074-1.276,0.133s-0.809,0.27-1.341,0.119c-0.201-0.055-0.401-0.114-0.6-0.174
			c-0.529-0.158-0.803-0.455-0.615-0.656c0.188-0.2-0.092-0.479-0.626-0.623l-0.471-0.127c-0.534-0.145-1.11-0.121-1.289,0.051
			c-0.178,0.171-0.511,0.253-0.744,0.186c-0.143-0.041-0.283-0.08-0.42-0.117c-0.464-0.125-0.971-0.235-1.486-0.357
			c-0.538-0.127-0.778-0.439-0.543-0.674c0.234-0.235,0.2-0.598-0.024-0.857c-0.225-0.262-0.673-0.223-1.061,0.133
			c-0.388,0.355-1.118,0.463-1.548,0.117c-0.371-0.3-0.678-0.668-0.892-1.127c-0.233-0.501,0.033-1.275,0.421-1.669
			c0.458-0.464,0.916-0.928,1.375-1.396c0.388-0.393,0.694-0.801,0.684-0.911c-0.01-0.111-0.347,0.104-0.752,0.479
			c-0.449,0.416-0.898,0.832-1.348,1.248c-0.405,0.375-0.77,0.283-0.815-0.205s0.25-1.187,0.658-1.56
			c0.447-0.408,0.893-0.815,1.34-1.226c0.407-0.373,0.706-1.021,0.667-1.447c-0.04-0.426-0.398-0.469-0.802-0.092
			c-0.451,0.42-0.901,0.84-1.351,1.262c-0.404,0.377-0.772,0.236-0.823-0.312c-0.076-0.82-0.151-1.642-0.227-2.461
			c-0.051-0.551,0.219-1.318,0.603-1.715c0.466-0.48,0.932-0.961,1.397-1.439c0.385-0.396,0.671-1.004,0.638-1.358
			s-0.376-0.327-0.768,0.063c-0.465,0.463-0.924,0.918-1.38,1.373c-0.392,0.39-0.75,0.26-0.802-0.291
			c-0.01-0.107-0.019-0.213-0.029-0.32c-0.051-0.551-0.024-1.064,0.061-1.146c0.05-0.052,0.101-0.103,0.152-0.152
			c0.117-0.129,0.234-0.258,0.352-0.385c0.194-0.213,0.125-0.166-0.156,0.104c-0.281,0.271-0.535,0.208-0.567-0.142
			c-0.032-0.351,0.261-0.949,0.654-1.336c0.459-0.454,0.917-0.906,1.376-1.358c0.393-0.388,0.682-1.02,0.646-1.411
			c-0.036-0.392-0.377-0.388-0.762,0.009c-0.466,0.481-0.932,0.961-1.398,1.442c-0.384,0.397-0.729,0.354-0.771-0.098
			s0.236-1.138,0.621-1.534c0.472-0.486,0.939-0.965,1.396-1.435c0.385-0.396,0.659-1.145,0.61-1.673
			c-0.049-0.528-0.407-0.643-0.8-0.255c-0.457,0.45-0.917,0.903-1.376,1.357c-0.393,0.388-0.753,0.256-0.804-0.293
			c-0.026-0.284-0.053-0.568-0.079-0.852c-0.051-0.55,0.231-1.306,0.629-1.688c0.456-0.438,0.912-0.877,1.367-1.318
			c0.397-0.384,0.702-0.87,0.682-1.084c-0.02-0.214-0.351-0.07-0.739,0.322c-0.463,0.468-0.926,0.936-1.389,1.404
			c-0.389,0.393-0.744,0.266-0.794-0.284c-0.018-0.192-0.036-0.384-0.053-0.576c-0.051-0.55,0.221-1.315,0.609-1.708
			c0.464-0.471,0.928-0.942,1.391-1.412c0.388-0.394,0.677-0.984,0.646-1.319C7.521,8.328,7.174,8.367,6.777,8.751
			c-0.404,0.391-0.863,0.834-1.368,1.323c-0.397,0.384-0.407,0.375-0.017-0.017c0.486-0.489,0.954-0.949,1.38-1.366
			C7.168,8.306,7.161,8.297,6.76,8.676C6.311,9.101,5.857,9.54,5.399,9.986C5.003,10.371,4.645,10.281,4.6,9.784
			C4.555,9.286,4.838,8.571,5.233,8.186c0.455-0.442,0.911-0.887,1.372-1.335C7,6.465,7.29,5.818,7.251,5.405
			C7.213,4.991,6.864,4.971,6.472,5.36c-0.46,0.457-0.92,0.913-1.379,1.37C4.701,7.119,4.342,6.989,4.291,6.439
			C4.286,6.381,4.28,6.323,4.275,6.265c-0.051-0.55,0.231-1.306,0.63-1.688C5.363,4.138,5.819,3.701,6.269,3.27
			c0.398-0.382,0.72-0.708,0.718-0.728S6.659,2.815,6.261,3.198C5.815,3.625,5.36,4.061,4.898,4.504
			C4.5,4.886,4.142,4.827,4.1,4.372C4.058,3.916,4.347,3.238,4.746,2.856c0.476-0.457,0.95-0.911,1.422-1.362
			c0.399-0.382,1.17-0.658,1.72-0.61c0.373,0.032,0.734,0.06,1.065,0.06c3.483,0,6.967,0,10.45,0c6.131,0,12.262,0,18.393,0
			C41.217,0.946,38.676,12.811,38.51,14.609z"/>
		<path d="M35.061,13.146c-0.397,0.384-0.565,0.629-0.376,0.548c0.189-0.081,0.678-0.443,1.092-0.809
			c0.126-0.112,0.253-0.224,0.379-0.336c0.414-0.365,0.857-0.845,0.956-1.085c0.097-0.24-0.177-0.133-0.574,0.252
			C36.045,12.194,35.552,12.67,35.061,13.146z"/>
		<path d="M33.37,23.631c0.079-0.546,0.431-1.321,0.808-1.724c0.565-0.605,1.128-1.21,1.687-1.808
			c0.377-0.404,0.696-1.018,0.589-1.343c-0.107-0.325-0.608-0.229-1.001,0.16c-0.386,0.382-0.773,0.767-1.16,1.151
			c-0.392,0.389-0.711,0.254-0.805-0.29c-0.218-1.261-0.827-2.213-2.174-2.386c-1.426-0.183-3.007-0.01-4.442-0.011
			c-0.329,0-0.657,0.01-0.961,0.021c-0.53,0.02-0.741-0.175-0.471-0.427c0.271-0.251,0.901-0.631,1.409-0.849
			c1.594-0.681,3.187-1.363,4.779-2.044c0.158-0.067,0.276-0.133,0.363-0.196c0.04-0.025,0.072-0.048,0.1-0.069
			c0.055-0.04-0.224,0.238-0.619,0.625c-0.142,0.138-0.282,0.277-0.424,0.415c-0.395,0.386-0.683,0.685-0.642,0.667
			c0.041-0.018,0.394-0.346,0.788-0.733c0.552-0.543,1.071-1.056,1.533-1.512c0.032-0.032,0.065-0.064,0.098-0.097
			c1.259-1.244,2.035-2.021,1.676-1.701c-0.214,0.209-0.426,0.416-0.637,0.623c-0.353,0.343-0.345,0.277-0.077-0.206
			c0.359-0.646,0.567-1.332,0.525-1.96c-0.036-0.551-0.056-1.169,0.241-1.446c0.298-0.276,0.12-0.5-0.395-0.5
			s-0.974,0.039-1.025,0.086c-0.051,0.047-0.238,0.011-0.428-0.062c-0.109-0.042-0.224-0.081-0.349-0.115
			c-2.694-0.746-6.414-0.049-9.201-0.049c-3.816,0-11.161-1.688-13.96,1.479c-1.544,1.748,1.166,4.125,2.795,4.125
			c2.385,0,4.77,0,7.154,0c0.553,0,0.742,0.107,0.424,0.239c-0.192,0.08-0.383,0.16-0.575,0.24c-1.955,0.814-3.909,1.627-5.863,2.44
			c-3.087,1.285-3.349,3.104-3.027,6.298c0.022,0.215,0.438,0.213,0.57,0.215c4.168,0.014,8.336,0.026,12.502,0.041
			c2.441,0.008,3.235,1.248,3.084,3.764c-0.128,2.143-2.397,2.587-4.354,2.523c-0.552-0.019-0.848-0.224-0.665-0.406
			c0.183-0.185,0.206-0.422,0.063-0.547c-0.142-0.125-0.483-0.022-0.779,0.248c-0.295,0.27-0.628,0.471-0.743,0.445
			c-0.074-0.016-0.143-0.031-0.206-0.048c-0.363-0.093-0.667-0.267-0.931-0.495c-0.417-0.361-0.326-1.062,0.076-1.441
			c0.211-0.199,0.423-0.398,0.633-0.598c0.401-0.379,0.717-0.701,0.704-0.72c-0.012-0.019-0.343,0.28-0.738,0.665
			c-0.209,0.205-0.418,0.408-0.627,0.613c-0.395,0.387-0.961,0.326-1.235-0.154c-0.131-0.229-0.26-0.461-0.395-0.684
			c-0.285-0.474-0.423-0.955-0.246-1.119c0.177-0.164,0.107-0.273-0.133-0.172c-0.24,0.101-0.439,0.201-0.476,0.157
			c-0.022-0.026-0.045-0.052-0.071-0.073c-1.619-1.414-5.747,0.039-5.548,2.349c0.178,2.071,0.093,3.739,1.443,5.394
			c1.043,1.278,4.335,1.579,5.746,1.997c2.745,0.812,5.078,0.513,7.542-0.118c0.535-0.138,0.915-0.209,0.851-0.145
			c-0.062,0.064,0.255,0.111,0.708,0.054c0.293-0.036,0.569-0.09,0.811-0.161c0,0,0.208-0.061,0.464-0.135s0.603-0.279,0.772-0.455
			c0.171-0.176,0.733-0.47,1.216-0.738c0.892-0.494,1.468-1.105,1.854-1.867c0.25-0.491,0.677-1.25,1.062-1.646
			c0.718-0.737,1.445-1.483,2.186-2.243c0.386-0.396,0.737-1.162,0.785-1.712l0.012-0.134c0.048-0.551-0.229-0.68-0.617-0.287
			c-0.65,0.656-1.293,1.303-1.93,1.943c-0.389,0.393-0.686,0.525-0.663,0.298c0.013-0.136,0.025-0.272,0.038-0.414
			c0.012-0.131,0.029-0.278,0.051-0.437c0.033-0.24,0.38-0.75,0.769-1.144c0.639-0.646,1.268-1.278,1.879-1.897
			c0.389-0.393,0.719-0.881,0.736-1.092c0.02-0.212-0.272-0.058-0.651,0.344c-0.633,0.672-1.257,1.334-1.875,1.989
			c-0.379,0.402-0.609,0.287-0.521-0.259C33.295,24.129,33.333,23.883,33.37,23.631z M31.117,25.231
			c-0.152,1.746-0.304,3.492-0.456,5.238c-0.227,2.607-4.621,3-6.484,3.543c-2.748,0.803-5.592-0.457-8.191-1.227
			c-3.025-0.895-3.195-2.956-3.433-5.727c-0.326-3.805,3.979,2.318,5.466,2.695c1.867,0.471,3.552,0.539,5.46,0.221
			c3.224-0.539,4.616-2.096,4.811-5.33c0.2-3.329-3.693-2.661-5.869-2.668c-2.502-0.008-5.004-0.016-7.506-0.024
			c-0.905-0.003-1.81-0.006-2.715-0.009c-0.959-0.003-0.179,0.055-0.282-1.144c-0.399-4.668,7.201-5.978,10.507-7.368
			c0.246-0.104,0.607-0.26,0.607-0.572c0-0.045,0-0.09,0-0.136c0-0.211-0.457-0.214-0.57-0.214c-2.711,0-5.423,0-8.135,0
			c-0.514,0-1.027,0-1.541,0c-1.872,0-2.292-3.713-1.376-3.713c1.637,0,3.274,0,4.911,0c2.25,0,4.5,0,6.75,0
			c1.854,0,3.709,0,5.562,0c2.631,0,5.247,1.751,2.795,4.122c-0.396,0.384-1.181,0.811-1.694,1.012
			c-2.6,1.011-5.479,1.914-7.627,3.591c-0.17,0.133-0.349,0.434-0.022,0.521c2.227,0.593,4.643,0.285,6.931,0.286
			C32.795,18.329,31.291,23.237,31.117,25.231z"/>
		<path d="M35.873,10.536c-0.4,0.38-0.405,0.376-0.008-0.008c0.245-0.237,0.479-0.464,0.705-0.684
			c0.396-0.385,0.702-0.737,0.681-0.784c-0.021-0.047-0.362,0.226-0.759,0.61c-1.771,1.711-3.523,3.414-5.261,5.11
			c-0.396,0.386-0.588,0.644-0.431,0.576c0.158-0.068,0.61-0.432,1.01-0.814c1.085-1.037,2.124-2.032,3.111-2.981
			c0.504-0.49,1.07-1.04,1.681-1.633c0.395-0.385,0.712-0.712,0.705-0.729c-0.006-0.017-0.333,0.282-0.73,0.664
			C36.339,10.091,36.105,10.315,35.873,10.536z"/>
		<path d="M34.344,31.789c-0.386,0.396-0.261,0.572,0.162,0.218c0.183-0.152,0.35-0.326,0.496-0.517
			c0.338-0.437,0.17-0.55-0.216-0.154C34.638,31.488,34.492,31.639,34.344,31.789z"/>
	</g>
</g>
<g>
</g>
<g>
</g>
<g>
</g>
<g>
</g>
<g>
</g>
<g>
</g>
<g>
</g>
<g>
</g>
<g>
</g>
<g>
</g>
<g>
</g>
<g>
</g>
<g>
</g>
<g>
</g>
<g>
</g>
</svg>
