<?xml version="1.0" encoding="iso-8859-1"?>
<!-- Generator: Adobe Illustrator 16.0.0, SVG Export Plug-In . SVG Version: 6.00 Build 0)  -->
<!DOCTYPE svg PUBLIC "-//W3C//DTD SVG 1.1//EN" "http://www.w3.org/Graphics/SVG/1.1/DTD/svg11.dtd">
<svg version="1.1" id="Capa_1" xmlns="http://www.w3.org/2000/svg" xmlns:xlink="http://www.w3.org/1999/xlink" x="0px" y="0px"
	 width="48.766px" height="48.765px" viewBox="0 0 48.766 48.765" style="enable-background:new 0 0 48.766 48.765;"
	 xml:space="preserve">
<g>
	<g>
		<path d="M3.565,39.162c0.226,0.168,0.501,0.354,0.742,0.489c0.295,0.157,0.569,0.283,0.843,0.395
			c0.551,0.224,1.106,0.399,1.66,0.555c1.108,0.31,2.212,0.538,3.322,0.747c0.281-0.181,0.404-0.366,0.406-0.555
			c1.216,0.171,2.482,0.22,3.428,0.22h24.996c1.791,0,4.484-0.767,5.81-1.971c3.113-2.83,7.125-8.344,0.081-14.147
			c-1.382-1.138-2.731-3.326-3.218-5.05c-0.751-2.662-2.487-6.268-6.438-7.909c-0.427-0.677-0.953-1.357-1.627-1.966
			c-1.183-1.085-2.754-1.888-4.263-2.178c-0.484,0.053,0.768,0.518-0.022,0.498c-0.288-0.156-0.601-0.273-0.932-0.391l0.193,0.024
			c-0.577-0.196-0.975-0.302-1.481-0.387c-0.482-0.081-0.978-0.119-1.471-0.117c-0.986,0.002-1.965,0.173-2.805,0.447
			c-1.698,0.554-2.737,1.508-2.647,1.85c1.255-0.699,2.662-1.091,4.057-1.213c1.418-0.117,2.743-0.008,4.182,0.381L28.276,8.87
			c1.185,0.268,2.33,0.706,3.367,1.294c-1.047-0.524-2.206-0.879-3.387-1.039l0.081,0.01C27.089,8.886,25.935,8.866,24.715,9
			c-1.204,0.139-2.411,0.464-3.544,1c-1.136,0.529-2.179,1.288-3.058,2.194c-0.437,0.441-0.855,1.03-1.095,1.267
			c-0.29,0.289-0.651,0.539-1.059,0.712c-0.408,0.178-0.865,0.291-1.347,0.34c-0.503,0.067-0.906,0.007-1.646,0.016
			c-0.65,0.019-1.29,0.118-1.903,0.281c-0.306,0.082-0.607,0.179-0.9,0.288l-0.435,0.174c-0.161,0.064-0.35,0.163-0.485,0.247
			c-1.164,0.698-1.977,1.842-2.429,2.95c-0.44,0.972-1.072,1.903-1.806,2.722c-0.37,0.408-0.77,0.789-1.201,1.125
			c-0.435,0.315-0.956,0.697-1.363,1.125c-0.844,0.856-1.456,1.907-1.833,3.014c-0.376,1.111-0.502,2.276-0.575,3.41
			c-0.06,1.142-0.059,2.281,0.113,3.421C0.487,35.542,1.628,37.761,3.565,39.162z M15.815,16.584
			c1.161-0.333,2.272-1.023,3.007-1.994c0.945-0.386,2.158-1.288,3.682-1.937c1.486-0.677,3.228-1.065,4.299-1.473
			c0.075-0.266-0.822-0.322-1.717-0.21c-0.896,0.095-1.752,0.374-1.769,0.166c0.899-0.817,2.928-1.155,4.814-0.801h0.001
			l0.029,0.003c0.998,0.122,1.969,0.384,2.832,0.692c-1.648-0.12-6.261-0.059-9.377,3.871c-1.113,1.402-2.853,1.859-4.636,1.693
			c-0.383-0.036-0.809-0.028-1.255,0.009C15.755,16.596,15.786,16.592,15.815,16.584z M2.057,32.102
			c-0.118-1.015-0.169-2.117-0.18-3.161c0.193-0.229,0.332-0.108,0.495-0.137c0.082-0.013,0.166-0.063,0.271-0.198
			c0.053-0.066,0.105-0.162,0.172-0.272c0.064-0.123,0.137-0.252,0.204-0.356c0.24-0.698,0.52-1.233,0.876-1.743
			c0.177-0.25,0.372-0.483,0.59-0.701c0.107-0.111,0.225-0.213,0.343-0.317c0.065-0.051,0.065-0.062,0.166-0.136l0.299-0.219
			c1.041-0.76,1.85-1.632,2.551-2.583c0.348-0.477,0.665-0.975,0.95-1.5c0.142-0.262,0.273-0.525,0.417-0.84
			c0.108-0.255,0.214-0.517,0.256-0.644c0.217-0.599,0.62-1.164,1.068-1.517l0.047-0.04c-0.02-0.051-0.072-0.189-0.203-0.535
			l0.038,0.097l0.078,0.193l0.082,0.192c0.012,0.028,0.013,0.028,0.015,0.03l0.07-0.035l0.275-0.138
			c0.185-0.089,0.372-0.171,0.561-0.242c0.379-0.146,0.766-0.253,1.16-0.323c0.19-0.035,0.411-0.057,0.578-0.072
			c0.213-0.013,0.514-0.003,0.814-0.024c0.08-0.005,0.16-0.019,0.241-0.026c-0.293,0.08-0.591,0.17-0.902,0.29
			c0,0-1.547,0.557-2.497,2.516c-0.781,1.611-2.224,3.305-3.729,4.275C5.989,24.693,4.771,25.943,4.124,28
			c-0.537,1.708-0.665,4.663-0.324,6.422c0.216,1.107,0.654,2.345,1.471,3.46c-0.063-0.042-0.134-0.081-0.191-0.124
			c-0.308-0.227-0.641-0.515-0.921-0.812c-0.58-0.599-1.046-1.307-1.396-2.128C2.411,33.999,2.172,33.076,2.057,32.102z"/>
		<path d="M10.584,17.737l0.013-0.011c0.001-0.002,0.015-0.01,0.001-0.006c-0.005-0.01-0.004-0.002-0.006-0.005l-0.011,0.006
			C10.545,17.629,10.568,17.692,10.584,17.737z"/>
		<path d="M10.584,17.737L10.584,17.737C10.598,17.779,10.595,17.767,10.584,17.737z"/>
	</g>
</g>
<g>
</g>
<g>
</g>
<g>
</g>
<g>
</g>
<g>
</g>
<g>
</g>
<g>
</g>
<g>
</g>
<g>
</g>
<g>
</g>
<g>
</g>
<g>
</g>
<g>
</g>
<g>
</g>
<g>
</g>
</svg>
