<?xml version="1.0" encoding="iso-8859-1"?>
<!-- Generator: Adobe Illustrator 16.0.0, SVG Export Plug-In . SVG Version: 6.00 Build 0)  -->
<!DOCTYPE svg PUBLIC "-//W3C//DTD SVG 1.1//EN" "http://www.w3.org/Graphics/SVG/1.1/DTD/svg11.dtd">
<svg version="1.1" id="Capa_1" xmlns="http://www.w3.org/2000/svg" xmlns:xlink="http://www.w3.org/1999/xlink" x="0px" y="0px"
	 width="42.401px" height="42.401px" viewBox="0 0 42.401 42.401" style="enable-background:new 0 0 42.401 42.401;"
	 xml:space="preserve">
<g>
	<g>
		<path d="M8.738,11.144c-4.586,0.146-9.433,2.359-8.655,7.882c0.148,1.047,1.183,2.229,2.033,2.749
			c2.041,1.25,2.875,0.523,1.073,2.516c-1.465,1.619-0.9,4.49,0.954,5.539c1.087,0.615,5.204,0.725,4.534,1.984
			c-1.255,2.359-0.28,4.857,1.316,6.691c3.158,3.631,9.286,2.31,12.076-1.121c0.35-0.428,0.955-0.58,1.427-0.293
			c1.479,0.898,2.981,1.652,4.904,0.812c2.858-1.251,2.982-2.774,3.454-4.958c0.117-0.539,0.674-0.902,1.218-0.805
			c1.871,0.333,3.626,0.65,5.548-0.541c2.144-1.327,3.574-3.096,3.773-5.576c0.044-0.55-0.072-1.439-0.244-1.964
			c-0.478-1.463-1.264-2.474-2.522-3.586c-1.288-1.139-0.916-0.817,0.454-2.059c0.711-0.644,1.024-1.458,1.361-2.303
			c1.541-3.87-3.429-5.741-6.312-5.473c-1.517,0.141-0.621-3.92-1.526-5.332c-1.563-2.438-3.676-3.18-6.443-3.522
			c-2.705-0.334-5.21,0.969-6.767,2.96c-0.34,0.436-0.883,0.508-1.291,0.136c-0.911-0.829-1.999-1.717-2.394-1.899
			c-0.948-0.436-2.666-0.474-3.635-0.146c-1.69,0.571-2.583,1.213-3.621,2.737C9.067,6.138,8.7,7.616,8.807,8.341
			c0.01,0.064,0.322,0.966,0.618,1.852C9.6,10.718,9.289,11.126,8.738,11.144z M3.196,19.986c-0.138,0.142-0.445,0.045-0.635-0.255
			c-0.19-0.3-0.184-0.685-0.047-0.827c0.138-0.142,0.339,0.021,0.53,0.321C3.236,19.526,3.334,19.844,3.196,19.986z M10.399,33.968
			c-0.009,0.009-0.014-0.004-0.022-0.002C10.413,33.945,10.451,33.921,10.399,33.968z M12.298,37.71
			c-0.113,0.109-0.448,0.01-0.721-0.252c-0.167-0.158-0.324-0.324-0.469-0.498c-0.199-0.237-0.359-0.471-0.487-0.701
			c-0.229-0.414-0.242-0.873-0.139-0.977s0.251,0.268,0.513,0.754c0.18,0.332,0.417,0.629,0.699,0.891
			C12.1,37.3,12.412,37.601,12.298,37.71z M12.819,35.157c-0.466-0.888-0.233-2.256,0.189-3.143c0.6-1.258,2.356-2.602,3.334-3.659
			c0.399-0.433,0.796-0.847,1.216-1.261c0.934-0.92,1.265,2.053,1.357,2.566c0.296,1.784,0.712,4.4-0.173,6.065
			C17.402,38.247,13.89,37.191,12.819,35.157z M19.804,38.106c-1.357,1.344-3.192,1.609-4.918,1.184
			c-0.536-0.133-0.876-0.391-0.784-0.488c0.092-0.1,0.039-0.28-0.109-0.416c-0.115-0.105-0.205-0.195-0.258-0.256
			c0,0-0.028-0.032-0.063-0.072s0.365,0.066,0.911,0.146c1.017,0.147,2.063,0.059,2.919-0.283c0.305-0.123,0.594-0.248,0.867-0.385
			c0.469-0.232,0.669-0.32,0.481-0.131c-0.188,0.19,0.109,0.355,0.647,0.24C20.034,37.528,20.196,37.718,19.804,38.106z
			 M22.125,34.103c-0.303,0.307-0.604,0.609-0.904,0.911c-0.389,0.392-0.555,0.489-0.408,0.2c0.086-0.168,0.165-0.348,0.237-0.539
			c0.067-0.178,0.117-0.377,0.153-0.59c0.056-0.334,0.317-0.86,0.626-1.172c0.309-0.312,0.641-0.326,0.762-0.037
			C22.712,33.167,22.514,33.71,22.125,34.103z M21.522,30.872c0.196-0.211,0.436,0.004,0.56,0.473
			c0.125,0.468,0.015,1.09-0.276,1.396c-0.291,0.305-0.51,0.106-0.542-0.445c-0.001-0.018-0.002-0.033-0.003-0.049
			C21.226,31.694,21.326,31.081,21.522,30.872z M26.733,37.014c-0.542-0.106-0.864-0.353-0.734-0.484
			c0.129-0.131,0.166-0.288,0.08-0.353c-0.084-0.062-0.292-0.006-0.453,0.148c-0.161,0.153-0.7,0.104-1.134-0.238
			c-0.477-0.379-0.899-0.816-1.46-1.084c-0.023-0.01-0.05-0.021-0.077-0.027c-0.043-0.014-0.064-0.057-0.05-0.1
			c0.012-0.03,0.02-0.058,0.025-0.078c0.021-0.077,0.041-0.28,0.055-0.541c0.016-0.301,0.231-0.147,0.592,0.271
			c0.491,0.567,1.113,1.002,1.917,1.22c1.866,0.506,3.561-0.414,4.123-2.08c0.178-0.522,0.287-1.074,0.407-1.191
			c0.12-0.118,0.19,0.234,0.181,0.785C30.171,35.3,30.161,37.689,26.733,37.014z M23.382,26.776c0.84,0.4,1.622,1.406,2.267,2.072
			c0.928,0.959,1.701,1.927,2.05,3.148c0.151,0.531,0.184,1.437,0.056,1.975c-0.113,0.474-0.33,0.886-0.761,0.814
			c-1.202-0.201-1.899-1.277-2.395-2.27c-0.617-1.236-0.828-2.688-1.087-4.032C23.423,28.023,23.33,26.751,23.382,26.776z
			 M39.308,23.151c0.083-0.084,0.4,0.223,0.628,0.725c0.102,0.227,0.194,0.461,0.276,0.703c0.177,0.523,0.265,0.996,0.263,1.032
			c-0.002,0.038-0.153,0.212-0.338,0.392c-0.186,0.178-0.256-0.123-0.295-0.674c-0.034-0.486-0.146-0.996-0.351-1.523
			c-0.005-0.016-0.016-0.025-0.025-0.035c-0.019-0.018-0.035-0.043-0.036-0.059c0-0.008-0.002-0.017-0.007-0.025
			c-0.042-0.066-0.085-0.131-0.129-0.193C39.22,23.389,39.224,23.236,39.308,23.151z M31.886,6.956
			c0.127-0.118,0.378,0.219,0.387,0.771c0.007,0.405-0.05,0.802-0.125,1.198c-0.104,0.542-0.525,1.29-0.922,1.674
			c-0.095,0.092-0.19,0.185-0.285,0.277c-0.396,0.384-0.672,0.631-0.615,0.55c0.058-0.081,0.128-0.174,0.159-0.209
			c0.031-0.035,0.231-0.367,0.489-0.856c0.381-0.726,0.646-1.473,0.719-2.196C31.745,7.616,31.759,7.074,31.886,6.956z
			 M31.48,10.605c-0.224,0.213-0.227,0.209-0.003-0.004C31.7,10.388,31.704,10.393,31.48,10.605z M18.14,6.543
			c0.107-0.12,0.384,0.178,0.717,0.597c0.181,0.227,0.414,0.378,0.852,0.378c0.453,0,1.178-0.172,1.342-0.667
			c0.815-2.468,2.479-3.61,4.287-3.856c0.547-0.074,0.978-0.027,0.952-0.003c-0.025,0.024-0.004,0.023,0.052,0.002
			c0.055-0.022,0.548-0.021,1.089,0.091c1.273,0.265,2.488,0.893,3.397,1.749c0.403,0.378,0.588,0.826,0.483,0.925
			c-0.104,0.099-0.364-0.07-0.635-0.323c-0.271-0.253-0.456-0.482-0.37-0.562s-0.052-0.202-0.315-0.244
			c-0.262-0.042-0.487-0.041-0.499-0.029c-0.011,0.012-0.071-0.006-0.136-0.041C29.319,4.54,29.282,4.52,29.24,4.5
			c-3.68-1.666-7.99,0.756-7.941,4.755c0.01,0.414,0,1.132,0.012,1.965c0.008,0.552-0.276,1.297-0.651,1.661
			c-0.374,0.364-0.747,0.295-0.849-0.144c-0.102-0.44,0.139-1.099,0.546-1.471c0.025-0.022,0.049-0.044,0.073-0.067
			c0.408-0.372,0.727-0.729,0.715-0.797c-0.013-0.068-0.336,0.197-0.724,0.59c-0.041,0.042-0.083,0.084-0.124,0.126
			c-0.388,0.393-0.723,0.622-0.748,0.511c-0.016-0.07-0.03-0.138-0.042-0.201c-0.034-0.178-0.067-0.352-0.102-0.524
			c-0.057-0.289,0.206-0.843,0.592-1.238c0.03-0.031,0.061-0.062,0.091-0.093c0.386-0.396,0.685-0.76,0.67-0.817
			c-0.009-0.035-0.018-0.069-0.03-0.101c-0.016-0.043-0.038-0.085-0.061-0.127C20.63,8.46,20.278,8.713,19.88,9.097
			c-0.001,0.001-0.002,0.002-0.004,0.003c-0.397,0.383-0.817,0.259-0.983-0.268c-0.204-0.646-0.468-1.28-0.85-1.93
			c-0.015-0.026-0.032-0.049-0.049-0.071C17.967,6.792,18.033,6.664,18.14,6.543z M29.433,10.224
			c-0.809,1.567-2.284,2.877-3.46,4.19c-0.112,0.125-1.405,1.634-1.457,1.604c-0.968-0.556-0.863-2.125-0.959-3.108
			c-0.135-1.392-0.294-2.773-0.326-4.17C23.159,3.032,31.958,5.329,29.433,10.224z M20.175,14.166c-0.052,0.05-0.053,0.046,0-0.003
			C20.227,14.114,20.227,14.116,20.175,14.166z M17.476,13.957c-0.503-0.531-0.962-1.078-1.285-1.399
			c-0.98-0.975-1.849-1.786-2.435-2.931c-0.252-0.491-0.443-1.368-0.442-1.92c0.001-0.861,0.156-1.925,0.94-1.662
			c0.879,0.295,1.463,0.897,1.997,1.613c0.559,0.75,0.82,1.628,0.991,2.528c0.122,0.641,0.596,2.139,0.828,3.478
			C18.163,14.207,17.856,14.356,17.476,13.957z M11.642,6.19c2.151-1.656,3.91-2.086,5.276-1.296
			c0.478,0.276,0.701,0.598,0.605,0.569c-0.095-0.029-0.239,0.019-0.321,0.104c-0.083,0.084-0.489-0.15-0.992-0.378
			c-1.756-0.792-3.813,0.016-4.543,1.826c-0.206,0.512-0.384,1.103-0.556,1.272s-0.36-0.091-0.34-0.581
			C10.792,7.216,11.205,6.527,11.642,6.19z M11.459,10.027c0.116-0.12,0.301,0,0.438,0.257c0.137,0.257,0.174,0.548,0.063,0.663
			c-0.111,0.114-0.334,0.014-0.477-0.237C11.341,10.459,11.342,10.147,11.459,10.027z M11.198,10.124
			c-0.015-0.038,0.069-0.165,0.187-0.284c0.117-0.119,0.223-0.185,0.237-0.149c0.013,0.037-0.068,0.162-0.185,0.282
			C11.321,10.093,11.213,10.162,11.198,10.124z M10.33,12.353c0.55,0.086,1.307-0.1,1.558-0.645
			c0.019-0.042,0.032-0.078,0.039-0.112c0.013-0.064,0.158-0.105,0.349-0.085c0.114,0.012,0.228,0.026,0.343,0.048
			c0,0,0.028,0.008,0.077,0.022c0.043,0.012,0.363,0.37,0.744,0.769c0.387,0.406,0.802,0.807,1.23,1.234
			c0.965,0.961,2.207,2.665,3.62,2.878c0.495,0.075,1.184-0.066,1.491-0.504c0.16-0.228,0.25-0.504,0.292-0.81
			c0.065-0.476,0.307-1.126,0.666-1.452c0.359-0.326,0.672-0.213,0.728,0.25c0.055,0.463-0.045,0.993-0.256,1.188
			c-0.21,0.195-0.201,0.497,0.044,0.64c0.217,0.127,0.386,0.19,0.475,0.164c0.03-0.009,0.057-0.033,0.08-0.068
			c0.032-0.05,0.126,0.169,0.306,0.45c0.122,0.191,0.265,0.335,0.429,0.416c2.46,1.209,4.194-0.895,5.736-2.783
			c0.351-0.428,0.962-1.081,1.361-1.463c0.412-0.396,0.818-0.784,1.209-1.16c0.162-0.157,0.332-0.322,0.508-0.493
			c0.281-0.273,0.461-0.223,0.444,0.116c-0.01,0.202-0.008,0.407,0.012,0.616c0.015,0.152,0.253,0.25,0.374,0.264
			c2.315,0.286,4.913-1.077,6.698,1.357c0.327,0.445,0.433,0.943,0.334,1.05c-0.101,0.106-0.386-0.22-0.808-0.578
			c-0.286-0.245-0.618-0.44-0.935-0.568c-1.479-0.599-3.384-0.24-4.775,0.407c-2.552,1.188-5.065,3.29-7.264,5.042
			c-0.07,0.056-0.121,0.107-0.156,0.154c-0.071,0.098-0.059,0.754,0.466,0.93c1.393,0.469,5.065-0.233,5.699-0.305
			c0.856-0.097,1.753-0.206,2.63-0.386c0.541-0.11,1.184-0.245,1.444-0.273c0.261-0.027,0.561-0.141,0.668-0.25
			c0.107-0.108,0.608-0.375,1.071-0.676c0.716-0.467,1.331-1.087,1.774-1.935c0.036-0.068,0.065-0.137,0.089-0.204
			c0.041-0.116,0.169-0.326,0.304-0.464c0.136-0.138,0.341,0.206,0.204,0.742c-0.034,0.131-0.078,0.259-0.131,0.384
			c-0.217,0.508-0.769,1.11-1.081,1.425c-0.313,0.315-0.528,0.558-0.483,0.538s-0.239,0.277-0.617,0.681
			c-0.38,0.407-0.716,0.818-0.922,1.254c-0.089,0.189-0.108,0.392,0.13,0.486c0.743,0.292,1.368,0.674,1.892,1.134
			c0.414,0.365,0.612,0.802,0.518,0.897c-0.095,0.098-0.483-0.153-0.956-0.439c-1.844-1.117-4.377-0.703-6.573-0.535
			c-1.431,0.11-3.091,0.059-4.476,0.467c-0.71,0.209-2.399,1.067-1.661,2.121c0.916,1.305,2.479,2.217,3.739,3.164
			c1.502,1.129,2.925,2.617,4.904,2.78c0.817,0.067,1.611-0.013,2.339-0.219c0.53-0.151,1.003-0.339,1.087-0.322
			c0.084,0.019,0.295-0.118,0.471-0.294c0.175-0.176,0.547-0.488,0.795-0.736c0.249-0.248,0.718-0.781,1.089-1.152
			c0.372-0.373,0.593-0.227,0.353,0.269c-1.295,2.671-5.307,3.199-8.315,2.972c-0.084-0.006-0.179,0-0.278,0.017
			c-0.151,0.022-0.287,0.03-0.305-0.005c-0.017-0.037-0.087-0.012-0.155,0.059c-0.066,0.069-0.268,0.188-0.409,0.316
			c-0.143,0.128-0.334,0.439-0.514,0.628c-0.179,0.188-0.391-0.108-0.569-0.63c-0.09-0.262-0.196-0.518-0.319-0.771
			c-0.243-0.496-0.308-1.062-0.073-1.304c0.235-0.242,0.212-0.665-0.059-0.94s-0.66-0.326-0.866-0.119
			c-0.206,0.209-0.529,0.199-0.729-0.013c-0.2-0.211-0.213-0.532-0.019-0.729c0.194-0.195,0.296-0.401,0.229-0.461
			c-0.068-0.059-0.277,0.057-0.464,0.254c-0.186,0.195-0.587,0.119-0.909-0.158c-0.323-0.275-0.59-0.493-0.579-0.504
			c0.01-0.012,0.004-0.016-0.014-0.01c-0.017,0.006-0.193-0.115-0.4-0.266c-0.127-0.092-0.253-0.182-0.378-0.268
			c-0.847-0.576-2.107-0.152-2.892,0.324c-0.487,0.295-0.633,0.822-0.637,1.381c-0.003,0.552-0.041,1.137-0.218,1.314
			s-0.392-0.119-0.485-0.664c-0.223-1.295-0.504-2.168-2.081-2.488c-1.243-0.252-2.461,0.865-3.21,1.677
			c-1.497,1.62-3.466,3.174-4.334,5.215c-0.216,0.508-0.475,1.101-0.667,1.3c-0.037,0.038-0.043,0.051-0.05,0.062
			c-0.068-0.049-0.08-0.355,0.039-0.789c0.277-1.012,0.743-2.016,0.888-3.069c0.032-0.231-0.159-0.373-0.374-0.401
			C10.09,29.6,9.283,29.654,8.48,29.644c-0.552-0.008-0.941-0.115-0.872-0.18c0.07-0.064-0.017-0.196-0.173-0.323
			c-0.097-0.079-0.183-0.164-0.259-0.257c0,0-0.103-0.125-0.229-0.278c-0.014-0.017-0.032-0.041-0.052-0.067
			c-0.028-0.039-0.22,0.092-0.431,0.287c-0.211,0.196-0.798,0.158-1.174-0.246c-0.36-0.39-0.618-0.867-0.862-1.396
			c-0.099-0.214-0.167-0.417-0.209-0.608c-0.075-0.348,0.265-0.961,0.649-1.357c0.336-0.348,0.672-0.693,1.007-1.035
			c0.374-0.387,0.746-0.77,1.117-1.152c0.385-0.396,0.534-0.76,0.337-0.826c-0.116-0.037-0.234-0.082-0.352-0.132
			c-0.041-0.018-0.081-0.038-0.12-0.06c-0.065-0.035-0.151-0.03-0.192,0.011c-0.041,0.04-0.121,0.03-0.191-0.004
			c-0.04-0.019-0.084-0.034-0.134-0.043c-0.658-0.123-1.234-0.306-1.735-0.537s-0.736-0.626-0.573-0.786
			c0.163-0.161,0.484-0.193,0.73-0.103c0.246,0.089,0.494,0.156,0.548,0.171c0.03,0.008,0.062,0.016,0.099,0.021
			c2.271,0.401,5.104-0.347,7.384-0.601c1.164-0.129,2.726-0.571,3.436-1.599c0.091-0.132,0.145-0.264,0.17-0.394
			c0.044-0.235,0.188-0.624,0.446-0.865c0.257-0.241,0.416-0.476,0.354-0.522c-0.037-0.028-0.075-0.055-0.115-0.082
			c0,0-0.05-0.034-0.113-0.075s-0.275,0.084-0.474,0.281c-0.199,0.197-0.631-0.007-1.062-0.353c-0.41-0.329-0.857-0.604-1.142-0.794
			c-0.023-0.015-0.045-0.03-0.067-0.045c-0.037-0.024,0.053-0.167,0.201-0.319c0.147-0.151,0.134-0.357-0.032-0.457
			s-0.424-0.063-0.573,0.079c-0.149,0.143-0.644,0.014-1.12-0.267c-0.287-0.169-0.571-0.327-0.853-0.472
			c-0.491-0.253-0.873-0.454-0.83-0.497c0.043-0.043,0.051-0.077,0.018-0.079c-0.021-0.001-0.04-0.002-0.06-0.001
			c-0.064,0-0.128,0.003-0.192,0.007c-0.106,0.007-0.61-0.146-1.15-0.265c-1.311-0.29-2.694-0.2-4.319,0.463
			c-0.918,0.375-1.621,0.983-2.083,1.688c-0.302,0.462-0.617,1.069-0.836,1.285c-0.219,0.215-0.359-0.061-0.182-0.584
			c0.506-1.502,1.806-2.886,3.732-3.581c0.52-0.188,0.807-0.125,0.618,0.061c-0.188,0.186-0.101,0.143,0.216-0.068
			s1.03-0.434,1.583-0.456C8.981,12.207,9.637,12.244,10.33,12.353z M37.015,16.187c-0.959,1.834-3.512,1.866-5.302,2.068
			c-0.19,0.022-2.08,0.179-3.359,0.268c-0.551,0.039-0.646-0.214-0.202-0.542c0.874-0.645,1.769-1.267,2.647-1.899
			c0.555-0.399,1.108-0.797,1.673-1.184c1.267-0.87,2.945-1.478,4.353-0.391C37.3,14.874,37.237,15.761,37.015,16.187z
			 M36.066,29.052c-1.852,0.861-3.705-1.182-4.983-2.145c-0.724-0.543-4.323-2.646-3.816-3.766c0.212-0.467,4.327-0.41,4.771-0.443
			c1.798-0.14,3.609-0.285,4.904,0.907c0.406,0.375,0.806,1.185,0.921,1.724C38.175,26.794,37.854,28.222,36.066,29.052z
			 M9.53,14.69c1.36,0.599,2.603,1.568,3.837,2.389c2.511,1.672-1.938,2.179-2.692,2.263C9.441,19.479,7.8,19.91,6.592,19.696
			C2.225,18.787,5.357,12.854,9.53,14.69z"/>
		<path d="M16.637,19.435c0.052-0.019-0.169,0.291-0.387,0.751c-0.129,0.272-0.229,0.562-0.294,0.872
			c-0.557,2.688,2.192,4.314,4.461,4.42c0.031,0.001,0.064,0,0.098-0.003c0.054-0.005,0.547-0.03,1.087-0.144
			c1.905-0.398,3.608-1.637,3.959-3.625c0.049-0.279,0.065-0.545,0.051-0.797c-0.022-0.443-0.098-0.833-0.042-0.89
			c0.057-0.057,0.055-0.062-0.003-0.009c-0.058,0.052-0.233-0.345-0.562-0.789c-0.136-0.184-0.291-0.354-0.461-0.511
			c-0.407-0.373-0.771-0.618-0.723-0.664s0.039-0.087-0.022-0.093c-0.062-0.006-0.137,0.016-0.165,0.044
			c-0.029,0.029-0.032,0.028-0.004,0c0.027-0.028,0.029-0.053,0.001-0.052c-0.028,0-0.067,0.018-0.086,0.036
			s-0.435-0.174-0.965-0.328c-0.629-0.183-1.292-0.262-1.915-0.229c-0.519,0.026-1.034,0.128-1.523,0.295
			c-0.522,0.178-0.917,0.361-0.924,0.308c-0.007-0.053-0.35,0.211-0.755,0.587c-0.062,0.059-0.125,0.117-0.188,0.175
			C16.87,19.162,16.586,19.454,16.637,19.435z M20.418,18.485c3.29-0.168,4.309,4.48,1.626,5.646
			c-0.507,0.22-1.421,0.228-1.943,0.049c-0.976-0.332-1.724-1.062-2.117-2.113C17.361,20.401,18.654,18.577,20.418,18.485z"/>
		<path d="M5.845,27.561c0.223-0.208,0.21-0.222-0.01-0.011C5.615,27.759,5.623,27.769,5.845,27.561z"/>
		<path d="M29.07,14.981c0.414-0.365,1.047-0.995,1.415-1.407l0.837-0.935c0.056-0.062,0.109-0.122,0.164-0.184
			c0.09-0.102-0.157,0.125-0.554,0.51c-1.057,1.024-2.113,2.05-3.17,3.071c-0.398,0.383-0.376,0.408,0.042,0.048
			C28.229,15.722,28.648,15.353,29.07,14.981z"/>
	</g>
</g>
<g>
</g>
<g>
</g>
<g>
</g>
<g>
</g>
<g>
</g>
<g>
</g>
<g>
</g>
<g>
</g>
<g>
</g>
<g>
</g>
<g>
</g>
<g>
</g>
<g>
</g>
<g>
</g>
<g>
</g>
</svg>
