<?xml version="1.0" encoding="iso-8859-1"?>
<!-- Generator: Adobe Illustrator 16.0.0, SVG Export Plug-In . SVG Version: 6.00 Build 0)  -->
<!DOCTYPE svg PUBLIC "-//W3C//DTD SVG 1.1//EN" "http://www.w3.org/Graphics/SVG/1.1/DTD/svg11.dtd">
<svg version="1.1" id="Capa_1" xmlns="http://www.w3.org/2000/svg" xmlns:xlink="http://www.w3.org/1999/xlink" x="0px" y="0px"
	 width="47.971px" height="47.971px" viewBox="0 0 47.971 47.971" style="enable-background:new 0 0 47.971 47.971;"
	 xml:space="preserve">
<g>
	<g>
		<path d="M43.332,7.128c-0.008-0.023-0.019-0.043-0.03-0.064c-0.069-0.119-0.182-0.2-0.318-0.246
			c-0.215-0.071-1.294-0.146-2.393-0.254C31.889,5.708,23.153,5.807,14.41,5.817c-4.055,0.004-7.884-0.106-11.788,1.11
			c-2.702,0.842-2.53,1.648-2.572,4.314c-0.128,8.145-0.186,17.941,2.192,25.76c1.506,4.947,7.607,5.14,11.8,5.159
			c8.43,0.038,16.838-0.564,25.254-0.088c3.097,0.176,7.126,0.266,8.008-3.415c2.39-9.98-2.291-21.612-3.924-31.431
			C43.373,7.186,43.347,7.163,43.332,7.128z M2.499,8.483c0.335-0.286,0.433-0.172,0.126,0.122C2.317,8.9,2.164,8.77,2.499,8.483z
			 M2.032,9.356c0.001-0.02,0.004-0.039,0.009-0.057C2.047,9.269,2.34,8.966,2.696,8.625c0.355-0.341,1.388-0.9,2.349-1.067
			c0.962-0.167,1.118,0.41,0.334,1.189c-0.652,0.648-1.304,1.295-1.955,1.941c-0.784,0.778-1.418,0.794-1.41,0.038
			C2.018,10.27,2.024,9.812,2.032,9.356z M45.621,37.458c-0.403,3.688-3.903,3.334-6.936,3.163
			c-5.754-0.327-11.461-0.009-17.226,0.091c-1.161,0.021-2.49,0.111-3.889,0.186c-1.103,0.059-2.146,0.049-2.329,0.01
			c-0.184-0.04-0.371-0.046-0.421,0c-0.051,0.046-0.987,0.099-2.09,0.034c-0.373-0.022-0.744-0.053-1.11-0.093
			c-1.098-0.119-1.561-0.746-1.056-1.26c0.506-0.513,0.857-1,0.791-1.093c-0.065-0.093-0.607,0.286-1.211,0.846
			c-0.604,0.561-1.485,0.905-1.952,0.731c-0.467-0.174-0.163-0.961,0.654-1.704c0.039-0.036,0.079-0.072,0.118-0.107
			c0.817-0.742,1.389-1.565,1.3-1.847c-0.089-0.279,0.745-0.438,1.85-0.423c3.113,0.042,6.225-0.312,9.333-0.501
			c0.108-0.007,0.208-0.028,0.3-0.062c0.16-0.057,0.291-0.146,0.315-0.155c0.023-0.012,0.08-0.023,0.128-0.024
			c0.048-0.001,0.718-0.636,1.498-1.418c0.904-0.905,1.822-1.826,2.755-2.759c0.271-0.276,0.542-0.553,0.814-0.83
			c0.447-0.459,0.757-0.953,0.682-1.102c-0.075-0.146-0.8,0.337-1.617,1.08c-0.771,0.704-1.514,1.381-2.217,2.023
			c-0.815,0.745-1.422,0.606-1.529-0.3c-0.107-0.907,0.32-2.232,1.122-2.991c0.249-0.235,0.497-0.47,0.743-0.702
			c0.803-0.76,1.399-1.366,1.334-1.354c-0.065,0.011-0.76,0.646-1.55,1.419c-0.19,0.185-0.379,0.371-0.568,0.557
			c-0.79,0.771-1.657,0.581-2.125-0.345c-0.276-0.546-0.602-1.079-0.981-1.6c-0.953-1.307-3.111-0.756-4.528-0.484
			c-4.503,0.855-6.399,4.592-6.971,8.821c-0.022,0.162,0.038,0.292,0.141,0.391c0.172,0.165-0.274,0.803-1.083,1.557
			c-0.146,0.137-0.293,0.273-0.44,0.411c-0.808,0.753-2.068,0.938-2.636,0.237c-0.33-0.405-0.619-0.862-0.86-1.379
			c-0.051-0.109-0.096-0.225-0.139-0.339c-0.07-0.189,0.49-0.921,1.249-1.633c0.455-0.427,0.912-0.856,1.374-1.289
			C7.105,32.76,7.553,32.3,8,31.841c0.741-0.762,1.306-1.717,1.261-2.132c-0.044-0.415-0.713-0.119-1.496,0.66
			c-0.609,0.604-1.212,1.205-1.806,1.796c-0.395,0.424-0.792,0.846-1.189,1.268c-0.658,0.699-1.333,0.688-1.447-0.035
			c-0.114-0.725,0.47-1.946,1.253-2.727c1.173-1.169,2.346-2.338,3.528-3.506c0.133-0.146,0.266-0.291,0.398-0.437
			c0.221-0.241-0.245,0.185-1.04,0.952c-0.298,0.287-0.581,0.562-0.842,0.812c-0.795,0.767-1.904,1.835-2.466,2.399
			c-0.56,0.565-1.045,0.703-1.074,0.31c-0.028-0.396,0.591-1.345,1.377-2.12c0.969-0.955,1.938-1.909,2.905-2.864
			c0.786-0.774,1.396-1.752,1.363-2.179s-0.683-0.13-1.452,0.663c-0.975,1.005-1.949,2.011-2.924,3.016
			c-0.768,0.794-1.412,1.013-1.447,0.485c-0.035-0.525,0.549-1.594,1.318-2.387c0.989-1.021,1.963-2.023,2.914-3.002
			c0.77-0.791,1.359-1.951,1.32-2.589c-0.038-0.639-0.703-0.527-1.489,0.249c-0.974,0.959-1.952,1.925-2.935,2.896
			c-0.786,0.776-1.489,0.639-1.561-0.309C2.397,22.113,3,20.731,3.803,19.972c1.004-0.95,2.006-1.905,3.007-2.866
			c0.796-0.765,1.434-1.582,1.429-1.82c-0.004-0.239-0.639,0.205-1.416,0.99c-1.035,1.045-2.069,2.09-3.103,3.135
			c-0.777,0.786-1.448,0.757-1.491-0.065c-0.043-0.822,0.552-2.129,1.324-2.918c1.084-1.109,2.165-2.212,3.242-3.309
			c0.774-0.788,1.403-1.779,1.407-2.216c0.005-0.437-0.633-0.169-1.427,0.6c-0.96,0.929-2.056,1.99-3.253,3.15
			c-0.793,0.769-0.801,0.76-0.015-0.015c1.047-1.031,2.193-2.151,3.273-3.204c0.791-0.771,0.784-0.777-0.012-0.012
			c-1.053,1.012-2.133,2.06-3.25,3.146c-0.793,0.769-1.447,1.091-1.462,0.719c-0.009-0.225-0.017-0.449-0.023-0.674
			c-0.004-0.136-0.005-0.273-0.006-0.41c-0.002-0.226,0.638-1.033,1.429-1.804C4.75,11.139,6.07,9.855,7.411,8.55
			c0.791-0.771,1.955-1.429,2.602-1.449c0.647-0.019,1.135,0.017,1.09,0.062c-0.045,0.044,0.057,0.041,0.228-0.003
			c0.171-0.044,1.205-0.075,2.31-0.049c1.459,0.035,2.916,0.087,4.346,0.084c7.196-0.018,14.379,0.031,21.54,0.713
			c1.1,0.105,2.138,1.089,2.337,2.175c1.296,7.057,3.046,14.007,3.745,21.175C45.809,33.322,45.848,35.396,45.621,37.458z
			 M11.515,32.593c0.369-1.274,0.941-2.467,1.892-3.482c0.874-0.936,2.002-1.222,3.178-1.361c1.097-0.132,2.57,0.506,3.079,1.486
			c0.483,0.932,0.798,1.912,0.932,2.943c0.143,1.096-0.856,2.062-1.957,2.147c-1.848,0.144-3.697,0.282-5.547,0.281
			C11.987,34.607,11.208,33.653,11.515,32.593z"/>
		<path d="M17.026,14.233c-0.193,0.193-0.387,0.387-0.58,0.58c-0.32,0.32-1.431,0.968-2.107,1.84c-1.79,2.308-2.081,6.5,1.211,6.898
			c5.011,0.606,5.342-6.495,3.168-9.466C18.323,13.545,17.405,13.855,17.026,14.233z M16.879,22.135
			c-1.885,1.036-2.742-4.952-0.24-5.618c0.099-0.026,0.183-0.06,0.257-0.1c0.136-0.072,0.263-0.18,0.305-0.211
			c0.025-0.02,0.05-0.04,0.071-0.062c0.034-0.034,0.069-0.069,0.104-0.104c0.057-0.057,0.454,0.732,0.632,1.822
			C18.29,19.591,18.104,21.462,16.879,22.135z"/>
		<path d="M22.538,16.873c0.506-0.518,0.298-0.76-0.206-0.207C21.828,17.217,22.033,17.39,22.538,16.873z"/>
		<path d="M26.11,17.866c-0.022-0.229-0.689,0.213-1.476,0.99c-0.442,0.437-0.957,0.946-1.558,1.544
			c-0.783,0.779-1.363,1.508-1.285,1.619c0.079,0.11,0.806-0.42,1.612-1.174c0.428-0.4,0.852-0.799,1.277-1.196
			C25.486,18.894,26.133,18.094,26.11,17.866z"/>
		<path d="M24.727,21.762c-0.67,0.622-1.188,1.127-1.155,1.13c0.018,0.002,0.037,0.004,0.059,0.003
			c0.645-0.038,1.148-0.304,1.531-0.724C25.811,21.463,25.396,21.14,24.727,21.762z"/>
		<path d="M39.335,18.412c-4.03,0-8.062,0-12.096,0c-0.396,0-2.198,0.774-1.256,0.774c4.031,0,8.062,0,12.096,0
			C38.475,19.187,40.277,18.412,39.335,18.412z"/>
		<path d="M38.283,25.398c-3.644,0.015-7.283,0.18-10.926,0.193c-0.816,0.003-2.021,1.245-0.713,1.24
			c3.644-0.014,7.283-0.18,10.926-0.194C38.388,26.635,39.591,25.392,38.283,25.398z"/>
		<path d="M39.138,34.006c-2.774,0-5.548,0-8.322,0c-1.104,0-1.989-0.104-1.979-0.233c0.012-0.129-0.087-0.129-0.215,0
			s-0.357,0.233-0.517,0.233c-0.095,0-0.19,0-0.284,0c-0.413,0-2.204,0.803-1.248,0.803c0.171,0,0.341,0,0.511,0
			c0.283,0,0.497,0.016,0.479,0.033c-0.019,0.02,0.192,0.018,0.473-0.002c0.17-0.011,0.339-0.021,0.506-0.031
			c3.116,0,6.232,0,9.35,0C38.303,34.809,40.094,34.006,39.138,34.006z"/>
	</g>
</g>
<g>
</g>
<g>
</g>
<g>
</g>
<g>
</g>
<g>
</g>
<g>
</g>
<g>
</g>
<g>
</g>
<g>
</g>
<g>
</g>
<g>
</g>
<g>
</g>
<g>
</g>
<g>
</g>
<g>
</g>
</svg>
