<?xml version="1.0" encoding="iso-8859-1"?>
<!-- Generator: Adobe Illustrator 16.0.0, SVG Export Plug-In . SVG Version: 6.00 Build 0)  -->
<!DOCTYPE svg PUBLIC "-//W3C//DTD SVG 1.1//EN" "http://www.w3.org/Graphics/SVG/1.1/DTD/svg11.dtd">
<svg version="1.1" id="Capa_1" xmlns="http://www.w3.org/2000/svg" xmlns:xlink="http://www.w3.org/1999/xlink" x="0px" y="0px"
	 width="49.984px" height="49.984px" viewBox="0 0 49.984 49.984" style="enable-background:new 0 0 49.984 49.984;"
	 xml:space="preserve">
<g>
	<g>
		<path d="M40.538,12.678c-5.326-1.174-10.505,2.091-14.191,5.691c-0.396,0.386-1.146,0.635-1.624,0.359
			c-1.932-1.114-6.025-4.473-6.928-4.941c-2.309-1.199-5.311-1.631-7.859-1.069c-5.765,1.271-9.181,5.423-9.854,11.25
			c-0.639,5.526,2.527,11.093,7.728,13.003c5.447,2,11.56-1.573,15.708-4.751c1.654-1.267,8.471,3.751,10.119,4.396
			c2.598,1.015,5.268,0.964,7.932,0.373c5.456-1.209,8.201-7.152,8.405-12.214C50.216,18.768,46.255,13.938,40.538,12.678z
			 M4.091,17.449c0.979-1.551,2.2-2.555,3.56-3.122c0.51-0.213,0.626-0.009,0.23,0.376c-1.088,1.059-2.212,2.148-3.396,3.293
			c-0.95,0.975,1.024-0.944,3.447-3.305c0.395-0.385,0.729-0.7,0.746-0.704c0.018-0.004-0.291,0.305-0.688,0.688
			c-1.116,1.082-2.339,2.267-3.643,3.532c-0.396,0.384-0.725,0.564-0.733,0.402C3.604,18.448,3.796,17.917,4.091,17.449z
			 M47.352,29.316c-1.142,4.095-4.304,6.717-8.472,6.883c-0.552,0.021-0.948-0.059-0.886-0.122c0.061-0.062,0.013-0.151-0.108-0.198
			c-0.122-0.047-0.298-0.006-0.396,0.095c-0.099,0.101-0.372,0.162-0.613,0.131c-0.145-0.019-0.289-0.041-0.436-0.066
			c-0.364-0.063-0.729-0.152-1.089-0.26c-0.528-0.157-0.763-0.513-0.537-0.743c0.227-0.232,0.115-0.582-0.237-0.794
			c-0.354-0.212-0.853-0.175-1.119,0.095c-0.269,0.27-0.703,0.378-0.971,0.235c-0.267-0.144-0.244-0.5,0.043-0.79
			c0.286-0.291,0.483-0.551,0.439-0.58c-0.045-0.03-0.309,0.186-0.59,0.481c-0.282,0.298-0.805,0.367-1.159,0.146
			c-0.354-0.223-0.393-0.674-0.092-0.997c0.302-0.323,0.304-0.772,0.011-1.009c-0.188-0.151-0.363-0.298-0.525-0.437
			c-0.036-0.029-0.073-0.057-0.11-0.083c-0.062-0.043-0.384,0.195-0.715,0.531c-0.332,0.336-0.831,0.44-1.113,0.231
			c-0.172-0.13-0.342-0.259-0.508-0.386c-1.766-1.35-3.235-1.787-5.238-0.56c-3.258,1.995-6.763,4.328-10.228,4.868
			c-0.546,0.085-1.192,0.022-1.435-0.085c-0.241-0.108-0.518-0.13-0.629-0.026c-0.11,0.104-0.647,0.148-1.185,0.023
			c-0.592-0.141-1.18-0.354-1.762-0.651c-0.491-0.252-0.561-0.79-0.19-1.138c0.371-0.35,0.539-0.786,0.383-0.983
			c-0.157-0.196-0.58-0.036-0.959,0.367c-0.015,0.016-0.03,0.032-0.045,0.048C6.501,33.946,5.846,34,5.451,33.624
			c-0.394-0.376-0.368-1.023,0.023-1.413c0.142-0.141,0.283-0.281,0.425-0.422c0.392-0.39,0.697-0.729,0.683-0.755
			c-0.016-0.027-0.344,0.268-0.732,0.659c-0.148,0.147-0.296,0.297-0.443,0.444c-0.389,0.393-0.852,0.544-1.021,0.33
			c-0.17-0.215,0.019-0.714,0.41-1.104c0.351-0.351,0.701-0.7,1.053-1.049c0.049-0.049,0.097-0.097,0.145-0.144
			c0.08-0.079,0.067-0.337-0.018-0.579s-0.458-0.118-0.843,0.278c-0.263,0.271-0.525,0.542-0.788,0.812
			c-0.385,0.396-0.812,0.527-0.943,0.287c-0.131-0.241-0.217-0.547-0.205-0.677c0.012-0.13,0.332-0.559,0.716-0.955
			c0.282-0.292,0.563-0.583,0.844-0.872c0.385-0.396,0.6-1.156,0.523-1.703c-0.009-0.06-0.017-0.121-0.024-0.182
			c-0.068-0.548-0.408-0.681-0.801-0.293c-0.096,0.095-0.191,0.188-0.286,0.283c-0.394,0.389-0.675,0.257-0.629-0.293
			c0.051-0.61,0.097-1.18,0.137-1.683c0.043-0.551,0.403-1.302,0.806-1.681c0.077-0.073,0.155-0.146,0.232-0.22
			c0.401-0.379,0.754-0.806,0.791-0.954c0.036-0.147-0.248,0.052-0.637,0.444c-0.132,0.133-0.264,0.266-0.395,0.398
			c-0.389,0.392-0.69,0.538-0.679,0.325c0.01-0.177,0.015-0.31,0.015-0.387c0-0.124-0.014-0.46-0.037-0.956
			c-0.025-0.528,0.264-1.276,0.649-1.672c1.787-1.834,3.56-3.646,5.326-5.443c0.387-0.394,1.15-0.732,1.701-0.695
			c3.858,0.257,8.009,2.659,10.724,5.308c1.596,1.556,2.848,1.812,4.724,0.593c0.082-0.051,0.137-0.088,0.175-0.129
			c1.436-1.508,3.114-2.85,4.911-3.852c0.482-0.269,0.56-0.157,0.153,0.219c-1.087,1.009-2.175,2.018-3.264,3.027
			c-0.405,0.376-0.403,0.961,0.091,1.018c0.494,0.056,1.203-0.459,1.607-0.835c0.291-0.27,0.582-0.54,0.873-0.81
			c0.279-0.273,0.582-0.556,0.904-0.842c0.952-0.886,1.903-1.772,2.854-2.657c0.403-0.377,1.169-0.783,1.717-0.856
			c2.932-0.383,5.883,0.442,8.401,3.158C48.308,20.317,48.459,25.351,47.352,29.316z"/>
		<path d="M44.278,23.431c-0.389,0.392-0.729,0.422-0.797,0.073c-0.066-0.349,0.16-0.941,0.55-1.334
			c0.147-0.15,0.296-0.3,0.441-0.447c0.389-0.393,0.604-0.809,0.474-0.921c-0.129-0.112-0.544,0.131-0.921,0.534
			c-0.072,0.078-0.146,0.156-0.22,0.235c-0.377,0.403-0.826,0.389-1.075,0.01c-0.249-0.379-0.271-0.896,0.017-1.204
			c0.287-0.308,0.271-0.651-0.044-0.729c-0.316-0.078-0.734,0.039-0.926,0.228c-0.188,0.188-0.699,0.064-1.188-0.193
			c-1.598-0.84-3.573-1.035-5.215-0.396c-2.46,0.959-7.33,4.172-6.271,7.264c0.181,0.522,0.798,1.185,1.218,1.542
			c2.815,2.398,5.975,3.849,9.684,2.311c1.529-0.635,2.607-1.854,3.169-3.289c0.201-0.516,0.604-1.277,0.99-1.673
			c0.546-0.56,1.092-1.118,1.637-1.675c0.386-0.395,0.597-1.006,0.421-1.344c-0.176-0.337-0.671-0.273-1.06,0.119
			C44.866,22.84,44.571,23.136,44.278,23.431z M40.294,28.806c-2.419,2.7-5.925,0.458-8.179-1.472
			c-0.42-0.359-1.053-1.025-1.163-1.566c-0.436-2.107,2.613-4.257,4.156-5.225c2.729-1.709,5.558,0.737,6.403,3.109
			C42.146,25.43,41.508,27.45,40.294,28.806z"/>
		<path d="M23.832,23.997c-0.03-0.036-0.062-0.073-0.094-0.111c-0.053-0.06-0.422,0.195-0.826,0.57
			c-0.396,0.367-0.79,0.734-1.186,1.102c-0.404,0.376-0.599,0.415-0.551,0.061c0.027-0.208,0.021-0.423-0.029-0.645
			c-0.022-0.099-0.049-0.194-0.078-0.292c-0.049-0.159,0.231-0.595,0.635-0.972c0.096-0.09,0.192-0.18,0.288-0.27
			c0.403-0.377,0.672-0.744,0.599-0.819c-0.072-0.075-0.449,0.183-0.84,0.573c-0.065,0.065-0.13,0.13-0.195,0.196
			c-0.391,0.391-0.88,0.291-1.176-0.176c-0.086-0.137-0.179-0.271-0.276-0.404c-0.327-0.444-0.387-1.027-0.07-1.354
			c0.316-0.326,0.42-0.704,0.226-0.838c-0.194-0.133-0.599,0.006-0.895,0.301c-0.296,0.294-0.872,0.236-1.323-0.083
			c-0.239-0.17-0.486-0.33-0.739-0.48c-0.475-0.281-0.788-0.563-0.67-0.68c0.117-0.116-0.03-0.202-0.328-0.164
			c-0.298,0.037-0.951-0.08-1.482-0.231c-0.826-0.234-1.647-0.346-2.401-0.306c-3.281,0.17-5.926,2.9-6.087,6.119
			c-0.001,0.015,0.003,0.024,0.008,0.035c0.008,0.019,0.008,0.048,0,0.067c-0.005,0.012-0.009,0.022-0.008,0.036
			c0.169,3.429,3.028,6.162,6.544,5.878c1.447-0.117,2.73-0.587,3.939-1.268c0.482-0.271,0.569-0.256,0.219,0.069
			c-0.351,0.326-0.47,0.61-0.266,0.622c0.121,0.007,0.245,0.011,0.37,0.011c0.212,0,0.426-0.021,0.64-0.055
			c0.35-0.058,0.957-0.44,1.363-0.813c1.466-1.348,2.931-2.694,4.392-4.047c0.405-0.375,0.696-0.917,0.577-1.185
			C24.038,24.286,23.945,24.134,23.832,23.997z M16.67,28.631c-1.635,1.198-3.56,1.709-5.511,0.9
			c-1.549-0.644-2.435-2.171-2.758-3.752c-0.111-0.541-0.113-1.44,0.001-1.979c0.4-1.89,1.633-3.403,3.754-3.745
			c2.624-0.423,5.144,2.595,6.647,4.346C20.299,26.146,17.824,27.786,16.67,28.631z"/>
		<path d="M43.871,27.382c-0.699,0.717-1.398,1.436-2.1,2.152c-0.385,0.396-0.288,0.59,0.174,0.34
			c0.463-0.25,0.992-0.727,1.239-0.977s0.733-0.803,0.989-1.291c0.004-0.007,0.007-0.014,0.011-0.021
			C44.44,27.098,44.257,26.986,43.871,27.382z"/>
	</g>
</g>
<g>
</g>
<g>
</g>
<g>
</g>
<g>
</g>
<g>
</g>
<g>
</g>
<g>
</g>
<g>
</g>
<g>
</g>
<g>
</g>
<g>
</g>
<g>
</g>
<g>
</g>
<g>
</g>
<g>
</g>
</svg>
