<?xml version="1.0" encoding="iso-8859-1"?>
<!-- Generator: Adobe Illustrator 16.0.0, SVG Export Plug-In . SVG Version: 6.00 Build 0)  -->
<!DOCTYPE svg PUBLIC "-//W3C//DTD SVG 1.1//EN" "http://www.w3.org/Graphics/SVG/1.1/DTD/svg11.dtd">
<svg version="1.1" id="Capa_1" xmlns="http://www.w3.org/2000/svg" xmlns:xlink="http://www.w3.org/1999/xlink" x="0px" y="0px"
	 width="43.607px" height="43.607px" viewBox="0 0 43.607 43.607" style="enable-background:new 0 0 43.607 43.607;"
	 xml:space="preserve">
<g>
	<g>
		<path d="M32.321,4.597c0.383,0.015,1.326-0.182,1.326-0.726c0-1.112,0-2.224,0-3.336C33.647,0.194,33.36,0,33.028,0
			C25.78,0,18.533,0,11.286,0C10.903,0,9.96,0.171,9.96,0.726c0,1.112,0,2.224,0,3.336c0,0.477,0.479,0.546,0.866,0.531
			c0.249-0.009,0.497-0.008,0.744,0.002c0.411,0.016,0.742,0.065,0.742,0.082s0.105,0.025,0.234,0.023
			c0.129-0.003,0.591,0.044,1.03,0.125c0.264,0.049,0.527,0.105,0.789,0.167c3.085,0.735,2.625,3.474,2.594,5.907
			c-0.045,3.605,0.005,7.213,0.062,10.818c0.045,2.879-0.067,5.767-0.072,8.646c-0.003,1.828,0.016,3.656,0.074,5.482
			c0.094,2.936-3.848,3.127-5.736,3.055c-0.383-0.016-1.326,0.182-1.326,0.726c0,1.112,0,2.224,0,3.336
			c0,0.341,0.286,0.535,0.619,0.535c1.566,0,3.132,0,4.699,0c1.104,0,1.973,0.024,1.94,0.056c-0.033,0.029,0.191,0.055,0.502,0.055
			s0.562-0.025,0.562-0.055c0-0.031,0.896-0.056,2-0.056c4.013,0,8.026,0,12.039,0c0.383,0,1.326-0.171,1.326-0.726
			c0-1.112,0-2.225,0-3.336c0-0.478-0.479-0.547-0.865-0.531c-1.198,0.046-2.375-0.122-3.539-0.399
			c-3.441-0.821-2.604-4.448-2.586-7.1c0.021-3.25-0.019-6.502-0.072-9.752c0.047-2.839,0.068-5.679,0.074-8.519
			c0.002-1.828-0.017-3.656-0.074-5.483C26.491,4.715,30.433,4.524,32.321,4.597z M13.679,3.319
			c-0.018,0.017-0.039,0.037-0.06,0.058c-0.034,0.032-0.079,0.057-0.101,0.055c-0.022-0.002,0.231-0.275,0.583-0.588
			C14.285,2.68,14.18,2.804,13.679,3.319z M25.095,6.058c-0.117,0.282-0.212,0.576-0.288,0.88c-0.124,0.497-0.797,1.552-1.567,2.345
			c-0.849,0.875-1.697,1.749-2.545,2.624c-0.769,0.792-1.394,1.953-1.393,2.594c0,0.641,0.641,0.533,1.427-0.243
			c0.791-0.78,1.582-1.561,2.375-2.341c0.786-0.776,1.463-0.509,1.529,0.593c0.044,0.716,0.082,1.411,0.081,2.062
			c0,0.177-0.002,0.355-0.005,0.533c-0.004,0.294-0.457,0.965-1.016,1.498c-0.32,0.308-0.656,0.628-1.01,0.966
			c-0.645,0.642-1.282,1.276-1.914,1.905c-0.783,0.779-1.413,1.77-1.407,2.213c0.007,0.508,0.012,0.803,0.012,0.803
			c0,0.048,0.623-0.58,1.392-1.372c0.846-0.871,1.688-1.737,2.526-2.6c0.77-0.792,1.388-0.539,1.379,0.565
			c-0.002,0.247-0.004,0.494-0.006,0.74c-0.012,1.105-0.659,2.633-1.44,3.414c-0.768,0.768-1.596,1.597-2.495,2.497
			c-0.781,0.781-1.414,1.484-1.414,1.57c0,0.084,0.653-0.457,1.461-1.209c0.801-0.748,1.604-1.498,2.407-2.248
			c0.808-0.754,1.47-0.812,1.476-0.129c0.006,0.685-0.646,1.848-1.455,2.599c-0.812,0.754-1.625,1.509-2.438,2.263
			c-0.81,0.751-1.467,1.872-1.467,2.503c0.001,0.631,0.663,0.536,1.476-0.211c0.815-0.749,1.63-1.498,2.445-2.247
			c0.812-0.748,1.477-0.941,1.48-0.432c0.004,0.308,0.008,0.615,0.01,0.924c0.006,1.238-0.372,3.534-0.346,5.531
			c0.014,1.104-0.437,2.592-1.242,3.347c-0.237,0.222-0.453,0.425-0.643,0.604c-0.804,0.76-0.856,0.927-1.085,1.136
			s0.25,0.297,1.034,0.058c0.785-0.238,1.63-0.855,1.964-1.189c0.333-0.334,0.633-0.656,0.662-0.723
			c0.03-0.064,0.613,0.615,1.57,1.166c1.201,0.692,2.617,0.936,4.068,1.081c0.168,0.013,0.336,0.021,0.504,0.027
			c0.277,0.01,0.504,0.474,0.504,1.045s-0.896,1.036-2,1.036c-3.332,0-6.664,0-9.997,0c-2.358,0-4.715,0-7.073,0
			c-0.141,0-0.262-0.001-0.364-0.003c-0.201-0.005-0.363-0.472-0.363-1.04c0-0.567,0.9-1.034,1.989-1.219
			c2.101-0.356,4.083-1.263,4.927-3.271c0.958-2.279,0.069-6.553,0.08-9.011c0.01-2.175,0.093-4.354,0.058-6.527
			c-0.048-3.088-0.07-6.176-0.064-9.265c0.003-1.493,0.267-3.152,0.005-4.646c-0.191-1.088-0.562-2.008-0.369-2.203
			c0.194-0.195,0.217-0.354,0.051-0.352c-0.166,0.002-0.302-0.121-0.302-0.278c0-0.158-0.143-0.142-0.319,0.036
			c-0.176,0.178-0.817-0.107-1.556-0.401c-0.739-0.293-0.877-0.909-0.252-1.542c0.624-0.632,0.728-1.143,0.23-1.143
			c-0.497,0-1.368,0.458-1.946,1.024c-0.578,0.566-1.155,1.013-1.287,0.998c-0.082-0.008-0.162-0.017-0.239-0.024
			c-0.168-0.013-0.336-0.021-0.504-0.027c-0.278-0.01-0.504-0.474-0.504-1.046c0-0.131,0.049-0.255,0.137-0.37
			c0.134-0.176,0.341-0.195,0.414-0.223c0.033-0.013,0.071-0.039,0.114-0.081c0.021-0.021,0.035-0.039,0.045-0.056
			c0.021-0.035,0.297-0.186,0.648-0.249c0.201-0.037,0.417-0.057,0.643-0.057c3.332,0,6.664,0,9.997,0c2.357,0,4.715,0,7.072,0
			c0.141,0,0.262,0.001,0.364,0.003c0.2,0.004,0.362,0.472,0.362,1.04s-0.897,1.038-1.99,1.198
			C27.749,3.788,25.755,4.489,25.095,6.058z"/>
		<path d="M22.929,7.582c-0.742,0.766-1.497,1.544-2.224,2.293c-0.769,0.793-1.393,1.455-1.393,1.477s0.262-0.227,0.586-0.558
			c0.187-0.19,0.381-0.388,0.586-0.597c0.859-0.884,1.689-1.736,2.494-2.564c0.771-0.792,1.383-1.445,1.369-1.46
			C24.334,6.158,23.698,6.79,22.929,7.582z"/>
		<path d="M20.832,33.301c-0.34,0.312-0.686,0.629-1.04,0.953c-0.078,0.072-0.155,0.145-0.233,0.217
			c-0.129,0.118-0.233,0.268-0.231,0.332c0.001,0.062,0.57-0.461,1.271-1.172C21.301,32.922,21.406,32.773,20.832,33.301z"/>
		<path d="M12.803,40.727c-0.271,0.252-0.491,0.645-0.491,0.879c0,0.236,0.399,0.021,0.892-0.479c0.493-0.5,0.713-0.889,0.492-0.875
			S13.074,40.475,12.803,40.727z"/>
		<path d="M20.718,9.576c0.734-0.747,1.426-1.449,2.07-2.101c0.775-0.786,1.087-1.674,0.64-1.897
			c-0.446-0.223-1.476,0.286-2.264,1.06c-0.123,0.121-0.247,0.242-0.371,0.364c-0.263,0.258-0.509,0.502-0.72,0.713
			c-0.396,0.396-0.712,1.02-0.721,1.379c-0.005,0.21-0.011,0.426-0.016,0.65C19.323,10.44,19.944,10.364,20.718,9.576z"/>
	</g>
</g>
<g>
</g>
<g>
</g>
<g>
</g>
<g>
</g>
<g>
</g>
<g>
</g>
<g>
</g>
<g>
</g>
<g>
</g>
<g>
</g>
<g>
</g>
<g>
</g>
<g>
</g>
<g>
</g>
<g>
</g>
</svg>
