<?xml version="1.0" encoding="iso-8859-1"?>
<!-- Generator: Adobe Illustrator 16.0.0, SVG Export Plug-In . SVG Version: 6.00 Build 0)  -->
<!DOCTYPE svg PUBLIC "-//W3C//DTD SVG 1.1//EN" "http://www.w3.org/Graphics/SVG/1.1/DTD/svg11.dtd">
<svg version="1.1" id="Capa_1" xmlns="http://www.w3.org/2000/svg" xmlns:xlink="http://www.w3.org/1999/xlink" x="0px" y="0px"
	 width="34.64px" height="34.64px" viewBox="0 0 34.64 34.64" style="enable-background:new 0 0 34.64 34.64;" xml:space="preserve"
	>
<g>
	<g>
		<path d="M5.487,34.188c2.037,0.622,4.862,0.758,6.705-0.613c3.163-2.354,2.448-5.041,2.681-7.966c0.043-0.55,0.458-0.699,0.84-0.3
			c3.675,3.832,5.148,9.977,11.644,9.159c3.195-0.403,5.092-3.042,5.461-6.042c0.377-3.07-4.295-7.175-5.975-9.305
			c-2.506-3.178,0.674-6.094,2.525-8.787c2.17-3.155,3.246-9.417-2.268-10.102c-5.959-0.739-8.684,3.831-11.507,8.252
			c-0.297,0.466-0.62,0.399-0.663-0.152c-0.205-2.595,0.369-4.98-2.128-7.223c-1.764-1.583-5.062-1.26-7.071-0.349
			C0.387,3.184,2.126,12.384,2.126,17.048C2.127,20.937,0.254,32.591,5.487,34.188z M20.888,3.635
			c0.035-0.034,0.07-0.068,0.107-0.102c0.404-0.376,0.447-0.324,0.045,0.055c-0.033,0.032-0.066,0.064-0.102,0.097
			C20.537,4.063,20.49,4.018,20.888,3.635z M5.464,20.889c-0.277,0.257-0.554,0.514-0.831,0.771
			c-0.404,0.376-0.708,0.247-0.68-0.289c0.028-0.535,0.376-1.274,0.779-1.651c0.244-0.228,0.488-0.456,0.733-0.685
			c0.403-0.377,0.731-0.75,0.731-0.829c0-0.081-0.316,0.17-0.706,0.562c-0.253,0.253-0.512,0.513-0.776,0.779
			c-0.391,0.391-0.685,0.31-0.671-0.183c0.009-0.302,0.015-0.6,0.015-0.892c0-0.274,0-0.545,0-0.818c0-0.452,0.312-1.14,0.696-1.537
			c0.249-0.257,0.498-0.513,0.747-0.77c0.384-0.396,0.695-0.994,0.695-1.336c0-0.341-0.316-0.303-0.708,0.087
			c-0.242,0.241-0.482,0.48-0.723,0.719c-0.392,0.39-0.708,0.257-0.708-0.295c0-0.653,0-1.306,0-1.959
			c0-0.552,0.319-1.315,0.712-1.703c0.238-0.235,0.477-0.47,0.715-0.705c0.394-0.388,0.712-1.101,0.712-1.593
			c0-0.493-0.312-0.571-0.696-0.174C5.251,8.646,5.003,8.903,4.754,9.16C4.37,9.556,4.058,9.549,4.058,9.144
			c0-0.406,0.313-1.053,0.701-1.447c0.399-0.407,0.864-0.88,1.406-1.433c0.01-0.01,0.019-0.02,0.028-0.03
			c0.017-0.017,0.03-0.047,0.032-0.068c0.002-0.021-0.31,0.284-0.694,0.68C5.259,7.126,5,7.394,4.753,7.648
			C4.369,8.044,4.058,8.312,4.058,8.246c0-0.067,0.313-0.44,0.699-0.834C5.025,7.139,5.288,6.871,5.544,6.61
			C5.931,6.216,6.271,5.447,6.38,4.906c0.041-0.2,0.089-0.395,0.146-0.585c0.157-0.529,0.041-0.617-0.354-0.229
			C5.724,4.533,5.273,4.976,4.82,5.42C4.426,5.807,4.141,5.671,4.275,5.135c1.124-4.505,6.639-5.69,8.708-0.619
			c0.822,2.016-0.269,4.544,0.477,6.632c0.167,0.469,1.606-0.179,1.837-0.345c0.268-0.192,0.535-0.385,0.804-0.578
			c0.011-0.007,0.016-0.014,0.02-0.019c0.008-0.014,0.021-0.038,0.036-0.049c0.01-0.007,0.018-0.015,0.024-0.023
			c0.488-0.707,0.976-1.413,1.464-2.12c0.313-0.454,0.899-1.126,1.308-1.5c1.131-1.04,2.617-2.41,4.346-4.007
			c0.406-0.375,1.17-0.802,1.723-0.834c2.129-0.125,4.043,1.18,4.469,4.481c0.59,4.581-8.445,8.582-4.93,13.041
			c1.545,1.959,3.09,3.919,4.635,5.879c0.467,0.593,0.826,1.103,1.232,1.752c1.496,2.395-0.299,5.479-2.66,6.524
			c-0.506,0.224-1.066,0.242-1.205,0.166s-0.318-0.075-0.414,0.021c-0.098,0.097-0.477,0.167-0.832,0.077
			c-0.357-0.09-0.439-0.413-0.211-0.64c0.229-0.228,0.266-0.598,0.082-0.827c-0.184-0.229-0.568-0.187-0.859,0.095
			c-0.291,0.282-0.629,0.418-0.742,0.296c-0.066-0.071-0.135-0.147-0.199-0.229c-0.166-0.206-0.332-0.42-0.496-0.641
			c-0.27-0.358-0.25-0.89,0.033-1.178c0.285-0.289,0.457-0.597,0.385-0.688s-0.357,0.065-0.639,0.352
			c-0.277,0.286-0.764,0.153-1.078-0.3c-0.115-0.167-0.232-0.334-0.35-0.502c-0.316-0.453-0.375-1.023-0.129-1.276
			c0.244-0.253,0.238-0.715-0.018-1.032c-0.254-0.317-0.648-0.385-0.881-0.149s-0.562,0.235-0.738,0.003
			c-0.18-0.231-0.143-0.605,0.086-0.835c0.227-0.229,0.387-0.449,0.354-0.489c-0.031-0.041-0.238,0.117-0.461,0.353
			c-0.225,0.234-0.613,0.162-0.883-0.155c-0.268-0.317-0.307-0.764-0.078-1.009c0.23-0.246,0.312-0.573,0.186-0.732l-0.229-0.287
			c-0.113-0.14-0.221-0.251-0.324-0.333c-0.2-0.161-0.517-0.093-0.642,0.033c-0.124,0.126-0.256,0.34-0.273,0.482
			c-0.01,0.078-0.015,0.163-0.015,0.258c0,0,0,0.027,0,0.061c0,0.034-0.322-0.252-0.754-0.597c-0.347-0.278-0.704-0.528-1.072-0.743
			c-0.363-0.212-1.7,0.073-1.863,0.5c-0.567,1.482-0.381,2.945-0.381,4.531c0,3.059-1.61,4.886-3.483,5.348
			c-0.537,0.133-1.15,0.015-1.337-0.125c-0.186-0.139-0.408-0.187-0.516-0.083c-0.107,0.104-0.635,0.074-1.111-0.205
			c-0.294-0.173-0.576-0.386-0.841-0.641c-0.398-0.383-0.36-1.047-0.006-1.403c0.354-0.355,0.568-0.918,0.509-1.261
			c-0.06-0.343-0.414-0.324-0.822,0.048c-0.057,0.053-0.113,0.104-0.17,0.156c-0.407,0.373-0.877,0.373-1.008-0.014
			c-0.076-0.226-0.143-0.46-0.198-0.711c-0.125-0.567-0.206-1.156-0.259-1.761c-0.047-0.55,0.254-1.315,0.643-1.71
			c0.321-0.325,0.643-0.651,0.965-0.979c0.388-0.395,0.703-0.733,0.703-0.76s-0.123,0.065-0.275,0.206
			c-0.09,0.083-0.181,0.167-0.275,0.253c-0.364,0.337-0.729,0.674-1.093,1.011c-0.405,0.375-0.746,0.26-0.744-0.258
			c0.002-0.519,0.346-1.241,0.753-1.615c0.3-0.275,0.6-0.55,0.899-0.825c0.407-0.373,0.735-1.062,0.735-1.538
			C6.198,20.594,5.869,20.513,5.464,20.889z"/>
		<path d="M17.526,10.885c0.206,0.071,0.494-0.114,0.81-0.574l2.07-2.997c0.314-0.455,0.24-0.519-0.164-0.143
			c-0.77,0.713-1.537,1.426-2.306,2.139C17.531,9.686,17.004,10.703,17.526,10.885z"/>
	</g>
</g>
<g>
</g>
<g>
</g>
<g>
</g>
<g>
</g>
<g>
</g>
<g>
</g>
<g>
</g>
<g>
</g>
<g>
</g>
<g>
</g>
<g>
</g>
<g>
</g>
<g>
</g>
<g>
</g>
<g>
</g>
</svg>
