<?xml version="1.0" encoding="iso-8859-1"?>
<!-- Generator: Adobe Illustrator 16.0.0, SVG Export Plug-In . SVG Version: 6.00 Build 0)  -->
<!DOCTYPE svg PUBLIC "-//W3C//DTD SVG 1.1//EN" "http://www.w3.org/Graphics/SVG/1.1/DTD/svg11.dtd">
<svg version="1.1" id="Capa_1" xmlns="http://www.w3.org/2000/svg" xmlns:xlink="http://www.w3.org/1999/xlink" x="0px" y="0px"
	 width="48.247px" height="48.247px" viewBox="0 0 48.247 48.247" style="enable-background:new 0 0 48.247 48.247;"
	 xml:space="preserve">
<g>
	<g>
		<path d="M47.442,27.938c-0.053,0.068-0.111,0.169-0.169,0.266c-0.057-0.36-0.146-0.704-0.262-1.034
			c-0.004-0.191-0.021-0.427-0.073-0.723c-0.101-0.536-0.322-1.279-0.822-2.101c-0.069-0.115-0.144-0.23-0.227-0.353
			c-0.035-0.05-0.058-0.097-0.095-0.147c-0.02-0.027-0.047-0.049-0.066-0.076c-0.2-0.269-0.424-0.544-0.703-0.828
			c-0.039-0.04-0.087-0.073-0.127-0.112c-0.026-0.026-0.047-0.057-0.073-0.083c-0.062-0.059-0.136-0.103-0.2-0.16
			c-0.266-0.238-0.541-0.46-0.833-0.664c-0.04-0.027-0.073-0.064-0.113-0.09c-0.069-0.046-0.143-0.086-0.213-0.132
			c-0.093-0.06-0.182-0.13-0.274-0.188c-0.103-0.063-0.21-0.114-0.312-0.176c-0.53-0.321-1.068-0.628-1.621-0.914
			c-0.021-0.011-0.042-0.025-0.063-0.036l-0.011-0.005l-0.011-0.004l-0.414-0.163c-0.281-0.122-0.607-0.241-0.955-0.359
			c-1.437-0.514-2.907-0.944-4.283-1.527c-0.198-0.172-0.393-0.368-0.566-0.57c-0.046-0.058-0.093-0.115-0.136-0.171
			c0.055-0.629,0.277-1.048,0.618-1.365c0.039-0.036,0.069-0.077,0.11-0.109c0.456-0.365,1.141-0.571,1.89-0.569
			c0.208-0.002,0.419,0.019,0.628,0.049c0.947,0.14,1.859,0.589,2.382,1.227c0.087,0.105,0.164,0.214,0.227,0.329
			c0,0,0.095,0.163,0.21,0.364c0.117,0.202,0.276,0.314,0.357,0.251c0.073-0.057,0.146-0.113,0.146-0.113l0.372-0.288
			c0.6-0.479,1.576-0.807,2.52-1.332l0.418-0.238c0,0,0.024-0.014,0.057-0.032c0.031-0.018,0.027-0.121-0.012-0.229
			c-0.034-0.098-0.069-0.195-0.069-0.195l-0.064-0.187c-0.085-0.241-0.2-0.455-0.309-0.675c0.018-0.014,0.034-0.03,0.061-0.056
			c0.081-0.175,0.04-0.243,0.026-0.322c-0.295-0.938-0.782-1.811-1.445-2.531c-1.329-1.447-3.274-2.232-5.209-2.291
			c-0.963-0.043-1.951,0.111-2.863,0.42c-0.919,0.3-1.807,0.69-2.638,1.185l-0.004,0.002l-0.003,0.003
			c-1.475,1.212-2.587,2.92-2.893,4.816c-0.176,1.454,0.054,2.989,0.718,4.296c0.212,0.872,0.559,1.706,1.098,2.412
			c0.011,0.014,0.018,0.029,0.028,0.042c1.335,1.63,3.976,2.376,6.361,3.305c0.301,0.113,0.597,0.227,0.884,0.344
			c0.851,0.342,1.628,0.699,2.229,1.081c0.437,0.277,0.746,0.554,0.963,0.831c0.011,1.208-0.727,2.399-1.849,2.889
			c-1.123,0.458-2.314,0.638-3.515,0.671H36.23l-0.016-0.006c-0.694-0.236-1.321-0.559-1.929-0.956
			c-0.631-0.406-0.994-1.064-1.375-1.656c-0.204-0.346-0.39-0.697-0.568-1.054c-0.292-0.67-0.556-1.312-0.792-1.851
			c-0.596-1.345-1.144-2.719-1.714-4.071c-0.354-0.844-0.726-1.673-1.113-2.486c-0.309-0.706-0.625-1.405-0.967-2.092
			c-1.233-2.484-2.86-4.854-5.211-6.352c-2.324-1.519-5.164-2.087-7.903-1.997c-2.793,0.155-5.507,1.178-7.754,2.827
			c-0.126-0.008,0.076-0.237,0.319-0.487c0.307-0.31,0.681-0.626,0.438-0.6c-1.805,0.785-3.286,2.189-4.066,3.349
			c-0.795,1.165-0.979,2.007-0.672,1.845c-1.516,1.916-2.761,4.745-2.889,7.941c-0.177,3.167,0.878,6.614,2.804,9.137
			c0.707,0.689-0.726-1.621,0.349-0.397c0.432,0.81,1.015,1.63,1.732,2.405c0.145,0.177,0.474,0.456,0.611,0.591l0.242,0.229
			c0.07,0.07,0.183,0.168,0.315,0.277c0.08,0.062,0.085,0.079,0.227,0.18l0.138,0.107c0.085,0.066,0.184,0.143,0.326,0.237
			c0.268,0.187,0.497,0.33,0.742,0.479c0.974,0.581,2.005,1.028,3.047,1.357c0.522,0.162,1.046,0.297,1.569,0.402
			c0.262,0.049,0.522,0.099,0.783,0.133l0.389,0.052l0.487,0.047c0.456,0.021,0.879,0.035,1.32,0.038
			c0.202,0.001,0.486,0.001,0.738-0.013l0.627-0.045c0.928-0.082,1.698-0.251,2.368-0.461c1.327-0.421,2.067-0.951,2.105-1.172
			c-2.208,0.919-4.778,1.028-6.878,0.744c-2.411-0.295-4.526-1.09-6.511-2.373c-3.057-2.109-5.039-5.288-5.838-8.659
			c0.171,0.644,0.378,1.28,0.646,1.899c0.629,1.473,1.51,2.854,2.608,4.069c0.273,0.307,0.564,0.597,0.866,0.878
			c0.337,0.313,0.643,0.533,0.937,0.782c0.696,0.548,1.417,0.96,2.169,1.329c0.062,0.03,0.127,0.052,0.19,0.081
			c1.492,0.831,3.159,1.397,4.993,1.586c0.289,0.03,0.567,0.048,0.843,0.066c0.418,0.026,0.826,0.045,1.217,0.045
			c0.029,0,0.059,0,0.087,0c4.597,0,7.25-2,9.761-4.813c0.122-0.136,0.243-0.271,0.364-0.411l0.225-0.257
			c0,0,0.02-0.022,0.045-0.051c0.021-0.022,0.001-0.109-0.034-0.204c0.143-0.162,0.29-0.325,0.425-0.484l0.542-0.64l-0.346-0.649
			c-0.658-1.237-1.007-2.715-2.034-4.226L25.17,26.16l-0.051-0.055l-0.889-0.94l-1.085-1.148l-0.705,1.378l-0.492,0.962
			l-0.228,0.409l-0.293,0.461c-0.323,0.479-0.779,1-1.255,1.407c-0.968,0.839-2.181,1.393-3.478,1.621
			c-2.563,0.477-5.527-0.395-7.324-2.35c-1.23-1.304-1.909-3.115-1.998-4.969c0.426-3.321,2.395-5.431,4.913-6.419
			c1.111-0.435,2.32-0.662,3.55-0.673c3.044,0,6.036,1.374,7.565,3.987c0.121,0.252,0.242,0.505,0.358,0.759
			c0.589,1.319,1.085,2.68,1.579,4.038c0.979,2.654,1.869,5.37,3.422,7.786c0.368,0.664,0.761,1.291,1.195,1.854
			c1.485,1.894,3.729,2.927,6.083,3.255c0.546,0.077,1.096,0.127,1.646,0.128c0.7-0.003,1.402-0.066,2.093-0.187
			c2.691-0.474,5.167-1.864,6.438-4.198c0.031-0.056,0.065-0.107,0.095-0.165c0.043-0.086,0.077-0.169,0.117-0.255
			c0.096-0.128,0.198-0.249,0.286-0.383c0.383-0.605,0.662-1.161,0.925-1.775c0.129-0.305,0.249-0.617,0.352-0.943
			c0.057-0.169,0.094-0.314,0.147-0.521c0.037-0.153,0.073-0.257,0.111-0.455C48.084,27.709,47.73,27.532,47.442,27.938z
			 M32.409,12.658c-1.244,0.984-2.174,2.394-2.489,4.113c-0.006-0.33,0.004-0.658,0.046-0.976c0.266-1.679,1.289-3.274,2.627-4.379
			c0.765-0.454,1.613-0.827,2.471-1.106c0.888-0.293,1.702-0.424,2.646-0.388c1.782,0.054,3.561,0.784,4.751,2.087
			c0.188,0.207,0.355,0.43,0.514,0.661c-1.363-1.269-3.227-1.879-5.075-1.869c-0.245,0-0.491,0.011-0.737,0.03
			c-1.357,0.109-2.699,0.528-3.871,1.227C32.985,12.242,32.688,12.436,32.409,12.658z M19.555,10.908
			c-0.834-0.209-1.733-0.354-2.705-0.416c-0.349-0.023-0.692-0.036-1.034-0.036c-6.412,0.005-11.124,4.129-12.905,9.139
			c-0.41,1.155-0.665,2.358-0.748,3.569c-0.012,0.156-0.011,0.311-0.017,0.468c-0.002,0.053-0.003,0.104-0.006,0.158
			c-0.106-1.855,0.157-3.728,0.817-5.463c1.096-2.891,3.33-5.322,6.054-6.816c4.49-2.574,10.584-2.155,14.475,1.168
			C22.366,11.901,21.072,11.289,19.555,10.908z M40.756,31.941c-0.799,0.599-1.936,0.941-3.112,0.939
			c-0.624,0-1.256-0.094-1.85-0.284c-0.462-0.133-0.951-0.533-1.419-1.092c-0.025-0.032-0.052-0.071-0.078-0.104
			c0.537,0.328,1.065,0.563,1.733,0.806l0.096,0.035l0.121-0.005c1.317-0.043,2.5-0.215,3.783-0.732
			c0.735-0.325,1.238-0.816,1.653-1.444c0.147-0.229,0.256-0.479,0.346-0.732c0.003,0.033,0.009,0.068,0.009,0.101
			C42.03,30.54,41.553,31.338,40.756,31.941z M44.673,23.935c-0.731-0.604-1.55-1.107-2.384-1.529
			c-0.477-0.242-0.96-0.458-1.435-0.649c-0.417-0.168-0.829-0.319-1.228-0.454c-0.94-0.314-2.107-0.604-3.049-1.031
			c-0.443-0.199-0.804-0.418-1.082-0.653c-0.326-0.276-0.534-0.577-0.598-0.905c-0.003-0.013-0.003-0.024-0.006-0.038
			c0.067,0.065,0.134,0.131,0.209,0.195l0.047,0.041l0.056,0.024c0.298,0.13,0.596,0.24,0.895,0.354
			c0.045,0.018,0.091,0.037,0.137,0.054c0.302,0.113,0.602,0.221,0.904,0.324c0.095,0.033,0.189,0.066,0.284,0.098
			c0.325,0.109,0.648,0.221,0.971,0.329c0.639,0.214,1.272,0.432,1.892,0.687l0.609,0.235c1.072,0.564,2.522,1.237,3.605,2.2
			c0.965,0.826,1.616,1.873,1.959,2.765C45.991,25.193,45.372,24.508,44.673,23.935z"/>
	</g>
</g>
<g>
</g>
<g>
</g>
<g>
</g>
<g>
</g>
<g>
</g>
<g>
</g>
<g>
</g>
<g>
</g>
<g>
</g>
<g>
</g>
<g>
</g>
<g>
</g>
<g>
</g>
<g>
</g>
<g>
</g>
</svg>
