<?xml version="1.0" encoding="iso-8859-1"?>
<!-- Generator: Adobe Illustrator 16.0.0, SVG Export Plug-In . SVG Version: 6.00 Build 0)  -->
<!DOCTYPE svg PUBLIC "-//W3C//DTD SVG 1.1//EN" "http://www.w3.org/Graphics/SVG/1.1/DTD/svg11.dtd">
<svg version="1.1" id="Capa_1" xmlns="http://www.w3.org/2000/svg" xmlns:xlink="http://www.w3.org/1999/xlink" x="0px" y="0px"
	 width="57.93px" height="57.93px" viewBox="0 0 57.93 57.93" style="enable-background:new 0 0 57.93 57.93;" xml:space="preserve"
	>
<g>
	<g>
		<path d="M49.893,25.601c-2.538-1.081-5.646-1.174-7.319-3.705c-2.135-3.231,3.776-3.498,5.218-1.419
			c0.452,0.652,0.085,0.354,0.755,0.826c0.418,0.294,1.442-0.144,1.783-0.407c1.281-0.99,2.811-1.587,4.211-2.385
			c0.094-0.053,0.237-0.143,0.231-0.27c-0.326-6.768-9.507-6.679-13.97-5.268c-3.823,1.208-6.139,4.624-6.376,8.189
			c-0.037,0.552-0.228,0.607-0.508,0.13c-3.587-6.106-8.688-10.686-16.976-9.668C10.096,12.467,4.557,15.95,1.51,22.272
			c-3.878,8.051,0.12,17.593,7.386,22.019c5.268,3.21,12.673,2.601,17.904-0.269c1.954-1.07,4.468-3.105,5.559-5.064
			c0.06-0.106,0.094-0.229,0.108-0.365c0.021-0.211,0.13-0.095,0.305,0.261c0.105,0.215,0.213,0.428,0.324,0.64
			c5.552,10.571,22.66,7.584,24.754-3.666c0.101-0.543,0.109-1.438,0.011-1.979C57.092,29.638,53.845,27.284,49.893,25.601z
			 M30.794,34.823c-0.662-0.94-1.358-1.777-1.766-2.222c-0.326-0.355-1.629,0.201-1.863,0.499c-1.002,1.274-1.53,2.471-2.717,3.75
			c-4.212,4.542-9.711,2.157-13.028-0.688c-3.772-3.237-3.678-9.07-1.541-13.101c2.619-4.938,9.672-4.651,13.854-2.14
			c2.35,1.411,3.46,4.242,4.483,6.639c1.009,2.361,1.837,4.781,2.764,7.162C31.182,35.239,31.112,35.275,30.794,34.823z
			 M55.918,36.346c-0.989,5.312-5.301,8.339-9.92,8.652c-0.551,0.037-1.263-0.061-1.584-0.173c-0.32-0.114-0.646-0.149-0.733-0.066
			c-0.086,0.083-0.602,0.091-1.139-0.035c-0.271-0.063-0.542-0.138-0.809-0.222c-0.527-0.164-0.765-0.517-0.547-0.736
			c0.217-0.22,0.308-0.458,0.203-0.532s-0.379,0.058-0.616,0.302c-0.237,0.243-0.839,0.258-1.318-0.019
			c-0.243-0.139-0.48-0.287-0.716-0.444c-0.458-0.311-0.505-0.904-0.136-1.285c0.37-0.381,0.457-0.98,0.213-1.351
			c-0.245-0.369-0.743-0.36-1.132,0.031c-0.071,0.071-0.144,0.145-0.214,0.215c-0.39,0.394-0.88,0.524-1.082,0.284
			c-0.202-0.239-0.042-0.76,0.347-1.152c0.124-0.125,0.248-0.25,0.372-0.375c0.389-0.392,0.679-0.757,0.646-0.812
			c-0.031-0.057-0.364,0.222-0.744,0.622c-0.133,0.139-0.264,0.276-0.394,0.414c-0.38,0.399-0.737,0.663-0.797,0.587
			c-0.036-0.046-0.072-0.093-0.106-0.142c-1.74-2.465-2.856-5.373-3.886-8.304c-0.183-0.521-0.004-1.251,0.397-1.631
			c0.271-0.257,0.542-0.514,0.81-0.768c0.401-0.38,0.709-0.732,0.689-0.785c-0.021-0.054-0.358,0.216-0.752,0.603
			c-0.271,0.265-0.54,0.527-0.81,0.79c-0.395,0.388-0.86,0.276-1.044-0.245c-0.114-0.323-0.228-0.647-0.344-0.97
			c-0.187-0.52-0.014-1.243,0.391-1.618c0.229-0.212,0.456-0.423,0.685-0.635c0.404-0.376,0.6-0.978,0.425-1.341
			c-0.174-0.362-0.652-0.347-1.057,0.029c-0.199,0.185-0.398,0.37-0.598,0.555c-0.405,0.376-0.794,0.523-0.872,0.327
			c-0.046-0.118-0.093-0.235-0.143-0.35c-0.055-0.128-0.115-0.252-0.177-0.374c-0.103-0.204,0.137-0.674,0.54-1.052
			c0.156-0.147,0.314-0.294,0.471-0.441c0.403-0.377,0.655-0.802,0.56-0.946c-0.095-0.144-0.498,0.058-0.891,0.445
			c-0.131,0.129-0.269,0.266-0.415,0.409c-0.392,0.389-0.928,0.312-1.238-0.146c-0.145-0.214-0.296-0.422-0.453-0.625
			c-0.337-0.437-0.33-1.087,0.055-1.482c0.029-0.029,0.058-0.059,0.086-0.088c0.385-0.396,0.574-0.808,0.415-0.912
			s-0.61,0.123-1.005,0.502c-0.396,0.379-1.033,0.368-1.455,0.012c-0.285-0.241-0.579-0.469-0.883-0.683
			c-0.452-0.318-0.658-0.722-0.432-0.944c0.226-0.223,0.039-0.506-0.425-0.599c-0.464-0.094-0.949-0.031-1.077,0.101
			c-0.128,0.131-0.641,0.056-1.163-0.125c-3.29-1.133-7.046-0.901-10.351,1.118c-8.194,5.005-6.3,16.454,2.503,19.48
			c2.546,0.875,5.561,0.489,8.044-0.389c2.373-0.84,3.729-2.308,5.04-4.015c0.336-0.438,0.866-0.438,1.177,0.02
			c0.107,0.155,0.214,0.315,0.322,0.479c0.304,0.462,0.205,1.147-0.202,1.521c-0.178,0.163-0.353,0.322-0.525,0.479
			c-0.407,0.373-0.341,0.461,0.11,0.144c0.185-0.13,0.366-0.269,0.543-0.412c0.428-0.351,0.976-0.286,1.231,0.203
			c0.447,0.86,0.696,1.582,0.471,1.836c-3.162,3.551-5.953,6.108-11.311,6.323c-8.664,0.35-15.096-5.859-16.897-13.928
			c-2.588-11.576,8.339-21.089,19.539-18.824c9.931,2.008,12.685,14.42,16.27,22.262c2.047,4.479,5.363,5.88,9.989,4.245
			c1.196-0.424,2.924-1.553,3.144-2.945c0.092-0.577,0.105-1.081,0.053-1.524c-0.066-0.549,0.059-1.281,0.447-1.675
			c0.011-0.011,0.021-0.021,0.03-0.031c0.389-0.393,0.575-0.784,0.416-0.873c-0.16-0.087-0.555,0.117-0.882,0.451
			c-0.326,0.335-0.851,0.234-1.278-0.116c-0.207-0.171-0.436-0.329-0.684-0.481c-0.471-0.288-0.724-0.636-0.532-0.832
			c0.192-0.196,0.293-0.375,0.228-0.4c-0.039-0.016-0.079-0.03-0.12-0.047c-0.205-0.079-0.411-0.158-0.617-0.234
			c-0.341-0.13-0.757-0.092-0.929,0.083c-0.173,0.174-0.348,0.299-0.391,0.279c-0.024-0.012-0.051-0.021-0.078-0.034
			c-0.163-0.07-0.327-0.14-0.491-0.205c-0.273-0.111-0.364-0.331-0.202-0.496c0.163-0.164,0.178-0.343,0.035-0.396
			c-0.144-0.056-0.387,0.035-0.543,0.201c-0.157,0.167-0.671,0.156-1.149-0.021c-0.479-0.176-0.726-0.469-0.554-0.651
			c0.172-0.186,0.027-0.463-0.312-0.642c-0.339-0.177-0.778-0.162-0.993,0.051c-0.214,0.213-0.803,0.219-1.302-0.019
			c-1.642-0.779-3.115-1.802-4.171-3.503c-1.284-2.068-1.368-4.38-0.635-6.453c0.184-0.521,0.716-1.225,1.122-1.599
			c1.027-0.948,2.204-2.033,3.489-3.222c0.405-0.375,1.149-0.85,1.682-0.996c0.273-0.075,0.552-0.138,0.836-0.186
			c0.544-0.092,0.665,0.2,0.26,0.576c-0.153,0.142-0.306,0.283-0.459,0.426c-0.405,0.375-0.544,0.536-0.302,0.37
			c0.146-0.101,0.295-0.197,0.447-0.288c0.518-0.309,1.064-0.566,1.629-0.779c0.517-0.195,1.394-0.254,1.926-0.104
			c1.683,0.476,3.123,1.495,4.271,2.869c0.354,0.423,0.596,0.994,0.836,1.491c0.05,0.103,0.103,0.207,0.154,0.31
			c0.253,0.49,0.157,1.037-0.332,1.294c-0.475,0.25-0.949,0.49-1.417,0.74c-0.486,0.261-1.21,0.193-1.611-0.185
			c-1.064-1.003-2.067-1.957-3.922-1.698c-1.181,0.165-3.068,0.291-3.851,1.385c-2.484,3.475,1.24,5.182,4.107,6.088
			c4.739,1.498,9.538,3.885,10.499,9.03C56.028,34.908,56.02,35.804,55.918,36.346z M38.039,28.797
			c3.228,2.055,8.67,2.044,10.873,5.148c0.32,0.449,0.51,1.062,0.531,1.302c0.021,0.239-0.375,0.607-0.883,0.824
			c-1.629,0.693-3.258,1.388-4.889,2.081c-0.508,0.216-1.257,0.095-1.627-0.315c-0.543-0.6-1.003-1.26-1.381-1.979
			c-1.25-2.067-2.149-4.444-3.054-6.729C37.407,28.616,37.573,28.501,38.039,28.797z"/>
		<path d="M34.036,32.125c-0.234,0.214-0.469,0.426-0.7,0.636c-0.408,0.372-0.666,0.754-0.572,0.854l0.167,0.182
			c0.007,0.008,0.013,0.017,0.02,0.025c0.01,0.014,0.333-0.294,0.719-0.688c0.186-0.188,0.37-0.379,0.556-0.567
			c0.386-0.395,0.667-0.805,0.627-0.913C34.81,31.542,34.445,31.754,34.036,32.125z"/>
		<path d="M38.927,23.512c-0.288,0.281-0.5,0.553-0.476,0.605c0.025,0.053,0.27-0.116,0.545-0.38
			c0.276-0.264,0.489-0.535,0.476-0.606C39.457,23.059,39.214,23.229,38.927,23.512z"/>
		<path d="M35.513,35.964c-0.075,0.075-0.15,0.15-0.226,0.226c-0.39,0.393-0.574,1.083-0.397,1.54
			c0.109,0.286,0.223,0.562,0.346,0.815c0,0,0.016,0.034,0.035,0.076c0.019,0.041,0.341-0.252,0.718-0.655
			c0.09-0.097,0.18-0.193,0.271-0.289c0.377-0.402,0.513-1.104,0.312-1.572S35.902,35.573,35.513,35.964z"/>
		<path d="M39.438,22.948c-0.004-0.021-0.246,0.193-0.538,0.479c-0.293,0.286-0.523,0.533-0.514,0.552
			c0.009,0.019,0.249-0.195,0.536-0.479C39.211,23.216,39.442,22.97,39.438,22.948z"/>
		<path d="M40.556,16.567c-1.106,1.026-2.211,2.052-3.317,3.078c-0.405,0.375-0.57,0.955-0.38,1.301
			c0.19,0.347,0.668,0.324,1.072-0.052c0.288-0.268,0.575-0.535,0.862-0.803c0.404-0.376,0.825-1.12,1.013-1.641
			c0.227-0.633,0.524-1.222,0.883-1.764C40.992,16.227,40.96,16.192,40.556,16.567z"/>
		<path d="M54.391,34.563c-0.003-0.014-0.007-0.026-0.013-0.042c-0.008-0.021-0.335,0.271-0.734,0.651
			c-0.286,0.272-0.571,0.54-0.854,0.795c-0.994,0.958-2.05,1.978-3.146,3.035c-0.398,0.383-0.697,0.694-0.669,0.697
			c0.017,0.002,0.032,0.004,0.05,0.004c0.25,0.001,0.496-0.017,0.739-0.044c0.405-0.048,1.045-0.435,1.436-0.824
			c0.847-0.848,1.694-1.694,2.543-2.544c0.39-0.391,0.709-0.741,0.716-0.784c0.004-0.024,0.01-0.051,0.01-0.079
			c0-0.137-0.025-0.29-0.037-0.434C54.416,34.853,54.416,34.716,54.391,34.563z"/>
	</g>
</g>
<g>
</g>
<g>
</g>
<g>
</g>
<g>
</g>
<g>
</g>
<g>
</g>
<g>
</g>
<g>
</g>
<g>
</g>
<g>
</g>
<g>
</g>
<g>
</g>
<g>
</g>
<g>
</g>
<g>
</g>
</svg>
