<?xml version="1.0" encoding="iso-8859-1"?>
<!-- Generator: Adobe Illustrator 16.0.0, SVG Export Plug-In . SVG Version: 6.00 Build 0)  -->
<!DOCTYPE svg PUBLIC "-//W3C//DTD SVG 1.1//EN" "http://www.w3.org/Graphics/SVG/1.1/DTD/svg11.dtd">
<svg version="1.1" id="Capa_1" xmlns="http://www.w3.org/2000/svg" xmlns:xlink="http://www.w3.org/1999/xlink" x="0px" y="0px"
	 width="44.107px" height="44.107px" viewBox="0 0 44.107 44.107" style="enable-background:new 0 0 44.107 44.107;"
	 xml:space="preserve">
<g>
	<g>
		<path d="M16.429,42.568c4.348-2.086,12.591-10.037,9.903-15.344c-0.108-0.216-0.523-0.204-0.94-0.097
			c-0.537,0.14-1.607,0.973-2.457,1.68c-4.33,3.61-9.304,8.196-13.887,1.88c-3.268-4.507,5.394-11.163,8.204-12.887
			c0.087-0.053,0.348-0.253,0.168-0.368c-4.334-2.752-8.518-0.298-11.887,2.847c-2.007,1.874-5.362,5.358-5.522,8.277
			c-0.223,4.071,2.919,7.062,5.244,10.082c1.83,2.378,3.849,4.161,6.226,4.665c1.081,0.229,1.913,0.184,1.819,0.269
			c-0.093,0.085,0.3,0.185,0.868,0.102c0.568-0.084,0.895-0.284,0.756-0.345c-0.138-0.06,0.16-0.216,0.645-0.396
			C15.853,42.83,16.138,42.708,16.429,42.568z M24.459,28.939c0.168-0.152,0.311-0.257,0.314-0.232s-0.13,0.148-0.304,0.277
			C24.297,29.113,24.292,29.092,24.459,28.939z M6.485,20.984c0.261-0.285,0.526-0.565,0.799-0.837
			c0.303-0.349,0.628-0.652,0.973-0.911c0.589-0.443,0.399-0.177-0.436,0.545c-0.239,0.207-0.474,0.42-0.706,0.639
			C6.313,21.179,6.054,21.456,6.485,20.984z M2.665,26.71c0.311-0.927,1.342-2.259,2.112-3.051c1.297-1.332,2.551-2.62,3.749-3.848
			c0.771-0.791,1.505-1.469,1.639-1.512c0.074-0.024,0.153-0.048,0.244-0.07c0.308-0.07,0.627-0.116,0.958-0.139
			c0.533-0.036,0.343,0.642-0.426,1.435c-2.418,2.492-4.833,4.983-7.247,7.478C2.925,27.795,2.353,27.638,2.665,26.71z
			 M11.463,41.928c-0.989-0.492-1.436-1.337-1.168-1.608c0.269-0.272,0.444-0.545,0.393-0.608c-0.051-0.062-0.33,0.105-0.623,0.375
			c-0.293,0.272-0.82,0.232-1.156-0.104c-0.337-0.338-0.324-0.877,0.012-1.187c0.336-0.309,0.399-0.832,0.14-1.17
			c-0.259-0.337-0.757-0.344-1.108-0.016c-0.351,0.328-1.011,0.139-1.466-0.432c-0.28-0.352-0.554-0.697-0.824-1.033
			c-0.191-0.237-0.371-0.47-0.544-0.698c-0.294-0.39-0.226-1.021,0.142-1.399c0.368-0.379,0.509-0.946,0.337-1.28
			c-0.172-0.335-0.62-0.29-1.024,0.111c-0.404,0.403-1.015,0.284-1.31-0.295c-0.295-0.579-0.047-1.505,0.485-2.034
			c0.321-0.318,0.643-0.638,0.965-0.957c0.012-0.014,0.024-0.024,0.036-0.038c0.02-0.021,0.037-0.062,0.037-0.093
			c0-0.029-0.456,0.389-1.021,0.934c-0.565,0.546-1.133,0.697-1.236,0.332c-0.103-0.366,0.484-1.301,1.271-2.075
			c0.08-0.078,0.159-0.157,0.239-0.235c0.787-0.774,1.67-1.934,2.046-2.546c0.212-0.346,0.454-0.703,0.726-1.076
			c1.322-1.697,3.077-3.817,5.038-5.398c0.86-0.693,1.871-1.103,2.156-1.035c0.285,0.068-0.258,0.597-1.151,1.247
			c-1.107,0.806-2.126,1.693-3.098,2.712c-1.701,1.784-3.428,5.204-3.173,7.648c0.323,3.098,4.292,5.004,6.946,5.196
			c2.997,0.22,5.585-1.481,7.917-3.483c0.838-0.721,1.336-1.186,1.146-0.999c-0.19,0.186-0.559,0.635-0.872,0.966
			c-0.312,0.331-0.693,0.562-0.759,0.627c-0.065,0.064-0.253,0.302-0.454,0.496c-0.201,0.194-0.902,0.83-1.538,1.451
			c-0.636,0.621-0.499,0.512,0.304-0.246c1.383-1.306,2.734-2.581,4.056-3.833c0.802-0.761,1.721-0.49,1.586,0.605
			c-0.441,3.586-4.346,6.937-6.659,9.311C15.658,42.727,13.429,42.904,11.463,41.928z"/>
		<path d="M28.852,18.795c-0.536-3.933-4.33-3.901-7-1.773c-2.794,2.228-8.164,4.074-9.365,7.744
			c-0.082,0.248,0.117,0.372,0.415,0.397c0.376,0.033,0.645-0.017,0.627,0.055c-0.011,0.044-0.015,0.088-0.011,0.133
			c0.378,4.588,3.869,6.197,7.626,3.543C23.827,26.998,29.377,22.658,28.852,18.795z M22.447,26.202
			c-0.926,0.878-1.929,1.681-2.97,2.416c-0.362,0.256-0.692,0.42-0.994,0.508c-0.595,0.173-0.807-0.33-0.445-0.702
			c0.362-0.373,0.573-0.936,0.502-1.265c-0.071-0.329-0.15-0.557-0.208-0.502c-0.034,0.033-0.068,0.066-0.104,0.102
			c-0.282,0.28-0.56,0.558-0.837,0.833c-0.462,0.461-1.331,0.122-1.611-0.89c-0.191-0.692-0.29-1.386-0.33-1.869
			c-0.002-0.03-0.013-0.058-0.026-0.081c-0.023-0.042,0.587-0.699,1.374-1.476c0.901-0.888,1.802-1.777,2.703-2.667
			c0.787-0.776,0.669-0.921-0.257-0.319c-0.872,0.567-1.786,1.179-2.614,1.796c-0.885,0.661-0.982,0.561-0.109-0.116
			c1.124-0.873,2.448-1.593,3.414-2.22c1.844-1.197,5.841-4.81,6.878-1.223C27.656,21.442,24.283,24.462,22.447,26.202z"/>
		<path d="M27.69,1.117c-5.626,2.098-13.218,9.512-8.621,15.609c0.339,0.45,1.349,0.017,1.669-0.229
			c0.025-0.02,0.051-0.037,0.078-0.055c0.044-0.029-0.02,0.039-0.14,0.155c-0.121,0.116,0.269-0.173,0.929-0.556
			s1.214-0.664,1.199-0.709c-0.016-0.045,0.391-0.287,0.932-0.488c0.324-0.121,0.655-0.227,0.995-0.318
			c0.174-0.061,0.578-0.273,0.588-0.504c0.116-2.601,1.71-7.649,5.949-6.354c2.328,0.711,4.259,3.226,4.031,5.628
			c-0.104,1.1-1.441,2.319-2.299,3.016c-0.881,0.716-1.801,1.546-1.868,1.797c-0.724,2.721-0.941,4.306-2.786,6.597
			c-0.208,0.258,0.047,0.48,0.302,0.52c0.851,0.131,1.737,0.1,2.639-0.068c1.086-0.201,1.818-0.457,1.693-0.343
			c-0.125,0.113-0.019,0.132,0.233,0.024c0.252-0.104,0.504-0.271,0.564-0.357c0.06-0.087,0.934-0.515,1.875-1.09
			c4.219-2.585,7.878-7.361,8.424-11.617c0.141-1.096-0.229-2.862-0.707-3.858C40.634,2.23,33.792-1.159,27.69,1.117z M20.917,8.246
			c1.082-1.691,2.662-3.209,4.173-4.412c0.486-0.387,0.986-0.713,1.495-0.987c0.872-0.47,1.414-0.606,1.132-0.471
			c-0.281,0.136-1.131,0.897-1.901,1.688c-1.471,1.509-2.94,3.018-4.411,4.527C20.632,9.382,20.321,9.176,20.917,8.246z
			 M42.054,12.287c-0.359,1.665-1.323,3.251-2.185,4.638c-0.918,1.478-2.083,2.808-3.293,4.049c-0.252,0.248-0.51,0.488-0.775,0.721
			c-0.438,0.387-1.417,1.43-2.473,1.752c-0.06,0.018-0.12,0.035-0.18,0.049c-1.073,0.263-1.62-0.493-1.324-1.128
			s1.109-1.799,1.91-2.56c2.018-1.918,3.943-3.752,5.768-5.494c0.799-0.763,1.424-1.449,1.385-1.53
			c-0.037-0.08-0.714,0.481-1.504,1.252c-1.224,1.194-2.44,2.384-3.648,3.568c-0.789,0.773-0.79,0.773-0.003-0.002
			c1.19-1.171,2.467-2.424,3.647-3.586c0.788-0.774,1.419-1.417,1.412-1.433c-0.007-0.017-0.654,0.595-1.444,1.367
			c-1.841,1.799-3.664,3.582-5.468,5.344c-0.79,0.772-1.212,0.522-0.755-0.483c0.286-0.629,0.649-1.195,1.181-1.627
			c1.669-1.357,4.236-3.057,3.575-5.489c-0.008-0.029-0.021-0.058-0.035-0.087c-0.021-0.047,0.229-0.336,0.559-0.643
			c0.329-0.307,0.359-0.823,0.056-1.141c-0.304-0.318-0.768-0.374-1.022-0.137c-0.256,0.237-0.701,0.135-1.027-0.195
			c-0.326-0.331-0.435-0.74-0.217-0.941c0.218-0.201,0.216-0.486-0.018-0.613c-0.232-0.127-0.579-0.073-0.758,0.095
			s-0.812-0.082-1.442-0.517c-0.421-0.289-0.819-0.545-1.163-0.758c-1.439-0.888-3.206-0.278-4.609,0.251
			c-1.933,0.73-3.488,2.814-4.365,4.559c-0.659,1.311-1.18,2-1.801,2.556c-0.823,0.737-1.938,0.672-2.176-0.04
			c-0.238-0.712,0.366-1.957,1.152-2.733c0.659-0.651,1.318-1.302,1.978-1.952c0.788-0.776,1.957-2.127,2.719-2.926
			c0.123-0.129,0.248-0.257,0.376-0.383c0.785-0.777,2.088-1.999,2.823-2.823c0.023-0.026,0.047-0.052,0.07-0.078
			c0.734-0.825,1.874-1.552,2.544-1.533c0.404,0.012,0.808,0.049,1.208,0.112c3.647,0.585,6.986,3.149,8.704,6.67
			C41.917,9.43,42.289,11.207,42.054,12.287z"/>
	</g>
</g>
<g>
</g>
<g>
</g>
<g>
</g>
<g>
</g>
<g>
</g>
<g>
</g>
<g>
</g>
<g>
</g>
<g>
</g>
<g>
</g>
<g>
</g>
<g>
</g>
<g>
</g>
<g>
</g>
<g>
</g>
</svg>
