<?xml version="1.0" encoding="iso-8859-1"?>
<!-- Generator: Adobe Illustrator 16.0.0, SVG Export Plug-In . SVG Version: 6.00 Build 0)  -->
<!DOCTYPE svg PUBLIC "-//W3C//DTD SVG 1.1//EN" "http://www.w3.org/Graphics/SVG/1.1/DTD/svg11.dtd">
<svg version="1.1" id="Capa_1" xmlns="http://www.w3.org/2000/svg" xmlns:xlink="http://www.w3.org/1999/xlink" x="0px" y="0px"
	 width="45.884px" height="45.884px" viewBox="0 0 45.884 45.884" style="enable-background:new 0 0 45.884 45.884;"
	 xml:space="preserve">
<g>
	<g>
		<path d="M4.652,12.861c2.738,0.115,5.506-0.69,6.785-3.304c1.603-3.277-1.319-6.338-4.443-6.483c-0.015-0.001-0.033,0-0.052,0.001
			C6.913,3.078,6.868,3.08,6.839,3.08c-0.016,0-0.033,0-0.052,0C4.196,3.166,1.475,4.045,0.353,6.582
			C-0.972,9.579,1.644,12.734,4.652,12.861z M2.358,6.32c0.389-1.009,1.165-1.856,2.331-2.24c0.525-0.172,0.654,0.11,0.254,0.492
			C4.261,5.224,3.557,5.898,2.831,6.594C2.433,6.976,2.16,6.835,2.358,6.32z M2.821,6.684c0.75-0.719,1.49-1.428,2.216-2.123
			c0.399-0.382,1.177-0.678,1.705-0.518c4.175,1.273,4.287,8.727-1.259,7.976c-0.09-0.012-0.175-0.031-0.258-0.052
			c-0.141-0.036-0.066-0.26,0.166-0.496c0.232-0.235,0.325-0.496,0.208-0.586c-0.07-0.054-0.14-0.11-0.203-0.174
			c-0.046-0.047-0.087-0.097-0.126-0.148c-0.066-0.085-0.377,0.095-0.694,0.401c-0.317,0.306-0.583,0.549-0.596,0.544
			s0.236-0.263,0.557-0.573c0.321-0.311,0.303-0.328-0.024-0.021c-0.327,0.308-0.86,0.404-1.148,0.141
			c-0.288-0.263-0.151-0.836,0.245-1.221c0.016-0.016,0.033-0.032,0.049-0.048C4.055,9.4,4.265,8.791,4.194,8.409
			C4.124,8.028,3.8,8.027,3.407,8.416c-0.12,0.119-0.24,0.239-0.36,0.358C2.655,9.163,2.173,9.056,2.103,8.508
			C2.097,8.464,2.092,8.419,2.088,8.374C2.034,7.825,2.422,7.066,2.821,6.684z"/>
		<path d="M6.23,15.687c-0.134,0-0.269,0.01-0.446,0.039c-0.238,0.039-0.463,0.086-0.679,0.141c-0.37,0.095-1.084,0.286-1.548,0.529
			c-0.28,0.148-0.542,0.329-0.78,0.538c-3.27,2.574-2.128,8.217-2.128,12.52c0,5.033-1.778,13.907,5.896,13.242
			c6.856-0.594,5.375-7.78,5.375-12.783C11.919,24.474,13.954,15.687,6.23,15.687z M9.798,39.758
			c-0.184,1.142-0.677,1.806-1.324,2.117c-0.498,0.238-0.813,0.187-0.626,0.133c0.187-0.055,0.355-0.134,0.382-0.162
			c0.027-0.027-0.284-0.073-0.677-0.185c-0.393-0.113-0.811-0.158-0.963-0.019c-0.151,0.14-0.706,0.114-1.188-0.155
			c-0.387-0.216-0.761-0.48-1.103-0.783c-0.414-0.366-0.429-0.989-0.101-1.321c0.327-0.333,0.563-0.726,0.541-0.88
			c-0.022-0.155-0.35,0.014-0.743,0.376c-0.393,0.363-0.906,0.379-1.081,0c-0.175-0.378,0.084-1.012,0.494-1.382
			c0.174-0.157,0.347-0.314,0.521-0.471c0.41-0.371,0.741-1.041,0.741-1.494c0-0.454-0.328-0.518-0.731-0.142
			c-0.209,0.195-0.418,0.39-0.627,0.586c-0.404,0.377-0.73,0.234-0.73-0.317c0-0.915,0-1.831,0-2.746
			c0-0.553,0.311-1.321,0.696-1.719c0.232-0.238,0.464-0.478,0.697-0.717c0.385-0.396,0.696-1.044,0.696-1.448
			c0-0.403-0.317-0.414-0.709-0.024c-0.229,0.227-0.456,0.454-0.683,0.679c-0.392,0.391-0.729,0.258-0.766-0.294
			c-0.008-0.122-0.017-0.248-0.025-0.378c-0.038-0.551,0.168-1.234,0.461-1.525c0.177-0.176,0.353-0.352,0.531-0.526
			c0.117-0.128,0.234-0.257,0.351-0.385c0.194-0.213,0.03-0.074-0.368,0.31c-0.112,0.108-0.223,0.215-0.332,0.321
			c-0.397,0.383-0.739,0.405-0.761,0.05C2.35,26.9,2.653,26.297,3.046,25.91c0.304-0.301,0.608-0.601,0.913-0.899
			c0.393-0.388,0.712-1.038,0.712-1.452S4.36,23.13,3.975,23.527c-0.333,0.345-0.667,0.688-1,1.031
			c-0.384,0.397-0.708,0.32-0.711-0.172s0.318-1.212,0.703-1.608c0.339-0.349,0.675-0.694,1.006-1.035
			c0.385-0.396,0.697-1.039,0.697-1.436v-0.72c0-0.129,0.007-0.256,0.02-0.382c0.022-0.21-0.263-0.063-0.656,0.324
			c-0.296,0.289-0.592,0.582-0.888,0.874c-0.393,0.388-0.66,0.257-0.548-0.284c0.293-1.423,0.816-2.597,1.7-3.227
			c0.45-0.32,1.353-0.412,1.898-0.327c4.8,0.746,3.792,6.033,3.792,9.999C9.988,30.87,10.485,35.497,9.798,39.758z"/>
		<path d="M15.232,30.109c0,2.625-1.23,8.873,0.777,10.897c1.893,1.91,6.565,2.659,8.763,0.461
			c2.723-2.722,1.726-7.479,1.726-11.024c0-0.88,0-1.761,0-2.642c0-2.439,0.78-7.582,6.248-4.206
			c2.257,1.393,1.678,5.813,1.678,8.121c0,4.144-1.283,10.088,4.16,10.967c2.997,0.483,5.902-0.801,6.854-3.562
			c0.18-0.522,0.236-0.989,0.243-1.014c0.004-0.018,0.012-0.029,0.012-0.042c0-6.557,1.353-14.666-3.126-20.036
			c-3.427-4.109-10.832-3.868-15.303-0.786c-0.455,0.313-0.774,0.36-0.852,0.076c-0.049-0.183-0.137-0.336-0.282-0.437
			c-0.809-0.559-1.349-0.952-2.405-1.051c-2.118-0.199-4.127-0.165-6.234,0.16c-4.007,0.618-2.256,5.857-2.256,8.87
			C15.232,26.611,15.232,28.36,15.232,30.109z M19.865,16.466c1.31,0,3.095-0.101,4.139,0.906c0.398,0.383,0.473,1.176,0.492,1.727
			c0.021,0.514,0.066,1.053,0.115,1.083c0.419,0.264,1.618-0.083,1.863-0.499c0.492-0.839,1.059-1.527,1.676-2.083
			c0.41-0.37,0.701-0.538,0.599-0.437c-0.102,0.101-0.184,0.196-0.179,0.212c0.005,0.017,0.14-0.101,0.306-0.264
			c0.166-0.164,0.318-0.307,0.339-0.318c0.021-0.012-0.112,0.125-0.299,0.305c-0.186,0.181-0.332,0.398-0.331,0.485
			s0.324-0.151,0.723-0.532c0.397-0.381,1.128-0.882,1.656-1.04c0.176-0.052,0.353-0.098,0.53-0.137
			c0.54-0.119,0.9-0.064,0.79,0.042c-0.109,0.105-0.019,0.1,0.206-0.001c0.226-0.101,0.425-0.183,0.439-0.196
			c0.014-0.012,0.475-0.041,1.024,0.006c3.34,0.285,6.679,2.413,8.377,5.185c1.254,2.048,1.428,4.71,1.428,7.04
			c0,3.2,0,6.402,0,9.604c0,0.553-0.062,1.448-0.25,1.967c-0.269,0.748-0.673,1.304-1.154,1.686
			c-0.434,0.343-1.188,0.414-1.552,0.262c-0.365-0.152-0.769-0.198-0.939-0.025c-0.171,0.174-0.607,0.243-0.95,0.089
			c-0.343-0.153-0.384-0.544-0.123-0.81c0.262-0.265,0.34-0.646,0.203-0.874c-0.138-0.226-0.482-0.16-0.807,0.164
			s-0.843,0.327-1.088-0.047s-0.069-1.031,0.318-1.424c0.108-0.109,0.216-0.22,0.324-0.328c0.388-0.394,0.703-0.906,0.703-1.146
			c0-0.238-0.317-0.115-0.708,0.274c-0.182,0.181-0.363,0.362-0.544,0.543c-0.391,0.39-0.742,0.59-0.779,0.445
			c-0.021-0.086-0.042-0.175-0.057-0.266c-0.012-0.075-0.02-0.151-0.025-0.229c-0.009-0.127,0.3-0.547,0.69-0.938
			c0.243-0.244,0.481-0.483,0.718-0.72c0.39-0.392,0.705-0.883,0.705-1.099c0-0.217-0.317-0.075-0.708,0.314
			c-0.245,0.245-0.491,0.489-0.736,0.733c-0.391,0.39-0.701,0.332-0.682-0.128c0.019-0.459,0.346-1.149,0.736-1.54
			c0.228-0.229,0.456-0.458,0.685-0.688c0.39-0.391,0.707-0.969,0.707-1.292s-0.322-0.272-0.718,0.112
			c-0.241,0.233-0.454,0.438-0.642,0.62c-0.396,0.384-0.405,0.376-0.012-0.011c0.19-0.188,0.409-0.399,0.654-0.64
			c0.396-0.385,0.393-0.387-0.005-0.004c-0.21,0.202-0.422,0.406-0.638,0.613c-0.396,0.383-0.712,0.246-0.7-0.308
			c0.01-0.488,0.02-0.979,0.025-1.472c0.007-0.552,0.322-1.318,0.711-1.71c0.207-0.209,0.414-0.418,0.619-0.625
			c0.389-0.393,0.704-0.833,0.704-0.983v-0.271c0-0.048-0.003-0.093-0.006-0.138c-0.006-0.076-0.321,0.184-0.707,0.58
			c-0.208,0.213-0.416,0.426-0.624,0.639c-0.385,0.396-0.704,0.268-0.731-0.284c-0.022-0.474-0.058-0.946-0.109-1.415
			c-0.062-0.549,0.178-1.311,0.562-1.706c0.106-0.107,0.211-0.216,0.317-0.325c0.386-0.395,0.607-0.936,0.471-1.196
			c-0.083-0.159-0.174-0.312-0.271-0.457c-0.029-0.042-0.063-0.079-0.099-0.114c-0.058-0.059-0.406,0.199-0.784,0.578
			c-0.376,0.38-0.754,0.439-0.88,0.149s-0.032-0.74,0.251-1.026c0.283-0.287,0.402-0.595,0.26-0.683
			c-0.144-0.087-0.454,0.056-0.682,0.299c-0.228,0.243-0.634,0.151-0.982-0.122c-0.351-0.274-0.629-0.479-0.563-0.549
			c0.066-0.071,0.053-0.134-0.029-0.143c-0.047-0.006-0.095-0.011-0.146-0.011c-0.106,0-0.21,0.004-0.312,0.011
			c-0.171,0.011-0.742-0.095-1.294-0.121c-3.326-0.158-7.52,2.802-7.52,6.25c0,3.024,0,6.048,0,9.071
			c0,2.225-0.333,4.834-3.446,4.834c-0.046,0-0.087-0.004-0.128-0.009c-0.071-0.01-0.016-0.131,0.123-0.275
			c0.14-0.145-0.066-0.418-0.403-0.69c-0.337-0.271-0.79-0.313-1.078-0.024c-0.288,0.29-0.93,0.317-1.312-0.082
			c-0.124-0.129-0.237-0.27-0.341-0.418c-0.315-0.454-0.157-1.21,0.22-1.614c0.113-0.121,0.225-0.241,0.338-0.361
			c0.377-0.402,0.686-1.178,0.689-1.729c0.001-0.198,0.002-0.396,0.003-0.591c0.003-0.552-0.065-0.928-0.152-0.84
			c-0.052,0.053-0.105,0.105-0.158,0.158c-0.384,0.389-0.772,0.774-1.162,1.16c-0.392,0.39-0.751,0.257-0.764-0.295
			c-0.02-0.795,0.011-1.602,0.051-2.368c0.029-0.551,0.372-1.313,0.762-1.706c0.245-0.244,0.489-0.489,0.736-0.736
			c0.39-0.392,0.707-0.906,0.707-1.15c0-0.245-0.33-0.141-0.738,0.231c-0.211,0.191-0.418,0.382-0.623,0.568
			c-0.408,0.372-0.735,0.581-0.732,0.464c0.002-0.071,0.004-0.143,0.004-0.21c0.001-0.604,0.001-1.209,0.001-1.812
			c0-0.553,0.325-1.308,0.726-1.688c0.213-0.2,0.425-0.401,0.636-0.602c0.401-0.38,0.727-0.727,0.727-0.774s-0.32,0.228-0.715,0.612
			c-0.22,0.216-0.44,0.431-0.66,0.646c-0.394,0.386-0.715,0.252-0.714-0.301c0-0.545,0-1.09,0-1.635
			c0-0.553,0.327-1.304,0.732-1.679c0.208-0.193,0.415-0.385,0.622-0.578c0.405-0.375,0.734-1.074,0.734-1.56
			c0-0.485-0.328-0.575-0.732-0.199c-0.208,0.193-0.416,0.386-0.624,0.58c-0.404,0.376-0.732,0.573-0.732,0.441
			c0-0.08,0-0.159,0-0.239c0-0.216-0.009-0.441-0.024-0.672c-0.023-0.371,0.276-0.979,0.679-1.356
			c0.233-0.217,0.465-0.434,0.696-0.651c0.403-0.377,0.729-0.86,0.727-1.076c-0.002-0.216-0.326-0.078-0.719,0.31
			c-0.231,0.227-0.487,0.48-0.775,0.764c-0.393,0.389-0.754,0.257-0.763-0.295C16.96,17.931,17.381,16.466,19.865,16.466z"/>
		<path d="M18.924,40.141c-0.355,0.361-0.347,0.369,0.009,0.009C19.29,39.791,19.279,39.779,18.924,40.141z"/>
	</g>
</g>
<g>
</g>
<g>
</g>
<g>
</g>
<g>
</g>
<g>
</g>
<g>
</g>
<g>
</g>
<g>
</g>
<g>
</g>
<g>
</g>
<g>
</g>
<g>
</g>
<g>
</g>
<g>
</g>
<g>
</g>
</svg>
