<?xml version="1.0" encoding="iso-8859-1"?>
<!-- Generator: Adobe Illustrator 16.0.0, SVG Export Plug-In . SVG Version: 6.00 Build 0)  -->
<!DOCTYPE svg PUBLIC "-//W3C//DTD SVG 1.1//EN" "http://www.w3.org/Graphics/SVG/1.1/DTD/svg11.dtd">
<svg version="1.1" id="Capa_1" xmlns="http://www.w3.org/2000/svg" xmlns:xlink="http://www.w3.org/1999/xlink" x="0px" y="0px"
	 width="47.9px" height="47.9px" viewBox="0 0 47.9 47.9" style="enable-background:new 0 0 47.9 47.9;" xml:space="preserve">
<g>
	<g>
		<path d="M16.557,40.943c0.176,0.021,0.362-0.005,0.545-0.059c0.042-0.007,0.076-0.002,0.12-0.012
			c3.642-0.827,5.098-4.565,1.397-6.579c-2.214-1.205-4.781-1.688-7.004-3.06c-7.156-4.418-2.057-15.294,6.314-11.09
			c3.763,1.89,6.898,8.985,11.826,5.671c4.872-3.279-3.503-9.063-5.88-10.751c-9.132-6.482-19.572-2.568-23.238,7.541
			C-2.787,32.049,8.331,39.982,16.557,40.943z M3.842,20.849c1.928-1.988,3.8-3.915,5.581-5.744
			c0.376-0.386,0.562-0.716,0.581-0.946c1.052-0.346,2.166-0.491,3.306-0.478c-0.465,0.323-0.962,0.739-1.409,1.2
			c-2.908,2.995-5.813,5.992-8.713,8.99c-0.008,0.008-0.015,0.017-0.023,0.025C3.264,22.895,3.484,21.877,3.842,20.849z
			 M3.264,25.475c0.726-0.716,1.451-1.431,2.177-2.145c0.285-0.281,0.588-0.634,0.895-1.019c-0.087,0.205-0.179,0.407-0.253,0.624
			c-0.243,0.71-0.387,1.367-0.478,2.001c-0.036,0.033-0.068,0.062-0.105,0.099c-0.485,0.465-1.442,1.395-2.216,2.17
			c-0.091-0.521-0.146-1.052-0.169-1.59C3.164,25.569,3.213,25.526,3.264,25.475z M3.561,27.154C3.89,26.826,4.22,26.498,4.55,26.17
			c0.377-0.375,0.728-0.729,1.023-1.031c-0.131,1.096-0.024,2.095,0.317,3.034c-0.018,0.013-0.036,0.01-0.054,0.028
			c-0.128,0.128-0.255,0.255-0.381,0.379c-0.443,0.476-0.888,0.95-1.334,1.423c-0.36-0.837-0.63-1.711-0.802-2.612
			C3.4,27.314,3.478,27.236,3.561,27.154z M8.413,31.659c1.322,1.188,2.988,1.976,4.584,2.714c0.438,0.179,0.875,0.357,1.313,0.536
			c0.166,0.06,0.331,0.118,0.495,0.177c0.274,0.099,2.023,0.362,2.301,1.762c0.162,0.812-0.366,1.6-0.79,2.282
			c-0.008-0.004-0.011-0.009-0.019-0.012c-0.156-0.07-0.339-0.089-0.522-0.084c-1.784-0.383-3.469-1.027-4.994-1.881
			c0.428-0.438,0.689-0.856,0.582-0.94c-0.109-0.083-0.586,0.208-1.066,0.653c-0.001,0.001-0.002,0.002-0.003,0.003
			c-0.546-0.329-1.068-0.687-1.566-1.069c0.017-0.015,0.038-0.023,0.055-0.04c0.553-0.502,0.747-1.155,0.456-1.48
			c-0.292-0.325-1.011-0.139-1.624,0.435c-0.029,0.027-0.045,0.056-0.072,0.083c-1.129-1.054-2.082-2.252-2.813-3.559
			c0.028-0.026,0.056-0.048,0.084-0.074c0.48-0.45,0.961-0.902,1.449-1.36c0.047-0.048,0.094-0.097,0.141-0.146
			c0.038-0.039,0.046-0.163,0.036-0.332C6.917,30.121,7.557,30.89,8.413,31.659z M25.669,19.467c1.996,1.835,0.6,4.651-1.691,2.366
			c-0.011-0.011-0.023-0.019-0.033-0.03c0.463-0.489,0.559-1.057,0.169-1.292c-0.351-0.211-0.927-0.101-1.392,0.205
			c-0.497-0.397-1.019-0.76-1.554-1.105c0.176-0.217,0.254-0.386,0.166-0.417c-0.082-0.029-0.269,0.067-0.482,0.222
			c-0.728-0.453-1.475-0.878-2.237-1.261c-3.517-1.766-7.59-1.221-10.247,1.242c0.049-0.077,0.101-0.159,0.146-0.232
			c1.222-1.961,2.639-3.271,4.06-4.139c0.898-0.548,1.835-0.96,2.366-1.227c2.379,0.329,4.799,1.281,6.951,2.597
			C23.248,17.296,24.508,18.319,25.669,19.467z"/>
		<path d="M42.463,10.771c-4.299-3.219-12.438-5.133-17.56-2.761c-3.725,1.726-3.648,7.249,1.254,6.552
			c5.842-0.828,11.254-0.524,13.354,5.77c1.029,3.086,0.782,6.694-0.566,9.61c-3.108,6.727-11.021,2.277-14.135-0.574
			c-2.673-2.447-3.23-7.377-7.829-6.144c-3.758,1.006-2.672,4.55-1.295,6.931c3.535,6.116,10.001,9.461,16.888,9.913
			c0.073,0.005,0.149,0,0.227-0.01c0.033-0.001,0.061,0.003,0.095,0c5.871-0.361,12.021-3.396,13.964-9.413
			C48.889,24.349,48.219,15.082,42.463,10.771z M20.289,27.673c-0.112-0.008-0.769,0.563-1.564,1.358
			c-0.159,0.16-0.309,0.312-0.452,0.46c-0.083-0.125-0.17-0.246-0.252-0.374c-0.905-1.418-0.78-1.93-0.338-2.136
			C18.843,26.443,19.658,26.8,20.289,27.673z M33.393,38.47c-2.329-0.166-4.481-0.691-6.451-1.54
			c0.143-0.267,0.165-0.511,0.015-0.623c-0.175-0.129-0.541-0.035-0.914,0.206c-0.961-0.477-1.874-1.032-2.738-1.668
			c0.052-0.049,0.113-0.106,0.202-0.193c0.42-0.407,0.408-0.419-0.01-0.01c-0.089,0.088-0.149,0.147-0.2,0.197
			c-0.976-0.717-1.888-1.533-2.736-2.44c0.055-0.045,0.111-0.088,0.165-0.138c0.72-0.658,1.089-1.515,0.843-1.92
			c-0.244-0.405-1.053-0.163-1.827,0.556c-0.092,0.086-0.179,0.174-0.26,0.263c-0.373-0.466-0.727-0.957-1.071-1.462
			c0.133-0.121,0.269-0.246,0.412-0.38c0.823-0.769,1.464-1.476,1.484-1.621c0.025,0.036,0.053,0.066,0.078,0.104
			c0.388,0.586,0.815,1.147,1.249,1.695c3.373,4.269,8.971,6.129,13.736,4.8c0.03,0.138,0.421,0.328,1.014,0.406
			c0.7,0.093,2.076-0.763,3.062-1.821c1.645-1.76,3.273-3.507,4.887-5.235c0.424-0.454,0.807-0.957,1.11-1.433
			c-0.261,1.707-0.779,3.365-1.539,4.883c-0.053,0.056-0.102,0.104-0.156,0.162c-0.339,0.357-0.675,0.712-1.009,1.066
			c-0.993,1.052-1.564,1.813-1.286,1.683c0.23-0.108,0.863-0.664,1.53-1.311C40.882,35.87,37.601,38.147,33.393,38.47z
			 M45.621,24.428c-0.36,0.1-0.891,0.455-1.476,1.034c-0.507,0.504-1.015,1.008-1.522,1.515c-0.018,0.017-0.035,0.038-0.054,0.057
			c0.472-2.403,0.106-5.156-0.618-7.499c0.117-0.098,0.282-0.242,0.502-0.436c0.917-0.812,1.634-1.506,1.602-1.549
			c-0.032-0.042-0.776,0.617-1.66,1.474c-0.204,0.198-0.353,0.346-0.461,0.456c-0.188-0.604-0.399-1.182-0.628-1.717
			c0.079-0.073,0.151-0.138,0.233-0.216c0.747-0.713,1.341-1.302,1.328-1.316c-0.008-0.008-0.016-0.016-0.024-0.023
			c-0.032-0.027-0.067-0.05-0.103-0.074c-0.058-0.038-0.676,0.487-1.383,1.179c-0.062,0.061-0.115,0.117-0.175,0.177
			c-0.003-0.008-0.007-0.015-0.01-0.022c0.059-0.057,0.11-0.108,0.172-0.168c0.703-0.691,1.26-1.262,1.244-1.273
			c-0.016-0.01-0.592,0.532-1.289,1.213c-0.058,0.055-0.105,0.104-0.159,0.157c-0.057-0.123-0.112-0.251-0.17-0.369
			c-0.442-0.897-1.047-1.61-1.756-2.184c-0.01-0.21-0.168-0.389-0.498-0.452c-0.047-0.009-0.096-0.007-0.145-0.013
			c-1.826-1.181-4.17-1.618-6.318-1.81c-0.669-0.014-1.339-0.011-2.008,0.01c-0.305,0.021-0.608,0.045-0.912,0.069
			c-0.504,0.038-1.721-0.856-2.111-2.25c-0.285-1.014,0.049-1.595,1.002-1.743c1.43-0.223,3.776,0.197,5.209,0.405
			c3.517,0.51,6.556,2.233,8.91,5.073C44.764,17.053,45.788,20.776,45.621,24.428z"/>
	</g>
</g>
<g>
</g>
<g>
</g>
<g>
</g>
<g>
</g>
<g>
</g>
<g>
</g>
<g>
</g>
<g>
</g>
<g>
</g>
<g>
</g>
<g>
</g>
<g>
</g>
<g>
</g>
<g>
</g>
<g>
</g>
</svg>
