<?xml version="1.0" encoding="iso-8859-1"?>
<!-- Generator: Adobe Illustrator 16.0.0, SVG Export Plug-In . SVG Version: 6.00 Build 0)  -->
<!DOCTYPE svg PUBLIC "-//W3C//DTD SVG 1.1//EN" "http://www.w3.org/Graphics/SVG/1.1/DTD/svg11.dtd">
<svg version="1.1" id="Capa_1" xmlns="http://www.w3.org/2000/svg" xmlns:xlink="http://www.w3.org/1999/xlink" x="0px" y="0px"
	 width="44.676px" height="44.677px" viewBox="0 0 44.676 44.677" style="enable-background:new 0 0 44.676 44.677;"
	 xml:space="preserve">
<g>
	<g>
		<path d="M22.162,16.813c0.928-0.142,2.502-1.007,2.556-2.091c0.261-5.158-9.747-2.548-12.354-1.248
			c-5.985,2.982-9.53,8.273-9.817,14.999C3.1,41.42,18.113,49.402,28.946,41.59c6.143-4.43,8.566-11.353,6.555-18.671
			c-0.95-3.461-5.764-0.454-5.577,2.265c0.178,2.601,0.55,4.551-0.231,7.19c-1.113,3.762-4.427,6.196-8.124,6.887
			c-0.543,0.103-0.598-0.075-0.15-0.397c4.083-2.934,6.688-9.306,7.508-13.389c0.624-3.107,0.482-6.359-0.049-9.553
			c-0.092-0.545-0.141-0.913-0.096-0.825c0.045,0.087,0.535,0.127,1.066-0.024c0.005-0.002,0.011-0.003,0.016-0.005
			c0.531-0.152,1-0.396,1.072-0.465c0.073-0.068,0.27-0.181,0.434-0.263c0.099-0.05,0.195-0.102,0.293-0.158
			c1.885-1.088,3.508-2.436,5.082-3.935c1.066-1.016,1.25-1.393,0.297,0.099c-0.859,1.348-2.25,2.444-3.514,3.384
			c-1.73,1.286-5.646,3.223-1.184,4.484c1.914,0.541,4.01,0.374,5.626-0.902c2.403-1.899,3.649-4.806,4.09-7.784
			c0.209-1.406,0.093-8.296-2.435-8.096c-0.387,0.03-0.891,0.168-1.18,0.429c-1.218,1.097-2.316,2.028-3.814,2.772
			c-1.123,0.558-2.379,0.742-3.495,1.29c-1.433,0.704-2.593,1.724-3.288,2.979c-0.268,0.483-0.499,0.601-0.614,0.217
			c-0.069-0.232-0.141-0.464-0.212-0.693c-0.865-2.775-2.259-6.222-4.621-8.089c-0.237-0.188-0.627-0.088-0.838,0.101
			c-0.067,0.06-0.134,0.12-0.201,0.181c-0.053,0.048-0.122,0.144-0.092,0.223c2.234,5.945,5.686,10.591,5.471,17.195
			c-0.242,7.467-2.219,16.477-8.755,20.854c-0.029,0.02-0.04,0.035-0.061,0.054c-0.083,0.062-0.159,0.12-0.232,0.177
			c-0.128,0.099-0.517,0.133-0.867,0.056c-0.211-0.047-0.421-0.1-0.629-0.16c-4.839-1.434-7.446-6.359-7.718-11.061
			c-0.153-2.64,1.059-5.147,2.542-7.218C13.555,17.202,18.213,17.416,22.162,16.813z M22.742,1.668
			c-0.29-0.589-0.216-0.482,0.029-0.038c0.267,0.483,0.464,0.891,0.448,0.905C23.203,2.549,22.986,2.163,22.742,1.668z
			 M6.113,21.185c0.455-0.95,1.007-1.879,1.673-2.803c0.481-0.667,1.046-1.262,1.66-1.806c0.414-0.366,0.459-0.317,0.075,0.079
			c-1.352,1.396-1.753,1.82,0.179-0.145c0.387-0.393,1.056-0.986,1.509-1.301c0.376-0.262,0.759-0.512,1.147-0.746
			c0.227-0.124,0.456-0.239,0.687-0.349c0.385-0.181,0.393,0.01,0.009,0.406c-2.22,2.285-4.433,4.572-6.647,6.859
			C6.019,21.778,5.875,21.683,6.113,21.185z M34.303,25.812c0.049,0.36-0.307,0.978-0.696,1.37
			c-0.207,0.209-0.413,0.417-0.618,0.625c-0.39,0.392-0.699,0.583-0.691,0.428c0.005-0.095,0.009-0.189,0.015-0.28
			c0-0.155-0.003-0.311-0.01-0.465c-0.011-0.257,0.288-0.784,0.676-1.176c0.138-0.14,0.272-0.276,0.409-0.413
			C33.778,25.509,34.254,25.45,34.303,25.812z M32.834,24.586c0.541,0.027,0.625,0.603,0.244,1.003
			c-0.058,0.062-0.115,0.122-0.172,0.185c-0.379,0.4-0.731,0.311-0.832-0.196C31.974,25.069,32.292,24.56,32.834,24.586z
			 M28.813,14.816c-0.064,0.06-0.129,0.038-0.145-0.047s0.033-0.127,0.113-0.102C28.864,14.693,28.877,14.758,28.813,14.816z
			 M33.299,5.646c-0.219,0.073-0.711,0.448-1.098,0.843c-1.107,1.125-2.217,2.247-3.322,3.374c-0.387,0.393-0.641,0.268-0.467-0.257
			c0.279-0.849,0.752-1.642,1.399-2.34c1.489-1.604,4.39-1.86,6.274-2.952c0.57-0.33,1.388-1.115,2.16-1.573
			c0.477-0.281,0.621-0.068,0.242,0.271L37.8,3.627l-0.923,0.978c-0.942,0.835-1.406,1.241-1.631,1.437
			c-0.418,0.36-0.484,0.5-0.144,0.365c0.2-0.079,0.409-0.152,0.629-0.218c0.104-0.031,0.21-0.064,0.313-0.097
			c0.174-0.055,0.642-0.405,1.048-0.78c0.667-0.618,1.36-1.26,2.069-1.917c0.406-0.376,0.791-0.614,0.847-0.523
			c0.03,0.051,0.062,0.106,0.089,0.169c0.875,1.939,1.191,4.12,1.033,6.238c-0.042,0.55-0.432,1.305-0.829,1.69
			c-1.202,1.166-2.404,2.331-3.606,3.491c-0.396,0.383-0.636,0.643-0.531,0.578c0.105-0.065,0.525-0.415,0.938-0.781
			c0.958-0.849,1.933-1.712,2.911-2.575c0.414-0.365,0.784-0.709,0.824-0.768c0.039-0.059-0.016,0.334-0.174,0.863
			c-0.285,0.959-0.689,1.885-1.151,2.766c-0.335,0.638-0.761,1.216-1.241,1.748c-0.369,0.41-1.061,0.982-1.551,1.236
			c-1.118,0.578-2.223,0.716-3.312,0.412c-0.531-0.148-1.07-0.403-1.232-0.48c-0.163-0.076,0.046-0.474,0.445-0.855
			c0.402-0.383,0.801-0.763,1.192-1.136c0.4-0.382,0.601-0.628,0.444-0.56c-0.156,0.069-0.604,0.436-0.998,0.822
			c-0.262,0.255-0.521,0.51-0.781,0.764c-0.395,0.387-0.396,0.385-0.002-0.003c0.25-0.247,0.503-0.496,0.758-0.747
			c0.393-0.388,0.676-0.685,0.631-0.663c-0.045,0.021-0.401,0.349-0.797,0.735c-0.211,0.206-0.422,0.412-0.632,0.617
			c-0.396,0.387-1.003,0.274-0.821-0.247c0.045-0.127,0.107-0.262,0.188-0.404c0.272-0.48,0.978-1.029,1.448-1.317
			c2.092-1.28,5.767-3.851,5.395-5.875c-0.021-0.119-0.331-0.066-0.395-0.053c-1.461,0.311-3.868,3.338-6.059,4.888
			c-0.451,0.319-0.938,0.259-1.019-0.077c-0.08-0.336-0.446-0.311-0.851,0.065c-0.047,0.043-0.094,0.087-0.141,0.13
			c-0.404,0.375-1.043,0.568-1.32,0.293c-0.279-0.275-0.094-0.86,0.315-1.232c0.325-0.295,0.733-0.67,1.217-1.112
			c0.407-0.373,0.81-1.026,0.96-1.437c0.151-0.411-0.006-0.417-0.408-0.039c-0.336,0.314-0.685,0.64-1.051,0.982
			c-0.387,0.381-0.695,0.684-0.947,0.93c-0.396,0.385-0.809,0.282-0.832-0.229c-0.024-0.514,0.36-1.23,0.768-1.603
			c0.861-0.79,1.725-1.58,2.587-2.367c0.502-0.505,1.008-1.007,1.513-1.51C33.377,5.827,33.518,5.573,33.299,5.646z M27.653,17.448
			c-0.008-0.552,0.016-1.045,0.078-1.104c0.062-0.058,0.176,0.292,0.25,0.781c0.044,0.296,0.088,0.591,0.128,0.886
			c0.023,0.168,0.041,0.335,0.058,0.503c0.025,0.278-0.096,0.643-0.271,0.813c-0.174,0.171-0.279-0.138-0.258-0.689
			C27.653,18.238,27.657,17.841,27.653,17.448z M27.896,19.427c-0.18,0.176-0.187,0.17-0.006-0.007
			C28.069,19.244,28.077,19.251,27.896,19.427z M27.256,13.207c0.019-0.017,0.107,0.315,0.191,0.745
			c0.082,0.429,0.117,0.802,0.084,0.832c-0.033,0.03-0.104-0.306-0.173-0.748C27.29,13.595,27.239,13.225,27.256,13.207z
			 M23.79,3.765c-0.131-0.268-0.224-0.5-0.205-0.521c0.021-0.021,0.148,0.174,0.287,0.435c0.138,0.261,0.227,0.495,0.201,0.522
			C24.045,4.227,23.92,4.032,23.79,3.765z M25.313,6.861c-0.041,0.041-0.232-0.306-0.436-0.767
			c-0.203-0.462-0.348-0.862-0.313-0.901c0.034-0.038,0.103,0.011,0.153,0.109c0.035,0.071,0.066,0.132,0.089,0.18
			c0.104,0.214,0.203,0.431,0.3,0.649C25.266,6.492,25.354,6.821,25.313,6.861z M25.629,7.896c0-0.001-0.002-0.003-0.002-0.004
			c-0.2-0.514-0.342-0.96-0.301-1s0.248,0.341,0.439,0.858c0.002,0.007,0.005,0.014,0.008,0.021c0.192,0.518,0.305,0.97,0.27,1.002
			C26.009,8.805,25.831,8.41,25.629,7.896z M26.565,10.411c-0.023,0.024-0.134-0.257-0.255-0.625
			c-0.121-0.368-0.2-0.689-0.169-0.721c0.031-0.032,0.154,0.244,0.268,0.619C26.524,10.06,26.589,10.387,26.565,10.411z
			 M26.683,10.824c0.021-0.02,0.129,0.306,0.233,0.732c0.105,0.425,0.17,0.786,0.152,0.803c-0.019,0.018-0.109-0.312-0.217-0.734
			C26.745,11.201,26.663,10.845,26.683,10.824z M25.589,29.469c0.444-1.336,0.798-2.722,1.096-4.134
			c0.114-0.541,0.306-1.092,0.44-1.229c0.134-0.139,0.137-0.153,0.007-0.036c-0.13,0.118-0.151-0.228-0.056-0.771
			c0.09-0.508,0.176-1.018,0.256-1.528c0.047-0.288,0.086-0.572,0.121-0.854c0.057-0.474,0.248-1.01,0.443-1.196
			s0.385,0.041,0.405,0.509c0.021,0.468-0.022,0.892-0.079,0.945c-0.055,0.054-0.057,0.057,0,0.008
			c0.057-0.05,0.105,0.357,0.087,0.909c-0.063,1.825-0.335,3.634-0.808,5.395c-0.143,0.534-0.596,1.277-0.986,1.667
			c-0.184,0.184-0.369,0.368-0.553,0.553C25.573,30.095,25.415,29.993,25.589,29.469z M20.273,37.917
			c1.786-1.562,3.1-3.404,4.093-5.432c0.243-0.496,0.262-0.488,0.033,0.015c-0.307,0.68-0.642,1.306-0.998,1.878
			c-0.29,0.471-0.249,0.507,0.128,0.104c0.506-0.541,1.01-1.081,1.514-1.621c0.377-0.403,0.474-0.336,0.184,0.135
			c-0.454,0.735-0.959,1.44-1.475,2.13c-0.961,1.29-1.856,1.918-2.826,2.523c-0.468,0.292-0.86,0.529-0.871,0.538
			c-0.011,0.008-0.141,0.091-0.288,0.188C19.62,38.472,19.857,38.28,20.273,37.917z M17.293,40.398
			c0.02,0.004,0.036,0.009,0.054,0.012c0.03,0.006,0.369,0.063,0.761,0.112c0.235,0.028,0.473,0.053,0.712,0.065
			c0.382,0.022,0.761,0.019,1.137-0.006c0.551-0.034,1.328-0.048,1.74-0.007c0.413,0.041,0.884-0.089,1.05-0.261
			s0.729-0.447,1.24-0.655c1.7-0.693,3.272-1.722,4.622-2.932c1.495-1.342,2.429-3.116,3.076-4.979
			c0.181-0.521,0.616-1.272,1.002-1.67c0.351-0.361,0.704-0.724,1.06-1.088c0.386-0.396,0.725-0.269,0.711,0.284
			c-0.019,0.738-0.096,1.462-0.229,2.168c-0.103,0.543-0.534,1.296-0.92,1.69c-2.015,2.064-4.032,4.135-6.05,6.202
			c-0.387,0.395-0.497,0.651-0.251,0.562c0.245-0.09,0.754-0.49,1.142-0.884l3.346-3.394l1.471-1.441
			c0.394-0.386,0.568-0.275,0.346,0.229c-2.604,5.934-9.24,9.9-15.983,9.032c-0.541-0.069-1.065-0.174-1.577-0.308
			c-0.535-0.139-0.902-0.346-0.833-0.419c0.069-0.073-0.266-0.352-0.727-0.655c-0.052-0.034-0.103-0.068-0.154-0.104
			c-0.457-0.31-0.936-0.464-1.089-0.314c-0.153,0.147-0.673,0.058-1.138-0.241c-0.282-0.183-0.558-0.372-0.825-0.573
			c-0.442-0.331-0.591-0.815-0.36-1.048s0.247-0.609,0.044-0.851c-0.203-0.239-0.577-0.241-0.845,0.004
			c-0.269,0.244-0.803,0.127-1.164-0.291c-0.315-0.364-0.613-0.742-0.895-1.135c-0.322-0.448-0.282-1.109,0.058-1.455
			c0.34-0.346,0.586-0.686,0.548-0.763c-0.037-0.076-0.355,0.13-0.713,0.461c-0.357,0.331-0.814,0.324-1.004-0.023
			c-0.189-0.349-0.007-0.937,0.392-1.303c0.399-0.365,0.624-0.956,0.521-1.322c-0.103-0.366-0.501-0.36-0.905,0.017
			c-0.044,0.041-0.087,0.082-0.131,0.123c-0.404,0.377-0.902,0.269-1.082-0.254c-0.217-0.632-0.399-1.276-0.545-1.928
			c-0.121-0.538,0.121-1.303,0.505-1.698c0.116-0.12,0.233-0.24,0.35-0.36c0.385-0.396,0.71-0.269,0.782,0.278
			C7.23,34.531,11.617,39.361,17.293,40.398z M6.638,25.825c-0.107,0.542-0.462,1.306-0.854,1.695
			c-0.178,0.177-0.355,0.352-0.532,0.527c-0.392,0.391-0.726,0.526-0.746,0.307c-0.012-0.133-0.023-0.268-0.028-0.399
			c0.014-0.314,0.036-0.624,0.065-0.929c0.049-0.512,0.219-1.047,0.355-1.195c0.136-0.147,0.138-0.165,0.005-0.037
			c-0.133,0.129-0.189-0.153-0.101-0.628C4.89,24.693,5.304,24,5.697,23.612c1.215-1.198,2.431-2.398,3.646-3.596
			c0.393-0.388,0.975-1.065,1.33-1.488c0.653-0.779,1.379-1.496,2.168-2.139c0.428-0.349,1.113-0.92,1.506-1.309
			c0.467-0.46,0.934-0.921,1.4-1.382c0.393-0.389,1.151-0.787,1.7-0.849c0.62-0.069,1.249-0.097,1.887-0.082
			c0.552,0.013,1.072,0.078,1.161,0.104c0.089,0.027,0.144,0.065,0.124,0.086s0.014,0.03,0.076,0.022s0.545,0.107,1.053,0.324
			c1.671,0.715,1.42,1.458-0.758,2.229c-0.521,0.185-1.398,0.264-1.95,0.277c-3.266,0.083-6.429,1.769-8.791,3.887
			C8.211,21.527,7.066,23.649,6.638,25.825z"/>
		<path d="M21.582,0.227c0.04-0.04-0.008-0.131-0.11-0.195c-0.103-0.066-0.139-0.026-0.076,0.078S21.542,0.266,21.582,0.227z"/>
	</g>
</g>
<g>
</g>
<g>
</g>
<g>
</g>
<g>
</g>
<g>
</g>
<g>
</g>
<g>
</g>
<g>
</g>
<g>
</g>
<g>
</g>
<g>
</g>
<g>
</g>
<g>
</g>
<g>
</g>
<g>
</g>
</svg>
