<?xml version="1.0" encoding="iso-8859-1"?>
<!-- Generator: Adobe Illustrator 16.0.0, SVG Export Plug-In . SVG Version: 6.00 Build 0)  -->
<!DOCTYPE svg PUBLIC "-//W3C//DTD SVG 1.1//EN" "http://www.w3.org/Graphics/SVG/1.1/DTD/svg11.dtd">
<svg version="1.1" id="Capa_1" xmlns="http://www.w3.org/2000/svg" xmlns:xlink="http://www.w3.org/1999/xlink" x="0px" y="0px"
	 width="41.851px" height="41.85px" viewBox="0 0 41.851 41.85" style="enable-background:new 0 0 41.851 41.85;"
	 xml:space="preserve">
<g>
	<g>
		<path d="M2.676,32.343c0.216,0.598,0.581,1.695,1.309,1.928c2.938,0.937,5.622-0.141,6.667,3.553
			c0.066,0.232,0.393,0.256,0.584,0.264c0.707,0.03,1.356-0.021,1.99-0.131c0.544-0.094,0.865-0.107,0.729,0.025
			c-0.137,0.132-0.225,0.233-0.195,0.229c0.018-0.003,0.035-0.006,0.054-0.011c0.807-0.203,1.774-0.472,2.733-0.792
			c0.524-0.175,0.991-0.483,1.045-0.668c0.054-0.187,0.503-0.534,1.043-0.649c0.518-0.109,1.005-0.088,1.377,0.207
			c0.148,0.117,0.839,1.068,1.383,1.166c0.222,0.04,0.489,0.069,0.775,0.08c0.432,0.016,0.795-0.016,0.812-0.002
			c0.018,0.013,0.046,0.008,0.062-0.008c0.016-0.017,0.25-0.052,0.512-0.123c0.166-0.044,0.319-0.104,0.454-0.187
			c0.927-0.559,0.997-0.603,1.789-1.342c0.174-0.162,1.271,1.896,1.665,2.245c0.415,0.367,1.731,0.088,1.863-0.499
			c0.311-1.392-0.104-2.552-0.863-3.785c-1.772-2.871,0.295-1.423,2.027-1.313c2.32,0.146,4.938-0.396,6.429-2.22
			c0.092-0.114,0.107-0.267,0.003-0.376c-1.001-1.06-0.643-0.8-1.885-1.41c-2.655-1.306,3.093-5.275,3.676-5.773
			c0.731-0.625,3.846-3.156,2.988-4.318c-0.678-0.918-0.402-0.672-1.564-1.077c-3.924-1.369-3.701-2.446-3.106-5.283
			c0.558-2.659-0.508-5.897-1.87-8.298c-0.279-0.493-1.183-0.234-1.56-0.002c-1.735,1.068-1.174,0.937-3.128,2.977
			c-1.481,1.548-2.652,1.232-4.153,2.112c-1.817,1.065-1.593,3.54-2.017,5.529c-0.114,0.54-0.516,0.571-0.691,0.048
			c-0.812-2.399-0.951-6.831-2.586-7.922c-0.48-0.321-1.249-0.114-1.668,0.232c-1.436,1.187,0.729,1.897-1.444,0.783
			c-1.933-0.99-4.686-2.052-6.062-3.776c-0.386-0.482-1.682,0.009-1.863,0.499C9.501,5.572,9.781,7.181,9.487,8.602
			c-0.493,2.378-1.905,3.118-3.532,4.492c-2.135,1.803,2.102,5.184,3.165,6.161c0.356,0.327,5.261,3.941,1.825,3.421
			c-1.289-0.194-2.615-0.642-3.938-0.465c-2.782,0.373-4.933,3.399-6.795,5.149c-0.08,0.076-0.268,0.256-0.196,0.396
			C0.87,29.425,1.988,30.442,2.676,32.343z M8.599,12.952c0.194-0.161,0.425-0.322,0.696-0.481c2.025-1.188,2.059-3.439,2.176-5.593
			c0.029-0.551,0.121-0.958,0.188-0.91c0.066,0.048,0.121,0.159,0.122,0.248c0,0.051,0,0.104,0.001,0.162
			c0.001,0.02,0,0.039-0.001,0.06c-0.002,0.033,0.058-0.001,0.131-0.075c0.073-0.074,0.505,0.116,0.982,0.394
			c0.086,0.05,0.172,0.1,0.259,0.148c0.481,0.271,0.564,0.783,0.171,1.17c-0.493,0.485-0.987,0.971-1.483,1.459
			c-0.395,0.387-0.733,0.792-0.758,0.903c-0.015,0.067-0.028,0.135-0.037,0.204c-0.133,0.99-0.717,2.098-2.484,2.675
			c-0.098,0.032-0.19,0.069-0.276,0.111C8.137,13.498,8.239,13.25,8.599,12.952z M8.332,15.994C8.12,15.717,8.3,15.146,8.685,14.75
			c2.198-2.257,4.204-4.309,5.916-6.051c0.387-0.393,0.732-0.699,0.77-0.681s-0.242,0.354-0.627,0.75
			c-3.443,3.551-6.047,6.236-0.146,0.221c0.151-0.155,0.299-0.308,0.445-0.458c0.246-0.253,0.662-0.357,0.929-0.234
			c0.266,0.123,0.169,0.542-0.216,0.938c-2.109,2.171-4.211,4.345-6.315,6.518C9.055,16.148,8.545,16.27,8.332,15.994z
			 M7.977,24.213c0.385-0.396,1.136-0.628,1.683-0.549c0.305,0.044,0.608,0.081,0.913,0.112c0.55,0.056,0.741,0.334,0.426,0.649
			c-0.314,0.315-0.427,0.438-0.25,0.274c0.177-0.164,0.415-0.415,0.55-0.542c0.134-0.126,0.278-0.231,0.304-0.255
			c0.025-0.023,0.17-0.034,0.324-0.021c0.093,0.008,0.186,0.017,0.281,0.019c1.483,0.036,2.329-0.825,2.256-2.187
			c-0.004-0.063-0.017-0.129-0.036-0.194c-0.031-0.105,0.257-0.491,0.66-0.868c0.097-0.09,0.193-0.181,0.29-0.271
			c0.403-0.377,0.682-0.722,0.622-0.771c-0.06-0.048-0.423,0.228-0.814,0.62c-0.072,0.072-0.144,0.146-0.219,0.219
			c-0.39,0.391-0.951,0.329-1.352-0.053c-0.092-0.087-0.189-0.175-0.291-0.264c-0.417-0.362-0.466-0.949-0.082-1.346
			c0.077-0.08,0.154-0.159,0.231-0.239c0.385-0.396,0.564-0.867,0.407-1.056c-0.157-0.189-0.597-0.031-0.988,0.358
			c-0.131,0.129-0.26,0.259-0.39,0.387c-0.392,0.39-1.071,0.442-1.515,0.113c-0.227-0.169-0.455-0.34-0.678-0.512
			c-0.436-0.338-0.46-0.944-0.066-1.332c0.473-0.466,0.945-0.933,1.419-1.399c0.394-0.388,0.812-0.955,1.047-1.178
			c0.234-0.223,0.8-0.644,1.193-1.033c0.471-0.464,0.941-0.929,1.412-1.393c0.394-0.388,0.775-1.145,0.914-1.679
			c0.025-0.097,0.052-0.193,0.078-0.288c0.146-0.533,0.511-0.851,0.818-0.707c0.19,0.089,0.376,0.178,0.555,0.266
			c0.927,0.455,1.453,0.309,1.834-0.076c0.388-0.393,0.785-0.44,0.97,0.081c0.988,2.794,0.634,7.276,3.085,7.888
			c0.085,0.022,0.193,0.02,0.313,0.002c0.173-0.026,0.488-0.096,0.7-0.17c0.149-0.052,0.275-0.119,0.352-0.198
			c2.023-2.08,0.524-6.76,4.075-7.714c1.732-0.466,2.785-1.784,3.928-2.999c0.379-0.402,0.748-0.592,0.796-0.445
			s-0.199,0.615-0.568,1.025c-1.01,1.122-2.213,2.213-3.303,2.548c-0.063,0.019-0.126,0.038-0.19,0.055
			c-0.104,0.029-0.518,0.356-0.923,0.731c-0.111,0.103-0.223,0.207-0.333,0.31c-0.405,0.375-0.636,0.984-0.521,1.361
			c0.117,0.377,0.536,0.378,0.94,0.002c1.506-1.401,3.01-2.802,4.514-4.202c0.404-0.376,0.829-0.31,0.976,0.143
			c0.086,0.27,0.183,0.539,0.299,0.806c0.046,0.105,0.084,0.208,0.119,0.31c0.06,0.173,0.003,0.411-0.118,0.53
			c-0.122,0.119-0.204,0.211-0.183,0.206c0.021-0.005,0.123-0.094,0.227-0.197c0.104-0.104,0.191-0.176,0.197-0.163
			c0.005,0.014-0.062,0.092-0.148,0.176c-0.086,0.083-0.091,0.134-0.013,0.112c0.048-0.013,0.095-0.026,0.142-0.041
			c0.015-0.004,0.028-0.01,0.042-0.017c0.023-0.01,0.163,0.416,0.205,0.966c0.109,1.443-0.329,2.738-0.35,4.43
			c-0.05,4.009,6.963,3.623,2.428,7.918c-1.075,1.02-5.83,3.312-5.269,5.406c0.284,1.065,4.794,3.369-0.651,3.605
			c-1.916,0.083-2.933-0.804-4.68-0.683c-0.307,0.021-1.054,0.247-1.104,0.637c-0.103,0.789,0.137,1.473,0.483,2.131
			c0.257,0.488,0.297,0.867,0.05,0.917c-0.135,0.026-0.281,0.065-0.44,0.118c-1.217,0.397-1.962,2.67-3.755,0.956
			c-0.825-0.788-1.052-0.708-2.165-0.733c-0.48-0.011-0.987,0.146-1.478,0.357c-0.507,0.218-1.036,0.371-1.21,0.312
			s-0.544,0.124-0.823,0.392c-0.279,0.269-0.914,0.688-1.454,0.802c-0.795,0.168-0.923-0.206-1.3-0.854
			c-0.277-0.477-0.549-0.842-0.523-0.868c0.026-0.025,0.004-0.05-0.048-0.053c-0.052-0.002-0.142-0.059-0.202-0.125
			c-0.035-0.039-0.072-0.077-0.112-0.117c-0.739-0.73-2.569-0.74-3.448-0.854C8.815,33.79,8.603,33.753,8.4,33.712
			c-0.351-0.071-0.315-0.473,0.072-0.867c0.051-0.051,0.102-0.102,0.151-0.152c0.388-0.394,0.668-0.806,0.624-0.919
			c-0.043-0.115-0.413,0.099-0.818,0.474C8.27,32.396,8.11,32.542,7.95,32.691c-0.405,0.375-1.052,0.561-1.414,0.354
			c-0.361-0.206-0.293-0.722,0.117-1.092c0.346-0.311,0.69-0.623,1.035-0.935c0.409-0.371,0.582-0.894,0.367-1.148
			c-0.214-0.255-0.731-0.141-1.136,0.236c-0.367,0.343-0.734,0.686-1.102,1.027c-0.403,0.377-1.02,0.339-1.332-0.116
			c-0.4-0.586-0.789-1.244-1.249-1.963c-0.016-0.022-0.025-0.048-0.035-0.071c-0.018-0.04,0.293-0.378,0.695-0.756
			c0.661-0.621,1.325-1.244,1.998-1.875C6.594,25.634,7.286,24.924,7.977,24.213z M3.143,26.972
			c0.482-1.078,1.666-2.073,2.851-2.727c0.483-0.267,0.585-0.116,0.193,0.274c-0.304,0.302-0.607,0.603-0.903,0.897
			c-0.558,0.601-1.118,1.197-1.68,1.793C3.225,27.614,2.918,27.478,3.143,26.972z"/>
		<path d="M31.108,12.605c0.393-0.387,0.721-0.727,0.729-0.758c0.01-0.032-0.302,0.256-0.697,0.642
			c-0.527,0.517-1.055,1.031-1.579,1.544c-0.396,0.386-0.71,0.715-0.703,0.736c0.006,0.021,0.329-0.277,0.725-0.664
			C30.088,13.608,30.602,13.103,31.108,12.605z"/>
		<path d="M31.095,12.632c-0.506,0.494-1.01,0.987-1.512,1.479c-0.396,0.386-0.702,0.742-0.688,0.794
			c0.016,0.051,0.352-0.216,0.75-0.597c0.439-0.418,0.874-0.832,1.302-1.239c0.398-0.381,0.753-0.79,0.793-0.912
			C31.779,12.033,31.49,12.247,31.095,12.632z"/>
		<path d="M14.991,23.671c0.329,0.062,0.927-0.198,1.333-0.572c0.403-0.37,0.808-0.742,1.211-1.113
			c0.406-0.375,0.531-0.848,0.27-1.04c-0.172-0.127-0.336-0.242-0.482-0.339c-0.019-0.013-0.035-0.025-0.052-0.038
			c-0.029-0.021-0.381,0.268-0.786,0.643c-0.394,0.366-0.788,0.731-1.182,1.098c-0.405,0.376-0.726,0.766-0.741,0.867
			c-0.008,0.061-0.023,0.121-0.046,0.181c-0.015,0.037-0.032,0.07-0.053,0.104C14.429,23.516,14.662,23.611,14.991,23.671z"/>
		<path d="M29.296,38.357c0.014-0.003,0.026-0.009,0.04-0.018c0.023-0.016,0.044-0.042,0.062-0.074c0.026-0.047,0-0.048-0.053,0.003
			C29.295,38.318,29.271,38.362,29.296,38.357z"/>
	</g>
</g>
<g>
</g>
<g>
</g>
<g>
</g>
<g>
</g>
<g>
</g>
<g>
</g>
<g>
</g>
<g>
</g>
<g>
</g>
<g>
</g>
<g>
</g>
<g>
</g>
<g>
</g>
<g>
</g>
<g>
</g>
</svg>
