<?xml version="1.0" encoding="iso-8859-1"?>
<!-- Generator: Adobe Illustrator 16.0.0, SVG Export Plug-In . SVG Version: 6.00 Build 0)  -->
<!DOCTYPE svg PUBLIC "-//W3C//DTD SVG 1.1//EN" "http://www.w3.org/Graphics/SVG/1.1/DTD/svg11.dtd">
<svg version="1.1" id="Capa_1" xmlns="http://www.w3.org/2000/svg" xmlns:xlink="http://www.w3.org/1999/xlink" x="0px" y="0px"
	 width="44.614px" height="44.615px" viewBox="0 0 44.614 44.615" style="enable-background:new 0 0 44.614 44.615;"
	 xml:space="preserve">
<g>
	<g>
		<path d="M15.299,36.806c1.969,1.386,8.797,8.36,11.754,5.44c2.27-2.241,1.93-5.228-0.466-6.971c-1.64-1.19-3.28-2.384-4.919-3.575
			c-0.411-0.3-2.29-0.779-1.042-0.784c1.112-0.004,2.225-0.008,3.336-0.013c2.704-0.009,5.055,0.305,7.338-1.318
			c1.602-1.14,1.916-3.646,2.521-5.836c0.147-0.533,0.474-0.543,0.648-0.021c1.069,3.201,1.426,7.446,5.21,7.446
			c2.725,0,5.873-0.05,4.668-3.578c-1.678-4.909-3.356-9.819-5.034-14.729c-1.162-3.401-1.867-8.256-4.196-11.08
			c-0.294-0.356-1.557,0.118-1.786,0.396c-2.227,2.711-2.893,7.268-4.004,10.534c-0.729,2.145-1.845,9.198-4.304,11.365
			c-0.415,0.365-1.294,0.519-1.847,0.519c-3.839,0-7.678,0-11.518,0c-3.026,0-6.546-0.513-9.613,0.133
			c-0.541,0.113-1.038,0.249-1.125,0.249c-0.086,0-0.136,0.016-0.111,0.032c0.025,0.018-0.002,0.046-0.061,0.062
			c-0.036,0.009-0.071,0.019-0.106,0.029c-0.079,0.028-0.763,0.307-0.626,0.5c1.114,1.588,2.935,2.513,4.51,3.62
			C8.118,31.756,11.708,34.282,15.299,36.806z M32.487,8.723c0.083-0.246,0.167-0.491,0.251-0.737
			c0.351-1.027,0.633-2.208,1.021-3.326c0.181-0.521,0.464-0.737,0.574-0.487c0.111,0.249-0.043,0.69-0.338,0.981
			s-0.54,0.543-0.547,0.563c-0.007,0.02,0.237-0.208,0.545-0.507c0.309-0.3,0.737-0.131,0.932,0.386
			c0.006,0.016,0.012,0.031,0.018,0.048c0.193,0.518-0.003,1.253-0.404,1.633c-0.503,0.476-1.045,0.988-1.635,1.547
			c-0.115,0.11-0.225,0.216-0.333,0.319C32.387,9.318,32.349,9.13,32.487,8.723z M31.373,11.996
			c0.093-0.271,0.186-0.542,0.277-0.813c0.178-0.522,0.636-1.268,1.023-1.662c0.658-0.673,1.31-1.338,1.957-1.997
			c0.387-0.394,0.794-0.407,0.902-0.027c0.11,0.381-0.119,1.009-0.507,1.402c-1.092,1.109-2.185,2.218-3.275,3.33
			C31.364,12.622,31.195,12.519,31.373,11.996z M29.648,17.288c0.056-0.052,0.057-0.051,0.002,0.003
			C29.597,17.344,29.594,17.341,29.648,17.288z M4.071,26.96c-0.237-0.166-0.406-0.578-0.379-0.919
			c0.027-0.341,0.496-0.616,1.048-0.616c0.391,0,0.783,0,1.174,0c5.836,0,11.672,0,17.509,0c0.028,0,0.063-0.004,0.102-0.011
			c0.056-0.011,0.214-0.019,0.354-0.033c0.077-0.009,0.16-0.023,0.252-0.044c0.16-0.038,0.313-0.082,0.462-0.132
			c0.252-0.083,0.502-0.168,0.564-0.168c0.063,0,0.127-0.013,0.143-0.025c0.015-0.014-0.011-0.025-0.058-0.025
			c-0.046,0,0.336-0.171,0.79-0.484c0.422-0.291,0.782-0.636,1.092-1.021c0.347-0.431,0.546-0.778,0.525-0.721
			c-0.02,0.059,0.292-0.198,0.696-0.573c1.441-1.339,2.883-2.676,4.322-4.014c0.404-0.377,0.877-1.106,1.055-1.628l0.228-0.67
			c0.179-0.522-0.006-0.642-0.412-0.267c-1.351,1.254-2.701,2.508-4.054,3.763c-0.405,0.375-0.601,0.252-0.446-0.278
			c0.069-0.237,0.139-0.476,0.207-0.714c0.155-0.53,0.627-1.251,1.036-1.622c0.83-0.754,2.289-2.095,4.164-3.825
			c0.406-0.375,0.852-1.019,0.994-1.438c0.142-0.419-0.066-0.451-0.467-0.071c-1.013,0.957-2.329,2.193-3.87,3.635
			c-0.216,0.213-0.407,0.4-0.577,0.567c-0.32,0.312-0.436,0.141-0.259-0.382c0.099-0.29,0.197-0.579,0.296-0.869
			c0.178-0.523,0.652-1.249,1.06-1.622c0.353-0.322,0.704-0.644,1.057-0.967c0.817-0.821,1.64-1.639,2.461-2.457
			c0.392-0.39,0.825-0.273,0.979,0.258c0.116,0.4,0.234,0.787,0.359,1.152c1.509,4.415,3.018,8.831,4.527,13.247
			c0.471,1.377,0.94,2.755,1.411,4.132c0.548,1.601,0.492,2.239-1.491,2.239c-0.088,0-0.172-0.008-0.254-0.019
			c-0.14-0.021,0.062-0.362,0.448-0.758c0.058-0.059,0.114-0.116,0.171-0.176c0.386-0.396,0.589-1.036,0.452-1.433
			c-0.135-0.396-0.561-0.397-0.95-0.007c-0.331,0.334-0.66,0.666-0.988,0.997c-0.39,0.392-0.887,0.556-1.075,0.331
			c-0.189-0.225-0.006-0.741,0.382-1.134c0.439-0.443,0.872-0.882,1.3-1.312c0.39-0.393,0.667-0.82,0.62-0.955
			c-0.046-0.135-0.391,0.082-0.769,0.483c-0.463,0.491-0.922,0.979-1.377,1.46c-0.379,0.4-0.919,0.343-1.145-0.161
			c-1.049-2.351-1.489-5.601-2.626-6.971c-0.298-0.359-1.552,0.12-1.786,0.396c-1.515,1.793-2.145,8.963-4.783,8.973
			c-2.989,0.011-6.312-0.514-9.156,0.544c-0.083,0.03-0.759,0.302-0.626,0.501c1.391,2.078,4.006,3.376,6.007,4.83
			c1.837,1.337,2.062,7.023-0.035,5.548c-0.076-0.055-0.151-0.107-0.227-0.159c-0.125-0.089,0.072-0.479,0.441-0.874
			c0.37-0.395,0.313-0.966-0.126-1.274s-1.109-0.25-1.497,0.132c-0.388,0.383-1.07,0.435-1.522,0.115
			c-0.29-0.204-0.58-0.408-0.871-0.612c-0.452-0.316-0.507-0.887-0.124-1.271c0.383-0.385,0.506-0.83,0.274-0.993
			c-0.232-0.163-0.684-0.051-1.002,0.259c-0.317,0.311-0.183,0.253-0.409,0.459c-0.225,0.207-0.773,0.117-1.225-0.2
			c-0.451-0.317-0.902-0.635-1.353-0.951c-0.452-0.317-0.51-0.889-0.128-1.274c0.381-0.387,0.66-0.722,0.622-0.749
			c-0.038-0.026-0.395,0.253-0.796,0.625c-0.402,0.372-0.987,0.491-1.307,0.268c-0.32-0.226-0.251-0.708,0.152-1.078
			c0.404-0.371,0.499-0.834,0.212-1.036s-0.843-0.062-1.243,0.311c-0.4,0.374-1.09,0.419-1.542,0.103
			c-0.425-0.299-0.851-0.6-1.277-0.898c-0.452-0.316-0.512-0.891-0.134-1.278c0.378-0.39,0.489-0.843,0.249-1.012
			c-0.24-0.169-0.747,0.005-1.133,0.389c-0.385,0.384-1.031,0.461-1.442,0.172s-0.432-0.834-0.046-1.219
			c0.385-0.384,0.68-0.708,0.656-0.724c-0.023-0.017-0.224,0.146-0.447,0.357c-0.224,0.213-0.543,0.517-0.71,0.684
			c-0.166,0.168-0.321,0.289-0.347,0.271c-0.016-0.012-0.031-0.021-0.046-0.032c-0.116-0.081-0.231-0.162-0.346-0.243
			c-0.191-0.135-0.032-0.554,0.355-0.936c0.387-0.383,0.53-0.812,0.318-0.963c-0.211-0.147-0.688,0.049-1.066,0.438
			c-0.377,0.389-0.915,0.541-1.2,0.341s-0.211-0.679,0.165-1.068c0.377-0.39,0.37-0.925-0.016-1.196
			c-0.386-0.272-1.012-0.183-1.399,0.201C4.814,26.953,4.307,27.127,4.071,26.96z"/>
		<path d="M42.455,33.722c0.371-0.41,0.492-0.896,0.483-0.931c-0.009-0.034-0.404-0.339-0.946-0.442
			c-0.912-0.173-2.081,0.01-2.818,0.01c-2.333,0-2.959-1.935-3.497-3.758c-0.156-0.53-0.378-1.113-0.488-1.307
			c-0.066-0.117-0.132-0.234-0.198-0.352c-0.048-0.084-0.167-0.088-0.251-0.088c-0.147,0-0.296,0-0.442,0
			c-0.321,0-1.007,0.097-1.188,0.415c-1.254,2.217-1.005,5.088-4.295,5.088c-0.9,0-1.881-0.09-2.729,0.2
			c-0.522,0.179-0.896,0.509-0.917,0.546c-0.021,0.037,0.092,0.528,0.456,0.942c0.896,1.015,2.708,1.687,3.389,2.817
			c0.987,1.644-0.702,3.353-0.873,4.938c-0.06,0.55,0.146,1.014,0.183,1.035c0.021,0.013,0.046,0.019,0.075,0.021
			c1.577,0.142,2.692-0.956,3.901-1.835c2.772-2.015,3.972,2.062,6.476,1.839c0.254-0.022,0.912-0.125,1.032-0.406
			c0.549-1.289-0.778-3.283-1.007-4.625C38.394,35.452,41.251,35.053,42.455,33.722z M28.103,33.424
			c-0.274,0.276-0.521,0.486-0.549,0.467c-0.018-0.012-0.035-0.023-0.052-0.035c-0.698-0.508-1.546-0.933-0.195-0.933
			c0.215,0,0.431,0,0.646,0C28.311,32.923,28.377,33.147,28.103,33.424z M38.409,41.872c-0.041,0.041-0.295-0.062-0.552-0.247
			c-0.257-0.188-0.295-0.513-0.095-0.711c0.2-0.199,0.482-0.096,0.587,0.248C38.453,41.504,38.451,41.83,38.409,41.872z
			 M37.423,37.47c-0.119,0.365-0.113,0.737-0.037,1.112c0.108,0.541,0.059,1.188-0.248,1.485c-0.308,0.298-0.766,0.363-1.035,0.167
			c-0.186-0.134-0.357-0.244-0.511-0.318c-1.111-0.536-2.573,0.044-3.577,0.527c-0.367,0.178-0.695,0.475-1.021,0.71
			c-0.302,0.221-0.604,0.438-0.905,0.658c-0.649,0.473-0.414,0.472-0.518,0.231c-0.123-0.287-0.081-0.69,0.04-1.151
			c0.14-0.534,0.621-1.271,1.005-1.668c0.692-0.714,1.429-1.475,2.204-2.272c0.385-0.396,0.43-0.911,0.103-1.15
			c-0.329-0.238-0.91-0.113-1.3,0.278c-0.086,0.087-0.173,0.174-0.259,0.261c-0.389,0.392-0.734,0.45-0.862,0.161
			c-0.127-0.289-0.007-0.774,0.341-1.124c0.346-0.351,0.592-0.657,0.55-0.688c-0.042-0.03-0.344,0.229-0.674,0.576
			c-0.331,0.348-0.809,0.367-1.114,0.092c-0.306-0.274-0.34-0.724-0.045-1.04s0.282-0.756-0.031-0.982
			c-0.312-0.228-0.468-0.41-0.349-0.41c0.071,0,0.144,0,0.216,0c0.282,0,0.541-0.021,0.78-0.061
			c0.428-0.068,0.795-0.199,0.843-0.199c0.047,0,0.096-0.013,0.108-0.025c0.014-0.014,0.008-0.025-0.014-0.025
			c-0.021,0,0.389-0.165,0.805-0.528c0.187-0.162,0.352-0.343,0.501-0.54c0.336-0.439,0.829-1.177,1.206-1.58
			c0,0,0-0.001,0.001-0.002c0.377-0.403,0.79-0.359,0.95,0.088c0.161,0.447,0.021,1.12-0.358,1.521
			c-0.116,0.123-0.232,0.245-0.348,0.366c-0.379,0.401-0.609,0.728-0.515,0.728s0.487-0.317,0.876-0.71
			c0.039-0.039,0.078-0.079,0.118-0.118c0.389-0.394,0.815-0.496,0.983-0.252c0.168,0.245,0.182,0.572,0.001,0.753
			c-0.179,0.181-0.18,0.327-0.002,0.327c0.179,0,0.358-0.108,0.401-0.242c0.044-0.134,0.108-0.21,0.144-0.169
			c0.021,0.024,0.043,0.05,0.068,0.073c0.582,0.562,1.528,0.598,2.282,0.598c0.129,0,3.892-0.122,2.775,0.958
			C39.653,35.188,38.048,35.545,37.423,37.47z"/>
		<path d="M30.873,23.473c0.401-0.38,0.76-0.787,0.801-0.908s-0.246,0.094-0.642,0.479c-0.442,0.433-0.884,0.864-1.324,1.294
			c-0.395,0.387-0.662,0.699-0.6,0.699c0.064,0,0.44-0.309,0.841-0.688C30.261,24.055,30.568,23.763,30.873,23.473z"/>
		<path d="M38.181,26.304c0.504-0.542,1.007-1.08,1.506-1.616c0.376-0.403,0.586-1.01,0.469-1.352
			c-0.117-0.343-0.53-0.308-0.922,0.082c-0.502,0.499-1.005,0.999-1.51,1.5c-0.393,0.39-0.601,1.021-0.467,1.411
			C37.39,26.718,37.804,26.708,38.181,26.304z"/>
	</g>
</g>
<g>
</g>
<g>
</g>
<g>
</g>
<g>
</g>
<g>
</g>
<g>
</g>
<g>
</g>
<g>
</g>
<g>
</g>
<g>
</g>
<g>
</g>
<g>
</g>
<g>
</g>
<g>
</g>
<g>
</g>
</svg>
