<?xml version="1.0" encoding="iso-8859-1"?>
<!-- Generator: Adobe Illustrator 16.0.0, SVG Export Plug-In . SVG Version: 6.00 Build 0)  -->
<!DOCTYPE svg PUBLIC "-//W3C//DTD SVG 1.1//EN" "http://www.w3.org/Graphics/SVG/1.1/DTD/svg11.dtd">
<svg version="1.1" id="Capa_1" xmlns="http://www.w3.org/2000/svg" xmlns:xlink="http://www.w3.org/1999/xlink" x="0px" y="0px"
	 width="54.298px" height="54.298px" viewBox="0 0 54.298 54.298" style="enable-background:new 0 0 54.298 54.298;"
	 xml:space="preserve">
<g>
	<g>
		<path d="M24.038,29.476c5.621,2.643,9.701-2.082,10.677-7.297c1.002-5.358,2.65-15.057-0.834-19.815
			c-4.1-5.601-12.145-0.07-14.046,4.439c-0.046,0.108-0.01,0.186,0.076,0.237c0.131,0.079,0.22,0.97,0.121,2.07
			C19.44,15.746,17.723,26.507,24.038,29.476z M32.788,22.438c-0.205,1.242-0.643,2.94-1.414,4.328
			c-0.537,0.966-1.541,1.354-1.896,1.023c-0.357-0.33-1.061-0.218-1.612,0.295c-0.552,0.513-0.848,0.984-0.657,1.037
			c0.191,0.054-0.342,0.009-1.104-0.345c-0.41-0.191-0.845-0.447-1.303-0.778c-2.231-1.605-2.771-4.611-3.087-7.126
			c-0.004-0.032-0.007-0.064-0.009-0.097c-0.004-0.054,0.719-0.084,1.614-0.051c0.896,0.033,1.038,0.633,0.318,1.321
			c-0.72,0.689-1.233,1.538-1.126,1.89c0.108,0.353,0.838-0.012,1.608-0.804c0.268-0.273,0.534-0.549,0.801-0.822
			c0.77-0.791,2.288-1.378,3.391-1.314c0.891,0.051,1.781,0.097,2.674,0.133c1.104,0.044,1.957,0.338,1.904,0.686
			C32.856,22.022,32.823,22.231,32.788,22.438z M22.105,5.99c-0.019-0.033,0.062-0.247,0.202-0.477
			c0.141-0.229,0.745-0.885,1.333-1.476c0.588-0.591,1.778-1.631,2.796-2.062c2.289-0.968,4.789-0.7,6.211,2.038
			c0.777,1.503,0.846,3.46,0.977,5.106c0.24,3.063,0.088,6.208-0.27,9.303c-0.125,1.098-1.15,1.955-2.254,1.902
			c-0.889-0.042-1.775-0.092-2.663-0.144c-1.102-0.062-2.009-0.261-2.023-0.442c-0.015-0.184-0.168-0.191-0.348-0.021
			c-0.179,0.171-1.087,0.269-2.03,0.236c-0.569-0.02-1.138-0.033-1.708-0.039c-0.072,0-0.198,0.026-0.348,0.07
			c-0.188,0.055-0.423-0.781-0.449-1.886c-0.098-4.005,0.523-8.063,0.592-12.048C22.123,6.031,22.116,6.01,22.105,5.99z"/>
		<path d="M23.284,11.955c0.727-0.748,1.435-1.477,2.125-2.187c0.771-0.792,1.396-1.465,1.399-1.504S26.19,8.84,25.421,9.634
			c-0.656,0.678-1.381,1.426-2.134,2.204c-0.769,0.793-1.394,1.462-1.396,1.494C21.891,13.363,22.514,12.747,23.284,11.955z"/>
		<path d="M23.188,16.818c0.616-0.608,1.233-1.218,1.85-1.825c0.786-0.776,1.464-2.086,1.519-2.926
			c0.055-0.841-0.521-0.879-1.292-0.087c-0.693,0.712-1.387,1.424-2.08,2.136c-0.771,0.792-1.418,2.031-1.425,2.769
			C21.753,17.622,22.402,17.593,23.188,16.818z"/>
		<path d="M23.321,11.557c0.774-0.78,1.47-1.478,2.074-2.08c0.783-0.779,1.452-1.893,1.473-2.493c0.021-0.602-0.059-1.01-0.157-0.91
			c-0.1,0.099-0.141,0.064-0.083-0.072c0.057-0.136-0.363,0.185-0.94,0.716c-0.352,0.324-0.701,0.646-1.046,0.961
			c-0.419,0.413-0.844,0.83-1.269,1.248c-0.701,0.689-1.315,1.876-1.366,2.65C21.953,12.351,22.543,12.341,23.321,11.557z"/>
		<path d="M26.056,26.239c-0.755,0.753-1.277,1.451-1.165,1.55c0.113,0.1,0.796-0.374,1.521-1.053
			c0.727-0.68,1.242-1.369,1.157-1.543S26.811,25.486,26.056,26.239z"/>
		<path d="M27.946,38.486c0.444,0,0.893-0.021,1.34-0.072c3.494-0.394,7.697-2.017,9.604-5.104c2.283-3.699,1.215-9.375,1.15-13.457
			c-0.008-0.524-1.941-0.174-1.932,0.519c0.047,2.957,0.268,5.884,0.041,8.841c-0.498,6.533-7.684,10.042-13.727,7.461
			c-3.132-1.337-6.288-3.067-7.824-6.216c-1.494-3.065-0.626-7.332-0.565-10.605c0.01-0.509-1.919-0.18-1.932,0.519
			c-0.093,5.025-1.017,10.429,3.23,14.003c1.683,1.416,3.587,2.54,5.614,3.253c1.042,0.366,1.853,0.589,1.79,0.67
			c-0.04,0.054-0.065,0.109-0.065,0.171c0.001,1.273,0.011,2.543,0.101,3.809c0.078,1.102-0.025,2.038-0.236,2.234
			c-0.211,0.198-0.277,0.455-0.322,0.457c-0.025,0.002-0.052,0.004-0.081,0.01c-4.426,0.959-8.861,4.197-9.951,8.755
			c-0.11,0.461,0.564,0.596,0.873,0.56c7.187-0.848,14.483-0.256,21.585-1.839c0.439-0.098,1.01-0.521,0.727-1.011
			c-2.016-3.503-4.912-5.918-8.546-6.823c-1.071-0.269-1.923-0.377-1.886-0.443c0.023-0.044,0.035-0.088,0.027-0.134
			c-0.203-1.2-0.29-2.406-0.327-3.616C26.6,39.32,27.205,38.486,27.946,38.486z M16.417,52.881
			c-0.054,0.005,0.171-0.857,0.755-1.796c0.609-0.978,1.408-1.84,2.325-2.565c0.866-0.685,0.903-0.625,0.067,0.098
			c-0.858,0.74-1.616,1.574-2.187,2.457C16.776,52,16.471,52.876,16.417,52.881z M18.009,52.745c-0.742,0.056-0.72-0.53,0.05-1.323
			c1.066-1.1,2.116-2.182,3.145-3.24c0.77-0.792,1.799-1.597,2.312-1.755c0.312-0.096,0.625-0.179,0.938-0.247
			c0.211-0.046,0.373-0.12,0.489-0.211c0.235-0.181,0.482-0.456,0.77-0.442c0.286,0.013-0.106,0.678-0.876,1.471
			c-1.365,1.407-2.729,2.814-4.092,4.223C19.977,52.012,18.751,52.69,18.009,52.745z M26.728,47.319
			c0.786-0.775,2.298-1.178,3.282-0.679c1.506,0.764,2.811,1.874,3.922,3.218c0.701,0.851,0.297,1.783-0.799,1.937
			c-3.213,0.449-6.461,0.564-9.711,0.683c-1.104,0.04-1.361-0.555-0.575-1.329C24.141,49.87,25.435,48.594,26.728,47.319z"/>
	</g>
</g>
<g>
</g>
<g>
</g>
<g>
</g>
<g>
</g>
<g>
</g>
<g>
</g>
<g>
</g>
<g>
</g>
<g>
</g>
<g>
</g>
<g>
</g>
<g>
</g>
<g>
</g>
<g>
</g>
<g>
</g>
</svg>
