<?xml version="1.0" encoding="iso-8859-1"?>
<!-- Generator: Adobe Illustrator 16.0.0, SVG Export Plug-In . SVG Version: 6.00 Build 0)  -->
<!DOCTYPE svg PUBLIC "-//W3C//DTD SVG 1.1//EN" "http://www.w3.org/Graphics/SVG/1.1/DTD/svg11.dtd">
<svg version="1.1" id="Capa_1" xmlns="http://www.w3.org/2000/svg" xmlns:xlink="http://www.w3.org/1999/xlink" x="0px" y="0px"
	 width="45.951px" height="45.95px" viewBox="0 0 45.951 45.95" style="enable-background:new 0 0 45.951 45.95;"
	 xml:space="preserve">
<g>
	<g>
		<path d="M7.364,30.378c0.917-0.691,1.744-1.495,2.598-2.264c1.244-1.119,2.487-2.237,3.731-3.356
			c0.848-0.764,2.356-1.84,1.752-3.117c-0.004-0.01-0.014-0.017-0.025-0.023c-0.016-0.01-0.039-0.038-0.059-0.052
			c-0.019-0.014-0.049-0.027-0.063-0.035c-0.015-0.008-0.432-0.251-0.984-0.275c-1.955-0.087-4.051,2.289-5.276,3.391
			c-1.217,1.096-2.434,2.191-3.65,3.287c-0.812,0.731-2.128,1.735-1.56,2.942C4.305,31.888,6.849,30.766,7.364,30.378z
			 M6.246,29.047c0.952-1.02,1.899-2.033,2.842-3.044c0.09-0.081,0.18-0.162,0.27-0.243c0.281-0.253,2.12-2.218,3.295-3.111
			c0.44-0.334,1.028,0.032,0.812,0.541c-0.576,1.356-2.822,2.913-3.55,3.567c-1.015,0.913-2.03,1.826-3.044,2.737
			c-0.411,0.37-0.938,0.707-1.138,0.613C5.533,30.014,5.869,29.449,6.246,29.047z"/>
		<path d="M31.879,21.35c-2.088,0.156-2.131,1.665-0.871,3.012c2.004,1.805,4.008,3.608,6.012,5.412
			c0.932,0.839,1.764,1.49,3.09,1.394c2.086-0.153,2.136-1.663,0.877-3.011c-1.82-1.947-4.036-3.631-6.019-5.415
			C34.037,21.904,33.205,21.251,31.879,21.35z M39.28,29.254c0.076-0.087,0.429,0.146,0.707,0.567
			c0.19,0.288,0.18,0.409-0.446-0.063c-0.131-0.1-0.25-0.226-0.371-0.334C39.153,29.407,39.214,29.328,39.28,29.254z M37.122,27.271
			c0.088-0.091,0.491,0.135,0.902,0.505c0.134,0.121,0.268,0.241,0.402,0.362c0.409,0.37,0.671,0.743,0.583,0.833
			c-0.088,0.091-0.492-0.135-0.903-0.505c-0.134-0.12-0.267-0.241-0.401-0.361C37.294,27.735,37.035,27.361,37.122,27.271z
			 M32.719,23.277c-0.08,0.08-0.429-0.152-0.706-0.571c-0.193-0.29-0.189-0.416,0.432,0.052c0.131,0.099,0.25,0.225,0.372,0.334
			c0.008,0.007,0.016,0.014,0.023,0.021C32.853,23.124,32.799,23.197,32.719,23.277z M35.736,25.718
			c0.214,0.192,0.316,0.422,0.228,0.512c-0.09,0.09-0.334,0.006-0.55-0.187c-0.214-0.193-0.315-0.423-0.227-0.513
			C35.276,25.441,35.522,25.524,35.736,25.718z M35.208,25.242c0.066,0.061,0.05,0.183-0.038,0.273
			c-0.087,0.091-0.396-0.049-0.689-0.313s-0.462-0.554-0.376-0.646s0.341,0,0.57,0.206c0.138,0.124,0.274,0.248,0.414,0.372
			C35.129,25.171,35.168,25.207,35.208,25.242z"/>
		<path d="M8.888,10.061c3.383,0,3.486,3.323,4.44,5.837c0.788,2.077,2.215,3.755,3.889,5.164c1.509,1.271,4.094,1.433,4.094,3.981
			c0,1.609,0,3.22,0,4.831c0,4.705-6.029,4.232-9.437,5.934c-3.114,1.554-5.408,3.565-7.019,6.679
			c-1.346,2.602,0.663,3.747,3.074,3.404c3.827-0.544,4.299-5.081,7.324-7.074c7.015-4.625,6.059,0.487,6.059,3.312
			c0,1.538-0.111,2.694,1.251,3.646c0.477,0.333,1.241,0.051,1.664-0.245c3.879-2.711-2.016-9.575,5.972-7.464
			c3.96,1.046,5.905,3.275,7.885,6.627c0.646,1.092,2.018,1.218,3.139,1.218c3.396,0,3.028-2.843,1.433-4.993
			c-1.602-2.159-3.482-3.685-5.808-4.995c-1.827-1.03-8.604-1.955-10.667-3.739c-0.418-0.361-0.565-1.254-0.565-1.807
			c0-1.833,0-3.667,0-5.5c0-2.355,5.917-5.7,7.068-8.215c0.467-1.021,1.583-6.601,2.815-6.601c1.366,0,2.732,0,4.099,0
			c1.701,0,3.016-0.207,4.08-1.562c0.096-0.122,0.104-0.233,0.009-0.354c-1.369-1.743-4.083-1.19-6.086-1.19
			c-4.7,0-2.11-6.163-6.335-6.815c-0.881-0.136-2.694,0.539-2.606,1.69c0.122,1.588,1.507,5.125-0.994,5.125
			c-1.753,0-3.506,0-5.259,0c-1.093,0-2.187,0-3.28,0c-1.517,0-0.513-5.219-1.367-6.43c-0.964-1.368-3.746,0.312-4.582,0.88
			c-1.154,0.784-1.143,3.067-1.301,4.193c-0.292,2.088-3.587,1.356-4.957,1.356c-1.869,0-3.505,0.011-4.723,1.561
			C2.099,8.636,2.091,8.747,2.186,8.868C3.628,10.708,6.792,10.061,8.888,10.061z M23.651,43.987
			c-0.042,0.123-0.107,0.181-0.131,0.128c-0.023-0.052,0.01-0.152,0.077-0.225C23.663,43.819,23.693,43.864,23.651,43.987z
			 M26.04,34.258c4.106,0.49,7.863,1.505,11.326,3.812c1.052,0.701,1.904,1.633,2.74,2.566c0.571,0.699,1.061,1.445,1.47,2.237
			c0.253,0.49,0.408,1.141,0.348,1.422c-0.062,0.281-0.237,0.423-0.312,0.338c-0.076-0.086-0.236-0.053-0.366,0.078
			c-0.129,0.131-0.481,0.093-0.731-0.154s-0.247-0.652-0.032-0.871c0.216-0.219,0.299-0.603,0.168-0.848
			c-0.13-0.245-0.451-0.235-0.697,0.01s-0.458,0.426-0.475,0.404c-0.01-0.014-0.02-0.026-0.03-0.042
			c-0.127-0.216-0.253-0.428-0.379-0.635c-0.211-0.349-0.22-0.8-0.011-1.013c0.21-0.214,0.277-0.495,0.146-0.623
			s-0.393-0.079-0.578,0.106c-0.185,0.184-0.438,0.183-0.574,0.004c-0.136-0.18-0.131-0.441,0.019-0.59
			c0.149-0.149,0.165-0.351,0.034-0.445c-0.131-0.096-0.341-0.07-0.466,0.054s-0.398,0.037-0.629-0.176
			c-0.231-0.213-0.365-0.436-0.284-0.517s-0.065-0.268-0.332-0.405c-0.269-0.138-0.535-0.195-0.59-0.143
			c-0.057,0.054-0.164,0.059-0.241,0.01c-0.046-0.028-0.093-0.058-0.144-0.083c-2.458-1.312-7.523-3.674-10.367-2.067
			c-0.971,0.549-1.305,1.385-1.382,2.335c-0.045,0.551-0.033,1.029-0.069,1.066s-0.035,0.038,0,0.002s0.081,0.242,0.113,0.619
			c0.032,0.378-0.093,0.841-0.285,1.032c-0.191,0.193-0.348-0.099-0.317-0.649c0.03-0.531,0.071-1.069,0.076-1.594
			c0.005-0.553,0.193-1.261,0.495-1.582c0.301-0.322,0.299-0.829-0.092-0.952c-0.228-0.072-0.475-0.097-0.735-0.061
			c-0.045,0.006-0.09,0.016-0.135,0.022c-0.075,0.014-0.212-0.09-0.321-0.22c-0.065-0.077-0.135-0.151-0.211-0.225
			c-1.938-1.837-7.732,1.606-9.283,2.629c-1.144,0.754-2.452,2.041-2.991,3.307c-0.083,0.192-0.164,0.386-0.247,0.579
			c-0.136,0.318-0.483,0.941-0.851,1.327c-0.367,0.387-0.812,0.493-0.849,0.419c-0.037-0.073-0.117-0.082-0.192-0.013
			c-0.076,0.069-0.515-0.153-0.689-0.678c-0.078-0.235-0.143-0.521-0.197-0.854c-0.087-0.545,0.048-1.413,0.32-1.894
			c0.01-0.017,0.02-0.035,0.03-0.052c0.275-0.479,0.863-1.155,1.25-1.548c0.358-0.364,0.717-0.729,1.077-1.095
			c0.388-0.393,1.045-1.001,1.505-1.307c1.935-1.288,4.133-1.783,6.361-2.246c0.541-0.113,0.908-0.137,0.819-0.054
			c-0.088,0.083,0.255,0.028,0.773-0.101c0.518-0.129,0.998-0.273,1.066-0.343c0.069-0.069,0.166-0.135,0.217-0.146
			c0.031-0.008,0.061-0.015,0.092-0.023c0.783-0.209,2.311-0.778,2.565-1.741c0.052-0.198,0.096-0.396,0.134-0.599
			c0.063-0.333,0.207-0.712,0.34-0.845c0.133-0.135,0.242-0.036,0.242,0.219s0.095,0.902,0.332,1.401
			C24.383,33.606,24.964,34.129,26.04,34.258z M23.347,28.096c-0.013-0.552,0.051-1.077,0.152-1.173
			c0.101-0.097,0.183,0.273,0.183,0.826c0,0.422,0,0.844,0,1.266c0,0.552-0.082,1.076-0.184,1.168
			c-0.102,0.093-0.155-0.278-0.146-0.83C23.36,28.936,23.356,28.516,23.347,28.096z M31.917,2.761
			c0.047,0.086,0.087,0.182,0.121,0.287c0.054,0.164-0.151,0.532-0.439,0.815c-0.287,0.283-0.586,0.069-0.629-0.481
			C30.875,2.135,30.978,1.04,31.917,2.761z M7.079,7.951c1.06,0,2.121,0,3.181,0c0.376,0,0.86-0.058,1.303-0.193
			c0.528-0.162,1.128-0.643,1.411-0.902c0.202-0.186,0.396-0.389,0.447-0.526c0.063-0.168,0.126-0.335,0.189-0.502
			c0.104-0.277,0.153-0.707,0.144-0.961c-0.009-0.254,0.202-0.636,0.427-0.856c0.226-0.22,0.761-0.382,1.163-0.232
			s0.586,0.761,0.541,1.312c-0.198,2.44,1.594,2.861,4.035,2.861c2.661,0,5.578,0.356,8.215-0.019
			c1.299-0.185,1.792-0.487,2.689-1.352c0.199-0.191,0.268-0.371,0.312-0.591c0.072-0.369,0.062-0.86,0.02-1.111
			c-0.042-0.25,0.164-0.682,0.453-0.963c0.289-0.281,0.604-0.069,0.663,0.481c0.012,0.111,0.022,0.225,0.036,0.338
			c0.059,0.549-0.19,1.298-0.591,1.677c-0.198,0.188-0.402,0.38-0.613,0.58c-0.401,0.379-0.631,0.687-0.515,0.687
			c0.115,0,0.523-0.32,0.91-0.714c0.098-0.099,0.194-0.198,0.291-0.297c0.388-0.395,0.765-0.255,1.045,0.22
			c0.206,0.35,0.501,0.614,0.933,0.731c1.139,0.308,1.866,0.333,3.054,0.333c0.919,0,1.838,0,2.757,0
			c0.725,0,2.261,1.113,0.796,1.113c-1.481,0-3.09-0.19-4.56,0.019c-2.363,0.336-3.116,1.798-3.641,3.588
			c-0.155,0.53-0.591,1.271-0.995,1.646c-0.327,0.303-0.654,0.606-0.98,0.91c-0.405,0.375-0.525,0.283-0.308-0.225
			c0.146-0.342,0.28-0.685,0.398-1.026c0.184-0.521,0.63-1.257,1.036-1.632c0.162-0.149,0.327-0.301,0.495-0.456
			c0.406-0.375,0.713-0.862,0.627-1.07s-0.519-0.051-0.911,0.319c-0.392,0.37-0.656,0.299-0.718-0.151
			c-0.061-0.451-0.166-0.867-0.053-0.98c0.113-0.112,0.172-0.207,0.133-0.212c-0.024-0.003-0.048-0.006-0.073-0.006
			c0,0-0.08,0-0.177,0c-0.098,0-0.206,0.029-0.241,0.065c-0.035,0.036-0.384-0.271-0.901-0.465
			c-0.979-0.365-2.375-0.323-3.775-0.323c-2.778,0-6.378-0.554-9.096,0.191c-0.25,0.068-0.791,0.247-0.848,0.562
			c-0.009,0.052-0.018,0.102-0.028,0.154c-0.004,0.021,0.011,0.033,0.011,0.053c-0.001,0.023-0.018,0.045-0.015,0.069
			c0.622,4.156,1.83,9.429,6.633,10.273c0.75,0.132,1.449,0.118,2.097-0.014c0.541-0.109,1.286-0.244,1.695-0.25
			c0.409-0.007,1.063-0.378,1.469-0.754c0.922-0.857,1.844-1.713,2.765-2.57c0.404-0.376,0.57-0.263,0.307,0.222
			c-1.334,2.451-3.569,3.736-5.894,5.367c-0.978,0.686-1.146,1.948-1.146,3.027c0,0.201,0,0.403,0,0.604
			c0,0.333-0.084,0.686-0.186,0.785c-0.102,0.102-0.205-0.266-0.224-0.817c-0.017-0.486-0.03-0.968-0.03-1.44
			c0-0.164-0.014-0.323-0.039-0.477c-0.044-0.261,0.062-0.63,0.283-0.835c0.221-0.206,0.218-0.552-0.041-0.728
			c-0.158-0.107-0.324-0.2-0.495-0.272c-0.032-0.014-0.062-0.03-0.091-0.046c-0.049-0.027-0.173,0.03-0.275,0.125
			c-0.102,0.095-0.398-0.064-0.71-0.297c-0.312-0.233-0.554-0.415-0.503-0.462c0.051-0.048,0.006-0.142-0.094-0.218
			c-0.1-0.076-0.231-0.088-0.289-0.029c-0.059,0.059-0.507-0.097-0.976-0.388c-0.154-0.096-0.304-0.193-0.45-0.293
			c-0.456-0.311-0.702-0.7-0.583-0.823c0.12-0.123,0.1-0.352-0.036-0.521c-0.136-0.168-0.362-0.193-0.508-0.054
			c-0.146,0.139-0.593-0.054-0.958-0.468c-0.181-0.205-0.355-0.417-0.521-0.634c-0.336-0.438-0.397-0.992-0.18-1.207
			c0.218-0.215,0.259-0.665,0.106-1.013c-0.154-0.347-0.462-0.431-0.706-0.178c-0.245,0.252-0.555,0.245-0.685-0.023
			c-0.13-0.268-0.028-0.692,0.216-0.941c0.141-0.143,0.287-0.293,0.441-0.45c0.02-0.02,0.039-0.04,0.059-0.06
			c0.032-0.033,0.054-0.072,0.05-0.086c-0.005-0.015-0.233,0.205-0.509,0.489c-0.276,0.285-0.516,0.48-0.533,0.436
			c-0.018-0.044,0.193-0.311,0.474-0.597c0.28-0.285,0.406-0.847,0.299-1.26s-0.44-0.497-0.758-0.184
			c-0.318,0.312-0.643,0.37-0.725,0.128c-0.048-0.144-0.096-0.289-0.141-0.439c-0.078-0.262-0.157-0.503-0.237-0.726
			c-0.143-0.397-0.075-0.918,0.184-1.179c0.259-0.26,0.36-0.565,0.211-0.658c-0.148-0.093-0.434,0.006-0.627,0.201
			c-0.193,0.194-0.56-0.054-0.968-0.427c-0.887-0.81-2.12-0.87-4.153-0.87c-0.862,0-1.723,0-2.585,0
			c-0.138,0-0.306-0.044-0.475-0.116C5.463,8.843,5.461,8.542,5.68,8.332C5.9,8.122,6.527,7.951,7.079,7.951z M28.226,14.762
			c-0.907,2.783-3.35,6.071-6.734,3.831c-2.3-1.522-3.125-4.873-3.589-7.642c-0.091-0.545,0.291-1.027,0.844-1.023
			c1.086,0.008,2.24,0.133,3.129,0.133c1.948,0,3.897,0,5.845,0C30.08,10.061,28.575,13.691,28.226,14.762z M5.399,7.951
			c0.1,0,0.199,0,0.299,0c0.165,0,0.129,0.163-0.08,0.364C5.408,8.516,4.841,8.54,4.851,8.181C4.854,8.047,5.008,7.951,5.399,7.951z
			"/>
		<path d="M13.22,7.678c0.112,0,0.222-0.011,0.329-0.031c0.18-0.033,0.636-0.401,1.026-0.792c0.01-0.01,0.019-0.02,0.029-0.029
			c0.39-0.391,0.739-0.803,0.766-0.922c0.016-0.071,0.029-0.143,0.038-0.217c0.021-0.183,0.045-0.367,0.072-0.55
			c0.044-0.304-0.237-0.237-0.632,0.149c-0.574,0.562-1.149,1.125-1.727,1.691c-0.395,0.387-0.532,0.7-0.307,0.7L13.22,7.678
			L13.22,7.678z"/>
	</g>
</g>
<g>
</g>
<g>
</g>
<g>
</g>
<g>
</g>
<g>
</g>
<g>
</g>
<g>
</g>
<g>
</g>
<g>
</g>
<g>
</g>
<g>
</g>
<g>
</g>
<g>
</g>
<g>
</g>
<g>
</g>
</svg>
