<?xml version="1.0" encoding="iso-8859-1"?>
<!-- Generator: Adobe Illustrator 16.0.0, SVG Export Plug-In . SVG Version: 6.00 Build 0)  -->
<!DOCTYPE svg PUBLIC "-//W3C//DTD SVG 1.1//EN" "http://www.w3.org/Graphics/SVG/1.1/DTD/svg11.dtd">
<svg version="1.1" id="Capa_1" xmlns="http://www.w3.org/2000/svg" xmlns:xlink="http://www.w3.org/1999/xlink" x="0px" y="0px"
	 width="46.062px" height="46.062px" viewBox="0 0 46.062 46.062" style="enable-background:new 0 0 46.062 46.062;"
	 xml:space="preserve">
<g>
	<g>
		<path d="M43.791,18.539c-0.004-0.01-0.016-0.015-0.021-0.024c-0.024-0.074-0.082-0.146-0.172-0.21
			c-0.002-0.001-0.003-0.002-0.004-0.003c-0.056-0.039-0.119-0.076-0.201-0.109c-0.988-0.399-1.462-0.471-2.588-0.406
			c-1.427,0.16-2.471-0.099-3.132-0.774c-0.773-0.79-1.031-2.68-0.993-3.784c0.032-0.934,0.287-1.826,1.111-1.831
			c1.243-0.008,3.483,0.192,4.362-1.002c3.027-4.116-0.146-8.593-4.445-9.393C33.661,0.25-2.407-2.881,4.763,7.899
			c0.924,1.391,2.378,1.485,3.931,1.6c1.434,0.106,2.847,0.261,4.271,0.462c1.762,0.248,1.677,2.479,1.894,3.811
			c0.284,1.75,0.487,3.5,0.485,5.276c-0.003,2.576-4.803,1.279-5.955,1.071c-1.646-0.299-3.989-0.859-5.604-0.037
			c-3.301,1.681-2.636,6.166,0.835,7.135c1.329,0.371,7.608-0.349,7.31,0.468c-1.747,4.798-6.029,8.666-9.076,12.663
			c-0.127,0.166-0.3,0.457-0.093,0.648c1.703,1.579,3.324,3.239,5.028,4.818c0.47,0.436,1.261,0.242,1.685-0.168
			c2.727-2.647,5.613-5.109,8.169-7.93c2.278-2.512,3.449-5.678,4.998-8.64c1.25-2.394,3.571-2.706,4.245,0.118
			c0.541,2.265-0.134,5.222-0.206,7.552c-0.072,2.347,0.778,4.516,2.145,6.373c1.507,2.05,3.854,1.46,4.96-0.504
			c1.299-2.305,0.52-6.078,0.342-8.59c-0.269-3.785-0.821-8.086,4.767-8.949c1.471-0.229,2.981-0.241,4.461-0.396
			c0.343-0.035,1.079-0.277,1.076-0.735C44.42,22.154,44.503,20.208,43.791,18.539z M13.974,8.558
			c-0.707-0.148-1.489-0.203-2.183-0.231c0.115-0.113,0.24-0.238,0.379-0.381c0.411-0.422,0.734-0.783,0.723-0.808
			c-0.011-0.024-0.367,0.316-0.796,0.759c-0.155,0.16-0.287,0.301-0.403,0.426c-0.254-0.01-0.493-0.017-0.711-0.023
			c0.369-0.135,0.705-0.313,0.922-0.533c0.486-0.493,0.669-1.459,0.569-2.192c-0.101-0.733-0.748-0.709-1.536,0.065
			c-0.47,0.461-0.94,0.923-1.411,1.386C9.079,7.466,8.899,7.87,8.969,8.15C7.563,7.995,6.578,7.624,6.208,5.703
			C6.165,5.481,6.159,5.279,6.158,5.08c0.134-0.113,0.273-0.238,0.417-0.383c0.781-0.785,1.562-1.57,2.345-2.354
			c0.107-0.107,0.2-0.209,0.285-0.307c1.978-0.583,4.479-0.67,6.17-0.754c-0.048,0.046-0.095,0.092-0.142,0.139
			c-0.098,0.095,0.394-0.013,1.163-0.193c5.75-0.356,11.508,0.456,17.234,0.812c2.749,0.171,5.777-0.028,7.178,2.931
			c2.006,4.239-1.631,5-4.794,5.222c-0.233,0.017-0.624,0.139-0.865,0.351c-0.312,0.137-0.819,0.501-1.355,0.998
			c-1.453,1.347-2.904,2.694-4.357,4.042c0.156-1.135,0.181-2.26,0.111-3.253c0.121-0.096,0.246-0.199,0.378-0.319
			c0.559-0.512,1.193-1.094,1.897-1.741c0.813-0.747,1.124-1.434,0.687-1.479c-0.438-0.047-1.214,0.343-1.729,0.828
			c-0.306,0.285-0.616,0.577-0.938,0.878c-0.19,0.188-0.357,0.351-0.524,0.516c-0.269-0.79-0.777-1.373-1.436-1.794
			c0.175-0.173,0.199-0.264,0.034-0.197c-0.069,0.028-0.134,0.06-0.195,0.09c-2.204-1.274-5.882-0.858-7.934-0.037
			c-0.212,0.085-0.56,0.334-0.562,0.599c-0.013,1.061-0.114,2.411-0.168,3.834c-0.19,0.135-0.403,0.31-0.634,0.53
			c-0.289,0.277-0.594,0.569-0.915,0.877c-0.025,0.024-0.048,0.05-0.072,0.074c-0.235-1.973-0.86-3.938-1.518-5.271
			c0.072-0.048,0.146-0.107,0.222-0.181c0.554-0.547,0.352-1.025-0.453-1.091C14.968,8.385,14.27,8.402,13.974,8.558z M21.076,9.898
			c0.022-0.008,0.033-0.009,0.059-0.02c0.627-0.251,1.472-0.104,2.157-0.124c2.122-0.064,3.901,0.275,4.291,2.642
			c0.401,2.451-0.25,7.412-2.85,8.555c-5.175,1.274-3.7-7.873-3.574-10.766C21.165,10.024,21.126,9.942,21.076,9.898z M30.6,42.302
			c-0.241-0.24-0.45-0.504-0.637-0.78c0.326-0.104,0.665-0.316,0.96-0.633c0.32-0.343,0.64-0.685,0.959-1.025
			c0.146-0.155,0.282-0.34,0.412-0.534C32.185,41.409,31.798,43.501,30.6,42.302z M32.146,34.079
			c0.036,0.502,0.08,1.138,0.115,1.784c-0.19,0.075-0.398,0.213-0.616,0.43c-0.701,0.704-1.403,1.409-2.107,2.116
			c-0.216,0.217-0.4,0.472-0.551,0.739c-0.316-1.365-0.353-2.823-0.312-4.104c0.021-0.647,0.066-1.802,0.04-3.109
			c0.11-0.102,0.225-0.212,0.345-0.334c0.982-1.003,1.965-2.007,2.947-3.012c0.176-0.18,0.342-0.351,0.498-0.512
			C31.937,29.988,31.998,32.053,32.146,34.079z M40.487,23.67c-1.1,0.116-2.293,0.256-2.561,0.297
			c-1.552,0.239-3.905,0.942-4.737,2.445c-0.176,0.317-0.321,0.643-0.45,0.973c-0.163,0.143-0.344,0.303-0.536,0.478
			c-1.011,0.914-2.008,1.817-2.988,2.707c-0.186,0.168-0.362,0.343-0.527,0.515c-0.178-3.86-1.124-8.379-5.158-5.561
			c-2.62,1.83-3.794,5.616-5.141,8.32c-1.979,3.974-5.737,6.955-9.045,9.956c-0.257,0.233-0.452,0.447-0.595,0.635
			c-0.151-0.217-0.387-0.473-0.695-0.745c-0.336-0.299-0.692-0.624-1.039-0.959c0.271-0.235,0.614-0.562,0.983-0.936
			c0.681-0.689,1.361-1.38,2.044-2.071c0.775-0.785,0.821-0.887,0.102-0.225c-0.426,0.393-0.859,0.791-1.305,1.197
			c-0.413,0.382-0.826,0.765-1.239,1.146c-0.294,0.273-0.542,0.523-0.738,0.736c-0.681-0.673-1.291-1.365-1.569-1.923
			c0.293-0.152,0.604-0.369,0.9-0.642c4.169-3.825,8.328-7.656,12.477-11.497c0.81-0.75,1.559-1.574,1.669-1.843
			c0.11-0.267-0.358-0.58-1.029-0.59c-0.672-0.011-1.872,0.639-2.682,1.391c-1.999,1.854-3.998,3.712-5.996,5.566
			c1.449-1.985,2.721-4.079,3.571-6.415c0.158-0.435-0.14-0.684-0.565-0.726c-1.447-0.144-2.839-0.064-4.286,0.051
			c-0.469,0.046-0.939,0.078-1.408,0.098c0.39-0.199,0.776-0.471,1.061-0.765c0.551-0.567,0.93-1.248,0.884-1.526
			C9.863,23.6,9.844,23.431,9.835,23.25c-0.006-0.172-0.001-0.33,0.011-0.479c0.02-0.266-0.577,0.153-1.36,0.933
			c-0.412,0.409-0.822,0.817-1.229,1.223c-0.462,0.46-0.696,0.876-0.694,1.143c-0.031-0.001-0.062,0.001-0.095,0.001
			c-3.408-0.046-4.229-5.144-0.428-5.038c2.715,0.076,5.632,1.521,8.353,0.783c2.363-0.64,3.156-2.847,3.15-5.312
			c0.005-0.006,0.01-0.01,0.016-0.016c0.283-0.291,0.566-0.583,0.85-0.873c0.223-0.229,0.432-0.475,0.62-0.718
			c-0.011,1.938,0.147,3.878,0.803,5.303c-0.002,0.001-0.003,0.002-0.005,0.004c-0.363,0.361-0.412,0.681-0.108,0.699
			c0.146,0.009,0.312-0.02,0.465-0.068c0.887,1.344,2.412,1.992,4.999,1.284c0.067-0.019,0.113-0.049,0.171-0.072
			c0.026-0.008,0.055-0.008,0.08-0.018c1.338-0.51,2.284-1.549,2.936-2.824c0.326-0.109,0.729-0.358,1.123-0.726
			c1.574-1.464,3.148-2.927,4.723-4.391c0.23-0.214,0.446-0.439,0.642-0.661c-0.019,1.454,0.113,2.861,0.88,4.211
			c1.192,2.105,4.385,1.175,6.22,1.666c0.265,0.711,0.393,1.451,0.454,2.203C42.493,22.609,41.585,23.553,40.487,23.67z"/>
		<path d="M32.972,20.81c0.085-0.056,0.168-0.117,0.249-0.183c0.176-0.172,0.352-0.345,0.527-0.519
			c0.076-0.09,0.149-0.184,0.223-0.282c0.117-0.16-0.123,0.024-0.529,0.42C33.036,20.643,32.83,20.903,32.972,20.81z"/>
		<path d="M33.477,20.403c0.121-0.119,0.112-0.128-0.008-0.009C33.348,20.512,33.356,20.521,33.477,20.403z"/>
	</g>
</g>
<g>
</g>
<g>
</g>
<g>
</g>
<g>
</g>
<g>
</g>
<g>
</g>
<g>
</g>
<g>
</g>
<g>
</g>
<g>
</g>
<g>
</g>
<g>
</g>
<g>
</g>
<g>
</g>
<g>
</g>
</svg>
