<?xml version="1.0" encoding="iso-8859-1"?>
<!-- Generator: Adobe Illustrator 16.0.0, SVG Export Plug-In . SVG Version: 6.00 Build 0)  -->
<!DOCTYPE svg PUBLIC "-//W3C//DTD SVG 1.1//EN" "http://www.w3.org/Graphics/SVG/1.1/DTD/svg11.dtd">
<svg version="1.1" id="Capa_1" xmlns="http://www.w3.org/2000/svg" xmlns:xlink="http://www.w3.org/1999/xlink" x="0px" y="0px"
	 width="45.239px" height="45.239px" viewBox="0 0 45.239 45.239" style="enable-background:new 0 0 45.239 45.239;"
	 xml:space="preserve">
<g>
	<g>
		<path d="M0.893,36.869c-0.108-0.312-0.179-0.648-0.216-1.071l-0.008-0.398l0.008-0.319l0.095-2.561
			c0.078-1.714,0.184-3.438,0.307-5.171c0.21-2.96,0.467-5.942,0.718-8.923c-0.001,0.032-0.002,0.062-0.003,0.094
			c-0.143,2.478-0.262,4.972-0.342,7.494c-0.069,2.168-0.116,4.352-0.147,6.548l-0.019,1.648l-0.008,0.826l-0.002,0.463
			c0.008,0.142,0.002,0.248,0.039,0.492c0.216,1.552,1.444,2.813,2.959,3.089c0.377,0.077,0.779,0.065,1.015,0.066l0.833-0.002
			l1.668-0.009l1.672-0.013l0.419-0.004l0.258-0.008l0.223-0.017c0.451-0.05,0.778-0.155,1.134-0.311
			c0.688-0.317,1.272-0.846,1.643-1.502c0.185-0.328,0.328-0.682,0.402-1.051c0.024-0.105,0.039-0.221,0.051-0.335
			c0.151-0.339,0.24-0.709,0.24-1.104V20.064c0-0.38,0.074-0.742,0.205-1.07c0.312-0.292,0.765-0.456,1.142-0.476
			c0.323,0.002,0.437,0.03,0.678,0.104c0.21,0.072,0.413,0.182,0.589,0.329c0.356,0.29,0.626,0.704,0.748,1.166
			c0.136,0.432,0.083,1.01,0.112,1.578l0.13,6.744l0.083,6.71c-0.089,1.138,0.485,2.415,1.583,2.932
			c0.547,0.28,1.172,0.233,1.704,0.234l1.66,0.004l3.308,0.024c0.543,0.039,1.184-0.026,1.698-0.354
			c0.297-0.181,0.549-0.423,0.759-0.698c0.879-0.407,1.498-1.372,1.498-2.501V20.132c0.224-0.466,0.646-0.828,1.028-0.84
			c0.19-0.257,0.371-0.444,0.279-0.649c-0.059-0.14-0.302-0.32-0.723-0.315c0.452-0.59,1.12-0.974,1.876-0.974
			c1.358,0,2.46,1.212,2.46,2.708V34.79c0,1.496,1.213,2.708,2.708,2.708h5.009c-0.026,0.013-0.05,0.03-0.076,0.042
			c-0.265,0.107-0.476,0.16-0.776,0.178c-0.273,0.015-0.621,0.007-0.929,0.013l-3.789,0.02c-0.668,0.019-1.157,0.007-1.653-0.262
			c-0.477-0.252-0.86-0.673-1.067-1.171c-0.226-0.487-0.168-1.061-0.179-1.711l-0.005-1.876l-0.01-7.459
			c0-0.958-0.035-2.298-0.09-3.636l-0.047-1.003c-0.022-0.352-0.104-0.693-0.237-0.995c-0.262-0.607-0.698-1.062-1.13-1.295
			c-0.885-0.477-1.492-0.226-1.284-0.208c0.109,0.038,0.379,0.044,0.823,0.252c0.312,0.153,0.729,0.459,1.029,0.99
			c0.014,0.025,0.026,0.051,0.039,0.077c0.072,0.138,0.131,0.294,0.183,0.468c0.021,0.07,0.044,0.138,0.062,0.214
			c0.021,0.096,0.03,0.195,0.04,0.293c0.018,0.159,0.037,0.317,0.028,0.501c0,0.021,0,0.042,0,0.064c0,0.001,0,0.001,0,0.002v0.307
			v0.039l0.001,3.736c0,0.235,0.003,0.494,0.008,0.771l0.002,1.281l0.027,7.219c0.031,0.609-0.066,1.191,0.113,1.852
			c0.171,0.621,0.557,1.181,1.081,1.555c0.516,0.383,1.176,0.571,1.805,0.547l1.824-0.011c1.223-0.022,2.423,0.02,3.669-0.06
			c0.649-0.091,1.234-0.433,1.661-0.914c1.021-0.389,1.75-1.368,1.75-2.525V8.801c0-1.496-1.212-2.708-2.708-2.708H6.097
			c-0.208,0-0.408,0.028-0.602,0.072C5.291,6.138,5.082,6.114,4.843,6.099C4.691,6.083,4.372,6.101,4.155,6.146
			c-0.229,0.041-0.452,0.107-0.66,0.199C2.652,6.702,2.071,7.4,1.821,8.046C1.557,8.689,1.599,9.298,1.666,9.567
			c0.066,0.271,0.147,0.376,0.231,0.261c-0.604,3.89-1.495,9.06-1.659,13.583c0.107,0.71,0.349-1.25,0.432-0.068
			c-0.532,2.652-0.706,6.135-0.664,8.997c0.01,0.716,0.034,1.394,0.069,2.008c0.062,0.656,0.011,0.997,0.233,2.049
			c0.489,1.628,1.489,2.193,1.659,2.169C1.478,38.102,1.112,37.509,0.893,36.869z M2.876,33.751c-0.76-3.665-0.1-11.51-0.238-16.605
			l0.078-3.644l0.061-3.719C2.78,9.448,2.786,9.217,2.845,8.971c0.056-0.244,0.16-0.474,0.298-0.681
			c0.12-0.18,0.27-0.338,0.436-0.475C3.459,8.121,3.388,8.451,3.388,8.8v18.59c-0.01-0.057-0.018-0.125-0.028-0.18
			C2.898,26.953,3.226,33.934,2.876,33.751z"/>
	</g>
</g>
<g>
</g>
<g>
</g>
<g>
</g>
<g>
</g>
<g>
</g>
<g>
</g>
<g>
</g>
<g>
</g>
<g>
</g>
<g>
</g>
<g>
</g>
<g>
</g>
<g>
</g>
<g>
</g>
<g>
</g>
</svg>
