<?xml version="1.0" encoding="iso-8859-1"?>
<!-- Generator: Adobe Illustrator 16.0.0, SVG Export Plug-In . SVG Version: 6.00 Build 0)  -->
<!DOCTYPE svg PUBLIC "-//W3C//DTD SVG 1.1//EN" "http://www.w3.org/Graphics/SVG/1.1/DTD/svg11.dtd">
<svg version="1.1" id="Capa_1" xmlns="http://www.w3.org/2000/svg" xmlns:xlink="http://www.w3.org/1999/xlink" x="0px" y="0px"
	 width="45.152px" height="45.152px" viewBox="0 0 45.152 45.152" style="enable-background:new 0 0 45.152 45.152;"
	 xml:space="preserve">
<g>
	<g>
		<path d="M26.25,25.705c1.152-0.953,1.127-3.79,0.141-4.832c-1.041-1.101-3.281-0.812-4.216,0.253
			c-0.021,0.023-0.035,0.044-0.047,0.065c-0.021,0.038-0.272,0.458-0.442,0.983c-0.403,1.244-0.27,2.674,0.44,3.779
			C22.969,27.263,25.314,26.478,26.25,25.705z M23.514,22.105c0.135-0.535,0.507-0.886,0.657-0.811
			c0.09,0.045,0.177,0.098,0.261,0.155c0.106,0.074,0.192,0.158,0.262,0.25c0.121,0.16,0.004,0.482-0.203,0.684
			c-0.206,0.202-0.377,0.414-0.381,0.473c-0.002,0.06,0.179-0.065,0.402-0.279c0.225-0.213,0.438-0.282,0.467-0.153
			c0.018,0.077,0.032,0.155,0.047,0.233c0.15,0.826,0.291,2.391-0.438,2.995c-0.547,0.451-1.073-1.5-1.125-1.77
			C23.355,23.314,23.368,22.688,23.514,22.105z"/>
		<path d="M32.875,26.326c1.115,0.925,3.038,0.4,3.641-0.84c0.533-1.103,0.711-3.832-0.435-4.603
			c-0.894-0.599-2.374-0.254-3.254,0.487c-0.423,0.356-0.749,1.21-0.832,1.756C31.818,24.285,31.954,25.564,32.875,26.326z
			 M34.688,25.492c-0.021,0.053-0.053,0.084-0.07,0.07c-0.02-0.014-0.004-0.058,0.035-0.097S34.708,25.438,34.688,25.492z
			 M34.136,21.858c0.015-0.048,0.039-0.09,0.067-0.129c0.047-0.065,0.105-0.081,0.141-0.058c0.035,0.023,0.065,0.302,0.065,0.625
			c-0.001,0.322,0.087,0.488,0.194,0.372c0.109-0.117,0.227-0.048,0.248,0.157c0.014,0.139,0.024,0.268,0.037,0.369
			c0.028,0.239,0.043,0.486,0.043,0.734c-0.002,0.406-0.156,0.849-0.289,0.987c-0.133,0.142-0.24,0.297-0.24,0.349
			s-0.144-0.077-0.252-0.325c-0.066-0.15-0.119-0.308-0.162-0.462C33.745,23.626,33.881,22.687,34.136,21.858z"/>
		<path d="M22.555,0.627c-0.552-0.012-1.063-0.008-1.144-0.007c-0.043,0.001-0.09,0.003-0.145,0.008
			c-0.022,0.001-0.046,0.003-0.071,0.006c-0.039,0.005-0.517,0.052-1.065,0.123C7.954,2.329-0.51,11.382,0.024,24.113
			c0.521,12.418,12.152,21.527,24.152,20.312c10.574-1.071,19.237-8.115,20.756-18.906C46.875,11.71,35.684,0.906,22.555,0.627z
			 M4.797,11.305c1.771-2.917,4.259-5.397,7.294-7.136c0.48-0.275,0.559-0.162,0.164,0.225C9.933,6.669,7.574,8.98,5.014,11.475
			C4.619,11.86,4.51,11.777,4.797,11.305z M4.975,11.55c3.07-2.992,6.146-5.985,4.663-4.46c-0.547,0.527-2.283,2.206-4.71,4.556
			c-0.396,0.384-0.707,0.675-0.694,0.649C4.248,12.269,4.58,11.935,4.975,11.55z M1.787,21.826c0.005-0.477,0.026-0.953,0.064-1.426
			c0.044-0.55,0.431-1.301,0.833-1.68c0.648-0.611,1.295-1.224,1.94-1.84c0.399-0.381,0.723-0.243,0.724,0.31
			c0,0.379-0.001,0.758-0.001,1.138c-0.001,0.552-0.322,1.314-0.715,1.702c-0.704,0.694-1.411,1.393-2.12,2.094
			C2.119,22.512,1.781,22.379,1.787,21.826z M2.129,25.789c-0.079-0.414,0.184-1.074,0.568-1.471
			c0.617-0.638,1.23-1.271,1.834-1.893c0.385-0.396,0.699-1.021,0.714-1.396c0.009-0.224,0.021-0.45,0.037-0.677
			c0.006-0.087,0.016-0.173,0.026-0.259c0.018-0.143,0.031,0.19,0.029,0.742c-0.003,0.727-0.005,1.454-0.008,2.18
			c-0.001,0.553-0.015,0.875-0.03,0.719c-0.016-0.156-0.336,0.038-0.721,0.435c-0.532,0.549-1.065,1.099-1.598,1.647
			C2.598,26.214,2.208,26.203,2.129,25.789z M2.678,28.037c-0.088-0.286,0.166-0.836,0.56-1.225
			c0.459-0.451,0.917-0.904,1.376-1.357c0.394-0.387,0.711-0.4,0.711-0.03c0,0.371-0.132,0.798-0.295,0.953
			c-0.163,0.155-0.614,0.593-1.003,0.983c-0.16,0.161-0.319,0.321-0.479,0.482C3.159,28.236,2.766,28.324,2.678,28.037z
			 M3.248,29.658c-0.006-0.014-0.012-0.027-0.017-0.041c-0.206-0.514-0.032-1.254,0.359-1.645c0.342-0.34,0.684-0.68,1.026-1.021
			c0.392-0.389,0.709-0.256,0.711,0.297c0,0.174,0.001,0.348,0.002,0.521c0.003,0.553-0.299,1.329-0.677,1.731
			c-0.108,0.116-0.217,0.23-0.326,0.347C3.949,30.251,3.455,30.171,3.248,29.658z M28.088,42.963
			c-2.204,0.607-4.396,0.81-6.521,0.663c-0.551-0.038-0.926-0.167-0.839-0.257c0.088-0.09-0.245-0.271-0.736-0.431
			c-0.49-0.159-1.003-0.186-1.152-0.036c-0.148,0.15-0.707,0.174-1.237,0.021c-0.18-0.051-0.357-0.105-0.535-0.162
			c-0.526-0.167-0.78-0.501-0.576-0.719c0.204-0.219-0.031-0.596-0.511-0.869c-0.086-0.049-0.171-0.098-0.255-0.148
			c-0.476-0.281-1.074-0.312-1.355-0.045c-0.281,0.268-0.867,0.303-1.296,0.059c-0.26-0.146-0.516-0.299-0.769-0.457
			c-0.169-0.105-0.335-0.217-0.499-0.33c-0.272-0.188-0.218-0.617,0.117-0.953c0.335-0.335,0.401-0.792,0.158-1.03
			c-0.243-0.237-0.747-0.149-1.131,0.203c-0.385,0.353-1.048,0.36-1.464-0.002c-0.322-0.28-0.636-0.569-0.942-0.868
			c-0.396-0.386-0.385-1.033,0.002-1.428c0.07-0.071,0.141-0.143,0.211-0.214c0.388-0.394,0.648-0.788,0.583-0.884
			s-0.446,0.131-0.852,0.506c-0.085,0.08-0.171,0.158-0.257,0.238c-0.405,0.375-0.947,0.441-1.201,0.142
			c-0.254-0.302-0.118-0.854,0.291-1.224c0.133-0.121,0.266-0.24,0.398-0.359c0.41-0.371,0.6-0.911,0.434-1.211
			c-0.165-0.301-0.621-0.24-1.025,0.137c-0.175,0.163-0.35,0.327-0.524,0.49c-0.404,0.377-0.992,0.316-1.292-0.147
			c-0.271-0.423-0.531-0.856-0.777-1.299c-0.268-0.483-0.143-1.19,0.261-1.569c0.091-0.084,0.182-0.17,0.272-0.256
			c0.402-0.378,0.753-0.683,0.783-0.682c0.023,0,0.044,0,0.057,0c0.839,0,1.677,0,2.516,0c0.396,0,1.345-0.203,1.364-0.723
			c0.014-0.362,0.021-0.727,0.027-1.09c0.01-0.552,0.099-0.562,0.209-0.021c0.11,0.544,0.227,1.087,0.354,1.628
			c0.05,0.212,0.415,0.204,0.567,0.204c0.652,0,1.305,0,1.957,0c0.366,0,1.232-0.177,1.357-0.61
			c0.149-0.516,0.278-1.035,0.395-1.558c0.119-0.539,0.203-0.531,0.203,0.021c0,0.648,0,1.295,0,1.942
			c0,0.208,0.459,0.204,0.567,0.204c0.826,0,1.651,0,2.478,0c0.572-0.014,1.409-0.293,1.409-0.723c0-0.4,0-0.801,0-1.201
			c0-0.553,0.154-0.576,0.44-0.104c0.144,0.236,0.304,0.46,0.481,0.668c0.357,0.421,0.688,0.72,0.643,0.761
			c-0.044,0.039-0.001,0.071,0.095,0.071c0.096,0,0.543,0.263,1.058,0.462c0.143,0.055,0.291,0.104,0.444,0.147
			c0.532,0.147,1.065,0.192,1.169,0.198c0.054,0.002,0.115,0.002,0.187,0c0.792-0.037,1.51-0.201,2.149-0.474
			c0.51-0.216,1.152-0.323,1.514-0.211c0.361,0.113,0.891-0.1,1.16-0.388c0.27-0.289,0.486-0.274,0.486,0.033
			c0,0.185,0,0.371,0,0.556c0,0.208,0.459,0.204,0.567,0.204c1.028,0,2.06,0,3.088,0c0.126,0,0.315-0.023,0.515-0.071
			c0.279-0.067,0.864,0.087,1.401,0.216c0.677,0.161,1.427,0.064,2.269-0.371c1.871-0.968,2.312-3.774,2.51-5.623
			c0.078-0.743,0.119-1.562,0.07-2.382c-0.031-0.551,0.211-1.312,0.6-1.705c0.326-0.33,0.646-0.653,0.957-0.968
			c0.389-0.393,0.617-0.831,0.492-0.963s-0.545,0.102-0.922,0.505c-0.23,0.246-0.461,0.492-0.689,0.739
			c-0.378,0.403-0.771,0.342-0.949-0.11c-0.18-0.453-0.18-1.014,0.079-1.292c0.259-0.277,0.161-0.443-0.19-0.291
			c-0.353,0.152-0.672,0.248-0.736,0.161c-0.04-0.053-0.08-0.105-0.127-0.153c-0.791-0.82-1.898-0.839-2.978-0.527
			c-0.53,0.153-0.936-0.098-0.936-0.65c0-1.16,0-2.32,0-3.48c0-0.208-0.459-0.204-0.567-0.204c-1.029,0-2.059,0-3.088,0
			c-0.38,0-1.365,0.206-1.363,0.722c0.004,1.149,0.004,2.297,0.002,3.446c0,0.552-0.182,1.176-0.404,1.394
			c-0.223,0.217-0.687,0.039-1.121-0.3c-0.432-0.337-0.934-0.604-1.512-0.777c-1.138-0.34-2.153-0.338-3.043-0.085
			c-0.53,0.152-0.809,0.268-0.667,0.135c0.142-0.133,0.257-0.413,0.257-0.627c0-0.214-0.319-0.073-0.713,0.316
			c-0.321,0.317-0.687,0.679-1.102,1.092c-0.393,0.389-0.709,0.847-0.709,1.023s0.013,0.306,0.029,0.291
			c0.017-0.016-0.223,0.337-0.464,0.827c-0.241,0.49-0.381,0.7-0.381,0.438c0-0.262,0.009-0.483,0.021-0.494
			c0.012-0.011,0.058-0.194,0.109-0.407c0.052-0.213,0.044-0.335-0.018-0.273s-0.112-0.335-0.112-0.888c0-0.521,0-1.041,0-1.56
			c0-0.552,0.312-1.32,0.697-1.716c0.47-0.482,0.938-0.963,1.404-1.441c0.386-0.396,0.514-0.716,0.286-0.716
			c-0.227,0-0.733,0.311-1.132,0.693c-0.167,0.161-0.345,0.331-0.534,0.513c-0.398,0.382-0.722,0.246-0.722-0.307
			c0-0.365,0-0.729,0-1.094c0-0.208-0.459-0.204-0.567-0.204c-1.4,0-2.802,0-4.202,0c-0.139,0-0.4,0.035-0.657,0.11
			c-0.354,0.104-0.69,0.304-0.817,0.306c-0.078,0.001-0.155,0.002-0.231,0.002h-0.104c-0.161,0-0.319,0-0.475-0.002
			c-0.262-0.001-0.48-0.051-0.49-0.108c-0.006-0.035-0.012-0.069-0.017-0.104c-0.031-0.211-0.431-0.205-0.567-0.204
			c-1.494,0.014-2.985,0.02-4.479,0c-0.378-0.005-1.368,0.209-1.364,0.722c0.003,0.377,0.004,0.754,0.005,1.132
			c0,0.552-0.315,1.317-0.703,1.71c-0.639,0.645-1.276,1.289-1.915,1.934c-0.388,0.393-0.636,0.267-0.524-0.274
			c0.124-0.603,0.274-1.199,0.451-1.786c0.158-0.529,0.624-1.271,1.01-1.666c3.683-3.76,7.317-7.442,10.895-11.034
			c0.39-0.392,1.127-0.863,1.654-1.025c0.601-0.184,1.215-0.342,1.843-0.472c0.541-0.112,0.812-0.007,0.6,0.206
			c-0.212,0.213-0.096,0.274,0.267,0.147c0.362-0.127,0.758-0.317,0.879-0.438c0.121-0.121,0.319-0.232,0.443-0.248
			c0.075-0.01,0.15-0.02,0.227-0.026c11.765-0.369,21.154,7.798,22.591,19.41C44.318,31.127,37.794,40.283,28.088,42.963z
			 M12.583,14.398c-0.28,0.29-0.515,0.479-0.524,0.419c-0.01-0.059,0.228-0.357,0.53-0.666c0.302-0.309,0.537-0.496,0.525-0.418
			C13.102,13.81,12.865,14.108,12.583,14.398z M12.949,14.804c-0.075,0.481-0.256,0.993-0.402,1.144s-0.31-0.011-0.366-0.362
			c-0.056-0.351,0.126-0.863,0.402-1.145C12.859,14.16,13.023,14.323,12.949,14.804z M13.352,22.509
			c0.633-2.616,1.085-5.265,1.502-7.922c0.085-0.545,0.341-0.989,0.572-0.989c0.14,0,0.279,0,0.419,0c0.256,0,0.512,0,0.768,0
			c0.423,0,0.767,0.448,0.767,1c0,1.262,0,2.524,0,3.786c0,3.177,0,6.354,0,9.532c0,0.554-0.112,1-0.252,1c-0.084,0-0.168,0-0.252,0
			c-0.026,0-0.047,0.002-0.066,0.003c-0.037,0.003-0.044-0.033-0.031-0.087c0.007-0.027,0.011-0.06,0.011-0.096
			c0-1.244,0-2.486,0-3.73c0-2.643,0-5.285,0-7.927c0-0.523-1.78-0.019-1.925,0.406c-1.151,3.392-1.347,6.985-2.129,10.462
			c-0.122,0.539-0.251,0.971-0.271,0.971c-0.011,0-0.022,0-0.033,0c-0.659,0-0.648-2.18-0.807-3.008
			c-0.566-2.936-0.956-5.9-1.557-8.83c-0.107-0.523-1.886-0.069-1.925,0.406C8.14,17.523,8.14,17.56,8.137,17.597
			c-0.275,3.435-0.185,6.879-0.245,10.319c-0.01,0.553-0.138,1-0.279,1c-0.141,0-0.911,0.145-0.773-0.247
			c0.138-0.392,0.416-1.067,0.415-1.62c-0.003-0.786-0.001-1.572,0-2.357c0.005-3.393,0.035-6.786,0.023-10.178
			c-0.002-0.552,0.443-1.044,0.994-1.012c0.857,0.05,1.609,0.305,1.732,1.131c0.412,2.771,0.903,5.53,1.424,8.283
			C11.531,23.465,13.245,22.953,13.352,22.509z M24.887,18.096c2.107,0.63,2.824,3.172,2.943,5.101
			c0.102,1.648-0.486,4.735-2.189,5.7c-0.482,0.272-1.404,0.264-1.922,0.07C19.13,27.24,20.065,16.654,24.887,18.096z
			 M28.761,18.313c-0.209,0.205-0.211,0.203-0.002-0.001C28.968,18.106,28.97,18.108,28.761,18.313z M29.141,19.051
			c0,0.48-0.117,0.602-0.298,0.294c-0.182-0.309-0.214-0.677-0.032-0.85C28.993,18.322,29.141,18.571,29.141,19.051z M31.064,25.837
			c0.002-3.747,0.018-7.492,0.01-11.238c-0.002-0.552,0.164-1.001,0.369-1.001c0.125,0,0.248,0,0.373,0
			c0.127,0,0.23-0.004,0.314-0.011c0.176-0.014,0.186,0.035,0.137,0.206c-0.024,0.082-0.041,0.187-0.041,0.32
			c0,1.533,0,3.066,0,4.599c0,0.547,1.547-0.043,1.721-0.17c3.447-2.518,3.785,3.668,3.623,5.747
			c-0.102,1.281-0.402,2.558-0.92,3.734c-0.625,1.424-1.274,1.014-1.934,0.184c-0.343-0.434-0.6-0.852-0.641-0.883
			c-0.039-0.03-0.414-0.162-0.825-0.073c-0.253,0.055-0.513,0.155-0.705,0.278c-0.019,0.012-0.03,0.022-0.047,0.033
			c-0.062,0.044-0.115,0.088-0.156,0.137c-0.022,0.027-0.038,0.057-0.055,0.086c-0.009,0.015-0.017,0.031-0.021,0.045
			c-0.012,0.026-0.02,0.067-0.029,0.088c-0.006,0.012-0.012,0.023-0.012,0.037c0,0.16,0,0.32,0,0.48c0,0.266-0.168,0.48-0.373,0.48
			c-0.125,0-0.248,0-0.373,0c-0.142,0-0.283,0-0.424,0c-0.232,0-0.054-0.271,0.016-0.819C31.179,27.254,31.064,26.035,31.064,25.837
			z"/>
		<path d="M34.451,13.071c-0.023,0-0.043,0.018-0.043,0.041c0,0.022,0.02,0.022,0.043,0C34.473,13.089,34.475,13.071,34.451,13.071z
			"/>
		<path d="M35.562,13.766c-0.143,0.139-0.285,0.278-0.43,0.417c-0.396,0.384-0.719,0.747-0.718,0.81
			c0,0.064,0.335-0.182,0.749-0.547c0.268-0.237,0.537-0.475,0.807-0.713c0.413-0.366,0.651-0.662,0.53-0.662
			S35.961,13.383,35.562,13.766z"/>
		<path d="M39.119,28.064c-0.387,0.396-0.613,0.803-0.498,0.9s0.529-0.148,0.918-0.54c0.822-0.829,1.636-1.651,2.431-2.454
			c0.388-0.393,0.741-0.93,0.778-1.199s-0.253-0.169-0.639,0.227C41.111,26.02,40.115,27.043,39.119,28.064z"/>
		<path d="M40.609,20.963c-0.391,0.392-0.582,1.057-0.506,1.502c0.074,0.444,0.396,0.493,0.78,0.098
			c0.384-0.392,0.767-0.782,1.147-1.172c0.388-0.395,0.646-1.05,0.541-1.454c-0.107-0.404-0.547-0.401-0.936-0.009
			C41.292,20.275,40.949,20.62,40.609,20.963z"/>
	</g>
</g>
<g>
</g>
<g>
</g>
<g>
</g>
<g>
</g>
<g>
</g>
<g>
</g>
<g>
</g>
<g>
</g>
<g>
</g>
<g>
</g>
<g>
</g>
<g>
</g>
<g>
</g>
<g>
</g>
<g>
</g>
</svg>
