<?xml version="1.0" encoding="iso-8859-1"?>
<!-- Generator: Adobe Illustrator 16.0.0, SVG Export Plug-In . SVG Version: 6.00 Build 0)  -->
<!DOCTYPE svg PUBLIC "-//W3C//DTD SVG 1.1//EN" "http://www.w3.org/Graphics/SVG/1.1/DTD/svg11.dtd">
<svg version="1.1" id="Capa_1" xmlns="http://www.w3.org/2000/svg" xmlns:xlink="http://www.w3.org/1999/xlink" x="0px" y="0px"
	 width="39.75px" height="39.75px" viewBox="0 0 39.75 39.75" style="enable-background:new 0 0 39.75 39.75;" xml:space="preserve"
	>
<g>
	<g>
		<path d="M21.415,16.734c0.312-0.134,1.434-0.481,2.509-0.734c1.064-0.251,2.481-0.49,4.016-0.49c2.444,0,4.491,0.596,6.107,1.773
			c0.893,0.65,2.127,1.971,2.745,2.887c0.165,0.244,0.333,0.516,0.495,0.815c0.527,0.97,0.854,1.562,0.938,1.209
			c0.048-0.207,0.091-0.422,0.128-0.646c0,0,1.519-6.258,1.39-10.396c-0.034-1.104-0.31-2.88-0.583-3.949
			c-0.489-1.903-1.67-4.465-4.44-4.292c-0.477-0.143-0.976-0.211-1.471-0.152c-1.153,0.102-2.217,0.618-3.222,1.175
			c-1.011,0.557-1.985,1.206-2.887,1.949c-1.828,1.462-3.389,3.245-4.867,5.023c-0.74,0.892-1.459,1.795-2.149,2.708l-0.514,0.696
			c-0.181,0.263-0.31,0.551-0.398,0.845c-0.088,0.294-0.138,0.595-0.15,0.899c0,0.007,0,0.014,0,0.02
			c-0.308,0.091-0.509,0.45-0.461,1.038c0.207,2.567,1.184,7.351,5.194,12.82c0.653,0.891,1.251,0.683,1.174-0.419
			c-0.205-2.938-1.09-8.522-4.675-12.695c0.113-0.045,0.227-0.089,0.34-0.133C20.853,16.835,21.155,16.845,21.415,16.734z
			 M19.574,16.151c-0.059-0.03-0.116-0.055-0.172-0.07c0.01-0.137,0.026-0.271,0.049-0.388c0.08-0.361,0.221-0.662,0.384-0.852
			c0.059,0.002-0.164,0.413-0.229,0.879C19.577,15.875,19.572,16.02,19.574,16.151z M20.075,16.562
			c-0.018-0.021-0.034-0.042-0.053-0.062c-0.106-0.117-0.211-0.204-0.315-0.275c0.027-0.204,0.067-0.43,0.142-0.672
			c0.06-0.196,0.139-0.396,0.239-0.58c0.051-0.091,0.107-0.179,0.167-0.262l0.226-0.306c0.601-0.821,1.142-1.635,1.304-2.052
			c1.302-1.529,2.686-3.093,4.146-4.449c1.482-1.373,3.026-2.536,4.649-3.474c0.791-0.52,0.316-0.352,0.529-0.554
			c0.566-0.241,1.184-0.432,1.79-0.528c-1.025,0.421-2.435,1.273-3.267,1.892c-1.051,0.782-2.508,2.038-4.117,3.93
			c-1.68,1.98-3.188,3.927-4.242,5.337c-0.565,0.756-0.886,1.544-0.831,1.919C20.32,16.47,20.198,16.517,20.075,16.562z"/>
		<path d="M3.89,18.298c1.311,2.003,2.618,4.082,4.316,5.865c0.83,0.904,1.71,1.77,2.652,2.562c0.233,0.193,0.48,0.402,0.788,0.459
			c0.273,0.07,0.502-0.128,0.595-0.373c0.049,0.041,0.095,0.084,0.145,0.125c0.103,0.084,0.201,0.149,0.294,0.203
			c0.064,0.396,0.135,0.792,0.232,1.184c0.274,0.92,0.626,1.81,1.108,2.655c0.498,0.814,1.04,1.592,1.63,2.327
			c0.846,1.039,1.808,2.029,2.912,2.729c-1.073-0.636-2.027-1.473-2.804-2.389c-0.076,0.144,1.094,1.635,2.161,2.174
			c0.189,0.175-0.175-0.054-0.069,0.061c0.789,0.589,1.871,1.085,2.76,1.073c-0.054,0.032,0.097,0.081,0.347,0.048
			c0.15-0.021,0.33-0.089,0.508-0.178c0.065,0.026,0.128,0.065,0.193,0.088c1.043,0.363,2.685-0.432,3.007-1.488
			c0.12-0.393,0.22-0.873,0.281-1.458c0.06-0.569,0.056-1.099,0.031-1.488c0.103,0.122,0.195,0.252,0.31,0.36l0.075,0.124
			c-0.155-0.02,0.407,0.614,1.149,1.044c0.103,0.023-0.266-0.303-0.114-0.244c0.249,0.2,0.493,0.405,0.754,0.594l-0.001-0.001
			c0.22,0.185,0.45,0.362,0.688,0.534c0.005,0.003,0.009,0.008,0.014,0.011c0.004,0.002,0.006,0.002,0.011,0.004
			c0.593,0.424,1.238,0.778,1.964,0.914c0.313,0.054,0.64,0.05,0.954-0.01c0.765,0.244,1.391,0.184,1.878-0.021
			c1.018-0.428,2.054-1.996,2.642-2.931c0.201-0.32,0.389-0.646,0.557-0.956c0.526-0.972,1.334-2.574,1.703-3.615
			c1.261-3.557,0.082-6.326-0.998-7.92c-0.62-0.915-1.862-2.229-2.762-2.869c-3.184-2.268-7.414-1.755-9.833-1.18
			c-1.075,0.255-2.157,0.593-2.421,0.715c-0.264,0.122,0.11,0.992,0.671,1.943c2.243,3.808,2.884,8.1,3.062,10.548
			c0.079,1.102,0.67,2.656,1.481,3.404c1.038,0.956,1.791,1.506,1.791,1.506c0.698,0.619,1.323,1.018,1.879,1.254
			c-0.238,0.011-0.479-0.01-0.715-0.065c-0.911-0.215-1.719-0.789-2.441-1.406l-0.007-0.006l-0.005-0.004
			c-0.621-0.456-1.227-0.965-1.795-1.472l-0.437-0.326l-0.064-0.107c-0.023-0.261-0.055-0.433-0.079-0.461l-0.106-0.128
			c-0.263-0.317-0.495-0.63-0.737-0.942l-0.068-0.113c0.01,0.023,0.024,0.046,0.034,0.069c-2.854-3.719-4.328-7.138-5.06-9.823
			c-0.291-1.065-0.843-2.061-1.351-2.048c-0.508,0.014-1.739,0.563-2.392,1.455c-0.881,1.202-1.705,3.389-1.024,7.169
			c0.196,1.087,0.879,2.734,1.483,3.659c1.181,1.81,3.25,4.516,5.522,5.562c-0.3,0.116-0.63,0.188-0.953,0.093
			c-0.142-0.04-0.277-0.107-0.417-0.159c-0.318-0.245-0.95-0.586-1.569-1.065c-0.687-0.519-1.338-1.159-1.6-1.611
			c0.016-0.064,0.983,1.023,1.024,0.9c-0.545-0.666-1.915-2.286-2.404-2.688c-0.394-0.59-0.801-1.206-1.096-1.837
			c-0.299-0.644-0.543-1.324-0.733-2.001c-0.093-0.338-0.172-0.679-0.221-1.006c-0.002-0.015-0.004-0.031-0.006-0.046
			c0.353-0.05,0.54-0.457,0.475-1.135c-0.307-3.183,0.514-5.078,1.356-6.158c0.487-0.625,1.186-1.048,1.666-1.258h0.032
			c0.075,0,0.162-0.038,0.21-0.079c0.009-0.008,0.012-0.016,0.021-0.023c0.071-0.023,0.133-0.041,0.178-0.047
			c0.206-0.031,0.404-0.047,0.601-0.047c0.12,0,0.237,0.008,0.352,0.021c0.194,0.021,0.272-0.41,0.21-0.991
			c-0.061-0.581-0.55-1.569-1.168-2.165c-0.618-0.596-1.895-1.54-2.836-2.119c-2.567-1.577-7.419-4.328-10.162-4.412
			C3.515,8.685,2.867,8.545,2.187,8.515L2.156,8.514l-0.034,0.01c-0.337,0.1-0.607,0.242-0.885,0.399
			C1.1,9.002,0.966,9.086,0.832,9.189C0.773,9.236,0.672,9.32,0.62,9.403C0.568,9.482,0.526,9.557,0.49,9.646
			c-0.259,0.656-0.154,1.311-0.028,1.901c0.183,0.748,0.469,1.44,0.796,2.101c0.001,0.002,0.002,0.004,0.002,0.006
			c-0.354-0.675-0.68-1.372-0.89-2.13c-0.114-0.439-0.199-0.899-0.148-1.398c0.032-0.254,0.091-0.503,0.241-0.757
			c0.212-0.317,0.429-0.405,0.614-0.535C1.033,8.815,0.883,8.85,0.626,9.016c-0.388,0.29-0.526,0.696-0.6,1.137
			c-0.117,0.889,0.181,1.795,0.513,2.405c0.075,0.298-0.139-0.168-0.108,0.016c0.402,1.119,1.182,2.203,1.769,2.994
			c-0.129-0.064,0.167,0.654,0.661,1.265c0.077,0.049-0.101-0.294-0.027-0.248C3.179,17.156,3.531,17.728,3.89,18.298z
			 M25.019,32.401l-0.05-0.038c-0.001-0.011-0.002-0.024-0.003-0.035C24.984,32.353,24.999,32.379,25.019,32.401z M1.368,13.362
			c-0.111-0.268-0.226-0.548-0.333-0.844c-0.363-0.938-0.555-2.081-0.226-2.588c0.044-0.014-0.066,0.355-0.037,0.758
			c0.017,0.4,0.119,0.799,0.167,0.756c0.002-0.381-0.066-1,0.119-1.49c0.04-0.103,0.104-0.218,0.147-0.234
			c0.096-0.08,0.231-0.168,0.356-0.247c0.249-0.155,0.51-0.298,0.703-0.381C2.238,9.094,2.216,9.095,2.189,9.099l0.087-0.012
			C2.273,9.088,2.268,9.09,2.264,9.092C2.521,9.07,2.749,9.06,2.899,9.035C2.923,9.04,2.947,9.048,2.971,9.053
			C2.638,9.211,2.333,9.465,2.224,9.621C2.156,9.716,2.09,9.843,2.04,10.009c-0.376,1.264,0.303,4.379,5.673,12.051
			c0.13,0.177,1.949,2.584,4.418,4.658c-0.06,0.185-0.167,0.331-0.332,0.345c-0.249,0.019-0.526-0.163-0.755-0.355
			c-0.491-0.408-0.963-0.835-1.421-1.28c-0.917-0.888-1.778-1.836-2.583-2.822c-1.54-2.015-2.915-4.179-4.18-6.319
			C2.307,15.327,1.8,14.354,1.368,13.362z"/>
	</g>
</g>
<g>
</g>
<g>
</g>
<g>
</g>
<g>
</g>
<g>
</g>
<g>
</g>
<g>
</g>
<g>
</g>
<g>
</g>
<g>
</g>
<g>
</g>
<g>
</g>
<g>
</g>
<g>
</g>
<g>
</g>
</svg>
