<?xml version="1.0" encoding="iso-8859-1"?>
<!-- Generator: Adobe Illustrator 16.0.0, SVG Export Plug-In . SVG Version: 6.00 Build 0)  -->
<!DOCTYPE svg PUBLIC "-//W3C//DTD SVG 1.1//EN" "http://www.w3.org/Graphics/SVG/1.1/DTD/svg11.dtd">
<svg version="1.1" id="Capa_1" xmlns="http://www.w3.org/2000/svg" xmlns:xlink="http://www.w3.org/1999/xlink" x="0px" y="0px"
	 width="45.477px" height="45.477px" viewBox="0 0 45.477 45.477" style="enable-background:new 0 0 45.477 45.477;"
	 xml:space="preserve">
<g>
	<g>
		<path d="M5.665,12.506c0.288-0.104-0.184-0.162-0.894-0.371c-0.723-0.197-1.616-0.707-2.286-1.381
			c-0.047-0.109,0.104,0.023-0.109-0.291C1.469,9.319,1.324,7.36,2.421,6.106C2.576,6.009,2.874,5.75,3.2,5.522
			C3.524,5.28,3.9,5.096,4.107,4.959C4.112,4.928,3.926,5,3.742,5.081c-0.177,0.097-0.354,0.191-0.355,0.17
			c0.159-0.148,0.46-0.31,0.8-0.426C4.33,4.78,4.474,4.739,4.622,4.707C4.73,4.683,4.838,4.661,4.941,4.646
			C5.484,4.567,6.044,4.57,6.59,4.675C5.448,4.699,4.465,5.071,3.642,5.816C2.796,6.585,2.37,7.501,2.37,8.565
			s0.427,1.986,1.272,2.763c0.852,0.775,1.87,1.162,3.062,1.162c1.218,0,2.248-0.384,3.091-1.151
			c0.692-0.629,1.084-1.367,1.209-2.206c0.204,0.894,0.641,1.728,1.283,2.356c0.884,0.936,2.117,1.461,3.354,1.568
			c0.342-0.125-0.22-0.188-1.054-0.449c-0.846-0.25-1.869-0.918-2.582-1.783c-0.043-0.134,0.115,0.042-0.096-0.353
			C11.46,9.72,11.214,8.82,11.214,7.858c-0.015-0.956,0.189-1.94,0.686-2.771c0.158-0.136,0.456-0.498,0.795-0.828
			c0.337-0.34,0.727-0.641,0.953-0.822c-0.019-0.104-0.79,0.505-0.785,0.472c0.206-0.289,0.734-0.642,1.29-0.83
			c0.21-0.076,0.414-0.125,0.606-0.166c0.569-0.11,1.161-0.122,1.74-0.01c-1.265,0.049-2.342,0.553-3.219,1.543
			c-0.925,1.044-1.383,2.309-1.383,3.803c0,1.326,0.458,2.452,1.383,3.376c0.923,0.927,2.06,1.386,3.414,1.386
			c1.267,0,2.347-0.459,3.236-1.386c0.635-0.66,1.033-1.427,1.215-2.291c0.306,1.057,0.858,2.033,1.563,2.856
			c0.466,0.195-0.057-0.393-0.615-1.461c-0.266-0.535-0.561-1.217-0.712-1.947c-0.159-0.731-0.196-1.534-0.115-2.291
			c0.095-0.169,0.066,0.153,0.264-0.428c0.358-1.149,1.019-2.278,1.982-3.166c0.954-0.882,2.213-1.512,3.528-1.704
			c0.1,0.017,0.25,0.029,0.419,0.04c-0.451,0.086-0.888,0.211-1.309,0.379c-0.852,0.341-1.592,0.808-2.221,1.403
			c-0.63,0.592-1.129,1.278-1.5,2.064c-0.378,0.786-0.565,1.626-0.565,2.516c0,0.887,0.188,1.738,0.565,2.552
			c0.371,0.81,0.87,1.508,1.5,2.091c0.629,0.586,1.373,1.048,2.233,1.389c0.189,0.075,0.382,0.139,0.575,0.196
			c-0.33-0.052-0.657-0.118-0.976-0.214c-0.039-0.015-0.092-0.033-0.146-0.051c-0.132-0.042-0.262-0.09-0.39-0.141
			c-0.281-0.112-0.562-0.232-0.827-0.38c-0.061-0.024-0.116-0.062-0.177-0.088c-0.741-0.398-1.953-1.404-0.77-0.383
			c0.032,0.025,0.068,0.045,0.102,0.069c0.019,0.016,0.033,0.026,0.054,0.044c0.046,0.033,0.098,0.059,0.144,0.091
			c0.148,0.1,0.297,0.196,0.452,0.284c0.036,0.021,0.068,0.046,0.105,0.065c0.093,0.06,0.212,0.118,0.343,0.175
			c0.901,0.435,1.9,0.682,2.915,0.726c0.43,0.075,0.869,0.116,1.32,0.116c0.963,0,1.862-0.168,2.703-0.51
			c0.838-0.341,1.583-0.803,2.226-1.389c0.648-0.583,1.15-1.281,1.51-2.091c0.357-0.813,0.542-1.665,0.542-2.552
			c0-0.89-0.185-1.729-0.542-2.516c-0.358-0.786-0.86-1.473-1.51-2.064C33.301,2.537,32.7,2.164,32.056,1.85
			c-0.242-0.196-0.494-0.378-0.765-0.517c-0.143-0.045,0.203,0.177-0.024,0.083c-0.434-0.341-1.136-0.627-1.737-0.734
			c-0.598-0.117-1.075-0.08-1.112-0.021c0.84,0.046,1.661,0.312,2.418,0.7c-0.054-0.015-0.108-0.026-0.164-0.039
			c-0.801-0.345-1.682-0.542-2.58-0.547c-1.811-0.052-3.669,0.622-5.011,1.866c-1.078,0.997-1.84,2.333-2.099,3.747
			c-0.22-0.713-0.562-1.365-1.054-1.942c-0.842-0.986-1.859-1.489-3.038-1.542c-0.073-0.021-0.146-0.042-0.22-0.061
			c-0.002-0.001-0.003-0.001-0.005-0.002c-0.089-0.051,0.182,0.007,0.139-0.029c-0.425-0.189-0.893-0.157-0.823-0.107
			c-0.549-0.121-1.368-0.165-2.028,0.085c-0.095,0.055,0.196-0.022,0.033,0.055c-0.404,0.073-0.898,0.325-1.232,0.612
			c-0.341,0.282-0.54,0.564-0.523,0.614c0.564-0.62,1.359-1.046,2.191-1.218c-0.209,0.052-0.413,0.121-0.614,0.206
			c0,0-0.001,0-0.002,0.001c-0.001,0-0.001,0-0.002,0.001c-0.632,0.271-1.214,0.694-1.659,1.244
			c-0.775,0.884-1.182,2.059-1.25,3.231C10.705,6.9,10.35,6.322,9.791,5.814C9.014,5.104,8.069,4.74,6.974,4.686
			C6.896,4.664,6.821,4.64,6.742,4.622c-0.01-0.003-0.017-0.004-0.026-0.007C6.641,4.574,6.87,4.616,6.833,4.586
			C6.471,4.444,6.082,4.458,6.139,4.503C5.675,4.39,5.009,4.316,4.432,4.451C4.347,4.483,4.599,4.458,4.454,4.5
			C3.739,4.512,2.795,5.198,2.837,5.301c0.577-0.45,1.308-0.69,2.039-0.758C4.699,4.566,4.524,4.608,4.348,4.654
			C4.327,4.659,4.304,4.66,4.283,4.665C4.277,4.666,4.266,4.67,4.26,4.672C3.71,4.83,3.181,5.096,2.735,5.483
			C1.881,6.176,1.297,7.292,1.348,8.419c0.001,1.135,0.601,2.177,1.421,2.871C3.58,12.014,4.624,12.415,5.665,12.506z M5.276,4.515
			c0.021,0,0.043,0.003,0.065,0.003C5.295,4.521,5.248,4.517,5.203,4.52C5.227,4.52,5.251,4.515,5.276,4.515z"/>
		<path d="M45.08,40.318c-0.194,0.151-0.529,0.436-0.889,0.446c-0.699,0.068-1.674-0.01-2.95-0.008
			c-2.53-0.016-6.08,0.095-9.314,0.803c-0.418-0.263,0.276-0.57-1.086-0.797c-5.305-0.117-11.133,1.229-16.777,1.328
			c-1.146-0.965-5.273-1.442-7.021-0.971c-0.183,0.477,2.69,0.507,2.579,0.842c-1.055,0.412-2.822,0.069-4.45-0.367l-2.156-0.62
			c-0.015-0.006-0.032-0.01-0.047-0.017c-0.422-0.175-0.924-0.449-1.041-0.662c-0.006-0.001-0.004-0.009-0.005-0.015
			c0.023,0.001,0.028-0.027,0.081-0.067c0.105-0.098,0.301-0.208,0.504-0.297c0.416-0.182,0.893-0.319,1.373-0.438
			c1.945-0.458,4.012-0.688,6.078-0.895c2.071-0.197,4.167-0.336,6.272-0.439c0.682-0.032,1.367-0.056,2.051-0.082
			c0.094,0.578,0.37,1.157,0.797,1.555c0.527,0.521,1.301,0.796,2.007,0.762l1.855-0.041l3.714-0.088l7.415-0.157
			c0.336-0.022,0.669-0.005,1.007-0.015h1.072c0.95,0,1.761-0.584,2.101-1.411c0.482,0.065,0.968,0.123,1.445,0.203
			c0.521,0.09,1.044,0.178,1.557,0.293c0.757,0.173,2.159,0.356,2.839,0.712c0.359,0.159,0.408,0.486,0.46,0.376
			c0.034-0.011,0.029-0.266-0.147-0.46c-0.127-0.154-0.346-0.299-0.61-0.438c-0.061-0.033-0.121-0.065-0.192-0.1
			c-0.03-0.014-0.051-0.03-0.083-0.044c-0.041-0.017-0.082-0.026-0.123-0.043c-0.086-0.036-0.156-0.072-0.257-0.107
			c-0.178-0.062-0.356-0.113-0.536-0.167c-0.057-0.017-0.111-0.036-0.168-0.052c-0.322-0.092-0.646-0.175-0.972-0.249
			c-0.141-0.034-0.309-0.062-0.483-0.09c-0.854-0.173-1.719-0.298-2.584-0.414c0.012-0.094,0.028-0.187,0.028-0.284V27.038
			c0-1.256-0.012-2.408-0.006-2.574c0.002-0.091,0.006-0.191,0.006-0.3c0-1.219-0.247-2.378-0.745-3.468
			c-0.498-1.091-1.179-2.027-2.046-2.812c-0.86-0.786-1.871-1.41-3.032-1.872c-0.56-0.225-1.135-0.39-1.727-0.504
			c-0.201-0.061-0.401-0.12-0.606-0.169c-1.117-0.235-2.274-0.338-3.418-0.143c-1.132,0.193-2.236,0.512-3.304,0.947l-0.004,0.002
			l-0.006,0.003c-0.464,0.281-0.985,0.487-1.522,0.577c-0.009-0.012-0.022-0.016-0.03-0.027c-0.22-0.333-0.466-0.642-0.741-0.923
			c-0.565-0.585-1.247-1.046-2.041-1.388c-0.658-0.285-1.353-0.442-2.077-0.489c-1.005-0.212-2.054-0.189-3.046,0.06
			c-0.979,0.259-1.876,0.763-2.653,1.403c-0.018-0.022-0.033-0.042-0.051-0.065c-0.164-0.211-0.344-0.41-0.545-0.595
			c-0.522-0.48-1.143-0.854-1.852-1.127c-0.716-0.271-1.471-0.406-2.273-0.406c-0.011,0-0.021,0.003-0.031,0.003
			c-0.747-0.103-1.51-0.091-2.243,0.064c-2.409,0.47-4.415,2.687-4.366,5.162c0.092,0.898-0.015,1.786-0.002,2.676l-0.036,2.663
			l-0.019,1.324c-0.002,0.437-0.046,0.893,0.113,1.316c0.208,0.641,0.72,1.165,1.346,1.417c0.015,0.044-0.122,0.027-0.274-0.023
			c-0.199-0.06-0.408-0.175-0.35-0.072c0.352,0.324,0.828,0.533,1.288,0.573c0.44,0.035,0.766,0.023,1.077,0.013
			c0.6-0.029,0.957-0.115,0.831-0.206l1.717,0.27c0.594,0.108,1.324,0.143,1.629,0.371c0.402,0.22,0.645,0.6,0.681,0.903
			c0.004,0.078,0.011,0.149-0.003,0.221c0.001,0.164-0.028,0.255,0.024,0.612c0.08,0.531,0.303,0.977,0.602,1.354
			c0.218,0.207,0.075-0.022-0.013-0.212c-0.08-0.203-0.134-0.34,0.16,0.02c0.268,0.453,0.7,0.85,1.23,1.108
			c0.266,0.125,0.553,0.229,0.853,0.28c0.148,0.034,0.305,0.041,0.452,0.056l0.32,0.023c0.856,0.058,1.728,0.076,2.514,0.063
			c0.785-0.012,1.486-0.052,2.003-0.112l0.185-0.023c0.005-0.004,0.113-0.007,0.03-0.014l0.082-0.009l0.146-0.02
			c0.014-0.004,0.027-0.01,0.041-0.017c0.046-0.038,0.141-0.048,0.158-0.094c-0.126-0.076-0.686-0.063-1.143-0.079L14.3,32.728
			c-0.94-0.043-1.888-0.101-2.838-0.169c-1.134-0.011-2.36-0.758-2.675-1.926c-0.034-0.142-0.065-0.287-0.074-0.452
			c-0.011-0.088,0-0.128-0.001-0.193l0.005-0.18c0.009-0.191-0.02-0.389-0.089-0.579c-0.025-0.067-0.061-0.132-0.096-0.196
			c0.04,0.067,0.083,0.135,0.112,0.208c0.096,0.246,0.116,0.442,0.109,0.748c-0.005,0.314,0.092,0.715,0.255,1.01
			c0.33,0.631,0.943,1.076,1.617,1.264c0.326,0.102,0.724,0.117,0.997,0.119l0.897,0.022l1.803,0.031l1.813,0.019
			c0.315-0.002,0.573,0.004,0.766,0.062c0.223,0.059,0.434,0.161,0.617,0.303c0.368,0.28,0.618,0.712,0.671,1.175
			c0.025,0.493,0.015,1.19,0.027,1.777l0.023,1.719c-3.658,0.119-7.291,0.311-10.847,0.699c-0.984,0.113-1.963,0.242-2.932,0.424
			c-0.135,0.028-0.27,0.057-0.405,0.084c-0.11-0.137,0.48-0.353,0.315-0.482c-0.693-0.099-1.361,0.041-1.807,0.267
			c-0.45,0.228-0.652,0.525-0.477,0.628c-0.232,0.032-0.479,0.068-0.767,0.203c-0.143,0.067-0.303,0.164-0.46,0.349
			c-0.077,0.091-0.153,0.209-0.206,0.354c-0.029,0.069-0.045,0.152-0.061,0.232l-0.005,0.03L0.585,40.28l0.004,0.08l-0.001,0.003
			l-0.001,0.005L0.58,40.39l-0.013,0.044c0,0.087,0.019,0.227,0.045,0.325c0.018,0.074,0.041,0.153,0.068,0.224
			c0.053,0.137,0.115,0.253,0.18,0.357c0.126,0.201,0.254,0.354,0.381,0.494c0.249,0.268,0.494,0.479,0.738,0.671
			c0.971,0.748,1.973,1.241,2.938,1.523c0.326-0.048-0.467-0.461,0.057-0.443c2.087,1.555,5.834,1.52,6.02,0.846
			c-1.413-0.151-2.84-0.497-4.254-0.969c-1.138-0.39-2.278-0.844-3.369-1.421c0.084,0.037,0.167,0.078,0.251,0.113
			c0.852,0.351,1.732,0.616,2.622,0.838c1.781,0.438,3.611,0.691,5.459,0.846c3.697,0.302,7.468,0.191,11.212-0.028
			c3.747-0.225,7.47-0.559,11.122-0.819l5.445-0.365c0.905-0.062,1.807-0.121,2.729-0.221c0.463-0.054,0.93-0.112,1.423-0.221
			c0.249-0.056,0.506-0.122,0.787-0.232c0.279-0.126,0.604-0.235,0.992-0.709c0.104-0.347,0.068-0.67-0.027-0.822
			C45.294,40.263,45.187,40.258,45.08,40.318z M4.478,13.576c-0.696,0.273-1.302,0.646-1.819,1.127
			c-0.513,0.48-0.924,1.042-1.228,1.688c-0.306,0.646-0.46,1.342-0.46,2.094c0,0.034,0.003,0.065,0.007,0.093
			c0.008,0.051,0.034,0.13,0.041,0.182c0.008,0.05-0.023,1.107-0.031,2.362c-0.009,1.407-0.012,3.209-0.014,4.617
			c-0.002,0.716,0.336,1.347,0.854,1.763c-0.021-0.005-0.045-0.006-0.065-0.012c-0.461-0.136-0.866-0.448-1.114-0.857
			c-0.264-0.412-0.309-0.877-0.278-1.443l0.028-3.385l0.02-1.697l0.017-0.85l0.008-0.428c-0.002-0.069,0.01-0.135-0.007-0.278
			l-0.027-0.13l-0.011-0.044c-0.055-2.293,1.827-4.396,4.11-4.841c0.075-0.016,0.154-0.019,0.23-0.032
			C4.653,13.532,4.562,13.544,4.478,13.576z M10.746,31.687c-0.507-0.143-0.969-0.477-1.227-0.922
			c-0.129-0.22-0.204-0.473-0.221-0.704c-0.006-0.242-0.014-0.599-0.123-0.864c-0.185-0.526-0.576-0.915-0.992-1.148
			c1.056,0.174,1.857,0.992,1.857,1.979c0,0.742,0.458,1.385,1.133,1.734C11.027,31.748,10.883,31.727,10.746,31.687z M14.118,14.39
			c-0.799,0.341-1.51,0.803-2.129,1.388c-0.031,0.03-0.057,0.062-0.082,0.095c-0.029,0.038-0.144-0.086-0.299-0.276
			c0.749-0.619,1.616-1.106,2.549-1.353c0.293-0.074,0.593-0.125,0.896-0.158C14.734,14.164,14.42,14.261,14.118,14.39z
			 M19.371,38.02c0.117-0.004,0.234-0.005,0.352-0.008c0.031,0.312,0.113,0.608,0.255,0.872C19.69,38.665,19.466,38.36,19.371,38.02
			z M23.694,16.402l-0.033,0.018c0.811-0.335,1.664-0.593,2.521-0.785c0.446-0.104,0.891-0.176,1.335-0.21
			c-0.769,0.105-1.508,0.294-2.212,0.588c-0.516,0.212-0.999,0.461-1.45,0.743c-0.602,0.375-1.182,0.451-1.582,0.208
			C22.779,16.85,23.251,16.667,23.694,16.402z M19.21,35.059c0.06-0.198,0.115-0.462,0.162-0.773
			c0.052-0.334,0.044-0.859-0.147-1.338c0.29,0.382,0.47,0.853,0.47,1.37v3.127c-0.089,0.002-0.179,0.003-0.268,0.005
			c-0.04,0.001-0.08,0.003-0.12,0.004C19.264,36.673,19.239,35.849,19.21,35.059z M1.907,40.3c-0.033,0.044-0.034-0.021-0.047-0.045
			c0.069,0.054,0.028,0.017,0.055,0.03C1.913,40.288,1.914,40.283,1.907,40.3z"/>
	</g>
</g>
<g>
</g>
<g>
</g>
<g>
</g>
<g>
</g>
<g>
</g>
<g>
</g>
<g>
</g>
<g>
</g>
<g>
</g>
<g>
</g>
<g>
</g>
<g>
</g>
<g>
</g>
<g>
</g>
<g>
</g>
</svg>
