<?xml version="1.0" encoding="iso-8859-1"?>
<!-- Generator: Adobe Illustrator 16.0.0, SVG Export Plug-In . SVG Version: 6.00 Build 0)  -->
<!DOCTYPE svg PUBLIC "-//W3C//DTD SVG 1.1//EN" "http://www.w3.org/Graphics/SVG/1.1/DTD/svg11.dtd">
<svg version="1.1" id="Capa_1" xmlns="http://www.w3.org/2000/svg" xmlns:xlink="http://www.w3.org/1999/xlink" x="0px" y="0px"
	 width="47.907px" height="47.907px" viewBox="0 0 47.907 47.907" style="enable-background:new 0 0 47.907 47.907;"
	 xml:space="preserve">
<g>
	<g>
		<path d="M27.47,3.055C16.905,1.461,6.43,7.697,1.948,17.132c-3.147,6.626-2.269,14.462,1.118,20.771
			c1.419,2.644,3.353,5.315,5.869,6.416c0.506,0.221,1.068,0.396,1.231,0.461c0.163,0.064,0.324,0.077,0.351,0.05
			c0.027-0.027,0.493,0.021,1.045,0.008c0.579-0.014,1.182-0.11,1.812-0.31c0.101-0.032,0.186-0.062,0.257-0.091
			c0.14-0.058,0.645-0.322,1.151-0.542c6.463-2.807,12.883-2.304,19.055,0.763c1.055,0.523,2.429,0.578,3.542,0.186
			c5.456-1.923,8.736-9.136,9.952-14.263C50.48,17.3,40.287,4.989,27.47,3.055z M4.385,15.728c0.21-0.438,0.43-0.87,0.663-1.294
			c0.238-0.435,0.489-0.854,0.751-1.259c0.299-0.464,0.881-1.14,1.277-1.525C8.3,10.458,9.544,9.246,10.814,8.01
			c0.396-0.385,1.088-0.948,1.563-1.23c0.755-0.449,1.535-0.846,2.336-1.188c0.508-0.217,0.608-0.057,0.213,0.329
			C11.58,9.19,8.331,12.386,4.685,15.94C4.289,16.324,4.147,16.226,4.385,15.728z M4.657,16.003
			c2.913-2.838,5.629-5.478,4.219-4.027c-0.513,0.493-2.067,1.996-4.252,4.111c-0.397,0.384-0.71,0.677-0.701,0.655
			C3.933,16.719,4.262,16.388,4.657,16.003z M39.378,42.344c-0.331,0.357-0.681,0.625-1.045,0.821
			c-0.487,0.261-1.024,0.308-1.136,0.26c-0.109-0.047-0.258-0.026-0.332,0.046c-0.071,0.072-0.375,0.148-0.678,0.136
			c-0.304-0.015-0.425-0.174-0.275-0.323c0.15-0.15,0.137-0.322-0.03-0.382c-0.167-0.061-0.446,0.036-0.623,0.211
			c-0.176,0.175-0.604,0.253-0.95,0.152c-0.345-0.1-0.472-0.341-0.287-0.522c0.184-0.183,0.069-0.407-0.258-0.489
			c-0.326-0.083-0.727-0.014-0.888,0.144c-0.163,0.156-0.612,0.164-1.005,0.021c-0.241-0.088-0.479-0.173-0.713-0.251
			c-0.156-0.052-0.314-0.101-0.471-0.146c-0.262-0.077-0.426-0.182-0.365-0.242c0.06-0.062-0.01-0.123-0.156-0.138
			s-0.301,0.013-0.346,0.058c-0.043,0.044-0.514-0.023-1.059-0.116c-1.943-0.335-3.941-0.367-5.899-0.296
			c-3.234,0.116-6.379,1.099-9.302,2.442c-0.501,0.23-1.22,0.529-1.622,0.517c-0.401-0.013-0.435-0.403-0.09-0.75
			c0.345-0.346,0.431-0.808,0.197-1.037c-0.233-0.229-0.748-0.119-1.155,0.255c-0.046,0.042-0.092,0.084-0.138,0.126
			c-0.407,0.373-1.108,0.423-1.521,0.057c-0.323-0.288-0.636-0.605-0.935-0.937c-0.37-0.41-0.334-1.081,0.053-1.474
			c0.124-0.126,0.249-0.253,0.373-0.379c0.388-0.394,0.655-0.78,0.598-0.865s-0.433,0.15-0.838,0.527
			c-0.134,0.123-0.268,0.247-0.402,0.371c-0.405,0.375-0.93,0.429-1.163,0.111s-0.085-0.879,0.324-1.251
			c0.157-0.143,0.314-0.285,0.471-0.427c0.409-0.372,0.595-0.912,0.426-1.211c-0.168-0.3-0.626-0.242-1.03,0.135
			c-0.187,0.174-0.373,0.348-0.56,0.522c-0.403,0.377-0.743,0.663-0.757,0.644c-0.009-0.013-0.019-0.026-0.026-0.037
			c-0.477-0.667-0.895-1.368-1.266-2.092c-0.251-0.492-0.162-1.156,0.172-1.47c0.2-0.189,0.402-0.377,0.606-0.568
			c0.182-0.188,0.364-0.375,0.546-0.562c0.302-0.31,0.459-0.816,0.362-1.138c-0.097-0.32-0.473-0.28-0.847,0.093
			c-0.228,0.228-0.455,0.452-0.678,0.675c-0.167,0.181-0.336,0.359-0.505,0.54c-0.279,0.297-0.672,0.121-0.853-0.4
			c-0.005-0.014-0.01-0.028-0.015-0.042c-0.18-0.522,0.009-1.268,0.4-1.657c0.382-0.38,0.764-0.76,1.146-1.14
			c0.392-0.39,0.706-0.729,0.702-0.756c-0.004-0.029-0.33,0.258-0.728,0.641c-0.039,0.038-0.078,0.075-0.115,0.11
			c-0.399,0.382-0.958,0.917-1.241,1.202c-0.284,0.285-0.584,0.284-0.666-0.004c-0.081-0.288,0.175-0.837,0.569-1.225
			c0.429-0.423,0.857-0.845,1.286-1.268c0.393-0.389,0.677-0.988,0.646-1.341c-0.031-0.352-0.359-0.314-0.743,0.081
			c-0.486,0.501-0.972,1.002-1.457,1.503c-0.384,0.396-0.776,0.387-0.854-0.027s0.185-1.075,0.569-1.471
			c0.573-0.592,1.141-1.177,1.7-1.754c0.385-0.396,0.701-1.166,0.731-1.718c0.007-0.13,0.016-0.259,0.025-0.389
			c0.04-0.551-0.225-0.681-0.618-0.293c-0.673,0.664-1.35,1.332-2.028,2.002c-0.393,0.388-0.731,0.254-0.725-0.298
			c0.005-0.462,0.025-0.923,0.061-1.384c0.042-0.552,0.426-1.302,0.828-1.681c0.884-0.835,1.767-1.671,2.647-2.516
			c0.399-0.382,0.795-0.947,0.896-1.257c0.101-0.31-0.125-0.24-0.514,0.152c-0.99,1-1.98,2-2.97,3.001
			c-0.388,0.393-0.638,0.268-0.532-0.274c0.111-0.568,0.243-1.134,0.395-1.693c0.145-0.533,0.595-1.279,0.981-1.674
			c1.849-1.888,3.689-3.76,5.514-5.606c0.388-0.393,0.973-1.068,1.327-1.492c0.849-1.015,1.783-1.956,2.793-2.81
			c0.421-0.357,1.093-0.947,1.483-1.338c0.643-0.646,1.285-1.29,1.924-1.93c0.39-0.391,1.138-0.826,1.678-0.944
			c0.488-0.107,0.979-0.196,1.474-0.269c0.546-0.08,0.874-0.004,0.728,0.142s0.014,0.164,0.36,0.051
			c0.347-0.113,0.674-0.239,0.727-0.293c0.053-0.054,0.544-0.126,1.096-0.134c6.069-0.088,12.288,2.262,16.874,6.846
			C48.341,19.438,47.387,33.683,39.378,42.344z"/>
		<path d="M33.854,27.987c0.025-0.097,0.045-0.19,0.063-0.285c0.03-0.159,0.358-0.615,0.735-1.018
			c0.592-0.635,1.183-1.269,1.767-1.895c0.377-0.404,0.623-0.998,0.524-1.319c-0.098-0.321-0.514-0.261-0.906,0.128
			c-0.391,0.389-0.785,0.779-1.18,1.169c-0.393,0.389-0.717,0.254-0.801-0.291c-0.148-0.963-0.467-1.87-0.926-2.701
			c-0.268-0.483-0.198-1.144,0.215-1.51c0.09-0.081,0.182-0.161,0.271-0.241c0.414-0.366,0.715-0.695,0.672-0.733
			c-0.043-0.039-0.399,0.24-0.797,0.625c-0.08,0.078-0.16,0.156-0.241,0.234c-0.397,0.384-0.886,0.466-1.111,0.201
			c-0.228-0.266-0.103-0.777,0.298-1.159c0.019-0.017,0.036-0.034,0.055-0.051c0.398-0.382,0.675-0.723,0.613-0.759
			c-0.061-0.036-0.432,0.247-0.826,0.632c-0.002,0.002-0.006,0.005-0.008,0.008c-0.396,0.385-0.406,0.376-0.016-0.014
			c0.002-0.002,0.003-0.003,0.005-0.004c0.392-0.39,0.369-0.414-0.032-0.035c-0.002,0.002-0.004,0.003-0.006,0.005
			c-0.4,0.379-1.035,0.378-1.464,0.029c-0.076-0.062-0.153-0.123-0.231-0.183c-0.438-0.336-0.59-0.783-0.307-1.048
			c0.284-0.265,0.178-0.583-0.25-0.669c-0.427-0.087-0.93,0.016-1.115,0.188c-0.187,0.173-0.645,0.168-1.037,0.021
			c-0.392-0.146-0.69-0.268-0.658-0.298c0.033-0.03-0.014-0.048-0.104-0.034c-0.091,0.014-0.594-0.104-1.136-0.209
			c-0.458-0.089-0.921-0.149-1.388-0.174c-0.016-0.001-0.035,0-0.055,0.001c-0.03,0.003-0.078,0.007-0.104,0.007
			c-0.015,0-0.03,0-0.047,0.001c-4.89,0.263-9.039,2.892-10.382,7.778c-1.682,6.118,3.657,11.094,9.326,11.398
			C28.165,36.047,32.591,32.579,33.854,27.987z M27.816,34.141c-5.167,3.399-10.708-1.69-11.956-6.235
			c-1.265-4.61,1.944-9.491,6.487-10.417c0.541-0.11,1.438-0.115,1.984-0.028C32.423,18.75,34.986,29.425,27.816,34.141z"/>
		<path d="M37.017,26.474c-0.108,0.116-0.217,0.233-0.327,0.35c-2.57,2.729-5.015,5.315-7.345,7.775
			c-0.38,0.401-0.616,0.724-0.526,0.721c0.088-0.004,0.474-0.327,0.862-0.721c2.427-2.447,4.772-4.816,6.921-6.984
			c0.389-0.393,0.719-0.883,0.731-1.099C37.344,26.301,37.197,26.281,37.017,26.474z"/>
		<path d="M36.253,29.469c-1.622,1.635-3.202,3.227-4.736,4.771c-0.389,0.392-0.272,0.584,0.234,0.367
			c2.192-0.94,3.944-2.706,4.87-4.907C36.836,29.191,36.642,29.078,36.253,29.469z"/>
	</g>
</g>
<g>
</g>
<g>
</g>
<g>
</g>
<g>
</g>
<g>
</g>
<g>
</g>
<g>
</g>
<g>
</g>
<g>
</g>
<g>
</g>
<g>
</g>
<g>
</g>
<g>
</g>
<g>
</g>
<g>
</g>
</svg>
