<?xml version="1.0" encoding="iso-8859-1"?>
<!-- Generator: Adobe Illustrator 16.0.0, SVG Export Plug-In . SVG Version: 6.00 Build 0)  -->
<!DOCTYPE svg PUBLIC "-//W3C//DTD SVG 1.1//EN" "http://www.w3.org/Graphics/SVG/1.1/DTD/svg11.dtd">
<svg version="1.1" id="Capa_1" xmlns="http://www.w3.org/2000/svg" xmlns:xlink="http://www.w3.org/1999/xlink" x="0px" y="0px"
	 width="45.123px" height="45.123px" viewBox="0 0 45.123 45.123" style="enable-background:new 0 0 45.123 45.123;"
	 xml:space="preserve">
<g>
	<g>
		<path d="M5.18,43.356c2.319,0,4.36,0.347,6.1-1.39c0.938-0.937,0.463-3.814,0.465-4.928c0.013-7.449,0.025-14.897,0.038-22.347
			c0.002-1.226,0.005-2.452,0.007-3.679c0-0.552,0.188-0.816,0.416-0.588c0.139,0.138,0.277,0.275,0.415,0.413
			c1.266,1.259,2.531,2.518,3.796,3.776c2.66,2.646,5.319,5.292,7.979,7.937c1.064,1.06,2.656,3.411,4.254,3.823
			c3.839,0.989,2.375-9.677,2.056-11.673c-0.396-2.472-3.782-4.835-5.386-6.439c-1.912-1.912-3.715-4.023-5.911-5.611
			c-1.864-1.349-5.299-0.804-7.397-0.804c-2.805,0-5.61,0-8.415,0c-0.011,0-0.022,0.001-0.034,0.002
			C3.546,1.852,3.43,1.846,3.308,1.86C3.241,1.868,3.167,1.882,3.09,1.903c-4.371,1.183-2.824,7.405-2.824,10.911
			c0,7.639,0,15.278,0,22.917C0.265,40.339-0.401,43.356,5.18,43.356z M27.938,23.511c-0.123-0.122-0.245-0.244-0.368-0.366
			c-0.393-0.39-0.381-1.01,0.023-1.385c0.259-0.238,0.516-0.477,0.772-0.715c0.404-0.375,0.713-0.232,0.685,0.319
			c-0.044,0.838-0.089,1.639-0.089,2.355c0,0.032,0.002,0.061,0.004,0.09c0.003,0.05-0.065,0.162-0.155,0.249
			C28.719,24.145,28.329,23.899,27.938,23.511z M29.069,24.636c-0.051-0.051-0.103-0.102-0.152-0.151
			c-0.084-0.083-0.102-0.199-0.039-0.258s0.129,0.047,0.183,0.229c0.053,0.183,0.107,0.284,0.073,0.246
			C29.116,24.685,29.095,24.662,29.069,24.636z M7.354,3.151c0.094-0.165,0.64-0.309,1.191-0.332
			c4.33-0.179,8.752-0.006,11.72,2.962c2.362,2.363,4.725,4.725,7.087,7.088c1.435,1.434,1.765,3.643,1.777,5.885
			c0.004,0.552-0.146,0.864-0.314,0.697s-0.634,0.002-1.037,0.378c-0.366,0.339-0.731,0.679-1.099,1.02
			c-0.404,0.375-0.954,0.461-1.226,0.19c-0.272-0.271-0.166-0.796,0.237-1.174c0.364-0.343,0.729-0.684,1.093-1.024
			c0.402-0.378,0.637-0.777,0.521-0.891c-0.114-0.114-0.528,0.104-0.924,0.491c-0.298,0.292-0.648,0.638-1.065,1.05
			c-0.394,0.388-1.027,0.388-1.419-0.001c-0.123-0.123-0.247-0.245-0.37-0.368c-0.392-0.39-0.396-1.027-0.011-1.422
			c0.349-0.358,0.696-0.715,1.043-1.071c0.387-0.395,0.605-0.81,0.488-0.925c-0.116-0.115-0.532,0.102-0.931,0.484
			c-0.32,0.308-0.68,0.652-1.081,1.037c-0.399,0.382-1.039,0.376-1.431-0.014c-0.199-0.198-0.398-0.397-0.599-0.596
			c-0.391-0.389-0.39-1.019,0.004-1.407c0.354-0.351,0.71-0.701,1.065-1.051c0.394-0.388,0.494-0.918,0.225-1.186
			s-0.8-0.164-1.185,0.232c-0.348,0.358-0.695,0.716-1.043,1.073c-0.385,0.396-0.854,0.559-1.052,0.363
			c-0.196-0.195-0.043-0.675,0.342-1.071c0.353-0.363,0.701-0.721,1.043-1.072c0.385-0.396,0.689-0.726,0.678-0.737
			c-0.011-0.01-0.332,0.303-0.716,0.699c-0.345,0.355-0.693,0.715-1.041,1.073c-0.385,0.396-0.72,0.695-0.749,0.666
			c-0.029-0.029,0.261-0.371,0.648-0.765c0.366-0.372,0.718-0.729,1.051-1.065c0.388-0.393,0.5-0.913,0.249-1.163
			s-0.774-0.139-1.167,0.248c-0.345,0.338-0.689,0.676-1.034,1.016c-0.394,0.387-1.014,0.37-1.393-0.032
			c-2.126-2.254-6.217-6.173-6.885-3.38C9.082,13.072,11.681,42.15,8.426,42.15c-0.034,0-0.069,0-0.104,0.001
			c-0.059,0.001-0.208-0.046-0.323-0.121c-0.116-0.073-0.271-0.082-0.358-0.002c-0.089,0.08-0.606,0.166-1.159,0.179
			c-0.063,0.001-0.127,0.002-0.189,0.003c-0.553,0.007-0.668-0.319-0.257-0.688c0.114-0.104,0.229-0.208,0.345-0.312
			c0.41-0.37,0.738-0.706,0.732-0.749c-0.003-0.026-0.006-0.053-0.006-0.079c0,0,0-0.297,0-0.663s-0.326-0.358-0.73,0.018
			c-0.556,0.52-1.112,1.037-1.668,1.557c-0.404,0.377-1.184,0.579-1.624,0.243c-0.54-0.411-0.879-1.064-0.879-2.091
			c0-0.079,0-0.156,0-0.235c0-0.13,0.325-0.542,0.727-0.921c1.132-1.068,2.282-2.151,3.446-3.245
			c0.402-0.378,0.729-0.969,0.729-1.318s-0.306-0.306-0.683,0.098c-1.266,1.357-2.531,2.712-3.81,4.058
			c-0.068,0.07-0.137,0.142-0.205,0.213c-0.113,0.118-0.204-0.235-0.204-0.787c0-0.335,0-0.669,0-1.004
			c0-0.552,0.316-1.317,0.708-1.707c1.156-1.154,2.321-2.309,3.483-3.461c0.392-0.39,0.71-0.743,0.71-0.79s-0.315,0.232-0.705,0.625
			c-1.164,1.171-2.328,2.342-3.491,3.514c-0.39,0.393-0.705,0.511-0.705,0.267c0-0.148,0-0.297,0-0.444
			c0.009-0.094,0.017-0.188,0.025-0.284c0.015-0.157,0.343-0.6,0.733-0.99c0.734-0.731,1.467-1.466,2.201-2.195
			c0.41-0.405,0.82-0.81,1.229-1.213c0.394-0.389,0.712-0.987,0.712-1.339c0-0.351-0.312-0.312-0.695,0.083
			c-1.118,1.153-2.239,2.306-3.357,3.46c-0.384,0.397-0.655,0.279-0.606-0.265c0.048-0.543,0.397-1.306,0.781-1.703
			c1.072-1.108,2.135-2.207,3.181-3.286c0.384-0.396,0.696-1.167,0.696-1.719v-0.342c0-0.552-0.318-0.686-0.712-0.297
			c-0.965,0.954-1.935,1.912-2.911,2.877C3.09,27.48,2.809,27.35,2.855,26.8c0.051-0.61,0.098-1.18,0.137-1.683
			c0.044-0.551,0.405-1.302,0.81-1.678c0.864-0.803,1.723-1.611,2.579-2.422c0.401-0.38,0.726-0.816,0.726-0.975
			c0-0.159-0.314,0.032-0.703,0.424c-0.871,0.88-1.743,1.758-2.613,2.638c-0.389,0.394-0.691,0.54-0.679,0.327
			c0.01-0.177,0.015-0.31,0.015-0.387c0-0.124-0.013-0.46-0.037-0.958c-0.025-0.527,0.263-1.275,0.648-1.67
			c0.894-0.916,1.781-1.823,2.669-2.729c0.387-0.395,0.7-1.068,0.7-1.504c0-0.437-0.321-0.479-0.718-0.094
			c-0.858,0.832-1.77,1.715-2.722,2.639c-0.397,0.384-0.743,0.266-0.773-0.264c-0.03-0.531,0.267-1.272,0.662-1.658
			c0.93-0.905,1.876-1.826,2.834-2.759c0.396-0.385,0.717-1.043,0.717-1.468c0-0.426-0.317-0.455-0.71-0.066
			c-0.978,0.971-1.954,1.94-2.928,2.906c-0.392,0.389-0.735,0.257-0.768-0.294c-0.008-0.143-0.017-0.286-0.024-0.43
			c-0.032-0.551,0.264-1.309,0.662-1.692c1.038-0.998,2.05-1.97,3.046-2.925c0.398-0.382,0.722-0.711,0.722-0.732
			s-0.322,0.271-0.721,0.654c-0.988,0.949-2.004,1.924-3.049,2.924c-0.398,0.382-0.749,0.245-0.781-0.307
			C2.493,11.549,2.43,10.486,2.37,9.476C2.338,8.924,2.624,8.156,3.01,7.761c1.192-1.221,2.368-2.424,3.504-3.585
			C6.902,3.783,7.261,3.315,7.354,3.151z M2.544,3.635c0.281-0.437,0.769-0.589,0.84-0.591c0.069-0.001,0.024,0.107-0.103,0.243
			c-0.127,0.135-0.114,0.135,0.029,0c0.144-0.135,0.279-0.246,0.302-0.246c0.021,0-0.274,0.318-0.66,0.712
			C2.938,3.768,2.925,3.781,2.911,3.795C2.523,4.189,2.263,4.072,2.544,3.635z M3.757,3.04c0.048,0-0.241,0.303-0.648,0.677
			C3.057,3.765,3.005,3.812,2.952,3.86C2.545,4.233,2.521,4.206,2.909,3.812c0.021-0.02,0.04-0.039,0.06-0.06
			C3.356,3.359,3.709,3.04,3.757,3.04z M2.127,5.084c0.007-0.073,0.327-0.453,0.712-0.848C2.995,4.075,3.154,3.914,3.313,3.75
			C3.698,3.354,4.33,3.024,4.724,3.008C5.12,2.991,5.126,3.295,4.74,3.689C4.125,4.316,3.506,4.947,2.883,5.583
			C2.496,5.979,2.168,6.057,2.151,5.758C2.13,5.46,2.121,5.157,2.127,5.084z"/>
		<path d="M32.898,43.151c2.804,0,5.606,0,8.412,0c0.019,0,0.042-0.003,0.066-0.006c0.038-0.005,0.198-0.006,0.356-0.028
			c0.085-0.012,0.179-0.03,0.281-0.059c4.299-1.163,2.886-6.427,2.886-9.993c0-7.672,0-15.345,0-23.017c0-1.907,0-3.813,0-5.719
			c0-2.893-3.712-2.28-5.562-2.28c-4.62,0-5.896,1.106-5.902,5.629c-0.014,7.401-0.025,14.803-0.038,22.206
			c-0.002,1.463-0.005,2.926-0.008,4.389c-0.001,0.552-0.095,0.883-0.22,0.75c-0.063-0.069-0.141-0.147-0.229-0.237
			c-1.177-1.169-2.352-2.337-3.525-3.506c-2.678-2.664-5.354-5.327-8.033-7.989c-1.112-1.107-2.97-3.883-4.644-4.277
			c-4.141-0.976-2.461,8.417-2.461,10.284c0,2.878,3.047,5.063,4.868,6.886c2.088,2.089,4.071,4.466,6.471,6.202
			C27.442,43.704,30.85,43.151,32.898,43.151z M35.373,4.23c0.001-0.804,0.729-1.293,1.731-1.507
			c0.54-0.116,0.677,0.197,0.289,0.591c-0.44,0.448-0.882,0.896-1.321,1.344c-0.388,0.394-0.7,0.458-0.7,0.143
			C35.372,4.61,35.372,4.419,35.373,4.23z M16.195,20.572c0.406,0.374,0.538,0.876,0.337,1.076c-0.201,0.2-0.402-0.084-0.487-0.63
			C15.96,20.479,15.924,20.322,16.195,20.572z M16.187,24.198c0.017-0.552,0.306-1.293,0.659-1.657
			c0.353-0.363,0.957-0.342,1.348,0.047c0.108,0.107,0.216,0.214,0.323,0.321c0.392,0.39,0.393,1.021,0.002,1.412
			c-0.518,0.519-1.078,1.079-1.678,1.681c-0.391,0.391-0.711,0.26-0.698-0.292C16.154,25.207,16.173,24.701,16.187,24.198z
			 M16.178,27.879c-0.035-0.479,0.287-1.175,0.691-1.553c0.629-0.588,1.259-1.177,1.889-1.766c0.404-0.378,0.949-0.466,1.219-0.198
			c0.269,0.269,0.159,0.79-0.245,1.165c-0.909,0.845-1.818,1.688-2.727,2.533C16.6,28.437,16.213,28.356,16.178,27.879z
			 M25.435,39.993c-0.099-0.098-0.196-0.195-0.295-0.294c-0.162-0.163,0.021-0.611,0.409-1.005c0.36-0.363,0.723-0.729,1.083-1.094
			c0.39-0.393,0.688-0.728,0.664-0.75c-0.021-0.021-0.349,0.286-0.728,0.686c-0.356,0.375-0.71,0.747-1.062,1.116
			c-0.381,0.4-0.918,0.496-1.2,0.213c-0.281-0.281-0.203-0.838,0.174-1.24c0.352-0.375,0.701-0.75,1.054-1.126
			c0.377-0.403,0.409-1.005,0.071-1.343c-0.339-0.338-0.849-0.375-1.139-0.082c-0.175,0.178-0.351,0.354-0.525,0.531
			c-0.244,0.247-0.491,0.494-0.739,0.739c-0.392,0.389-1.027,0.388-1.418-0.003c-0.246-0.247-0.493-0.494-0.74-0.741
			c-0.391-0.391-0.391-1.024-0.001-1.415c0.359-0.361,0.722-0.724,1.087-1.09c0.391-0.392,0.639-0.776,0.554-0.861l-0.153-0.152
			c-0.036-0.036-0.07-0.075-0.105-0.115c-0.056-0.065-0.43,0.182-0.837,0.555c-0.404,0.37-0.789,0.723-1.152,1.058
			c-0.407,0.373-1.053,0.359-1.442-0.03c-0.277-0.277-0.555-0.555-0.831-0.831c-0.508-0.508-0.89-1.057-1.178-1.632
			c-0.247-0.494-0.05-1.229,0.357-1.603c1.015-0.935,2.028-1.869,3.041-2.805c0.405-0.375,0.734-0.792,0.734-0.931
			c0-0.14,0.317,0.064,0.709,0.453c1.265,1.259,2.53,2.517,3.794,3.773c1.886,1.876,6.019,8.375,9.28,6.299
			c0.751-0.478,0.424-2.814,0.425-3.495c0-0.1,0-0.199,0.001-0.299c0-0.165,0.016-0.283,0.034-0.265s0.347-0.286,0.731-0.683
			c1.129-1.157,2.285-2.344,3.452-3.539c0.386-0.395,0.699-1.142,0.7-1.669c0-0.526-0.314-0.637-0.704-0.245
			c-1.193,1.202-2.36,2.379-3.507,3.533c-0.389,0.393-0.703,0.374-0.703-0.041c0.001-0.415,0.316-1.067,0.705-1.46
			c1.22-1.23,2.398-2.42,3.509-3.542c0.39-0.393,0.704-0.89,0.704-1.11c0.001-0.222-0.305-0.074-0.681,0.331
			c-0.311,0.333-0.619,0.666-0.933,0.995c-0.89,0.944-1.759,1.866-2.615,2.774c-0.38,0.401-0.686,0.279-0.686-0.273
			c0-0.095,0-0.19,0-0.285c0.001-0.553,0.309-1.328,0.685-1.731c1.197-1.286,2.385-2.559,3.553-3.812
			c0.376-0.404,0.682-1.048,0.683-1.437c0.001-0.39-0.317-0.39-0.711-0.002c-1.156,1.144-2.321,2.299-3.493,3.462
			c-0.392,0.389-0.709,0.257-0.708-0.296c0.001-0.348,0.002-0.696,0.002-1.044c0.002-0.987,0.004-1.974,0.005-2.961
			c0.002-0.552,0.339-1.297,0.753-1.663c1.13-1,2.274-2.012,3.413-3.016c0.414-0.365,0.75-0.802,0.752-0.975
			c0-0.173-0.321-0.003-0.719,0.382c-1.159,1.125-2.317,2.246-3.477,3.366c-0.398,0.384-0.719,0.306-0.719-0.174
			c0.001-0.48,0.325-1.179,0.725-1.561c0.369-0.354,0.732-0.702,1.085-1.041c0.695-0.675,1.506-1.463,2.391-2.326
			c0.396-0.385,0.718-0.716,0.718-0.739c0-0.022-0.32,0.273-0.718,0.657c-0.492,0.478-0.97,0.937-1.438,1.383
			c-0.4,0.38-0.403,0.375-0.007-0.009c0.523-0.508,1.005-0.975,1.445-1.404c0.396-0.386,0.718-0.752,0.719-0.818
			c0-0.065-0.322,0.193-0.721,0.577c-1.166,1.125-2.323,2.247-3.477,3.368c-0.397,0.385-0.406,0.375-0.022-0.021
			c0.636-0.654,0.941-0.969,0.69-0.746c-0.232,0.227-0.463,0.453-0.692,0.678c-0.384,0.374-0.692,0.229-0.691-0.323
			c0-0.335,0.001-0.669,0.001-1.004c0.001-0.552,0.329-1.305,0.732-1.682c0.578-0.538,1.155-1.076,1.732-1.612L39.38,9.03
			c0.151-0.152,0.3-0.303,0.448-0.454c0.248-0.25,0.449-0.825,0.449-1.283c0.001-0.459-0.326-0.525-0.73-0.149
			c-1.148,1.067-2.299,2.135-3.449,3.203c-0.403,0.375-0.731,0.273-0.731-0.23c0.001-0.503,0.33-1.215,0.735-1.59
			c1.103-1.021,2.257-2.09,3.447-3.194c0.405-0.375,0.733-0.808,0.734-0.965V4.083c0-0.06,0.004-0.118,0.01-0.176
			c0.011-0.097-0.308,0.124-0.719,0.492l-3.735,3.34c0,0-0.105,0.111-0.234,0.249c-0.13,0.138-0.233-0.198-0.233-0.75
			c0-0.083,0-0.166,0-0.249c0.001-0.552,0.318-1.317,0.709-1.707c0.657-0.656,1.314-1.312,1.971-1.967
			c0.393-0.39,1.157-0.693,1.702-0.602c1.688,0.281,3.22,1.085,3.22,2.313c0,2.372,0,4.745,0,7.118c0,7.672,0,15.345,0,23.017
			c0,0.995,0.55,4.781-0.272,6.485c-0.239,0.497-1.108,0.735-1.659,0.758c-3.165,0.132-6.953,0.556-10.249,0.028
			c-0.546-0.087-0.668-0.509-0.28-0.902l0.022-0.022c0.388-0.394,0.638-0.776,0.559-0.855s-0.457,0.177-0.843,0.573
			c-0.062,0.064-0.124,0.128-0.187,0.191c-0.387,0.395-1.134,0.604-1.651,0.414c-0.235-0.087-0.466-0.182-0.691-0.285
			c-0.502-0.23-0.57-0.79-0.187-1.188c0.292-0.303,0.596-0.616,0.911-0.941c0.384-0.396,0.458-0.956,0.166-1.248
			c-0.292-0.293-0.846-0.212-1.234,0.18c-0.36,0.364-0.718,0.724-1.073,1.082c-0.389,0.392-0.738,0.678-0.783,0.642
			C25.487,40.042,25.46,40.019,25.435,39.993z"/>
		<path d="M17.396,10.24c0.123-0.123,0.246-0.247,0.368-0.37c0.39-0.392,0.626-0.789,0.528-0.886L18.116,8.81
			c-0.016-0.015-0.029-0.026-0.043-0.038c-0.025-0.021-0.344,0.262-0.713,0.632s-0.668,0.866-0.668,1.108
			C16.691,10.754,17.007,10.632,17.396,10.24z"/>
		<path d="M3.803,18.521C2.969,19.377,4.391,18,6.391,16.052c0.397-0.385,0.389-0.391-0.012-0.011
			C5.548,16.833,4.691,17.664,3.803,18.521z"/>
		<path d="M6.699,4.03C6.974,3.75,6.97,3.747,6.695,4.027C6.421,4.31,6.423,4.312,6.699,4.03z"/>
		<path d="M7.108,7.488c0-0.014-0.117,0.096-0.264,0.245C6.757,7.822,6.67,7.911,6.58,8.003C6.505,8.079,6.432,8.152,6.357,8.228
			C6.234,8.351,6.352,8.24,6.621,7.982C6.89,7.724,7.108,7.503,7.108,7.488z"/>
		<path d="M19.673,31.097c-0.396,0.386-0.391,0.393,0.012,0.014c0.28-0.265,0.56-0.528,0.838-0.791
			c0.401-0.379,0.723-0.701,0.719-0.717c-0.005-0.017-0.328,0.282-0.724,0.668C20.235,30.546,19.954,30.821,19.673,31.097z"/>
		<path d="M34.296,42.361c0.012-0.012-0.258-0.06-0.591-0.151c-0.334-0.094-0.68-0.116-0.786-0.014
			c-0.106,0.104,0.153,0.188,0.581,0.188C33.927,42.383,34.284,42.374,34.296,42.361z"/>
		<path d="M37.837,34.168l0.259-0.253c0.478-0.479,0.955-0.962,1.434-1.441c0.39-0.392,0.705-0.885,0.705-1.102
			c0.001-0.218-0.312-0.072-0.697,0.323c-0.539,0.553-1.076,1.104-1.615,1.656c-0.385,0.396-0.618,0.795-0.52,0.893
			C37.499,34.342,37.694,34.308,37.837,34.168z"/>
		<path d="M39.771,35.578c-0.248,0.24-0.013,0.643,0.244,0.302C40.272,35.539,40.019,35.339,39.771,35.578z"/>
	</g>
</g>
<g>
</g>
<g>
</g>
<g>
</g>
<g>
</g>
<g>
</g>
<g>
</g>
<g>
</g>
<g>
</g>
<g>
</g>
<g>
</g>
<g>
</g>
<g>
</g>
<g>
</g>
<g>
</g>
<g>
</g>
</svg>
