<?xml version="1.0" encoding="iso-8859-1"?>
<!-- Generator: Adobe Illustrator 16.0.0, SVG Export Plug-In . SVG Version: 6.00 Build 0)  -->
<!DOCTYPE svg PUBLIC "-//W3C//DTD SVG 1.1//EN" "http://www.w3.org/Graphics/SVG/1.1/DTD/svg11.dtd">
<svg version="1.1" id="Capa_1" xmlns="http://www.w3.org/2000/svg" xmlns:xlink="http://www.w3.org/1999/xlink" x="0px" y="0px"
	 width="52.372px" height="52.372px" viewBox="0 0 52.372 52.372" style="enable-background:new 0 0 52.372 52.372;"
	 xml:space="preserve">
<g>
	<g>
		<path d="M35.478,24.397c-0.095,0.094-0.154,0.2-0.16,0.318c-0.188,4.187-0.551,9.306,1.215,13.21
			c0.36,0.798,0.897,1.228,1.494,1.382c1.07,0.275,2.777-0.369,3.319-1.128c0.277-0.389,0.513-0.904,0.681-1.533
			c0.054-0.214,0.091-0.448,0.132-0.676c0.603-2.132,0.408-4.858,0.107-7.274c-0.136-1.097-0.26-1.99-0.25-2.001
			c0.01-0.01,0.018-0.033,0.016-0.051c-0.002-0.013-0.004-0.022-0.005-0.032c-0.069-0.664-0.155-1.161-0.27-1.544
			c-0.539-2.501-2.831-1.854-4.993-1.586c-0.223,0.027-0.425,0.112-0.588,0.225C35.884,23.905,35.621,24.255,35.478,24.397z
			 M37.182,26.565c0.029-1.104,0.144-2.007,0.228-2.018c0.084-0.012,0.108,0.045,0.055,0.125c-0.054,0.081-0.112,0.44-0.127,0.804
			c-0.014,0.363,0.377,0.27,0.871-0.211c0.493-0.479,1.406-0.628,1.576-0.018c0.17,0.609-0.43,1.711-1.165,2.425
			c-0.736,0.715-1.333,1.306-1.333,1.322s0.599-0.548,1.336-1.265c0.737-0.718,1.336-1.287,1.337-1.273
			c0.002,0.015-0.597,0.606-1.335,1.322c-0.739,0.717-1.333,1.829-1.311,2.482c0.023,0.654,0.682,0.542,1.453-0.248
			c0.007-0.007,0.015-0.014,0.021-0.021c0.771-0.79,1.481-0.582,1.531,0.468c0.05,1.051-0.541,2.491-1.259,3.217
			s-1.278,1.43-1.255,1.571c0.024,0.144,0.608-0.268,1.299-0.919c0.691-0.65,1.242-0.734,1.209-0.189
			c-0.02,0.328-0.046,0.656-0.08,0.984c-0.141,1.354-0.907,4.192-2.085,1.587c-0.489-1.085-0.569-2.488-0.72-3.654
			C37.152,30.915,37.124,28.733,37.182,26.565z"/>
		<path d="M40.09,19.968c1.346,0.078,2.683-0.557,3.04-1.925c0.308-1.182-0.164-2.582-0.928-3.488
			c-0.137-0.161-0.408-0.204-0.704-0.168c-0.412,0.049-0.896,0.018-1.204,0c-0.207-0.012-0.424,0.023-0.553,0.058
			c-1.382,0.372-2.773,1.408-2.674,2.993C37.166,18.992,38.644,19.885,40.09,19.968z M40.002,15.424
			c0.054-0.015,0.124-0.037,0.199-0.066c0.106-0.042,0.534,0.312,0.769,0.901c0.141,0.355,0.229,0.727,0.277,1.11
			c0.044,0.354,0.004,0.705-0.086,1.049c-0.022,0.084-0.055,0.161-0.093,0.234c-0.063,0.124-0.752,0.213-1.298-0.223
			c-0.332-0.264-0.585-0.627-0.705-1.027C38.839,16.646,39.196,15.641,40.002,15.424z"/>
		<path d="M51.045,25.45c0.011-0.012-0.004-0.176-0.047-0.366c-0.028-0.123-0.058-0.236-0.088-0.343
			c-0.535-2.445-2.862-1.664-4.943-1.406c-0.228,0.028-0.457,0.114-0.642,0.22c-0.328,0.188-0.508,0.554-0.665,0.676
			c-0.11,0.086-0.182,0.184-0.187,0.296c-0.188,4.153-0.544,9.178,1.209,13.058c0.579,1.281,2.055,1.531,3.25,1.061
			c0.529-0.214,0.989-0.533,1.298-0.982c0.053-0.076,0.102-0.154,0.148-0.233c0.077-0.132,0.259-0.352,0.409-0.491
			c0.149-0.14,0.301-0.337,0.334-0.442c0.019-0.062,0.038-0.126,0.056-0.19c0.169-0.677,0.266-1.44,0.329-2.237
			c0.292-2.133,0.057-4.496-0.217-6.611C51.147,26.358,51.034,25.462,51.045,25.45z M48.281,34.064
			c0.696-0.651,1.242-0.502,1.15,0.329c-0.091,0.829-0.56,1.809-0.975,2.192c-0.414,0.385-0.856,0.499-0.964,0.246
			c-0.085-0.197-0.151-0.37-0.192-0.46c-0.49-1.086-0.57-2.488-0.72-3.654c-0.285-2.215-0.312-4.47-0.25-6.709
			c0.029-1.104,0.607-2.163,1.28-2.157c0.451,0.004,0.852,0.117,1.076,0.455c0.151,0.227,0.249,0.502,0.314,0.799
			c0.104,0.465-0.479,1.429-1.221,2.139s-1.341,1.646-1.329,2.094c0.011,0.446,0.646,0.17,1.412-0.617
			c0.765-0.785,1.494-0.533,1.579,0.567c0.021,0.26,0.038,0.521,0.055,0.78c0.064,1.102-0.533,2.587-1.259,3.312
			c-0.728,0.727-1.296,1.438-1.271,1.59C46.995,35.121,47.585,34.715,48.281,34.064z"/>
		<path d="M50.672,14.11c-0.396,0.059-0.862-0.01-1.183-0.007c-0.226,0.002-0.463,0.055-0.574,0.084
			c-1.438,0.387-2.679,1.317-2.696,2.91c-0.017,1.535,1.63,2.379,2.961,2.456c1.313,0.076,2.741-0.514,3.096-1.874
			c0.308-1.177-0.154-2.54-0.916-3.444C51.239,14.092,50.97,14.065,50.672,14.11z M50.318,18.099
			c-0.021,0.085-0.052,0.167-0.089,0.245c-0.062,0.13-0.747,0.191-1.301-0.245c-0.332-0.26-0.584-0.615-0.711-1.038
			c-0.22-0.733,0.104-1.845,0.914-2.062c0.048-0.013,0.119-0.034,0.2-0.063c0.108-0.039,0.197-0.056,0.203-0.03
			c0.003,0.015,0.007,0.03,0.02,0.044c0.497,0.59,0.75,1.319,0.845,2.078C50.443,17.391,50.411,17.748,50.318,18.099z"/>
		<path d="M13.203,38.64c1.482-1.312,2.349-2.929,3.239-4.678c0.097-0.19,2.421-4.36,2.889-2.889
			c0.363,1.141,0.434,2.403,1.024,3.471c1.203,2.178,4.213,7.312,7.445,4.701c3.251-2.627,4.038-7.376,4.798-11.259
			c0.547-2.793,1.193-5.916,1.142-8.908c-0.02-1.104-0.14-2.005-0.125-2.021c0.015-0.015-0.008-0.229-0.065-0.474
			c-0.036-0.151-0.077-0.297-0.123-0.438c-0.058-0.164-0.08-0.352-0.127-0.532c-0.607-2.334-3.393-2.69-5.117-1.332
			c-2.442,1.925-2.479,5.446-3,8.658c-0.177,1.091-0.601,1.08-0.82-0.003c-0.573-2.839-1.212-5.731-3.048-7.798
			c-2.034-2.29-4.629,0.42-5.549,2.182c-0.546,1.046-0.926,2.187-1.434,3.254c-1.223,2.571-3.427-1.982-3.66-2.407
			c-0.886-1.613-1.867-3.965-3.629-4.841c-3.213-1.597-7.213-1.417-7.036,2.921c0,0.015,0.005,0.027,0.01,0.039
			c0.009,0.02,0.011,0.063,0.006,0.097c-0.002,0.02-0.004,0.04,0,0.061C0.518,18.828,6.767,44.35,13.203,38.64z M8.114,17.599
			c0.101,0.182,0.201,0.362,0.301,0.538c0.767,1.351,1.413,3.063,2.592,4.125c1.306,1.175,2.676,1.182,4.068,0.15
			c0.833-0.618,1.78-3.515,2.852-5.104c0.618-0.915,1.124-0.574,0.577-0.036c-0.546,0.538-1.124,1.284-1.286,1.67
			c-0.162,0.386-0.13,0.994,0.082,1.35c0.212,0.357,1.022-0.003,1.794-0.792c0.081-0.083,0.162-0.165,0.242-0.248
			c0.773-0.789,1.425-1.38,1.456-1.322c0.031,0.058-0.569,0.749-1.337,1.543c-0.076,0.078-0.15,0.155-0.223,0.23
			c-0.768,0.793-0.748,0.816,0.029,0.03c0.069-0.07,0.14-0.142,0.213-0.216c0.776-0.787,1.558-1.108,1.724-0.704
			c0.167,0.404-0.31,1.348-1.035,2.097c-0.725,0.748-1.094,1.553-0.762,1.68c0.205,0.078,0.415,0.108,0.632,0.079
			c0.437-0.027,0.806-0.249,1.132-0.597c0.496-0.529,0.952-0.215,1.171,0.867c0.345,1.705,0.639,3.423,1.157,4.975
			c0.243,0.729,1.402,0.58,1.783,0.059c1.501-2.056,1.873-4.203,2.257-6.678c0.057-0.378,0.117-0.754,0.182-1.13
			c0.108-0.623,0.404-1.956,0.787-2.992c0.632-1.714,1.708-3.612,2.863-1.04c0.112,0.252,0.197,0.521,0.261,0.8
			c0.102,0.454-0.448,1.386-1.157,2.067c-0.709,0.682-1.215,1.47-1.134,1.765c0.081,0.295,0.66,0.005,1.297-0.649
			c0.637-0.653,1.142-0.707,1.101-0.121c-0.025,0.366-0.056,0.723-0.08,1.06c-0.043,0.606-0.104,1.212-0.177,1.818
			c-0.12,1.003-0.417,1.98-0.625,2.187c-0.208,0.207-0.335,0.547-0.284,0.759c0.053,0.213,0.184,0.302,0.292,0.2
			c0.109-0.103,0.05,0.697-0.162,1.781c-0.176,0.906-0.365,1.809-0.561,2.701c-0.518,2.378-1.271,4.775-2.637,6.813
			c-0.488,0.729-1.014,0.979-1.543,0.912c-1.038-0.133-0.908-1.604-0.096-2.354c0.163-0.149,0.325-0.3,0.488-0.449
			c0.812-0.749,1.299-1.786,1.143-2.332c-0.157-0.546-0.914-0.387-1.723,0.365c-0.334,0.312-0.669,0.622-1.004,0.934
			c-0.809,0.753-1.705,0.979-1.969,0.489c-0.265-0.489,0.198-1.509,1.006-2.263c0.45-0.421,0.901-0.841,1.352-1.262
			c0.807-0.755,1.413-1.47,1.33-1.583S25.675,30.218,24.894,31c-0.308,0.308-0.625,0.625-0.951,0.951
			c-0.781,0.781-1.469,1.525-1.537,1.662c-0.068,0.137-0.242-0.002-0.375-0.313c-0.101-0.235-0.178-0.432-0.227-0.569
			c-0.51-1.437-0.358-3.946-2.311-4.229c-1.665-0.24-3.265,2.044-3.919,3.274c-0.206,0.386-0.54,1.169-0.974,2.035
			c-0.495,0.986-1.387,2.143-1.884,2.637c-0.497,0.495-1.413,1.166-2.013,0.973c-0.305-0.099-0.616-0.303-0.933-0.638
			c-0.083-0.088-0.164-0.18-0.241-0.274c-0.128-0.154,0.285-0.793,0.91-1.415c0.377-0.376,0.753-0.751,1.132-1.127
			c0.168-0.184,0.336-0.367,0.504-0.551c0.278-0.306-0.141,0.071-0.936,0.838c-0.161,0.155-0.319,0.309-0.474,0.457
			c-0.794,0.768-1.625,1.126-1.82,0.783c-0.195-0.342,0.307-1.262,1.093-2.037c0.392-0.387,0.784-0.773,1.176-1.16
			c0.787-0.774,1.294-1.742,1.131-2.158s-0.92-0.108-1.69,0.685c-0.405,0.418-0.81,0.837-1.216,1.255
			c-0.769,0.794-1.547,1.017-1.729,0.496c-0.183-0.521,0.293-1.584,1.062-2.376c0.389-0.401,0.776-0.799,1.16-1.194
			c0.769-0.792,1.193-1.939,0.95-2.564c-0.243-0.626-1.074-0.505-1.861,0.271c-0.374,0.368-0.747,0.736-1.122,1.106
			c-0.786,0.774-1.711,0.656-2.068-0.266c-0.357-0.923,0.008-2.285,0.81-3.044c0.39-0.369,0.779-0.739,1.168-1.109
			c0.8-0.762,1.391-1.551,1.326-1.76s-0.749,0.259-1.526,1.043c-0.408,0.412-0.815,0.824-1.223,1.235
			c-0.777,0.785-1.652,0.779-1.945-0.019c-0.292-0.797,0.107-2.089,0.878-2.879c0.473-0.484,0.945-0.968,1.417-1.451
			c0.772-0.79,1.342-1.667,1.281-1.964C7.86,17.303,7.949,17.301,8.114,17.599z M4.64,19.231c0.44-0.434,0.904-0.889,1.383-1.357
			c0.79-0.772,0.805-0.757,0.02,0.02c-0.448,0.443-0.91,0.895-1.384,1.356C3.868,20.022,3.854,20.007,4.64,19.231z M4.711,16.279
			c0.792-0.77,1.605-1.25,1.794-1.047c0.107,0.116,0.213,0.244,0.318,0.387c0.113,0.127,0.219,0.262,0.321,0.401
			c0.167,0.229-0.353,1.048-1.145,1.818c-0.451,0.438-0.907,0.881-1.368,1.329c-0.792,0.769-1.591,0.91-1.77,0.308
			c-0.178-0.602,0.332-1.72,1.123-2.49C4.227,16.751,4.469,16.516,4.711,16.279z M3.094,14.974c0.681-0.543,0.874-0.139,0.219,0.511
			c-0.656,0.65-1.216,1.052-1.253,0.896C2.022,16.228,2.414,15.518,3.094,14.974z"/>
	</g>
</g>
<g>
</g>
<g>
</g>
<g>
</g>
<g>
</g>
<g>
</g>
<g>
</g>
<g>
</g>
<g>
</g>
<g>
</g>
<g>
</g>
<g>
</g>
<g>
</g>
<g>
</g>
<g>
</g>
<g>
</g>
</svg>
