<?xml version="1.0" encoding="iso-8859-1"?>
<!-- Generator: Adobe Illustrator 16.0.0, SVG Export Plug-In . SVG Version: 6.00 Build 0)  -->
<!DOCTYPE svg PUBLIC "-//W3C//DTD SVG 1.1//EN" "http://www.w3.org/Graphics/SVG/1.1/DTD/svg11.dtd">
<svg version="1.1" id="Capa_1" xmlns="http://www.w3.org/2000/svg" xmlns:xlink="http://www.w3.org/1999/xlink" x="0px" y="0px"
	 width="50.241px" height="50.24px" viewBox="0 0 50.241 50.24" style="enable-background:new 0 0 50.241 50.24;"
	 xml:space="preserve">
<g>
	<g>
		<path d="M15.478,6.712C13.008,12.517,14.7,18.376,19.604,21.4c0.015,0.167,0.078,0.305,0.21,0.388
			c0.148,0.094,0.356,0.106,0.59,0.065c0.219,0.113,0.437,0.229,0.667,0.331c-0.104,0.116-0.178,0.201-0.172,0.205
			c0.007,0.004,0.093-0.076,0.208-0.187c0.435,0.192,0.885,0.368,1.357,0.521c0.219,0.07,0.441,0.129,0.664,0.19
			c0.059,0.174,0.177,0.319,0.409,0.383c0.318,0.086,0.702,0.056,1.061-0.05c4.792,0.829,9.896-0.615,11.833-5.529
			c2.62-6.642-2.896-13.659-8.477-16.507C24.131-2.449,17.05,3.012,15.478,6.712z M34.852,12.855
			c1.225,6.121-3.126,10.173-9.13,9.289c0.003-0.261-0.116-0.512-0.367-0.693c-0.407-0.292-1.074-0.179-1.627,0.252
			c-0.539-0.164-1.049-0.363-1.537-0.588c0.019-0.02,0.035-0.035,0.054-0.055c0.723-0.744,1.299-1.361,1.284-1.38
			c-0.015-0.018-0.617,0.577-1.347,1.328c-0.024,0.025-0.045,0.047-0.069,0.071c-0.061-0.028-0.127-0.053-0.188-0.083
			c0.037-0.034,0.076-0.066,0.112-0.102c0.753-0.76,1.101-1.716,0.825-2.171c-0.275-0.455-1.098-0.22-1.885,0.555
			c-0.182,0.178-0.362,0.355-0.544,0.533c-0.058,0.057-0.106,0.115-0.159,0.173c-0.899-0.673-1.665-1.481-2.279-2.414
			c0.083-0.077,0.167-0.157,0.252-0.242c0.573-0.577,1.147-1.153,1.722-1.731c0.611-0.615,1.109-1.3,1.289-1.73
			c0.184,0.494,0.488,0.968,0.942,1.387c1.381,1.458,3.563,2.01,5.071,0.354c0.428-0.469,0.697-1.056,0.852-1.683
			c0.266,0.296,0.967,0.095,1.583-0.538c0.396-0.407,0.785-0.808,1.169-1.202c0.77-0.792,1.348-1.527,1.289-1.643
			c-0.06-0.116-0.515-0.267-1.012-0.209c-0.497,0.059-1.33,0.624-1.886,1.136c-0.343,0.315-0.746,0.795-1.002,1.279
			c0-0.935-0.238-1.872-0.694-2.614c-0.197-0.321-0.375-0.635-0.544-0.973c-0.22-0.44-0.762-0.376-1.19-0.379
			c-1.162-0.008-2.41,0.406-3.316,1.141c-1.165,0.944-1.659,2.284-1.374,3.542c-0.244,0.052-0.703,0.383-1.239,0.92
			c-0.703,0.704-1.406,1.408-2.108,2.113c-0.095,0.095-0.185,0.19-0.272,0.285c-0.497-0.937-0.852-1.986-1.065-3.126
			c0.121-0.099,0.245-0.207,0.374-0.336c1.384-1.392,2.76-2.771,4.132-4.146c0.78-0.781,1.759-2.249,2.375-3.166
			c0.59-0.879,1.305-1.662,2.136-2.309c0.872-0.678,1.69-1.048,1.676-1.055c-0.009-0.005-0.088-0.082-0.186-0.177
			C31.015,4.703,33.929,8.236,34.852,12.855z M23.804,10.494c0.645-0.584,1.336-0.643,1.523-0.683
			c0.002,0.152,0.282,0.768,0.619,1.607c0.245,0.613,0.401,1.253,0.359,2.003c-0.038,0.682-0.24,1.468-0.709,1.983
			c-0.201,0.222-0.095,0.161-0.45,0.013c-0.459-0.192-0.818-0.574-1.152-0.928C22.746,13.339,22.753,11.443,23.804,10.494z
			 M26.234,2.033c0.033,0.033,0.075,0.065,0.135,0.095c0.098,0.049,0.186,0.109,0.28,0.16c-0.31,0.043-0.944,0.472-1.591,1.1
			c-2.859,2.78-5.597,5.457-8.341,8.146c-0.161,0.158-0.313,0.327-0.458,0.5c-0.059-1.077,0.069-2.159,0.339-3.21
			c0.01-0.01,0.021-0.019,0.03-0.029l5.904-5.541c0.805-0.756,0.554-1.296-0.492-0.941c-1.191,0.404-2.229,1.054-3.121,1.862
			C20.754,2.14,24.228,0.03,26.234,2.033z"/>
		<path d="M12.854,25.198c-2.376,0.128-4.837,3.15-3.518,5.454c0.793,1.383,1.998,2.27,3.41,2.993
			c0.564,0.289,1.665,0.652,2.713,1.074c-0.043,0.141-0.049,0.255,0.036,0.293c0.236,0.107,0.46,0.162,0.498,0.126
			c0.022-0.021,0.045-0.043,0.067-0.064c0.023-0.023,0.046-0.047,0.068-0.068c1.356,0.607,2.381,1.317,1.586,2.095
			c-3.072,3.001-7.564,7.413-4.614,11.83c1.718,2.573,4.814,0.815,6.497-0.689c1.572-1.405,2.812-3.146,4.361-4.576
			c2.425-2.24,5.467,3.021,6.883,4.465c1.973,2.012,4.119,1.41,5.922-0.396c3.19-3.196-1.286-7.763-3.527-11.064
			c-0.354-0.523-0.679-0.942-0.932-1.16c0.265-0.059,0.621-0.174,1.042-0.353c3.567-1.523,9.052-4.624,7.724-8.131
			c-2.743-7.243-13.359,5.346-15.01,3.077c-0.081-0.11-0.192-0.185-0.319-0.232c-0.004-0.002-0.006-0.004-0.01-0.006
			C21.638,27.979,17.557,24.944,12.854,25.198z M16.07,27.177c1.1,0.33,2.152,0.854,3.191,1.334
			c1.745,0.809,3.412,1.778,5.154,2.596c1.814,2.211,5.01-0.235,6.759-1.415c0.729-0.49,1.445-0.987,2.176-1.467
			c0.924-0.605,2.48-1.79,3.568-1.602c0.394,0.066,0.771,0.264,1.134,0.588c0.822,0.737,0.919,2.14,0.456,2.691
			c-0.277,0.33-0.592,0.631-0.943,0.898c-1.778,1.597-4.186,2.912-6.454,3.69c-0.35,0.119-0.96,0.474-0.779,0.951
			c0.668,1.785,1.772,3.235,2.917,4.749c0.897,1.189,1.68,2.339,2.285,3.719c0.339,0.771,0.268,1.551-0.041,2.179
			c-0.008-0.01-0.01-0.023-0.018-0.032c-0.337-0.398-1.279-0.103-2.089,0.649c-0.141,0.131-0.282,0.262-0.423,0.393
			c-0.049,0.046-0.091,0.094-0.137,0.142c-0.264-0.113-0.523-0.287-0.771-0.539c-0.249-0.253-0.496-0.54-0.746-0.843
			c0.104-0.09,0.207-0.185,0.314-0.283c0.087-0.081,0.174-0.162,0.26-0.242c0.807-0.755,1.325-1.465,1.148-1.568
			c-0.178-0.103-0.963,0.456-1.744,1.236c-0.026,0.024-0.053,0.052-0.078,0.077c-0.103,0.101-0.198,0.2-0.291,0.3
			c-1.387-1.732-2.903-3.768-5.153-3.814c-2.826-0.059-4.63,2.669-6.339,4.566c-1.501,1.666-2.867,2.115-3.817,1.789
			c1.109-1.093,2.218-2.187,3.325-3.279c0.786-0.774,1.909-2.161,2.604-3.019c0.926-1.144,1.962-2.208,2.851-3.087
			c0.785-0.776,1.175-1.59,0.838-1.786s-1.245,0.305-2.015,1.097c-2.876,2.962-5.742,5.927-8.613,8.892
			c-0.029,0.029-0.056,0.06-0.084,0.089c-0.278-0.671-0.309-1.576-0.02-2.611c0.032-0.03,0.061-0.053,0.095-0.088
			c2.476-2.544,4.804-4.932,6.913-7.085c0.772-0.789,0.958-1.622,0.415-1.862c-0.446-0.197-1.104-0.065-1.626,0.275
			c-0.967-0.604-2.024-1.085-3.096-1.545c0.412-0.472,0.613-0.915,0.441-1.052c-0.176-0.139-0.727,0.163-1.287,0.684
			c-0.954-0.413-1.895-0.845-2.764-1.377c0.063-0.061,0.129-0.117,0.191-0.182c0.306-0.309,0.611-0.618,0.917-0.928
			c0.776-0.786,1.468-1.803,1.653-2.233c0.104-0.239,0.237-0.486,0.409-0.744c0.057-0.076,0.119-0.145,0.184-0.207
			c0.109-0.107,0.042-0.249-0.159-0.319c-0.201-0.071-1.01,0.496-1.805,1.264c-0.65,0.629-1.446,1.398-2.365,2.288
			c-0.077,0.074-0.147,0.149-0.215,0.226c-0.02-0.017-0.035-0.036-0.055-0.053c0.067-0.064,0.141-0.136,0.227-0.22
			c0.852-0.829,1.646-1.602,2.332-2.265c0.794-0.769,1.423-1.394,1.402-1.398c-0.021-0.006-0.679,0.615-1.467,1.39
			c-0.756,0.74-1.518,1.491-2.287,2.256c-0.085,0.085-0.156,0.155-0.223,0.223c-0.304-0.257-0.597-0.53-0.864-0.837
			c-0.258-0.295-0.42-0.561-0.539-0.813c0.173-0.099,0.358-0.235,0.548-0.421c0.308-0.3,0.617-0.601,0.927-0.902
			c0.435-0.424,0.571-0.833,0.463-1.069C14.022,26.951,15.36,26.964,16.07,27.177z"/>
		<path d="M30.653,14.537c-0.771,0.791-1.081,1.797-0.594,2.112c0.487,0.316,1.471-0.178,2.086-0.867
			c0.614-0.689,1.2-1.795,1.128-2.465c-0.071-0.67-0.902-0.542-1.675,0.249C31.285,13.891,30.969,14.214,30.653,14.537z"/>
		<path d="M21.792,37.167c0.774-0.788,1.388-1.435,1.37-1.441c-0.017-0.008-0.654,0.628-1.423,1.422
			C18.808,40.173,17.542,41.492,21.792,37.167z"/>
		<path d="M30.574,31.214c0.344,0.166,0.697,0.445,0.838,0.598c0.14,0.152,0.926-0.391,1.712-1.167
			c0.483-0.479,0.97-0.958,1.455-1.437c0.367-0.407,0.729-0.812,1.09-1.218c0.6-0.676,0.198-1.052-0.792-0.562
			c-0.754,0.374-1.542,0.863-2.332,1.388c-0.92,0.611-1.861,1.345-2.12,1.609C30.166,30.691,30.229,31.048,30.574,31.214z"/>
	</g>
</g>
<g>
</g>
<g>
</g>
<g>
</g>
<g>
</g>
<g>
</g>
<g>
</g>
<g>
</g>
<g>
</g>
<g>
</g>
<g>
</g>
<g>
</g>
<g>
</g>
<g>
</g>
<g>
</g>
<g>
</g>
</svg>
