<?xml version="1.0" encoding="iso-8859-1"?>
<!-- Generator: Adobe Illustrator 16.0.0, SVG Export Plug-In . SVG Version: 6.00 Build 0)  -->
<!DOCTYPE svg PUBLIC "-//W3C//DTD SVG 1.1//EN" "http://www.w3.org/Graphics/SVG/1.1/DTD/svg11.dtd">
<svg version="1.1" id="Capa_1" xmlns="http://www.w3.org/2000/svg" xmlns:xlink="http://www.w3.org/1999/xlink" x="0px" y="0px"
	 width="43.623px" height="43.623px" viewBox="0 0 43.623 43.623" style="enable-background:new 0 0 43.623 43.623;"
	 xml:space="preserve">
<g>
	<g>
		<path d="M16.644,11.082C8.272,11.65,2.232,19.834,1.016,27.847c-0.873,5.749,1.808,11.85,7.058,14.378
			c5.167,2.488,13.605,1.074,18.999,0.189c0.355-0.059,1.099-0.234,1.125-0.691c0.295-5.258-0.058-10.501-0.191-15.758
			c-0.042-1.678,0.031-3.341,0.232-4.998c0.134-1.097,1.207-2.206,2.295-2.012c0.587,0.105,1.007,0.341,1.26,0.708
			c0.627,0.909,0.194,2.833,0.16,3.936c-0.032,1.069-0.083,2.138-0.058,3.209c0.013,0.544,1.544-0.053,1.72-0.175
			c3.107-2.146,7.418-4.989,8.962-8.573c1.399-3.25-5.224-8.645-6.934-10.627c-0.291-0.337-1.509,0.026-1.789,0.415
			c-0.023,0.028-0.061,0.053-0.074,0.084c-0.482,1.016-0.676,1.931-0.885,3.032c-0.322,1.698-4.394,1.519-4.329-0.788
			c0.093-3.353-0.141-6.66-0.785-9.95c-0.097-0.494-1.321-0.041-1.54,0.064c-1.478,0.708-2.885,1.52-4.34,2.243
			c-0.989,0.491-2.236,0.811-2.706,0.982c-0.35,0.127-0.636,0.325-0.644,0.565c-0.055,1.678-0.047,3.342,0.006,5.011
			C18.591,10.196,17.745,11.006,16.644,11.082z M7.745,16.489c0.37-0.406,0.758-0.792,1.161-1.153
			c0.822-0.738,0.935-0.606,0.148,0.169c-0.382,0.375-0.764,0.752-1.147,1.13C7.121,17.409,7,17.305,7.745,16.489z M3.484,24.198
			c0.202-0.703,1.032-1.904,1.802-2.698c2.714-2.797,5.259-5.411,7.484-7.686c0.772-0.79,1.467-1.448,1.551-1.472
			s-0.472,0.603-1.239,1.396c-1.553,1.604-2.095,2.173,0.066-0.025c0.774-0.787,1.766-1.516,2.222-1.586
			c0.457-0.07,0.207,0.547-0.562,1.339c-3.425,3.524-6.842,7.051-10.254,10.581C3.787,24.841,3.282,24.902,3.484,24.198z
			 M21.918,4.717c0.323-0.333,0.642-0.66,0.954-0.981c0.771-0.792,1.774-1.637,2.243-1.884s0.869-0.331,0.893-0.19
			c0.025,0.141-0.581,0.896-1.352,1.687c-0.905,0.929-1.812,1.857-2.715,2.786c-0.771,0.792-1.4,1.116-1.407,0.724
			C20.528,6.467,21.148,5.508,21.918,4.717z M21.245,5.299c-0.393,0.424-0.723,0.745-0.724,0.73c0-0.015,0.022-0.049,0.05-0.076
			c0.018-0.017,0.036-0.034,0.052-0.049C21.245,5.279,21.405,5.125,21.245,5.299z M20.777,3.961c0.165-0.067,0.163,0-0.003,0.152
			c-0.165,0.152-0.299,0.207-0.299,0.121C20.477,4.149,20.612,4.028,20.777,3.961z M19.011,12.193
			c0.398,0.075,1.586-0.154,1.578-0.708c0-0.025-0.001-0.051-0.001-0.077c0-0.042,0.004-0.092,0.013-0.11
			c0.005-0.01,0.01-0.021,0.01-0.033c-0.005-0.288-0.01-0.576-0.015-0.863c-0.008-0.477,0.366-1.24,0.836-1.703
			c0.283-0.28,0.567-0.56,0.851-0.838c0.529-0.585,1.049-1.168,1.568-1.752c0.733-0.826,1.335-1.666,1.341-1.878
			s0.015-0.337,0.016-0.28c0.001,0.057,0.149,0.066,0.33,0.008s0.417-0.209,0.528-0.333c0.109-0.124,0.313,0.664,0.397,1.765
			c0.182,2.333,0.188,4.673,0.121,7.046c-0.004,0.135,0.277,0.184,0.354,0.191c1.946,0.167,4.362,0.778,6.274,0.039
			c0.65-0.251,1.061-0.721,1.345-1.293c0.469-0.945,0.835-1.541,1.158-1.202c0.235,0.247,0.243,0.643,0.064,1.006
			c-0.156,0.153-0.312,0.306-0.467,0.457c-0.392,0.382-0.695,0.693-0.681,0.694c0.016,0.001,0.373-0.338,0.798-0.762
			c0.112-0.112,0.202-0.203,0.289-0.291c-0.061,0.1-0.126,0.198-0.216,0.286c-0.44,0.427-0.725,0.782-0.634,0.792
			c0.091,0.009,0.479-0.285,0.868-0.657c0.237-0.228,0.473-0.454,0.702-0.674c0.007-0.007,0.014-0.014,0.021-0.021
			c0.013-0.012,0.212,0.18,0.443,0.431c0.23,0.251,0.271,0.597,0.093,0.77c-0.178,0.172-0.23,0.317-0.116,0.321
			s0.308-0.082,0.431-0.191c0.124-0.108,0.829,0.467,1.479,1.361c0.877,1.208,1.573,2.505,1.894,3.957
			c0.296,1.343-0.903,2.917-2.522,4.387c-0.817,0.741-1.089,0.828-0.536,0.271c0.552-0.558,1.002-1.175,0.999-1.378
			c-0.003-0.204-0.164-0.199-0.356,0.009c-0.117,0.125-0.233,0.251-0.353,0.375c-0.621,0.659-1.231,1.308-1.836,1.946
			c-0.758,0.804-1.571,1.593-1.815,1.761c-0.246,0.168-0.447-0.136-0.441-0.677s0.626-1.636,1.379-2.443
			c0.621-0.667,1.239-1.33,1.854-1.988c0.753-0.808,1.347-1.558,1.327-1.675c-0.019-0.117-0.286-0.18-0.594-0.156
			c-0.307,0.024-1.189,0.666-1.974,1.444c-0.183,0.18-0.362,0.359-0.544,0.54c-0.783,0.778-1.41,0.57-1.47-0.461
			c-0.034-0.62-0.093-1.24-0.184-1.861c-0.029-0.203-0.434-0.207-0.564-0.197c-3.819,0.283-6.184-0.116-6.77,3.822
			c-0.075,0.505-0.135,1.012-0.182,1.52c-0.079,0.841-0.783,2.119-1.604,2.857c-0.515,0.463-1.016,0.917-1.499,1.355
			c-0.816,0.744-1.531,0.671-1.591-0.164c-0.06-0.835,0.549-2.127,1.351-2.886c0.514-0.486,1.023-0.968,1.524-1.443
			c0.802-0.759,1.446-1.424,1.44-1.484c-0.007-0.06-0.651,0.517-1.441,1.29c-0.521,0.508-1.037,1.014-1.553,1.519
			c-0.79,0.772-1.478,0.629-1.54-0.318s0.277-2.082,0.765-2.534c0.487-0.452,0.458-0.734-0.054-0.589
			c-0.513,0.146-0.941,0.013-0.969-0.329c-0.016-0.206-0.033-0.413-0.053-0.619c-0.025-0.272-0.662-0.201-0.807-0.174
			c-4.305,0.812-9.024,1.501-10.906,6.062c-1.742,4.222,1.462,9.741,5.419,11.841c0.976,0.519,1.917,0.744,1.993,0.758
			c0.038,0.008,0.084,0.014,0.139,0.016c0.834,0.041,1.593-0.032,2.256-0.243c1.053-0.334,1.77-0.996,1.889-0.92
			c0.119,0.076,0.833-0.527,1.588-1.333c0.74-0.792,1.479-1.582,2.22-2.373c0.755-0.807,1.39-1.004,1.417-0.441
			c0.029,0.564-0.565,1.669-1.327,2.471c-0.266,0.278-0.528,0.556-0.792,0.832c-0.762,0.8-0.75,0.812,0.027,0.026
			c0.248-0.25,0.496-0.501,0.744-0.752c0.777-0.785,1.424-1.103,1.44-0.711c0.019,0.393-0.484,1.231-1.125,1.875
			c-0.639,0.645-0.302,1.163,0.364,0.504c0.667-0.658,0.847-0.58,0.876,0.524c0.021,0.737,0.031,1.474,0.028,2.208
			c-0.004,1.104-0.931,2.136-2.027,2.268c-2.034,0.246-4.148,0.408-6.25,0.428c-1.105,0.012-1.983-0.044-1.961-0.064
			c0.02-0.022-0.531-0.162-1.205-0.398c-0.675-0.235-1.354-0.352-1.561-0.155c-0.207,0.195-0.819,0.3-1.364,0.21
			c-0.545-0.09-0.696-0.479-0.342-0.848c0.354-0.366,0.333-0.373-0.041-0.009c-0.373,0.364-0.689,0.659-0.712,0.655
			c-0.014-0.002-0.026-0.004-0.04-0.007c-0.206-0.044-0.406-0.097-0.601-0.156c-0.328-0.101-0.201-0.59,0.274-1.067
			c0.476-0.477,0.648-1.074,0.41-1.354c-0.239-0.281-0.918-0.062-1.534,0.506c-0.616,0.567-1.721,0.662-2.354,0.073
			c-0.633-0.588-0.423-1.795,0.353-2.582c0.017-0.018,0.034-0.034,0.051-0.053c0.775-0.786,1.384-1.468,1.357-1.521
			c-0.016-0.032-0.031-0.065-0.044-0.1c-0.019-0.049-0.034-0.097-0.05-0.145c-0.026-0.079-0.706,0.464-1.521,1.209
			c-0.044,0.041-0.088,0.081-0.132,0.121C6.211,37.47,5.363,37.8,5.156,37.449c-0.208-0.35,0.309-1.241,1.13-1.98
			c0.131-0.118,0.263-0.237,0.395-0.355c0.82-0.739,1.4-1.64,1.314-2.009c-0.087-0.37-0.797-0.062-1.604,0.692
			c-0.211,0.197-0.422,0.393-0.632,0.59c-0.808,0.753-1.805,0.587-2.124-0.41c-0.319-0.997,0.147-2.439,0.952-3.197
			c0.633-0.594,1.27-1.191,1.916-1.797c0.193-0.2,0.385-0.396,0.577-0.595c0.319-0.328,0.615-0.995,0.69-1.486
			c0.075-0.492-0.297-0.431-0.862,0.13c-0.344,0.343-0.686,0.683-1.022,1.018c-0.523,0.563-1.049,1.125-1.576,1.685
			c-0.757,0.806-1.468,0.884-1.511,0.171C2.756,29.192,3.413,27.98,4.195,27.2c1.19-1.186,2.383-2.371,3.582-3.558
			c0.117-0.128,0.234-0.257,0.352-0.385c0.194-0.212-0.293,0.238-1.088,1.005c-0.138,0.133-0.271,0.262-0.399,0.386
			c-0.795,0.768-1.989,1.921-2.654,2.591c-0.665,0.669-1.192,0.881-1.158,0.471c0.034-0.411,0.716-1.372,1.502-2.147
			c1.488-1.467,2.976-2.934,4.464-4.401c0.786-0.775,1.541-1.642,1.691-1.931c0.089-0.173,0.181-0.347,0.273-0.521
			c0.494-0.926,2.018-2.571,4.072-4.059c0.896-0.648,2.014-1.432,2.435-1.847c0.421-0.415,0.983-0.731,1.254-0.693
			C18.685,12.136,18.848,12.164,19.011,12.193z M25.915,27.021c-0.001,0.121-0.002,0.243-0.002,0.364
			c-0.002,1.104-0.58,2.614-1.332,3.373c-0.452,0.457-0.905,0.915-1.358,1.375c-0.232,0.234-0.468,0.469-0.703,0.703
			c-0.39,0.387-0.649-0.197-0.728-1.299c-0.002-0.037-0.005-0.074-0.008-0.111c-0.082-1.102,0.341-2.519,0.987-3.165
			c0.386-0.386,0.773-0.775,1.17-1.172c0.338-0.343,0.676-0.689,1.013-1.034C25.512,25.484,25.924,25.918,25.915,27.021z
			 M19.335,35.881c-0.384,1.036-2.26,1.086-3.239,0.576c-2.895-1.508-4.508-4.664-5.192-7.905c-0.991-4.688,2.431-6.664,6.138-7.699
			c1.063-0.297,2.058,0.423,2.19,1.52C19.682,26.095,20.391,33.035,19.335,35.881z"/>
		<path d="M25.058,11.719c0.028,0.005,0.097-0.031,0.151-0.082c0.057-0.051,0.101-0.124,0.1-0.163c0-0.04-0.068-0.003-0.152,0.081
			C25.072,11.641,25.028,11.714,25.058,11.719z"/>
		<path d="M25.331,11.456c-0.001-0.039-0.006-0.039-0.003,0C25.33,11.493,25.333,11.495,25.331,11.456z"/>
		<path d="M25.296,9.311c-0.003-0.19-0.016-0.19-0.013,0S25.299,9.5,25.296,9.311z"/>
		<path d="M24.359,10.618c0.481-0.493,0.864-1.043,0.855-1.228c-0.009-0.186-0.589,0.192-1.258,0.884
			c-0.669,0.691-1.062,1.224-0.851,1.227C23.316,11.503,23.877,11.111,24.359,10.618z"/>
	</g>
</g>
<g>
</g>
<g>
</g>
<g>
</g>
<g>
</g>
<g>
</g>
<g>
</g>
<g>
</g>
<g>
</g>
<g>
</g>
<g>
</g>
<g>
</g>
<g>
</g>
<g>
</g>
<g>
</g>
<g>
</g>
</svg>
