<?xml version="1.0" encoding="iso-8859-1"?>
<!-- Generator: Adobe Illustrator 16.0.0, SVG Export Plug-In . SVG Version: 6.00 Build 0)  -->
<!DOCTYPE svg PUBLIC "-//W3C//DTD SVG 1.1//EN" "http://www.w3.org/Graphics/SVG/1.1/DTD/svg11.dtd">
<svg version="1.1" id="Capa_1" xmlns="http://www.w3.org/2000/svg" xmlns:xlink="http://www.w3.org/1999/xlink" x="0px" y="0px"
	 width="42.642px" height="42.642px" viewBox="0 0 42.642 42.642" style="enable-background:new 0 0 42.642 42.642;"
	 xml:space="preserve">
<g>
	<g>
		<path d="M11.308,34.339c-0.737-0.164-1.53-0.188-2.206,0.164c-2.555,1.336-1.363,4.494,0.334,6.166
			c1.85,1.822,6.194,1.943,8.434,0.928c3.332-1.514,4.774-4.178,5.414-7.717c0.442-2.451,1.353-2.201,3.637-2.404
			c1.799-0.16,3.486-0.52,5.205-1.08c3.486-1.139,6.417-3.389,8.438-6.428c5.702-8.57-1.3-18.388-9.324-21.691
			c-7.909-3.257-18.5-2.185-25.517,2.67C-0.25,9.081-0.91,17.032,0.859,23.532c1.516,5.572,5.154,3.1,8.479,0.754
			c0.044-0.031,0.082-0.061,0.115-0.09c0.061-0.055,0.124-0.115,0.147-0.137c0.015-0.014,0.027-0.025,0.039-0.039
			c1.408-1.67,1-2.774,0.287-4.789c-1.334-3.767,0.18-7.353,3.379-9.488c5.638-3.763,16.08-1.855,19.11,4.369
			c2.055,4.221-0.105,9.449-4.976,10.264c-2.477,0.412-4.726-0.607-4.726-3.288c0-1.564,1.054-8.053-1.179-8.817
			c-2.492-0.854-5.671-0.898-7.539,1.133c-0.766,0.833-0.46,2.607-0.457,3.596c0.007,3.093,0.024,6.186,0.061,9.276
			C13.62,28.056,14.794,35.116,11.308,34.339z M9.655,36.868c-0.029-0.117-0.054-0.236-0.07-0.361
			c-0.056-0.418,0.348-0.637,0.904-0.756c0.539-0.117,0.661,0.178,0.257,0.553c-0.087,0.08-0.174,0.162-0.261,0.242
			C10.079,36.921,9.702,37.067,9.655,36.868z M4.24,8.753c1.059-1.55,2.443-2.842,4.076-3.884C8.782,4.572,8.851,4.667,8.453,5.05
			C7.178,6.272,5.835,7.562,4.431,8.908C4.032,9.291,3.928,9.209,4.24,8.753z M2.461,12.628c0.185-0.684,0.417-1.335,0.695-1.953
			c0.227-0.504,0.77-1.205,1.168-1.588C5.816,7.655,7.263,6.27,8.667,4.924c0.399-0.382,1.115-0.906,1.615-1.14
			c0.644-0.302,1.316-0.57,2.011-0.81c0.521-0.18,0.634,0.011,0.242,0.4c-3.201,3.181-6.407,6.363-9.591,9.523
			C2.552,13.288,2.318,13.161,2.461,12.628z M15.986,14.847c0.411-0.733,1.029-1.433,1.697-1.842
			c0.472-0.288,0.617-0.033,0.232,0.362c-0.543,0.56-1.085,1.119-1.627,1.678C15.905,15.442,15.716,15.33,15.986,14.847z
			 M15.38,32.966c0.146-0.531,0.504-1.299,0.892-1.691c0.058-0.059,0.115-0.115,0.173-0.176c0.388-0.393,0.372-0.406-0.034-0.031
			c-0.028,0.023-0.056,0.051-0.084,0.074c-0.406,0.375-0.69,0.252-0.678-0.275c0.012-0.527,0.326-1.258,0.733-1.631
			c0.826-0.76,1.652-1.518,2.477-2.277c0.406-0.373,0.729-1.064,0.724-1.545c-0.006-0.479-0.338-0.562-0.743-0.186
			c-0.843,0.781-1.685,1.564-2.527,2.348c-0.405,0.375-0.735,0.598-0.739,0.496c-0.002-0.062-0.004-0.121-0.006-0.184
			c-0.006-0.24-0.01-0.482-0.014-0.725c-0.005-0.402,0.317-1.033,0.721-1.41c0.85-0.793,1.701-1.588,2.553-2.383
			c0.404-0.377,0.729-0.797,0.729-0.941c-0.001-0.142-0.319,0.061-0.71,0.449c-0.771,0.771-1.636,1.635-2.599,2.602
			c-0.391,0.391-0.715,0.26-0.723-0.293c-0.007-0.455-0.013-0.912-0.017-1.369c-0.006-0.553,0.304-1.32,0.688-1.717
			c0.885-0.912,1.766-1.819,2.641-2.719c0.385-0.396,0.696-0.951,0.695-1.241s-0.325-0.216-0.725,0.166
			c-0.329,0.315-0.678,0.649-1.051,1.006c-0.525,0.523-1.042,1.037-1.555,1.548c-0.392,0.39-0.71,0.451-0.713,0.137
			c-0.001-0.188-0.002-0.378-0.003-0.567c-0.004-0.597-0.006-1.194-0.008-1.792c-0.002-0.553,0.316-1.315,0.709-1.704
			c0.97-0.957,1.94-1.914,2.909-2.87c0.393-0.388,0.741-0.75,0.785-0.802c0.043-0.053,0.373,0.221,0.592,0.697
			c0.115,0.253,0.22,0.55,0.309,0.896c0.735,2.866-0.467,6.14,0.268,9.065c0.623,2.484,5.5,1.623,7.111,1.355
			c3.135-0.523,5.344-2.412,6.469-5.334c0.243-0.631,0.413-1.242,0.518-1.833c0.097-0.544,0.45-1.291,0.863-1.657
			c0.602-0.53,1.205-1.065,1.814-1.602c0.413-0.366,0.723-0.74,0.686-0.834c-0.035-0.095-0.386,0.142-0.783,0.525
			c-0.581,0.563-1.163,1.126-1.744,1.688c-0.397,0.385-0.703,0.333-0.738-0.114c-0.035-0.447,0.214-1.114,0.611-1.496
			c0.512-0.489,1.012-0.969,1.492-1.431c0.087-0.084,0.177-0.172,0.27-0.261c0.147-0.145,0.26-0.277,0.248-0.297
			c-0.013-0.021-0.081,0.021-0.156,0.091c-0.075,0.07-0.075,0.069,0-0.003c0.074-0.072,0.113-0.166,0.089-0.21
			c-0.025-0.045-0.368,0.231-0.766,0.615c-0.415,0.403-0.83,0.806-1.245,1.208c-0.396,0.385-0.402,0.378-0.016-0.016
			c0.94-0.953,1.464-1.481,1.156-1.208c-0.392,0.384-0.779,0.762-1.165,1.14c-0.396,0.386-0.818,0.26-1.027-0.251
			c-0.047-0.109-0.095-0.219-0.146-0.326c-0.234-0.5-0.154-1.18,0.25-1.557c0.253-0.235,0.507-0.471,0.76-0.706
			c0.404-0.377,0.523-0.881,0.249-1.105c-0.274-0.226-0.839-0.086-1.243,0.29c-0.18,0.167-0.358,0.334-0.539,0.501
			c-0.404,0.375-0.931,0.452-1.194,0.191c-0.265-0.261-0.164-0.761,0.241-1.136c0.104-0.097,0.209-0.193,0.314-0.292
			c0.405-0.375,0.584-0.762,0.396-0.859c-0.188-0.097-0.518-0.041-0.732,0.146c-0.083,0.073-0.206,0.181-0.388,0.342
			c-0.141,0.134-0.294,0.279-0.457,0.434c-0.253,0.239-0.703,0.245-1.02,0.032c-0.316-0.214-0.283-0.671,0.087-1.04
			c0.37-0.369,0.58-0.699,0.469-0.735c-0.112-0.036-0.485,0.223-0.832,0.576c-0.349,0.352-0.882,0.493-1.202,0.33
			c-0.319-0.164-0.355-0.518-0.073-0.807c0.283-0.288,0.428-0.541,0.325-0.566c-0.104-0.025-0.415,0.175-0.695,0.442
			c-0.28,0.268-0.917,0.307-1.437,0.117C27.383,8.09,26.884,7.93,26.373,7.79c-0.532-0.147-0.923-0.295-0.866-0.358
			c0.057-0.062-0.138-0.111-0.434-0.096c-0.296,0.015-0.978-0.05-1.524-0.125C14.906,6.027,5.148,9.844,8.236,20.35
			c0.156,0.529,0.195,1.384,0.055,1.917c-0.061,0.232-0.123,0.466-0.184,0.697c-0.141,0.535-0.374,1.064-0.521,1.186
			c-0.146,0.117-0.269,0.205-0.275,0.191c-0.007-0.012-0.073,0.041-0.15,0.121s-0.484,0.436-0.951,0.73
			c-0.31,0.195-0.627,0.357-0.937,0.449c-0.53,0.154-0.67-0.334-0.285-0.73c0.385-0.398,0.769-0.793,1.148-1.186
			c0.385-0.395,0.572-1.115,0.449-1.618c-0.123-0.502-0.517-0.602-0.909-0.212c-0.571,0.562-1.144,1.128-1.718,1.695
			c-0.393,0.389-0.896,0.293-1.073-0.229c-0.069-0.203-0.133-0.41-0.191-0.617c-0.151-0.531,0.089-1.277,0.492-1.654
			c0.717-0.669,1.432-1.34,2.144-2.015c0.401-0.38,0.718-0.83,0.714-1.006c-0.004-0.175-0.321,0-0.709,0.393
			c-0.749,0.757-1.498,1.513-2.246,2.269C2.7,21.125,2.3,21.003,2.224,20.457c-0.021-0.146-0.039-0.292-0.057-0.439
			c-0.065-0.548,0.211-1.315,0.597-1.71c0.885-0.908,1.768-1.812,2.648-2.709c0.386-0.395,0.709-0.849,0.717-1.015
			c0.004-0.097,0.009-0.194,0.018-0.298c0.019-0.191,0.045-0.376,0.075-0.56c0.051-0.308-0.226-0.244-0.622,0.141
			c-0.898,0.871-1.878,1.82-2.918,2.829c-0.396,0.384-0.401,0.378-0.008-0.01c0.785-0.776,1.836-1.802,2.938-2.876
			c0.396-0.386,0.391-0.391-0.009-0.009c-0.94,0.898-1.914,1.84-2.922,2.816C2.284,17,1.942,16.866,1.952,16.315
			c0.012-0.551,0.371-1.31,0.767-1.694c1.222-1.188,2.462-2.396,3.732-3.632c0.396-0.386,0.891-1.112,1.148-1.601
			c1.302-2.456,3.369-4.356,5.936-5.723c0.487-0.26,0.932-0.482,0.978-0.527c0.027-0.026,0.055-0.053,0.083-0.08
			c0,0,0.233-0.219,0.521-0.488c0.287-0.271,0.845-0.553,1.247-0.62c0.241-0.041,0.484-0.079,0.729-0.112
			c0.135-0.018,0.271-0.034,0.406-0.049c0.225-0.024,0.34,0.022,0.258,0.102c-0.082,0.08,0.191,0.046,0.614-0.062
			c0.423-0.107,1.214-0.212,1.767-0.224c5.705-0.119,11.458,1.602,15.786,5.373c5.07,4.418,5.856,12.415,2.213,17.894
			c-3.416,5.135-9.189,5.117-14.553,5.52c-2.731,0.205-2.345,4.723-2.943,6.539c-0.94,2.859-3.672,4.115-6.191,3.9
			c-0.551-0.047-0.71-0.438-0.372-0.777c0.339-0.34,0.44-0.822,0.271-1.109c-0.17-0.287-0.603-0.234-1.011,0.139
			c-0.153,0.141-0.309,0.281-0.463,0.424c-0.407,0.373-1.143,0.473-1.568,0.121c-0.355-0.293-0.668-0.635-0.929-1.027
			c-0.307-0.459-0.148-1.201,0.239-1.596c0.23-0.23,0.459-0.465,0.689-0.699c0.388-0.393,0.955-0.721,1.266-0.74
			c0.248-0.016,0.445-0.035,0.556-0.072C14.42,35.046,15.067,34.106,15.38,32.966z"/>
		<path d="M27.32,7.542c0.093-0.09,0.092-0.092-0.001-0.002C27.225,7.629,27.227,7.631,27.32,7.542z"/>
		<path d="M34.964,24.042c1.652-0.695,3.081-1.955,3.722-4.163c0.01-0.027,0.017-0.058,0.023-0.089
			c0.012-0.05-0.297,0.226-0.689,0.614c-1.09,1.08-2.188,2.169-3.291,3.265C34.337,24.06,34.454,24.257,34.964,24.042z"/>
		<path d="M19.402,30.243c-0.143,0.137-0.14,0.139,0.004,0.002C19.549,30.112,19.544,30.108,19.402,30.243z"/>
		<path d="M18.665,34.479c0.023-0.021,0.045-0.045,0.067-0.068c0.377-0.402,0.176-0.555-0.226-0.182
			C18.106,34.604,18.267,34.86,18.665,34.479z"/>
	</g>
</g>
<g>
</g>
<g>
</g>
<g>
</g>
<g>
</g>
<g>
</g>
<g>
</g>
<g>
</g>
<g>
</g>
<g>
</g>
<g>
</g>
<g>
</g>
<g>
</g>
<g>
</g>
<g>
</g>
<g>
</g>
</svg>
