<?xml version="1.0" encoding="iso-8859-1"?>
<!-- Generator: Adobe Illustrator 16.0.0, SVG Export Plug-In . SVG Version: 6.00 Build 0)  -->
<!DOCTYPE svg PUBLIC "-//W3C//DTD SVG 1.1//EN" "http://www.w3.org/Graphics/SVG/1.1/DTD/svg11.dtd">
<svg version="1.1" id="Capa_1" xmlns="http://www.w3.org/2000/svg" xmlns:xlink="http://www.w3.org/1999/xlink" x="0px" y="0px"
	 width="35.688px" height="35.688px" viewBox="0 0 35.688 35.688" style="enable-background:new 0 0 35.688 35.688;"
	 xml:space="preserve">
<g>
	<g>
		<path d="M15.248,23.71c-1.965,0-2.423,1.833-2.423,1.833l-1.471,6.413c-0.399,2.249-2.44,2.138-2.44,2.138s-2.653,0-4.429,0
			c-0.054,0-0.105-0.002-0.155-0.006c-0.087-0.005-0.272,0.648,0.198,1.17c0.224,0.248,0.583,0.43,1.156,0.43
			c1.775,0,4.429,0,4.429,0s2.041,0.115,2.443-2.135l1.468-6.414c0,0,0.458-1.832,2.423-1.832c1.964,0,15.572,0.535,18.589-9.313
			c0.556-1.812,1.022-4.871-0.396-7.464c-0.528-0.969-0.743-0.804-0.491,0.272c0.485,2.084,0.112,4.207-0.315,5.595
			C30.819,24.247,17.215,23.71,15.248,23.71z"/>
		<path d="M30.007,2.495c-4.459-3.433-11.926-2.324-17.204-2.324c-3.301,0-5.597,0.204-6.445,3.867
			C5.064,9.626,3.771,15.214,2.477,20.803c-0.76,3.276-2.827,7.864-2.273,11.274c0.345,2.125,5.157,1.31,6.276,1.31
			c1.999,0,3.195-0.859,3.895-2.727c0.007-0.018,0.008-0.033,0.009-0.049c0.001-0.026,0.014-0.067,0.027-0.09
			c0.009-0.012,0.017-0.026,0.019-0.041c0.485-2.115,0.797-4.364,1.479-6.422c0.549-1.66,6.215-1.25,7.517-1.436
			c5.887-0.838,11.327-3.693,13.43-9.519C34.253,9.22,33.293,5.027,30.007,2.495z M8.459,3.254c0.178-0.767,0.794-1.257,1.654-1.564
			c0.521-0.185,0.646,0.059,0.252,0.446c-0.472,0.463-0.944,0.928-1.42,1.395c-0.393,0.387-0.662,0.481-0.6,0.212
			C8.384,3.58,8.422,3.417,8.459,3.254z M20.234,21.129c-2.923,0.615-6.663-0.271-9.229,1.403c-1.696,1.106-2.008,4.702-2.339,6.991
			C8.587,30.07,8.31,30.941,7.857,31.26c-0.41,0.291-0.955,0.494-1.547,0.617c-0.541,0.113-1.003,0.094-1.018,0.045
			c-0.014-0.047-0.066-0.046-0.121,0.004c-0.056,0.051-0.55,0.114-1.1,0.055c-1.204-0.133-2.133-0.58-1.97-1.285
			c0.021-0.092,0.042-0.184,0.063-0.275c0.035-0.152,0.378-0.593,0.766-0.986c0.951-0.965,1.906-1.933,2.866-2.906
			c0.388-0.393,0.722-0.795,0.745-0.896s-0.285,0.119-0.69,0.494c-0.897,0.831-1.795,1.662-2.692,2.492
			c-0.405,0.375-0.634,0.244-0.509-0.294c0.088-0.38,0.176-0.761,0.264-1.14c0.012-0.051,0.023-0.102,0.035-0.151
			c0.02-0.084,0.365-0.454,0.773-0.827c0.893-0.818,1.783-1.639,2.675-2.457c0.406-0.374,0.837-1.111,0.961-1.65l0.053-0.225
			c0.124-0.538-0.102-0.669-0.507-0.293c-0.9,0.837-1.801,1.675-2.7,2.514c-0.403,0.377-0.631,0.245-0.506-0.293
			C4.06,22.24,4.421,20.68,4.782,19.12c0.124-0.538,0.537-1.297,0.921-1.693c0.972-1.003,1.938-2,2.901-2.991
			c0.385-0.396,0.778-1.07,0.879-1.507s-0.134-0.475-0.525-0.085c-0.96,0.956-1.902,1.893-2.829,2.815
			c-0.392,0.39-0.608,0.27-0.483-0.268C5.823,14.627,6,13.864,6.176,13.1c0.072-0.314,0.146-0.627,0.218-0.94
			c0.12-0.52,0.536-1.254,0.93-1.642c0.936-0.924,1.874-1.849,2.811-2.772c0.393-0.388,0.813-1.138,0.938-1.676l0.119-0.517
			c0.125-0.538-0.086-0.653-0.471-0.257C9.753,6.292,8.789,7.29,7.822,8.286C7.438,8.682,7.226,8.575,7.347,8.047
			c0.123-0.529,0.47-1.209,0.775-1.52c0.173-0.176,0.355-0.362,0.553-0.564c0.903-0.928,1.764-1.812,2.589-2.661
			c0.385-0.396,0.718-0.759,0.746-0.811c0.029-0.052-0.257,0.229-0.642,0.625c-1.008,1.04-2.1,2.165-3.085,3.182
			C7.898,6.695,7.603,6.949,7.623,6.866C7.64,6.783,7.97,6.395,8.356,6.001c1.612-1.642,2.977-3.022,4.011-4.055
			c0.391-0.391,0.733-0.706,0.765-0.708c0.03-0.001-0.008,0.063-0.085,0.143c-0.077,0.08-0.101,0.121-0.05,0.093
			c0.05-0.028,0.134-0.092,0.185-0.145c0.052-0.053,0.542-0.106,1.094-0.094c2.108,0.046,4.213,0.321,5.214,0.321
			c5.633,0,11.964,1.655,12.003,8.266C31.532,16.308,25.973,19.922,20.234,21.129z"/>
		<path d="M26.773,8.209c-0.049-0.044-0.411,0.233-0.807,0.619c-0.215,0.21-0.43,0.42-0.644,0.63
			c-0.395,0.387-0.397,0.383-0.006-0.006c0.216-0.213,0.43-0.424,0.639-0.631c0.395-0.388,0.704-0.709,0.692-0.719
			c-0.013-0.009-0.34,0.296-0.735,0.682c-0.197,0.193-0.395,0.386-0.592,0.579c-0.396,0.386-0.737,0.246-0.906-0.28
			c-0.055-0.171-0.119-0.333-0.192-0.485c-0.24-0.497-0.412-0.96-0.237-1.123c0.176-0.163-0.021-0.342-0.441-0.381
			c-0.42-0.04-1.142-0.302-1.655-0.503c-1.689-0.663-3.847-0.667-5.513-0.462c-3.012,0.37-3.179,3.992-3.71,6.282
			c-0.452,1.862-1.156,3.614,1.077,4.294c1.786,0.544,4.021,0.095,5.771-0.395c2.416-0.675,4.579-2.443,5.023-4.885
			c0.099-0.543,0.405-1.304,0.805-1.685c0.269-0.255,0.532-0.508,0.795-0.759C26.536,8.6,26.822,8.253,26.773,8.209z M20.744,14.318
			c-1.081,0.764-2.566,0.994-3.848,1.136c-0.69,0.076-2.822,0.332-2.769-0.93c0.032-0.755,0.315-1.539,0.492-2.269
			c0.288-1.244,0.453-2.608,0.897-3.804c0.575-1.549,2.777-1.025,4.064-0.882c1.391,0.155,2.509,0.744,2.954,2.117
			C23.095,11.409,22.128,13.34,20.744,14.318z"/>
		<path d="M22.942,15.57c-0.41,0.37-0.661,0.656-0.561,0.636c0.102-0.019,0.497-0.357,0.885-0.752
			c0.258-0.264,0.517-0.527,0.773-0.791c0.387-0.394,0.366-0.415-0.043-0.045C23.644,14.936,23.291,15.254,22.942,15.57z"/>
		<path d="M26.213,10.667c-0.396,0.384-0.385,0.397,0.028,0.03c0.202-0.179,0.404-0.359,0.608-0.54
			c0.412-0.367,0.738-0.692,0.728-0.728c-0.012-0.035-0.346,0.247-0.742,0.632C26.628,10.264,26.421,10.465,26.213,10.667z"/>
		<path d="M7.559,18.912c-0.728,0.73-1.506,1.51-2.344,2.35c-0.39,0.391-0.379,0.402,0.025,0.026
			c0.732-0.685,1.472-1.373,2.216-2.067c0.403-0.377,0.748-0.757,0.77-0.849C8.247,18.279,7.947,18.521,7.559,18.912z"/>
	</g>
</g>
<g>
</g>
<g>
</g>
<g>
</g>
<g>
</g>
<g>
</g>
<g>
</g>
<g>
</g>
<g>
</g>
<g>
</g>
<g>
</g>
<g>
</g>
<g>
</g>
<g>
</g>
<g>
</g>
<g>
</g>
</svg>
