<?xml version="1.0" encoding="iso-8859-1"?>
<!-- Generator: Adobe Illustrator 16.0.0, SVG Export Plug-In . SVG Version: 6.00 Build 0)  -->
<!DOCTYPE svg PUBLIC "-//W3C//DTD SVG 1.1//EN" "http://www.w3.org/Graphics/SVG/1.1/DTD/svg11.dtd">
<svg version="1.1" id="Capa_1" xmlns="http://www.w3.org/2000/svg" xmlns:xlink="http://www.w3.org/1999/xlink" x="0px" y="0px"
	 width="50.408px" height="50.408px" viewBox="0 0 50.408 50.408" style="enable-background:new 0 0 50.408 50.408;"
	 xml:space="preserve">
<g>
	<g>
		<path d="M39.317,0.329c-4.167,1.775-9.729,0.314-13.438,2.794c-1.222,0.817-2.616,5.152-0.217,5.413
			c3.305,0.359,1.629,3.888-0.317,3.94c-1.312,0.035-2.615,0.184-3.917,0.339c-2.104,0.25-5.202,1.818-7.511,1.595
			c-0.549-0.054-1.236-0.602-1.377-1.136c-0.536-2.041,1.061-4.291-0.269-5.683c-0.349-0.364-0.876-0.384-1.318-0.167
			c-2.427,1.186-2.805,3.519-2.665,6.045c0.128,2.291,2.007,3.371,1.181,5.961c-0.625,1.96-1.585,3.649-2.03,5.705
			c-0.422,1.949-0.472,3.972-0.843,5.933c-0.401,2.118-1.79,3.711-2.265,5.708c-0.4,1.687,0.566,2.679,2.382,2.466
			c2.175-0.256,2.549-1.231,2.967-3.346c0.262-1.326,0.503-2.575,0.936-3.829c0.181-0.523,0.469-1.374,0.733-1.859
			c0.597-1.098,1.572-1.56,2.927-1.389c0.548,0.068,0.948,0.662,1,1.212c0.056,0.591,0.18,1.132,0.316,1.796
			c0.592,2.872,3.704,7.197,6.595,3.424c0.167-0.218,0.24-0.502,0.067-0.742c-0.066-0.093-0.133-0.187-0.2-0.278
			c-0.11-0.153-0.565-0.574-0.782-1.082c-0.282-0.662-0.217-1.459,0.195-2.391c0.224-0.505,0.866-0.652,1.227-0.234
			c1.181,1.366,1.08,3.502,1.37,5.145c0.443,2.518,0.59,4.833,0.59,7.382c0,3.335-3.411,6.96,1.943,7.341
			c4.297,0.308,3.08-3.463,2.995-6.166c-0.089-2.822,0.356-5.569,0.976-8.297c0.122-0.538,0.495-1.333,0.824-1.776
			c0.181-0.243,0.361-0.487,0.542-0.73c0.329-0.443,1.042-0.889,1.592-0.841c0.816,0.071,1.565,0.402,2.247,0.994
			c0.418,0.36,0.759,1.161,0.813,1.711c0.163,1.671,0.146,3.355,0.118,5.031c-0.046,2.785,0.338,7.334,4.815,4.919
			c0.607-0.328,2.153-1.106,1.79-2.124c-0.998-2.8-1.959-4.42-1.188-7.52c1.314-5.282,2.63-11.167,1.707-16.588
			c-0.529-3.118-1.45-5.283-0.894-8.498c0.271-1.561,0.238-3.13,0.522-4.689c0.255-1.398-0.207-0.819,1.191-0.651
			c0.513,0.061,0.992-0.163,1.255-0.604c0.067-0.112,0.136-0.225,0.202-0.338c0.104-0.173,0.058-0.404-0.046-0.562
			C44.585,1.417,42.124-0.867,39.317,0.329z M26.896,5.092c-0.406,0.374-1.111,0.234-0.89-0.271c0.139-0.317,0.526-0.597,1.29-0.804
			c0.532-0.144,0.65,0.107,0.245,0.482C27.325,4.698,27.11,4.896,26.896,5.092z M11.139,14.996c0.041,0.063,0.083,0.127,0.132,0.193
			c0.04,0.054,0.087,0.099,0.139,0.136c0.087,0.062,0.264,0.142,0.382,0.197c0.119,0.055,0.093,0.22-0.06,0.375
			c-0.153,0.154-0.362-0.031-0.486-0.412C11.123,15.105,11.069,14.887,11.139,14.996z M7.912,34.718
			c-0.028,0.149-0.055,0.298-0.082,0.446c-0.213,1.157-0.857,0.819-0.734,0.535c0.064-0.15,0.123-0.301,0.18-0.451
			c0.094-0.252,0.292-0.572,0.445-0.716C7.874,34.389,7.958,34.472,7.912,34.718z M18.055,32.774
			c-0.051-0.094-0.093-0.184-0.121-0.268c-0.039-0.113-0.068-0.276-0.092-0.479c-0.032-0.269,0.036-0.564,0.138-0.657
			c0.102-0.094,0.139,0.039,0.097,0.3c-0.024,0.15-0.046,0.307-0.066,0.473c-0.017,0.143,0,0.297,0.039,0.451
			C18.111,32.839,18.133,32.917,18.055,32.774z M27.424,45.649c-0.919-0.762-2.664,3.56-1.062-0.008
			c0.101-0.223,0.16-0.46,0.197-0.706c0.06-0.399,0.287-0.983,0.578-1.291c0.291-0.307,0.514-0.105,0.519,0.445
			c0.005,0.49,0.022,0.979,0.057,1.468C27.75,46.109,27.849,46,27.424,45.649z M28.061,37.994c-0.06,0.549-0.381,1.292-0.731,1.659
			c-0.35,0.366-0.352,0.38-0.003,0.027c0.349-0.352,0.61-0.396,0.583-0.099c-0.017,0.192-0.033,0.372-0.051,0.538
			c-0.009,0.092-0.017,0.184-0.023,0.276c-0.013,0.151-0.292,0.548-0.625,0.883c-0.333,0.336-0.609,0.162-0.624-0.392
			c-0.014-0.474-0.031-0.946-0.055-1.42c-0.026-0.551,0.249-1.324,0.626-1.727c0.138-0.146,0.273-0.292,0.41-0.438
			c0.378-0.402,0.611-0.289,0.544,0.259C28.093,37.708,28.077,37.851,28.061,37.994z M39.434,41.584
			c-0.234,0.233-0.52,0.389-0.636,0.346s-0.211-0.312-0.209-0.596c0.001-0.283,0.211-0.72,0.469-0.976
			c0.257-0.257,0.501-0.232,0.561,0.053c0.061,0.284,0.127,0.554,0.15,0.602c0.023,0.05,0.054,0.103,0.067,0.118
			C39.847,41.15,39.668,41.35,39.434,41.584z M38.591,37.148c-0.009-0.554,0.058-1.085,0.161-1.19l0.188-0.19
			c0,0,0.317-0.311,0.707-0.691c0.39-0.383,0.61-0.257,0.498,0.284c-0.141,0.676-0.272,1.354-0.389,2.031
			c-0.095,0.544-0.382,1.202-0.658,1.47c-0.276,0.267-0.496,0.037-0.497-0.517C38.6,37.945,38.597,37.546,38.591,37.148z
			 M40.311,42.241c-0.329,0.182-0.539-0.159-0.381-0.318S40.64,42.058,40.311,42.241z M42.519,3.556
			c-1.384,0.949-1.286,4.255-1.349,5.302c-0.119,1.957-0.76,3.818-0.498,5.776c0.515,3.852,1.961,6.911,1.45,10.979
			c-0.29,2.306-0.821,4.601-1.349,6.898c-0.123,0.538-0.535,1.295-0.92,1.69c-0.206,0.212-0.412,0.423-0.618,0.634
			c-0.386,0.396-0.717,0.315-0.753-0.177c-0.021-0.295-0.048-0.592-0.081-0.889c-0.028-0.256-0.075-0.486-0.137-0.697
			c-0.11-0.377-0.066-0.865,0.184-1.122s0.104-0.412-0.332-0.375c-0.435,0.036-1.148-0.243-1.674-0.413
			c-1.394-0.449-3.274-0.107-4.817,0.146c-0.912,0.149-1.586,0.688-2.092,1.442c-0.307,0.459-0.487,0.797-0.503,0.698
			c-0.015-0.099-0.34,0.142-0.729,0.533c-0.323,0.325-0.646,0.65-0.97,0.979c-0.179,0.18-0.357,0.359-0.538,0.539
			c-0.299,0.296-0.591,0.091-0.669-0.456c-0.082-0.577-0.176-1.152-0.287-1.725c-0.105-0.543,0.11-1.296,0.5-1.687
			c0.319-0.319,0.642-0.643,0.966-0.968c0.39-0.391,0.618-0.815,0.497-0.94s-0.559,0.081-0.966,0.454
			c-0.233,0.213-0.462,0.422-0.687,0.627c-0.407,0.373-0.778,0.516-0.828,0.315c-0.03-0.12-0.06-0.239-0.095-0.359
			c-0.071-0.247-0.208-0.508-0.394-0.768c-0.278-0.389-0.35-0.856-0.081-1.11s0.46-0.456,0.428-0.451
			c-0.035,0.007-0.26,0.206-0.505,0.447c-0.245,0.239-0.765,0.117-1.224-0.189c-0.606-0.406-1.288-0.702-1.923-0.771
			c-0.549-0.058-0.978-0.015-0.968-0.174c0.006-0.1,0.013-0.197,0.021-0.289c0.003-0.035,0.002-0.069,0.001-0.103
			c-0.002-0.059-0.332,0.199-0.737,0.575c-0.475,0.441-0.949,0.883-1.424,1.322c-0.405,0.376-0.758,0.305-0.809-0.158
			c-0.05-0.462,0.216-1.14,0.62-1.517c0.29-0.271,0.581-0.542,0.873-0.814c0.404-0.377,0.672-0.704,0.598-0.719
			c-0.074-0.016-0.451,0.296-0.841,0.688c-0.221,0.222-0.448,0.448-0.679,0.681c-0.39,0.392-0.769,0.263-0.931-0.266
			c-0.31-1.018-0.83-1.729-1.749-1.6c-3.237,0.455-5.381,3.127-6.632,6.003c-0.22,0.507-0.473,1.035-0.597,1.169
			c-0.125,0.133-0.104-0.189,0.028-0.727c0.186-0.757,0.348-1.525,0.497-2.314c0.005-0.026,0.01-0.053,0.014-0.079
			c0.007-0.044,0.332-0.396,0.723-0.784c0.783-0.779,1.565-1.56,2.354-2.339c0.116-0.127,0.231-0.254,0.346-0.38
			c0.191-0.21,0.025-0.068-0.373,0.315c-0.699,0.674-1.356,1.309-1.831,1.764c-0.398,0.383-0.826,0.785-0.947,0.908
			c-0.122,0.122-0.156-0.134-0.081-0.573c0.074-0.438,0.45-1.108,0.843-1.497c0.778-0.768,1.556-1.534,2.333-2.303
			c0.394-0.388,0.75-0.889,0.797-1.117c0.028-0.139,0.058-0.275,0.094-0.413c0.057-0.217,0.121-0.431,0.189-0.64
			c0.114-0.351-0.093-0.308-0.477,0.089c-0.899,0.927-1.797,1.854-2.695,2.78c-0.384,0.396-0.623,0.274-0.52-0.268
			c0.018-0.095,0.037-0.189,0.056-0.284c0.108-0.542,0.521-1.299,0.905-1.695c1.294-1.332,2.544-2.617,3.732-3.836
			c0.385-0.396,0.816-1.154,0.794-1.706c-0.023-0.551-0.49-0.668-0.883-0.28c-0.839,0.826-1.686,1.66-2.533,2.496
			c-0.394,0.388-0.628,0.508-0.519,0.271c0.065-0.142,0.133-0.283,0.207-0.425c0.32-0.611,0.426-1.25,0.4-1.902
			c-0.021-0.553,0.099-1.208,0.378-1.476c0.278-0.269,0.938-0.36,1.489-0.334c1.066,0.052,2.103-0.246,3.186-0.598
			c0.525-0.171,1.102-0.292,1.29-0.286c0.188,0.006,0.408-0.073,0.491-0.158c0.083-0.085,0.212-0.169,0.288-0.184
			c0.076-0.015,0.062,0.049-0.03,0.143c-0.092,0.096-0.151,0.171-0.132,0.168c0.02-0.004,0.112-0.083,0.208-0.181
			c0.095-0.097,0.539-0.261,0.997-0.334c0.458-0.072,0.854-0.098,0.881-0.104c0.028-0.006,0.495-0.057,1.046-0.088
			c2.467-0.141,5.031-0.045,7.13-1.06c0.243-0.117,0.535-0.37,0.544-0.666c0.001-0.039,0.001-0.076,0.001-0.114
			c0-0.062,0.314-0.434,0.699-0.828c0.52-0.53,1.035-1.059,1.546-1.581c0.388-0.394,0.667-0.796,0.626-0.896
			c-0.042-0.099-0.405,0.133-0.805,0.515c-0.531,0.509-0.977,0.937-1.354,1.299c-0.397,0.383-0.73,0.244-0.821-0.301
			c-0.085-0.514-0.226-1.007-0.433-1.487c-0.219-0.507-0.187-1.198,0.16-1.587c0.348-0.389,0.533-0.991,0.522-1.358
			c-0.007-0.209,0.011-0.433,0.062-0.661c0.021-0.096,0.045-0.189,0.072-0.282c0.044-0.155-0.228,0.043-0.613,0.438
			c-0.274,0.282-0.55,0.565-0.825,0.848c-0.385,0.396-0.863,0.564-1.067,0.375c-0.205-0.19-0.054-0.67,0.331-1.066
			c0.517-0.531,1.017-1.046,1.503-1.546c0.385-0.396,1.143-0.746,1.69-0.817c2.18-0.284,4.287-0.936,6.514-1.082
			c0.286-0.02,0.573-0.074,0.854-0.152c0.464-0.128,1.251-0.428,1.8-0.49c1.091-0.124,2.026,0.125,2.81,0.744
			C43.196,2.936,42.974,3.244,42.519,3.556z"/>
		<path d="M30.695,8.036c0.189-0.184,0.188-0.187-0.002-0.002C30.503,8.217,30.506,8.219,30.695,8.036z"/>
		<path d="M32.059,11.546c-0.223,0.227-0.447,0.453-0.67,0.68c-0.388,0.393-0.631,0.713-0.545,0.71
			c0.086-0.003,0.485-0.309,0.893-0.682c0.11-0.102,0.222-0.202,0.331-0.304c0.407-0.373,0.729-0.774,0.716-0.896
			C32.771,10.931,32.447,11.152,32.059,11.546z"/>
	</g>
</g>
<g>
</g>
<g>
</g>
<g>
</g>
<g>
</g>
<g>
</g>
<g>
</g>
<g>
</g>
<g>
</g>
<g>
</g>
<g>
</g>
<g>
</g>
<g>
</g>
<g>
</g>
<g>
</g>
<g>
</g>
</svg>
