<?xml version="1.0" encoding="iso-8859-1"?>
<!-- Generator: Adobe Illustrator 16.0.0, SVG Export Plug-In . SVG Version: 6.00 Build 0)  -->
<!DOCTYPE svg PUBLIC "-//W3C//DTD SVG 1.1//EN" "http://www.w3.org/Graphics/SVG/1.1/DTD/svg11.dtd">
<svg version="1.1" id="Capa_1" xmlns="http://www.w3.org/2000/svg" xmlns:xlink="http://www.w3.org/1999/xlink" x="0px" y="0px"
	 width="40.867px" height="40.867px" viewBox="0 0 40.867 40.867" style="enable-background:new 0 0 40.867 40.867;"
	 xml:space="preserve">
<g>
	<g>
		<path d="M2.808,25.46c0.201-0.178,0.445-0.393,0.731-0.643l3.293-2.869l4.192-3.666l4.199-3.611l3.235-2.842
			c0.277-0.24,0.514-0.444,0.711-0.613c0.393-0.339,0.56-0.716,0.374-0.875c-0.094-0.08-0.205-0.178-0.333-0.291l-1.377-1.243
			l-1.785-1.55l-1.782-1.52l-1.384-1.188c-0.124-0.105-0.229-0.195-0.315-0.271c-0.063-0.054-0.272-0.034-0.571,0.051
			c-0.193-0.137-0.251-0.159-0.062,0.019c-0.076,0.023-0.158,0.051-0.244,0.082c0-0.042-0.019-0.087,0.031-0.099
			c0.085-0.028-0.043-0.131-0.235-0.157C11.093,4.107,10.382,4.177,9.557,4.5C7.918,5.205,5.98,6.761,4.645,8.544
			C4.414,8.708,4.67,8.28,4.023,8.949c-2.368,2.831-3.658,6.823-3.788,10.569c-0.303,0.796-0.433,3.641,0.368,4.819
			c0.07,0.009-0.186-0.456-0.226-0.949c-0.063-0.452-0.106-0.923-0.055-0.902c0.108,0.333,0.158,0.772,0.295,1.293
			c0.142,0.502,0.515,1.053,1.105,1.231c0.083,0.026,0.172,0.038,0.262,0.039C2.258,25.486,2.579,25.663,2.808,25.46z M1.306,21.151
			c0,0.844,0.065,1.68,0.194,2.508c0.041,0.261,0.103,0.492,0.173,0.707c-0.145-0.146-0.275-0.326-0.353-0.554
			c-0.056-0.14-0.081-0.3-0.108-0.457l-0.078-0.588c-0.092-0.726-0.182-1.318-0.269-1.36c0.009,0.447,0.031,0.895,0.057,1.341
			c0.047,0.484,0.041,0.905,0.205,1.258c0.124,0.305,0.372,0.565,0.668,0.684c0.009,0.021,0.018,0.041,0.028,0.062
			c-0.005-0.001-0.009-0.001-0.014-0.003c-0.225-0.07-0.44-0.241-0.595-0.431c-0.337-0.41-0.369-0.953-0.437-1.562
			c-0.054-0.578-0.088-1.169-0.092-1.762c-0.014-2.378,0.393-4.79,1.286-7.064c0.874-2.27,2.195-4.381,3.874-6.094
			c0.838-0.856,1.754-1.622,2.729-2.259c0.49-0.325,0.982-0.609,1.512-0.793c0.468-0.169,1.002-0.295,1.433-0.288
			c-0.477,0.189-1.058,0.479-1.646,0.872C9.112,5.876,8.39,6.438,7.706,7.051C6.352,8.276,5.203,9.629,4.27,11.105
			c-0.938,1.482-1.667,3.069-2.187,4.764C1.564,17.563,1.306,19.325,1.306,21.151z"/>
		<path d="M40.636,25.884c0.05-0.52,0.092-1.044,0.126-1.57c0.069-1.061,0.104-2.111,0.104-3.161c0-1.688-0.212-3.326-0.632-4.919
			c-0.417-1.593-1.022-3.103-1.797-4.529c-0.779-1.431-1.729-2.734-2.834-3.913c-0.56-0.59-1.15-1.143-1.771-1.658
			c-0.376-0.311-0.736-0.372-1.044-0.238c-0.027-0.044-0.062-0.093-0.116-0.151c-0.123-0.118-0.359-0.281-0.708-0.233
			c-0.35,0.044-0.686,0.341-0.894,0.708c-0.454,0.745-0.461,1.789-0.477,2.733c-0.018,0.978-0.004,2.01,0.056,2.992
			c-0.068,0.241-0.132-0.189-0.204,0.624c-0.097,3.208,0.222,6.711,0.328,10.062c-0.055,0.179-0.098,0.471-0.127,0.823
			c-0.039,0.332-0.04,0.835,0.081,1.282c0.217,0.935,0.923,1.71,1.416,1.953c0.059-0.021-0.281-0.3-0.552-0.646
			c-0.278-0.341-0.456-0.751-0.406-0.746c0.347,0.519,1.03,1.399,2.017,1.779c0.143,0.06,0.29,0.086,0.436,0.123
			c0.017,0.004,0.031,0.011,0.048,0.015c0.006,0.002,0.012,0.002,0.018,0.003c0.143,0.033,0.276,0.062,0.415,0.076
			c0.12,0.016,0.24,0.021,0.36,0.027c0.286,0.076,0.583,0.13,0.894,0.13h1.601C38.9,27.449,40.553,26.749,40.636,25.884z
			 M32.656,26.483c-0.815-0.583-1.372-1.533-1.42-2.549c-0.021-2.146-0.062-4.383-0.12-6.589c-0.053-2.213-0.104-4.425-0.094-6.594
			c0.012-1.081,0.006-2.167,0.083-3.208c0.061-0.509,0.207-1.025,0.501-1.388c0.288-0.365,0.671-0.373,0.976-0.122
			c-0.424,0.342-0.71,1.103-0.71,2.165v15.757c0,0.721,0.219,1.392,0.594,1.948c-0.197-0.207-0.378-0.426-0.51-0.652
			c-0.321-0.497-0.444-0.964-0.529-0.987c0.147,1.091,0.934,2.153,2.059,2.629c0.014,0.009,0.029,0.015,0.044,0.023
			C33.22,26.808,32.92,26.671,32.656,26.483z"/>
		<path d="M7.737,34.909c0.157,0.161,0.515,0.458,1.103,0.439c0.056-0.001,0.109-0.028,0.164-0.038
			c1.142,0.418,2.074-0.517,2.074-2.183v-8.637c0-1.93-0.178-3.328-0.401-3.13c-0.112,0.1-0.247,0.22-0.404,0.355L10,21.958
			c-0.038-0.16-0.084-0.322-0.144-0.479c-0.043-0.078-0.061-0.164-0.182-0.228c-0.034-0.003-0.045,0.014-0.069,0.021
			c-0.012,0.002-0.033-0.004-0.038,0.004l-0.012,0.01C9.5,21.316,9.461,21.359,9.42,21.379l-0.332,0.297
			c-0.013,0.013-0.022,0.023-0.034,0.034l-1.333,1.131c-1.251,1.032-2.505,2.118-3.739,3.233l-0.938,0.823l-0.47,0.413l-0.117,0.103
			C2.4,27.458,2.363,27.56,2.358,27.607c-0.018,0.116-0.021,0.226-0.015,0.333c0.056,0.857,0.349,1.668,0.784,2.393
			c0.733,1.092,1.596,2.073,2.529,2.952c0.047,0.046,0.078,0.078,0.143,0.141l0.502,0.45c0.04,0.035,0.087,0.074,0.137,0.115
			c0.484,0.423,1.8,1.264,0.711,0.45c-1.218-0.935-2.351-2.045-3.33-3.295c-0.492-0.622-0.94-1.296-1.17-2.068
			c-0.119-0.381-0.207-0.774-0.221-1.176c-0.003-0.102,0-0.201,0.021-0.301c0.016-0.111,0.124-0.164,0.189-0.231l0.45-0.395
			c1.212-1.038,2.37-2.123,3.575-3.109l1.004-0.838c0.054-0.011-0.128,0.16-0.07,0.146c0.437-0.267,0.772-0.635,0.682-0.625
			l0.905-0.583l0.37-0.255c-0.003,0.007-0.008,0.011-0.019-0.008c-0.017-0.068-0.066-0.145-0.044-0.131
			c0.006,0.005,0.014,0.008,0.022,0.01c0.001,0.001,0.09,0.047,0.149,0.031c0.016-0.006,0.014-0.005,0.024-0.009
			c-0.015-0.044-0.023-0.098-0.042-0.137c-0.011-0.022-0.018-0.03-0.023-0.04L9.48,21.532l-0.147,0.108l0.002-0.002l0.147-0.113
			c0.041-0.029,0.097-0.077,0.136-0.102c0.001,0.001,0.002,0.002,0.002,0.003l0.01-0.008c-0.002,0-0.002,0-0.004,0
			c0.002-0.001,0.004-0.003,0.006-0.004c0,0,0.001,0.002,0.002,0.003L9.631,21.42c0.001,0,0.003-0.002,0.004-0.002
			c0.007,0.023,0.06,0.064,0.063,0.118c0.007,0.019,0.01,0.04,0.017,0.058c-0.007,0.004-0.016,0.006-0.028,0.011
			c0.001,0.004,0.002,0.008,0.004,0.012l0.025-0.019c0.049,0.132,0.088,0.272,0.12,0.419c0.005,0.025,0.006,0.053,0.011,0.079
			l-0.046,0.039c-0.027-0.178-0.058-0.358-0.11-0.519l-0.029,0.021l-0.063,0.043c0.025,0.167,0.049,0.364,0.073,0.567l-0.98,0.866
			L6.76,24.767l-1.862,1.651l-1.454,1.265c-0.124,0.104-0.23,0.194-0.316,0.27c-0.175,0.148,0.204,1.484,1.124,2.809
			c0.546,0.785,1.169,1.533,1.864,2.244c0.718,0.731,1.496,1.4,2.336,2.011c0.024,0.017,0.046,0.022,0.07,0.04
			c-0.28-0.046-0.551-0.176-0.76-0.362C7.584,34.646,7.577,34.73,7.737,34.909z"/>
		<path d="M22.999,39.235h0.331c0.484-0.038,0.963-0.095,1.438-0.166c0.465-0.039,1.033-0.129,1.622-0.285
			c0.167-0.044,0.331-0.097,0.494-0.148c0.499-0.13,0.994-0.272,1.481-0.441c1.616-0.562,3.123-1.29,4.531-2.187
			c1.406-0.895,2.676-1.959,3.806-3.189c0.567-0.614,1.089-1.261,1.569-1.937c0.602-0.848,0.148-1.596-0.939-1.889
			c-0.503-0.405-1.163-0.496-1.745-0.536l-17.312,0.568c-1.087,0.031-3.902,0.274-1.496,0.208l0.088-0.003
			c0.062-0.001,0.113-0.002,0.183-0.004l1.175-0.034c0.167-0.005,0.381-0.017,0.609-0.029l14.532-0.492l2.088-0.057
			c0.477,0.015,0.981,0.086,1.418,0.294c-0.243-0.033-0.5-0.053-0.785-0.044l-19.361,0.552c-1.929,0.056-3.494,1.664-3.494,3.595
			v1.309c0,1.666,0.515,3.243,1.212,3.812c-0.151-0.094-0.291-0.21-0.431-0.344c-0.29-0.283-0.54-0.608-0.758-0.953
			c-0.43-0.688-0.744-1.461-0.837-2.262c-0.048-0.397-0.016-0.804-0.017-1.208c0.011-0.399-0.005-0.811,0.083-1.188
			c0.304-1.554,1.784-2.676,3.183-2.611c0.283-0.134,0.212-0.249-0.202-0.326c-0.4-0.057-1.185,0.007-1.984,0.558
			c-0.795,0.519-1.542,1.614-1.587,2.886c-0.013,0.628-0.031,1.122,0.01,1.79c0.067,0.643,0.272,1.246,0.548,1.783
			c0.063,0.302-0.267-0.146,0.146,0.8c0.213,0.387,0.467,0.756,0.782,1.102c0.159,0.172,0.331,0.34,0.545,0.496
			c0.212,0.156,0.502,0.314,0.795,0.359c0.834,0.177,1.674,0.309,2.536,0.401c0.431,0.045,0.865,0.083,1.314,0.092
			c0.491-0.004,0.87-0.039,1.311-0.057l2.555-0.127l0.025-0.001h-0.003C22.64,39.295,22.818,39.261,22.999,39.235z"/>
		<path d="M20.255,1.552c-0.509-0.009-0.99,0.019-1.38,0.074c-0.723,0.049-1.449,0.129-2.172,0.279
			c-0.526,0.103-1.034,0.223-1.56,0.362c-0.271,0.082-0.544,0.219-0.739,0.457c-0.193,0.227-0.31,0.572-0.178,0.893
			c0.178,0.326,0.413,0.416,0.604,0.617l0.609,0.531l1.224,1.062l8.94,7.693c0.003,0.003,0.005,0.005,0.009,0.008l0.815,0.702
			c0.614,0.528,2.285,1.805,0.928,0.636l-0.112-0.096c-0.015-0.013-0.025-0.022-0.041-0.036l-0.663-0.57
			c-0.024-0.021-0.052-0.044-0.079-0.066l-8.475-7.28l-2.339-2.037l-1.155-1.015c-0.21-0.173-0.23-0.485-0.129-0.716
			c0.101-0.238,0.302-0.417,0.526-0.532c0.546-0.171,1.098-0.306,1.651-0.419c-0.003,0.029-0.245,0.097-0.178,0.115
			C17.014,2.169,17.634,2,17.528,1.949c0.487-0.007,1.063,0.018,1.644,0.047C18.736,2.05,18.3,2.104,17.868,2.19
			c-0.583,0.117-1.163,0.254-1.741,0.411c-0.954,0.261-1.42,0.776-1.066,1.084c0.177,0.154,0.391,0.341,0.64,0.558l2.784,2.424
			l3.545,3.103l3.536,3.071l2.577,2.224c-0.08,0.078-0.156,0.124-0.134,0.091c0.024,0.05-0.053,0.065-0.062,0.105
			c-0.017,0.025,0.002,0.149,0.164,0.124c0.083-0.017,0.165-0.064,0.247-0.135l0.05,0.043c0.267,0.224,0.496,0.415,0.685,0.574
			c0.378,0.318,0.674-0.979,0.674-2.909V7.092c0-1.725-1.144-3.68-2.722-4.416c-0.021-0.014-0.038-0.031-0.059-0.045
			c-0.324-0.218-0.674-0.394-1.05-0.51c-0.371-0.11-0.733-0.161-1.09-0.231c-0.282-0.155-0.972-0.343-1.708-0.443
			c-0.735-0.102-1.517-0.108-1.961-0.046c-0.055,0.085,1.437,0.104,1.389,0.19C22.037,1.644,21.128,1.561,20.255,1.552z
			 M21.427,1.837c-0.156,0-0.308,0.018-0.464,0.022c-0.549-0.051-1.105-0.084-1.662-0.094c0.068,0,0.136-0.004,0.205-0.004
			c0.052-0.002,0.102,0.002,0.154,0.001c0.616,0.003,1.238,0.033,1.862,0.078C21.49,1.84,21.459,1.837,21.427,1.837z"/>
		<path d="M9.556,21.709l0.042-0.028c0-0.004-0.001-0.009-0.002-0.013C9.543,21.564,9.563,21.676,9.556,21.709z"/>
	</g>
</g>
<g>
</g>
<g>
</g>
<g>
</g>
<g>
</g>
<g>
</g>
<g>
</g>
<g>
</g>
<g>
</g>
<g>
</g>
<g>
</g>
<g>
</g>
<g>
</g>
<g>
</g>
<g>
</g>
<g>
</g>
</svg>
