<?xml version="1.0" encoding="iso-8859-1"?>
<!-- Generator: Adobe Illustrator 16.0.0, SVG Export Plug-In . SVG Version: 6.00 Build 0)  -->
<!DOCTYPE svg PUBLIC "-//W3C//DTD SVG 1.1//EN" "http://www.w3.org/Graphics/SVG/1.1/DTD/svg11.dtd">
<svg version="1.1" id="Capa_1" xmlns="http://www.w3.org/2000/svg" xmlns:xlink="http://www.w3.org/1999/xlink" x="0px" y="0px"
	 width="41.83px" height="41.83px" viewBox="0 0 41.83 41.83" style="enable-background:new 0 0 41.83 41.83;" xml:space="preserve"
	>
<g>
	<g>
		<path d="M7.818,21.811c3.722-3.254,7.475-6.475,11.188-9.737c2.077-1.824,0.485-2.361-1.222-3.845
			c-1.287-1.117-2.586-2.222-3.88-3.331c-0.419-0.359-0.792-0.674-0.837-0.693c-0.026-0.011-0.053-0.018-0.086-0.024
			c-0.119-0.029-0.269-0.026-0.437,0.001C4.814,4.728,0.244,15.199,0.011,21.714C-0.274,29.803,4.86,24.397,7.818,21.811z
			 M5.669,10.086c1.191-1.65,2.83-3.488,4.388-4.438c0.472-0.288,0.574-0.132,0.18,0.254c-1.414,1.384-2.876,2.81-4.418,4.31
			C5.422,10.597,5.346,10.534,5.669,10.086z M5.75,10.316c1.534-1.494,3.272-3.19,4.571-4.449c0.396-0.385,0.742-0.703,0.771-0.714
			c0.029-0.01-0.27,0.294-0.666,0.678C9.3,6.917,7.659,8.505,5.688,10.418c-0.398,0.385-0.703,0.674-0.686,0.646
			C5.02,11.036,5.354,10.702,5.75,10.316z M6.671,13.788c-1.209,1.221-2.419,2.44-3.626,3.662c-0.389,0.393-0.702,0.518-0.696,0.277
			c0.005-0.231,0.012-0.385,0.021-0.435c0.118-0.638,0.299-1.261,0.519-1.871c0.185-0.519,0.675-1.25,1.061-1.646
			c2.485-2.546,4.952-5.058,7.396-7.533c0.389-0.393,1.043-0.42,1.463-0.062c1.503,1.282,3.01,2.562,4.475,3.887
			c1.709,1.543-1.016,2.986-2.244,4.066c-1.24,1.089-2.493,2.163-3.745,3.239c-2.451,2.108-4.877,4.247-7.315,6.372
			c-0.298,0.259-0.595,0.518-0.893,0.776c-0.416,0.362-0.743,0.47-0.741,0.234c0.002-0.233,0.313-0.746,0.697-1.143
			c0.478-0.494,0.954-0.986,1.426-1.476c0.385-0.396,0.703-1.166,0.744-1.717c0.016-0.207,0.034-0.413,0.057-0.618
			c0.06-0.55-0.183-0.676-0.575-0.288c-0.545,0.54-1.093,1.08-1.641,1.622c-0.394,0.389-0.714,0.256-0.716-0.297
			c-0.001-0.467-0.002-0.927-0.001-1.353c0-0.552,0.332-1.304,0.736-1.681c0.992-0.923,1.981-1.85,2.965-2.783
			c0.4-0.38,0.851-0.977,1.02-1.325C7.227,13.353,7.061,13.395,6.671,13.788z"/>
		<path d="M11.138,21.277C9.233,20.762,6.1,24.643,4.82,25.78c-0.729,0.646-2.855,1.929-3.015,2.859
			c-0.362,2.109,2.725,4.892,4.62,6.401c0.432,0.344,1.182,0.846,1.72,0.969c0.946,0.217,1.869-0.018,2.749-0.664
			c1.108-0.812,0.821-2.749,0.821-3.949C11.715,30.304,12.367,21.608,11.138,21.277z M9.68,32.899
			c-0.044,0.551-0.298,1.186-0.53,1.421c-0.232,0.233-0.776,0.151-1.198-0.204c-0.27-0.228-0.534-0.462-0.793-0.703
			c-0.403-0.378-0.394-1.021-0.004-1.41c0.027-0.027,0.054-0.055,0.081-0.081c0.391-0.392,0.623-0.837,0.525-1
			c-0.098-0.163-0.501,0.003-0.909,0.376c-0.063,0.058-0.126,0.115-0.188,0.172c-0.407,0.372-1.036,0.338-1.362-0.106
			c-0.072-0.099-0.143-0.196-0.211-0.297c-0.313-0.454-0.208-1.152,0.193-1.531c1.314-1.243,2.598-2.457,3.842-3.637
			c0.401-0.38,0.723-0.238,0.711,0.313c-0.021,0.997-0.053,1.847-0.053,2.091C9.783,28.632,9.825,31.061,9.68,32.899z M9.136,25.688
			c-1.305,1.276-2.599,2.541-3.883,3.798c-0.396,0.387-0.906,0.375-1.107-0.045c-0.12-0.252-0.231-0.51-0.327-0.773
			c-0.305-0.836,1.47-1.864,1.997-2.332c1.065-0.945,2.14-1.88,3.214-2.814c0.417-0.361,0.795-0.21,0.81,0.343
			c0.001,0.042,0.002,0.084,0.003,0.127C9.855,24.543,9.531,25.304,9.136,25.688z"/>
		<path d="M37.816,28.913c-1.542-0.41-3.482-0.106-5.041-0.062c-4.911,0.141-9.822,0.28-14.735,0.419
			c-0.552,0.017-1.047,0.024-1.104,0.027c-0.032,0.001-0.067,0.004-0.104,0.007c-0.06,0.002-0.106,0.009-0.156,0.019
			c-0.038,0.006-0.061,0.004-0.104,0.012c-2.48,0.471-4.19,1.446-4.622,4.141c-0.69,4.303,1.229,5.57,4.904,6.284
			c5.94,1.154,13.322-0.577,17.953-4.459C35.79,34.478,41.641,29.931,37.816,28.913z M35.496,33.181
			c-2.821,3.266-8.021,5.944-12.149,5.944c-2.271,0-4.239-0.01-6.517-0.452c-0.081-0.016-0.161-0.038-0.239-0.064
			c-0.129-0.044,0.014-0.337,0.316-0.644c0.304-0.308,0.537-0.593,0.522-0.638c-0.014-0.045-0.309,0.181-0.66,0.506
			c-0.352,0.325-0.922,0.449-1.22,0.202c-0.299-0.247-0.167-0.798,0.24-1.171c0.193-0.179,0.387-0.355,0.58-0.532
			c0.406-0.374,0.724-0.822,0.715-1.002c-0.005-0.108-0.008-0.217-0.008-0.326c0,0,0-0.229,0-0.514s-0.328-0.208-0.732,0.168
			c-0.414,0.386-0.829,0.771-1.243,1.156c-0.404,0.377-0.938,0.281-1.1-0.245c-0.323-1.058-0.383-2.213-0.11-3.193
			c0.148-0.532,0.548-1.083,0.746-1.288c0.121-0.124,0.241-0.249,0.361-0.371c0.032-0.032,0.063-0.064,0.095-0.098
			c0.052-0.055,0.289-0.228,0.556-0.338c0.266-0.11,0.946-0.169,1.498-0.186c0.279-0.008,0.559-0.016,0.838-0.022
			c0.552-0.017,0.683,0.288,0.293,0.679c-0.913,0.913-1.907,1.911-3.005,3.012c-0.39,0.392-0.379,0.403,0.024,0.026
			c1.085-1.013,2.187-2.04,3.292-3.072c0.404-0.377,1.18-0.695,1.731-0.711c0.022-0.001,0.043-0.001,0.065-0.002
			c0.552-0.016,0.975-0.006,0.943,0.023c-0.031,0.028,0.38,0.04,0.918,0.024c0.537-0.016,1-0.052,1.03-0.081
			c0.031-0.027,0.505-0.063,1.058-0.08c0.639-0.019,1.276-0.037,1.916-0.056c0.553-0.016,0.976-0.005,0.945,0.024
			c-0.029,0.028-0.012,0.052,0.041,0.05c0.054-0.002,0.119-0.026,0.15-0.057c0.03-0.027,0.502-0.064,1.054-0.08
			c0.588-0.018,1.175-0.033,1.764-0.051c0.552-0.016,0.974-0.005,0.94,0.024c-0.032,0.027,0.041,0.049,0.162,0.046
			s0.243-0.029,0.272-0.059c0.026-0.028,0.284-0.06,0.573-0.067c0.176-0.005,0.351-0.01,0.524-0.015
			c0.809-0.023,1.616-0.048,2.424-0.069C38.064,29.501,36.061,32.528,35.496,33.181z"/>
		<path d="M29.455,4.269c-1.471-2.494-5.413-2.602-7.944-2.541c-1.936,0.047-5.893,0.023-7.369,1.561
			c-1.165,1.213,1.608,2.709,2.505,3.49c1.225,1.066,2.445,2.138,3.666,3.207c2.499,2.188,4.997,4.384,7.543,6.517
			c0.011,0.009,0.025,0.015,0.041,0.019c0.024,0.008,0.097,0.035,0.163,0.05c0.068,0.015,0.526,0.074,1.001-0.03
			c0.312-0.069,0.607-0.198,0.762-0.404c0.978-1.29,0.579-3.647,0.579-5.202C30.401,8.596,30.688,6.359,29.455,4.269z M16.292,3.832
			c-0.071-0.413,0.194-0.767,1.075-0.959c0.241-0.053,0.489-0.102,0.743-0.147c0.411-0.073,0.431,0.2,0.04,0.591
			c-0.22,0.221-0.44,0.441-0.66,0.662C17.101,4.371,16.385,4.376,16.292,3.832z M28.354,14.334
			c-0.113,0.104-0.437-0.009-0.723-0.255c-0.285-0.246-0.254-0.687,0.069-0.985c0.325-0.299,0.467-0.648,0.313-0.78
			c-0.152-0.132-0.535,0.006-0.857,0.309c-0.321,0.302-0.813,0.35-1.097,0.107c-0.283-0.243-0.246-0.684,0.082-0.983
			c0.327-0.301,0.543-0.586,0.482-0.639c-0.062-0.054-0.361,0.159-0.672,0.475c-0.312,0.315-0.772,0.391-1.031,0.169
			c-0.26-0.222-0.216-0.661,0.095-0.979c0.31-0.318,0.489-0.641,0.398-0.72c-0.092-0.079-0.427,0.107-0.747,0.417
			c-0.322,0.31-0.92,0.266-1.335-0.099c-0.248-0.217-0.496-0.434-0.743-0.65c-0.416-0.364-0.512-0.929-0.216-1.26
			c0.296-0.332,0.405-0.715,0.245-0.855l-0.293-0.255c0,0-0.093-0.081-0.206-0.181c-0.114-0.1-0.458,0.077-0.77,0.396
			c-0.31,0.318-0.732,0.429-0.941,0.245c-0.21-0.185-0.129-0.591,0.181-0.909c0.31-0.318,0.36-0.75,0.113-0.965
			c-0.247-0.215-0.712-0.144-1.039,0.156c-0.327,0.302-0.659,0.488-0.741,0.416c-0.049-0.044-0.099-0.087-0.148-0.13
			c-0.137-0.119-0.443-0.34-0.797-0.616c-0.436-0.341-0.451-0.961-0.062-1.353c0.396-0.397,0.79-0.796,1.185-1.192
			c0.39-0.392,1.152-0.749,1.705-0.761c3.065-0.064,6.189,0.781,7.41,3.722c0.556,1.339,0.252,3.297,0.252,4.697
			c0,0.564,0.067,1.403,0.089,2.268C28.573,13.696,28.468,14.228,28.354,14.334z"/>
		<path d="M34.412,6.099c-0.027-0.024-0.073-0.031-0.112-0.046c-0.023-0.009-0.039-0.015-0.052-0.02
			c-0.029-0.012-0.471-0.212-1.019-0.273c-2.534-0.278-2.648,3.298-2.648,5.461c0,4.432,0,8.863,0,13.294
			c0,4.537,7.768,4.715,10.27,2.223c1.89-1.885,0.557-8.129,0.021-10.461C39.944,12.24,37.468,8.793,34.412,6.099z M33.113,7.262
			c0.211,0.207,0.205,0.549-0.013,0.762c-0.218,0.212-0.385,0.047-0.378-0.371C32.73,7.234,32.901,7.055,33.113,7.262z
			 M33.109,8.061c0.225-0.223,0.411-0.396,0.424-0.385c0.013,0.012-0.17,0.205-0.403,0.433c-0.235,0.229-0.425,0.4-0.425,0.384
			S32.888,8.284,33.109,8.061z M33.22,8.384c0.289-0.278,0.719-0.307,0.949-0.055c0.229,0.253,0.09,0.773-0.308,1.157
			c-0.168,0.163-0.336,0.325-0.504,0.488c-0.397,0.384-0.706,0.296-0.689-0.197C32.683,9.285,32.93,8.661,33.22,8.384z
			 M35.825,27.339c-0.551-0.04-0.939-0.235-0.892-0.282l0.085-0.083c0.161-0.162,0.323-0.325,0.485-0.487
			c0.268-0.271,0.432-0.614,0.383-0.774c-0.048-0.16-0.391,0.028-0.775,0.424c-0.027,0.029-0.057,0.059-0.084,0.086
			c-0.386,0.396-0.799,0.675-0.923,0.623c-0.072-0.03-0.145-0.062-0.221-0.102c-0.408-0.211-0.693-0.501-0.895-0.838
			c-0.28-0.476-0.034-1.253,0.352-1.648c0.554-0.568,1.113-1.143,1.678-1.721c0.385-0.396,0.697-1.147,0.697-1.682
			c0-0.533-0.315-0.647-0.704-0.255c-0.604,0.61-1.203,1.213-1.797,1.812c-0.39,0.392-0.704,0.374-0.704-0.04
			s0.315-1.068,0.704-1.461c0.609-0.617,1.212-1.225,1.798-1.815c0.388-0.392,0.703-0.869,0.703-1.064
			c0-0.196-0.035-0.317-0.079-0.27c-0.026,0.028-0.053,0.057-0.079,0.085c-0.802,0.852-1.586,1.683-2.36,2.503
			c-0.38,0.401-0.687,0.278-0.687-0.274c0-0.095,0-0.19,0-0.286c0-0.552,0.306-1.328,0.683-1.731
			c0.617-0.661,1.232-1.322,1.841-1.975c0.377-0.404,0.683-1.075,0.683-1.499c0-0.423-0.318-0.45-0.711-0.061
			c-0.593,0.587-1.189,1.179-1.785,1.771c-0.392,0.389-0.709,0.257-0.709-0.295c0-0.518,0-1.035,0-1.553
			c0-0.132,0.04-1.216,0.085-2.526c0.019-0.552,0.37-1.297,0.783-1.662c0.216-0.191,0.433-0.382,0.647-0.573
			c0.414-0.365,1.042-0.322,1.379,0.115c2.358,3.06,3.737,6.629,4.125,10.659C39.821,23.471,38.893,27.557,35.825,27.339z"/>
	</g>
</g>
<g>
</g>
<g>
</g>
<g>
</g>
<g>
</g>
<g>
</g>
<g>
</g>
<g>
</g>
<g>
</g>
<g>
</g>
<g>
</g>
<g>
</g>
<g>
</g>
<g>
</g>
<g>
</g>
<g>
</g>
</svg>
