<?xml version="1.0" encoding="iso-8859-1"?>
<!-- Generator: Adobe Illustrator 16.0.0, SVG Export Plug-In . SVG Version: 6.00 Build 0)  -->
<!DOCTYPE svg PUBLIC "-//W3C//DTD SVG 1.1//EN" "http://www.w3.org/Graphics/SVG/1.1/DTD/svg11.dtd">
<svg version="1.1" id="Capa_1" xmlns="http://www.w3.org/2000/svg" xmlns:xlink="http://www.w3.org/1999/xlink" x="0px" y="0px"
	 width="45.415px" height="45.415px" viewBox="0 0 45.415 45.415" style="enable-background:new 0 0 45.415 45.415;"
	 xml:space="preserve">
<g>
	<g>
		<path d="M31.693,1.836C16.894-4.423,0.48,7.41,0,22.847c0.266,7.701,3.811,14.14,10.135,18.5c3.923,2.705,4.695-0.596,5.274-3.901
			c0.522-2.981,1.404-5.942,2.099-8.888c0.725-3.067-0.357-5.996,0.446-9.053c0.871-3.318,4.492-2.442,4.833,0.591
			c0.256,2.276-1.327,5.487-1.919,7.687c-0.678,2.521,1.435,4.366,3.776,4.432c3.935,0.111,6.369-3.028,7.646-6.378
			c2.244-5.882,0.662-12.268-5.674-14.124c-4.05-1.187-8.664,0.352-11.821,2.894c-1.882,1.515-3.228,4.285-3.365,6.667
			c-0.144,2.484,1.699,5.01,1.489,7.282c-0.051,0.549-0.671,0.844-1.134,0.543c-3.116-2.031-2.941-8.592-2.15-11.346
			c2.399-8.354,12.683-11.114,20.083-7.769c12.473,5.64,5.485,31.138-7.059,24.031c-0.998-0.565-2.068-0.584-3.086,0.043
			c-0.692,0.426-3.323,8.486-3.104,9.024c1.926,4.714,14.262,0.676,17.428-1.136C50.096,32.672,49.069,9.184,31.693,1.836z
			 M15.531,26.927c-0.003,0.03-0.007,0.062-0.01,0.094c-0.063,0.549-0.211,1.062-0.308,1.152c-0.096,0.09-0.148-0.218-0.21-0.68
			s0.009-0.992,0.226-1.195C15.446,26.095,15.593,26.377,15.531,26.927z M15.209,25.959c-0.245,0.245-0.569,0.013-0.757-0.506
			c-0.076-0.209-0.154-0.417-0.233-0.622c-0.199-0.516-0.054-1.252,0.331-1.648c0.152-0.157,0.303-0.312,0.455-0.469
			c0.385-0.397,0.657-0.398,0.645-0.003c-0.007,0.232-0.005,0.47,0.007,0.716c0.019,0.366,0.027,0.729,0.025,1.09
			C15.68,25.067,15.454,25.713,15.209,25.959z M13.397,19.891c0.099-0.543,0.556-1.284,0.95-1.672
			c1.457-1.437,2.914-2.875,4.371-4.312c0.394-0.388,1.133-0.859,1.668-1c4.221-1.108,9.043,0.31,10.601,5.248
			c0.925,2.936-0.021,6.512-1.071,9.268c-0.857,2.247-2.971,5.012-6.093,3.264c-0.105-0.06-0.199-0.125-0.285-0.195
			c-0.147-0.121,0.062-0.557,0.449-0.952c0.159-0.164,0.319-0.328,0.479-0.492c0.387-0.394,0.696-0.86,0.713-1.04
			c0.018-0.179-0.291-0.021-0.699,0.352c-0.271,0.244-0.536,0.486-0.799,0.727c-0.409,0.372-0.947,0.266-1.013-0.283
			c-0.049-0.412-0.033-0.856,0.029-1.316c0.073-0.547,0.513-1.289,0.914-1.67c0.736-0.698,1.461-1.385,2.172-2.061
			c0.4-0.38,0.751-0.777,0.781-0.886c0.031-0.11-0.264,0.113-0.658,0.499c-0.753,0.736-1.502,1.468-2.247,2.195
			c-0.395,0.387-0.603,0.267-0.434-0.258c0.357-1.107,0.783-2.139,0.99-2.84c0.057-0.193,0.105-0.38,0.146-0.562
			c0.07-0.313,0.439-0.875,0.845-1.251c0.397-0.368,0.793-0.736,1.19-1.104c0.404-0.375,0.689-0.995,0.556-1.358
			c-0.134-0.364-0.638-0.324-1.043,0.051c-0.211,0.196-0.423,0.392-0.634,0.588c-0.405,0.375-0.766,0.327-0.895-0.086
			c-0.13-0.413-0.133-0.885,0.09-1.094c0.225-0.209,0.19-0.144,0.537-0.454c0.346-0.31,0.479-0.641,0.289-0.709
			c-0.188-0.068-0.619,0.163-0.959,0.478c-0.339,0.316-0.604,0.583-0.596,0.6c0.009,0.018-0.266-0.33-0.741-0.612
			c-2.096-1.247-5.673-0.001-6.914,3.396c-0.19,0.518-0.265,0.812-0.254,0.63c0.011-0.182-0.289-0.013-0.68,0.377
			c-0.311,0.309-0.619,0.616-0.926,0.922c-0.391,0.39-0.782,0.496-0.849,0.229c-0.045-0.177-0.076-0.341-0.087-0.487
			C13.234,21.273,13.275,20.563,13.397,19.891z M20.312,36.833c0.104-0.406,0.207-0.811,0.31-1.217
			c0.136-0.535,0.385-0.652,0.777-0.493c0.249,0.101,0.531,0.185,0.726,0.247c0.049,0.016,0.097,0.029,0.145,0.044
			c0.08,0.022,0.105,0.081,0.056,0.131c-0.03,0.029-0.06,0.06-0.089,0.089c-0.484,0.489-0.974,0.977-1.465,1.463
			C20.38,37.486,20.175,37.368,20.312,36.833z M38.367,37.212c-2.842,3.393-6.951,5.605-11.232,6.551
			c-0.238,0.053-1.994,0.316-3.854,0.327c-0.552,0.003-0.962-0.061-0.917-0.108c0.046-0.049-0.008-0.103-0.121-0.116
			c-0.068-0.009-0.136-0.019-0.203-0.031c-0.241-0.048-0.445-0.136-0.612-0.254c-0.301-0.214-0.581-0.349-0.774-0.153
			c-0.193,0.195-0.799,0.262-1.272-0.023c-0.173-0.104-0.322-0.223-0.444-0.358c-0.37-0.409-0.05-1.235,0.327-1.639
			c0.848-0.905,1.695-1.81,2.543-2.716c0.377-0.403,0.796-1.166,0.934-1.7c0.032-0.124,0.064-0.251,0.098-0.38
			c0.137-0.535,0.682-0.859,1.229-0.781c1.267,0.182,2.471,0.104,3.894-0.131c0.238-0.04,0.472-0.088,0.701-0.143
			c0.384-0.094,1.019-0.192,1.421-0.228s0.924-0.29,1.168-0.542c0.245-0.252,0.833-0.68,1.284-0.998
			c1.229-0.872,2.28-1.977,3.138-3.24c0.31-0.457,0.844-1.168,1.229-1.564c0.929-0.951,1.864-1.909,2.801-2.867
			c0.386-0.395,0.812-1.148,0.917-1.689c0.023-0.115,0.044-0.231,0.064-0.35c0.098-0.544-0.166-0.67-0.555-0.278
			c-0.587,0.591-1.166,1.175-1.742,1.755c-0.39,0.393-0.568,0.282-0.432-0.252c0.008-0.029,0.014-0.057,0.021-0.086
			c0.135-0.535,0.529-1.293,0.916-1.686c0.474-0.478,0.933-0.942,1.375-1.39c0.39-0.393,0.716-0.929,0.727-1.199
			c0.012-0.27-0.293-0.162-0.67,0.241c-0.438,0.47-0.878,0.94-1.316,1.41c-0.377,0.403-0.621,0.285-0.578-0.266
			c0.015-0.17,0.025-0.341,0.035-0.512c0.028-0.551,0.327-1.329,0.705-1.732c0.321-0.346,0.643-0.69,0.961-1.033
			c0.377-0.404,0.643-0.956,0.58-1.229c-0.062-0.273-0.441-0.178-0.835,0.21c-0.243,0.242-0.489,0.484-0.735,0.727
			c-0.393,0.388-0.746,0.257-0.823-0.29c-0.083-0.577-0.195-1.143-0.343-1.693c-0.084-0.319-0.18-0.628-0.282-0.929
			c-0.175-0.507-0.013-1.205,0.401-1.57c0.006-0.005,0.013-0.011,0.019-0.016c0.414-0.365,0.688-0.747,0.61-0.851
			c-0.08-0.104-0.457,0.115-0.842,0.488c-0.387,0.373-0.818,0.412-0.984,0.097c-0.165-0.315-0.047-0.825,0.285-1.148
			c0.332-0.323,0.592-0.595,0.58-0.607c-0.012-0.012-0.287,0.237-0.619,0.554s-0.338,0.31-0.01-0.011
			c0.328-0.321,0.566-0.609,0.533-0.645c-0.033-0.036-0.322,0.188-0.643,0.499c-0.321,0.311-0.817,0.183-1.15-0.257
			c-0.042-0.056-0.085-0.111-0.128-0.166c-0.342-0.434-0.454-0.942-0.209-1.171c0.246-0.229,0.212-0.589-0.087-0.791
			c-0.298-0.201-0.714-0.198-0.917-0.01s-0.599,0.143-0.899-0.081c-0.302-0.224-0.429-0.509-0.269-0.657s0.144-0.339-0.041-0.423
			c-0.183-0.084-0.452-0.042-0.597,0.086c-0.146,0.128-0.582,0.047-0.989-0.149c-0.408-0.197-0.679-0.404-0.591-0.491
			c0.088-0.087,0.059-0.185-0.066-0.213c-0.124-0.028-0.285,0.008-0.357,0.081c-0.071,0.073-0.424,0.022-0.793-0.093
			c-0.369-0.115-0.646-0.22-0.613-0.253c0.033-0.034-0.016-0.072-0.105-0.085c-0.093-0.013-0.189-0.002-0.216,0.023
			c-0.026,0.025-0.483-0.062-1.028-0.155C16.661,5.886,1.312,15.748,8.812,28.159c0.994,1.645,3.085,2.945,4.965,2.072
			c0.254-0.117,0.463-0.26,0.632-0.422c0.305-0.293,0.503-0.576,0.587-0.521c0.085,0.056,0.072,0.537-0.043,1.077
			c-0.63,2.961-1.478,5.869-1.726,9.018c-0.006,0.082-0.017,0.157-0.029,0.228c-0.023,0.125-0.184,0.125-0.343,0.004
			c-0.16-0.122-0.492-0.036-0.745,0.196c-0.253,0.23-0.86,0.217-1.306-0.109c-0.354-0.26-0.729-0.572-1.109-0.919
			c-0.409-0.372-0.486-0.933-0.191-1.231c0.295-0.299,0.484-0.6,0.424-0.672c-0.061-0.072-0.366,0.105-0.68,0.396
			C8.933,37.567,8.459,37.58,8.193,37.3c-0.266-0.281-0.205-0.762,0.131-1.07c0.335-0.308,0.441-0.772,0.242-1.045
			c-0.2-0.271-0.644-0.229-1.001,0.105c-0.357,0.333-0.941,0.266-1.296-0.158c-0.669-0.799-1.132-1.398-1.208-1.517
			c-0.047-0.073-0.09-0.148-0.133-0.224c-0.07-0.125,0.032-0.377,0.231-0.565c0.12-0.112,0.24-0.226,0.361-0.339
			c0.152-0.158,0.305-0.314,0.457-0.471c0.252-0.261,0.347-0.705,0.221-0.998s-0.462-0.295-0.758,0
			c-0.181,0.181-0.361,0.359-0.537,0.535c-0.106,0.113-0.212,0.227-0.319,0.34c-0.177,0.188-0.524-0.047-0.742-0.541
			c-0.217-0.494-0.054-1.217,0.338-1.607c0.143-0.143,0.287-0.286,0.43-0.428c0.392-0.391,0.703-0.729,0.693-0.756
			c-0.009-0.028-0.256,0.18-0.553,0.463c-0.296,0.283-0.718,0.685-0.935,0.902c-0.217,0.219-0.478,0.178-0.575-0.094
			c-0.098-0.271,0.151-0.811,0.544-1.197c0.17-0.168,0.341-0.336,0.511-0.504c0.393-0.388,0.651-0.951,0.586-1.261
			s-0.422-0.24-0.806,0.155c-0.199,0.207-0.398,0.412-0.598,0.617c-0.384,0.396-0.782,0.396-0.876-0.004
			c-0.093-0.399,0.156-1.048,0.541-1.444c0.236-0.244,0.471-0.486,0.706-0.729c0.385-0.396,0.645-1.163,0.608-1.714
			c-0.004-0.048-0.006-0.096-0.009-0.145c-0.034-0.55-0.355-0.685-0.749-0.297c-0.286,0.283-0.573,0.566-0.86,0.851
			C2.445,24.55,2.072,24.42,2.025,23.87c-0.045-0.514-0.077-1.027-0.095-1.54c0.003-0.091,0.009-0.181,0.016-0.271
			c0.011-0.149,0.345-0.576,0.747-0.955c0.401-0.378,0.803-0.756,1.203-1.136c0.401-0.38,0.749-0.871,0.785-1.092
			c0.036-0.222-0.245-0.083-0.634,0.31c-0.449,0.453-0.898,0.906-1.346,1.359c-0.389,0.392-0.671,0.265-0.607-0.284
			c0.051-0.433,0.113-0.861,0.188-1.284c0.095-0.544,0.508-1.3,0.894-1.695c0.652-0.667,1.303-1.333,1.951-1.994
			c0.387-0.394,0.858-1.134,1.077-1.641c0.106-0.247,0.218-0.491,0.333-0.733c0.238-0.498,0.13-0.581-0.267-0.197
			c-0.718,0.694-1.544,1.494-2.453,2.375c-0.396,0.384-0.713,0.682-0.708,0.664c0.006-0.017,0.332-0.344,0.727-0.729
			c0.844-0.822,1.708-1.664,2.502-2.437c0.396-0.385,0.729-0.719,0.745-0.747c0.016-0.027-0.292,0.263-0.687,0.649
			c-0.826,0.807-1.673,1.633-2.54,2.478c-0.396,0.385-0.575,0.274-0.373-0.24c0.216-0.551,0.452-1.088,0.709-1.612
			c0.243-0.496,0.781-1.198,1.176-1.583C7.729,9.236,10.159,6.87,12.7,4.397c0,0,0.197-0.185,0.44-0.413s0.837-0.618,1.341-0.845
			c0.478-0.216,0.964-0.414,1.458-0.593c0.52-0.188,0.783-0.155,0.579,0.044c-0.204,0.199,0.027,0.15,0.527-0.083
			c0.134-0.062,0.268-0.123,0.403-0.183C17.953,2.1,18.4,1.912,18.435,1.877c0.035-0.035,0.501-0.161,1.045-0.252
			c4.84-0.809,10.1,0.121,14.983,3.315C45.418,12.101,46.401,27.621,38.367,37.212z"/>
	</g>
</g>
<g>
</g>
<g>
</g>
<g>
</g>
<g>
</g>
<g>
</g>
<g>
</g>
<g>
</g>
<g>
</g>
<g>
</g>
<g>
</g>
<g>
</g>
<g>
</g>
<g>
</g>
<g>
</g>
<g>
</g>
</svg>
