<?xml version="1.0" encoding="iso-8859-1"?>
<!-- Generator: Adobe Illustrator 16.0.0, SVG Export Plug-In . SVG Version: 6.00 Build 0)  -->
<!DOCTYPE svg PUBLIC "-//W3C//DTD SVG 1.1//EN" "http://www.w3.org/Graphics/SVG/1.1/DTD/svg11.dtd">
<svg version="1.1" id="Capa_1" xmlns="http://www.w3.org/2000/svg" xmlns:xlink="http://www.w3.org/1999/xlink" x="0px" y="0px"
	 width="50.974px" height="50.974px" viewBox="0 0 50.974 50.974" style="enable-background:new 0 0 50.974 50.974;"
	 xml:space="preserve">
<g>
	<g>
		<path d="M44.098,25.905c-0.043-0.021-0.097-0.032-0.153-0.039c-0.087-0.011,0.497-0.627,1.122-1.538
			c2.103-3.067,2.585-7.254,0.486-11.255C41.598,5.527,30.158-0.413,21.7,0.739c-0.418,0.057-1.004,0.274-1.067,0.768
			c-0.865,6.732-0.372,13.509-0.244,20.261c0.021,1.105-0.202,2.029-0.475,2.103c-0.238,0.063-0.436,0.134-0.487,0.156
			C13.244,26.825,0.48,27.644,0,36.541c0.084,11.379,11.5,7.826,19.064,7.435c0.034-0.002,0.073-0.005,0.116-0.011
			c0.064-0.008,0.21,0.365,0.384,0.812c0.106,0.271,0.228,0.533,0.371,0.784c2.039,3.579,5.829,4.332,9.647,4.811
			c0.059,0.008,0.124,0.009,0.195,0.004c0.107-0.007,0.38-0.012,0.607-0.041c0.152-0.02,0.293-0.055,0.398-0.107
			c6.104-3.059,13.17-6.277,17.762-11.507C53.555,33.019,50.193,28.685,44.098,25.905z M18.922,28.534
			c-0.03,1.105-0.951,2.078-2.023,2.344c-2.401,0.596-4.808,1.853-5.904,3.861c-1.906,3.496,2.619,3.605,5.667,3.456
			c1.103-0.054,1.971,0.78,1.94,1.884c-0.01,0.363-0.02,0.727-0.03,1.089c-0.031,1.104-0.948,2.082-2.046,2.205
			c-0.816,0.092-1.645,0.189-2.472,0.273c-1.099,0.111-2.085,0.136-2.196,0.092c-0.111-0.044-0.246-0.041-0.304,0.014
			s-0.83,0.141-1.725,0.121c-0.894-0.019-1.257-0.437-0.816-0.838c0.44-0.402,0.493-1.058,0.208-1.525
			c-0.286-0.468-1.07-0.302-1.84,0.416c-0.771,0.72-2.273,1.017-3.125,0.312c-1.419-1.171-2.302-3.105-2.325-6.214
			c0.368-6.818,8.926-8.486,15.185-10.381c1.057-0.32,1.878,0.277,1.847,1.382C18.95,27.528,18.936,28.031,18.922,28.534z
			 M18.41,33.41c-0.025,0.624-0.05,1.249-0.075,1.873c-0.044,1.104-0.968,2.124-2.072,2.169c-1.944,0.08-3.829-0.221-3.613-2.204
			c0.19-1.744,2.034-2.869,3.883-3.436C17.589,31.489,18.454,32.306,18.41,33.41z M28.648,48.745
			c-0.158-0.029-0.16-0.184-0.004-0.342c0.158-0.158,0.285-0.134,0.287,0.054S28.807,48.774,28.648,48.745z M28.631,24.855
			c-0.168,7.022,0.146,14.053,0.266,21.078c0.02,1.104-0.127,2.164-0.318,2.365c-0.191,0.202-0.922,0.251-1.613,0.046
			c-0.691-0.206-0.703-1.004-0.047-1.703c0.656-0.7,0.842-1.928,0.618-2.808s-0.708-1.177-1.251-0.631
			c-0.327,0.33-0.653,0.658-0.982,0.99c-0.346,0.351-0.697,0.699-1.05,1.049c-0.582,0.576-1.729,0.426-2.247-0.55
			c-0.623-1.174-0.961-2.645-0.973-4.491c-0.019-3.103,0.798-6.228,1.19-9.294c1.095-8.556-0.585-17.476-0.023-26.104
			c0.054-0.828,0.011-1.441,0.057-1.879c0.109-1.032,1.218-0.788,1.039-0.604c-0.179,0.183-0.421,1.139-0.507,2.137
			c-0.086,0.997,0.125,1.559,0.437,1.251c0.188-0.187,0.376-0.372,0.565-0.558c0.431-0.477,0.857-0.952,1.282-1.428
			c0.705-0.791,2.079-1.262,3.051-0.973c0.589,0.176,1.173,0.367,1.748,0.562c3.254,1.104,6.242,2.915,8.985,4.955
			c2.771,2.062,4.701,4.515,5.6,7.854c1.268,4.705-0.761,9.676-5.158,11.054c-1.055,0.33-1.938-0.54-1.894-1.643
			c0.104-2.637,0.164-5.575-1.082-7.755c-0.976-1.706-3.83-3.907-5.865-2.24C27.838,17.682,28.702,21.844,28.631,24.855z
			 M30.747,39.786c-0.022-1.104-0.03-2.004-0.019-2.009c1.863-0.864,9.963-6.072,9.187-0.715c-0.305,2.108-3.153,3.89-4.7,5.003
			c-0.884,0.635-1.799,1.227-2.709,1.823c-0.924,0.604-1.674,0.22-1.695-0.886C30.791,41.931,30.77,40.859,30.747,39.786z
			 M44.819,40.514c-3.419,2.993-7.509,5.267-11.601,7.352c-0.984,0.501-1.787,0.805-1.789,0.688s-0.058-0.236-0.125-0.268
			c-0.068-0.03-0.188,0.012-0.27,0.094c-0.057,0.058-0.107-0.172-0.135-0.554c-0.025-0.334-0.036-0.933,0.02-1.33
			c0.053-0.368,0.145-0.626,0.254-0.659c0.129-0.04,0.234-0.084,0.295-0.129c2.297-1.732,4.805-3.154,7.067-4.94
			c1.748-1.379,4.067-3.412,3.039-5.858c-1.196-2.845-5.886-0.703-9.14,1.043c-0.973,0.522-1.771,0.07-1.791-1.034
			c-0.075-4.039-0.113-8.079-0.018-12.119c0.023-0.962-0.025-1.928-0.014-2.891c0.033-2.977,3.107-3.374,4.205-0.554
			c1.005,2.584,0.598,5.709,0.559,8.427c0,0.041,0.006,0.077,0.016,0.11c0.019,0.06-0.338,0.35-0.241,0.732
			c0.041,0.166,0.219,0.288,0.596,0.302c1.827,0.067,3.519-0.287,5.004-0.965c1.005-0.457,1.611-0.874,1.462-0.726
			c-0.148,0.147-0.035,0.177,0.24,0.037c0.275-0.142,1.312,0.09,2.284,0.615c2.094,1.132,3.983,2.617,4.544,5.059
			C49.967,35.934,46.758,38.817,44.819,40.514z"/>
		<path d="M27.088,28.487c-1.07,1.044-2.135,2.085-3.194,3.121c-0.79,0.772-1.436,1.442-1.445,1.498
			c-0.009,0.056,0.634-0.516,1.437-1.273c1.075-1.017,2.133-2.018,3.176-3.007c0.803-0.76,1.453-1.456,1.455-1.556
			C28.518,27.169,27.877,27.713,27.088,28.487z"/>
		<path d="M27.26,12.362c0.498-0.455,0.899-0.865,0.9-0.916c0.001-0.051-0.402,0.319-0.9,0.824
			C26.762,12.774,26.762,12.816,27.26,12.362z"/>
		<path d="M26.596,34.594c-1.22,1.109-2.387,2.176-3.486,3.182c-0.345,0.314-0.668,0.68-0.927,1.034
			c-0.454,0.62-0.333,1.601,0.099,1.333c0.208-0.13,0.451-0.326,0.708-0.584c1.142-1.146,2.297-2.304,3.471-3.479
			c0.231-0.234,0.464-0.473,0.695-0.71c0.383-0.393,0.747-1.025,0.81-1.417C28.026,33.564,27.412,33.85,26.596,34.594z"/>
		<path d="M23.293,13.435c0.201-0.151,0.432-0.357,0.677-0.607c0.946-0.97,1.886-1.933,2.82-2.89
			c0.771-0.79,1.406-1.701,1.425-2.034c0.018-0.333-0.619,0.014-1.4,0.795c-0.84,0.839-0.273,0.344-2.827,2.815
			c-0.317,0.307-0.61,0.638-0.847,0.949C22.716,13.024,22.892,13.738,23.293,13.435z"/>
		<path d="M40.061,15.879c-0.021-0.009-0.678,0.599-1.457,1.357c-0.78,0.76-1.402,1.4-1.393,1.43s0.656-0.572,1.465-1.368
			C39.463,16.524,40.083,15.889,40.061,15.879z"/>
		<path d="M24.239,19.63c0.852-0.798,1.698-1.59,2.538-2.378c0.806-0.756,1.451-1.655,1.443-2.01
			c-0.006-0.354-0.674-0.035-1.47,0.73c-0.583,0.562-1.386,1.345-2.585,2.527c-0.786,0.776-1.414,1.65-1.405,1.952
			C22.77,20.753,23.432,20.385,24.239,19.63z"/>
		<path d="M26.868,20.247c-0.849,0.788-1.698,1.577-2.547,2.365c-0.809,0.752-1.452,1.985-1.441,2.756
			c0.01,0.771,0.667,0.788,1.477,0.037c0.867-0.804,1.734-1.607,2.601-2.412c0.81-0.751,1.446-1.975,1.421-2.733
			C28.355,19.5,27.678,19.495,26.868,20.247z"/>
		<path d="M40.819,18.675c0.753-0.669,1.345-1.24,1.319-1.276c-0.024-0.037-0.637,0.505-1.364,1.211S40.064,19.344,40.819,18.675z"
			/>
		<path d="M37.291,18.895c0.032,0.089,0.703-0.455,1.503-1.218c0.089-0.084,0.177-0.167,0.265-0.251
			c0.799-0.763,1.363-1.417,1.261-1.457c-0.104-0.04-0.831,0.561-1.655,1.366C37.873,18.108,37.26,18.807,37.291,18.895z"/>
		<path d="M11.772,27.671c-0.528,0.347-1.039,0.746-1.417,1.122c-1.961,1.951-3.881,3.86-5.743,5.71
			c-0.352,0.379-0.706,0.755-1.06,1.131c-0.587,0.624-1.058,1.581-1.011,2.134c0.047,0.552,0.782,0.381,1.586-0.375
			c0.489-0.46,0.98-0.921,1.477-1.388c2.666-2.759,5.329-5.508,7.98-8.218c0.236-0.243,0.471-0.484,0.706-0.728
			c0.265-0.272,0.16-0.407-0.213-0.375C13.682,26.719,12.609,27.124,11.772,27.671z"/>
	</g>
</g>
<g>
</g>
<g>
</g>
<g>
</g>
<g>
</g>
<g>
</g>
<g>
</g>
<g>
</g>
<g>
</g>
<g>
</g>
<g>
</g>
<g>
</g>
<g>
</g>
<g>
</g>
<g>
</g>
<g>
</g>
</svg>
