<?xml version="1.0" encoding="iso-8859-1"?>
<!-- Generator: Adobe Illustrator 16.0.0, SVG Export Plug-In . SVG Version: 6.00 Build 0)  -->
<!DOCTYPE svg PUBLIC "-//W3C//DTD SVG 1.1//EN" "http://www.w3.org/Graphics/SVG/1.1/DTD/svg11.dtd">
<svg version="1.1" id="Capa_1" xmlns="http://www.w3.org/2000/svg" xmlns:xlink="http://www.w3.org/1999/xlink" x="0px" y="0px"
	 width="38.083px" height="38.083px" viewBox="0 0 38.083 38.083" style="enable-background:new 0 0 38.083 38.083;"
	 xml:space="preserve">
<g>
	<g>
		<path d="M1.93,3.444c-2.808,2.044-1.421,6.26-1.368,9.341c0.075,4.342-0.839,9.625,1.019,13.667
			c2.802,6.095,8.565,11.365,15.545,11.615c6.769,0.243,12.583-2.395,16.9-7.62c3.04-3.681,3.693-6.229,3.693-10.707
			c0-3.691,0-7.38,0-11.07c0-0.946,0.507-3.591-0.13-4.382c-3.56-4.418-12.992-4.117-17.883-4.276
			C14.079-0.041,6.753-0.07,1.93,3.444z M2.363,4.708C2.336,3.148,4.15,2.198,6.578,1.62c1.075-0.255,1.334,0.261,0.558,1.045
			C6.028,3.783,4.923,4.902,3.816,6.021C3.04,6.807,2.399,6.831,2.388,6.076C2.379,5.62,2.371,5.164,2.363,4.708z M2.737,23.038
			c-0.097-0.83,0.045-1.655,0.227-1.834c0.108-0.108,0.218-0.217,0.326-0.325c0.156-0.171,0.312-0.343,0.47-0.514
			c0.259-0.284,0.111-0.169-0.329,0.256s-0.808,0.363-0.812-0.139c-0.005-0.502,0.631-1.539,1.417-2.313
			c0.244-0.241,0.488-0.482,0.733-0.723c0.786-0.776,1.959-0.731,2.794-0.091c0.835,0.639,0.924,1.722,0.141,2.501
			c-1.108,1.104-2.198,2.188-3.271,3.255C3.649,23.891,2.833,23.867,2.737,23.038z M9.966,12.375
			c2.73,2.042,5.463,4.083,8.193,6.125c0.401,0.299,1.451-0.162,1.783-0.41c1.792-1.339,3.584-2.679,5.376-4.018
			c0.939-0.702,1.879-1.404,2.818-2.106c1.61-1.204,2.438,0.635,2.35,2.361c-0.057,1.103-1.32,2.411-2.205,3.073
			c-2.099,1.568-4.198,3.137-6.296,4.706c-1.093,0.816-2.196,2.271-3.671,1.169c-1.41-1.055-2.819-2.107-4.229-3.161
			c-1.588-1.187-3.176-2.374-4.763-3.56c-0.351-0.262-0.702-0.525-1.052-0.787C6.241,14.25,8.406,11.209,9.966,12.375z
			 M36.102,9.756c-0.026,0.389-0.064,0.759-0.104,1.079c-0.074,0.594-0.13,1.22-0.133,1.471c-0.001,0.13-0.009,0.285-0.022,0.455
			c-0.034,0.403-0.057,0.742-0.057,0.988c0,3.097,1.005,8.12-0.139,11.043c-2.103,5.376-6.23,10.03-11.669,11.809
			c-1.05,0.344-2.453,0.357-3.076,0.136c-0.623-0.223-1.354-0.207-1.652,0.089c-0.298,0.296-1.44,0.519-2.526,0.324
			c-0.28-0.051-0.558-0.109-0.831-0.176c-1.073-0.261-1.4-1.111-0.778-1.735s0.887-1.319,0.604-1.565
			c-0.284-0.246-0.84-0.144-1.24,0.248c-0.401,0.394-0.387,0.467-0.916,0.949c-0.529,0.483-1.761,0.473-2.676-0.146
			c-0.229-0.154-0.453-0.314-0.676-0.48c-0.885-0.661-0.906-1.915-0.131-2.701c0.192-0.195,0.386-0.39,0.578-0.585
			c0.776-0.786,1.383-1.456,1.356-1.496s-0.705,0.537-1.517,1.287c-0.214,0.199-0.429,0.397-0.643,0.596
			c-0.811,0.75-1.769,1.073-2.121,0.702c-0.352-0.37,0.038-1.287,0.851-2.034c0.311-0.283,0.62-0.567,0.93-0.853
			c0.812-0.747,1.279-1.689,1.06-2.112c-0.221-0.423-1.042-0.164-1.851,0.589c-0.395,0.367-0.788,0.734-1.183,1.102
			c-0.808,0.753-2.013,0.654-2.61-0.274c-0.418-0.648-0.806-1.313-1.157-1.992c-0.042-0.082-0.08-0.163-0.115-0.242
			c-0.06-0.136,0.515-0.889,1.283-1.682c1.091-1.127,2.182-2.25,3.269-3.36c0.177-0.183,0.352-0.362,0.525-0.542
			c0.29-0.3,0.519-0.896,0.511-1.332c-0.008-0.438,0.162-0.673,0.376-0.522c0.13,0.092,0.259,0.186,0.384,0.279
			c2.639,1.971,6.693,6.761,10.447,5.077c3.449-1.548,6.586-4.454,9.629-6.917c0.858-0.695,1.589-1.248,1.604-1.268
			c0.015-0.021,0.752-0.673,1.043-1.739c0.725-2.652-3.265-3.943-5.869-2.415c-0.99,0.581-1.95,1.242-2.893,1.943
			c-0.887,0.659-1.622,1.241-1.661,1.274c-0.024,0.02-0.047,0.041-0.069,0.062c-0.479,0.38-0.956,0.764-1.431,1.145
			c-0.789,0.634-1.706,0.918-2.034,0.635c-0.328-0.283,0.012-1.079,0.753-1.772c0.742-0.694,1.229-1.34,1.09-1.445
			c-0.14-0.104-0.826,0.382-1.533,1.087s-1.827,0.784-2.513,0.189c-0.685-0.594-0.742-1.587-0.107-2.24
			c0.636-0.653,0.883-1.305,0.528-1.361c-0.354-0.057-0.859,0.179-1.121,0.43c-0.154,0.147-0.311,0.297-0.475,0.454
			c-0.164,0.163-0.325,0.323-0.485,0.483c-0.268,0.267-1.189-0.075-2.142-0.636c-1.287-0.759-2.574-1.229-3.769-1.107
			c-1.292,0.132-3.522,1.035-3.601,2.621c-0.009,0.196-0.003,0.383,0.016,0.563c0.032,0.31-0.522,1.196-1.292,1.989
			c-0.048,0.049-0.095,0.098-0.143,0.148c-0.77,0.793-1.401,0.911-1.412,0.264s0.604-1.815,1.374-2.607
			c1.288-1.324,2.534-2.602,3.727-3.824c0.772-0.791,1.389-2.018,1.376-2.741c-0.012-0.723-0.66-0.681-1.447,0.094
			C6.376,8.654,5.151,9.86,3.92,11.073c-0.786,0.775-1.439,0.51-1.459-0.595c0-0.02,0-0.039-0.001-0.059
			c-0.019-1.104,0.611-2.62,1.408-3.386c0.649-0.625,1.299-1.252,1.949-1.885C6.695,4.26,7.576,3.376,8.456,2.493
			c0.78-0.783,2.3-1.52,3.401-1.597c0.179-0.012,0.356-0.024,0.533-0.034c1.102-0.066,1.719,0.187,1.375,0.525
			s0.112,0.341,1.046,0.092c0.933-0.249,1.781-0.469,1.875-0.564c0.095-0.096,0.219-0.172,0.279-0.172
			c0.059,0,0.043,0.066-0.036,0.148c-0.079,0.081-0.115,0.142-0.081,0.136c0.035-0.006,0.122-0.071,0.194-0.146
			c0.073-0.075,0.415-0.135,0.765-0.131c0.263,0.003,0.477,0.006,0.631,0.007c5.179,0.169,12.757,0.116,17,3.834
			C36.244,5.294,36.249,7.587,36.102,9.756z"/>
		<path d="M8.96,24.891c-0.241,0.25-0.22,0.272,0.029,0.029c0.264-0.257,0.438-0.438,0.431-0.455S9.227,24.614,8.96,24.891z"/>
		<path d="M25.8,23.994c0.215,0.077,1.026-0.532,1.8-1.32c1.877-1.914,3.754-3.83,5.63-5.751c0.771-0.791,0.731-0.833-0.088-0.093
			c-2.149,1.94-4.255,3.848-6.239,5.651C26.084,23.223,25.584,23.917,25.8,23.994z"/>
	</g>
</g>
<g>
</g>
<g>
</g>
<g>
</g>
<g>
</g>
<g>
</g>
<g>
</g>
<g>
</g>
<g>
</g>
<g>
</g>
<g>
</g>
<g>
</g>
<g>
</g>
<g>
</g>
<g>
</g>
<g>
</g>
</svg>
