<?xml version="1.0" encoding="iso-8859-1"?>
<!-- Generator: Adobe Illustrator 16.0.0, SVG Export Plug-In . SVG Version: 6.00 Build 0)  -->
<!DOCTYPE svg PUBLIC "-//W3C//DTD SVG 1.1//EN" "http://www.w3.org/Graphics/SVG/1.1/DTD/svg11.dtd">
<svg version="1.1" id="Capa_1" xmlns="http://www.w3.org/2000/svg" xmlns:xlink="http://www.w3.org/1999/xlink" x="0px" y="0px"
	 width="50.568px" height="50.568px" viewBox="0 0 50.568 50.568" style="enable-background:new 0 0 50.568 50.568;"
	 xml:space="preserve">
<g>
	<g>
		<path d="M13.455,37.271c-6.35-6.406-8.699-16.793-5.863-25.342C10.969,1.75,24.211-0.442,33.347,1.521
			c14.89,3.201,12.207,23.503,6.119,33.04c-0.168,0.262,1.599,0.161,1.908-0.326c4.381-6.861,6.266-15.711,3.967-23.627
			C43.025,2.635,35.148-0.232,27.511,0.015C19.84,0.263,12.051,2.646,7.338,9.054c-6.115,8.318-2.375,22.154,4.301,28.889
			C12.008,38.313,13.789,37.606,13.455,37.271z"/>
		<path d="M22.203,9.538c-3.783,1.14-7.322,2.748-8.543,6.813c-1.35,4.492,0.986,9.877,1.732,14.296
			c0.059,0.348,2.006-0.077,1.932-0.519c-0.973-5.767-4.471-13.526,0.824-18.137c4.889-4.254,12.198-2.518,15.382,2.421
			c2.016,3.13,1.604,7.192,0.524,10.539c-0.102,0.317,1.752,0.107,1.9-0.358C38.988,15.188,32.247,6.51,22.203,9.538z"/>
		<path d="M17.287,49.635c0.046,0.031,0.131,0.052,0.266,0.057c3.457,0.125,14.462,3.099,15.464-2.666
			c0.918-5.281,2.084-13.968-3.526-16.923c-3.707-1.951-7.644-0.245-9.412,3.268c-2.438,4.841-1.627,10.674-2.875,15.814
			c-0.014,0.056-0.003,0.101,0.023,0.138C17.274,49.388,17.161,49.551,17.287,49.635z M21.684,33.306
			c0.881-1.933,2.165-3.18,4.092-3.011c0.018,0.002,0.036,0.005,0.054,0.009c0.029,0.006-0.583,0.641-1.365,1.42
			c-0.604,0.602-1.284,1.28-2.048,2.045C21.635,34.55,21.226,34.311,21.684,33.306z M19.524,45.755
			c0.044-0.5,0.087-1.029,0.133-1.584c0.093-1.101,0.442-2.262,0.77-2.594s0.331-0.36,0.007-0.062
			c-0.325,0.298-0.545,0.075-0.481-0.495c0.063-0.572,0.782-1.641,1.596-2.388c0.372-0.343,0.745-0.685,1.117-1.028
			c0.812-0.748,1.604-1.93,1.823-2.619c0.219-0.691-0.21-0.625-1.02,0.127c-0.545,0.506-1.09,1.012-1.635,1.518
			c-0.809,0.752-1.377,0.837-1.241,0.196c0.136-0.642,0.927-1.766,1.734-2.52c0.904-0.845,1.807-1.689,2.706-2.529
			c0.807-0.755,2.375-1.246,3.333-0.695c3.505,2.018,3.421,7.395,3.106,11.154c-0.155,1.865-0.157,3.849-0.477,5.683
			c-0.369,2.125-5.671,1.628-9.29,1.19c-1.097-0.133-1.354-0.875-0.574-1.658c0.084-0.085,0.168-0.169,0.252-0.253
			c0.78-0.783,1.449-1.753,1.492-2.166c0.044-0.414-0.502-0.215-1.21,0.452s-1.062,1.085-1.52,1.503
			C19.688,47.406,19.428,46.856,19.524,45.755z"/>
		<path d="M23.688,26.034c5.36,1.207,7.84-6.659,4.2-9.841c-0.166-0.145-0.501-0.141-0.842-0.06
			c-0.469,0.112-0.812,0.343-0.833,0.341c-0.012-0.002-0.023-0.003-0.037-0.003c-2.66-0.11-5.16,1.254-6.023,3.85
			C19.254,23.027,21.083,25.448,23.688,26.034z M27.449,19.322c0.12,0.509,0.177,1.04,0.19,1.569
			c0.037,1.349-0.588,4.351-2.401,4.253c-0.076-0.004-0.148-0.016-0.219-0.028c-0.119-0.022,0.015-0.271,0.3-0.552
			c0.285-0.281,0.314-0.768,0.135-1.127c-0.178-0.36-0.646-0.283-1.12,0.205c-0.474,0.488-1.046,0.755-1.247,0.564
			c-0.202-0.19,0.177-0.9,0.807-1.548c0.631-0.648,1.142-1.191,1.142-1.214s-0.518,0.493-1.156,1.152
			c-0.64,0.659-1.177,1.167-1.196,1.131c-0.02-0.035,0.497-0.605,1.157-1.272c0.661-0.667,1.229-2.133,1.747-3.101
			C26.104,18.385,27.248,18.471,27.449,19.322z M22.02,20.38c0.282-1.63,1.409-3.03,3.369-2.949
			c0.134,0.005,0.303-0.031,0.475-0.093c0.253-0.091,0.576-0.074,0.725,0.112c0.149,0.187-0.13,0.701-0.599,1.133
			c-0.288,0.266-0.573,0.528-0.85,0.783c-0.537,0.528-1.08,1.061-1.625,1.596C22.726,21.737,21.831,21.469,22.02,20.38z"/>
		<path d="M23.175,40.926c-0.088,0.084-0.086,0.087,0.002,0.003C23.266,40.846,23.264,40.842,23.175,40.926z"/>
	</g>
</g>
<g>
</g>
<g>
</g>
<g>
</g>
<g>
</g>
<g>
</g>
<g>
</g>
<g>
</g>
<g>
</g>
<g>
</g>
<g>
</g>
<g>
</g>
<g>
</g>
<g>
</g>
<g>
</g>
<g>
</g>
</svg>
