<?xml version="1.0" encoding="iso-8859-1"?>
<!-- Generator: Adobe Illustrator 16.0.0, SVG Export Plug-In . SVG Version: 6.00 Build 0)  -->
<!DOCTYPE svg PUBLIC "-//W3C//DTD SVG 1.1//EN" "http://www.w3.org/Graphics/SVG/1.1/DTD/svg11.dtd">
<svg version="1.1" id="Capa_1" xmlns="http://www.w3.org/2000/svg" xmlns:xlink="http://www.w3.org/1999/xlink" x="0px" y="0px"
	 width="42.21px" height="42.21px" viewBox="0 0 42.21 42.21" style="enable-background:new 0 0 42.21 42.21;" xml:space="preserve"
	>
<g>
	<g>
		<path d="M7.016,39.154c-0.127-0.135-0.244-0.277-0.35-0.43c-0.035-0.051-0.065-0.097-0.095-0.146
			c-0.575-0.965-0.492-1.533-0.55-1.636c-0.023-0.115-0.108,0.213-0.015,0.769c0.087,0.553,0.443,1.305,1.025,1.867
			c0.138,0.14,0.287,0.266,0.44,0.38c0.553,1.321,1.856,2.251,3.378,2.251h0.685c2.022,0,3.661-1.642,3.661-3.662v-7.644
			c0-2.021,1.169-3.662,2.612-3.662c1.443,0,2.613,0,2.613,0c3.625,0,6.393-0.19,8.306-0.564c1.411-0.309,2.793-0.938,4.157-1.883
			c1.359-0.945,2.479-2.25,3.361-3.912c0.89-1.662,1.33-3.703,1.33-6.144c0-2.882-0.648-5.271-1.926-7.187
			c-0.101-0.235-0.197-0.473-0.313-0.701c-1.07-2.018-2.75-3.685-4.735-4.688c-0.845-0.471-1.896-0.867-3.048-1.014
			c-2.396-0.305-4.895-0.239-6.312-0.572c-0.103-0.228,3.957,0.105,3.825-0.138c-2.408-0.637-8.431-0.527-10.1-0.018l-2.984-0.114
			L10.48,0.238C9.977,0.226,9.509,0.152,8.862,0.23C7.635,0.385,6.499,1.062,5.773,2.094C5.41,2.605,5.152,3.199,5.025,3.824
			c-0.07,0.293-0.089,0.674-0.103,0.909L4.885,5.485c-0.191,4.007-0.322,7.973-0.208,11.763c0.171,1.922,0.321,0.904,0.482,1.474
			c-0.562,9.286,0.595,20.456,1.505,17.804C5.792,26.861,6.017,16.419,6.266,5.958c0.03-0.64-0.004-1.35,0.092-1.901
			C6.458,3.476,6.735,2.939,7.111,2.5C7.498,2.067,7.99,1.733,8.535,1.561C8.82,1.466,9.066,1.423,9.36,1.406l0.245-0.008
			l0.22,0.004l0.489,0.009c2.606,0.049,5.2,0.081,7.772,0.083c2.567,0,5.107-0.015,7.59,0.102c1.25,0.063,2.444,0.157,3.589,0.539
			c0.261,0.082,0.517,0.178,0.77,0.279c0.042,0.02,0.082,0.042,0.124,0.062c-0.753-0.294-1.525-0.518-2.314-0.619
			C26.899,1.753,25.887,1.75,24.9,1.754l-5.91,0.104c0.2,0.396,5.174,0.547,8.13,0.352c0.624,0.144-0.444,0.123-0.073,0.241
			c1.167,0.103,2.399,0.376,3.571,0.87c1.167,0.487,2.24,1.218,3.07,1.973c-0.014-0.002-0.012,0.012-0.02,0.014
			c-1.199-1.043-2.562-1.774-4.1-2.176c-1.479-0.396-4.654-0.593-9.523-0.593H10.85c-2.023,0-3.662,1.64-3.662,3.661v32.348
			c0,0.303,0.047,0.593,0.117,0.875c-0.034-0.03-0.071-0.059-0.104-0.089C7.139,39.274,7.075,39.217,7.016,39.154z M15.197,12.908
			c0-2.021,0.867-3.662,1.937-3.662s1.938,0,1.938,0c2.883,0,4.802,0.095,5.766,0.272c1.295,0.235,2.368,0.823,3.218,1.761
			c0.847,0.936,1.271,2.129,1.271,3.572c0,1.168-0.303,2.197-0.91,3.084c-0.598,0.885-1.438,1.533-2.506,1.947
			c-1.06,0.416-3.165,0.625-6.327,0.625h-2.193c-1.211,0-2.193-1.64-2.193-3.661L15.197,12.908L15.197,12.908z"/>
	</g>
</g>
<g>
</g>
<g>
</g>
<g>
</g>
<g>
</g>
<g>
</g>
<g>
</g>
<g>
</g>
<g>
</g>
<g>
</g>
<g>
</g>
<g>
</g>
<g>
</g>
<g>
</g>
<g>
</g>
<g>
</g>
</svg>
