<?xml version="1.0" encoding="iso-8859-1"?>
<!-- Generator: Adobe Illustrator 16.0.0, SVG Export Plug-In . SVG Version: 6.00 Build 0)  -->
<!DOCTYPE svg PUBLIC "-//W3C//DTD SVG 1.1//EN" "http://www.w3.org/Graphics/SVG/1.1/DTD/svg11.dtd">
<svg version="1.1" id="Capa_1" xmlns="http://www.w3.org/2000/svg" xmlns:xlink="http://www.w3.org/1999/xlink" x="0px" y="0px"
	 width="32.616px" height="32.616px" viewBox="0 0 32.616 32.616" style="enable-background:new 0 0 32.616 32.616;"
	 xml:space="preserve">
<g>
	<g>
		<path d="M31.342,7.532c-0.357-1.329-1.091-2.523-1.895-3.314c-0.799-0.804-1.611-1.246-2.138-1.414
			c-0.514-0.369-1.059-0.69-1.622-0.97c-0.562-0.274-1.144-0.537-1.812-0.7c-1.248-0.307-2.5-0.439-3.738-0.491l-7.231-0.37
			C10.501,0.158,8.109,0.062,5.75,0.011c-0.329,0.011-0.452-0.06-1.192,0.057c-0.504,0.1-0.977,0.305-1.387,0.589
			C2.354,1.222,1.759,2.12,1.609,3.145C1.57,3.445,1.57,3.558,1.558,3.702L1.531,4.135L1.479,4.999L1.397,6.712
			C1.442,9.026,1.707,7.82,1.853,8.517C0.405,19.584,0.856,33.053,2.168,29.955c-0.116-5.66,0.095-11.519,0.477-17.48
			c0.192-2.978,0.42-5.997,0.685-9.002c0.084-0.69,0.58-1.308,1.22-1.559c0.288-0.118,0.568-0.138,0.905-0.129
			C4.796,2.118,4.312,2.776,4.26,3.543L2.389,30.371c-0.057,0.824,0.396,1.533,1.092,1.836H3.24c-0.041,0-0.083,0-0.123-0.002
			c-0.041-0.002-0.082-0.005-0.123-0.009c-0.063-0.005-0.117-0.021-0.177-0.03c-0.102-0.018-0.204-0.035-0.302-0.072
			c-0.048-0.019-0.089-0.039-0.133-0.061c-0.109-0.054-0.213-0.111-0.3-0.177c-0.015-0.011-0.03-0.022-0.045-0.033
			c-0.329-0.266-0.49-0.592-0.56-0.825C1.371,30.67,1.388,30.478,1.365,30.4c-0.008-0.143-0.188,0.255,0.029,0.912
			c0.114,0.32,0.365,0.68,0.759,0.927c0.382,0.263,0.939,0.315,1.383,0.316c0.935,0.036,1.85,0.065,2.541,0.06
			c0.03,0,0.06-0.01,0.089-0.012c0.01-0.001,0.021,0,0.029-0.001c0.115-0.009,0.229-0.025,0.336-0.048
			c0.028-0.006,0.055-0.016,0.083-0.022c0.034-0.009,0.068-0.02,0.103-0.03c0.026-0.009,0.058-0.014,0.082-0.022
			c0.044-0.017,0.084-0.04,0.127-0.058c0.045-0.019,0.089-0.034,0.132-0.056H7.13c1.104,0,2.062-0.893,2.14-1.995l1.537-21.92
			c0.045-0.639,0.39-1.192,0.882-1.546c0.133-0.01,0.267-0.017,0.41-0.002l2.232,0.051l4.455,0.065
			c1.371,0.055,2.695,0.697,3.319,1.888c0.312,0.564,0.526,1.291,0.51,1.882c-0.036,0.63-0.286,1.252-0.701,1.761
			c-0.84,1.029-2.189,1.676-3.519,2.074c-0.272,0.063-0.66,0.106-1.003,0.13c-0.347,0.03-0.686,0.016-1.069,0.015l-2.211-0.015
			c-0.203,0.003-0.324-0.012-0.595,0.006c-0.069,0-0.224,0.028-0.375,0.075c-0.135,0.048-0.246,0.1-0.353,0.169
			c-0.426,0.277-0.681,0.667-0.852,1.056c-0.334,0.767-0.415,1.683-0.09,2.488c0.309,0.764,0.768,1.418,1.411,1.944
			c0.325,0.255,0.718,0.489,1.215,0.531c0.443,0.017,0.75-0.005,1.131-0.006c0.738-0.029,1.427,0.011,2.201-0.078
			c0.728-0.078,1.424-0.094,2.187-0.231c0.792-0.156,1.562-0.341,2.325-0.547c0.688-0.136,1.363-0.304,1.856-0.476
			c0.614-0.214,1.174-0.437,1.72-0.748c3.744-2.142,5.073-4.708,5.535-6.439c0.269-1.009,0.289-2.682,0.135-3.783
			C31.516,8.324,31.449,7.931,31.342,7.532z M20.461,14.807c-0.271,0.104-0.522,0.188-0.739,0.254
			c-0.413,0.127-1.035,0.196-1.379,0.193c-0.345-0.004-0.622-0.007-0.622-0.007l-2.964-0.026c-1.104-0.01-1.841,0.864-1.644,1.952
			l0.267,1.479c0.166,0.918,0.945,1.679,1.849,1.89c-0.366-0.004-0.74,0.068-1.072-0.07c-0.349-0.129-0.657-0.361-0.924-0.627
			c-0.523-0.543-0.949-1.213-1.106-1.965c-0.112-0.754,0.062-1.571,0.542-2.187c0.233-0.306,0.623-0.525,1.018-0.511l1.156,0.001
			c1.527-0.041,3.137,0.198,4.557-0.473c1.404-0.562,2.842-1.457,3.4-2.916c0.133-0.36,0.203-0.734,0.213-1.122
			c-0.01-0.369-0.097-0.759-0.208-1.123c-0.232-0.733-0.651-1.415-1.241-1.91c-0.587-0.502-1.33-0.797-2.093-0.925
			c-0.764-0.133-1.559-0.077-2.342-0.098l-4.61-0.078c0.139-0.027,0.28-0.041,0.426-0.038c1.6,0.032,3.994,0.068,6.571,0.068
			c4.573,0,4.686,4.065,4.686,4.065C24.177,12.965,22.003,14.214,20.461,14.807z"/>
	</g>
</g>
<g>
</g>
<g>
</g>
<g>
</g>
<g>
</g>
<g>
</g>
<g>
</g>
<g>
</g>
<g>
</g>
<g>
</g>
<g>
</g>
<g>
</g>
<g>
</g>
<g>
</g>
<g>
</g>
<g>
</g>
</svg>
