<?xml version="1.0" encoding="iso-8859-1"?>
<!-- Generator: Adobe Illustrator 16.0.0, SVG Export Plug-In . SVG Version: 6.00 Build 0)  -->
<!DOCTYPE svg PUBLIC "-//W3C//DTD SVG 1.1//EN" "http://www.w3.org/Graphics/SVG/1.1/DTD/svg11.dtd">
<svg version="1.1" id="Capa_1" xmlns="http://www.w3.org/2000/svg" xmlns:xlink="http://www.w3.org/1999/xlink" x="0px" y="0px"
	 width="51.778px" height="51.777px" viewBox="0 0 51.778 51.777" style="enable-background:new 0 0 51.778 51.777;"
	 xml:space="preserve">
<g>
	<g>
		<path d="M40.896,11.937c-1.094-0.154-1.996-1.015-2.07-2.116c-0.146-2.115-0.53-4.183-1.509-5.984
			c-2.813-5.19-12.23-3.734-16.87-3.374c-6.415,0.498-7.661,5.864-7.781,11.143c-0.025,1.104-0.889,2.118-1.962,2.38
			c-2.755,0.672-5.242,1.921-7.154,4.161c-3.319,3.887-2.974,11.019-1.179,15.418c1.5,3.678,4.813,5.704,8.5,6.133
			c1.097,0.127,1.982,0.972,2.033,2.074c0.089,1.972,0.376,3.919,1.218,5.471c3.144,5.797,11.76,4.549,17.248,4.122
			c6.324-0.491,7.608-5.769,7.752-10.973c0.029-1.104,0.898-2.1,1.978-2.338c2.983-0.658,5.562-1.971,7.152-4.433
			C53.367,25.71,50.476,13.287,40.896,11.937z M40.759,13.324c0.632,0.123,0.691,0.701,0.154,1.201s-1.046,0.4-1.143-0.223
			C39.675,13.679,40.128,13.202,40.759,13.324z M4.462,19.813c0.261-0.566,0.556-1.109,0.888-1.622
			c0.8-1.238,1.961-2.106,3.349-2.71c1.013-0.441,1.254-0.01,0.467,0.765c-1.308,1.288-2.623,2.585-3.943,3.888
			C4.435,20.91,4.035,20.743,4.462,19.813z M13.362,29.717c-0.164,0.14-0.324,0.286-0.479,0.439c-1.56,1.529-1.332,4.148-0.986,6.49
			c0.161,1.094-0.609,1.926-1.668,1.611c-0.685-0.203-1.32-0.478-1.905-0.815c-0.958-0.551-1.043-1.765-0.348-2.48
			c0.696-0.716,1.09-1.681,0.918-2.167c-0.172-0.485-0.914-0.257-1.697,0.521c-0.078,0.078-0.157,0.156-0.235,0.234
			c-0.783,0.779-1.828,0.876-2.228,0.15c-0.399-0.727-0.007-1.987,0.775-2.768c0.385-0.383,0.769-0.766,1.154-1.148
			c0.784-0.778,1.42-1.44,1.417-1.479c-0.004-0.037-0.649,0.555-1.444,1.32c-0.43,0.414-0.828,0.798-1.18,1.136
			c-0.796,0.767-1.59,1.023-1.73,0.578c-0.14-0.446,0.407-1.444,1.194-2.22c0.614-0.607,1.229-1.212,1.843-1.818
			c0.787-0.774,1.489-2.057,1.637-2.851c0.148-0.793-0.305-0.782-1.073,0.011c-0.924,0.953-1.849,1.907-2.772,2.861
			c-0.769,0.793-1.477,0.824-1.512,0.064c-0.034-0.761,0.616-2.021,1.386-2.813c2.747-2.831,5.387-5.545,7.853-8.074
			c0.771-0.791,1.699-1.481,2.004-1.681c0.305-0.2,0.398-0.548,0.466-0.558c0.041-0.005,0.082-0.007,0.123-0.009
			c0.402-0.018,0.799-0.031,1.193-0.039c0.659-0.011,0.925,0.277,0.593,0.62c-0.333,0.343,0.132,0.418,1.055,0.251
			c0.923-0.166,1.738-0.3,1.81-0.37c0.072-0.071,0.128-0.192,0.128-0.271c-0.001-0.078,0.892-0.092,1.993-0.01
			c2.306,0.172,4.443,0.381,6.104,0.4c0.73,0.009,2.057-1.089,0.75-1.106c-2.104-0.025-4.452-0.209-6.871-0.336
			c-1.103-0.058-2.006-0.427-2.016-0.845c-0.009-0.418-0.331-0.425-0.727-0.016c-0.396,0.409-1.241,0.734-1.887,0.744
			c-0.646,0.01-0.54-0.604,0.234-1.393c0.326-0.331,0.683-0.695,1.075-1.095c0.773-0.788,1.463-1.435,1.541-1.431
			c0.047,0.002,0.094,0.005,0.143,0.005c1.021,0,1.846-0.826,1.846-1.845c0-0.413-0.137-0.793-0.367-1.099
			c-0.392-0.52-0.815-1.009-0.601-1.415c0.215-0.405,0.122-0.396-0.267-0.014c-0.388,0.382-1.373,0.697-1.898,1.215
			c-0.526,0.518-1.184,1.816-1.971,2.59c-0.255,0.25-0.51,0.5-0.765,0.751c-0.788,0.774-1.441,0.505-1.357-0.597
			c0.052-0.655,0.135-1.306,0.266-1.944c0.221-1.082,1.194-2.552,1.973-3.335c0.104-0.104,0.207-0.208,0.312-0.312
			c0.778-0.783,2.255-1.732,3.344-1.918c0.64-0.108,1.307-0.179,1.983-0.22c1.102-0.067,1.581,0.363,1.064,0.871
			c-0.517,0.508-0.2,0.379,0.847,0.026c0.176-0.059,0.358-0.113,0.548-0.164c1.067-0.282,2.05-0.406,2.146-0.503
			c0.098-0.096,0.211-0.172,0.255-0.169c0.043,0.002,0.008,0.077-0.078,0.166c-0.086,0.089-0.122,0.158-0.081,0.154
			c0.041-0.003,0.141-0.072,0.222-0.156c0.081-0.083,0.543-0.125,1.029-0.092c0.315,0.022,0.612,0.043,0.883,0.06
			c0.059,0.004,0.111,0.013,0.165,0.022c0.091,0.015,0.155,0.033,0.144,0.046c-0.012,0.012,0.048,0.019,0.133,0.018
			c0.085-0.003,1.061,0.067,2.1,0.443c5.848,2.115,5.229,10.121,5.065,15.806c-0.057,2.002-0.756,3.457-1.87,4.54
			c-0.792,0.769-2.434,1.529-3.486,1.861c-2.102,0.661-4.353,1.064-6.465,1.257c-3.286,0.299-6.678,0.215-9.578,1.969
			c-0.375,0.227-0.697,0.512-0.974,0.842C14.099,28.766,13.635,29.482,13.362,29.717z M16.774,11.897
			c0.406-0.414,0.804-0.82,1.195-1.22c0.772-0.789,1.458-1.405,1.532-1.383c0.073,0.023-0.487,0.677-1.256,1.47
			c-0.378,0.391-0.739,0.763-1.077,1.111c-0.768,0.794-1.48,1.439-1.591,1.443C15.467,13.323,16.002,12.688,16.774,11.897z
			 M17.573,28.668c0.272-0.247,0.539-0.474,0.603-0.503c0.038-0.018,0.076-0.034,0.113-0.053c0.716-0.299,1.46-0.557,2.223-0.783
			c0.347-0.083,0.702-0.154,1.065-0.217c0.592-0.103,1.029-0.114,0.973-0.061c-0.034,0.031-0.068,0.063-0.104,0.097
			c-4.103,4.047-2.801,2.622-6.175,5.923c-0.789,0.771-1.423,1.292-1.419,1.157c0.003-0.08,0.006-0.161,0.008-0.24
			c0.055-1.925,0.58-3.315,1.431-4.334c0.708-0.849,1.359-1.114,1.157-0.909C17.246,28.949,17.303,28.915,17.573,28.668z
			 M45.911,34.012c-1.206,1.414-2.902,2.27-4.852,2.765c-1.069,0.272-1.963,0.357-1.964,0.333c0-0.016-0.001-0.028-0.001-0.044
			c-0.033-0.97-1.979-0.629-1.951,0.173c0,0.019,0.001,0.035,0.002,0.055c0.001,0.03-0.894,0.107-1.998,0.106
			c-4.036-0.007-8.209-0.606-11.143-0.642c-0.876-0.011-1.997,1.31-0.69,1.326c3.156,0.038,7.56,0.603,11.877,0.558
			c1.104-0.011,2.038,0.826,2.037,1.932c-0.001,2.168-0.189,4.325-1.017,6.359c-1.729,4.255-9.035,3.414-12.771,3.31
			c-0.701-0.021-1.346-0.089-1.938-0.201c-1.059-0.2-1.454-0.981-0.947-1.498c0.507-0.519,0.851-1.075,0.773-1.247
			c-0.079-0.173-0.652,0.154-1.295,0.738c-0.642,0.584-1.96,0.626-2.702-0.178c-0.743-0.803-0.476-2.235,0.326-2.995
			c0.468-0.443,0.934-0.886,1.396-1.322c0.801-0.76,1.45-1.402,1.447-1.436c-0.001-0.019-0.002-0.038-0.002-0.06
			c0-0.043-0.001-0.088-0.002-0.134c-0.001-0.074-0.643,0.493-1.433,1.266c-0.507,0.495-1.014,0.99-1.518,1.484
			c-0.79,0.772-1.833,0.59-2.123-0.477c-0.067-0.245-0.128-0.495-0.182-0.748c-0.232-1.08,0.351-2.586,1.161-3.336
			c0.821-0.762,1.644-1.522,2.465-2.285c0.81-0.752,1.457-2.03,1.502-2.855c0.044-0.824-0.523-0.881-1.333-0.129
			c-0.928,0.861-1.857,1.725-2.786,2.588c-0.81,0.751-1.479,0.671-1.469-0.179c0.009-0.851,0.684-2.15,1.489-2.905
			c0.853-0.799,1.7-1.594,2.539-2.381c0.806-0.756,1.332-1.182,2.15-1.923c0.525-0.477,1.232-1.12,2.09-1.908
			c0.814-0.746,1.562-1.36,1.67-1.369c0.064-0.005,0.13-0.011,0.195-0.016c0.573-0.042,1.14-0.11,1.702-0.197
			c0.936-0.144,1.427-0.067,1.106,0.23c-0.32,0.299,0.163,0.452,1.082,0.377c0.919-0.074,1.989-0.426,2.389-0.797
			c0.398-0.372,1.615-0.792,2.674-1.108c0.812-0.242,1.603-0.57,2.354-1.025c0.302-0.183,0.57-0.405,0.809-0.658
			c0.396-0.42,0.928-1.056,1.278-1.354c0.21-0.179,0.415-0.366,0.616-0.563c0.476-0.467,0.782-1.041,0.969-1.68
			c0.306-1.039,0.405-2.082,0.594-2.258l0.344-0.318c0.49-0.496,0.979-0.989,1.465-1.481c0.775-0.786,2.184-0.963,2.974-0.19
			C49.764,20.109,50.116,29.085,45.911,34.012z"/>
		<path d="M43.991,22.877c0.504-0.436,0.899-0.918,1.144-1.454c0.011-0.025,0.019-0.051,0.026-0.076
			c0.012-0.043-0.588,0.518-1.346,1.249C43.059,23.328,43.211,23.552,43.991,22.877z"/>
		<path d="M38.314,24.565c-0.793,0.769-1.244,1.341-1.01,1.276c0.235-0.063,1.067-0.742,1.858-1.513
			c1.478-1.438,3.149-3.067,4.934-4.808c0.79-0.771,1.428-1.429,1.424-1.468c-0.004-0.038-0.643,0.56-1.431,1.334
			c-1.819,1.79-3.44,3.37-5.008,4.863c-0.8,0.763-0.81,0.753-0.016-0.016c2.073-2.008,3.711-3.607,5.021-4.896
			c0.786-0.775,1.416-1.471,1.409-1.549c-0.006-0.079-0.659,0.478-1.454,1.244C42.124,20.882,40.215,22.725,38.314,24.565z"/>
		<path d="M36.638,26.021c0.014-0.004,0.131-0.12,0.074-0.078C36.654,25.986,36.625,26.023,36.638,26.021z"/>
		<circle cx="31.791" cy="43.873" r="1.845"/>
	</g>
</g>
<g>
</g>
<g>
</g>
<g>
</g>
<g>
</g>
<g>
</g>
<g>
</g>
<g>
</g>
<g>
</g>
<g>
</g>
<g>
</g>
<g>
</g>
<g>
</g>
<g>
</g>
<g>
</g>
<g>
</g>
</svg>
