<?xml version="1.0" encoding="iso-8859-1"?>
<!-- Generator: Adobe Illustrator 16.0.0, SVG Export Plug-In . SVG Version: 6.00 Build 0)  -->
<!DOCTYPE svg PUBLIC "-//W3C//DTD SVG 1.1//EN" "http://www.w3.org/Graphics/SVG/1.1/DTD/svg11.dtd">
<svg version="1.1" id="Capa_1" xmlns="http://www.w3.org/2000/svg" xmlns:xlink="http://www.w3.org/1999/xlink" x="0px" y="0px"
	 width="50.843px" height="50.843px" viewBox="0 0 50.843 50.843" style="enable-background:new 0 0 50.843 50.843;"
	 xml:space="preserve">
<g>
	<g>
		<path d="M25.988,11.978c-0.438-1.014-1.304-1.892-1.656-2.046c-0.176-0.077-0.406-0.104-0.683-0.048
			c-1.942,0.396-3.807,1.908-4.319,3.873c-0.571,2.191,0.97,3.553,2.977,3.992C25.565,18.462,27.097,14.538,25.988,11.978z
			 M21.306,13.557c0.151-0.454,0.396-0.866,0.707-1.217c0.52-0.585,1.791-0.465,2.125,0.351c0.198,0.483,0.276,1.027,0.27,1.562
			c-0.01,0.872-0.336,2.25-1.427,2.111C21.542,16.181,20.878,14.842,21.306,13.557z"/>
		<path d="M21.804,21.15c-0.265,0.033-0.508,0.146-0.689,0.286c-0.329,0.256-0.442,0.7-0.601,0.856
			c-0.105,0.104-0.17,0.222-0.171,0.354c-0.028,3.556-0.938,8.704,1.765,11.524c1.602,1.67,4.091,0.31,4.947-1.354
			c1.208-2.344,0.712-6.415,0.206-8.903C26.709,21.202,24.133,20.854,21.804,21.15z M22.662,22.162
			c0.213,0.017,0.208,0.219-0.01,0.426c-0.217,0.208-0.388,0.192-0.383-0.032C22.273,22.33,22.449,22.146,22.662,22.162z
			 M22.191,27.509c-0.011-0.289-0.016-0.579-0.018-0.869c-0.006-1.105,0.466-2.442,0.998-2.989c0.532-0.547,1.584-0.55,1.934,0.269
			c0.189,0.44,0.319,0.96,0.4,1.556c0.018,0.135,0.032,0.27,0.045,0.407c0.022,0.224-0.597,1.037-1.379,1.816
			c-0.128,0.128-0.258,0.258-0.39,0.391C23,28.867,22.232,28.612,22.191,27.509z M24.93,33.235c-0.246,0.277-0.376,0.09-0.122-0.146
			C25.063,32.853,25.176,32.959,24.93,33.235z M24.35,31c-0.739,0.68-1.546,0.776-1.691,0.175c-0.145-0.603,0.448-1.714,1.255-2.469
			c0.073-0.066,0.146-0.136,0.218-0.202c0.807-0.756,1.461-1.537,1.462-1.747s0.085,0.38,0.113,1.319
			C25.736,29.018,25.089,30.32,24.35,31z"/>
		<path d="M16.523,18.836c-5.841-7.246-19.191-0.907-16.052,9.07c0.916,2.911,3.583,4.603,6.269,5.615
			c0.746,0.281,4.611,0.606,4.686,1.646c0.091,1.244,0.014,2.852,0.696,3.958c1.454,2.354,3.28,2.232,4.459,0.986
			c0.759-0.802,1.116-1.79,1.245-1.92c0.087-0.088,0.141-0.185,0.143-0.289c0.095-5.064,1.191-10.431,0.154-15.458
			C17.899,21.362,17.215,19.696,16.523,18.836z M16.208,34.752c-0.082,1.102-0.182,2.045-0.232,2.119
			c-0.05,0.074-0.445,0.514-0.904,0.971c-0.459,0.456-1.002,0.608-1.152,0.309c-0.083-0.166-0.161-0.353-0.231-0.564
			c-0.385-1.167-0.303-2.567-0.392-3.782c-0.012-0.159-0.255-0.278-0.383-0.298c-0.56-0.088-1.113-0.186-1.656-0.297
			c-0.911-0.187-1.613-0.412-1.582-0.444c0.031-0.032-0.384-0.291-0.883-0.646c-0.499-0.354-0.999-0.561-1.169-0.394
			c-0.169,0.168-0.996,0.021-1.772-0.463c-0.776-0.482-0.983-1.317-0.568-1.717s0.68-0.884,0.608-1.088
			c-0.071-0.204-0.508,0.015-0.977,0.486c-0.468,0.475-1.305,0.391-1.738-0.281c-0.432-0.672-0.065-1.899,0.685-2.668
			c0.75-0.769,1.373-2.004,1.522-2.739c0.148-0.736-0.265-0.682-1.059,0.087c-0.303,0.294-0.614,0.595-0.931,0.902
			c-0.793,0.768-0.81,0.752-0.025-0.025c0.335-0.333,0.675-0.667,1.017-1.003c0.789-0.772,1.439-1.416,1.45-1.441
			c0.011-0.025-0.622,0.58-1.414,1.351c-0.348,0.339-0.699,0.681-1.053,1.024c-0.792,0.771-1.446,1.339-1.464,1.271
			c-0.011-0.041-0.021-0.081-0.029-0.125c-0.081-0.422-0.124-0.829-0.135-1.222c-0.019-0.68,0.713-1.853,1.505-2.623
			c0.94-0.915,1.891-1.84,2.85-2.774c0.791-0.771,2.083-1.536,2.895-1.549c0.812-0.014,1.347,0.223,1.203,0.363
			c-0.144,0.141-0.232,0.243-0.196,0.23c0.036-0.013,0.168-0.125,0.297-0.249c0.129-0.125,0.253-0.223,0.275-0.218
			s-0.046,0.092-0.152,0.194c-0.106,0.104-0.015,0.115,0.208,0.039c0.223-0.077,1.298,0.058,2.259,0.603
			c0.6,0.34,1.157,0.773,1.651,1.306c0.752,0.809,1.433,2.484,1.654,3.566C16.972,26.792,16.501,30.813,16.208,34.752z"/>
		<path d="M50.424,16.896c-2.288-0.679-4.747-0.921-7.116-0.592c-1.235,0.172-2.341,0.985-3.373,1.928
			c-0.815,0.744-1.34,0.499-1.274-0.604c0.113-1.879,0.021-3.809-1.168-4.324c-1.494-0.649-3.487-0.525-5.28-0.171
			c-1.084,0.213-2.263,0.492-2.571,0.699c-0.202,0.135-0.337,0.323-0.33,0.551c0.151,4.555,1.019,9.019,0.863,13.589
			c-0.098,2.843-0.187,5.826,1.838,8.045c0.749,0.82,2.353,0.713,3.179,0.101c1.285-0.951,1.688-2.091,1.829-3.35
			c0.123-1.098,0.835-1.485,1.6-0.688c1.542,1.606,2.787,3.58,4.93,4.341c1.655,0.588,4.815,1.038,5.939-0.823
			c1.447-2.398-0.833-4.97-2.485-6.577c-0.783-0.763-1.688-1.43-2.483-2.176c-2.03-1.903,1.945-4.533,3.044-5.407
			c1.354-1.074,2.428-2.26,3.222-3.792C50.949,17.328,50.744,16.992,50.424,16.896z M45.76,17.48
			c0.148,0.007,0.149,0.011,0.001,0.004C45.611,17.476,45.609,17.474,45.76,17.48z M31.313,15.186
			c-0.013-0.255,0.686-0.666,1.58-0.806c0.893-0.139,1.167-0.079,0.597-0.018c-0.568,0.061-1.278,0.391-1.59,0.708
			C31.59,15.389,31.325,15.441,31.313,15.186z M34.221,34.554c-0.228,0.274-0.365,0.063-0.125-0.159
			C34.337,34.172,34.447,34.279,34.221,34.554z M47.674,18.934c-0.173,0.433-0.608,0.974-1.388,1.641
			c-1.839,1.576-5.371,3.358-4.169,6.262c0.396,0.953,1.586,1.738,2.357,2.389c0.864,0.659,1.627,1.416,2.289,2.271
			c0.7,0.83,2.346,4.682-0.246,4.274c-1.091-0.171-1.648-0.915-1.376-1.194c0.273-0.277,0.481-0.52,0.466-0.536
			s-0.272,0.189-0.575,0.463c-0.302,0.272-0.641,0.445-0.757,0.389c-0.065-0.033-0.133-0.068-0.208-0.11
			c-0.491-0.277-0.928-0.604-1.333-0.962c-0.683-0.601-0.844-1.467-0.45-1.842c0.396-0.375,0.676-0.711,0.627-0.75
			c-0.048-0.038-0.155-0.002-0.24,0.081c-0.085,0.082-0.084,0.082,0-0.001s0.134-0.165,0.11-0.185
			c-0.022-0.018-0.351,0.27-0.73,0.641s-1.265-0.017-2.029-0.812c-0.888-0.924-1.877-1.746-3.247-2.2
			c-0.511-0.171-1.471,0.072-1.537,0.72c-0.003,0.027-0.015,0.307-0.044,0.721c-0.028,0.397-0.649,1.267-1.378,1.941
			c-0.728,0.676-1.511,0.727-1.622,0.082c-0.11-0.646,0.531-1.79,1.337-2.545c0.18-0.168,0.357-0.335,0.536-0.502
			c0.808-0.756,1.469-1.629,1.478-1.95c0.008-0.322-0.629,0.042-1.415,0.816c-0.205,0.202-0.423,0.417-0.655,0.647
			c-0.785,0.776-1.413,0.897-1.387,0.272c0.017-0.41,0.034-0.796,0.044-1.133c0.012-0.492,0.013-0.981,0.004-1.471
			c-0.016-0.812,0.575-2.11,1.346-2.9c0.119-0.122,0.237-0.243,0.355-0.364c0.771-0.791,1.371-1.65,1.339-1.92
			c-0.032-0.268-0.698,0.142-1.493,0.909c-0.073,0.07-0.148,0.143-0.228,0.219c-0.795,0.767-1.502,0.493-1.599-0.607
			c-0.04-0.455-0.083-0.91-0.125-1.364c-0.104-1.101,0.292-2.465,0.883-3.049c0.357-0.352,0.714-0.704,1.071-1.056
			c0.163-0.18,0.322-0.359,0.481-0.539c0.266-0.299,0.48-0.592,0.476-0.654c-0.004-0.064,0.061-0.141,0.144-0.166
			s0.235-0.137,0.339-0.252c0.103-0.115,0.579-0.137,0.936,0.166c0.207,0.177,0.36,0.408,0.44,0.708
			c0.522,1.964-0.222,4.243,0.005,6.271c0.079,0.706,1.271,0.4,1.604,0.173c1.65-1.127,3.931-4.074,5.822-4.337
			c0.213-0.029,0.425-0.053,0.633-0.07c0.352-0.029-0.016,0.579-0.821,1.335c-0.172,0.161-0.348,0.326-0.525,0.493
			c-0.807,0.756-1.475,1.667-1.463,2.035c0.01,0.368,0.723,0.058,1.534-0.69c0.588-0.541,1.221-1.124,1.893-1.744
			C45.992,18.195,48.084,17.907,47.674,18.934z"/>
		<path d="M14.8,27.509c0.692-0.707,1.249-1.691,1.179-2.191c-0.07-0.5-0.412-0.844-0.678-0.784s-0.979,0.596-1.593,1.199
			c-0.613,0.604-0.95,0.36-1.011-0.548c-0.038-0.569-0.144-1.127-0.299-1.618c-0.134-0.428-0.788-0.341-1.107-0.271
			c-1.232,0.274-2.488,0.248-3.432,1.191c-1.097,1.097-0.795,3.104,0.345,4.039c0.036,0.035,0.078,0.068,0.131,0.101
			c1.333,0.788,3.213,0.672,3.955-0.863c0.056-0.115,0.104-0.235,0.146-0.359c0.069-0.203,0.141,0.086,0.388,0.575
			c0.149,0.294,0.356,0.558,0.623,0.758c0.018,0.012,0.035,0.02,0.051,0.027C13.527,28.777,14.109,28.216,14.8,27.509z
			 M10.698,26.698c-0.021,0.208-0.054,0.418-0.107,0.622c-0.088,0.337-0.333,0.557-0.448,0.494c-0.115-0.06-0.809-0.609-0.975-1.465
			c-0.1-0.513-0.024-1.053,0.284-1.51c0.106-0.156,0.659-0.16,0.926-0.22c0.035-0.008,0.071-0.016,0.106-0.023
			c0.059-0.013,0.215,0.444,0.244,1.034C10.744,25.987,10.734,26.345,10.698,26.698z"/>
		<path d="M14.666,28.007c-1.007,1.045-1.226,1.28-0.015,0.055c0.776-0.786,1.403-1.44,1.404-1.459
			C16.055,26.583,15.432,27.212,14.666,28.007z"/>
	</g>
</g>
<g>
</g>
<g>
</g>
<g>
</g>
<g>
</g>
<g>
</g>
<g>
</g>
<g>
</g>
<g>
</g>
<g>
</g>
<g>
</g>
<g>
</g>
<g>
</g>
<g>
</g>
<g>
</g>
<g>
</g>
</svg>
