<?xml version="1.0" encoding="iso-8859-1"?>
<!-- Generator: Adobe Illustrator 16.0.0, SVG Export Plug-In . SVG Version: 6.00 Build 0)  -->
<!DOCTYPE svg PUBLIC "-//W3C//DTD SVG 1.1//EN" "http://www.w3.org/Graphics/SVG/1.1/DTD/svg11.dtd">
<svg version="1.1" id="Capa_1" xmlns="http://www.w3.org/2000/svg" xmlns:xlink="http://www.w3.org/1999/xlink" x="0px" y="0px"
	 width="45.663px" height="45.663px" viewBox="0 0 45.663 45.663" style="enable-background:new 0 0 45.663 45.663;"
	 xml:space="preserve">
<g>
	<g>
		<path d="M37.184,4.292c-3.166-2.381-7.424-3.834-11.36-4.203C16.165-0.752,6.767,4.416,3.311,13.574
			C-1.62,26.636,5.962,39.929,19.884,41.182c0.953,0.086,1.929,0.009,2.881-0.021c3.57-0.104,5.196,1.417,7.81,3.358
			c1.797,1.334,5.254,1.557,7.181,0.37c5.941-3.658-3.967-5.12-1.386-8.434c2.84-3.645,5.061-6.024,6.408-10.704
			C45.049,17.869,44.002,9.42,37.184,4.292z M38.166,7.875c0.241,0.303,0.414,0.567,0.396,0.581
			c-0.009,0.008-0.017,0.017-0.028,0.026c-0.904,0.861-2.199,2.08-3.771,3.552c-0.403,0.377-0.818,0.364-0.948-0.021
			c-0.13-0.387,0.078-0.996,0.485-1.369c0.408-0.374,0.816-0.749,1.226-1.122c0.492-0.494,0.987-0.986,1.481-1.479
			C37.398,7.654,37.924,7.573,38.166,7.875z M37.03,6.606c0.24,0.247,0.114,0.771-0.272,1.165c-0.861,0.876-1.724,1.75-2.583,2.626
			c-0.387,0.394-0.811,0.439-0.963,0.108c-0.154-0.328,0.019-0.908,0.406-1.304c0.765-0.782,1.521-1.556,2.271-2.32
			C36.273,6.488,36.792,6.36,37.03,6.606z M6.65,10.449c1.123-1.959,2.547-3.707,4.225-5.153c0.418-0.359,0.462-0.312,0.076,0.081
			c-0.259,0.267-0.521,0.533-0.786,0.806c-0.075,0.075-0.148,0.148-0.223,0.224c-0.123,0.123,0.1-0.088,0.498-0.47
			c0.329-0.315,0.654-0.629,0.98-0.941c0.399-0.383,1.084-0.957,1.549-1.255c0.791-0.507,1.623-0.954,2.492-1.335
			c0.506-0.221,0.604-0.065,0.204,0.316c-2.619,2.504-5.551,5.324-8.745,8.386c-0.398,0.382-0.729,0.587-0.735,0.457
			C6.18,11.433,6.375,10.929,6.65,10.449z M5.301,14.472c0.199-0.516,0.479-1.106,0.676-1.626c0.194-0.518,0.551-1.278,0.948-1.661
			c3.15-3.026,6.094-5.851,8.873-8.513c0.399-0.382,1.144-0.848,1.672-1.007c0.371-0.111,0.746-0.212,1.129-0.301
			c0.537-0.125,0.66,0.115,0.268,0.504c-4.12,4.075-9.061,8.874-13.093,12.865C5.381,15.123,5.104,14.987,5.301,14.472z
			 M36.286,40.767c0.091,0.046,0.174,0.091,0.25,0.137c0.474,0.284,0.358,0.959,0.103,1.207s-0.862,0.656-1.377,0.854
			c-0.523,0.201-1.157,0.405-1.905,0.614c-0.532,0.148-1.026,0.224-1.096,0.175c-0.069-0.048,0.188-0.402,0.576-0.797l1.818-1.847
			C35.043,40.719,35.791,40.522,36.286,40.767z M41.467,14.702c0.091,0.393-0.172,1.025-0.568,1.41
			c-0.475,0.46-0.949,0.919-1.423,1.378c-0.396,0.384-0.385,0.396,0.027,0.03c0.459-0.407,0.925-0.821,1.396-1.237
			c0.413-0.366,0.828-0.222,0.897,0.327c0.081,0.653,0.131,1.322,0.136,2.009c0.005,0.612-0.02,1.228-0.065,1.844
			c-0.04,0.552-0.407,1.312-0.8,1.7c-1.709,1.698-3.43,3.412-5.164,5.148c-0.391,0.391-0.37,0.839,0.024,1.045
			c0.394,0.205,1,0.077,1.377-0.326c1.172-1.256,2.334-2.501,3.487-3.736c0.376-0.402,0.602-0.291,0.479,0.247
			c-0.088,0.39-0.185,0.776-0.29,1.161c-0.145,0.533-0.586,1.286-0.965,1.688c-0.476,0.504-0.948,1.003-1.416,1.497
			c-0.379,0.4-0.628,0.75-0.553,0.774c0.075,0.026,0.454-0.274,0.842-0.667c0.294-0.298,0.587-0.593,0.878-0.887
			c0.389-0.394,0.563-0.285,0.37,0.231c-0.467,1.25-1.016,2.464-1.64,3.611c-0.602,1.105-5.51,5.353-4.85,6.688
			c0.22,0.442,0.349,0.742,0.538,0.987c0.338,0.438,0.472,0.927,0.086,1.32c-0.586,0.601-1.171,1.2-1.757,1.801
			c-0.386,0.396-1.061,0.45-1.45,0.061c-0.123-0.123-0.242-0.251-0.357-0.38c-0.369-0.41-0.379-1.042-0.049-1.389
			c0.331-0.346,0.217-0.612-0.257-0.606c-0.31,0.005-0.598,0.007-0.856,0.007c-0.069,0-0.155-0.003-0.252-0.008
			c-0.141-0.009-0.292,0.022-0.343,0.072c-0.049,0.051-0.479-0.14-1.013-0.284c-0.276-0.075-0.562-0.126-0.854-0.156
			c-0.55-0.058-0.979-0.06-0.952-0.086c0.024-0.027-0.391-0.152-0.921-0.305c-0.116-0.032-0.233-0.066-0.353-0.103
			c-0.528-0.16-1.191-0.075-1.489,0.214c-0.297,0.288-0.639,0.529-0.762,0.536c-0.075,0.004-0.149,0.007-0.224,0.009
			c-0.855,0.025-1.692-0.015-2.513-0.108c-0.548-0.062-0.673-0.457-0.284-0.85c0.218-0.219,0.439-0.439,0.664-0.665
			c0.391-0.392,0.464-0.832,0.171-0.994c-0.293-0.161-0.855,0.001-1.264,0.374c-0.355,0.325-0.712,0.652-1.069,0.979
			c-0.406,0.373-1.171,0.563-1.696,0.392c-0.505-0.164-0.997-0.351-1.479-0.559c-0.507-0.219-0.592-0.741-0.204-1.135
			c0.55-0.559,1.102-1.117,1.654-1.68c0.388-0.394,0.638-0.77,0.56-0.844s-0.47,0.171-0.875,0.546
			c-0.622,0.576-1.244,1.152-1.867,1.728c-0.405,0.375-1.033,0.517-1.392,0.303s-0.306-0.702,0.104-1.072
			c0.72-0.649,1.44-1.301,2.159-1.953c0.409-0.371,0.558-0.871,0.342-1.124c-0.217-0.253-0.709-0.16-1.113,0.218
			c-0.775,0.723-1.55,1.445-2.325,2.169c-0.404,0.377-1.089,0.412-1.51,0.056c-0.365-0.312-0.717-0.636-1.056-0.974
			c-0.392-0.392-0.363-1.032,0.039-1.411c0.989-0.932,1.987-1.869,3-2.818c0.403-0.378,0.615-0.92,0.486-1.218
			c-0.128-0.298-0.239-0.528-0.258-0.51c-0.011,0.012-0.023,0.021-0.034,0.033c-1.229,1.323-2.467,2.641-3.707,3.954
			c-0.379,0.401-0.976,0.386-1.305-0.059c-0.007-0.01-0.015-0.02-0.021-0.028c-0.329-0.442-0.258-1.135,0.134-1.524
			c1.208-1.205,2.42-2.409,3.634-3.612c0.392-0.39,0.702-0.735,0.692-0.774c-0.009-0.039-0.04-0.049-0.067-0.021
			c-0.029,0.025-0.37,0.363-0.76,0.755c-1.186,1.188-2.368,2.382-3.552,3.574c-0.389,0.393-0.829,0.521-0.975,0.281
			c-0.146-0.237,0.055-0.751,0.446-1.142c0.534-0.535,1.069-1.069,1.605-1.602c0.775-0.767,1.551-1.529,2.326-2.294
			c0.393-0.39,0.663-0.954,0.611-1.268c-0.052-0.311-0.396-0.244-0.78,0.152c-1.389,1.432-2.781,2.863-4.168,4.297
			c-0.384,0.397-0.738,0.638-0.788,0.535s-0.265-0.571-0.492-1.044c-0.227-0.474,0.057-1.228,0.466-1.598
			c1.491-1.344,3.347-2.561,4.797-3.853c0.413-0.367,0.697-1.137,0.694-1.689c0-0.101,0-0.2,0-0.303
			c0.003-0.553-0.296-0.685-0.722-0.334c-1.498,1.234-3.611,2.51-5.122,3.764c-0.425,0.354-0.853,0.232-0.916-0.315
			c-0.029-0.247-0.044-0.478-0.048-0.705c-0.012-0.552,0.362-1.302,0.785-1.658c1.614-1.364,4.049-3.176,5.649-4.558
			c0.418-0.361,0.769-0.843,0.804-1.059c0.035-0.215-0.249-0.07-0.655,0.303c-1.646,1.507-4.163,3.471-5.809,4.979
			c-0.406,0.373-0.71,0.521-0.697,0.307c0.01-0.177,0.015-0.31,0.015-0.387c0-0.132,0.027-0.338,0.027-0.781
			c0-0.433,0.289-1.104,0.682-1.49c1.962-1.936,4.881-4.561,6.83-6.467c0.395-0.386,0.857-1.128,1.066-1.639
			c0.094-0.227,0.189-0.45,0.287-0.668c0.228-0.504,0.113-0.59-0.291-0.214c-0.017,0.017-0.033,0.032-0.052,0.048
			c-0.404,0.376-0.415,0.365-0.019-0.021c0.051-0.051,0.103-0.102,0.153-0.15c0.396-0.385,0.729-0.717,0.742-0.742
			c0.015-0.023-0.295,0.269-0.689,0.653c-0.499,0.487-1.007,0.98-1.519,1.479c-1.958,1.78-4.529,4.072-6.586,6.025
			c-0.4,0.38-0.679,0.244-0.491-0.275c0.031-0.086,0.062-0.173,0.094-0.26c0.184-0.521,0.525-1.283,0.922-1.668
			c4.265-4.141,9.834-9.459,14.563-14.063c0,0,0.271-0.254,0.604-0.567c0.334-0.314,1.04-0.598,1.578-0.606
			c0.539-0.009,0.654,0.322,0.26,0.709c-0.1,0.098-0.198,0.193-0.297,0.29c-0.396,0.388-0.318,0.495,0.187,0.271
			c0.13-0.058,0.261-0.114,0.392-0.169c0.509-0.214,1.076-0.512,1.254-0.69s0.768-0.28,1.313-0.202
			c3.772,0.544,7.185,2.019,9.897,4.229c0.429,0.349,0.62,0.784,0.449,0.945c-0.101,0.095-0.204,0.191-0.31,0.293
			c-0.964,0.921-1.73,1.653-2.351,2.248c-0.397,0.383-0.941,0.303-1.261-0.148c-0.213-0.303-0.441-0.593-0.686-0.866
			c-0.366-0.413-0.404-1.042-0.037-1.454c0.194-0.218,0.389-0.436,0.583-0.653c0.367-0.412,0.608-0.747,0.54-0.746
			c-0.08,0.001-0.123,0.003-0.123,0.003s-0.346,0.019-0.911,0.139c-0.498,0.105-1.103,0.445-1.36,0.71
			c-0.258,0.267-0.841,0.232-1.337-0.012c-1.273-0.626-2.775-0.972-4.533-0.942c-7.056,0.117-10.942,6.957-12.006,13.104
			c-0.095,0.544-0.144,1.013-0.146,1.042c-0.002,0.023-0.011,0.036-0.012,0.05c-0.382,5.563,0.445,11.297,5.166,14.825
			c1.691,1.266,4.926,2.39,6.962,1.271c0.818-0.45,2.317-1.503,0.975-2.575c-0.423-0.402-0.901-0.725-1.436-0.962
			c-1.562-0.583-1.488-1.465,0.22-2.645c0.454-0.313,1.062-0.493,1.315-0.409c0.254,0.085,0.273,0.353,0.055,0.565
			c-0.219,0.214-0.215,0.216,0.01,0.004c0.224-0.212,0.813-0.194,1.277,0.104c0.119,0.077,0.236,0.155,0.353,0.233
			c0.458,0.31,0.508,0.848,0.102,1.221c-0.302,0.277-0.592,0.544-0.87,0.8c-0.405,0.374-0.588,0.82-0.396,0.987
			c0.189,0.166,0.666-0.021,1.056-0.414c0.324-0.325,0.652-0.653,0.981-0.981c0.39-0.392,0.775-0.68,0.861-0.646
			c0.052,0.021,0.104,0.04,0.158,0.057c2.637,0.799,3.989-1.784,4.728-4.501c0.145-0.532,0.552-1.291,0.938-1.686
			c0.911-0.93,1.823-1.859,2.733-2.792c0.386-0.396,0.366-0.416-0.044-0.046c-0.853,0.768-1.694,1.53-2.522,2.279
			c-0.41,0.37-0.654,0.232-0.562-0.312c0.145-0.863,0.241-1.616,0.314-2.115c0.023-0.149,0.04-0.303,0.059-0.456
			c0.027-0.252,0.373-0.766,0.772-1.146c1.854-1.764,3.604-3.433,5.244-5.001C40.965,14.308,41.376,14.31,41.467,14.702z
			 M20.324,30.913c0.728,0.812,1.43,1.244,2.378,1.764c3.385,1.854-0.958,1.763-1.094,1.728c-1.394-0.363-2.587-1.23-3.658-2.154
			c-3.853-3.323-4.222-8.979-3.907-13.67c0.668-5.254,3.757-13.554,10.46-12.802c10.05,1.127,8.998,14.78,6.762,21.562
			c-0.927,2.812-1.824,1.326-3.685,0.677c-1.37-0.479-2.989-0.968-4.472-0.726C21.762,27.512,18.674,29.074,20.324,30.913z
			 M35.878,18.93c1.508-1.484,3.252-3.197,4.618-4.544c0.393-0.389,0.394-0.388,0.002,0.002
			C38.948,15.923,37.402,17.435,35.878,18.93C35.484,19.316,35.483,19.317,35.878,18.93z M40.746,12.327
			c0.046,0.118,0.091,0.237,0.135,0.357c0.189,0.519-0.006,1.262-0.401,1.647c-1.73,1.692-3.441,3.365-5.132,5.017
			c-0.395,0.386-0.672,0.252-0.648-0.301c0.021-0.45,0.026-0.904,0.02-1.359c-0.009-0.553,0.29-1.307,0.693-1.683
			c1.404-1.308,2.807-2.612,4.21-3.919C40.026,11.71,40.544,11.812,40.746,12.327z M39.029,10.894
			c-1.26,1.169-2.52,2.338-3.78,3.507c-0.405,0.376-0.781,0.322-0.862-0.115c-0.082-0.438,0.166-1.092,0.572-1.466
			c0.924-0.849,2.059-1.896,3.351-3.09c0.406-0.374,0.906-0.426,1.104-0.104C39.613,9.946,39.435,10.518,39.029,10.894z"/>
		<path d="M32.273,32.058c-0.368-0.247-1.013-0.077-1.4,0.314c-0.305,0.308-0.608,0.614-0.914,0.924
			c-0.168,0.17-0.339,0.341-0.512,0.511c-0.282,0.279-0.165,0.643,0.279,0.752c0.318,0.078,0.596,0.121,0.817,0.133
			c0.079,0.005,0.167,0.008,0.263,0.01c0.146,0.002,0.568-0.326,0.945-0.729c0.18-0.192,0.359-0.386,0.54-0.577
			c0.378-0.403,0.667-0.754,0.646-0.782c-0.012-0.017-0.023-0.033-0.041-0.049C32.701,32.37,32.489,32.203,32.273,32.058z"/>
		<path d="M33.834,5.869c0.394-0.388,0.388-0.394-0.005-0.005c-0.045,0.044-0.092,0.089-0.138,0.134
			c-0.393,0.39-0.39,0.393,0.004,0.005C33.741,5.958,33.788,5.914,33.834,5.869z"/>
	</g>
</g>
<g>
</g>
<g>
</g>
<g>
</g>
<g>
</g>
<g>
</g>
<g>
</g>
<g>
</g>
<g>
</g>
<g>
</g>
<g>
</g>
<g>
</g>
<g>
</g>
<g>
</g>
<g>
</g>
<g>
</g>
</svg>
