<?xml version="1.0" encoding="iso-8859-1"?>
<!-- Generator: Adobe Illustrator 16.0.0, SVG Export Plug-In . SVG Version: 6.00 Build 0)  -->
<!DOCTYPE svg PUBLIC "-//W3C//DTD SVG 1.1//EN" "http://www.w3.org/Graphics/SVG/1.1/DTD/svg11.dtd">
<svg version="1.1" id="Capa_1" xmlns="http://www.w3.org/2000/svg" xmlns:xlink="http://www.w3.org/1999/xlink" x="0px" y="0px"
	 width="53.652px" height="53.652px" viewBox="0 0 53.652 53.652" style="enable-background:new 0 0 53.652 53.652;"
	 xml:space="preserve">
<g>
	<g>
		<path d="M50.192,14.963c-2.655-0.53-5.308-0.718-7.553-2.355c-1.599-1.165-2.684-4.229-4.698-4.682
			c-7.527-1.692-5.936,9.217-5.869,13.622c0.08,5.305-0.746,10.402-6.146,12.762c-5.496,2.402-10.528-0.136-11.37-5.609
			c-0.787-5.121,5.134-8.765,9.718-9.843c1.075-0.253,2.343-0.271,2.798-0.222c0.456,0.049,0.817,0.254,0.809,0.46
			c-0.005,0.125-0.01,0.25-0.013,0.373c-0.011,0.452,1.917,0.144,1.933-0.518c0.092-3.967,1.651-9.483-2.254-12.095
			c-2.902-1.94-8.3-1.362-11.464-0.595C7.022,8.457,0.884,14.585,0.069,24.105C-0.64,32.398,4.185,41.699,11.646,45.55
			c8.672,4.474,18.608,2.78,26.349-2.714c4.015-2.849,6.021-6.62,7.295-11.263c0.669-2.434,1.062-5.553,2.617-7.606
			c1.385-1.831,3.298-3.202,4.906-4.824C55.132,16.806,52.109,15.345,50.192,14.963z M34.219,11.231
			c0.019-0.137,0.041-0.266,0.064-0.386c0.043-0.212,0.247-0.524,0.44-0.701c0.115-0.106,0.231-0.213,0.349-0.319
			c0.117-0.117,0.234-0.234,0.352-0.351c0.194-0.193,0.752-0.315,1.185-0.1c0.432,0.215,0.085,1.081-0.72,1.837
			c-0.125,0.118-0.253,0.237-0.383,0.359c-0.806,0.756-1.435,0.985-1.388,0.513C34.146,11.799,34.18,11.515,34.219,11.231z
			 M5.217,13.988c1.152-1.654,2.605-3.026,4.254-4.118c0.921-0.61,1.087-0.38,0.297,0.392c-1.337,1.308-2.714,2.65-4.148,4.045
			C4.828,15.077,4.585,14.894,5.217,13.988z M5.565,14.404c1.436-1.398,2.992-2.915,4.321-4.207c0.792-0.769,1.471-1.41,1.515-1.429
			c0.043-0.019-0.566,0.586-1.36,1.354c-1.204,1.164-2.737,2.648-4.505,4.361c-0.794,0.768-1.428,1.375-1.419,1.353
			C4.126,15.816,4.774,15.175,5.565,14.404z M47.993,21.968c-2.833,2.859-3.601,6.028-4.621,9.896
			c-2.492,9.447-11.001,14.996-19.81,15.172c-1.104,0.021-2.349-0.138-2.775-0.259c-0.428-0.121-0.822-0.185-0.888-0.121
			c-0.065,0.064-1.005-0.016-2.075-0.292c-0.033-0.009-0.067-0.017-0.101-0.025c-1.068-0.281-1.743-0.768-1.541-0.969
			c0.203-0.203,0.072-0.532-0.281-0.75c-0.353-0.219-0.851-0.206-1.121,0.042s-1.309,0.079-2.262-0.479
			c-0.032-0.019-0.064-0.038-0.097-0.057c-0.949-0.564-1.359-1.414-0.98-1.799c0.38-0.386,0.605-0.778,0.504-0.879
			c-0.101-0.1-0.515,0.126-0.927,0.508c-0.412,0.381-0.899,0.573-1.087,0.428c-0.112-0.088-0.225-0.177-0.335-0.271
			c-0.11-0.093-0.215-0.189-0.319-0.289c-0.173-0.162,0.065-0.635,0.529-1.053c0.465-0.418,0.635-1.007,0.393-1.322
			c-0.242-0.314-0.832-0.2-1.328,0.263s-1.521,0.191-2.195-0.683c-0.028-0.035-0.057-0.072-0.084-0.108
			c-0.67-0.878-0.65-2.102-0.055-2.66c0.597-0.561,0.949-1.283,0.798-1.621s-0.748-0.098-1.346,0.539
			c-0.599,0.636-1.348,0.681-1.64,0.081c-0.292-0.601,0.041-1.637,0.706-2.299s1.195-1.235,1.182-1.28
			c-0.014-0.045-0.566,0.462-1.234,1.134c-0.667,0.672-1.317,0.953-1.44,0.622c-0.122-0.331,0.354-1.16,1.052-1.849
			c0.699-0.689,1.198-1.533,1.126-1.886c-0.071-0.354-0.706-0.036-1.43,0.71c-0.723,0.745-1.42,0.973-1.538,0.502
			c-0.119-0.472,0.423-1.499,1.191-2.292c0.007-0.008,0.014-0.016,0.021-0.021c0.769-0.794,1.334-2.048,1.312-2.802
			c-0.021-0.754-0.633-0.735-1.418,0.042c-0.094,0.092-0.188,0.185-0.281,0.277c-0.785,0.776-1.519,0.535-1.54-0.544
			c-0.019-1.079,0.703-2.561,1.511-3.316c0.304-0.284,0.607-0.569,0.911-0.854c0.805-0.756,1.513-1.606,1.595-1.891
			c0.083-0.285-0.474,0.122-1.251,0.907c-0.421,0.425-0.842,0.85-1.262,1.274c-0.777,0.785-1.336,0.528-1.141-0.559
			c0.008-0.043,0.016-0.086,0.023-0.129c0.202-1.086,1.081-2.588,1.854-3.377c2.812-2.877,5.602-5.716,8.368-8.514
			c0.776-0.786,2.258-1.705,3.337-1.94c0.111-0.024,0.223-0.047,0.335-0.07c1.083-0.218,1.843-0.17,1.679-0.006
			c-0.163,0.164,0.034,0.184,0.445,0.059c0.412-0.125,0.804-0.268,0.869-0.335c0.066-0.066,0.776-0.161,1.585-0.153
			c0.488,0.005,0.977,0.026,1.463,0.063c5.782,0.442,5.981,4.644,5.716,8.971c-0.068,1.102-1.035,1.944-2.136,2.037
			c-5.005,0.422-10.592,3.154-12.524,7.587c-1.721,3.947-0.382,7.658,3.213,9.887c1.786,1.106,3.878,1.12,5.901,0.789
			c1.09-0.179,1.944-0.4,1.932-0.389c-0.014,0.014,0.281,0.065,0.661,0.082c0.38,0.019,0.844-0.157,1.035-0.349
			c0.19-0.191,1.199-0.638,2.155-1.191c1.786-1.034,3.085-2.471,3.985-4.192c0.512-0.979,0.76-1.771,0.737-1.688
			s0.583-0.488,1.354-1.277c0.487-0.497,0.975-0.994,1.461-1.491c0.772-0.79,1.398-1.453,1.4-1.479
			c0.002-0.027-0.662,0.551-1.481,1.292c-0.354,0.32-0.706,0.638-1.056,0.955c-0.819,0.741-1.22,0.485-1.03-0.604
			c0.148-0.855,0.241-1.744,0.283-2.66c0.002-0.037,0.002-0.073,0.003-0.11c0.001-0.06,0.652-0.727,1.452-1.488
			c0.135-0.129,0.269-0.257,0.404-0.385c0.8-0.761,1.445-1.449,1.443-1.535c-0.002-0.086-0.597,0.424-1.328,1.139
			c-0.73,0.715-0.73,0.713,0-0.006c0.732-0.719,1.323-1.326,1.323-1.355c-0.001-0.029-0.643,0.573-1.432,1.345
			c-0.142,0.137-0.281,0.274-0.421,0.411c-0.79,0.772-1.404,0.512-1.411-0.581c-0.006-1.093,0.625-2.589,1.434-3.342
			c0.106-0.098,0.211-0.196,0.316-0.294c0.809-0.753,1.468-1.851,1.49-2.452s-0.597-0.478-1.405,0.273
			c-0.146,0.134-0.289,0.268-0.435,0.403c-0.81,0.751-1.473,0.859-1.469,0.241s0.682-1.725,1.494-2.473
			c0.238-0.22,0.485-0.447,0.74-0.683c0.812-0.749,1.482-1.429,1.5-1.52c0.011-0.055,0.021-0.11,0.033-0.164
			c0.009-0.04,0.021-0.078,0.033-0.116c0.022-0.063,0.554,0.332,1.124,0.942c0.419,0.446,0.771,0.862,1.007,1.132
			c1.289,1.488,2.698,2.134,4.547,2.598c1.754,0.441,3.56,0.665,5.32,1.079C53.916,17.048,49.223,20.728,47.993,21.968z"/>
	</g>
</g>
<g>
</g>
<g>
</g>
<g>
</g>
<g>
</g>
<g>
</g>
<g>
</g>
<g>
</g>
<g>
</g>
<g>
</g>
<g>
</g>
<g>
</g>
<g>
</g>
<g>
</g>
<g>
</g>
<g>
</g>
</svg>
