<?xml version="1.0" encoding="iso-8859-1"?>
<!-- Generator: Adobe Illustrator 16.0.0, SVG Export Plug-In . SVG Version: 6.00 Build 0)  -->
<!DOCTYPE svg PUBLIC "-//W3C//DTD SVG 1.1//EN" "http://www.w3.org/Graphics/SVG/1.1/DTD/svg11.dtd">
<svg version="1.1" id="Capa_1" xmlns="http://www.w3.org/2000/svg" xmlns:xlink="http://www.w3.org/1999/xlink" x="0px" y="0px"
	 width="53.78px" height="53.78px" viewBox="0 0 53.78 53.78" style="enable-background:new 0 0 53.78 53.78;" xml:space="preserve"
	>
<g>
	<g>
		<path d="M3.573,31.644c-0.326,2.91,0.979,5.521,2.627,7.797c3.522,4.863,10.477,6.811,16.071,7.641
			c9.369,1.393,20.667-1.637,26.405-9.488c1.348-1.844,1.746-4.309,1.635-6.533c-0.017-0.326,2.241-2.451,2.417-2.748
			c0.506-0.857,0.777-1.522,0.941-2.329c0.109-0.541,0.157-1.441,0.053-1.984c-0.544-2.836-3.369-4.735-6.114-5.15
			c-0.82-0.125-2.421,0.266-3.775,0.636c-0.533,0.146-0.939,0.243-0.91,0.211c0.029-0.032-0.055-0.014-0.187,0.047
			c-0.131,0.061-0.451,0.175-0.721,0.241c-0.269,0.067-0.446,0.098-0.491,0.074c-2.258-1.213-4.741-1.879-7.229-2.424
			c-2.796-0.613-4.842-0.452-4.002-3.852c0.531-2.149,2.299-2.231,4.105-1.848c2.955,0.628,1.376,1.863,3.006,3.785
			c1.36,1.604,3.003,2.623,5.146,2.623c6.128,0,12.416-8.241,4.276-11.45c-1.831-0.722-4.045-0.665-5.898-0.007
			c-3.52,1.251-6.938,0.593-10.409,1.479c-2.902,0.74-5.247,3.305-5.642,6.3c-0.368,2.792-6.926,3.591-9.234,4.37
			c-0.589,0.198-1.159,0.454-1.724,0.722c-0.498,0.237-0.987,0.321-1.131,0.221c-0.072-0.051-0.162-0.105-0.271-0.163
			c-4.89-2.562-11.851,0.08-12.502,5.825C-0.286,28.298,3.769,29.892,3.573,31.644z M8.195,37.876
			c-0.252,0.236-0.565,0.295-0.701,0.135c-0.083-0.098-0.165-0.195-0.24-0.299C6.902,37.228,6.61,36.701,6.37,36.15
			c-0.22-0.506-0.093-1.178,0.227-1.477c0.319-0.301,0.686-0.107,0.873,0.41c0.215,0.594,0.494,1.201,0.845,1.822
			c0.053,0.092,0.107,0.186,0.163,0.275C8.572,37.332,8.448,37.642,8.195,37.876z M48.018,35.22
			c-2.191,10.209-17.072,12.006-25.482,10.928c-0.161-0.035-0.324-0.07-0.486-0.105c-0.268-0.057-0.495-0.1-0.511-0.084
			c-0.015,0.016-0.468-0.045-1.009-0.16c-0.218-0.047-0.435-0.096-0.651-0.146c-0.537-0.129-0.923-0.299-0.867-0.357
			c0.056-0.059-0.061-0.162-0.26-0.23c-0.12-0.041-0.24-0.084-0.358-0.129c-0.267-0.102-0.529-0.209-0.791-0.322
			c-0.434-0.184-0.856-0.273-0.95-0.184c-0.096,0.09-0.556,0.014-1.019-0.189c-0.465-0.205-0.768-0.453-0.687-0.537
			c0.081-0.084,0.079-0.086-0.005-0.002c-0.084,0.082-0.402,0.031-0.709-0.119c-0.308-0.148-0.446-0.387-0.319-0.514
			c0.128-0.129-0.001-0.373-0.284-0.551c-0.172-0.109-0.342-0.219-0.511-0.332c-0.018-0.012-0.035-0.025-0.052-0.039
			c-0.029-0.023-0.167,0.064-0.308,0.193c-0.141,0.129-0.634-0.006-1.085-0.324c-0.347-0.246-0.686-0.5-1.017-0.766
			c-0.43-0.346-0.62-0.793-0.443-0.971c0.176-0.18,0.24-0.412,0.143-0.52c-0.096-0.107-0.328-0.053-0.523,0.125
			c-0.194,0.178-0.587,0.104-0.869-0.176c-0.282-0.277-0.31-0.688-0.078-0.896c0.232-0.207,0.344-0.48,0.25-0.607
			c-0.058-0.076-0.113-0.152-0.166-0.232c-0.034-0.055-0.065-0.107-0.096-0.164c-0.05-0.092,0.166,0.203,0.528,0.621
			c4.534,5.217,15.33,6.924,24.197,5.195c0.228-0.029,0.452-0.061,0.678-0.094c0.374-0.053,0.702-0.137,0.736-0.17
			c0.033-0.033,0.496-0.164,1.028-0.314c0.118-0.033,0.235-0.068,0.354-0.102c0.529-0.158,0.883-0.232,0.795-0.145
			c-0.088,0.086,0.102,0.092,0.42,0.006s0.686-0.273,0.819-0.408c0.135-0.135,0.659-0.408,1.162-0.637
			c0.112-0.053,0.224-0.105,0.335-0.156c0.498-0.238,0.694-0.258,0.453-0.016c-0.242,0.24-0.053,0.285,0.413,0.074
			s1.148-0.717,1.537-1.109c0.471-0.479,0.939-0.951,1.411-1.43c0.36-0.324,0.695-0.664,1.004-1.018
			c0.877-0.889,1.755-1.781,2.631-2.668c0.388-0.393,0.694-0.6,0.679-0.463C48.047,35.062,48.034,35.144,48.018,35.22z
			 M9.189,29.437c1.703-6.67,11.742-8.487,17.16-8.634c6.537-0.177,14.492,2.187,17.84,8.151c0.271,0.482,0.58,1.322,0.678,1.865
			c1.495,8.461-9.579,12.697-16.706,12.697c-5.933,0-11.659-1.393-16.23-5.236C9.183,35.972,8.33,32.806,9.189,29.437z
			 M47.412,34.574c-0.139,0.137-0.274,0.275-0.412,0.412c-0.393,0.391-0.543,0.338-0.396-0.135s0.523-1.172,0.898-1.549
			c0.374-0.377,0.655-0.404,0.64-0.059C48.125,33.587,47.803,34.185,47.412,34.574z M27.19,12.781
			c0.544-1.987,1.689-2.991,3.097-3.468c0.522-0.178,0.646,0.064,0.246,0.445c-1.201,1.148-2.051,1.963-2.661,2.55
			c-0.397,0.383-0.713,0.644-0.703,0.583C27.178,12.844,27.185,12.806,27.19,12.781z M2.282,23.473
			c-0.003-0.106,0.162-0.609,0.455-1.078c0.958-1.532,2.573-2.723,4.12-2.723c0.018,0,0.034,0.001,0.051,0.003
			c0.028,0.002-0.265,0.321-0.653,0.713C5.153,21.5,4.05,22.611,2.951,23.724c-0.389,0.393-0.69,0.54-0.679,0.328
			c0.01-0.177,0.015-0.31,0.015-0.387C2.287,23.626,2.285,23.559,2.282,23.473z M2.168,25.543c0.035-0.443,0.389-1.106,0.792-1.484
			c0.263-0.247,0.525-0.495,0.787-0.742c0.401-0.379,0.935-1.053,1.245-1.469c0.185-0.248,0.387-0.486,0.611-0.71
			c0.266-0.248,0.545-0.466,0.835-0.661c0.459-0.308,0.926-0.56,1.001-0.633c0.074-0.073,0.583-0.09,1.122,0.032
			c1.126,0.256,2.188,0.713,3.274,1.128c0.695,0.266,1.637-0.266,2.24-0.569c0.07-0.036,0.143-0.065,0.215-0.095
			c0.119-0.048,0.388,0.002,0.602,0.114c0.214,0.111,0.646-0.059,0.959-0.367c0.312-0.309,0.994-0.692,1.528-0.833
			c1.143-0.304,2.303-0.54,3.45-0.802c0.538-0.124,0.949-0.208,0.919-0.179c-0.03,0.029-0.008,0.041,0.051,0.025
			c0.035-0.01,0.07-0.019,0.106-0.027c0.168-0.037,0.337-0.07,0.505-0.103c0.279-0.054,0.552-0.145,0.608-0.204
			c0.058-0.059,0.534-0.235,1.052-0.43c0.637-0.239,1.258-0.523,1.857-0.87c0.472-0.273,0.755-1.046,0.933-1.835
			c0.121-0.539,0.49-1.304,0.876-1.698c1.135-1.16,2.254-2.305,3.354-3.428c0.387-0.394,1.146-0.767,1.698-0.779
			c1.244-0.029,2.536,0.111,3.719,0.208c1.072,0.088,1.979-0.219,2.847-0.613c0.504-0.228,0.743-0.282,0.546-0.099
			c-0.195,0.184,0.097,0.346,0.642,0.257c0.13-0.021,0.257-0.046,0.381-0.076c0.537-0.128,1.163-0.572,1.443-0.855
			c0.278-0.283,0.954-0.564,1.503-0.493c0.357,0.046,0.734,0.138,1.137,0.289c2.419,0.906,3.485,2.555,3.612,4.245
			c0.041,0.551-0.352,1.312-0.743,1.701c-0.239,0.237-0.48,0.475-0.722,0.713c-0.393,0.388-0.366,0.69,0.024,0.55
			c0.393-0.14,0.77-0.456,0.895-0.59c0.125-0.135,0.076,0.181-0.209,0.654c-1.433,2.375-4.66,3.715-7.965,1.049
			c-0.018-0.015-0.032-0.028-0.048-0.042c-0.025-0.024,0.162-0.227,0.419-0.454c0.258-0.228,0.421-0.486,0.364-0.578
			c-0.057-0.092-0.316,0.042-0.585,0.303c-0.271,0.261-0.696,0.287-0.919,0.025c-0.222-0.261-0.124-0.736,0.172-1.024
			c0.297-0.289,0.703-0.088,1.101,0.296c1.972,1.907,6.966,0.698,6.966-2.382c0-0.503-0.12-0.925-0.327-1.275
			c-0.281-0.476-0.586-0.807-0.478-0.903c0.109-0.096,0.067-0.197-0.096-0.208c-0.097-0.007-0.195-0.009-0.296-0.006
			c-0.083,0-0.159,0.002-0.23,0.007c-0.127,0.007-0.646-0.16-1.189-0.256c-0.616-0.109-1.258-0.109-1.826-0.026
			c-1.72,0.252-3.316,1.481-3.316,3.313c0.009,0.115,0.022,0.225,0.043,0.331c0.034,0.181-0.167,0.562-0.471,0.857
			c-0.304,0.294-0.744,0.128-0.881-0.407c-0.035-0.138-0.067-0.271-0.104-0.399c-0.147-0.532-0.334-0.989-0.194-1.117
			c0.138-0.128,0.166-0.258,0.063-0.291c-0.062-0.019-0.124-0.038-0.187-0.056c-0.185-0.052-0.369-0.098-0.558-0.136
			c-0.311-0.064-0.59-0.074-0.62-0.045c-0.03,0.028-0.198-0.009-0.38-0.074c-0.104-0.037-0.213-0.073-0.33-0.109
			c-1.899-0.581-3.623-0.325-5.427,0.335c-0.831,0.305-1.45,1.005-1.864,1.818c-0.25,0.492-0.688,1.246-1.076,1.64
			c-0.245,0.249-0.49,0.498-0.735,0.747c-0.388,0.394-0.37,0.412,0.037,0.039c0.194-0.178,0.388-0.356,0.583-0.534
			c0.409-0.373,0.695-0.505,0.652-0.292c-0.026,0.13-0.049,0.259-0.062,0.385c-0.158,1.363-0.032,2.052,1.47,2.398
			c3.155,0.726,6.132,1.223,9.149,2.491c1.514,0.635,1.77,1.014,3.319,0.422c0.56-0.214,1.157-0.379,1.771-0.492
			c0.543-0.101,0.903-0.044,0.796,0.071c-0.106,0.115-0.025,0.1,0.188-0.024s0.84-0.247,1.392-0.22
			c2.1,0.102,4.057,0.914,5.039,2.697c0.268,0.483,0.378,0.904,0.364,0.887c-0.016-0.017-0.287,0.232-0.607,0.557
			c-0.32,0.325-0.602,0.359-0.668,0.084c-0.065-0.275-0.181-0.522-0.213-0.564c-0.033-0.042,0.104-0.242,0.305-0.445
			c0.199-0.203,0.342-0.381,0.315-0.396c-0.024-0.016-0.152,0.08-0.286,0.214c-0.133,0.134-0.134,0.135-0.001,0
			c0.133-0.135,0.197-0.271,0.146-0.306c-0.032-0.021-0.063-0.042-0.1-0.061c-0.049-0.023-0.099-0.04-0.147-0.056
			c-0.083-0.026-0.27,0.071-0.416,0.221s-0.573-0.063-1.043-0.354c-0.836-0.516-1.854-0.73-2.87-0.624
			c-0.663,0.07-1.521,0.151-2.047,0.615c-0.623,0.547,0.396,1.429,0.763,1.787c0.786,0.767,1.433,1.625,2.051,2.528
			c0.437,0.639,0.903,0.98,1.688,0.836c1.06-0.195,1.675-0.919,1.884-1.798c0.128-0.537,0.344-1.256,0.68-1.581
			c0.336-0.324,0.737-0.182,0.808,0.336c0.068,0.518,0.058,0.968,0.052,0.997c-0.006,0.029-0.285,0.317-0.624,0.643
			c-0.34,0.326-0.519,0.709-0.378,0.837c0.14,0.129,0.381,0.093,0.507-0.033s0.096,0.205-0.173,0.688
			c-0.598,1.069-1.497,1.829-2.454,2.973c-0.118,0.141-0.212,0.311-0.288,0.5c-0.119,0.297-0.465,0.855-0.835,1.225
			C47.264,32.769,47,32.708,47,32.259c-0.001-0.449,0.279-1.131,0.671-1.521c0.016-0.016,0.032-0.033,0.049-0.049
			c0.39-0.391,0.679-0.797,0.644-0.906c-0.02-0.064-0.043-0.131-0.066-0.193c-0.024-0.064-0.054-0.125-0.083-0.186
			c-0.049-0.102-0.376,0.096-0.733,0.441c-0.356,0.344-0.689,0.365-0.759,0.051c-0.07-0.316-0.293-0.902-0.51-1.299
			s-0.202-0.922,0.063-1.192c0.268-0.27,0.397-0.593,0.29-0.719c-0.105-0.126-0.4-0.016-0.653,0.245
			c-0.253,0.259-0.717,0.103-1.072-0.32c-0.126-0.149-0.256-0.296-0.39-0.44c-0.375-0.405-0.545-0.873-0.344-1.079
			s0.127-0.555-0.177-0.764c-0.305-0.208-0.704-0.22-0.884-0.04c-0.179,0.181-0.517,0.18-0.758,0.006
			c-0.242-0.173-0.316-0.434-0.158-0.594c0.158-0.16,0.172-0.353,0.029-0.431s-0.377-0.012-0.522,0.144
			c-0.146,0.155-0.574,0.089-0.971-0.129c-0.396-0.218-0.628-0.484-0.507-0.614c0.12-0.13-0.027-0.338-0.335-0.458
			c-0.309-0.119-0.65-0.117-0.764-0.006c-0.111,0.111-0.616,0.026-1.134-0.165c-1.425-0.525-2.945-0.923-4.52-1.2
			c-0.545-0.096-0.959-0.184-0.926-0.215c0.033-0.032,0.006-0.063-0.061-0.068c-0.067-0.005-0.146,0.014-0.175,0.043
			c-0.029,0.029-0.033,0.027-0.005-0.002c0.026-0.029,0.029-0.052,0.006-0.054c-0.024-0.002-0.067,0.019-0.097,0.046
			c-0.026,0.028-0.493-0.01-1.044-0.065C19.865,19.393,7.027,23.949,6.912,31.974c-0.008,0.551-0.217,1.285-0.548,1.639
			c-0.331,0.352-0.701,0.201-0.772-0.348c-0.019-0.148-0.035-0.299-0.049-0.449c-0.051-0.549,0.249-1.293,0.616-1.66
			c0.367-0.365,0.645-0.678,0.619-0.701c-0.025-0.023-0.323,0.236-0.664,0.578c-0.341,0.344-0.617,0.502-0.616,0.355
			C5.499,31.3,5.5,31.21,5.505,31.123c0.005-0.096-0.017-0.207-0.06-0.33c-0.06-0.176,0.021-0.463,0.213-0.652
			c0.192-0.191,0.34-0.352,0.328-0.361c-0.006-0.006-0.013-0.01-0.02-0.016c-0.107-0.09-0.208-0.184-0.306-0.277
			c-0.165-0.158-0.407-0.172-0.554-0.021c-0.146,0.15-0.429,0.045-0.646-0.227c-0.217-0.271-0.276-0.615-0.122-0.773
			c0.153-0.158,0.173-0.447,0.061-0.652c-0.113-0.205-0.071-0.28,0.107-0.227c0.104,0.032,0.215,0.046,0.332,0.034
			c0.815-0.076,1.561-0.398,2.079-1.044c0.742-0.926,1.383-1.884,2.22-2.736c0.111-0.113,0.439-0.384,0.723-0.686
			c0.377-0.401,0.478-0.872,0.504-0.899c0.026-0.027,0.018-0.048-0.021-0.045c-0.038,0.004-0.08-0.007-0.09-0.029
			c-0.006-0.015-0.011-0.027-0.023-0.038c-0.031-0.028-0.075-0.047-0.125-0.059c-0.076-0.018-0.573-0.14-1.124-0.177
			c-2.68-0.181-6.265,1.382-5.466,4.438c0.017,0.062,0.036,0.125,0.06,0.188c0.038,0.103-0.092,0.351-0.299,0.554
			c-0.207,0.204-0.521,0.215-0.696,0.018c-0.159-0.177-0.269-0.307-0.304-0.369c-0.035-0.062-0.065-0.128-0.094-0.194
			C2.138,26.435,2.134,25.986,2.168,25.543z M39.39,13.891c0.229-0.218,0.232-0.212,0.003,0.005
			C39.164,14.113,39.162,14.109,39.39,13.891z M41.542,12.135c0-0.701,0.377-2.107,1.316-2.14c1.232-0.043,2.291,1.023,2.551,2.157
			c0.187,0.812-0.482,2.388-1.421,2.388C42.635,14.54,41.627,13.411,41.542,12.135z M48.09,25.464
			c-0.161-0.259-0.308-0.495-0.436-0.646c-0.224-0.264-0.859-0.807-1.34-1.354c-0.362-0.416-0.281-0.799,0.025-0.697
			c0.184,0.061,0.365,0.136,0.543,0.213c0.279,0.123,0.536,0.312,0.761,0.534c0.368,0.362,0.748,1.129,0.833,1.65
			C48.56,25.686,48.317,25.83,48.09,25.464z M5.371,25.225c0-0.474,0.106-0.948,0.267-1.309c0.138-0.308,0.376-0.624,0.667-0.872
			c0.42-0.357,0.926-0.447,0.978-0.451c0.043-0.003,0.081-0.006,0.094-0.006c0.183,0,0.354,0.026,0.523,0.065
			c0.285,0.066,0.289,0.527-0.083,0.937c-0.52,0.569-1.206,1.257-1.32,1.386c-0.24,0.274-0.463,0.564-0.682,0.855
			c-0.045,0.061-0.089,0.123-0.132,0.185C5.611,26.117,5.371,25.777,5.371,25.225z"/>
		<path d="M17.574,32.982c1.944,0.264,4.125-0.502,5.248-2.156c1.4-2.062-0.763-4.236-2.729-4.591
			c-2.061-0.372-4.435,0.745-5.291,2.64C13.904,30.865,15.837,32.585,17.574,32.982z M16.834,28.33
			c0.211-0.51,0.628-0.937,0.75-1.051c0.123-0.115,0.639-0.482,1.182-0.382c1.117,0.205,2.262,1.595,2.459,2.462
			c0.268,1.18-0.603,3.092-2.059,2.893c-0.136-0.029-0.267-0.068-0.393-0.113c-0.213-0.074-0.343-0.191-0.3-0.234
			s0.041-0.043-0.005-0.002c-0.045,0.041-0.371-0.055-0.676-0.291s-0.258-0.707,0.042-0.982c0.299-0.273,0.519-0.625,0.505-0.783
			c-0.008-0.094-0.013-0.189-0.013-0.285v-0.424c0-0.076,0.011-0.15,0.032-0.221c0.021-0.068,0.087-0.248,0.188-0.463
			c0.119-0.248-0.087-0.131-0.491,0.244c-0.207,0.191-0.414,0.385-0.621,0.576c-0.405,0.377-0.856,0.232-0.775-0.314
			C16.691,28.748,16.749,28.537,16.834,28.33z"/>
		<path d="M18.937,35.787c-3.393,0.545-3.13,2.939-0.325,4.381c4.604,2.367,10.328,1.748,15.067,0.189
			c1.887-0.621,6.643-3.273,2.252-4.596c-0.05-0.016-0.119-0.018-0.199-0.012c-0.109,0.01-0.305,0.031-0.436,0.051
			c-0.072,0.01-0.15,0.023-0.236,0.045c-1.043,0.256-1.459,0.455-2.478,0.971c-3.391,1.719-7.395,1.344-10.78-0.008
			C20.769,36.396,20.154,35.591,18.937,35.787z M18.348,37.136c-0.221,0.236,0.075,0.02-0.027,0.113
			c-0.103,0.094-0.14-0.053,0.046-0.248C18.552,36.81,18.567,36.898,18.348,37.136z M30.892,37.654
			C30.981,37.628,30.981,37.628,30.892,37.654C30.803,37.681,30.803,37.681,30.892,37.654z M28.375,38.322
			c0.54-0.119,0.922-0.184,0.857-0.119c-0.063,0.064-0.064,0.117-0.005,0.121c0.036,0.002,0.072,0.004,0.109,0.004
			c0.338-0.002,0.673-0.014,1.005-0.037c0.552-0.037,1.203-0.311,1.458-0.572c0.256-0.266,0.892-0.609,1.421-0.766
			c0.129-0.039,0.258-0.076,0.387-0.111c0.531-0.154,1.416-0.16,1.858,0.172c1.188,0.891-0.384,2.021-1.401,2.504
			c-3.039,1.439-6.39,1.67-9.607,1.186c-0.546-0.082-0.959-0.197-0.928-0.23c0.032-0.035-0.005-0.084-0.083-0.107
			c-0.047-0.016-0.094-0.031-0.14-0.047c-0.286-0.111-0.563-0.229-0.826-0.348c-0.451-0.205-0.885-0.314-0.984-0.219
			s-0.597,0.012-1.094-0.23c-0.352-0.17-0.697-0.355-1.029-0.549c-0.477-0.279-0.586-0.795-0.267-1.115s0.642-0.537,0.724-0.486
			c0.049,0.029,0.1,0.059,0.149,0.086C22.9,39.011,25.645,38.925,28.375,38.322z"/>
		<path d="M39.157,28.865c-1.108-4.435-9.215-2.858-8.391,1.596C31.574,34.824,39.854,33.224,39.157,28.865z M34.97,27.904
			c0.092-0.126,0.192-0.243,0.3-0.347c0.182-0.179,0.557-0.192,0.793-0.029c0.156,0.107,0.296,0.217,0.41,0.319
			c0.426,0.379,0.618,1.002,0.752,1.538c0.107,0.672-0.054,1.592-0.512,2.205c-0.331,0.441-0.875,0.541-0.979,0.482
			c-0.061-0.035-0.121-0.072-0.18-0.117c-0.013-0.008-0.022-0.016-0.035-0.025c-0.018-0.016-0.107,0.047-0.2,0.141
			c-0.092,0.092-0.434,0.146-0.736,0.035c-0.305-0.111-0.368-0.416-0.178-0.609c0.191-0.193,0.312-0.408,0.271-0.482
			c-0.041-0.076-0.241,0.043-0.456,0.27c-0.214,0.227-0.674,0.199-0.944-0.135s-0.104-0.986,0.273-1.391
			c0.09-0.096,0.179-0.191,0.268-0.287c0.377-0.402,0.747-0.939,0.878-1.17C34.771,28.16,34.863,28.029,34.97,27.904z
			 M33.229,27.764c0.132-0.179,0.283-0.349,0.452-0.511c0.085-0.08,0.176-0.142,0.272-0.188c0.165-0.08,0.004,0.21-0.379,0.593
			C33.191,28.039,33.006,28.066,33.229,27.764z"/>
		<path d="M7.722,27.039c0.042,0.057,0.082,0.107,0.118,0.15c0.204,0.245,0.742-0.26,1.237-1.004c0.3-0.45,0.625-0.881,0.975-1.293
			c0.357-0.415,0.735-0.815,1.138-1.203c0.659-0.634,1.05-1.148,0.815-1.22c-0.016-0.004-0.029-0.009-0.044-0.014
			c-0.023-0.007-0.355,0.308-0.74,0.705c-0.972,1.002-1.943,2.004-2.914,3.007C7.921,26.563,7.658,26.955,7.722,27.039z"/>
	</g>
</g>
<g>
</g>
<g>
</g>
<g>
</g>
<g>
</g>
<g>
</g>
<g>
</g>
<g>
</g>
<g>
</g>
<g>
</g>
<g>
</g>
<g>
</g>
<g>
</g>
<g>
</g>
<g>
</g>
<g>
</g>
</svg>
