<?xml version="1.0" encoding="iso-8859-1"?>
<!-- Generator: Adobe Illustrator 16.0.0, SVG Export Plug-In . SVG Version: 6.00 Build 0)  -->
<!DOCTYPE svg PUBLIC "-//W3C//DTD SVG 1.1//EN" "http://www.w3.org/Graphics/SVG/1.1/DTD/svg11.dtd">
<svg version="1.1" id="Capa_1" xmlns="http://www.w3.org/2000/svg" xmlns:xlink="http://www.w3.org/1999/xlink" x="0px" y="0px"
	 width="54.51px" height="54.51px" viewBox="0 0 54.51 54.51" style="enable-background:new 0 0 54.51 54.51;" xml:space="preserve"
	>
<g>
	<g>
		<path d="M33.393,29.715c0,0.019,0.057,0.528,0.377,1.019c0.19,0.291,0.445,0.535,0.763,0.734c0.624,0.473,1.332,0.707,2.14,0.707
			c0.139,0,0.293-0.019,0.459-0.058c0.252-0.058,0.467-0.136,0.491-0.136s0.497-0.082,0.953-0.385s1.019-1,1.183-1.511
			c0.098-0.303,0.147-0.621,0.147-0.955c0-0.157-0.019-0.323-0.054-0.495c-0.059-0.269-0.25-0.931-0.594-1.363
			c-0.195-0.246-0.443-0.466-0.744-0.664c-0.605-0.345-1.24-0.521-1.914-0.521c-0.364,0-0.742,0.066-1.133,0.193
			c-0.623,0.221-1.132,0.596-1.52,1.136c-0.407,0.473-0.613,1.046-0.613,1.714c0,0.103,0.004,0.196,0.012,0.279
			C33.359,29.563,33.393,29.696,33.393,29.715z"/>
		<path d="M51.262,19.651c-0.967-0.572-1.886-0.78-1.902-0.78c-0.01,0-0.172-0.034-0.395-0.072c-0.017-0.01-0.037-0.023-0.053-0.033
			l-0.057-0.035l-0.023-0.002l-0.223-0.17l0.119,0.161l-0.133-0.013c-0.554-0.042-1.049-0.117-1.641-0.15l-0.336-0.006
			c-0.271-0.008-0.543-0.014-0.814-0.017l-0.494-0.01l-0.043-0.001l-0.043,0.012c-0.465,0.129-0.902,0.294-1.334,0.467
			c-0.004,0.001-0.006,0.002-0.01,0.003c-0.008,0.003-0.014,0.006-0.021,0.01c-0.194,0.078-0.391,0.155-0.583,0.237
			c-0.315,0.136-0.628,0.276-0.94,0.427c-0.076,0.034-0.164,0.081-0.246,0.127c-0.5-0.25-1.285-0.62-2.199-0.97
			c-1.013-0.387-2.049-0.709-3.11-0.965c-0.997-0.243-2.002-0.437-3.017-0.592c-0.285-0.062-0.582-0.109-0.875-0.155
			c-1.334-0.284-2.342-0.803-2.297-1.361c0.029-0.387,0.074-0.774,0.135-1.162c0.115-0.778,0.371-1.502,0.761-2.168
			c0.181-0.355,0.429-0.634,0.709-0.877c0.598-0.174,1.284-0.191,1.95-0.105c0.688,0.069,1.281,0.212,1.969,0.439
			c0.331,0.108,0.65,0.202,0.939,0.335c0.092,0.042,0.186,0.089,0.271,0.135c0.002,0.061,0.003,0.12,0.009,0.19
			c0.077,1.577,0.963,2.99,2.078,3.994c1.212,1.022,2.688,1.5,4.186,1.653l0.02,0.002h0.025c1.526-0.008,3.053-0.386,4.367-1.254
			c0.17-0.115,0.308-0.213,0.489-0.371c0.04-0.037,0.079-0.071,0.118-0.106c0.217-0.14,0.436-0.275,0.643-0.445
			c0.541-0.45,0.981-0.974,1.328-1.567c0.18-0.305,0.321-0.631,0.43-0.977c0.179-0.563,0.259-1.173,0.273-1.336
			c0.01-0.087,0.014-0.185,0.014-0.296c0.021-1.118-0.33-2.166-1.041-3.139c-0.353-0.458-0.748-0.852-1.185-1.179
			c-0.739-0.559-1.483-0.8-1.502-0.8c-0.013,0-0.258-0.106-0.608-0.212l-0.195-0.105l-0.069-0.036l-0.067-0.032
			c-0.072-0.031-0.154-0.051-0.232-0.056c0.111,0.008,0.021,0,0.042,0.001c0.106,0.017-0.017-0.009-0.038-0.019l-0.532-0.156
			c-0.36-0.101-0.717-0.2-1.116-0.276l-0.058-0.011l-0.056,0.001c-0.611,0.008-1.154,0.016-1.803,0.083l-1.627,0.238l-0.24,0.036
			l-0.144,0.096c-1.008,0.679-2.435,1.232-3.683,1.425c-0.312,0.041-0.627,0.054-0.87,0.006c-0.351-0.07-0.754-0.129-1.111-0.166
			c-0.737-0.078-1.464-0.12-2.209-0.12h-0.036l-0.025,0.003l-0.893,0.113l-0.441,0.062l-0.23,0.036
			c-0.152,0.036-0.16,0.047-0.199,0.059l-0.108,0.037c-0.569,0.203-1.117,0.403-1.693,0.671l-0.062,0.028l-0.049,0.038
			c-0.496,0.391-0.936,0.803-1.359,1.25c-0.409,0.434-0.847,0.958-1.128,1.527c-0.567,1.171-0.863,2.288-1.09,3.501l-0.005,0.018
			l-0.003,0.025c-0.013,0.14-0.144,0.424-0.326,0.649c-0.18,0.235-0.399,0.455-0.64,0.649c-0.483,0.382-1.05,0.67-1.632,0.771
			c-1.356,0.218-2.744,0.486-4.082,0.836c-1.102,0.29-2.158,0.682-3.189,1.128c-0.004,0.001-0.007,0.002-0.011,0.003
			c-0.675,0.25-1.391,0.573-2.123,0.946l-0.063,0.032c-0.099-0.052-0.198-0.105-0.305-0.16c-0.344-0.176-0.703-0.329-1.08-0.456
			c-0.796-0.258-1.634-0.389-2.521-0.389H9.471c-1.318-0.152-2.652-0.083-3.84,0.348c-0.897,0.336-1.69,0.831-2.337,1.344
			c-0.652,0.535-1.159,1.102-1.582,1.591c-0.171,0.009,0.583-1.534,2.066-2.537c0.349-0.249,0.705-0.464,1.083-0.655
			c0.147-0.073,0.328-0.16,0.507-0.236c0.172-0.074,0.336-0.136,0.486-0.19c0.604-0.211,0.999-0.308,0.917-0.408
			c-0.425-0.004-0.922,0.046-1.464,0.191c-0.137,0.042-0.269,0.078-0.418,0.132c-0.12,0.043-0.214,0.067-0.373,0.138
			c-0.305,0.125-0.557,0.253-0.838,0.41c-1.082,0.589-2.182,1.677-2.861,2.94c-0.18,0.325-0.32,0.628-0.471,1.045
			c-0.132,0.37-0.222,0.758-0.28,1.146c-0.03,0.195-0.046,0.39-0.058,0.584L0,24.936v0.072l0.005,0.186l0.012,0.113
			c0.008,0.116,0.072,0.515,0.117,0.652c0.047,0.199,0.106,0.373,0.166,0.547c0.507,1.345,1.17,2.33,1.902,3.193l0.145,0.171
			l0.044,0.029c0.484,0.34,0.919,0.617,1.29,0.851l0.483,0.295c0.017,0.009,0.029,0.017,0.043,0.024l0.024-0.176
			c-0.01-0.045-0.018-0.096-0.017-0.141c0-0.044,0.005-0.088,0.013-0.128c0.002-0.005,0.002,0.009,0.003,0.011l0.018,0.133
			l-0.017,0.125c0.009,0.041,0.021,0.082,0.034,0.109c0.004,0.029,0.012,0.059,0.025,0.085c-0.007,0.021-0.04,0.005-0.083-0.019
			l-0.038,0.285l-0.002,0.019l-0.002,0.06c-0.018,0.826,0.024,1.629,0.138,2.448c0.054,0.415,0.131,0.81,0.244,1.259
			c0.089,0.352,0.237,0.809,0.379,1.189c0.295,0.785,0.693,1.568,1.138,2.26c0.186,0.318,0.455,0.693,0.699,1.039
			c0.253,0.334,0.509,0.669,0.787,0.984c1.077,1.281,2.476,2.384,3.804,3.267c1.379,0.917,2.803,1.701,4.361,2.368
			c2.998,1.273,6.231,2.064,9.448,2.33c3.276,0.294,6.44-0.051,9.431-0.713l0.514-0.151l0.22-0.067l0.024-0.008l0.113-0.029
			l0.047-0.019l0.09-0.036c0.231-0.093,0.406-0.17,0.539-0.236c0.262-0.131,0.381-0.237,0.404-0.307
			c0.061-0.148-0.15-0.214,0.272-0.469c1.837-0.427,3.655-1.086,5.385-1.938c0.508-0.256,0.815-0.418,1.278-0.693
			c0.449-0.264,0.867-0.542,1.266-0.827c0.799-0.582,1.555-1.217,2.23-1.912c0.662-0.687,1.312-1.442,1.826-2.202
			c0.569-0.836,0.981-1.673,1.299-2.541c0.218-0.586,0.363-1.173,0.479-1.754c0.301-0.986,0.462-2.012,0.462-3.084
			c0-0.263-0.014-0.512-0.038-0.762c-0.01-0.109-0.021-0.215-0.035-0.318c0.002-0.002,0.002-0.004,0.004-0.005L51.73,29.7
			c0.181-0.146,0.375-0.305,0.578-0.477c0.418-0.355,0.793-0.765,1.127-1.228c0.713-0.974,1.074-2.051,1.074-3.235v-0.328
			c-0.131-1.356-0.688-2.538-1.658-3.53C52.362,20.407,51.832,19.988,51.262,19.651z M6.039,24.699
			c0.07-0.778,0.407-1.462,1.038-2.04c0.346-0.264,0.702-0.473,1.07-0.628c0.632-0.267,1.211-0.311,1.227-0.311
			c0.017,0,0.03,0,0.03,0h0.263c0.319,0,0.62,0.04,0.891,0.128c0.137,0.045,0.277,0.09,0.424,0.134
			c0.235,0.072-0.155,0.586-0.815,1.22c-0.402,0.387-0.781,0.788-1.138,1.203c-0.35,0.412-0.675,0.843-0.975,1.293
			c-0.495,0.745-1.033,1.25-1.237,1.004c-0.205-0.245-0.551-0.724-0.674-1.101c-0.069-0.214-0.104-0.45-0.104-0.708V24.699z
			 M13.542,38.843c-0.595-0.472-1.15-0.967-1.67-1.484c-1.038-1.17-1.749-2.428-2.142-3.789c-0.176-0.52-0.26-1.133-0.26-1.846
			c0-1.836,0.571-3.463,1.718-4.892c0.233-0.296,0.482-0.576,0.735-0.852c0.216-0.201,0.435-0.402,0.658-0.593
			c1.059-0.927,2.229-1.689,2.767-2.171c0.135-0.079,0.272-0.15,0.408-0.226c1.314-0.587,2.686-1.016,4.123-1.307
			c1.528-0.325,3.078-0.516,4.627-0.585c1.54-0.068,3.098-0.041,4.587,0.082c1.506,0.119,3.023,0.326,4.371,0.569
			c1.514,0.243,0.76-0.071,1.229-0.084c1.688,0.558,3.478,1.259,5.062,2.024c1.596,0.774,2.914,1.731,3.961,2.673
			c1.071,0.921,1.688,1.834,2.135,2.356c0.418,0.525,0.668,0.629,0.621,0.047c-1.846-3.58-5.42-5.704-9.11-6.995
			c-2.916-1.067-6.045-1.677-9.218-1.819c0.166-0.003,0.328-0.017,0.496-0.017c1.013,0,2.054,0.056,3.119,0.163
			c1.071,0.108,2.112,0.27,3.127,0.489l1.002,0.256l1.037,0.26c1.77,0.499,3.452,1.211,5.051,2.134
			c1.603,0.933,2.94,2.105,4.049,3.533c0.516,0.734,0.929,1.511,1.244,2.33c0.314,0.823,0.47,1.674,0.47,2.56v0.776
			c0,0.117-0.011,0.231-0.033,0.344c-0.035,0.189-0.272,1.22-0.767,2.201c-0.287,0.572-0.647,1.127-1.079,1.662
			c-0.753,1.016-1.724,1.943-2.912,2.785c-1.771,1.188-3.69,2.094-5.763,2.719c-2.071,0.627-4.189,1.022-6.349,1.197
			c-0.364,0.049-0.735,0.065-1.097,0.065h-1.102c-2.159,0-4.293-0.222-6.396-0.664c-2.103-0.44-4.08-1.147-5.938-2.119l-0.455-0.261
			l-0.244-0.114C15.473,40.188,14.51,39.61,13.542,38.843z M48.191,24.404c-0.358-0.415-0.739-0.816-1.145-1.203
			c-0.66-0.634-0.883-1.282-0.398-1.389c0.287-0.062,0.584-0.094,0.894-0.094c0.647,0,1.287,0.151,1.911,0.45
			c0.627,0.349,1.09,0.79,1.395,1.331c0.209,0.452,0.321,0.875,0.321,1.265c0,0.536-0.126,1.02-0.386,1.456
			c-0.118,0.178-0.242,0.343-0.373,0.496c-0.225,0.261-0.738-0.235-1.232-0.999C48.881,25.256,48.553,24.818,48.191,24.404z
			 M44.639,19.271c-0.621,0.28-1.108,0.591-1.27,0.694c-0.238,0.154-0.466,0.245-0.538,0.206c-0.073-0.039-0.157-0.053-0.176-0.071
			c0,0-0.005-0.003-0.007-0.003c0.273-0.13,0.552-0.256,0.83-0.375C43.862,19.56,44.249,19.41,44.639,19.271z M43.643,17.703h-0.004
			h-0.002c-1.401-0.138-2.807-0.606-3.896-1.523c-1.041-0.935-1.849-2.225-1.922-3.645c-0.007-0.087-0.013-0.175-0.013-0.263
			c-0.01-0.078,0.026-0.199-0.074-0.239c-0.146-0.1-0.305-0.176-0.465-0.25c-0.32-0.148-0.66-0.249-0.994-0.357
			c-0.666-0.221-1.354-0.394-2.057-0.461c-0.285-0.031-0.574-0.046-0.863-0.046c0.488-0.134,0.908-0.144,1.014-0.144
			c0.16,0,0.29,0,0.29,0c0.754,0,1.489,0.107,2.198,0.309c0.359,0.103,0.72,0.213,1.076,0.33c0.592,0.192,1.065,0.41,1.065,0.464
			c0,0.054,0,0.098,0,0.098c0,0.753,0.154,1.439,0.455,2.056c0.302,0.613,0.698,1.171,1.194,1.669
			c1.039,1.055,2.311,1.649,3.824,1.775h0.739c0.15,0,0.291-0.026,0.438-0.036C44.994,17.609,44.317,17.7,43.643,17.703z
			 M45.148,9.127c0.388-0.012,0.744,0.045,1.072,0.173c0.564,0.219,1.328,0.892,1.601,1.427c0.161,0.317,0.241,0.667,0.241,1.052
			v0.064c0,0.035-0.041,0.539-0.307,1.041c-0.156,0.292-0.365,0.562-0.631,0.807c-0.564,0.494-1.197,0.743-1.914,0.743H45.02
			c-0.713,0-1.354-0.249-1.945-0.743c-0.559-0.477-0.838-1.069-0.838-1.784v-0.128c0-0.671,0.211-1.227,0.652-1.684
			c0.385-0.472,0.89-0.776,1.514-0.904C44.598,9.144,44.848,9.127,45.148,9.127z M41.161,6.705l0.021-0.014l0.035-0.005l1.692-0.249
			c0.377-0.04,0.75-0.058,1.124-0.069c-0.609,0.093-1.1,0.232-1.115,0.232c-0.017,0-0.865,0.281-1.705,0.931
			c-0.797,0.617-2.261,0.879-3.652,0.648C38.835,7.919,40.09,7.425,41.161,6.705z M29.581,8.941L29.581,8.941
			c0.531-0.25,1.081-0.456,1.634-0.656c0.569-0.171,1.156-0.201,1.74-0.287h0.002h0.003c0.011,0,0.022,0.001,0.034,0.001
			c-0.199,0.031-0.332,0.056-0.342,0.056c-0.02,0-0.614,0.125-1.271,0.434c-0.398,0.188-0.773,0.415-1.121,0.681
			c-0.693,0.531-1.254,1.172-1.687,1.931c-0.539,0.882-0.896,1.825-1.068,2.816c-0.085,0.492-0.149,0.981-0.193,1.468
			c-0.052,0.585-0.76,1.131-1.76,1.481c0.48-0.458,0.932-1,1.059-1.865c-0.041-0.233-0.161,0.276-0.404,0.525
			c-0.177,0.216-0.349,0.363-0.365,0.28c0.206-0.278,0.366-0.589,0.429-0.956l-0.001,0.008c0.197-1.13,0.501-2.268,1-3.313
			C27.807,10.513,28.686,9.69,29.581,8.941L29.581,8.941z M13.405,42.69c-2.146-1.213-4.129-2.731-5.477-4.682
			c-0.172-0.225-0.347-0.517-0.52-0.771c-0.14-0.225-0.299-0.493-0.428-0.747c-0.266-0.513-0.496-1.065-0.663-1.601
			c-0.338-1.08-0.465-2.272-0.471-3.418l-0.005,0.047l0.004-0.086c0,0.014,0.001,0.026,0.001,0.039l0.039-0.355l0.022-0.189
			l0.006-0.045l0.003-0.025l0.008-0.096c0.002-0.095-0.009-0.195-0.033-0.291c-0.012-0.045-0.027-0.094-0.043-0.134l-0.02-0.041
			c-0.026-0.054-0.057-0.106-0.089-0.157c-0.182-0.26-0.271-0.326-0.391-0.453l-0.325-0.309c-0.391-0.357-0.779-0.682-1.156-1.004
			c0.014,0.02,0.027,0.044,0.041,0.064l-0.141-0.15c0.032,0.027,0.067,0.059,0.099,0.086c-0.377-0.529-0.724-1.125-1.006-1.722
			c-0.288-0.624-0.529-1.269-0.509-1.729c0.021-0.629,0.161-1.203,0.441-1.781c0.213-0.441,0.49-0.841,0.794-1.221
			c-0.144,0.225-0.293,0.447-0.412,0.688c-0.357,0.727-0.533,1.486-0.533,2.285c0.039,1.097,0.442,2.158,1.195,3.171
			c0.302,0.438,0.671,0.843,1.107,1.213c0.691,0.588,1.32,1.08,1.295,1.271c-0.016,0.112-0.027,0.229-0.039,0.348
			c-0.021,0.252-0.035,0.48-0.035,0.697c0,1.016,0.154,2.026,0.456,3.043c0.305,1.012,0.747,1.965,1.328,2.846
			c1.101,1.686,2.479,3.09,4.147,4.211c1.662,1.119,3.421,2.037,5.275,2.75c1.252,0.474,2.532,0.859,3.836,1.162
			C18.467,45.011,15.814,44.065,13.405,42.69z"/>
		<path d="M22.054,36.379c-0.257-0.177-0.505-0.382-0.585-0.417c-0.046-0.02-0.094-0.04-0.145-0.062
			c-0.108-0.043-0.221-0.086-0.33-0.127c-0.256-0.088-0.452-0.135-0.581-0.135c-0.076,0-0.175,0.016-0.295,0.047
			c-0.161,0.041-0.303,0.086-0.322,0.086c-0.019,0-0.243,0.067-0.446,0.235c-0.202,0.169-0.43,0.509-0.479,0.736
			c-0.028,0.128-0.042,0.267-0.042,0.418c0,0.258,0.063,0.528,0.193,0.806c0.067,0.113,0.151,0.213,0.253,0.303
			c0.166,0.143,1.462,0.965,3.009,1.56c1.724,0.662,3.549,0.991,5.479,0.991c0.151,0,0.316,0,0.481,0
			c1.428,0,2.812-0.137,4.146-0.404c1.338-0.27,2.636-0.697,3.888-1.277c0.171-0.088,0.354-0.175,0.554-0.263
			c0.102-0.044,0.203-0.095,0.311-0.151c0.168-0.088,0.445-0.224,0.602-0.332c0.093-0.064,0.178-0.141,0.256-0.227
			c0.1-0.102,0.182-0.206,0.243-0.312c0.11-0.19,0.179-0.438,0.194-0.526c0.01-0.05,0.015-0.104,0.015-0.165
			c0-0.128-0.046-0.324-0.138-0.583c-0.129-0.324-0.344-0.55-0.646-0.679c-0.34-0.174-0.631-0.262-0.872-0.262
			c-0.256,0-0.533,0.064-0.809,0.197c-2.35,1.316-4.911,1.984-7.674,2.005c-2.07,0-3.991-0.397-5.762-1.196
			C22.405,36.595,22.238,36.506,22.054,36.379z"/>
		<path d="M18.631,31.599c0.465,0.289,1.121,0.479,1.4,0.531c0.163,0.03,0.333,0.045,0.512,0.045c0.842,0,1.599-0.279,2.269-0.843
			c0.715-0.58,1.068-1.294,1.068-2.133v-0.068v-0.13c0-0.795-0.336-1.477-1.002-2.036c-0.712-0.584-1.493-0.877-2.335-0.877
			c-0.117,0-0.226,0.004-0.324,0.013c-0.112,0.01-0.365,0.049-0.642,0.122c-0.076-0.005-0.157-0.006-0.243,0.004
			c-0.028,0.013,0.093,0.025,0.086,0.038c-0.006,0.002-0.012,0.004-0.018,0.006c-0.082,0.007-0.159,0.007-0.233,0.004
			c-0.135,0.013-0.262,0.021-0.379,0.044c-0.104,0.034-0.16,0.059-0.172,0.072l0.553-0.078c-0.001,0-0.001,0-0.002,0h0.003h-0.001
			c0.032,0,0.068,0.006,0.101,0.006c-0.065,0.023-0.131,0.044-0.193,0.072c-0.258,0.116-0.497,0.269-0.719,0.459
			c-0.221,0.188-0.407,0.395-0.56,0.623c-0.26,0.385-0.426,0.834-0.462,0.953c-0.021,0.07-0.032,0.143-0.032,0.219v0.424
			c0,0.712,0.196,1.337,0.585,1.877C18.107,31.209,18.353,31.427,18.631,31.599z"/>
	</g>
</g>
<g>
</g>
<g>
</g>
<g>
</g>
<g>
</g>
<g>
</g>
<g>
</g>
<g>
</g>
<g>
</g>
<g>
</g>
<g>
</g>
<g>
</g>
<g>
</g>
<g>
</g>
<g>
</g>
<g>
</g>
</svg>
