<?xml version="1.0" encoding="iso-8859-1"?>
<!-- Generator: Adobe Illustrator 16.0.0, SVG Export Plug-In . SVG Version: 6.00 Build 0)  -->
<!DOCTYPE svg PUBLIC "-//W3C//DTD SVG 1.1//EN" "http://www.w3.org/Graphics/SVG/1.1/DTD/svg11.dtd">
<svg version="1.1" id="Capa_1" xmlns="http://www.w3.org/2000/svg" xmlns:xlink="http://www.w3.org/1999/xlink" x="0px" y="0px"
	 width="53.832px" height="53.832px" viewBox="0 0 53.832 53.832" style="enable-background:new 0 0 53.832 53.832;"
	 xml:space="preserve">
<g>
	<g>
		<path d="M5.389,25.384c0.625,2.058,0.503,4.33,0.482,6.45c-0.035,3.384-0.446,9.292,3.493,10.911
			c3.187,1.31,6.541,1.052,9.919,1.1c3.116,0.044,6.189,0.251,9.257,0.086c0.215-0.008,0.433-0.011,0.645-0.022
			c1.181-0.1,2.349-0.244,3.518-0.481c0.093-0.011,0.21-0.022,0.314-0.051c0.316-0.117,0.942-0.429,0.667-0.779
			c-2.977-3.786-3.727-7.936-9.226-7.278c-4.802,0.573-8.27,2.033-9.57-3.685c-0.43-1.891-0.455-3.876-0.457-5.841
			c-0.001-1.105,0.881-2.094,1.977-2.232c0.771-0.097,1.541-0.209,2.314-0.358c0.225-0.044,1.472-0.4,1.046-0.849
			c-3.164-3.336-6.327-6.598-8.43-10.74c-0.312-0.614-2.18,0.028-1.932,0.518c0.022,0.042,0.045,0.084,0.069,0.125
			c0.039,0.068-0.212,0.14-0.54,0.237c-0.24,0.071-0.445,0.171-0.54,0.289C5.649,16.18,2.73,19.43,0.081,22.905
			c-0.28,0.368,0.238,0.491,0.505,0.497C2.592,23.452,4.661,22.988,5.389,25.384z M12.572,17.02
			c1.084,1.392,2.259,2.714,3.468,4.018c0.751,0.81,0.515,1.574-0.54,1.695c-0.634,0.073-1.27,0.143-1.91,0.224
			c-0.369,0.046-1.126,0.263-1.111,0.744c0.129,4.242-0.795,10.775,3.478,13.31c1.599,0.948,4.113,0.222,5.749-0.133
			c5.547-1.203,6.628,1.056,8.623,4.201c0.592,0.933,0.275,1.803-0.771,1.918c-0.625,0.067-1.259,0.122-1.9,0.158
			c-0.11-0.004-0.221-0.007-0.331-0.011c-0.183-0.005-0.342,0.001-0.357,0.017s-0.921,0.067-2.025,0.078
			c-0.737,0.007-1.477,0-2.216-0.017c-1.104-0.025-1.969-0.1-1.933-0.137c0.036-0.036-0.159-0.067-0.435-0.07
			c-0.276-0.004-0.523,0.011-0.552,0.037c-0.029,0.026-0.946-0.002-2.048-0.074c-0.264-0.018-0.527-0.036-0.789-0.054
			c-1.102-0.077-1.889-0.244-1.758-0.368c0.131-0.124,0.208-0.236,0.172-0.252s-0.178,0.083-0.317,0.219
			c-0.139,0.137-0.402,0.234-0.588,0.222c-0.114-0.01-0.227-0.018-0.337-0.025c-0.707-0.053-1.334-0.174-1.891-0.355
			c-1.013-0.326-1.284-1.268-0.757-1.756c0.526-0.488,0.937-0.917,0.915-0.957c-0.014-0.023-0.027-0.048-0.038-0.072
			c-0.132-0.278-0.242-0.571-0.338-0.874c-0.156-0.494-0.811-0.379-1.51,0.271c-0.699,0.648-1.53,0.788-1.771,0.265
			c-0.24-0.523,0.283-1.585,1.09-2.339c0.044-0.042,0.089-0.084,0.134-0.126c0.807-0.754,1.449-1.536,1.437-1.748
			c-0.013-0.211-0.654,0.25-1.435,1.03c-0.104,0.104-0.208,0.208-0.313,0.313c-0.781,0.78-1.644,0.546-1.767-0.553
			c-0.021-0.185-0.039-0.373-0.055-0.56c-0.092-1.102,0.538-2.64,1.308-3.432c0.277-0.285,0.554-0.569,0.831-0.854
			c0.771-0.792,1.396-1.753,1.387-2.146c-0.009-0.396-0.67-0.098-1.469,0.667c-0.615,0.589-1.281,1.225-2.006,1.919
			c-0.022,0.021-0.044,0.044-0.065,0.064c-0.036,0.035-0.05-0.622-0.035-1.469c0.009-0.53,0.015-1.045,0.009-1.534
			c-0.005-0.397-0.014-0.819-0.04-1.248c-0.04-0.688,0.469-1.826,1.2-2.548c0.732-0.722,1.007-1.736,0.421-1.901
			s-1.382,0.16-1.741,0.531c-0.359,0.371-0.805,0.376-1.077,0.077c-0.272-0.299-0.491-0.54-0.41-0.624
			c0.081-0.083,0.125-0.15,0.098-0.151c-0.027-0.001-0.107,0.057-0.177,0.129c-0.07,0.073-0.172,0.107-0.232,0.085
			S5.778,22.74,5.827,22.69c0.049-0.05-0.004-0.093-0.117-0.096c-0.113-0.003,0.326-0.728,1.01-1.596
			c1.079-1.367,2.222-2.714,3.372-4.064C10.806,16.093,11.892,16.148,12.572,17.02z M2.979,21.432
			c1.791-2.347,3.76-4.56,5.668-6.818c0.713-0.844,1.511-1.119,1.817-0.615c0.306,0.503,0.444,1.018,0.286,1.164
			c-0.097,0.089-0.193,0.178-0.287,0.264c-1.914,1.879-3.857,3.787-5.814,5.711c-0.788,0.774-2.102,1.492-2.057,1.03
			C2.609,22.001,2.726,21.765,2.979,21.432z"/>
		<path d="M53.215,32.259c-6.541-0.184-4.58-8.046-5.051-12.442c-0.483-4.536-2.974-7.328-7.078-8.944
			c-6.478-2.55-15.491-2.269-21.562,1.225c-0.081,0.046-0.146,0.091-0.199,0.134c-0.103,0.084-0.289,0.273-0.339,0.447
			c-0.028,0.099-0.011,0.203,0.07,0.307c1.936,2.458,4.004,5.621,6.907,6.987c2.087,0.982,5.271-0.215,7.277-0.746
			c7.022-1.86,6.005,5.725,5.881,10.057c-0.008,0.26-0.061,0.854-0.106,1.436c-0.063,0.793-0.922,1.55-2.026,1.591
			c-1.601,0.061-3.206-0.009-4.807,0.14c-0.379,0.034-1.611,0.607-0.886,1.058c4.549,2.817,7.446,7.123,11.075,10.928
			c0.415,0.436,1.534,0.146,1.8-0.349c2.368-4.401,6.608-7.252,9.579-11.207C54.035,32.499,53.513,32.267,53.215,32.259z
			 M21.799,12.44c-0.237,0.245-0.488,0.366-0.561,0.273c-0.074-0.094,0.113-0.304,0.423-0.454
			C21.971,12.108,22.036,12.196,21.799,12.44z M47.005,38.122c-0.956,0.925-1.836,1.865-2.635,2.873
			c-0.686,0.865-1.222,1.562-1.288,1.492c-0.065-0.07,0.3-0.56,0.815-1.09s0.634-1.317,0.264-1.757
			c-0.371-0.438-1.101-0.359-1.632,0.176c-0.53,0.535-1.185,0.713-1.462,0.396s-0.07-1.008,0.462-1.545s0.909-1.033,0.841-1.105
			c-0.067-0.071-0.543,0.314-1.062,0.86c-0.52,0.548-1.263,0.623-1.665,0.173c-0.403-0.45-0.33-1.244,0.169-1.779
			c0.5-0.535,0.548-1.317,0.085-1.724s-1.246-0.322-1.727,0.159c-0.481,0.481-1.462,0.282-2.233-0.396
			c-0.773-0.679-0.549-1.127,0.556-1.144c1.968-0.029,3.874-0.304,4.22-1.349c0.441-1.34,0.591-2.926,0.585-4.556
			c-0.004-1.104,0.281-2.361,0.722-2.811c0.439-0.449,0.438-0.492-0.005-0.092c-0.442,0.399-0.864-0.17-0.984-1.268
			c-0.086-0.795-0.184-1.556-0.272-2.255c-0.01-0.073-0.021-0.143-0.032-0.213c-0.021-0.117,0.55-0.771,1.272-1.459
			c0.725-0.689,1.262-1.297,1.19-1.344c-0.07-0.046-0.673,0.451-1.344,1.107c-0.671,0.656-0.677,0.652-0.009-0.007
			c0.667-0.659,1.192-1.202,1.172-1.215c-0.021-0.014-0.568,0.493-1.223,1.132c-0.653,0.64-1.309,0.208-2.015-0.642
			c-0.9-1.083-2.357-1.333-4.355-1.104c-1.435,0.164-3.167,0.857-4.868,1.203c-1.598,0.32-3.143,0.336-4.407-0.651
			c-0.013-0.01-0.025-0.021-0.038-0.032c-0.021-0.018,0.359-0.441,0.849-0.944c0.49-0.503,0.745-1.065,0.573-1.258
			c-0.172-0.192-0.742,0.064-1.275,0.575c-0.533,0.51-1.624,0.318-2.356-0.51c-0.026-0.03-0.053-0.06-0.079-0.09
			c-0.728-0.831-0.82-1.991-0.26-2.544c0.559-0.552,0.995-1.021,0.972-1.051c-0.023-0.029-0.002-0.094,0.048-0.144
			c0.05-0.05,0.186-0.15,0.31-0.216s0.46-0.354,0.75-0.641c0.292-0.288,1.409-0.689,2.509-0.789c3.547-0.32,7.241,0.153,10.479,1
			c7.4,1.937,7.915,8.673,7.846,15.169c-0.023,2.136-0.908,6.768,2.584,6.751C52.753,33.452,48.131,37.031,47.005,38.122z"/>
		<path d="M44.006,20.349c-0.056,0.053-0.054,0.056,0.003,0.003C44.063,20.299,44.06,20.295,44.006,20.349z"/>
		<path d="M43.204,30.22c-0.341,0.34-0.683,0.681-1.023,1.021c-0.782,0.779-1.053,1.421-0.607,1.39
			c0.274-0.019,0.542-0.051,0.802-0.103c0.329-0.047,0.603-0.078,0.828-0.104c0.458-0.052,0.9-0.2,0.993-0.3
			c0.093-0.101,0.208-0.576,0.249-1.064c0.021-0.241,0.049-0.531,0.1-0.88c0.016-0.178,0.031-0.411,0.046-0.685
			C44.61,29.114,43.986,29.438,43.204,30.22z"/>
	</g>
</g>
<g>
</g>
<g>
</g>
<g>
</g>
<g>
</g>
<g>
</g>
<g>
</g>
<g>
</g>
<g>
</g>
<g>
</g>
<g>
</g>
<g>
</g>
<g>
</g>
<g>
</g>
<g>
</g>
<g>
</g>
</svg>
