<?xml version="1.0" encoding="iso-8859-1"?>
<!-- Generator: Adobe Illustrator 16.0.0, SVG Export Plug-In . SVG Version: 6.00 Build 0)  -->
<!DOCTYPE svg PUBLIC "-//W3C//DTD SVG 1.1//EN" "http://www.w3.org/Graphics/SVG/1.1/DTD/svg11.dtd">
<svg version="1.1" id="Capa_1" xmlns="http://www.w3.org/2000/svg" xmlns:xlink="http://www.w3.org/1999/xlink" x="0px" y="0px"
	 width="46.866px" height="46.865px" viewBox="0 0 46.866 46.865" style="enable-background:new 0 0 46.866 46.865;"
	 xml:space="preserve">
<g>
	<g>
		<path d="M22.694,45.526c1.678-0.13,10.913-3.783,8.857-6.059c-0.37-0.409-0.876-0.619-0.966-0.656
			c-0.091-0.038-0.222-0.072-0.289-0.083c-0.066-0.012-0.562-0.1-1.11-0.16c-4.002-0.444-7.979,0.901-12.011-0.692
			c-1.761-0.695-3.57-1.422-4.705-3.001c-0.803-1.117-2.317-5.783,0.34-4.925c5.292,1.709,10.583,3.417,15.875,5.125
			c3.631,1.172,5.945,1.329,7.004-2.996c2.074-8.47-2.886-16.07-10.869-18.901c-6.928-2.457-14.146-2.068-19.734,3.055
			c-5.877,5.388-6.742,15.354-2.172,21.669C7.066,43.644,15.991,46.043,22.694,45.526z M4.01,20.465
			c1.519-2.745,3.73-5.057,6.373-6.389c0.118-0.06,0.236-0.115,0.356-0.17c0.197-0.09,0.043,0.159-0.347,0.55
			c-2.048,2.061-4.093,4.122-6.138,6.186C3.866,21.034,3.744,20.948,4.01,20.465z M2.548,33.1c0.025-0.025,0.05-0.051,0.075-0.075
			c0.117-0.128,0.234-0.257,0.352-0.385c0.194-0.213,0.156-0.196-0.087,0.037c-0.242,0.234-0.583,0-0.714-0.536
			c-0.763-3.121-0.371-6.546,0.868-9.634c0.206-0.513,0.294-0.674,0.175-0.371c-0.119,0.305,0.114,0.241,0.512-0.142
			c0.263-0.252,0.526-0.505,0.789-0.762c2.405-2.434,4.819-4.852,7.229-7.273c0.39-0.391,1.133-0.844,1.671-0.968
			c0.706-0.163,1.421-0.271,2.142-0.324c0.551-0.041,0.67,0.262,0.264,0.636c-0.444,0.408-0.882,0.812-1.312,1.208
			c-0.406,0.374-0.629,0.622-0.497,0.552c0.079-0.043,0.158-0.085,0.242-0.123c0.518-0.232,1.045-0.431,1.578-0.601
			c0.526-0.168,1.259-0.585,1.626-0.962s0.945-0.659,1.292-0.616c0.347,0.045,0.442,0.281,0.214,0.516
			c-0.228,0.233,0.006,0.359,0.525,0.312c0.519-0.047,1.02-0.142,1.115-0.248s0.607-0.086,1.134,0.078
			c5.893,1.831,11.048,6.642,12.286,12.438c0.333,1.556,0.567,9.604-2.562,8.594c-1.558-0.503-3.115-1.006-4.674-1.509
			c-3.733-1.205-7.467-2.411-11.201-3.616c-2.1-0.678-3.54-1.306-5.575-0.147c-2.901,1.651,0.803,7.065,2.51,8.232
			c1.846,1.261,4.388,2.021,6.538,2.578c1.284,0.333,2.574,0.304,3.859,0.175c0.55-0.055,0.873,0.013,0.725,0.169
			s-0.225,0.294-0.171,0.308c0.055,0.013,0.244-0.123,0.423-0.304c0.179-0.18,0.698-0.376,1.162-0.432
			c0.463-0.056,0.595,0.153,0.295,0.456c-0.302,0.303-0.13,0.617,0.385,0.664s1.226-0.244,1.585-0.613s0.941-0.657,1.296-0.611
			c0.355,0.045,0.355,0.454,0.006,0.883c-0.521,0.637-1.042,1.274-1.562,1.912c-0.35,0.429-1.044,0.951-1.567,1.129
			c-1.654,0.559-3.357,0.787-5.111,0.688c-2.033-0.015-4.009-0.598-5.938-1.163c-0.425-0.125-0.845-0.265-1.259-0.416
			c-0.518-0.189-1.054-0.438-1.203-0.534c-0.149-0.095-0.289-0.154-0.315-0.131c-0.025,0.024-0.454-0.137-0.946-0.388
			c-0.524-0.268-1.036-0.555-1.534-0.865c-0.469-0.292-0.708-0.678-0.549-0.838c0.159-0.16,0.265-0.314,0.238-0.345
			c-0.026-0.03-0.19,0.077-0.365,0.237c-0.174,0.162-0.573,0.114-0.88-0.119c-0.308-0.233-0.359-0.608-0.123-0.824
			c0.236-0.216,0.255-0.614,0.057-0.9c-0.198-0.286-0.587-0.302-0.883-0.025c-0.297,0.275-0.868,0.196-1.255-0.196
			c-0.252-0.255-0.497-0.519-0.732-0.791c-0.17-0.198-0.331-0.4-0.484-0.605c-0.255-0.344-0.13-0.958,0.254-1.354
			c0.163-0.168,0.325-0.336,0.488-0.503c0.385-0.396,0.629-0.97,0.559-1.286c-0.07-0.316-0.432-0.26-0.823,0.13
			c-0.253,0.251-0.504,0.501-0.755,0.75c-0.391,0.389-0.914,0.324-1.122-0.167S2.507,33.141,2.548,33.1z"/>
		<path d="M13.436,24.958c2.396,1.227,5.422,1.762,7.979,2.587c1.806,0.583,4.19,1.338,5.41-0.199
			c0.343-0.433,0.51-0.926,0.537-0.997c0.016-0.044,0.024-0.089,0.025-0.136c0.002-0.047,0-0.092-0.002-0.137
			c-0.003-0.075,0.331-0.433,0.744-0.8c0.312-0.276,0.625-0.554,0.94-0.835c0.414-0.366,0.727-0.695,0.698-0.733
			c-0.029-0.038-0.373,0.242-0.771,0.626c-0.3,0.291-0.6,0.581-0.898,0.871c-0.397,0.384-0.717,0.246-0.786-0.302
			c-0.105-0.826-0.334-1.581-0.665-2.262c-0.242-0.497-0.338-1.018-0.138-1.204c0.201-0.188,0.104-0.474-0.229-0.611
			c-0.197-0.082-0.4-0.158-0.61-0.227c-0.018-0.007-0.036-0.012-0.054-0.016c-0.03-0.008-0.105,0.032-0.168,0.091
			c-0.063,0.06-0.427-0.218-0.864-0.555c-1.688-1.303-3.968-1.954-6.368-1.859C15.518,18.368,8.939,22.656,13.436,24.958z
			 M15.775,20.2c4.05-2.897,8.977,1.143,9.606,5.221c0.084,0.546-0.207,1.411-0.758,1.439c-1.981,0.102-6.819-2.002-7.702-2.287
			C14.553,23.811,12.41,22.608,15.775,20.2z"/>
		<path d="M34.79,4.198c-3.691,1.182-6.72,3.941-8.907,7.062c-0.018,0.025-0.011,0.04-0.021,0.062
			c-0.013,0.024-0.039,0.045-0.047,0.07c-1.414,4.616,9.205,1.796,11.213,1.146c1.593-0.515,10.311-4.072,9.819-6.556
			C46.074,2.073,37.5,3.331,34.79,4.198z M43.843,6.256c0.218,0.509-0.327,1.238-0.787,1.542c-0.354,0.232-0.724,0.463-1.112,0.691
			c-0.478,0.278-1.195,0.797-1.592,1.181c-0.008,0.007-0.014,0.014-0.021,0.021c-0.396,0.385-1.131,0.871-1.65,1.056
			c-0.344,0.122-0.739,0.256-1.174,0.395c-0.525,0.168-0.788,0.128-0.58-0.076c0.208-0.203,0.075-0.049,0.299-0.253
			c0.222-0.205,0.119-0.281-0.23-0.18c-0.35,0.103-0.854,0.385-1.117,0.647s-0.909,0.596-1.444,0.726
			c-0.773,0.188-1.56,0.354-2.309,0.478c-0.545,0.089-0.74-0.13-0.432-0.462c0.308-0.331,0.348-0.589,0.09-0.585
			c-0.258,0.005-0.749,0.285-1.096,0.634c-0.348,0.347-1.079,0.658-1.627,0.586c-0.554-0.072-0.975-0.235-1.201-0.516
			c-0.346-0.431-0.09-1.009-0.04-1.074c0.049-0.067,0.195-0.23,0.325-0.364c0.13-0.135,0.23-0.271,0.228-0.305
			s0.269-0.416,0.63-0.833c3.028-3.488,7.037-5.581,11.953-5.041C42.211,4.659,43.465,5.373,43.843,6.256z"/>
		<path d="M26.2,9.254c0.258-2.435-0.592-4.55-2.508-6.087c-1.377-1.104-5.788-3.172-7.155-0.814
			c-0.678,1.17,0.019,2.789,0.415,3.968c0.498,1.481,1.306,2.814,2.421,3.908c1.626,1.592,5.082,2.068,6.414,0.019
			c0.301-0.463,0.395-0.931,0.399-0.954C26.191,9.277,26.199,9.268,26.2,9.254z M18.271,2.403c-0.069,0.14-0.124,0.139-0.145-0.019
			c-0.022-0.173-0.017-0.272,0.028-0.267s0.09,0.014,0.134,0.022C18.362,2.154,18.34,2.263,18.271,2.403z M24.232,9.838
			c-0.024,0.062-0.236,0.297-0.474,0.525c-0.237,0.229-0.897,0.412-1.374,0.132c-0.269-0.158-0.545-0.373-0.815-0.617
			c-0.409-0.371-0.382-1.026,0.011-1.414c0.041-0.041,0.083-0.082,0.124-0.123c0.393-0.388,0.52-0.958,0.314-1.292
			s-0.663-0.296-1.049,0.1c-0.081,0.083-0.163,0.167-0.244,0.25c-0.386,0.396-0.8,0.575-0.919,0.395
			c-0.082-0.125-0.152-0.237-0.206-0.334c-0.013-0.022-0.031-0.063-0.052-0.118c-0.026-0.065,0.266-0.44,0.651-0.837
			c0.106-0.109,0.212-0.219,0.318-0.327c0.385-0.396,0.692-0.729,0.686-0.746c-0.006-0.017-0.323,0.292-0.707,0.688
			c-0.106,0.109-0.212,0.219-0.319,0.329c-0.384,0.396-0.708,0.688-0.721,0.649c-0.014-0.039,0.29-0.391,0.679-0.782
			c0.105-0.107,0.209-0.211,0.311-0.313C20.835,5.61,21.035,5,20.911,4.63s-0.528-0.361-0.922,0.025
			c-0.098,0.096-0.195,0.19-0.292,0.287c-0.394,0.387-0.846,0.272-1-0.257c-0.055-0.189-0.108-0.377-0.159-0.561
			c-0.148-0.532-0.066-1.157,0.165-1.389c0.23-0.232,0.855-0.311,1.362-0.093c2.457,1.053,4.112,3.42,4.234,6.082
			C24.322,9.276,24.255,9.776,24.232,9.838z"/>
		<path d="M28.04,23.158c0.395-0.387,0.373-0.411-0.03-0.033c-0.052,0.048-0.104,0.098-0.154,0.146
			c-0.4,0.381-0.714,0.71-0.709,0.727c0.005,0.018,0.328-0.283,0.721-0.67C27.924,23.271,27.983,23.215,28.04,23.158z"/>
		<path d="M27.875,23.346c-0.395,0.387-0.701,0.754-0.679,0.818c0.021,0.066,0.357-0.188,0.757-0.57
			c0.091-0.087,0.182-0.174,0.273-0.261c0.398-0.381,0.684-0.73,0.634-0.775c-0.05-0.046-0.411,0.229-0.807,0.613
			C27.995,23.23,27.935,23.288,27.875,23.346z"/>
		<path d="M5.397,25.465c0.385-0.396,0.835-1.143,1.029-1.661c0.219-0.583,0.458-1.14,0.714-1.673
			c0.24-0.497,0.138-0.574-0.256-0.188c-1.385,1.362-2.783,2.738-4.192,4.128c-0.393,0.387-0.776,1.146-0.819,1.696
			c-0.009,0.122-0.018,0.243-0.024,0.365c-0.031,0.552,0.29,0.681,0.675,0.284C3.516,27.397,4.477,26.41,5.397,25.465z"/>
		<path d="M5.333,28.059c0.074-0.507-0.157-0.593-0.541-0.195c-0.715,0.737-1.43,1.475-2.144,2.212
			c-0.384,0.396-0.663,0.992-0.606,1.327c0.056,0.335,0.434,0.288,0.828-0.101c0.549-0.542,1.098-1.082,1.646-1.623
			C4.91,29.291,5.259,28.564,5.333,28.059z"/>
		<path d="M6.218,36.692c0.188-0.175,0.179-0.188-0.007-0.011C6.024,36.858,6.03,36.867,6.218,36.692z"/>
	</g>
</g>
<g>
</g>
<g>
</g>
<g>
</g>
<g>
</g>
<g>
</g>
<g>
</g>
<g>
</g>
<g>
</g>
<g>
</g>
<g>
</g>
<g>
</g>
<g>
</g>
<g>
</g>
<g>
</g>
<g>
</g>
</svg>
