<?xml version="1.0" encoding="iso-8859-1"?>
<!-- Generator: Adobe Illustrator 16.0.0, SVG Export Plug-In . SVG Version: 6.00 Build 0)  -->
<!DOCTYPE svg PUBLIC "-//W3C//DTD SVG 1.1//EN" "http://www.w3.org/Graphics/SVG/1.1/DTD/svg11.dtd">
<svg version="1.1" id="Capa_1" xmlns="http://www.w3.org/2000/svg" xmlns:xlink="http://www.w3.org/1999/xlink" x="0px" y="0px"
	 width="40.76px" height="40.76px" viewBox="0 0 40.76 40.76" style="enable-background:new 0 0 40.76 40.76;" xml:space="preserve"
	>
<g>
	<g>
		<path d="M0.408,18.009c-2.084,6.708,4.204,10.354,9.938,8.206c2.887-1.074,7.232,2.342,9.644,3.562
			c1.375,0.695,2.751,1.392,4.126,2.089c2.186,1.105,2.032,2.244,2.68,4.325c2.38,7.667,13.288,3.588,13.936-2.827
			c0.391-3.869-3.294-6.268-6.609-6.603c-1.387-0.14-2.611,0.377-3.862,0.857c-2.041,0.783-3.69-0.54-5.391-1.4
			c-2.903-1.47-5.806-2.938-8.709-4.407c-4.302-2.18,1.431-4.129,3.44-5.139c2.708-1.36,5.414-2.721,8.121-4.081
			c0.981-0.493,4.232,1.396,5.653,1.252c1.498-0.151,3.189-0.429,4.403-1.43c6.488-5.355,0.474-14.448-7.058-11.407
			c-1.391,0.561-2.343,1.488-3.274,2.616c-1.404,1.702-0.393,3.679-2.473,4.929c-2.623,1.577-5.548,2.788-8.281,4.162
			c-1.224,0.614-2.447,1.229-3.671,1.845c-1.194,0.6-3.994-1.016-5.504-1.006C4.773,13.571,1.289,15.175,0.408,18.009z
			 M7.934,15.343c1.297,0.063,2.595,0.253,3.656,0.364c1.41,0.148,2.843-0.786,4.046-1.391c2.692-1.353,5.386-2.707,8.079-4.06
			c0.565-0.285,1.566-0.655,2.489-1.119c0.493-0.248,0.704-0.334,0.497-0.141c-0.121,0.114-0.245,0.229-0.374,0.35
			c-0.505,0.498-0.878,0.862-1.167,1.143c-0.396,0.384-0.322,0.488,0.17,0.24l0.271-0.137c0.493-0.248,1.224-0.752,1.63-1.125
			c0.78-0.717,1.717-1.58,2.777-2.559c0.404-0.375,0.78-1,0.889-1.385c0.107-0.385,0.185-0.641,0.123-0.586
			c-0.034,0.03-0.071,0.062-0.111,0.098c-0.51,0.486-1.153,1.095-1.896,1.794c-0.402,0.378-0.729,0.709-0.728,0.738
			c0.001,0.018,0.002,0.036,0.004,0.054c0.014,0.099-0.147,0.272-0.418,0.479c-0.284,0.219-0.26,0.187,0.012-0.112
			c0.271-0.298,0.383-0.99,0.411-1.447c0.017-0.275,0.037-0.55,0.062-0.825c0.146-1.454,0.933-2.498,2.008-3.14
			c0.476-0.283,0.59-0.104,0.202,0.289c-0.343,0.349-0.687,0.696-1.029,1.046c-0.387,0.394-0.783,0.894-0.872,1.123
			c-0.088,0.229,0.173,0.104,0.562-0.286c0.702-0.702,1.406-1.402,2.11-2.104c0.392-0.39,1.148-0.804,1.7-0.829
			c1.435-0.063,2.913,0.348,3.996,1.241c3.354,2.769,1.809,8.948-2.562,9.559c-0.548,0.076-0.975,0.019-0.942-0.01
			c0.031-0.027,0.024-0.063-0.016-0.078c-0.041-0.015-0.107,0.005-0.148,0.044c-0.041,0.04-0.416,0.048-0.83-0.039
			c-0.413-0.088-0.703-0.233-0.657-0.276c0.044-0.042,0.006-0.081-0.086-0.079c-0.092,0.001-0.181,0.021-0.199,0.04
			c-0.02,0.018-0.031,0.016-0.018-0.003c0.015-0.018,0.011-0.029-0.014-0.028c-0.023,0.001-0.051,0.011-0.061,0.021
			c-0.012,0.01-0.048,0.008-0.082-0.004c-0.021-0.006-0.042-0.014-0.063-0.021c-1.779-0.695-3.3-0.831-5.043,0.045
			c-4.233,2.127-9.553,3.849-13.255,6.847c-3.22,2.608,6.428,6.091,7.758,6.764c1.885,0.954,3.771,1.908,5.653,2.862
			c0.962,0.487,1.918,0.281,2.917,0.166c0.338-0.039,0.667-0.084,0.985-0.131c0.544-0.079,1.062-0.135,1.157-0.122
			c0.096,0.014,0.2-0.008,0.229-0.038c0.028-0.031,0.495-0.126,1.045-0.182c2.21-0.225,3.966,0.102,5.504,2.935
			c1.974,3.634-0.94,7.033-4.318,7.403c-0.55,0.06-0.965-0.016-0.923-0.058c0.041-0.041-0.034-0.154-0.161-0.261
			c-0.128-0.106-0.322-0.103-0.44,0.016c-0.119,0.118-0.494,0.156-0.825,0.042c-0.33-0.114-0.392-0.437-0.153-0.672
			c0.237-0.235,0.276-0.625,0.113-0.887s-0.55-0.221-0.893,0.109c-0.341,0.33-0.639,0.583-0.663,0.565
			c-0.017-0.01-0.031-0.02-0.047-0.031c-0.34-0.28-0.58-0.566-0.752-0.855c-0.281-0.475-0.034-1.25,0.353-1.644l0.371-0.378
			c0.388-0.393,0.695-0.79,0.689-0.888c-0.004-0.059-0.006-0.117-0.006-0.177c0-0.04,0.002-0.079,0.006-0.119
			c0.005-0.065-0.303,0.201-0.688,0.596c-0.15,0.154-0.3,0.309-0.449,0.461c-0.386,0.396-0.714,0.27-0.759-0.281
			c-0.046-0.553-0.156-1.077-0.57-1.554c-0.035-0.041-0.074-0.079-0.114-0.116c-0.065-0.062,0.041-0.279,0.239-0.483
			c0.198-0.205,0.049-0.528-0.334-0.723s-0.803-0.239-0.939-0.103c-0.138,0.138-0.45,0.116-0.708-0.035
			c-0.257-0.15-0.371-0.364-0.248-0.488c0.12-0.123,0.192-0.236,0.159-0.255c-0.032-0.017-0.155,0.07-0.273,0.195
			c-0.118,0.124-0.519,0.062-0.9-0.125s-0.598-0.435-0.477-0.562c0.119-0.129-0.146-0.415-0.59-0.642
			c-0.445-0.226-0.918-0.295-1.057-0.156c-0.138,0.14-0.32,0.218-0.411,0.175c-0.056-0.026-0.109-0.054-0.161-0.079
			c-0.534-0.27-1.068-0.564-1.603-0.868c-0.481-0.272-0.773-0.593-0.654-0.712c0.119-0.119,0.045-0.303-0.166-0.41
			s-0.477-0.107-0.593,0c-0.116,0.106-0.599-0.031-1.083-0.296c-2.412-1.317-4.896-2.36-7.548-1.824
			c-0.541,0.11-1.001,0.272-1.045,0.286c-0.027,0.009-0.053,0.018-0.079,0.027c-0.778,0.291-1.512,0.427-2.196,0.435
			c-0.552,0.006-0.904-0.175-0.793-0.291c0.112-0.115,0.008-0.349-0.215-0.543c-0.223-0.193-0.556-0.2-0.765,0.008
			s-0.758,0.213-1.173-0.075s-0.434-0.854-0.103-1.183c0.329-0.327,0.586-0.616,0.572-0.644c-0.013-0.028-0.157,0.076-0.324,0.234
			c-0.166,0.157-0.444,0.422-0.617,0.597c-0.172,0.173-0.459,0.158-0.622-0.048s0.039-0.698,0.433-1.087
			c0.005-0.004,0.009-0.009,0.013-0.013c0.394-0.387,0.636-0.944,0.574-1.25s-0.397-0.236-0.782,0.16
			c-0.094,0.097-0.188,0.192-0.281,0.289c-0.384,0.396-0.835,0.438-0.964,0.076c-0.129-0.362,0.11-0.989,0.495-1.387
			c0.276-0.284,0.552-0.569,0.825-0.852c0.385-0.396,0.773-1.164,0.966-1.682c0.327-0.882,0.85-1.669,1.513-2.31
			C6.561,15.575,7.383,15.315,7.934,15.343z M1.94,19.281c0.006-0.123,0.015-0.246,0.027-0.37c0.209-2.074,1.436-3.009,3.028-3.379
			c0.538-0.125,0.668,0.156,0.274,0.544c-0.857,0.846-1.716,1.692-2.582,2.547c-0.393,0.388-0.724,0.775-0.735,0.865
			C1.941,19.579,1.93,19.485,1.94,19.281z"/>
		<path d="M16.1,15.273c0.205-0.042,0.401-0.107,0.583-0.197c0,0,0.097-0.049,0.216-0.108c0.119-0.06,0.528-0.43,0.913-0.826
			c0.299-0.308,0.598-0.614,0.896-0.92c0.385-0.396,0.297-0.515-0.196-0.267l-0.273,0.137c-0.493,0.248-1.203,0.745-1.585,1.11
			c-0.221,0.211-0.45,0.431-0.691,0.661c-0.081,0.081-0.16,0.159-0.239,0.237C15.592,15.232,15.765,15.342,16.1,15.273z"/>
	</g>
</g>
<g>
</g>
<g>
</g>
<g>
</g>
<g>
</g>
<g>
</g>
<g>
</g>
<g>
</g>
<g>
</g>
<g>
</g>
<g>
</g>
<g>
</g>
<g>
</g>
<g>
</g>
<g>
</g>
<g>
</g>
</svg>
