<?xml version="1.0" encoding="iso-8859-1"?>
<!-- Generator: Adobe Illustrator 16.0.0, SVG Export Plug-In . SVG Version: 6.00 Build 0)  -->
<!DOCTYPE svg PUBLIC "-//W3C//DTD SVG 1.1//EN" "http://www.w3.org/Graphics/SVG/1.1/DTD/svg11.dtd">
<svg version="1.1" id="Capa_1" xmlns="http://www.w3.org/2000/svg" xmlns:xlink="http://www.w3.org/1999/xlink" x="0px" y="0px"
	 width="49.931px" height="49.931px" viewBox="0 0 49.931 49.931" style="enable-background:new 0 0 49.931 49.931;"
	 xml:space="preserve">
<g>
	<g>
		<path d="M34.974,12.342c-1.319,0.584-2.556,1.214-2.364,2.841c0.153,1.304,1.979,1.456,2.928,1.201
			c1.015-0.271,1.574-0.789,2.586,0.045c1.277,1.056,0.463,2.561-0.271,3.574c-0.63,0.873-0.185,1.664,0.522,2.155
			c0.453,0.315,1.031,0.521,1.221,0.518c0.093,0,0.205-0.013,0.342-0.039c3.412-0.663,4.523-4.594,3.194-7.542
			C41.8,12.147,37.813,11.088,34.974,12.342z M35.125,14.981c-0.322-0.175-0.651-0.613-0.582-0.97
			c0.068-0.354,0.328-0.629,0.388-0.684s0.472-0.345,0.987-0.436c0.275-0.049,0.591-0.068,0.947-0.062
			c0.258-0.015,0.512,0.002,0.76,0.045c0.414,0.073,0.412,0.521,0.019,0.907c-0.196,0.192-0.394,0.385-0.591,0.577
			c-0.395,0.386-0.859,0.736-1.035,0.801C35.843,15.224,35.448,15.155,35.125,14.981z M36.465,15.02
			c-0.016,0.005,0.293-0.308,0.685-0.695c0.191-0.188,0.367-0.364,0.527-0.522c0.081-0.079,0.183-0.143,0.287-0.201
			c-0.093,0.08-0.197,0.173-0.315,0.289c-0.146,0.142-0.293,0.282-0.439,0.426C36.812,14.7,36.479,15.015,36.465,15.02z
			 M41.204,20.711c-0.03,0.065-0.062,0.126-0.096,0.188c-0.266,0.483-0.773,0.691-0.896,0.638c-0.122-0.055,0.094-0.445,0.471-0.85
			c0.059-0.062,0.115-0.124,0.172-0.186C41.23,20.096,41.439,20.211,41.204,20.711z M41.075,18.774
			c-0.19,0.188-0.381,0.376-0.57,0.564c-0.393,0.39-0.573,0.379-0.361,0c0.137-0.243,0.275-0.476,0.387-0.684
			c0.418-0.778,0.151-1.765-0.232-2.476c-0.145-0.264-0.342-0.485-0.576-0.67c-0.389-0.303-0.756-0.447-0.73-0.47
			c0.023-0.021-0.01-0.068-0.07-0.11c-0.059-0.043-0.137-0.054-0.176-0.017c-0.037,0.036-0.44-0.053-0.916-0.076
			c-0.477-0.021-0.564-0.224-0.203-0.569c0.32-0.308,0.578-0.634,0.652-0.791c0.342-0.103,0.715-0.103,0.994,0.077
			c0.42,0.272,0.807,0.599,1.145,0.937c0.826,0.826,1.189,1.953,1.352,3.076c0.01,0.07,0.018,0.155,0.02,0.25
			C41.79,17.957,41.467,18.384,41.075,18.774z"/>
		<path d="M34.632,5.854c-1.179,0.319-4.318,0.972-4.011,2.862c0.295,1.82,1.813,2.411,3.494,1.787
			c5.506-2.045,10.493,1.918,10.791,7.418c0.118,2.204-2.465,5.542,0.965,6.305c0.017,0.004,0.031,0.006,0.049,0.007
			c0.025,0.002,0.188,0.05,0.367,0.044c0.097-0.003,0.201-0.021,0.316-0.053c4.521-1.297,3.686-8.943,1.865-12.141
			C45.784,7.365,40.091,4.367,34.632,5.854z M41.351,8.803c-0.248,0.22-0.871,0.241-1.405,0.104
			c-0.773-0.199-1.566-0.318-2.345-0.36c-0.577-0.029-1.17,0.012-1.735,0.133C33.61,9.166,34.51,8.27,35.292,7.592
			c0.416-0.361,1.067-0.729,1.619-0.746c1.615-0.048,3.198,0.396,4.648,1.101c0.496,0.241,0.786,0.463,0.667,0.455
			c-0.071-0.004-0.144-0.008-0.218-0.008c-0.035,0-0.07,0.002-0.104,0.005C41.847,8.404,41.6,8.584,41.351,8.803z M43.325,9.732
			c-0.254,0.233-0.726,0.251-1.07,0.066c-0.344-0.184-0.403-0.522-0.12-0.784c0.284-0.264,0.678-0.38,0.877-0.254
			c0.121,0.075,0.239,0.153,0.356,0.232c0.072,0.049,0.142,0.101,0.211,0.153C43.691,9.234,43.577,9.497,43.325,9.732z
			 M45.196,12.487c-0.029-0.052-0.06-0.103-0.094-0.154c-0.172-0.261-0.359-0.504-0.562-0.73c-0.34-0.384-0.465-0.833-0.229-1.053
			c0.235-0.219,0.739-0.073,1.079,0.36c0.038,0.05,0.076,0.1,0.113,0.149c0.332,0.439,0.391,0.992,0.175,1.201
			C45.461,12.47,45.245,12.573,45.196,12.487z M45.774,12.418c0.217-0.214,0.225-0.204,0.008,0.01
			C45.566,12.641,45.558,12.631,45.774,12.418z M45.739,13.438c-0.166-0.316-0.139-0.736,0.08-0.948
			c0.217-0.212,0.543-0.136,0.709,0.181s0.109,0.75-0.111,0.964C46.198,13.846,45.903,13.754,45.739,13.438z M47.793,20.629
			c-0.09,0.52-0.229,0.99-0.432,1.376c-0.257,0.489-0.811,0.438-0.865-0.004c-0.057-0.439,0.263-1.131,0.64-1.535
			c0.03-0.031,0.062-0.064,0.092-0.099C47.603,19.962,47.889,20.085,47.793,20.629z M47.23,18.946
			c-0.383,0.379-0.651,0.241-0.592-0.309c0.103-0.939,0.202-1.73,0.157-1.998c-0.074-0.46-0.17-0.894-0.289-1.311
			c-0.151-0.53-0.137-1.108,0.09-1.309c0.229-0.201,0.486-0.194,0.574,0.018c0.053,0.128,0.102,0.257,0.15,0.386
			c0.194,0.517,0.422,1.604,0.537,2.837C47.911,17.811,47.614,18.566,47.23,18.946z"/>
		<path d="M37.377,22.117c-0.353-1.047,0.08-2.126-0.793-3.035c-1.842-1.918-3.717-2.188-6.276-2.044
			c-1.017,0.058-2.036,0.347-3.019,0.586c-2.203,0.537-1.857-3.244-2.219-4.402c-0.302-0.965-1.343-1.522-2.289-1.549
			c-4.224-0.119-8.049,1.309-11.365,3.595c-0.066,0.044-0.133,0.092-0.198,0.137c-0.157,0.11-0.318,0.212-0.473,0.326
			c-1.408,1.011-2.846,2.295-4.249,3.914c-1.607,1.792-3.018,3.756-4.194,5.77c-3.118,5.335-3.468,9.667,1.451,13.971
			c4.966,4.344,12.54,5.21,18.843,5.061c8.672-0.207,28.094-8.112,17.303-19.21C38.709,24.124,37.948,23.812,37.377,22.117z
			 M5.544,22.887c0.433-0.608,0.852-1.181,1.227-1.699c1.182-1.635,4.41-4.577,7.733-6.559c0.474-0.283,0.548-0.181,0.153,0.206
			c-2.335,2.284-4.774,4.665-7.479,7.288c-0.396,0.385-0.388,0.395,0.01,0.011c1.572-1.517,5.328-5.189,7.568-7.36
			c0.396-0.384,0.751-0.712,0.792-0.731c0.04-0.021,0.003,0.038-0.084,0.129c-0.044,0.046-0.097,0.101-0.158,0.162
			c-0.868,0.836-4.705,4.547-9.585,9.28c-0.396,0.385-0.725,0.562-0.734,0.395C4.978,23.841,5.224,23.337,5.544,22.887z
			 M4.279,31.139c-0.169,0.502-0.296,1.025-0.372,1.573c-0.089,0.639-0.089,1.233-0.016,1.79c0.073,0.547-0.05,1.004-0.379,1.039
			S2.874,35.516,2.81,35.45c-0.065-0.065-0.227-0.3-0.351-0.529c-0.075-0.137-0.146-0.275-0.216-0.418
			c-0.218-0.444-0.367-0.899-0.462-1.36c-0.111-0.541,0.048-1.436,0.519-1.724c0.417-0.256,0.972-0.471,1.482-0.711
			C4.283,30.474,4.455,30.616,4.279,31.139z M1.751,30.585c0.007-0.039,0.4-0.295,0.887-0.556c0.686-0.367,1.568-0.825,2.252-1.192
			c0.486-0.261,0.652-0.201,0.416,0.177c-0.235,0.377-0.839,0.793-1.365,0.959c-0.398,0.126-0.844,0.274-1.241,0.403
			C2.175,30.546,1.745,30.625,1.751,30.585z M4.629,37.208c-0.117,0.122-0.192-0.004-0.168-0.281
			c0.023-0.275,0.112-0.369,0.205-0.215C4.761,36.868,4.748,37.086,4.629,37.208z M5.248,38.389
			c-0.204-0.184-0.265-0.438-0.141-0.562c0.124-0.124,0.37-0.056,0.565,0.137c0.194,0.192,0.272,0.429,0.158,0.542
			C5.718,38.621,5.453,38.572,5.248,38.389z M15.31,23.667c5.619-1.651,13.759-0.528,16.898,4.997
			c3.896,6.861-6.944,11.372-11.622,12.095C15.37,41.134,9.231,40.231,6.414,35.27C3.146,29.519,11.087,24.91,15.31,23.667z
			 M7.577,39.728c-0.121,0.129-0.602-0.002-1.053-0.321c-0.014-0.011-0.028-0.022-0.043-0.031c-0.449-0.321-0.701-0.699-0.588-0.812
			c0.113-0.113,0.547,0.088,1.007,0.394c0.013,0.009,0.025,0.019,0.038,0.025C7.398,39.287,7.698,39.598,7.577,39.728z
			 M11.805,41.476c-0.238,0.222-0.855,0.256-1.367,0.05c-0.542-0.219-1.076-0.46-1.598-0.725c-0.492-0.249-0.763-0.584-0.618-0.72
			s0.667-0.055,1.183,0.146c0.6,0.231,1.225,0.434,1.861,0.605C11.8,40.978,12.042,41.252,11.805,41.476z M14.896,42.142
			c-0.329,0.306-0.651,0.541-0.718,0.526c-0.041-0.008-0.082-0.016-0.121-0.023c-0.245-0.056-0.49-0.114-0.735-0.18
			c-0.404-0.104-0.499-0.406-0.217-0.662c0.282-0.255,0.93-0.391,1.448-0.321C15.071,41.548,15.226,41.836,14.896,42.142z
			 M37.194,38.942c-2.496,2.182-5.645,3.466-9,4.109c-0.543,0.105-0.908,0.155-0.812,0.14c0.097-0.018-0.162-0.018-0.576-0.003
			c-0.248,0.009-0.498,0.015-0.75,0.015c-0.139,0-0.273-0.004-0.41-0.01c-0.226-0.008-0.478,0.054-0.562,0.138
			c-0.085,0.085-0.599,0.188-1.15,0.212c-0.779,0.034-1.56,0.041-2.336,0.022c-0.552-0.014-0.85-0.188-0.666-0.372
			c0.185-0.186,0.039-0.374-0.321-0.427c-0.36-0.054-0.838,0.064-1.068,0.275c-0.232,0.21-0.865,0.343-1.414,0.28
			c-0.789-0.091-1.564-0.204-2.321-0.337c-0.544-0.095-0.727-0.444-0.411-0.767c0.315-0.319,1.018-0.543,1.569-0.517
			c1.11,0.052,2.137,0.037,2.982-0.027c0.015-0.001,0.03-0.003,0.046-0.006c0.025-0.004,0.08-0.01,0.122-0.012
			c0.021,0,0.044-0.002,0.073-0.006c3.172-0.467,6.858-1.493,9.738-3.396c0.461-0.305,0.5-0.261,0.11,0.131
			c-0.256,0.26-0.513,0.519-0.771,0.779c-0.082,0.082-0.165,0.164-0.248,0.246c-0.137,0.135,0.185,0.125,0.707-0.054
			c0.705-0.24,1.38-0.514,2.021-0.815c0.5-0.234,1.197-0.777,1.574-1.183c1.409-1.509,2.811-3.008,4.197-4.494
			c0.377-0.403,0.826-1.158,0.909-1.704c0.014-0.087,0.024-0.174,0.034-0.261c0.061-0.55-0.288-0.683-0.68-0.292
			c-0.377,0.375-0.754,0.751-1.133,1.128c-0.966,0.965-1.938,1.936-2.908,2.913c-0.391,0.391-0.438,0.348-0.16-0.13
			c0.565-0.979,0.963-2.071,1.134-3.303c0.047-0.336,0.067-0.658,0.067-0.972c-0.002-0.538,0.237-1.291,0.625-1.685
			c0.121-0.124,0.243-0.249,0.365-0.374c0.387-0.396,0.367-0.416-0.043-0.046c-0.104,0.095-0.208,0.188-0.312,0.282
			c-0.409,0.37-0.815,0.228-1.014-0.289c-0.094-0.24-0.201-0.473-0.324-0.695c-0.269-0.483-0.231-1.141,0.168-1.521
			c0.184-0.175,0.367-0.349,0.549-0.521c0.4-0.381,0.697-0.712,0.662-0.739c-0.033-0.027-0.381,0.264-0.776,0.649
			c-0.11,0.106-0.22,0.215-0.33,0.321c-0.396,0.387-0.396,0.387-0.002-0.002c0.108-0.105,0.218-0.214,0.328-0.321
			c0.394-0.388,0.506-0.503,0.253-0.257c-0.253,0.247-0.253,0.246-0.002-0.001c0.252-0.248,0.445-0.456,0.431-0.465
			s-0.345,0.296-0.739,0.684c-0.166,0.161-0.332,0.323-0.498,0.485c-0.396,0.386-1.002,0.353-1.414-0.018
			c-0.119-0.107-0.242-0.211-0.371-0.312c-0.432-0.344-0.486-0.883-0.082-1.259c0.062-0.058,0.125-0.115,0.188-0.173
			c0.405-0.375,0.451-0.81,0.098-0.952c-0.354-0.142-0.975,0.062-1.379,0.438c-0.018,0.016-0.035,0.031-0.053,0.048
			c-0.404,0.376-1.048,0.522-1.449,0.354c-0.4-0.168-0.43-0.572-0.054-0.926c0.376-0.353,0.534-0.672,0.351-0.712
			c-0.183-0.04-0.615,0.2-0.965,0.538c-0.349,0.339-1.055,0.475-1.588,0.329c-0.312-0.085-0.627-0.163-0.943-0.235
			c-0.539-0.122-0.786-0.399-0.547-0.646c0.238-0.245,0.229-0.452-0.022-0.455c-0.25-0.003-0.631,0.169-0.851,0.379
			c-0.219,0.21-0.838,0.31-1.387,0.246c-1.883-0.223-3.654-0.245-4.979-0.144c-3.994,0.309-8.864,1.941-11.912,4.984
			c-0.391,0.39-0.672,0.723-0.667,0.707c0.003-0.01,0.007-0.02,0.011-0.028c0.024-0.056,0.055-0.117,0.088-0.182
			c0.05-0.1,0.022-0.11-0.061-0.026c-0.051,0.051-0.101,0.103-0.15,0.152c-0.189,0.183-2.045,1.142-3.292,1.821
			c-0.484,0.265-0.823,0.256-0.747-0.03c0.076-0.286,0.188-0.587,0.232-0.679c0.041-0.084,0.066-0.146,0.066-0.172
			c0-0.12,0.204-0.247,0.342-0.575c0.144-0.344,0.157-0.728,0.197-0.814c0.041-0.087,0.391-0.474,0.795-0.85
			c1.872-1.741,4.756-4.062,6.567-5.75c0.403-0.377,0.992-1.052,1.347-1.475c0.982-1.175,1.984-2.18,2.984-3.037
			c0.42-0.358,1.088-0.952,1.477-1.346c0.402-0.407,0.804-0.812,1.205-1.218c0.389-0.394,1.127-0.86,1.666-0.981
			c2.705-0.604,4.788,0.372,4.841,4.574c0.028,2.258,2.521,1.461,3.834,1.056c7.289-2.252,6.942,1.249,8.308,5.302
			c0.308,0.913,1.649,1.646,2.288,2.241C42.264,30.229,41.399,35.261,37.194,38.942z"/>
		<path d="M21.084,35.554c0.16-0.015,0.321-0.04,0.484-0.08c1.428-0.355,2.357-1.566,2.074-2.707
			c-0.009-0.036-0.021-0.07-0.036-0.104c-0.024-0.056-0.359,0.218-0.748,0.61c-0.52,0.522-1.04,1.05-1.562,1.576
			C20.909,35.244,20.813,35.579,21.084,35.554z"/>
		<path d="M19.599,39.634c3.478-0.688,6.494-3.312,6.931-6.814c0.066-0.548-0.009-1.444-0.164-1.976
			c-1.443-4.916-7.464-5.422-11.741-3.131c-0.047,0.023-0.092,0.051-0.139,0.074c-0.264,0.146-0.521,0.301-0.769,0.469
			c-0.062,0.042-0.124,0.085-0.185,0.129c-1.996,1.414-3.396,3.519-3.352,6.103C10.256,39.161,16.032,40.341,19.599,39.634z
			 M12.612,32.609c-0.311,0.286-0.576,0.064-0.47-0.478c0.037-0.188,0.084-0.369,0.142-0.546c0.17-0.524,0.736-1.214,1.143-1.588
			c0.294-0.271,0.588-0.541,0.882-0.812c0.406-0.375,1.132-0.893,1.651-1.078c2.961-1.062,6.75-0.375,8.185,2.585
			c0.241,0.497,0.307,0.979,0.252,1.034c-0.055,0.054-0.044,0.126,0.029,0.146c0.072,0.021,0.155,0.128,0.182,0.247
			c0.026,0.12,0.059,0.668-0.018,1.215c-0.299,2.113-1.656,3.672-3.376,4.555c-0.492,0.252-1.322,0.289-1.796,0.093
			c-0.473-0.198-1.084-0.161-1.401,0.154c-0.317,0.316-1.025,0.559-1.566,0.448c-0.476-0.096-0.935-0.244-1.366-0.448
			c-0.5-0.234-0.681-0.688-0.46-0.909c0.221-0.223,0.757-0.348,1.201-0.354c0.288-0.004,0.561-0.03,0.8-0.074
			c0.127-0.016,0.242-0.04,0.314-0.062c1.504-0.448,3.01-1.431,2.961-3.168c-0.001-0.053-0.006-0.105-0.012-0.154
			c-0.01-0.085,0.015-0.155,0.06-0.16c0.027-0.003,0.055-0.007,0.082-0.01c0.169-0.012,0.329-0.045,0.422-0.074
			c0.17-0.049,0.301-0.098,0.425-0.158c0.628-0.266,1.336-0.736,1.226-1.455c-0.141-0.915-1.285-1.036-2.019-0.898
			c-0.319,0.06-0.749,0.2-1.119,0.421c-0.476,0.282-1.131,0.562-1.682,0.519c-0.492-0.038-0.97-0.01-1.351,0.066
			c-0.046,0.01-0.091,0.021-0.137,0.034c-0.075,0.021-0.025-0.067,0.11-0.196c0.137-0.129,0.252-0.246,0.257-0.259
			c0.004-0.014-0.113,0.092-0.261,0.236c-0.147,0.145-0.706,0.364-1.205,0.603c-1.122,0.532-2.026,1.478-1.988,2.804
			c0.013,0.433,0.158,0.779,0.393,1.057c0.356,0.423,0.705,0.674,0.583,0.789c-0.122,0.113-0.53-0.12-0.814-0.594
			c-0.365-0.607-0.629-1.326-0.759-2.169c-0.019-0.125-0.033-0.246-0.043-0.366c-0.018-0.204,0.232-0.624,0.543-0.939
			C12.921,32.348,12.924,32.324,12.612,32.609z M15.539,32.76c1.57-1.005,3.017,1.285,2.053,2.505
			c-0.343,0.433-1.288,0.627-1.803,0.427C14.595,35.228,14.114,33.671,15.539,32.76z"/>
	</g>
</g>
<g>
</g>
<g>
</g>
<g>
</g>
<g>
</g>
<g>
</g>
<g>
</g>
<g>
</g>
<g>
</g>
<g>
</g>
<g>
</g>
<g>
</g>
<g>
</g>
<g>
</g>
<g>
</g>
<g>
</g>
</svg>
