<?xml version="1.0" encoding="iso-8859-1"?>
<!-- Generator: Adobe Illustrator 16.0.0, SVG Export Plug-In . SVG Version: 6.00 Build 0)  -->
<!DOCTYPE svg PUBLIC "-//W3C//DTD SVG 1.1//EN" "http://www.w3.org/Graphics/SVG/1.1/DTD/svg11.dtd">
<svg version="1.1" id="Capa_1" xmlns="http://www.w3.org/2000/svg" xmlns:xlink="http://www.w3.org/1999/xlink" x="0px" y="0px"
	 width="42.561px" height="42.561px" viewBox="0 0 42.561 42.561" style="enable-background:new 0 0 42.561 42.561;"
	 xml:space="preserve">
<g>
	<g>
		<path d="M0.342,40.449c5.483,0,10.967,0,16.45,0c0.011,0,0.023-0.001,0.034-0.002c0.02-0.002,0.437,0.001,0.9-0.146
			c0.36-0.113,0.656-0.289,0.656-0.512c0-12.462,0-24.924,0-37.386c0-0.121-0.282-0.142-0.341-0.142c-5.483,0-10.967,0-16.45,0
			C1.242,2.262,0,2.401,0,2.92c0,12.462,0,24.924,0,37.387C0.002,40.428,0.284,40.449,0.342,40.449z M1.933,38.633
			c0-0.488,0-0.978,0-1.466c0-0.81,0.623-2.108,1.392-2.901C3.884,33.688,4.443,33.113,5,32.539c0.77-0.793,1.393-1.854,1.393-2.369
			s-0.634-0.301-1.417,0.478c-0.545,0.543-1.087,1.082-1.626,1.617c-0.783,0.779-1.417,1.172-1.417,0.877c0-0.179,0-0.356,0-0.535
			c0-0.956,0-1.912,0-2.868c0-1.104,0.638-2.629,1.424-3.405c0.537-0.529,1.074-1.061,1.611-1.589
			c0.787-0.776,1.425-1.997,1.425-2.728S5.769,21.335,5,22.128c-0.559,0.576-1.117,1.153-1.676,1.73
			c-0.768,0.794-1.391,0.937-1.391,0.321c0-0.617,0.63-1.752,1.405-2.539c0.451-0.457,0.999-1.016,1.654-1.683
			c0.773-0.788,1.4-1.449,1.4-1.477c0-0.027-0.623,0.593-1.392,1.386c-0.623,0.643-1.192,1.23-1.68,1.734
			c-0.768,0.793-1.389,1.353-1.389,1.246s0.626-0.832,1.398-1.623c0.568-0.581,1.122-1.146,1.661-1.695
			c0.773-0.789,1.4-2.06,1.4-2.84c0-0.78-0.639-0.785-1.426-0.011c-0.534,0.525-1.07,1.052-1.607,1.581
			c-0.788,0.774-1.427,0.507-1.427-0.598c0-0.206,0-0.413,0-0.619c0-1.104,0.631-2.635,1.41-3.417
			c0.547-0.549,1.094-1.099,1.64-1.648c0.779-0.783,1.41-1.711,1.41-2.072c0-0.36-0.632-0.017-1.409,0.767
			c-0.548,0.552-1.096,1.104-1.643,1.657C2.56,13.114,1.93,12.853,1.93,11.749c0-0.075,0-0.149,0-0.224
			c0-1.105,0.631-2.635,1.409-3.419C3.887,7.554,4.434,7.003,4.98,6.455c0.778-0.783,1.41-1.843,1.41-2.368
			c0-0.525-0.64-0.325-1.429,0.448C4.427,5.058,3.894,5.58,3.359,6.104C2.57,6.876,1.93,6.855,1.93,6.056
			c0-0.8,0.356-1.794,0.795-2.221c0.438-0.427,1.689-0.773,2.794-0.773c3.187,0,6.373,0,9.56,0c1.733,0,1.37-0.483,1.37,1.014
			c0,2.009,0,4.019,0,6.028c0,9.181,0,18.364,0,27.543c0,1.104-0.896,2-2,2c-2.019,0-4.039,0-6.058,0
			c-1.105,0-2.001-0.057-2.001-0.127c0-0.071-0.061-0.071-0.138,0c-0.076,0.07-0.768,0.127-1.545,0.127c-0.469,0-0.939,0-1.407,0
			c-0.029,0-0.055,0-0.079,0.002c-0.044,0.002,0.574-0.607,1.382-1.361c0.108-0.102,0.217-0.202,0.325-0.303
			c0.808-0.754,1.462-1.456,1.462-1.567c0-0.11-0.632,0.433-1.412,1.213c-0.2,0.201-0.404,0.405-0.609,0.612
			c-0.78,0.782-2.11,1.9-2.432,1.425C1.869,39.563,1.933,39.287,1.933,38.633z"/>
		<path d="M24.771,28.399c4.787,0,9.576,0,14.363,0c1.105,0,2.396,0.051,2.84-0.113c0.328-0.122,0.586-0.323,0.586-0.557
			c0-8.396,0-16.792,0-25.188c0-0.329-0.291-0.43-0.59-0.43c-5.483,0-10.967,0-16.449,0c-0.327,0-1.342,0.18-1.342,0.67
			c0,8.396,0,16.791,0,25.186C24.18,28.296,24.473,28.399,24.771,28.399z M26.881,3.211c0.424,0,0.424,0.35,0,0.782
			c-0.425,0.431-0.769,0.431-0.769-0.001C26.112,3.562,26.456,3.211,26.881,3.211z M29.086,22.715c-0.5,0.453-0.996,0.903-1.49,1.35
			c-0.818,0.742-1.482,0.447-1.482-0.656c0-0.38,0-0.76,0-1.141c0-1.104,0.648-2.616,1.449-3.377
			c0.525-0.499,1.046-0.994,1.56-1.482c0.802-0.762,1.448-1.464,1.448-1.569s-0.571,0.371-1.277,1.061
			c-0.705,0.69-0.703,0.686,0.002-0.008c0.704-0.694,1.275-1.288,1.275-1.326c0-0.039-0.641,0.557-1.43,1.329
			c-0.533,0.521-1.065,1.041-1.598,1.56c-0.789,0.772-1.431,0.503-1.431-0.602c0-0.338,0-0.676,0-1.014
			c0-1.105,0.655-2.61,1.465-3.362c0.511-0.474,1.021-0.948,1.529-1.421c0.809-0.752,1.463-1.949,1.463-2.672
			c0-0.724-0.656-0.7-1.466,0.052c-0.51,0.472-1.018,0.943-1.524,1.415c-0.81,0.751-1.467,0.738-1.467-0.031
			s0.661-1.998,1.476-2.746c0.467-0.43,0.973-0.895,1.512-1.392c0.812-0.748,1.471-1.691,1.471-2.106s-0.65-0.137-1.457,0.619
			c-0.893,0.837-1.861,1.747-2.912,2.73c-0.016,0.016-0.029,0.03-0.044,0.044c-0.024,0.024-0.044-0.571-0.044-1.328
			s0.503-1.833,1.124-2.401c0.62-0.568,2.019-1.029,3.123-1.029c1.69,0,3.381,0,5.071,0c1.066,0,2.135,0,3.201,0
			c1.104,0,1.998,0.408,1.998,0.91c0,0.305,0,0.607,0,0.909c0,6.755,0,13.511,0,20.266c0,1.104-0.896,2.001-2,2.001
			c-2.439,0-4.879,0-7.318,0c-1.067,0-2.135,0-3.202,0c-1.104,0-1.998-0.26-1.997-0.582c0-0.322,0.627-1.224,1.4-2.013
			c0.553-0.565,1.105-1.131,1.66-1.697c0.771-0.79,1.396-1.475,1.396-1.53C30.569,21.419,29.905,21.975,29.086,22.715z"/>
	</g>
</g>
<g>
</g>
<g>
</g>
<g>
</g>
<g>
</g>
<g>
</g>
<g>
</g>
<g>
</g>
<g>
</g>
<g>
</g>
<g>
</g>
<g>
</g>
<g>
</g>
<g>
</g>
<g>
</g>
<g>
</g>
</svg>
