<?xml version="1.0" encoding="iso-8859-1"?>
<!-- Generator: Adobe Illustrator 16.0.0, SVG Export Plug-In . SVG Version: 6.00 Build 0)  -->
<!DOCTYPE svg PUBLIC "-//W3C//DTD SVG 1.1//EN" "http://www.w3.org/Graphics/SVG/1.1/DTD/svg11.dtd">
<svg version="1.1" id="Capa_1" xmlns="http://www.w3.org/2000/svg" xmlns:xlink="http://www.w3.org/1999/xlink" x="0px" y="0px"
	 width="46.646px" height="46.646px" viewBox="0 0 46.646 46.646" style="enable-background:new 0 0 46.646 46.646;"
	 xml:space="preserve">
<g>
	<g>
		<path d="M36.354,35.848c1.173,0,1.82-0.356,2.279-1.354c0.615-1.339-3.838-5.295-4.552-6.129
			c-1.688-1.971-3.028-3.414-5.574-1.709c-0.07,0.049-0.129,0.096-0.177,0.143c-0.091,0.088-0.438,0.503-0.816,0.89
			c-0.379,0.386-0.535,0.275-0.386-0.256c0.137-0.486,0.25-0.981,0.343-1.488c0.1-0.543,0.167-1.016,0.17-1.053
			c0.002-0.038,0.06-0.514,0.107-1.062c0.124-1.436,0.145-2.915,0.145-4.399c0-1.009-0.882-9.574,1.049-9.574
			c2.068,0,2.964-1.338,1.597-2.934c-1.531-1.787-3.917-6.181-6.363-6.82c-2.576-0.674-4.22,2.19-5.6,3.8
			c-0.46,0.537-4.991,4.648-3.211,5.643c1.715,0.958,3,1.11,3,3.634c0,0.632,0.055,1.217,0.164,1.777
			c0.105,0.542-0.064,0.643-0.498,0.302c-1.499-1.179-3.069-1.365-4.97,0.852c-1.12,1.308-7.781,6.952-3.91,7.917
			c3.725,0.93,1.987,11.009,1.987,13.902c0,1.765-0.133,3.492,0.257,5.213c0.619,2.735,5.756,2.896,7.793,3.183
			c0.171,0.023,0.418-0.009,0.653-0.092c0.347-0.122,0.769-0.014,1.188,0.197c0.231,0.116,0.502,0.186,0.82,0.195
			c0.966,0.03,2.18,0.097,3.1-0.346c0.498-0.237,0.786-0.574,0.788-0.534c0.001,0.023,0.002,0.049,0.004,0.072
			c0.044,0.506,0.824,0.476,1.146,0.417c3.341-0.593,8.34-1.235,8.34-5.572C35.227,39.832,34.638,35.848,36.354,35.848z
			 M24.198,2.409c0.031,0.028,0.062,0.06,0.094,0.096c0.584,0.681,3.024,3.996,4.276,5.451c0.36,0.418,0.259,0.666-0.275,0.802
			c-3.626,0.923-2.341,7.131-2.341,9.885c0,0.493,0.005,0.996,0.007,1.506c0.003,0.552-0.096,1.091-0.216,1.202
			c-0.119,0.111-0.401-0.048-0.646-0.347c-0.244-0.299-0.277-0.695-0.064-0.895c0.212-0.199,0.306-0.455,0.206-0.571
			c-0.099-0.116-0.349-0.042-0.559,0.166c-0.209,0.207-0.677,0.041-1.057-0.36c-0.126-0.133-0.25-0.262-0.372-0.388
			c-0.384-0.396-0.506-0.912-0.267-1.158c0.24-0.246,0.352-0.568,0.263-0.728c-0.09-0.159-0.383-0.072-0.666,0.198
			c-0.282,0.271-0.637,0.366-0.788,0.21s-0.515-0.668-0.707-1.186c-0.035-0.093-0.066-0.187-0.097-0.28
			c-0.165-0.527,0.092-1.287,0.485-1.675c0.072-0.072,0.146-0.143,0.218-0.215c0.394-0.388,0.713-1.146,0.713-1.695
			c0-0.549-0.312-0.673-0.698-0.277c-0.145,0.148-0.289,0.297-0.433,0.444c-0.386,0.396-0.718,0.422-0.749,0.06
			c-0.032-0.362,0.241-0.975,0.626-1.371c0.079-0.081,0.158-0.161,0.236-0.242c0.385-0.396,0.69-0.729,0.681-0.744
			c-0.009-0.016-0.328,0.294-0.712,0.691c-0.07,0.072-0.142,0.146-0.214,0.221c-0.384,0.398-0.7,0.688-0.706,0.649
			c-0.007-0.038,0.304-0.387,0.694-0.777c0.056-0.056,0.109-0.11,0.163-0.164c0.391-0.39,0.538-0.951,0.24-1.155
			c-0.298-0.204-0.79-0.079-1.036,0.163c-0.247,0.242-0.566,0.124-0.792-0.22c-0.133-0.202-0.287-0.396-0.47-0.578
			c-0.102-0.102-0.225-0.182-0.362-0.245c-0.22-0.102-0.203-0.352,0.058-0.613c0.157-0.158,0.314-0.316,0.472-0.475l4.043-4.717
			C23.807,2.656,24.143,2.357,24.198,2.409z M22.687,32.128c-0.408,0.373-0.877,0.193-0.933-0.356
			c-0.005-0.044-0.009-0.089-0.013-0.133c-0.049-0.55,0.278-1.306,0.68-1.685c0.251-0.237,0.501-0.475,0.75-0.709
			c0.401-0.381,0.727-0.714,0.727-0.743c0-0.03-0.32,0.258-0.715,0.644c-0.259,0.253-0.517,0.506-0.775,0.758
			c-0.395,0.387-0.719,0.252-0.702-0.3c0.029-0.937,0.094-1.868,0.094-2.734c0-0.021,0.002-0.04,0.005-0.06
			c0.004-0.031,0.32-0.347,0.707-0.706c0.387-0.358,1.143-0.721,1.693-0.762c0.197-0.015,0.395-0.027,0.587-0.045
			c0.55-0.048,0.938,0.285,0.848,0.83C25.26,28.413,24.438,30.526,22.687,32.128z M23.014,38.06
			c-0.164,0.152-0.329,0.307-0.493,0.458c-0.405,0.376-0.776,0.222-0.623-0.31c0.08-0.274,0.212-0.513,0.426-0.687
			c0.429-0.349,1.049-0.293,1.185-0.248C23.646,37.319,23.419,37.684,23.014,38.06z M18.39,7.941
			C18,8.332,17.645,8.648,17.595,8.645c-0.031-0.001-0.062-0.003-0.09-0.003c-1.311,0,1.34-2.809,1.377-2.852
			c1.111-1.297,2.661-4.223,4.292-3.978c0.547,0.082,0.558,0.773,0.167,1.164C21.691,4.629,20.041,6.284,18.39,7.941z
			 M18.676,27.713c0,5.299,0.479,10.87,0.073,16.204c-0.042,0.551-0.528,0.921-1.066,0.797c-0.261-0.062-0.522-0.128-0.78-0.203
			c-0.529-0.155-1.255-0.603-1.511-1.037c-0.256-0.435-0.493-0.697-0.678-0.52s-0.698,0.047-1.019-0.403
			c-0.385-0.539-0.615-1.197-0.615-2.007c0-0.022,0-0.043,0-0.065c0-0.035,0.316-0.381,0.706-0.772
			c0.159-0.159,0.318-0.318,0.479-0.48c0.39-0.391,0.705-1.017,0.705-1.396c0-0.382-0.331-0.389-0.738-0.017
			c-0.139,0.126-0.276,0.253-0.415,0.379c-0.407,0.373-0.737,0.228-0.737-0.324c0-0.967,0-1.934,0-2.899c0-0.188,0-0.374,0-0.561
			c0-0.311,0.314-0.881,0.702-1.272c0.162-0.165,0.324-0.329,0.486-0.493c0.388-0.393,0.371-0.41-0.036-0.037
			c-0.251,0.23-0.506,0.465-0.768,0.705c-0.064,0.061-0.128,0.119-0.192,0.178c-0.106,0.1-0.192-0.236-0.192-0.752
			c0-0.514,0.33-1.231,0.737-1.604c0.139-0.127,0.278-0.255,0.417-0.382c0.407-0.374,0.736-1.065,0.736-1.544
			c0-0.479-0.328-0.562-0.732-0.187c-0.143,0.131-0.284,0.264-0.426,0.396c-0.404,0.376-0.732,0.266-0.732-0.246
			c0-0.513,0.327-1.231,0.731-1.607c0.143-0.134,0.285-0.268,0.429-0.399c0.403-0.377,0.73-0.764,0.73-0.861
			s-0.317,0.139-0.707,0.529c-0.156,0.156-0.315,0.315-0.477,0.479c-0.39,0.392-0.706,0.263-0.706-0.29c0-0.53,0-1.06,0-1.591
			c0-0.123-0.012-0.238-0.032-0.347c-0.036-0.189,0.088-0.523,0.313-0.755c0.226-0.233,0.239-0.498,0.018-0.546
			c-0.132-0.026-0.268-0.042-0.407-0.042c0,0-0.063,0-0.143,0c-0.08,0-0.195,0.053-0.26,0.116c-0.065,0.065-0.448-0.189-0.922-0.476
			c-0.265-0.16-0.529-0.303-0.76-0.446c-0.469-0.292-0.361-1.018,0.031-1.406c1.59-1.568,3.179-3.136,4.77-4.703
			c0.393-0.388,1.102-0.469,1.484-0.07c0.538,0.56,1.027,1.288,1.44,1.794c0.983,1.203,2.008,2.373,3.018,3.552
			c1.04,1.212-0.265,0.667-1.392,1.166C18.416,24.07,18.676,26.102,18.676,27.713z M20.858,24.46
			c0.132-0.243,0.327-0.402,0.617-0.402c0.703,0,1.643-0.089,2.168-0.606c0.078-0.078,0.14-0.161,0.188-0.248
			c0.083-0.151,0.574,0.027,0.569,0.58c-0.005,0.704-1.82,0.316-2.979,0.83C21.27,24.681,21.13,24.767,21,24.868
			C20.786,25.035,20.654,24.839,20.858,24.46z M20.827,35.542c-0.001-0.008-0.001-0.017-0.001-0.023
			c-0.014-0.553,0.161-0.977,0.389-1.018c0.15-0.027,0.29-0.073,0.395-0.129c0.09-0.049,0.175-0.099,0.259-0.148
			c0.141-0.086,0.347-0.163,0.45-0.209c0.104-0.045,0.04,0.215,0.036,0.629c-0.003,0.267,0.062,0.504,0.211,0.705
			c0.089,0.121,0.212,0.211,0.355,0.279c0.227,0.107-0.02,0.134-0.562,0.238c-0.223,0.043-0.44,0.101-0.648,0.18
			C21.193,36.239,20.84,36.095,20.827,35.542z M24.499,41.361c0,0.717,0,1.433,0,2.147c0,0.097,0,0.193,0,0.291
			c0,0.988-1.97,2.256-2.53,0.979c-0.33-0.753-0.305-1.834-0.243-2.841c0.034-0.552,0.393-1.303,0.8-1.677
			c0.143-0.133,0.287-0.265,0.43-0.398c0.406-0.374,0.734-0.772,0.734-0.891v-0.213c0-0.207,0.033-0.405,0.094-0.592
			c0.102-0.315,0.566-0.18,0.684,0.359C24.668,39.448,24.499,40.626,24.499,41.361z M24.768,36.007
			c-0.288-0.114-0.501-0.162-0.458-0.161c0.026,0.001,0.054,0.002,0.077,0.002c0.188,0,0.349,0.037,0.488,0.104
			C25.127,36.069,25.055,36.121,24.768,36.007z M33.268,38.266c0,0.971,0,1.941,0,2.912c0,1.714-1.698,2.576-3.483,3.066
			c-0.531,0.146-0.813,0.071-0.617-0.126c0.195-0.198,0.354-0.485,0.354-0.643c0-0.155-0.309,0.035-0.688,0.426
			c-0.383,0.391-0.803,0.728-0.939,0.751c-0.138,0.023-0.255-0.405-0.227-0.958c0.021-0.455,0.058-0.935,0.095-1.427
			c0.042-0.551,0.384-1.319,0.769-1.716c0.099-0.102,0.196-0.203,0.296-0.307c0.386-0.396,0.696-1.165,0.696-1.719V38.41
			c0-0.554-0.314-0.685-0.705-0.291c-0.069,0.069-0.141,0.142-0.211,0.213c-0.39,0.392-0.71,0.4-0.741,0.022
			c-0.029-0.379,0.231-0.996,0.611-1.381c0.381-0.386,0.669-0.728,0.64-0.764c-0.029-0.035-0.345,0.241-0.703,0.619
			c-0.357,0.377-0.705,0.307-0.851-0.138c-0.145-0.443-0.228-0.887-0.102-1.021c0.126-0.135,0.19-0.248,0.146-0.254
			c-0.027-0.004-0.056-0.007-0.084-0.007h-0.381c-0.048,0-0.091-0.005-0.132-0.011c-0.072-0.01-0.262-0.191-0.454-0.377
			c-0.113-0.109-0.237-0.213-0.373-0.305c-0.449-0.303-1.102-0.314-1.629-0.314c-0.512,0,1.788-2.775,1.896-2.901
			c0.914-1.067,1.828-2.135,2.743-3.201c0.359-0.419,1.116-0.925,1.604-0.663c1.405,0.757,3.271,3.628,3.773,4.214
			c1.104,1.287,2.905,2.313,0.718,2.755C33.532,34.963,33.268,36.837,33.268,38.266z"/>
		<path d="M14.697,37.332c-0.135,0.168,0.273-0.213,0.273-0.236C14.97,37.071,14.833,37.165,14.697,37.332z"/>
		<path d="M23.219,43.411c0.259-0.245,0.253-0.253-0.006-0.008C22.956,43.65,22.96,43.656,23.219,43.411z"/>
	</g>
</g>
<g>
</g>
<g>
</g>
<g>
</g>
<g>
</g>
<g>
</g>
<g>
</g>
<g>
</g>
<g>
</g>
<g>
</g>
<g>
</g>
<g>
</g>
<g>
</g>
<g>
</g>
<g>
</g>
<g>
</g>
</svg>
