<?xml version="1.0" encoding="iso-8859-1"?>
<!-- Generator: Adobe Illustrator 16.0.0, SVG Export Plug-In . SVG Version: 6.00 Build 0)  -->
<!DOCTYPE svg PUBLIC "-//W3C//DTD SVG 1.1//EN" "http://www.w3.org/Graphics/SVG/1.1/DTD/svg11.dtd">
<svg version="1.1" id="Capa_1" xmlns="http://www.w3.org/2000/svg" xmlns:xlink="http://www.w3.org/1999/xlink" x="0px" y="0px"
	 width="44.96px" height="44.96px" viewBox="0 0 44.96 44.96" style="enable-background:new 0 0 44.96 44.96;" xml:space="preserve"
	>
<g>
	<g>
		<path d="M18.862,40.777c5.028,3.578,12.174,0.457,16.083-3.238c0.039-0.037,0.066-0.07,0.094-0.104
			c4.418-4.768,6.621-12.852,0.504-17.203c-5.029-3.577-12.176-0.456-16.084,3.239C14.703,27.968,12.899,36.533,18.862,40.777z
			 M26.839,20.265c0.535-0.138,0.658,0.106,0.264,0.491c-1.605,1.57-3.199,3.126-4.773,4.665c-0.394,0.387-0.389,0.393,0.013,0.014
			c1.726-1.629,3.388-3.2,4.997-4.725c0.4-0.38,1.17-0.757,1.721-0.779c0.516-0.022,1.027-0.002,1.529,0.061
			c0.549,0.069,0.836,0.317,0.652,0.483s-0.184,0.242,0,0.177c0.184-0.066,0.396-0.182,0.477-0.263
			c0.08-0.082,0.578-0.029,1.086,0.19c1.441,0.627,2.719,1.715,3.666,3.354c2.566,4.439-0.031,9.998-3.111,13.375
			c-2.281,2.141-5.352,3.633-8.281,3.752c-0.553,0.023-0.889-0.131-0.748-0.273c0.139-0.143,0.102-0.373-0.074-0.525
			c-0.105-0.092-0.209-0.186-0.311-0.285c-0.1-0.098-0.191-0.199-0.283-0.303c-0.15-0.172-0.555-0.025-0.911,0.332
			c-0.355,0.357-1.071,0.51-1.562,0.256c-0.107-0.057-0.214-0.113-0.319-0.176c-0.477-0.279-0.521-0.887-0.143-1.291
			c0.252-0.268,0.504-0.537,0.756-0.805c0.378-0.404,0.513-1.145,0.367-1.678c-0.038-0.143-0.073-0.283-0.106-0.43
			c-0.119-0.539-0.484-0.674-0.88-0.289c-0.553,0.535-1.105,1.07-1.661,1.605c-0.398,0.383-0.854,0.516-1.007,0.291
			c-0.091-0.133-0.179-0.271-0.264-0.418c-0.194-0.336-0.356-0.684-0.489-1.033c-0.196-0.516,0.021-1.271,0.411-1.662
			c1.126-1.131,2.312-2.322,3.547-3.561c0.391-0.393,0.841-1.139,1.047-1.648c0.034-0.084,0.069-0.17,0.106-0.254
			c0.216-0.508,0.096-0.602-0.31-0.229c-1.163,1.074-2.042,1.895-2.53,2.363c-0.398,0.385-0.471,0.525-0.879,0.898
			c-0.388,0.354-0.776,0.709-1.167,1.064c-0.407,0.373-0.772,0.229-0.748-0.322c0.072-1.641,0.565-3.291,1.287-4.812
			c0.237-0.5,0.67-1.107,0.934-1.375c0.264-0.268,0.287-0.309,0.052-0.092c-0.234,0.217-0.206-0.002,0.092-0.467
			c0.351-0.547,0.723-1.066,1.108-1.543C22.025,22.376,24.378,20.901,26.839,20.265z"/>
		<path d="M15.343,11.76c-3.912-2.201-9.219,0.238-12.118,2.98c-3.724,3.522-4.901,10.394,0.16,13.246
			c3.911,2.201,9.219-0.238,12.118-2.98C18.941,21.291,20.625,14.732,15.343,11.76z M2.083,19.753
			c-0.139,0.534-0.149,0.532-0.015-0.004c0.486-1.94,1.632-3.782,2.904-5.157c0.93-1.005,2.055-1.741,3.241-2.185
			c0.517-0.194,0.729-0.214,0.456-0.106s-0.805,0.526-1.197,0.915c-1.332,1.322-2.66,2.643-3.983,3.956
			c-0.393,0.389-0.912,1.106-1.104,1.624C2.268,19.114,2.167,19.434,2.083,19.753z M2.387,20.739
			c-0.03-0.531,0.266-1.272,0.662-1.657c2.134-2.077,4.353-4.236,6.639-6.462c0.396-0.386,1.134-0.731,1.646-0.689
			c0.513,0.042,0.6,0.454,0.204,0.84c-2.541,2.487-5.218,5.097-8.243,8.022c-1.606,1.65,5.146-4.975,8.289-8.016
			c0.398-0.384,0.732-0.69,0.746-0.688c0.015,0.004-0.296,0.318-0.692,0.702c-1.654,1.599-4.76,4.604-8.479,8.211
			C2.764,21.388,2.417,21.271,2.387,20.739z M13.755,25.156c-1.15,1.088-2.522,1.885-3.929,2.301
			c-0.529,0.158-0.983,0.219-0.999,0.211c-0.014-0.01-0.036-0.006-0.049,0.008c-0.013,0.014-0.421,0.092-0.915,0.107
			c-0.494,0.014-0.684-0.252-0.426-0.52c0.258-0.266,0.221-0.764-0.027-1.15c-0.248-0.391-0.716-0.42-1.108-0.031
			c-0.149,0.148-0.299,0.295-0.448,0.441c-0.393,0.389-1.121,0.514-1.563,0.184c-0.11-0.082-0.219-0.17-0.324-0.262
			c-0.416-0.363-0.362-1.027,0.042-1.404c0.565-0.527,1.131-1.057,1.693-1.589c0.402-0.379,0.722-0.812,0.72-0.965
			c-0.002-0.154-0.312,0.039-0.701,0.432c-0.627,0.632-1.254,1.265-1.88,1.9c-0.389,0.393-0.84,0.529-0.989,0.291
			c-0.148-0.236-0.268-0.723-0.285-1.068c-0.019-0.348,0.278-0.953,0.664-1.348c1.149-1.18,2.293-2.348,3.435-3.513
			c0.387-0.395,0.888-1.121,1.166-1.598c0.473-0.807,1.061-1.583,1.768-2.296c0.693-0.701,1.447-1.291,2.233-1.768
			c0.472-0.287,1.014-0.619,1.182-0.79c0.169-0.171,0.722-0.138,1.182,0.168c0.894,0.597,1.656,1.472,2.188,2.656
			C17.865,18.857,15.998,22.732,13.755,25.156z"/>
		<path d="M27.566,14.349c0.527-0.165,1.002-0.369,1.082-0.389c0.08-0.018,0.135-0.049,0.123-0.058
			c-0.012-0.009,0.387-0.202,0.861-0.482c0.705-0.416,1.348-0.901,1.885-1.408c2.268-2.452,3.369-6.827-0.111-8.786
			c-2.785-1.567-6.438,0.092-8.519,2.059c-2.454,2.322-3.227,6.905,0.11,8.784C24.406,14.86,26.031,14.827,27.566,14.349z
			 M31.042,5.228c0.146,0.21,0.277,0.441,0.393,0.696c0.953,2.127-0.258,4.59-1.691,6.141c-0.982,0.928-2.211,1.484-3.381,1.525
			c-0.551,0.02-0.676-0.414-0.285-0.806c0.18-0.182,0.359-0.362,0.541-0.544c0.389-0.392,0.668-0.88,0.639-1.093
			c-0.029-0.213-0.352-0.069-0.74,0.322c-0.359,0.364-0.719,0.728-1.08,1.093c-0.387,0.393-1.121,0.527-1.525,0.152
			c-0.004-0.003-0.006-0.006-0.01-0.008c-0.402-0.377-0.314-1.093,0.072-1.485c1.965-1.99,3.912-3.952,5.844-5.891
			C30.207,4.94,30.792,4.865,31.042,5.228z M23.255,7.321c0.366-0.782,0.864-1.503,1.407-2.09c0.393-0.426,0.842-0.768,1.318-1.022
			c0.486-0.26,0.609-0.24,0.244-0.033c-0.365,0.208-0.957,0.729-1.35,1.117c-0.062,0.062-0.125,0.124-0.188,0.187
			c-0.393,0.389-0.988,1.059-1.256,1.541c-0.057,0.102-0.111,0.205-0.162,0.308C23.026,7.823,23.021,7.821,23.255,7.321z
			 M22.656,10.006c-0.035-0.509,0.355-1.233,0.751-1.618c1.348-1.312,2.717-2.646,4.118-4.012c0.396-0.385,1.082-0.689,1.512-0.573
			c0.43,0.115,0.428,0.608,0.031,0.995c-1.818,1.78-3.637,3.563-5.529,5.415C23.144,10.599,22.692,10.515,22.656,10.006z
			 M23.552,10.25c1.365-1.322,2.086-2.003,1.211-1.104c-0.217,0.209-0.631,0.607-1.195,1.153c-0.395,0.385-0.721,0.685-0.727,0.671
			C22.836,10.958,23.155,10.634,23.552,10.25z"/>
		<path d="M38.695,11.881c3.123,1.273,8.156-2.631,5.533-5.683c-2.549-2.966-8.287,1.078-6.918,4.323
			C37.525,11.029,38.183,11.672,38.695,11.881z M42.964,8.686C42.962,8.7,42.96,8.713,42.958,8.727
			c-0.08,0.546-0.605,1.232-0.969,1.586c-0.365,0.354-1.018,0.808-1.463,0.738c-0.447-0.069-0.424-0.638-0.027-1.023
			c0.531-0.518,1.094-1.064,1.676-1.633C42.57,8.009,43.037,8.138,42.964,8.686z M40.439,9.985c0.641-0.63,1.207-1.184,1.707-1.667
			c0.398-0.383,0.404-0.377,0.01,0.01c-0.598,0.587-1.162,1.138-1.709,1.666C40.048,10.377,40.044,10.371,40.439,9.985z
			 M39.505,7.592c0.324-0.597,0.9-1.164,1.557-1.377c0.504-0.163,1.053,0.401,1.363,0.709c0.08,0.079,0.148,0.164,0.207,0.253
			c0.1,0.149-0.164,0.596-0.562,0.979c-0.588,0.566-1.176,1.133-1.764,1.699c-0.396,0.383-1.031,0.344-1.156-0.194
			C38.99,8.982,39.15,8.244,39.505,7.592z"/>
		<path d="M40.56,6.654c0.045-0.046,0.09-0.092,0.135-0.137c0.076-0.075-0.047-0.027-0.256,0.133
			c-0.123,0.096-0.242,0.199-0.355,0.314c-0.086,0.088-0.166,0.178-0.24,0.27c-0.127,0.155-0.01,0.096,0.25-0.145L40.56,6.654z"/>
	</g>
</g>
<g>
</g>
<g>
</g>
<g>
</g>
<g>
</g>
<g>
</g>
<g>
</g>
<g>
</g>
<g>
</g>
<g>
</g>
<g>
</g>
<g>
</g>
<g>
</g>
<g>
</g>
<g>
</g>
<g>
</g>
</svg>
