<?xml version="1.0" encoding="iso-8859-1"?>
<!-- Generator: Adobe Illustrator 16.0.0, SVG Export Plug-In . SVG Version: 6.00 Build 0)  -->
<!DOCTYPE svg PUBLIC "-//W3C//DTD SVG 1.1//EN" "http://www.w3.org/Graphics/SVG/1.1/DTD/svg11.dtd">
<svg version="1.1" id="Capa_1" xmlns="http://www.w3.org/2000/svg" xmlns:xlink="http://www.w3.org/1999/xlink" x="0px" y="0px"
	 width="41.428px" height="41.428px" viewBox="0 0 41.428 41.428" style="enable-background:new 0 0 41.428 41.428;"
	 xml:space="preserve">
<g>
	<g>
		<path d="M10.539,16.707c-0.113,2.355,1.754,4.393,4.138,4.228c2.502-0.173,4.352-2.029,4.472-4.534
			c0.001-0.017-0.004-0.029-0.01-0.042c-0.01-0.021-0.01-0.059,0-0.083c0.005-0.014,0.011-0.029,0.01-0.044
			C18.871,10.432,10.796,11.382,10.539,16.707z M16.29,14.926c0.464,0.961,0.47,2.783,0.003,3.75
			c-0.195,0.405-0.464,0.729-0.826,0.844c0.049-0.287-0.001-0.587-0.152-0.838c-0.256-0.426-0.77-0.419-1.269,0.07
			c-0.053,0.052-0.085,0.114-0.13,0.17c-0.561-0.598-0.845-1.484-0.957-2.255c-0.033-0.226-0.028-0.518,0.011-0.832
			c0.292-0.193,0.689-0.524,1.137-0.975c0.168-0.169,0.337-0.337,0.505-0.506c0.219-0.22,0.405-0.426,0.564-0.615
			C15.679,13.995,16.045,14.419,16.29,14.926z M14.384,13.563c-0.214,0.183-0.424,0.373-0.61,0.561
			c-0.169,0.171-0.338,0.361-0.501,0.553C13.511,14.107,13.879,13.642,14.384,13.563z"/>
		<path d="M26.334,21.103c2.543-0.176,4.316-2.145,4.437-4.654c0.112-2.322-1.771-4.609-4.193-4.442
			c-2.543,0.176-4.319,2.144-4.439,4.655C22.248,18.969,23.745,21.282,26.334,21.103z M24.803,15.09
			c0.213,0.015,0.553-0.142,0.953-0.537c0.169-0.166,0.337-0.332,0.505-0.499c0.117-0.115,0.211-0.225,0.289-0.33
			c1.199,0.321,1.745,1.844,1.798,2.937c0.041,0.855-0.402,2.467-1.377,2.734c0.114-0.23,0.151-0.431,0.071-0.538
			c-0.137-0.182-0.575-0.005-1.024,0.406c-0.965-0.49-1.41-1.829-1.459-2.815C24.577,16.085,24.649,15.575,24.803,15.09z"/>
		<path d="M7.248,28.644c0.394,0.301,0.813,0.576,1.262,0.786c0.03,0.015,0.056,0.026,0.08,0.036
			c0.044,0.021,0.049,1.147-0.009,2.518c-0.083,1.959-0.11,3.955,0.53,5.734c1.163,3.238,5.683,3.653,8.426,2.394
			c0.665-0.306,1.248-0.744,1.753-1.285c0.824-0.882,1.643-0.729,2.562,0.291c0.741,0.82,1.661,1.419,2.772,1.688
			c6.791,1.651,7.843-4.161,8.003-9.111c0.045-1.372,1.039-2.963,2.169-3.74c3.883-2.674,8.345-7.664,5.966-9.651
			c-0.462-0.386-1.104-0.517-1.809-0.482c-1.058,0.053-1.812-0.718-1.696-2.085c0.417-4.904,1.172-12.798-2.247-14.307
			c-4.571-2.017-11.582-0.625-16.37-0.625c-4.719,0-13.001-1.785-15.419,3.628c-1.278,2.86-0.746,7.414-0.428,11.208
			c0.115,1.367-0.197,2.494-0.628,2.584c-0.246,0.052-0.5,0.121-0.765,0.211c-2.263,0.77-1.345,2.963-0.292,4.496
			C2.639,25.156,5.113,27.016,7.248,28.644z M18.294,37.684c-0.718,1.871-2.122,2.289-3.489,1.961
			c0.106-0.271,0.065-0.539-0.144-0.7c-0.266-0.205-0.742-0.136-1.163,0.154c-0.866-0.509-1.607-1.255-1.987-2.023
			c-0.252-0.512-0.387-1.123-0.44-1.714c0.167-0.148,0.349-0.315,0.548-0.519c0.656-0.665,1.187-1.289,1.187-1.396
			c0-0.107-0.543,0.311-1.214,0.931c-0.201,0.186-0.381,0.367-0.546,0.541c0-0.018-0.003-0.036-0.003-0.053
			c-0.011-0.805-0.009-1.609-0.008-2.414c0.159-0.083,0.336-0.206,0.526-0.381c0.687-0.632,1.247-1.572,1.249-2.101
			c0.001-0.319,0.002-0.638,0.002-0.957c0-0.026-0.014-0.048-0.037-0.064c-0.034-0.027-0.588,0.446-1.229,1.044
			c-0.183,0.17-0.352,0.373-0.509,0.587c0.003-0.607,0.006-1.213,0.006-1.82c0-0.145-0.355-0.151-0.418-0.154
			c-0.533-0.019-1.485-0.751-2.456-1.626c0.002-0.002,0.005-0.004,0.007-0.006c0.392-0.402,0.504-0.925,0.255-1.171
			c-0.245-0.242-0.777-0.104-1.197,0.303c-0.614-0.592-1.177-1.161-1.587-1.562c0.409-0.411,0.723-0.747,0.708-0.764
			c-0.016-0.016-0.36,0.293-0.779,0.693c-0.096-0.094-0.186-0.18-0.261-0.249c-0.206-0.189-0.413-0.388-0.619-0.589
			c0.441-0.439,0.622-1.003,0.423-1.278c-0.2-0.276-0.708-0.137-1.16,0.329c-0.029,0.03-0.047,0.063-0.074,0.094
			c-0.363-0.421-0.688-0.867-0.953-1.343c0.099-0.055,0.197-0.121,0.287-0.214c0.518-0.534,0.92-1.044,0.898-1.143
			c-0.013-0.059-0.025-0.118-0.033-0.178c-0.002-0.018,0.002-0.026,0-0.043c0.411,0.256,0.925,0.61,1.397,1.041
			c0.738,0.673,1.352,1.299,1.499,1.446c2.237,2.258,4.987,2.153,7.896,1.963c-0.178,0.199-0.269,0.343-0.205,0.342
			c0.065,0,0.276-0.146,0.51-0.348c1.347-0.016,3.042,0.812,3.472,2.057C19.839,29.794,19.425,34.74,18.294,37.684z M9.035,2.691
			C8.43,3.275,7.433,4.237,6.132,5.496C5.9,5.721,5.676,5.96,5.467,6.202C5.474,6.154,5.472,6.097,5.48,6.051
			C5.587,5.95,5.802,5.744,6.14,5.415c1.112-1.082,2.096-2.037,2.788-2.7C8.961,2.705,8.999,2.699,9.035,2.691z M38.924,20.638
			c-0.292,2.334-3.229,4.29-4.868,5.745c-0.672,0.598-1.375,1.156-2.09,1.702c-0.309,0.234-0.537,0.349-0.643,0.397
			c-0.139,0.064-0.158,0.076-0.155,0.076c-0.018,0.007-0.077,0.029-0.259,0.104c-0.36,0.146-0.655,0.382-0.655,0.741
			c0,1.987,0,3.976,0,5.964c0,3.197-3.425,4.792-5.769,3.377c0.377-0.41,0.587-0.865,0.482-1.031
			c-0.062-0.1-0.122-0.204-0.179-0.313c-0.129-0.249-0.246-0.521-0.352-0.811c-0.169-0.46-0.661-0.45-1.149,0.036
			c-0.123,0.123-0.226,0.271-0.304,0.433c-0.582-1.166-0.928-2.765-1.048-4.477c0.127-0.104,0.263-0.223,0.406-0.367
			c0.728-0.728,1.324-1.634,1.351-2.022c0.025-0.388-0.529-0.163-1.255,0.501c-0.196,0.182-0.38,0.38-0.548,0.581
			c-0.004-1.574,0.17-3.17,0.539-4.559c0.073-0.067,0.144-0.132,0.231-0.215c0.212-0.198,0.423-0.396,0.634-0.594
			c0.493-0.464,0.927-0.884,1.236-1.191c0.438-0.15,0.895-0.232,1.322-0.21c2.269,0.115,4.635,0.079,6.348-1.004
			C33.58,22.632,39.44,16.518,38.924,20.638z M22.469,26.597c0.252-0.825,1.012-1.474,1.884-1.817
			c-0.331,0.309-0.757,0.716-1.218,1.166c-0.173,0.169-0.346,0.338-0.519,0.507C22.56,26.507,22.518,26.548,22.469,26.597z
			 M17.044,2.49c0.812,0,1.624,0,2.436,0c-0.095,0.025-0.169,0.051-0.197,0.079c-0.099,0.097,0.321,0.175,0.938,0.175
			c0.616,0,1.19-0.073,1.283-0.164c0.031-0.031-0.014-0.061-0.088-0.09c0.103,0,0.206,0,0.31,0c-0.031,0.027-0.065,0.055-0.1,0.091
			c-0.087,0.09-0.134,0.163-0.104,0.163s0.124-0.072,0.211-0.161c0.034-0.036,0.058-0.066,0.076-0.093c3.3,0,6.598,0,9.896,0
			c4.386,0,2.94,13.179,2.94,16.339c0,0.101,0.021,0.187,0.056,0.262c0.062,0.136,0.033,0.303-0.114,0.419
			c-0.095,0.075-0.181,0.149-0.257,0.22c-2.062,1.969-3.267,3.335-6.062,3.335c-1.687,0-3.374,0-5.061,0
			c-0.133,0-0.29,0.033-0.452,0.088c-0.243,0.08-0.603,0.228-0.806,0.32c-0.145,0.066-0.262,0.143-0.332,0.228
			c-0.165,0.196-0.319,0.416-0.463,0.648c-0.233,0.375-0.57,0.272-0.86-0.215c-0.182-0.306-0.379-0.588-0.591-0.841
			c-0.075-0.09-0.232-0.124-0.429-0.12c-0.254,0.006-1.567,0.112-2.938,0.179c-1.931,0.095-3.915,0.11-5.376-0.56
			c-1.302-0.596-2.333-1.549-3.34-2.452c0.013-0.11,0.024-0.223,0.035-0.334c0.036-0.373,0.102-0.707-0.014-0.776
			c-0.109-0.065-0.425,0.122-0.729,0.417c-0.333-0.381-0.642-0.828-0.893-1.307c0.004-0.004,0.008-0.008,0.012-0.012
			c0.625-0.643,1.132-1.764,1.132-2.503c0-0.739-0.564-0.782-1.26-0.096c-0.179,0.176-0.346,0.364-0.497,0.554
			c-0.002-0.046-0.011-0.094-0.011-0.14c0-1.258,0-2.516,0-3.774c0.117-0.103,0.238-0.213,0.364-0.335
			c0.776-0.749,1.405-1.579,1.405-1.851c0-0.273-0.642,0.156-1.435,0.956c-0.116,0.117-0.227,0.234-0.334,0.351
			c0-1.178,0-2.356,0-3.533c0.116-0.1,0.236-0.21,0.36-0.337c0.864-0.875,1.737-2.613,2.589-3.441
			C9,3.542,10.041,2.953,10.774,2.425C12.917,2.25,15.284,2.49,17.044,2.49z M8.827,2.735c-0.886,0.87-1.786,1.754-2.704,2.662
			C5.794,5.723,5.586,5.93,5.48,6.038C5.815,4.131,7.127,3.185,8.827,2.735z M2.608,19.005c-0.097,0.079-0.197,0.169-0.284,0.254
			c0.022-0.092,0.059-0.161,0.114-0.205C2.489,19.013,2.547,19.003,2.608,19.005z"/>
		<path d="M11.719,22.479c-0.283-0.178-0.529-0.312-0.564-0.276s0.095,0.276,0.31,0.527c0.213,0.252,0.483,0.358,0.587,0.252
			C12.157,22.875,12.002,22.658,11.719,22.479z"/>
		<path d="M24.521,2.744c0.665,0,1.25-0.051,1.308-0.115c0.057-0.063-0.176-0.115-0.521-0.115c-0.207,0-0.415,0-0.623,0
			c-0.179,0-0.365-0.003-0.559-0.008c-0.309-0.007-0.616,0.04-0.684,0.11C23.372,2.687,23.855,2.744,24.521,2.744z"/>
		<path d="M10.837,28.363c0.114-0.112,0.106-0.118-0.007-0.005C10.717,28.472,10.723,28.475,10.837,28.363z"/>
		<path d="M31.421,2.744c0.188,0,0.391-0.051,0.454-0.115c0.062-0.063-0.037-0.115-0.22-0.115c-0.186,0-0.387,0.051-0.453,0.115
			C31.136,2.692,31.232,2.744,31.421,2.744z"/>
	</g>
</g>
<g>
</g>
<g>
</g>
<g>
</g>
<g>
</g>
<g>
</g>
<g>
</g>
<g>
</g>
<g>
</g>
<g>
</g>
<g>
</g>
<g>
</g>
<g>
</g>
<g>
</g>
<g>
</g>
<g>
</g>
</svg>
