<?xml version="1.0" encoding="iso-8859-1"?>
<!-- Generator: Adobe Illustrator 16.0.0, SVG Export Plug-In . SVG Version: 6.00 Build 0)  -->
<!DOCTYPE svg PUBLIC "-//W3C//DTD SVG 1.1//EN" "http://www.w3.org/Graphics/SVG/1.1/DTD/svg11.dtd">
<svg version="1.1" id="Capa_1" xmlns="http://www.w3.org/2000/svg" xmlns:xlink="http://www.w3.org/1999/xlink" x="0px" y="0px"
	 width="48.461px" height="48.461px" viewBox="0 0 48.461 48.461" style="enable-background:new 0 0 48.461 48.461;"
	 xml:space="preserve">
<g>
	<g>
		<path d="M2.195,24.667c-0.101,0-0.188,0.084-0.199,0.196l-0.25,2.332c-0.118,1.099-0.116,2.879,0.005,3.977l0.245,2.233
			c0.012,0.112,0.1,0.195,0.199,0.195c0.097,0,0.182-0.081,0.195-0.193l0.283-2.239c0.139-1.096,0.142-2.873,0.006-3.969
			L2.39,24.863C2.376,24.75,2.292,24.667,2.195,24.667z"/>
		<path d="M0.437,26.323c-0.101,0-0.177,0.078-0.191,0.189c0,0-0.077,0.598-0.173,1.335c-0.097,0.738-0.097,1.923,0,2.648
			l0.173,1.311c0.016,0.111,0.092,0.189,0.191,0.189c0.097,0,0.173-0.075,0.188-0.188c0,0,0.093-0.587,0.208-1.312
			c0.114-0.726,0.114-1.911,0-2.649l-0.208-1.336C0.61,26.4,0.534,26.323,0.437,26.323z"/>
		<path d="M4.057,23.82c-0.123,0-0.223,0.102-0.233,0.238L3.551,27.19c-0.096,1.102-0.093,2.885,0.007,3.984l0.267,2.944
			c0.012,0.138,0.11,0.235,0.233,0.235c0.127,0,0.228-0.098,0.238-0.235l0.302-2.946c0.113-1.099,0.116-2.881,0.008-3.98
			l-0.31-3.135C4.284,23.922,4.183,23.82,4.057,23.82z"/>
		<path d="M5.941,34.554c0.146,0,0.266-0.121,0.28-0.278l0.289-3.1c0.104-1.1,0.106-2.883,0.007-3.983l-0.296-3.277
			c-0.016-0.157-0.135-0.276-0.28-0.276c-0.149,0-0.269,0.119-0.275,0.278l-0.264,3.274c-0.089,1.102-0.086,2.887,0.006,3.987
			l0.258,3.098C5.673,34.433,5.792,34.554,5.941,34.554z"/>
		<path d="M7.837,34.637c0.086,0,0.165-0.036,0.223-0.095c0.098-0.1,0.175-1.116,0.271-2.217c0.033-0.377,0.066-0.771,0.101-1.148
			c0.096-1.1,0.092-2.884-0.009-3.984l-0.267-2.896c-0.012-0.178-0.149-0.316-0.318-0.316c-0.173,0-0.307,0.139-0.318,0.318
			l-0.233,2.894c-0.089,1.102-0.094,2.887-0.009,3.988l0.242,3.14C7.531,34.5,7.665,34.637,7.837,34.637z"/>
		<path d="M9.75,34.681c0.19,0,0.349-0.159,0.359-0.36l0.259-3.141c0.091-1.101,0.115-2.887,0.058-3.99l-0.316-5.949
			c-0.012-0.203-0.169-0.363-0.359-0.363c-0.192,0-0.351,0.16-0.361,0.363L9.11,27.189c-0.052,1.104-0.028,2.892,0.052,3.993
			l0.227,3.14C9.399,34.522,9.557,34.681,9.75,34.681z"/>
		<path d="M11.679,34.689c0.108,0,0.207-0.046,0.279-0.121c0.119-0.123,0.188-1.173,0.272-2.274
			c0.028-0.365,0.059-0.747,0.085-1.112c0.085-1.102,0.117-2.889,0.073-3.993l-0.312-7.767c-0.013-0.225-0.188-0.399-0.399-0.399
			c-0.219,0-0.391,0.174-0.402,0.399l-0.274,7.767c-0.039,1.104-0.01,2.893,0.064,3.994l0.211,3.107
			C11.289,34.512,11.46,34.689,11.679,34.689z"/>
		<path d="M13.622,34.679c0.121,0,0.229-0.05,0.31-0.132c0.133-0.137,0.196-1.205,0.276-2.306c0.023-0.349,0.051-0.71,0.076-1.059
			c0.078-1.102,0.111-2.89,0.074-3.994l-0.296-8.58c-0.012-0.25-0.203-0.443-0.44-0.443s-0.435,0.196-0.441,0.443l-0.322,10.579
			l0.322,5.05C13.187,34.483,13.384,34.679,13.622,34.679z"/>
		<path d="M15.58,34.689c0.133,0,0.252-0.055,0.339-0.144c0.144-0.149,0.201-1.234,0.274-2.336c0.095-1.399,0.203-3.021,0.203-3.021
			l-0.338-10.934c-0.008-0.272-0.219-0.486-0.479-0.486c-0.267,0-0.478,0.213-0.48,0.486l-0.303,10.934l0.303,5.019
			C15.102,34.477,15.313,34.689,15.58,34.689z"/>
		<path d="M17.552,34.683c0.145,0,0.273-0.059,0.367-0.154c0.158-0.163,0.211-1.266,0.279-2.368
			c0.087-1.381,0.187-2.972,0.187-2.972l-0.312-10.656c-0.009-0.294-0.237-0.524-0.521-0.524s-0.515,0.23-0.522,0.524l-0.272,10.656
			l0.272,4.973C17.038,34.454,17.267,34.683,17.552,34.683z"/>
		<path d="M19.541,34.693c0.154,0,0.296-0.062,0.396-0.167c0.172-0.174,0.218-1.292,0.279-2.395c0.078-1.37,0.167-2.941,0.167-2.941
			l-0.28-10.269c-0.007-0.316-0.257-0.564-0.562-0.564c-0.309,0-0.558,0.248-0.562,0.568L18.725,29.19l0.254,4.941
			C18.983,34.446,19.232,34.693,19.541,34.693z"/>
		<path d="M21.543,16.366c-0.326,0-0.595,0.272-0.604,0.61l-0.226,12.211l0.227,4.913c0.009,0.332,0.276,0.603,0.604,0.603
			c0.164,0,0.314-0.069,0.425-0.181c0.184-0.186,0.225-1.319,0.283-2.423c0.071-1.356,0.152-2.907,0.152-2.907l-0.259-12.218
			C22.141,16.638,21.87,16.366,21.543,16.366z"/>
		<path d="M44.63,22.757c-2.879-0.905-3.965-0.854-5.438-3.886c-1.124-2.313-3.269-3.856-5.54-4.884
			c-2.356-1.066-7.371-1.455-9.375,0.61c-0.082,0.085-0.15,0.189-0.211,0.308c-0.093,0.186-0.174,0.337-0.221,0.326
			c-0.028-0.007-0.058-0.012-0.088-0.012c-0.354,0-0.637,0.292-0.646,0.649l-0.261,13.328l0.266,4.834
			c0.004,0.351,0.286,0.643,0.641,0.643c0.176,0,0.336-0.073,0.453-0.192c0.006-0.006,0.011-0.016,0.017-0.025
			c0.008-0.016,0.243,0.404,0.759,0.602c0.481,0.185,1.193,0.258,2.245,0.283c4.443,0.002,8.888,0.004,13.329,0.006
			c2.562,0.001,5.638-0.665,6.979-3.168C49.271,28.945,48.705,24.038,44.63,22.757z M46.534,30.089
			c-0.539,5.41-11.387,4.394-16.737,4.068c-0.552-0.034-0.998-0.298-0.998-0.597c0-0.3-0.258-0.307-0.574-0.018
			c-0.316,0.29-1.029,0.537-1.562,0.394c-1.186-0.317-0.736-1.193-0.736-2.959c0-0.039,0-0.078,0-0.116
			c0-0.064,0.314-0.437,0.703-0.829c0.488-0.495,0.977-0.99,1.468-1.487c0.388-0.394,0.413-0.463,0.062-0.148
			c-0.206,0.187-0.415,0.378-0.632,0.576c-0.288,0.269-0.577,0.536-0.867,0.805c-0.405,0.375-0.734,0.261-0.734-0.256
			c0-0.516,0.33-1.236,0.737-1.609c0.468-0.429,0.935-0.856,1.4-1.285c0.406-0.374,0.735-1.064,0.735-1.543
			s-0.328-0.562-0.733-0.187c-0.469,0.438-0.938,0.873-1.407,1.31c-0.404,0.375-0.732,0.268-0.732-0.242s0.327-1.229,0.73-1.604
			c0.47-0.438,0.939-0.878,1.411-1.318c0.403-0.377,0.731-0.759,0.731-0.854c0-0.094-0.316,0.147-0.707,0.538
			c-0.463,0.464-0.95,0.952-1.461,1.464c-0.391,0.392-0.706,0.428-0.706,0.08c0-0.209,0-0.418,0-0.627c0-0.371,0-0.741,0-1.112
			c0-0.552,0.312-1.321,0.695-1.718c0.495-0.511,0.988-1.02,1.481-1.527c0.385-0.396,0.696-0.989,0.696-1.323
			c0-0.335-0.318-0.289-0.71,0.1c-0.49,0.487-0.974,0.969-1.455,1.448c-0.392,0.389-0.709,0.257-0.709-0.295
			c0-0.782,0-1.565,0-2.347c0-0.115,0.004-0.226,0.013-0.333c0.015-0.183,0.358-0.645,0.752-1.033
			c0.165-0.163,0.33-0.326,0.495-0.489c0.394-0.388,1.158-0.775,1.71-0.745c1.367,0.076,2.984,0.627,4.347,1.243
			c3.652,1.653,3.646,5.174,5.905,7.761c0.253,0.289,0.775,0.326,1.129,0.353C44.682,23.958,46.963,25.765,46.534,30.089z"/>
	</g>
</g>
<g>
</g>
<g>
</g>
<g>
</g>
<g>
</g>
<g>
</g>
<g>
</g>
<g>
</g>
<g>
</g>
<g>
</g>
<g>
</g>
<g>
</g>
<g>
</g>
<g>
</g>
<g>
</g>
<g>
</g>
</svg>
