<?xml version="1.0" encoding="iso-8859-1"?>
<!-- Generator: Adobe Illustrator 16.0.0, SVG Export Plug-In . SVG Version: 6.00 Build 0)  -->
<!DOCTYPE svg PUBLIC "-//W3C//DTD SVG 1.1//EN" "http://www.w3.org/Graphics/SVG/1.1/DTD/svg11.dtd">
<svg version="1.1" id="Capa_1" xmlns="http://www.w3.org/2000/svg" xmlns:xlink="http://www.w3.org/1999/xlink" x="0px" y="0px"
	 width="47.515px" height="47.515px" viewBox="0 0 47.515 47.515" style="enable-background:new 0 0 47.515 47.515;"
	 xml:space="preserve">
<g>
	<g>
		<path d="M10.408,6c-4.815,5.063-4.125,12.737-2.416,18.906c0.719,2.592,1.818,5.067,2.94,7.503
			c0.918,1.991,0.564,2.017-0.296,3.847c-0.768,1.63-1.533,3.26-2.299,4.889c-0.472,1-0.873,1.867-0.856,1.936
			c0.02,0.065,0.823,0.585,1.803,1.097c8.432,4.402,20.518,5.182,27.457-2.168c6.979-7.391,2.881-18.406-2.252-25.999
			c-0.619-0.915-0.583-2.319,0.124-3.169c2.036-2.443,4.074-4.891,6.111-7.335c0.07-0.085,0.137-0.278,0.009-0.357
			C31.166-0.789,18.877-2.901,10.408,6z M9.352,11.006c1.663-5.022,6.11-8.375,11.38-9.917c0.049-0.014,0.098-0.024,0.147-0.036
			c0.082-0.02,0.057,0.049-0.057,0.151c-0.068,0.062-0.137,0.125-0.204,0.188c-3.378,3.316-6.831,6.71-10.327,10.15
			C9.504,12.319,9.005,12.056,9.352,11.006z M31.464,14.491c-0.035,0.042-0.048,0.057-0.06,0.071c-0.044,0.053-0.068,0.1-0.078,0.14
			c-0.021,0.087,0.054,0.161,0.057,0.183c0.002,0.013,0.004,0.024,0.015,0.036c5.25,6.994,10.508,18.379,4.359,26.254
			c-2.345,3.004-5.511,4.541-8.95,5.085c-1.091,0.173-2.554,0.095-3.245-0.073c-0.691-0.167-1.37-0.208-1.527-0.053
			c-0.156,0.155-1.178,0.211-2.268,0.032c-0.505-0.082-1.008-0.18-1.507-0.289c-1.079-0.236-1.643-0.789-1.275-1.157
			s0.344-0.82-0.048-1.018c-0.392-0.198-1.071-0.033-1.525,0.382c-0.453,0.414-1.67,0.462-2.689,0.04
			c-0.722-0.299-1.421-0.617-2.087-0.953c-0.262-0.131-0.462-0.249-0.614-0.359c-0.317-0.231,0.235-1.202,1.012-1.988
			c1.522-1.543,3.049-3.09,4.584-4.644c0.775-0.786,0.88-0.941,0.232-0.346c-0.384,0.353-0.774,0.712-1.175,1.077
			c-1.039,0.964-2.08,1.927-3.12,2.891c-0.812,0.75-1.364,1.179-1.245,0.954c0.067-0.128,0.137-0.266,0.206-0.412
			c0.382-0.812,0.765-1.625,1.146-2.438c0.471-0.999,1.513-2.414,2.326-3.16c0.916-0.841,1.832-1.68,2.746-2.521
			c0.813-0.748,1.283-1.771,1.062-2.29c-0.225-0.518-1.053-0.331-1.861,0.42c-0.344,0.319-0.688,0.64-1.031,0.957
			c-0.809,0.752-1.583,0.879-1.799,0.307c-0.215-0.573,0.23-1.637,1.038-2.39c0.332-0.31,0.665-0.621,0.999-0.933
			c0.808-0.754,1.432-1.451,1.396-1.559c-0.035-0.105-0.696,0.441-1.478,1.224c-0.34,0.341-0.688,0.688-1.045,1.047
			c-0.779,0.781-1.765,0.652-2.23-0.273c-0.467-0.927-0.225-2.317,0.545-3.11c0.526-0.544,1.054-1.087,1.578-1.629
			c0.77-0.793,1.311-1.781,1.222-2.208c-0.092-0.427-0.789-0.143-1.571,0.636c-0.61,0.607-1.216,1.211-1.817,1.809
			c-0.783,0.779-1.72,0.566-2.016-0.498c-0.083-0.296-0.161-0.593-0.234-0.893c-0.265-1.071,0.224-2.584,1.009-3.358
			c0.879-0.866,1.757-1.732,2.635-2.599c0.786-0.775,1.447-2.096,1.555-2.938s-0.361-0.873-1.131-0.081
			c-1.131,1.166-2.261,2.333-3.39,3.499c-0.77,0.793-1.452,0.872-1.491,0.175c-0.039-0.698,0.585-1.906,1.355-2.696
			c1.891-1.936,3.652-3.736,5.248-5.361c0.774-0.788,1.855-2.203,2.557-3.058c0.592-0.723,1.258-1.386,1.99-1.991
			c0.852-0.704,2.104-1.659,2.704-2.252c0.444-0.438,0.815-0.799,1.099-1.064c0.08-0.08,0.152-0.154,0.222-0.223
			c0.122-0.122-0.249,0.312-0.854,0.945c-0.604,0.636-1.03,1.103-0.945,1.052c0.085-0.054,0.617-0.568,1.188-1.155
			c0.571-0.587,1.471-1.053,2.006-1.001c0.536,0.052,0.904,0.188,0.825,0.268c-0.078,0.08,0.015,0.094,0.211,0.034
			c0.195-0.059,1.238,0.044,2.306,0.335c2.124,0.578,4.188,1.434,6.036,2.247c0.813,0.358,4.238,2.006,4.066,2.213
			C36.277,8.714,33.87,11.604,31.464,14.491z"/>
		<path d="M14.875,10.221c-4.766,4.915-7.852,8.104,0.579-0.49c0.118-0.122,0.232-0.24,0.347-0.356
			c0.191-0.196,0.374-0.407,0.407-0.473C16.24,8.836,15.645,9.428,14.875,10.221z"/>
	</g>
</g>
<g>
</g>
<g>
</g>
<g>
</g>
<g>
</g>
<g>
</g>
<g>
</g>
<g>
</g>
<g>
</g>
<g>
</g>
<g>
</g>
<g>
</g>
<g>
</g>
<g>
</g>
<g>
</g>
<g>
</g>
</svg>
