<?xml version="1.0" encoding="iso-8859-1"?>
<!-- Generator: Adobe Illustrator 16.0.0, SVG Export Plug-In . SVG Version: 6.00 Build 0)  -->
<!DOCTYPE svg PUBLIC "-//W3C//DTD SVG 1.1//EN" "http://www.w3.org/Graphics/SVG/1.1/DTD/svg11.dtd">
<svg version="1.1" id="Capa_1" xmlns="http://www.w3.org/2000/svg" xmlns:xlink="http://www.w3.org/1999/xlink" x="0px" y="0px"
	 width="44.186px" height="44.186px" viewBox="0 0 44.186 44.186" style="enable-background:new 0 0 44.186 44.186;"
	 xml:space="preserve">
<g>
	<g>
		<path d="M0.904,7.021c1.863,0.431,3.491,0.141,5.327,0.968c2.629,1.184,2.857,4.723,3.346,7.149
			c0.801,3.97,3.23,6.565,6.438,8.796c3.756,2.611-5.581,3.63-6.829-0.398c-0.644-2.08-0.11-4.635-0.175-6.778
			C8.946,14.634,7.237,13.427,5.3,13c-0.333-0.074-1.658,0.101-1.748,0.539c-0.221,1.068,0.356,0.678,1.341,2.265
			c0.873,1.407-0.33,4.348-0.6,5.972c-0.455,2.728-0.132,5.897,1.797,7.962c2.26,2.421,6.161,1.986,9.054,1.658
			c6.583-0.747,5.903,2.573,7.526,6.831c4.878,12.8,24.438,2.779,20.165-9.394c-0.183-0.521-0.6-1.313-0.907-1.772
			c-1.237-1.853-2.853-3.567-5.116-4.087c-2.278-0.521-4.419-0.761-3.604-3.812c0.432-1.619,2.1-3.113,2.046-4.928
			c-0.072-2.401-0.742-3.63-2.266-5.36c-1.345-1.526-3.414-2.346-5.254-3.055C25,4.765,24.429,4.451,22.938,1.752
			c-0.21-0.379-1.82,0.054-1.917,0.435c-1.001,3.89,2.887,4.848,5.56,6.193c2.037,1.025,3.431,2.886,3.229,5.075
			c-0.052,0.55-0.417,1.337-0.714,1.765c-0.179,0.258-0.362,0.512-0.554,0.762c-0.933,1.278-0.512,0.507-0.945-0.883
			c-0.924-2.969-4.186-5.229-6.572-6.839c-1.319-0.891-2.824-1.457-4.171-2.306c-2.204-1.389-2.677-3.552-3.427-5.807
			c-0.129-0.388-1.848,0.073-1.917,0.435c-0.005,0.028-0.007,0.054-0.012,0.082c-0.827,4.553,1.912,7.5,5.217,10.167
			c2.061,1.663,3.88,2.429,4.91,5.059c1.569,4.009-4.78,1.354-5.952,0.498c-3.316-2.418-1.721-10.163-6.68-10.95
			c-2.707-0.43-5.685-0.361-8.028,1.21C0.807,6.753,0.594,6.949,0.904,7.021z M6.868,17.775c0.067-0.445,0.15-0.539,0.184-0.201
			c0.034,0.338-0.042,0.7-0.15,0.807S6.801,18.22,6.868,17.775z M6.639,20.818c0.214-0.22,0.356,0.02,0.333,0.535
			s-0.215,1.13-0.449,1.372s-0.42,0.002-0.377-0.537C6.189,21.65,6.425,21.039,6.639,20.818z M6.22,25.138
			c-0.049-0.333,0.121-0.796,0.36-1.031c0.238-0.234,0.457-0.161,0.522,0.161c0.065,0.321-0.056,0.775-0.312,1.022
			C6.534,25.536,6.27,25.471,6.22,25.138z M26.334,40.303c-0.312-0.319-0.605-0.667-0.874-1.042
			c-0.02-0.027-0.038-0.056-0.055-0.084c-0.029-0.047,0.138-0.282,0.373-0.525c0.234-0.244,0.479-0.348,0.563-0.248
			c0.084,0.102,0.149,0.171,0.126,0.176c-0.022,0.003,0.13,0.304,0.338,0.674c0.125,0.222,0.25,0.443,0.379,0.671
			c0.039,0.071,0.114,0.113,0.212,0.136c0.14,0.032,0.296,0.047,0.342,0.083s-0.084,0.237-0.29,0.448
			C27.242,40.803,26.721,40.696,26.334,40.303z M33.546,41.094c-0.206,0.021-0.458,0.055-0.645,0.077
			c-0.488,0.056,0.025,0.126-0.795-0.175c-0.132-0.049-0.239-0.084-0.328-0.111c-0.184-0.054-0.26-0.139-0.304-0.221
			c-0.019-0.035-0.062-0.062-0.144-0.074c-0.134-0.021-0.261-0.033-0.388-0.035c-0.215-0.003-0.344-0.053-0.398-0.138
			c-0.055-0.084-0.102-0.167-0.115-0.206c-0.006-0.02-0.02-0.037-0.046-0.055c-0.175-0.117-0.391-0.272-0.629-0.427
			c-0.353-0.227-0.827-0.659-1.028-1.017c-0.121-0.215-0.243-0.432-0.368-0.647c-0.024-0.042-0.061-0.071-0.104-0.094
			c-0.069-0.036-0.305-0.251-0.376-0.562c-0.047-0.205-0.073-0.414-0.13-0.563c-0.012-0.032-0.032-0.057-0.059-0.078
			c-0.043-0.033-0.103-0.448-0.152-0.941c-0.03-0.304-0.072-0.604-0.129-0.891c-0.004-0.021-0.015-0.037-0.03-0.051
			c-0.023-0.023-0.021-0.482,0.031-1.032c0.014-0.152,0.029-0.306,0.042-0.451c0.047-0.55,0.031-0.986,0.105-1.066
			s0.088-0.212,0.094-0.276s0.139-0.417,0.281-0.871c0.145-0.454,0.441-0.95,0.602-1.169c0.093-0.128,0.165-0.271,0.222-0.437
			c0.004-0.014,0.005-0.024,0.004-0.034c-0.002-0.02,0.013-0.045,0.034-0.06c0.013-0.008,0.026-0.016,0.039-0.023
			c0.134-0.074,0.241-0.171,0.317-0.279c0.135-0.191,0.183-0.43,0.236-0.479c0.038-0.034,0.067-0.068,0.084-0.102
			c0.044-0.085,0.095-0.166,0.147-0.244c0.088-0.13,0.302-0.271,0.453-0.354c0.15-0.083,0.282-0.233,0.328-0.286
			c0.046-0.052,0.102-0.125,0.143-0.151c0.042-0.026,0.095-0.077,0.123-0.108c0.028-0.03,0.131-0.061,0.229-0.078
			c0.058-0.011,0.114-0.025,0.173-0.042c0.186-0.046,0.382-0.124,0.54-0.237c0.266-0.191,0.342-0.502,0.379-0.525
			c0.037-0.024,0.093-0.049,0.126-0.054c0.017-0.002,0.036-0.005,0.06-0.008c0.314-0.044,0.614-0.189,0.919-0.231
			c0.055-0.008,0.107-0.018,0.161-0.026c0.089-0.016,0.204-0.021,0.258-0.015c0.042,0.003,0.078,0.004,0.1,0.005
			c0.128,0.004,0.531,0.1,0.933,0.187c0.513,0.112,0.905,0.16,0.917,0.206c0.007,0.025,0.024,0.045,0.054,0.064
			c3.354,1.913,4.169,5.069,3.58,8.524c-0.093,0.544-0.391,1.384-0.653,1.87c-0.065,0.119-0.13,0.238-0.191,0.358
			c-0.255,0.488-0.414,0.924-0.431,0.936c-0.012,0.008-0.022,0.017-0.03,0.023c-0.25,0.231-0.75,0.669-1.19,1.11
			c-0.389,0.393-1.071,0.916-1.581,1.13c-0.082,0.033-0.162,0.068-0.244,0.104c-0.509,0.217-0.96,0.414-1.016,0.43
			C33.699,41.209,33.902,41.058,33.546,41.094z M40.597,37.336c-0.046,0.127-0.095,0.254-0.147,0.382
			c-0.951,2.294-2.648,3.809-4.608,4.583c-0.514,0.203-1.119,0.326-1.328,0.339s-0.411,0.048-0.452,0.089s-0.349,0.118-0.688,0.146
			c-0.341,0.027-0.555-0.034-0.477-0.113c0.077-0.079,0.086-0.146,0.016-0.152c-0.043-0.003-0.086-0.007-0.128-0.012
			c-0.076-0.007-0.156-0.021-0.237-0.042c-0.129-0.031-0.318,0.025-0.425,0.131c-0.106,0.106-0.507,0.169-0.891,0.107
			c-0.384-0.062-0.576-0.253-0.436-0.394c0.143-0.14,0.08-0.292-0.134-0.353c-0.136-0.039-0.264-0.082-0.378-0.135
			c-0.062-0.03-0.122-0.065-0.182-0.103c-0.098-0.061-0.31,0.018-0.474,0.176c-0.164,0.159-0.715,0.127-1.201-0.135
			c-0.064-0.035-0.129-0.07-0.192-0.105c-0.479-0.274-0.699-0.685-0.529-0.857c0.171-0.173,0.354-0.321,0.408-0.334
			s0.143,0.014,0.204,0.062c0.061,0.049,0.097,0.118,0.11,0.153c0.008,0.019,0.021,0.036,0.044,0.052
			c0.255,0.185,0.537,0.46,0.858,0.522c0.019,0.004,0.035,0.005,0.049,0.006c0.027,0.002,0.078,0.093,0.177,0.122
			c0.101,0.029,0.516,0.155,1.056,0.271c0.068,0.015,0.139,0.028,0.211,0.044c0.541,0.11,1.119,0.262,1.307,0.271
			c0.188,0.011,0.534,0.02,0.776-0.011c0.241-0.03,0.597-0.093,0.799-0.126c0.174-0.029,0.323-0.067,0.364-0.079
			c0.022-0.007,0.047-0.015,0.07-0.022c0.107-0.032,0.327-0.086,0.521-0.17c0.278-0.121,0.739-0.35,1.188-0.541
			c0.449-0.19,1.066-0.424,1.372-0.554c0.241-0.103,0.428-0.228,0.471-0.353c0.055-0.163,0.379-0.526,0.745-0.901
			c0.386-0.396,0.855-0.748,1.015-0.845c0.123-0.075,0.207-0.156,0.226-0.239c0.013-0.05,0.029-0.102,0.048-0.152
			c0.031-0.082,0.27-0.366,0.533-0.634C40.522,37.167,40.675,37.123,40.597,37.336z M41.25,32.84c0.01-0.456,0.029-0.88,0.094-0.946
			c0.065-0.064,0.159,0.235,0.169,0.673c0.01,0.438-0.081,0.86-0.165,0.944C41.263,33.596,41.24,33.297,41.25,32.84z M41.307,34.943
			c-0.084,0.404-0.283,0.839-0.422,0.977c-0.138,0.138-0.213,0.18-0.169,0.093c0.043-0.086,0.145-0.44,0.219-0.791
			c0.073-0.352,0.21-0.723,0.312-0.827C41.35,34.291,41.393,34.54,41.307,34.943z M41.187,30.868
			c-0.066,0.063-0.077,0.053-0.012-0.013C41.24,30.791,41.252,30.804,41.187,30.868z M40.16,28.372
			c0.114-0.115,0.244-0.15,0.29-0.08c0.047,0.069,0.271,0.535,0.455,1.056c0.048,0.136,0.094,0.272,0.136,0.407
			c0.165,0.526,0.202,1.018,0.137,1.081s-0.186-0.203-0.299-0.586c-0.065-0.224-0.142-0.451-0.23-0.688
			c-0.033-0.088-0.152-0.27-0.327-0.505C40.124,28.791,40.046,28.486,40.16,28.372z M38.104,25.976
			c0.167-0.171,0.625,0.003,0.983,0.423c0.129,0.151,0.255,0.307,0.378,0.464c0.339,0.437,0.483,0.915,0.357,1.044
			c-0.126,0.13-0.515-0.109-0.885-0.518c-0.137-0.149-0.271-0.292-0.401-0.426C38.151,26.566,37.937,26.147,38.104,25.976z
			 M31.186,9.751c0.072-0.067,0.342,0.095,0.575,0.383c0.234,0.288,0.337,0.598,0.258,0.672c-0.08,0.074-0.283-0.137-0.514-0.431
			C31.276,10.082,31.113,9.818,31.186,9.751z M27.774,7.374c-0.072,0.069-0.494-0.088-0.938-0.355
			c-0.443-0.268-0.495-0.382-0.123-0.243c0.213,0.08,0.438,0.164,0.673,0.255c0.087,0.034,0.175,0.069,0.262,0.106
			C27.79,7.197,27.846,7.304,27.774,7.374z M29.188,8.18c-0.088,0.089-0.399,0.007-0.7-0.177s-0.485-0.392-0.41-0.469
			c0.076-0.078,0.397-0.017,0.71,0.156C29.099,7.863,29.274,8.092,29.188,8.18z M29.506,8.389c0.087-0.087,0.419,0.018,0.726,0.257
			c0.306,0.239,0.524,0.463,0.509,0.477c-0.008,0.007-0.019,0.015-0.029,0.026c-0.034,0.033-0.073,0.069-0.113,0.107
			c-0.062,0.059-0.355-0.091-0.67-0.316C29.612,8.715,29.419,8.477,29.506,8.389z M14.712,6.205c-0.104-0.142-0.08-0.164,0.052-0.05
			c0.132,0.113,0.22,0.224,0.192,0.253C14.927,6.436,14.816,6.345,14.712,6.205z M17.218,8.236
			c-0.162,0.159-0.633-0.003-1.032-0.385c-0.067-0.064-0.133-0.128-0.199-0.193c-0.393-0.388-0.643-0.772-0.587-0.828
			c0.056-0.056,0.465,0.161,0.935,0.45c0.099,0.06,0.2,0.122,0.303,0.182C17.114,7.743,17.379,8.078,17.218,8.236z M21.27,12.297
			c-0.208-0.219-0.424-0.432-0.646-0.642c-0.402-0.378-0.556-0.854-0.325-1.083c0.231-0.228,0.195-0.574-0.082-0.772
			c-0.167-0.12-0.335-0.238-0.506-0.352c-0.03-0.02-0.059-0.042-0.088-0.065c-0.048-0.037-0.253,0.104-0.458,0.313
			c-0.204,0.21-0.545,0.237-0.76,0.062c-0.215-0.176-0.226-0.486-0.024-0.694c0.202-0.207,0.356-0.386,0.343-0.396
			c-0.013-0.011-0.187,0.148-0.388,0.357c-0.202,0.208-0.382,0.365-0.402,0.349c-0.02-0.017,0.13-0.197,0.337-0.402
			c0.207-0.205,0.339-0.403,0.296-0.442c-0.043-0.04,0.319,0.134,0.794,0.417c1.048,0.623,2.081,1.373,3.022,2.23
			c0.408,0.372,0.461,0.963,0.139,1.289C22.199,12.791,21.651,12.697,21.27,12.297z M13.562,16.626
			c-0.098-0.228,0.09-0.05,0.48,0.341c0.486,0.488,1.081,0.945,1.832,1.37c1.183,0.67,7.898,3.257,7.871-0.462
			c-0.001-0.208-0.013-0.41-0.031-0.607c-0.031-0.334,0.175-0.841,0.49-1.136c0.314-0.295,0.191-0.173,0.358-0.308
			c0.167-0.135,0.291-0.287,0.291-0.323c0-0.023,0-0.045-0.003-0.067c-0.006-0.06-0.025-0.178-0.051-0.309
			c-0.032-0.17-0.34-0.039-0.687,0.282c-0.348,0.321-0.713,0.247-0.866-0.149s-0.034-0.958,0.312-1.275s0.616-0.595,0.604-0.622
			c-0.013-0.026-0.294,0.229-0.63,0.57c-0.336,0.34-0.734,0.365-0.918,0.07s-0.082-0.797,0.25-1.136
			c0.331-0.339,0.904-0.286,1.247,0.148c1.179,1.493,2.021,3.198,2.256,5.045c0.015,0.118,0.271,0.115,0.335,0.119
			c2.368,0.129,3.668-2.366,4.814-4.097c0.182-0.275,0.322-0.54,0.426-0.795c0.188-0.462,0.364-1.005,0.54-1.169
			c0.175-0.163,0.506,0.113,0.642,0.648c0.22,0.869,0.24,1.795-0.014,2.761c-0.363,1.382-3.456,5.435-1.767,6.98
			c0.838,0.767,1.45,0.763,2.614,0.901c1.102,0.133,2.068,0.506,2.926,1.042c0.469,0.294,0.717,0.541,0.589,0.517
			c-0.127-0.025-0.402,0.138-0.614,0.352c-0.211,0.213-0.671,0.338-1.03,0.301c-0.359-0.038-0.503-0.249-0.322-0.438
			c0.182-0.188,0.276-0.33,0.208-0.327c-0.035,0.001-0.076,0.003-0.123,0.005c-0.062,0.003-0.139,0.011-0.223,0.022
			c-0.122,0.017-0.317,0.144-0.438,0.271c-0.119,0.128-0.536,0.203-0.921,0.269c-0.385,0.064-0.715,0.19-0.768,0.186
			c-0.027-0.003-0.059-0.004-0.097-0.004c-0.104,0-0.311,0.055-0.538,0.135c-0.29,0.103-0.634,0.239-0.778,0.28
			s-0.374,0.036-0.52,0.02c-0.1-0.013-0.193-0.013-0.268-0.004c-0.223,0.026-0.477,0.098-0.685,0.216
			c-0.348,0.196-0.48,0.589-0.554,0.633c-0.072,0.044-0.202,0.143-0.294,0.217c-0.092,0.075-0.357,0.178-0.572,0.279
			c-0.217,0.101-0.433,0.332-0.562,0.426c-0.091,0.065-0.16,0.135-0.197,0.211c-0.021,0.046-0.048,0.092-0.076,0.139
			c-0.047,0.075-0.231,0.188-0.365,0.311c-0.135,0.122-0.384,0.396-0.53,0.63c-0.146,0.233-0.251,0.546-0.383,0.66
			c-0.133,0.112-0.225,0.244-0.229,0.267c-0.004,0.023,0.002,0.062,0.01,0.09c0.007,0.028-0.169,0.184-0.306,0.415
			c-0.137,0.232-0.227,0.469-0.262,0.503c-0.021,0.021-0.041,0.044-0.055,0.069c-0.027,0.049-0.039,0.097-0.04,0.142
			c-0.002,0.082,0.004,0.229-0.027,0.333c-0.032,0.104-0.128,0.238-0.175,0.327c-0.046,0.089-0.021,0.24-0.059,0.321
			c-0.022,0.05-0.048,0.097-0.074,0.142c-0.015,0.026-0.019,0.051-0.015,0.072c0.01,0.041,0.026,0.079,0.005,0.104
			c-0.011,0.013-0.021,0.025-0.035,0.043c-0.025,0.029-0.029,0.056-0.021,0.077c0.016,0.045,0.051,0.073,0.047,0.094
			c-0.003,0.012-0.004,0.022-0.003,0.036c0.022,0.175,0.022,0.354,0.007,0.534c-0.022,0.294-0.186,0.601-0.236,0.743
			c-0.028,0.076-0.029,0.164,0.009,0.269c0.005,0.014,0.017,0.022,0.029,0.03c0.02,0.013-0.023,0.311-0.038,0.669
			c-0.01,0.219,0.003,0.435,0.053,0.646c0.007,0.028,0.021,0.052,0.043,0.072c0.034,0.031,0.102,0.241,0.133,0.487
			c0.03,0.246-0.189,0.647-0.464,0.912c-0.274,0.266-0.581,0.234-0.672-0.083c-0.091-0.316,0.055-0.787,0.311-1.044
			c0.255-0.258,0.454-0.493,0.445-0.523c-0.009-0.032-0.22,0.156-0.472,0.422c-0.252,0.265-0.544,0.097-0.65-0.378
			c-0.104-0.475,0.049-1.124,0.356-1.453c0.307-0.329,0.529-0.663,0.504-0.748c-0.017-0.051-0.028-0.104-0.036-0.157
			c-0.027-0.173-0.061-0.31-0.117-0.475c-0.104-0.319-0.215-0.612-0.402-0.889c-0.009-0.014-0.02-0.025-0.029-0.037
			c-0.018-0.021-0.281,0.215-0.591,0.527c-0.311,0.312-0.77,0.165-1.134-0.251c-0.239-0.273-0.523-0.532-0.865-0.771
			c-0.131-0.092-0.265-0.175-0.402-0.251c-0.229-0.127-0.231-0.403,0.007-0.642c0.238-0.237,0.266-0.504,0.057-0.574
			c-0.21-0.068-0.587,0.079-0.837,0.309c-0.249,0.228-0.884,0.29-1.432,0.217c-1.075-0.145-2.228-0.092-3.391-0.002
			c-0.551,0.043-0.951,0.037-0.893-0.021c0.057-0.059,0.044-0.062-0.024-0.002c-0.068,0.06-0.568,0.151-1.119,0.189
			c-0.058,0.004-0.115,0.008-0.172,0.011c-0.551,0.036-0.899-0.047-0.775-0.161c0.123-0.112-0.109-0.243-0.505-0.352
			c-0.396-0.107-0.874-0.076-1.083,0.118c-0.208,0.193-0.824,0.301-1.353,0.142c-0.605-0.183-1.163-0.464-1.656-0.884
			c-0.421-0.358-0.473-0.945-0.215-1.211c0.258-0.266,0.434-0.522,0.391-0.573c-0.026-0.03-0.051-0.061-0.074-0.096
			c-0.075-0.116-0.14-0.238-0.198-0.364c-0.097-0.208-0.38-0.164-0.652,0.106c-0.271,0.27-0.617,0.231-0.743-0.1
			c-0.073-0.191-0.141-0.394-0.203-0.606c-0.035-0.119-0.06-0.239-0.084-0.361c-0.039-0.201,0.007-0.442,0.103-0.537
			c0.058-0.058,0.116-0.115,0.174-0.173c0.094-0.104,0.189-0.207,0.284-0.311c0.157-0.173,0.381,0.053,0.642,0.423
			c0.163,0.229,0.362,0.415,0.607,0.539c3.308,1.666,7.953,0.729,11.263-0.609c0.126-0.051,0.428-0.186,0.415-0.366
			c-0.015-0.194-0.062-0.361-0.133-0.507c-0.129-0.262-0.121-0.602,0.128-0.833c0.249-0.229,0.378-0.46,0.289-0.515
			c-0.055-0.033-0.109-0.067-0.161-0.1c-0.136-0.084-0.271-0.168-0.405-0.253c-0.223-0.141-0.61-0.064-0.864,0.172
			s-0.565,0.375-0.691,0.307c-0.076-0.042-0.151-0.086-0.225-0.133c-0.127-0.08-0.248-0.166-0.37-0.253
			c-0.201-0.145-0.15-0.461,0.112-0.705c0.263-0.245,0.404-0.498,0.316-0.561c-0.088-0.064-0.364,0.089-0.618,0.343
			s-0.823,0.195-1.246-0.161c-0.114-0.096-0.227-0.194-0.339-0.293c-0.413-0.367-0.524-0.896-0.276-1.152
			c0.249-0.256,0.313-0.59,0.153-0.756c-0.16-0.167-0.485-0.105-0.737,0.146s-0.75,0.131-1.087-0.289
			c-0.202-0.253-0.397-0.513-0.581-0.782c-0.084-0.124-0.164-0.249-0.238-0.376c-0.126-0.212,0.015-0.621,0.301-0.903
			C13.517,17.263,13.66,16.854,13.562,16.626z M12.879,15.43c0.146,0.253,0.061,0.673-0.207,0.95
			c-0.269,0.277-0.576,0.256-0.67-0.052c-0.095-0.308,0.014-0.74,0.232-0.962C12.452,15.145,12.734,15.177,12.879,15.43z
			 M12.158,15.16c0.209-0.214,0.396-0.352,0.417-0.308c0.021,0.043-0.138,0.259-0.354,0.482c-0.216,0.223-0.402,0.36-0.417,0.308
			C11.79,15.589,11.949,15.374,12.158,15.16z M10.998,11.257c0.094-0.095,0.324,0.248,0.504,0.771
			c0.048,0.141,0.096,0.279,0.143,0.417c0.178,0.522,0.203,1.068,0.048,1.22c-0.155,0.152-0.37-0.163-0.488-0.702
			c-0.041-0.189-0.083-0.378-0.127-0.565C10.952,11.86,10.904,11.353,10.998,11.257z M9.876,8.698
			c0.089-0.091,0.306,0.092,0.465,0.419c0.091,0.187,0.183,0.385,0.276,0.597c0.055,0.125,0.108,0.248,0.159,0.371
			c0.086,0.205,0.082,0.443-0.002,0.53c-0.085,0.086-0.293-0.271-0.524-0.772c-0.017-0.036-0.033-0.071-0.05-0.106
			C9.962,9.238,9.786,8.79,9.876,8.698z M8.187,7.021c0.126-0.123,0.518-0.085,0.815,0.167s0.404,0.591,0.3,0.692
			C9.199,7.981,8.901,7.821,8.576,7.597C8.253,7.374,8.061,7.145,8.187,7.021z M5.807,6.345c0.113,0,0.222,0.001,0.329,0.003
			C6.688,6.361,7.05,6.504,6.948,6.605S6.572,6.729,6.335,6.663c-0.146-0.042-0.29-0.082-0.428-0.121
			C5.725,6.5,5.543,6.466,5.359,6.438C5.056,6.393,5.254,6.346,5.807,6.345z"/>
		<path d="M37.91,36.132c1.109-1.462,1.229-3.527,0.257-4.996c-0.305-0.461-0.688-0.815-0.757-0.872
			c-0.037-0.03-0.081-0.059-0.134-0.086c-0.062-0.039-0.132-0.068-0.208-0.087c-0.122-0.029-0.679-0.114-1.196,0.053
			c-0.302,0.098-0.593,0.256-0.876,0.449c-0.604,0.412-1.076,0.918-1.749,1.239c-0.544,0.26-1.068,0.541-1.555,0.896
			c-1.852,1.353-0.491,3.68,0.922,4.704C34.317,38.666,36.793,37.605,37.91,36.132z M33.598,35.959
			c-0.128-0.122,0.093-0.552,0.479-0.946c0.207-0.212,0.415-0.423,0.622-0.635c0.386-0.395,0.694-0.775,0.688-0.851
			c-0.004-0.074-0.336,0.165-0.745,0.536c-0.256,0.231-0.51,0.461-0.763,0.69c-0.409,0.371-1.033,0.289-1.063-0.263
			c-0.031-0.545,0.229-1.07,0.893-1.419c0.434-0.227,0.918-0.395,1.314-0.688c0.225-0.158,0.441-0.327,0.651-0.505
			c0.069-0.057,0.151-0.106,0.229-0.153c0.131-0.077,0.534,0.201,0.705,0.727c0.67,2.062-0.665,5.23-2.765,3.711
			C33.756,36.1,33.675,36.03,33.598,35.959z"/>
		<path d="M24.419,18.115c0.287-0.268,0.146-0.393-0.129-0.139C24.016,18.23,24.132,18.384,24.419,18.115z"/>
		<path d="M17.226,30.084c0.042-0.04,0.041-0.041-0.001-0.001C17.183,30.122,17.184,30.123,17.226,30.084z"/>
		<path d="M10.11,29.307c0.091-0.084,0.087-0.09-0.003-0.005C10.016,29.388,10.019,29.392,10.11,29.307z"/>
		<path d="M38.298,41.66c-0.037,0.018-0.093,0.059-0.125,0.09s-0.002,0.017,0.068-0.032C38.311,41.669,38.335,41.641,38.298,41.66z"
			/>
		<path d="M35.875,24.747c-0.046,0.018,0.003,0.046,0.034,0.021C35.94,24.744,35.92,24.728,35.875,24.747z"/>
	</g>
</g>
<g>
</g>
<g>
</g>
<g>
</g>
<g>
</g>
<g>
</g>
<g>
</g>
<g>
</g>
<g>
</g>
<g>
</g>
<g>
</g>
<g>
</g>
<g>
</g>
<g>
</g>
<g>
</g>
<g>
</g>
</svg>
