<?xml version="1.0" encoding="iso-8859-1"?>
<!-- Generator: Adobe Illustrator 16.0.0, SVG Export Plug-In . SVG Version: 6.00 Build 0)  -->
<!DOCTYPE svg PUBLIC "-//W3C//DTD SVG 1.1//EN" "http://www.w3.org/Graphics/SVG/1.1/DTD/svg11.dtd">
<svg version="1.1" id="Capa_1" xmlns="http://www.w3.org/2000/svg" xmlns:xlink="http://www.w3.org/1999/xlink" x="0px" y="0px"
	 width="43.168px" height="43.167px" viewBox="0 0 43.168 43.167" style="enable-background:new 0 0 43.168 43.167;"
	 xml:space="preserve">
<g>
	<g>
		<path d="M32.909,13.376c-6.387-1.303-6.055-8.625-10.745-11.837c-0.429-0.293-1.29-0.004-1.658,0.273
			c-2.82,2.121-4.181,6.425-5.85,9.471c-1.768,3.227-9.711,3.317-12.918,3.979c-0.063,0.013-0.125,0.032-0.188,0.054
			c-0.102,0.037-0.265,0.089-0.367,0.117c-0.069,0.019-0.131,0.041-0.18,0.065c-3.764,1.894,4.158,7.841,5.771,9.567
			c3.089,3.31,0.901,11.102,0.598,15.148c-0.292,3.902,10.246-1.878,11.142-2.264c5.16-2.213,9.707,3.068,14.693,3.773
			c4.035,0.57,1.84-7.833,1.692-9.53c-0.25-2.888-0.753-5.392,1.456-7.735c2.083-2.21,4.167-4.42,6.25-6.631
			C45.764,14.479,34.666,13.734,32.909,13.376z M2.384,16.275c-0.061,0.061-0.124,0.108-0.183,0.141
			c0.018-0.017,0.027-0.025,0.046-0.044C2.562,16.072,2.627,16.033,2.384,16.275z M2.464,16.124
			c-0.097,0.094-0.195,0.189-0.294,0.285c-0.013,0.013-0.016,0.017-0.028,0.029c-0.149,0.061-0.269,0.035-0.263-0.105
			c0.008-0.212,0.304-0.383,0.509-0.423C2.592,15.868,2.627,15.965,2.464,16.124z M18.168,8.418
			c0.745-1.649,1.396-3.399,2.333-4.793c0.308-0.458,0.941-0.499,1.308-0.086c0.088,0.1,0.174,0.201,0.259,0.304
			c0.35,0.428,0.268,1.104-0.139,1.479c-0.607,0.559-1.204,1.108-1.783,1.641c-0.558,0.547-1.124,1.104-1.69,1.66
			C18.062,9.009,17.941,8.921,18.168,8.418z M36.864,22.129c-1.646,1.746-3.313,3.175-4.112,5.475
			c-0.401,1.153-0.09,8.122,0.387,11.399c0.08,0.546,0.082,1.073-0.034,1.186c-0.115,0.112-0.617,0.018-1.115-0.222
			c-0.086-0.041-0.172-0.082-0.259-0.124c-0.498-0.24-0.65-0.691-0.342-1.003c0.308-0.312,0.468-0.604,0.357-0.651
			c-0.109-0.047-0.443,0.165-0.746,0.474c-0.302,0.31-0.947,0.362-1.445,0.123c-0.209-0.1-0.418-0.199-0.627-0.298
			c-0.5-0.234-0.68-0.652-0.399-0.942s0.291-0.618,0.024-0.733l-0.483-0.208c-0.089-0.038-0.183-0.072-0.282-0.102
			c-0.158-0.05-0.515,0.146-0.791,0.426c-0.277,0.279-0.742,0.412-1.041,0.304c-0.299-0.107-0.375-0.358-0.166-0.571
			c0.209-0.212,0.362-0.383,0.34-0.382c-0.021,0.001-0.199,0.169-0.397,0.376c-0.197,0.207-0.783,0.232-1.315,0.089
			c-1.048-0.279-2.103-0.45-3.16-0.451c-2.269-0.002-4.858,1.194-7.28,2.44c-0.491,0.253-0.877,0.313-0.863,0.13
			c0.014-0.183-0.305-0.028-0.712,0.345c-0.043,0.038-0.085,0.077-0.126,0.115c-0.407,0.373-1.123,0.875-1.606,1.108
			c-0.302,0.146-0.597,0.281-0.882,0.403c-0.259,0.11-0.31-1.064-0.288-2.396c0.009-0.552,0.342-1.318,0.729-1.711
			c0.86-0.874,1.723-1.749,2.592-2.63c0.388-0.394,0.709-0.804,0.718-0.917c0.008-0.113-0.312,0.1-0.717,0.475
			c-0.841,0.78-1.684,1.561-2.526,2.339c-0.406,0.375-0.716,0.286-0.687-0.198c0.03-0.511,0.055-0.854,0.057-0.877
			c0.003-0.048,0.007-0.096,0.011-0.143c0.006-0.079,0.341-0.443,0.75-0.815c0.848-0.774,1.695-1.55,2.542-2.325
			c0.407-0.373,0.768-1.083,0.806-1.585c0.038-0.501-0.259-0.604-0.664-0.228c-0.854,0.796-1.708,1.594-2.562,2.391
			c-0.404,0.377-0.698,0.234-0.657-0.315c0.091-1.219,0.183-2.438,0.274-3.657c0.007-0.097,0.005-0.19,0-0.283
			c-0.009-0.156,0.291-0.605,0.675-1.003c0.451-0.466,0.902-0.932,1.353-1.394c0.385-0.396,0.658-0.768,0.608-0.831
			c-0.031-0.039-0.063-0.077-0.095-0.112c0,0-0.104-0.111-0.233-0.25c-0.129-0.138-0.55,0.065-0.942,0.455
			c-0.31,0.309-0.617,0.614-0.923,0.918c-0.392,0.39-0.852,0.312-1.112-0.131c-0.26-0.442-0.448-0.842-0.359-0.931
			c0.054-0.054,0.108-0.107,0.162-0.161c0.117-0.128,0.234-0.257,0.351-0.385c0.194-0.212,0.112-0.154-0.184,0.132
			s-0.672,0.343-0.847,0.134c-0.175-0.208-0.005-0.686,0.388-1.074c0.195-0.191,0.39-0.384,0.586-0.576
			c0.393-0.389,0.553-0.872,0.357-1.082c-0.196-0.21-0.667-0.06-1.051,0.338c-0.192,0.197-0.383,0.395-0.574,0.593
			c-0.384,0.396-0.891,0.518-1.131,0.27c-0.24-0.247-0.12-0.771,0.265-1.168c0.197-0.203,0.394-0.405,0.589-0.606
			c0.385-0.396,0.457-0.973,0.162-1.289s-0.853-0.258-1.246,0.129c-0.215,0.212-0.431,0.425-0.646,0.638
			c-0.393,0.388-1.03,0.387-1.414-0.01c-0.072-0.075-0.146-0.152-0.22-0.229c-0.381-0.399-0.353-1.037,0.05-1.414
			c0.228-0.213,0.456-0.426,0.683-0.639C5.82,17.9,6.078,17.52,5.996,17.43c-0.083-0.088-0.463,0.158-0.852,0.55
			c-0.219,0.221-0.438,0.442-0.656,0.663c-0.389,0.392-0.996,0.387-1.333-0.031c-0.338-0.417-0.274-1.095,0.112-1.49
			c0.31-0.317,0.62-0.634,0.929-0.951c0.386-0.395,1.14-0.79,1.684-0.886c0.46-0.081,0.92-0.163,1.38-0.248
			c0.543-0.101,1.195-0.229,1.457-0.283c0.237-0.048,0.474-0.097,0.474-0.097c1.168-0.251,2.318-0.545,3.435-0.907
			c0.525-0.17,0.852-0.233,0.735-0.118s0.227,0.118,0.768,0.006l0.51-0.105c0.541-0.112,1.293-0.522,1.68-0.916
			c2.843-2.896,4.939-5.002,5.826-5.841c2.422-2.436-2.105,2.227-5.551,5.78c-0.384,0.396-0.679,0.714-0.658,0.709
			c0.021-0.004,0.205-0.179,0.412-0.39c0.12-0.122,0.244-0.248,0.376-0.383c1.956-2.011,3.722-3.826,5.339-5.489
			c0.385-0.396,0.796-0.897,0.918-1.12s0.451-0.018,0.716,0.466c1.388,2.542,2.513,5.37,4.877,7.033
			c2.908,2.046,8.667,2.008,12.093,2.707C42.725,16.511,37.141,21.837,36.864,22.129z"/>
		<path d="M20.254,10.297c-0.597,0.614-1.195,1.228-1.792,1.842c-0.385,0.396-0.27,0.571,0.199,0.279
			c0.676-0.421,1.291-1.012,1.615-1.605c0,0,0.151-0.276,0.338-0.616C20.8,9.857,20.639,9.902,20.254,10.297z"/>
		<path d="M13.216,27.882c0.367-0.342,0.661-0.638,0.658-0.66c-0.002-0.023-0.3,0.254-0.664,0.619
			C12.847,28.207,12.851,28.224,13.216,27.882z"/>
	</g>
</g>
<g>
</g>
<g>
</g>
<g>
</g>
<g>
</g>
<g>
</g>
<g>
</g>
<g>
</g>
<g>
</g>
<g>
</g>
<g>
</g>
<g>
</g>
<g>
</g>
<g>
</g>
<g>
</g>
<g>
</g>
</svg>
