<?xml version="1.0" encoding="iso-8859-1"?>
<!-- Generator: Adobe Illustrator 16.0.0, SVG Export Plug-In . SVG Version: 6.00 Build 0)  -->
<!DOCTYPE svg PUBLIC "-//W3C//DTD SVG 1.1//EN" "http://www.w3.org/Graphics/SVG/1.1/DTD/svg11.dtd">
<svg version="1.1" id="Capa_1" xmlns="http://www.w3.org/2000/svg" xmlns:xlink="http://www.w3.org/1999/xlink" x="0px" y="0px"
	 width="22.195px" height="22.195px" viewBox="0 0 22.195 22.195" style="enable-background:new 0 0 22.195 22.195;"
	 xml:space="preserve">
<g>
	<g>
		<path d="M19.341,8.168c-1.711-0.345-5.002-0.502-6.652,0.761c-0.438,0.336-0.775,0.819-0.835,0.963
			c-0.036,0.087-0.038,0.18,0.006,0.274c0.558,1.202,1.547,1.515,2.874,1.515c2.123,0,2.405,5.521,0.475,5.521
			c-3.638,0-7.273,0-10.911,0c-2.398,0-5.396,1.961-2.773,4.232c1.602,1.389,6.622,0.448,8.445,0.448
			c2.841,0,5.851,0.294,8.68-0.006c3.674-0.391,3.085-3.831,3.085-6.597C21.734,12.72,22.657,8.837,19.341,8.168z M14.227,9.642
			c-0.144,0.133-0.276,0.218-0.3,0.189c-0.021-0.028,0.066-0.179,0.234-0.283S14.371,9.508,14.227,9.642z M16.23,10.572
			c-0.547-0.073-0.707-0.376-0.354-0.705c0.354-0.329,0.926-0.576,1.275-0.551c0.253,0.018,0.475,0.033,0.637,0.033
			c1.902,0,2.047,1.555,2.024,2.936c-0.009,0.552-0.347,1.308-0.752,1.682c-0.001,0.001-0.002,0.001-0.003,0.002
			c-0.406,0.374-0.736,0.606-0.732,0.523c0.004-0.05,0.006-0.1,0.006-0.151c0-0.668,0.01-1.218-0.097-1.75
			c-0.108-0.542-0.323-0.95-0.308-0.965s0.016-0.026,0.001-0.026s-0.087-0.07-0.149-0.164c-0.037-0.056-0.072-0.113-0.111-0.171
			C17.354,10.798,16.815,10.65,16.23,10.572z M4.044,19.101c-0.066,0.062-0.134,0.125-0.201,0.188
			c-0.404,0.377-0.977,0.312-1.011-0.202c-0.025-0.375,0.105-0.668,0.468-0.668c0.368,0,0.735,0,1.103,0c0.062,0,0.124,0,0.187,0
			C4.693,18.419,4.449,18.724,4.044,19.101z M18.927,20.669c-4.588,0-9.173,0-13.759,0c-0.553,0-0.919-0.075-0.818-0.167
			s0.171-0.226,0.161-0.299c-0.006-0.044-0.01-0.09-0.01-0.135c0-0.458,0.207-0.873,0.544-1.181
			c0.409-0.372,1.323-0.469,1.875-0.469c0.704,0,1.409,0,2.113,0c2.034,0,4.185,0.209,6.212-0.006
			c1.652-0.176,2.476-0.963,2.836-2.135c0.164-0.527,0.508-1.3,0.896-1.693c0.045-0.046,0.09-0.092,0.136-0.139
			c0.387-0.395,0.727-0.269,0.756,0.282C19.978,16.904,20.064,20.669,18.927,20.669z"/>
		<path d="M3.066,13.818c1.88,0,4.947,0.502,6.555-0.846c0.423-0.354,0.691-0.817,0.731-0.898c0.025-0.054,0.031-0.106,0.007-0.157
			c-0.572-1.189-1.591-1.386-2.837-1.386c-2.461,0-2.045-5.848-0.821-5.848c3.585,0,7.171,0,10.755,0c2.233,0,6.051-1.566,3.188-4
			c-1.523-1.295-6.682-0.352-8.39-0.352c-2.708,0-5.972-0.517-8.639,0.021C0.238,1.035,0.496,3.296,0.496,6.215
			C0.495,8.519-0.595,13.818,3.066,13.818z M7.678,11.692c0.505,0.224,0.414,1.054-0.124,1.177
			c-0.989,0.226-2.486-0.003-3.085-0.003c-0.195,0-0.37-0.019-0.527-0.05c-0.288-0.058-0.257-0.399,0.046-0.683
			c0.303-0.283,0.549-0.584,0.549-0.673s-0.281,0.122-0.629,0.469c-0.347,0.348-1.029,0.369-1.235-0.144
			c-0.093-0.231-0.15-0.486-0.187-0.757C2.412,10.482,2.74,9.71,3.125,9.314c0.024-0.025,0.048-0.05,0.071-0.075
			C3.581,8.843,3.883,8.976,4,9.516c0.092,0.42,0.256,0.835,0.544,1.263C5.217,11.777,6.684,11.253,7.678,11.692z M2.58,2.092
			c0.122-0.499,0.295-0.808,0.536-0.808c0.175,0,0.349,0,0.523,0c0.289,0,0.21,0.322-0.174,0.718
			C3.349,2.122,3.233,2.241,3.118,2.359C2.733,2.756,2.45,2.629,2.58,2.092z M3.035,4.183c0.319-0.315,0.639-0.63,0.958-0.945
			C4.386,2.85,4.836,2.206,5.136,1.909C5.437,1.612,5.814,1.441,5.87,1.386c0.057-0.056,0.55-0.102,1.103-0.102
			c0.701,0,1.402,0,2.104,0c0.552,0,0.989,0.011,0.976,0.024c-0.014,0.013,0.167,0.024,0.405,0.024s0.441-0.011,0.454-0.024
			c0.013-0.013,0.471-0.024,1.023-0.024c0.593,0,1.186,0,1.777,0c0.553,0,0.99,0.011,0.977,0.024
			c-0.016,0.013,0.186,0.024,0.445,0.024c0.262,0,0.484-0.011,0.498-0.024c0.016-0.013,0.476-0.024,1.027-0.024
			c0.004,0,0.008,0,0.012,0c0.553,0,0.988,0.011,0.975,0.024c-0.014,0.013,0.143,0.024,0.348,0.024s0.797,0.21,1.071,0.689
			c0.412,0.719,0.513,1.709-0.174,1.709c-0.365,0-0.731,0-1.097,0c-1.535,0-3.069,0-4.604,0c-1.94,0-4.263-0.365-6.176,0.021
			c-1.998,0.403-3.119,1.282-3.119,3.44c0,0.014,0,0.028-0.001,0.042c0,0.023-0.316,0.357-0.708,0.747
			C3.155,8.011,3.124,8.042,3.093,8.072c-0.392,0.39-0.729,0.259-0.745-0.293C2.329,7.197,2.316,6.545,2.314,5.884
			C2.312,5.333,2.641,4.569,3.035,4.183z"/>
	</g>
</g>
<g>
</g>
<g>
</g>
<g>
</g>
<g>
</g>
<g>
</g>
<g>
</g>
<g>
</g>
<g>
</g>
<g>
</g>
<g>
</g>
<g>
</g>
<g>
</g>
<g>
</g>
<g>
</g>
<g>
</g>
</svg>
