<?xml version="1.0" encoding="iso-8859-1"?>
<!-- Generator: Adobe Illustrator 16.0.0, SVG Export Plug-In . SVG Version: 6.00 Build 0)  -->
<!DOCTYPE svg PUBLIC "-//W3C//DTD SVG 1.1//EN" "http://www.w3.org/Graphics/SVG/1.1/DTD/svg11.dtd">
<svg version="1.1" id="Capa_1" xmlns="http://www.w3.org/2000/svg" xmlns:xlink="http://www.w3.org/1999/xlink" x="0px" y="0px"
	 width="50.01px" height="50.009px" viewBox="0 0 50.01 50.009" style="enable-background:new 0 0 50.01 50.009;"
	 xml:space="preserve">
<g>
	<g>
		<path d="M41.064,10.892c-0.068-0.006-0.143,0.001-0.216,0.013c-6.36,0.512-8.321,4.413-9.401,10.062
			c-1.646,8.607-10.228,4.212-15.5,2.448c-2.964-0.991-3.36-5.041-6.946-5.425c-2.698-0.289-4.74,0.343-6.819,2.059
			c-5.071,4.186-0.389,10.73,4.763,11.252c2.659,0.269,4.814-1.499,7.568-0.578c2.493,0.833,4.987,1.667,7.481,2.501
			c3.151,1.055,3.249,5.386,7.146,5.818c2.833,0.315,4.961-0.319,7.146-2.123c2.25-1.855,1.611-4.702,3.671-6.706
			c2.778-2.703,6.363-3.259,8.666-6.543C52.74,17.799,46.933,11.366,41.064,10.892z M36.169,16.929
			c0.561-1.294,1.613-2.339,3.219-2.749c0.533-0.137,1.435-0.145,1.972-0.013c0.647,0.16,1.231,0.43,1.745,0.782
			c0.456,0.312,0.394,0.386-0.115,0.173c-0.611-0.256-1.269-0.41-1.928-0.445c-1.893-0.102-3.654,0.857-4.703,2.337
			C36.038,17.464,35.95,17.436,36.169,16.929z M40.444,15.974c-0.014,0.012-0.018,0.013-0.044,0.037
			c-0.78,0.762-1.548,1.513-2.314,2.262c-0.394,0.387-0.722,0.242-0.563-0.287c0.312-1.061,1.132-1.923,2.571-2.157
			c0.11-0.018,0.219-0.027,0.322-0.031C40.499,15.794,40.498,15.865,40.444,15.974z M40.433,16.004
			c-0.072,0.127-0.213,0.3-0.409,0.489c-0.646,0.627-1.291,1.251-1.933,1.866c-0.398,0.382-0.403,0.376-0.011-0.012
			C39.286,17.159,40.207,16.245,40.433,16.004z M38.109,18.689c0.94-0.898,1.848-1.769,2.711-2.598
			c0.043-0.041,0.088-0.085,0.134-0.13c0.074-0.072,0.441-0.095,0.794,0.043c0.353,0.139,0.28,0.638-0.115,1.021
			c-1.061,1.028-2.121,2.056-3.183,3.079c-0.396,0.384-0.853,0.393-0.947-0.001C37.407,19.71,37.71,19.07,38.109,18.689z
			 M38.51,20.217c1.108-0.983,2.243-1.986,3.382-2.99c0.414-0.365,1.095-0.362,1.388,0.107c0.713,1.143,0.888,2.709,0.409,3.959
			c-0.198,0.516-0.549,0.809-0.628,0.735c-0.08-0.073-0.44,0.16-0.812,0.529c-0.373,0.369-0.808,0.704-0.975,0.73
			c-0.167,0.026-0.76,0.016-1.277-0.18c-0.714-0.269-1.303-0.758-1.741-1.36C37.932,21.299,38.097,20.583,38.51,20.217z
			 M33.939,17.669c0.092-0.422,0.271-0.844,0.383-0.946c0.11-0.104-0.03,0.2-0.228,0.717c-0.006,0.013-0.011,0.025-0.016,0.039
			C33.886,17.995,33.849,18.09,33.939,17.669z M33.454,20.273c0.072-0.374,0.105-0.439,0.113-0.143
			c0.007,0.296-0.026,0.599-0.107,0.677C33.379,20.885,33.382,20.647,33.454,20.273z M10.667,20.811
			c0.165-0.008,0.321,0.015,0.347,0.05c0.025,0.036-0.011,0.121-0.081,0.191c-0.071,0.069-0.212,0.03-0.334-0.067
			C10.479,20.887,10.501,20.818,10.667,20.811z M4.763,21.116c-0.001-0.02,0.022-0.036,0.053-0.038
			c0.03-0.002,0.03,0.014,0.002,0.036C4.788,21.136,4.764,21.137,4.763,21.116z M6.799,29.36c-0.193,0.198-0.65,0.298-1.007,0.168
			c-0.356-0.13-0.51-0.394-0.364-0.545s0.578-0.152,0.981-0.07C6.812,28.994,6.992,29.161,6.799,29.36z M31.576,37.416
			c-0.104,0.107-0.399,0.184-0.658,0.154c-0.259-0.028-0.165-0.093,0.198-0.169C31.48,37.324,31.682,37.31,31.576,37.416z
			 M28.689,35.811c-0.479-0.276-0.713-0.584-0.616-0.552c0.059,0.019,0.116,0.038,0.175,0.059c0.464,0.154,0.937,0.35,1.429,0.389
			c0.877,0.072,1.814-0.059,2.624-0.441c0.499-0.234,0.642-0.118,0.233,0.254C31.543,36.425,29.99,36.566,28.689,35.811z
			 M35.399,35.983c-0.39,0.506-0.882,0.887-1.44,1.151c-0.499,0.238-1.108,0.24-1.307,0.115c-0.196-0.125-0.035-0.373,0.321-0.591
			s0.814-0.336,1.07-0.244c0.257,0.093,0.783-0.185,1.166-0.579C35.594,35.442,35.736,35.544,35.399,35.983z M44.427,25.833
			c-1.666,0.982-3.613,1.698-4.982,3.031c-1.023,0.995-2.092,1.954-2.953,3.098c-0.072,0.096-0.129,0.489-0.166,0.885
			c-0.048,0.499-0.078,1.144-0.145,1.43s-0.222,0.521-0.312,0.532c-0.055,0.008-0.108,0.013-0.166,0.013
			c-0.137,0-0.273-0.013-0.411-0.033c-0.226-0.035-0.305-0.255-0.198-0.468c0.062-0.127,0.121-0.258,0.175-0.394
			c1.374-3.502-3.015-7.676-6.394-5.756c-0.256,0.146-0.467,0.398-0.294,0.679c0.536,0.871,2.307,0.879,3.109,1.537
			c1.439,1.182,0.985,3.488-0.533,3.996c-0.522,0.176-1.14-0.173-1.354-0.459c-0.216-0.286-0.552-0.359-0.718-0.191
			s-0.715,0.147-1.251,0.102c-0.312-0.027-0.632-0.01-0.967,0.08c-0.212,0.057-0.391,0.133-0.538,0.224
			c-0.274,0.17-0.597,0.156-0.851-0.129c-0.255-0.285-0.169-0.811,0.222-1.202c0.056-0.057,0.112-0.111,0.169-0.169
			c0.39-0.392,0.519-0.771,0.288-0.848c-0.23-0.077-0.737,0.153-1.131,0.515c-0.394,0.361-1.071,0.387-1.553,0.115
			c-0.588-0.329-1.21-0.593-1.862-0.828c-0.52-0.188-0.852-0.416-0.733-0.536c0.118-0.12,0.111-0.123-0.016-0.006
			c-0.128,0.117-0.567,0.105-0.984-0.022c-0.417-0.129-0.514-0.456-0.215-0.729s0.235-0.6-0.142-0.725
			c-0.377-0.126-0.924-0.005-1.221,0.271c-0.297,0.276-0.857,0.387-1.251,0.242c-0.393-0.143-0.562-0.396-0.38-0.568
			c0.184-0.171,0.311-0.306,0.287-0.303s-0.178,0.141-0.343,0.306c-0.165,0.164-0.719,0.144-1.245-0.022
			c-1.534-0.485-3.102-0.761-4.678-0.175c-0.26,0.097-0.515,0.175-0.766,0.241c-0.429,0.11-0.734,0.12-0.673,0.061
			c0.061-0.061,0.084-0.124,0.054-0.142c-0.03-0.019-0.124,0.037-0.212,0.125c-0.088,0.088-0.481,0.214-0.883,0.242
			c-0.401,0.028-0.505-0.208-0.231-0.479c0.274-0.271,0.481-0.504,0.462-0.523c-0.018-0.018,0.071-0.062,0.199-0.104
			c0.078-0.024,0.154-0.052,0.227-0.089c0.262-0.131,0.623-0.319,0.581-0.668c-0.086-0.702-1.427-0.896-1.955-1.072
			c-0.132-0.044-0.254-0.1-0.367-0.162C6.934,26.647,6.693,26.303,6.6,26.01c-0.094-0.293-0.214-0.469-0.3-0.385
			c-0.086,0.086-0.388-0.243-0.475-0.789c-0.017-0.111-0.029-0.225-0.035-0.338c-0.027-0.552,0.241-1.447,0.647-1.82
			c0.709-0.649,1.708-0.408,2.715-0.072c0.024,0.008,0.053,0.015,0.084,0.021c0.047,0.009,0.074,0.023,0.061,0.037
			c-0.014,0.014-0.174,0.347-0.264,0.771c-0.053,0.251-0.081,0.511-0.081,0.777c0,0.169,0.015,0.334,0.04,0.495
			c0.042,0.271,0.298,0.287,0.536,0.041c0.238-0.246,0.419-0.684,0.458-0.973c0.022-0.172,0.062-0.344,0.118-0.515
			c0.047-0.14,0.104-0.272,0.168-0.399c0.109-0.214,0.414-0.428,0.592-0.582c0.179-0.153,0.293-0.457,0.421-0.551
			c0.128-0.095,0.444,0.118,0.69,0.453c0.148,0.202,0.295,0.405,0.438,0.612c0.492,0.694,1.432,1.382,2.234,1.65
			c2.926,0.979,5.852,1.958,8.779,2.937c2.224,0.743,5.51-0.2,7.29-1.647c1.169-0.951,1.814-2.141,2.231-3.42
			c0.171-0.525,0.366-1.054,0.484-1.166c0.118-0.112,0.281,0.243,0.475,0.761c0.089,0.241,0.194,0.475,0.316,0.699
			c0.26,0.486,0.212,1.137-0.197,1.507c-0.725,0.654-1.44,1.302-2.141,1.936c-0.409,0.37-0.581,0.65-0.388,0.613
			c0.195-0.038,0.665-0.399,1.052-0.794c0.527-0.54,1.057-1.079,1.585-1.62c0.386-0.395,0.977-0.36,1.383,0.014
			c1.278,1.177,3.032,1.902,4.798,1.998c1.14,0.062,2.231-0.175,3.216-0.632c0.501-0.231,1.064-0.435,1.301-0.393
			C45.072,25.275,44.902,25.552,44.427,25.833z M45.461,21.919c-0.528,1.567-1.806,2.844-3.976,3.198
			c-1.829,0.299-3.271-0.345-4.262-1.451c-0.368-0.411-0.28-0.478,0.178-0.169c0.852,0.574,1.884,0.921,2.919,0.977
			c0.032,0.002,0.064,0.001,0.098-0.002c0.055-0.004,0.548-0.026,1.089-0.135c1.586-0.316,2.941-1.189,3.746-2.494
			C45.542,21.374,45.639,21.396,45.461,21.919z M45.945,14.97c-0.388-0.369-0.821-0.697-1.287-0.977
			c-0.475-0.283-0.856-0.483-0.817-0.518c0.038-0.035,0.02-0.044-0.038-0.017c-0.06,0.028-0.52-0.133-1.051-0.283
			c-0.551-0.156-1.117-0.253-1.688-0.284c-0.032-0.002-0.065,0-0.1,0.002c-0.055,0.005-0.547,0.028-1.092,0.119
			c-0.53,0.088-1.037,0.224-1.517,0.401c-0.519,0.192-0.587,0.099-0.183-0.277c0.098-0.091,0.193-0.181,0.291-0.271
			c0.403-0.377,0.994-0.734,1.322-0.78c0.327-0.046,1.044-0.036,1.587,0.067c2.011,0.381,3.591,1.358,4.677,2.734
			C46.394,15.321,46.345,15.352,45.945,14.97z M47.746,20.125c0.003-0.017,0.004-0.032,0.005-0.049
			c0.002-0.026,0.011,0.201,0.001,0.509c-0.009,0.308-0.108,0.639-0.205,0.736c-0.096,0.099-0.057-0.121,0.048-0.501
			C47.657,20.591,47.708,20.36,47.746,20.125z"/>
		<path d="M36.007,28.038c-0.207-0.036-0.421-0.057-0.639-0.057c-0.099,0-0.196,0.004-0.293,0.013
			c-0.162,0.014-0.322,0.052-0.356,0.078c-0.034,0.024,0.063,0.217,0.291,0.326c0.114,0.055,0.257,0.111,0.422,0.168
			c0.113,0.039,0.222,0.073,0.322,0.107c0.18,0.061,0.447-0.024,0.601-0.188C36.507,28.322,36.356,28.098,36.007,28.038z"/>
		<path d="M37.795,29.2c-0.139,0.146-0.194,0.31-0.131,0.365c0.065,0.056,0.232-0.016,0.376-0.16
			c0.145-0.146,0.206-0.312,0.137-0.369S37.936,29.052,37.795,29.2z"/>
		<path d="M10.007,26.048c-0.192,0.198-0.229,0.532-0.054,0.721c0.177,0.19,0.485,0.18,0.668-0.001
			c0.183-0.18,0.166-0.468,0.002-0.678S10.2,25.85,10.007,26.048z"/>
		<path d="M11.157,27.664c0.023,0.014,0.197-0.129,0.387-0.318c0.189-0.188,0.325-0.349,0.304-0.358
			c-0.021-0.011-0.195,0.133-0.388,0.317C11.267,27.49,11.132,27.651,11.157,27.664z"/>
		<path d="M13.624,27.915c0.065-0.055-0.017-0.099-0.064-0.046C13.512,27.922,13.559,27.969,13.624,27.915z"/>
		<path d="M23.161,30.876C23.2,30.84,23.198,30.839,23.161,30.876C23.122,30.912,23.124,30.912,23.161,30.876z"/>
	</g>
</g>
<g>
</g>
<g>
</g>
<g>
</g>
<g>
</g>
<g>
</g>
<g>
</g>
<g>
</g>
<g>
</g>
<g>
</g>
<g>
</g>
<g>
</g>
<g>
</g>
<g>
</g>
<g>
</g>
<g>
</g>
</svg>
