<?xml version="1.0" encoding="iso-8859-1"?>
<!-- Generator: Adobe Illustrator 16.0.0, SVG Export Plug-In . SVG Version: 6.00 Build 0)  -->
<!DOCTYPE svg PUBLIC "-//W3C//DTD SVG 1.1//EN" "http://www.w3.org/Graphics/SVG/1.1/DTD/svg11.dtd">
<svg version="1.1" id="Capa_1" xmlns="http://www.w3.org/2000/svg" xmlns:xlink="http://www.w3.org/1999/xlink" x="0px" y="0px"
	 width="49.637px" height="49.636px" viewBox="0 0 49.637 49.636" style="enable-background:new 0 0 49.637 49.636;"
	 xml:space="preserve">
<g>
	<g>
		<path d="M14.191,41.677c6.736-2.408,8.365-8.223,8.365-14.763c0-2.852,0-5.703,0-8.555c-0.135-1.619,0.652-2.61,2.362-2.973
			c0.541-0.115,1.369,0.134,1.646,0.611c0.527,0.914,0.644,2.201,0.644,3.126c0,1.66,0.456,2.387,1.819,3.415
			c1.337,1.01,3.697,0.656,5.062-0.095c3.054-1.683,2.138-5.618,1.357-8.342C33.4,6.956,25.443,5.077,19.47,8.139
			c-6.231,3.195-5.847,10.548-5.847,16.468c0,1.46,0,2.919,0,4.378c0,0.458,0,0.915,0,1.373c0,3.044-3.192,4.345-4.481,0.991
			c-0.947-2.465,1.069-5.357-2.357-6.284c-1.461-0.396-3.727-0.187-5.15,0.378c-2.036,0.807-1.595,3.302-1.595,5.02
			C0.436,37.55,6.602,44.39,14.191,41.677z M16.626,13.121c1.049-2.621,2.88-4.191,4.98-4.856c0.526-0.167,0.641,0.062,0.234,0.437
			c-0.467,0.43-0.926,0.853-1.373,1.265c-1.139,1.118-2.295,2.254-3.458,3.397C16.615,13.75,16.421,13.634,16.626,13.121z
			 M16.48,15.784c2.922-2.978,5.08-5.148,5.982-6.002c2.537-2.552-2.545,2.681-6.024,6.27c-0.385,0.396-0.689,0.657-0.678,0.582
			C15.77,16.558,16.093,16.177,16.48,15.784z M2.367,27.127c0.178-0.342,0.435-0.601,0.8-0.784c0.493-0.249,0.637,0.03,0.244,0.419
			c-0.207,0.205-0.415,0.411-0.623,0.615C2.395,27.767,2.111,27.618,2.367,27.127z M3.276,35.305
			c-0.02-0.042-0.038-0.085-0.057-0.127C3,34.67,3.171,33.931,3.563,33.541c0.412-0.409,0.824-0.819,1.237-1.23
			c0.392-0.391,0.708-0.741,0.706-0.784c-0.001-0.045-0.318,0.238-0.708,0.63c-0.425,0.427-0.85,0.854-1.274,1.281
			c-0.389,0.392-0.788,0.476-0.878,0.183c-0.091-0.293,0.151-0.838,0.526-1.214c0.228-0.227,0.455-0.453,0.682-0.679
			c0.302-0.297,0.602-0.594,0.904-0.893c0.393-0.388,0.711-0.981,0.711-1.328c0-0.348-0.31-0.308-0.695,0.09
			c-0.601,0.621-1.202,1.239-1.804,1.859c-0.385,0.397-0.77,0.376-0.837-0.049c-0.066-0.426,0.211-1.096,0.595-1.493
			c0.922-0.953,1.836-1.896,2.736-2.826c0.385-0.396,1.005-0.381,1.214,0.131c0.73,1.788,0.664,4.988,1.007,5.883
			c0.955,2.486,3.25,2.428,5.096,1.448c0.487-0.26,0.876-0.492,0.912-0.439c0.037,0.054,0.4-0.209,0.808-0.582
			c1.273-1.167,2.547-2.333,3.817-3.503c0.406-0.374,0.735-1.068,0.735-1.55c0-0.482-0.328-0.567-0.732-0.192
			c-0.647,0.601-1.292,1.199-1.938,1.799c-0.404,0.375-0.641,0.241-0.579-0.308c0.003-0.026,0.006-0.053,0.009-0.08
			c0.059-0.549,0.398-1.304,0.803-1.681c0.567-0.53,1.136-1.062,1.707-1.595c0.403-0.377,0.73-0.775,0.73-0.893
			c0-0.118-0.316,0.104-0.706,0.494c-0.546,0.545-1.129,1.13-1.751,1.753c-0.391,0.391-0.693,0.26-0.699-0.292
			c-0.006-0.433-0.02-0.867-0.041-1.3c-0.027-0.553,0.253-1.319,0.637-1.716c0.623-0.643,1.246-1.284,1.864-1.921
			c0.385-0.396,0.696-0.976,0.696-1.294c0-0.319-0.082-0.501-0.183-0.404c-0.059,0.057-0.118,0.113-0.183,0.175
			c-0.769,0.767-1.523,1.517-2.269,2.259c-0.392,0.39-0.745,0.259-0.784-0.292c-0.046-0.646-0.079-1.23-0.079-1.716
			c0-0.184,0-0.365,0.001-0.546c0.001-0.302,0.322-0.86,0.715-1.248c0.773-0.763,1.547-1.526,2.319-2.288
			c0.394-0.389,0.796-1.142,0.947-1.674c0.092-0.323,0.195-0.639,0.312-0.948c0.193-0.518,0.077-0.602-0.309-0.205
			c-1.081,1.113-2.161,2.227-3.241,3.34c-0.384,0.397-0.68,0.361-0.646-0.078c0.034-0.439,0.37-1.092,0.731-1.46
			c0.203-0.207,0.42-0.429,0.655-0.668c2.523-2.595,4.718-4.852,6.694-6.882c0.386-0.396,0.983-0.708,1.335-0.669
			c0.351,0.039,0.558,0.169,0.466,0.264c-0.092,0.095-0.014,0.1,0.181,0.027c0.194-0.074,0.793-0.038,1.317,0.136
			c2.393,0.79,4.604,2.519,5.966,4.999c0.904,1.647,1.105,3.567,1.208,5.401c0.118,2.128-0.889,3.018-2.047,3.062
			c-0.552,0.021-0.658-0.46-0.259-0.841c0.004-0.003,0.007-0.006,0.011-0.009c0.4-0.381,0.724-0.75,0.724-0.824
			c0-0.075-0.318,0.177-0.714,0.562c-0.064,0.065-0.131,0.128-0.195,0.191c-0.395,0.387-0.397,0.385-0.004-0.003
			c0.065-0.065,0.133-0.132,0.199-0.197c0.395-0.388,0.714-0.722,0.714-0.746c0-0.024-0.319,0.269-0.715,0.654
			c-0.089,0.088-0.178,0.175-0.268,0.262c-0.396,0.386-1.141,0.53-1.559,0.169c-0.112-0.098-0.22-0.204-0.318-0.317
			c-0.363-0.415-0.198-1.149,0.206-1.525c0.525-0.489,1.053-0.979,1.579-1.468c0.403-0.376,0.637-0.967,0.471-1.297
			c-0.166-0.331-0.672-0.27-1.077,0.106c-0.444,0.413-0.89,0.825-1.334,1.238c-0.405,0.376-0.79,0.311-0.848-0.147
			s0.217-1.13,0.624-1.503c0.183-0.168,0.377-0.347,0.584-0.536c0.407-0.374,0.593-0.773,0.402-0.868
			c-0.189-0.094-0.573,0.062-0.844,0.314c-0.158,0.148-0.318,0.3-0.487,0.456c-0.102,0.1-0.194,0.192-0.283,0.28
			c-0.157,0.155-0.403-0.16-0.701-0.625c-0.273-0.429-0.669-0.848-1.258-1.271c-3.048-2.188-6.188,2.418-6.188,4.883
			c0,3.763,0,7.527,0,11.291c0,5.571-3.432,11.539-10.01,11.081c-0.216-0.016-0.427-0.041-0.634-0.075
			C9.629,41.01,9.508,40.782,9.7,40.587c0.191-0.193,0.252-0.423,0.139-0.517c-0.112-0.094-0.412,0.022-0.671,0.26
			c-0.259,0.238-0.803,0.321-1.193,0.138c-0.391-0.186-0.396-0.633-0.034-0.958c0.362-0.326,0.478-0.782,0.271-1.028
			c-0.206-0.245-0.689-0.148-1.094,0.229c-0.019,0.019-0.037,0.035-0.057,0.054c-0.403,0.377-1.083,0.405-1.473,0.014
			c-0.336-0.339-0.648-0.706-0.938-1.095c-0.329-0.443-0.234-1.134,0.167-1.514c0.214-0.199,0.427-0.4,0.641-0.602
			c0.402-0.378,0.65-0.903,0.565-1.178c-0.085-0.273-0.448-0.171-0.826,0.231c-0.268,0.284-0.535,0.569-0.802,0.854
			C4.021,35.876,3.5,35.81,3.276,35.305z"/>
		<path d="M49.243,27.083c-1.06-1.647-3.438-1.587-5.421-1.302c-3.707,0.534-2.936,3.598-3.229,6.492
			c-0.347,3.411-3.723,1.81-4.417-0.396c-0.264-0.837-0.119-2.066-0.119-2.937c0-0.963,0.077-2.222-1.167-2.406
			c-1.555-0.231-2.477,1.169-4.258,0.216c-1.062-0.566-1.979-0.16-2.886,0.384c-1.859,1.115-0.251,7.216,0.188,8.553
			c1.23,3.75,5.011,6.977,9.007,7.203c3.791,0.214,6.958-1.128,9.606-3.817c2.691-2.734,3.048-6.464,3.089-10.075
			C49.642,28.445,49.542,27.548,49.243,27.083z M43.506,26.748c0.521,0,1.08-0.052,1.619-0.046c0.552,0.007,0.674,0.428,0.283,0.817
			c-0.624,0.623-1.312,1.311-2.074,2.073c-0.391,0.391-0.732,0.26-0.732-0.292C42.601,28.145,42.731,26.748,43.506,26.748z
			 M29.06,29.308c-0.002-0.123-0.003-0.245-0.003-0.367c0-1.034,0.184-1.113,0.595-1.013c0.536,0.13,0.659,0.518,0.267,0.905
			c-0.048,0.048-0.095,0.094-0.142,0.141C29.383,29.363,29.062,29.511,29.06,29.308z M46.469,36.571
			c-1.633,3.781-4.895,5.338-8.175,5.076c-0.55-0.044-0.936-0.188-0.869-0.256c0.066-0.068,0.052-0.17-0.036-0.229
			c-0.088-0.058-0.241-0.027-0.348,0.069c-0.104,0.097-0.54,0.095-0.961-0.045s-0.566-0.453-0.339-0.66
			c0.229-0.207,0.218-0.562-0.009-0.807s-0.653-0.213-0.97,0.082c-0.316,0.294-0.963,0.312-1.41-0.014
			c-0.395-0.285-0.772-0.602-1.131-0.947c-0.398-0.385-0.359-1.034,0.043-1.412c0.391-0.367,0.781-0.735,1.18-1.107
			c0.012-0.012,0.022-0.023,0.035-0.036c0.019-0.02-0.07-0.284-0.185-0.599c-0.112-0.313-0.254-0.512-0.33-0.436
			c-0.047,0.048-0.093,0.094-0.139,0.139c-0.39,0.419-0.78,0.836-1.173,1.253c-0.378,0.401-0.941,0.368-1.203-0.109
			c-0.261-0.477-0.106-1.204,0.286-1.594c0.404-0.402,0.81-0.806,1.216-1.209c0.392-0.389,0.706-0.734,0.7-0.771
			c-0.005-0.037-0.121,0.039-0.262,0.173c-0.142,0.133-0.573,0.554-0.964,0.944c-0.245,0.248-0.491,0.496-0.737,0.744
			c-0.39,0.392-0.794,0.486-0.891,0.205c-0.096-0.281,0.159-0.827,0.554-1.215c0.499-0.492,0.998-0.984,1.497-1.478
			c0.393-0.388,0.709-0.748,0.705-0.804c-0.003-0.034-0.005-0.067-0.005-0.102c0,0,0-0.254,0-0.567s-0.312-0.245-0.695,0.151
			c-0.585,0.604-1.17,1.207-1.754,1.811c-0.386,0.396-0.767,0.371-0.825-0.062c-0.061-0.434,0.22-1.107,0.604-1.504
			c0.673-0.694,1.34-1.384,1.997-2.061c0.386-0.396,0.708-0.823,0.742-0.948c0.033-0.126,0.439-0.238,0.869-0.152
			c0.335,0.066,0.58,0.191,0.635,0.408c0.508,2.002-0.637,4.194,1.041,5.978c1.227,1.302,2.702,1.843,4.445,1.146
			c0.222-0.089,0.431-0.194,0.627-0.315c0.33-0.203,0.676-0.289,0.823-0.153c0.146,0.136,0.608-0.071,1.017-0.444
			c1.108-1.021,2.219-2.037,3.325-3.06c0.405-0.374,0.732-1.07,0.732-1.555s-0.328-0.571-0.732-0.196
			c-0.81,0.751-1.617,1.502-2.425,2.253c-0.405,0.376-0.564,0.261-0.456-0.28c0.078-0.387,0.118-0.782,0.118-1.18
			c0-0.012,0-0.026-0.001-0.042c0-0.022,0.325-0.347,0.729-0.724c0.815-0.762,1.631-1.522,2.446-2.285
			c0.402-0.377,1.168-0.495,1.484-0.044c0.001,0.001,0.002,0.002,0.002,0.003c0.318,0.451,0.408,1.355,0.4,1.909
			C47.672,31.967,47.481,34.226,46.469,36.571z"/>
		<path d="M17.377,32.808c0.388-0.394,0.372-0.407-0.034-0.033c-0.268,0.246-0.54,0.496-0.82,0.753
			c-0.287,0.266-0.575,0.532-0.862,0.799c-0.405,0.375-0.688,0.698-0.633,0.724c0.055,0.023,0.415-0.281,0.804-0.675
			C16.345,33.854,16.86,33.332,17.377,32.808z"/>
		<path d="M42.998,35.742c0.101-0.102,0.095-0.105-0.007-0.007C42.892,35.833,42.899,35.842,42.998,35.742z"/>
	</g>
</g>
<g>
</g>
<g>
</g>
<g>
</g>
<g>
</g>
<g>
</g>
<g>
</g>
<g>
</g>
<g>
</g>
<g>
</g>
<g>
</g>
<g>
</g>
<g>
</g>
<g>
</g>
<g>
</g>
<g>
</g>
</svg>
