<?xml version="1.0" encoding="iso-8859-1"?>
<!-- Generator: Adobe Illustrator 16.0.0, SVG Export Plug-In . SVG Version: 6.00 Build 0)  -->
<!DOCTYPE svg PUBLIC "-//W3C//DTD SVG 1.1//EN" "http://www.w3.org/Graphics/SVG/1.1/DTD/svg11.dtd">
<svg version="1.1" id="Capa_1" xmlns="http://www.w3.org/2000/svg" xmlns:xlink="http://www.w3.org/1999/xlink" x="0px" y="0px"
	 width="47.956px" height="47.957px" viewBox="0 0 47.956 47.957" style="enable-background:new 0 0 47.956 47.957;"
	 xml:space="preserve">
<g>
	<g>
		<path d="M9.128,43.218c3.244,0,6.52,0.147,9.755-0.132c7.362-0.633,9.882-9.133,4.099-13.449c-1.35-1.008-3.136-1.265-4.745-1.506
			c-0.52-0.077-1.071-0.038-1.598-0.058c-8.16-0.297-0.716-3.544,0.021-3.544c3.041,0,6.082,0,9.124,0
			c3.706,0,2.754,4.961,2.754,7.325c0,2.908-0.114,5.282,1.445,7.878c3.512,5.839,12.407,3.989,16.17-0.451
			c0.356-0.421,0.662-0.849,0.72-0.927c0.057-0.078,0.123-0.218,0.151-0.305c0.029-0.088,0.165-0.591,0.3-1.126
			c1.215-4.879,0.305-10.827,0.305-15.678c0-3.561,0-7.121,0-10.681c0-1.75,0.259-3.886-0.316-5.553
			c-0.091-0.265-0.356-0.43-0.632-0.444c-5.622-0.301-6.24,1.644-6.24,6.612c0,7.23,0,14.462,0,21.692c0,0.794,0,1.586,0,2.379
			c0,3.646-4.714,1.449-4.714-1.042c0-3.166,0.18-6.371-0.166-9.521C34.702,16.847,22.98,18.5,17.768,18.5
			c-2.781,0-5.972,0.28-7.999,2.475c-2.79,3.019-3.633,7.8,0.055,10.682c1.873,1.464,3.542,2.13,5.872,2.438
			c0.521,0.068,1.067,0.039,1.595,0.058c7.043,0.257,0.558,3.031-0.095,3.031c-3.562,0-7.125,0-10.688,0
			c-1.421,0-4.21-0.467-5.372,0.694c-1.887,1.888-1.393,4.564,1.261,5.282C4.395,43.703,7.083,43.218,9.128,43.218z M43.323,6.496
			c0.279-0.271,0.356-0.178,0.076,0.083S43.042,6.767,43.323,6.496z M42.048,10.459c0.043-0.551,0.372-1.237,0.696-1.54l0.588-0.547
			c0.438-0.441,0.871-0.881,1.304-1.318c0.389-0.394,0.942-0.32,1.03,0.225c0.179,1.101,0.005,2.621,0.005,3.434
			c0,0.073,0,0.147,0,0.221c0,0.121-0.321,0.533-0.718,0.917c-0.729,0.706-1.458,1.41-2.188,2.114
			c-0.396,0.385-0.74,0.324-0.758-0.135s0.297-1.145,0.692-1.529c0.702-0.685,1.467-1.429,2.272-2.216
			c0.396-0.386,0.715-0.718,0.715-0.742c0-0.025-0.317,0.27-0.713,0.655c-0.806,0.791-1.55,1.516-2.269,2.205
			c-0.398,0.382-0.403,0.378-0.008-0.008c0.886-0.864,1.639-1.602,2.276-2.229c0.395-0.388,0.713-0.748,0.713-0.806
			s-0.321,0.206-0.72,0.589c-0.759,0.732-1.516,1.461-2.271,2.191c-0.396,0.384-0.727,0.248-0.712-0.304
			C41.998,11.237,42.017,10.843,42.048,10.459z M42.139,16.079c-0.04-0.551,0.27-1.294,0.684-1.66
			c0.702-0.619,1.404-1.238,2.099-1.85c0.414-0.365,0.751-0.213,0.751,0.339c0,1.104,0,2.207,0,3.311
			c0,0.552-0.318,1.314-0.712,1.702c-0.614,0.608-1.233,1.22-1.853,1.833c-0.393,0.389-0.711,0.549-0.711,0.358
			c0-0.115,0-0.23,0-0.346C42.396,19.051,42.257,17.684,42.139,16.079z M42.396,23.016c0-0.553,0.306-1.327,0.683-1.731
			c0.642-0.688,1.279-1.375,1.911-2.053c0.376-0.404,0.682-0.308,0.682,0.216c0,0.316,0,0.632,0,0.948
			c0,0.071,0.001,0.144,0.002,0.217c0.002,0.12-0.302,0.545-0.679,0.949c-0.801,0.857-1.598,1.719-2.404,2.572
			c-0.033,0.034-0.064,0.068-0.097,0.103c-0.055,0.057-0.098-0.346-0.098-0.898C42.396,23.231,42.396,23.123,42.396,23.016z
			 M9.375,25.747c0.027-0.523,0.428-1.263,0.812-1.659c1.066-1.1,2.106-2.169,3.111-3.201c0.386-0.396,1.131-0.811,1.672-0.874
			c0.541-0.064,0.67,0.239,0.285,0.637c-1.723,1.775-3.443,3.551-5.163,5.327C9.708,26.373,9.347,26.271,9.375,25.747z
			 M3.405,40.096c0.013-0.553,0.142-1.111,0.287-1.248C3.836,38.71,4.137,38.6,4.364,38.6c0.136,0,0.273,0,0.409,0
			c3.561,0,7.121,0,10.682,0c0.889,0,1.938,0.023,2.904-0.162c0.543-0.104,1.198-0.277,1.492-0.277c0.295,0,0.85-0.316,1.239-0.708
			c0.698-0.701,1.415-1.42,2.147-2.153c0.39-0.392,0.677-0.739,0.641-0.778c-0.021-0.023-0.041-0.046-0.066-0.068
			c-0.096-0.084-0.196-0.158-0.303-0.226c-0.176-0.112-0.659,0.121-1.063,0.497c-0.178,0.165-0.344,0.319-0.499,0.464
			c-0.403,0.378-0.626,0.225-0.795-0.302c-0.424-1.323-2.156-2.102-3.608-2.153c-0.13-0.004-0.261-0.013-0.39-0.023
			c-0.215-0.018-0.6-0.14-0.854-0.278c-0.254-0.14-0.526-0.202-0.619-0.115c-0.093,0.086-0.607,0.065-1.134-0.102
			c-0.6-0.19-1.17-0.433-1.7-0.724c-0.484-0.265-0.534-0.853-0.149-1.249c0.003-0.002,0.005-0.005,0.007-0.007
			c0.385-0.396,0.645-0.803,0.576-0.906c-0.041-0.062-0.081-0.125-0.114-0.191c-0.048-0.099-0.093-0.197-0.136-0.298
			c-0.07-0.165-0.437,0.013-0.828,0.401c-0.109,0.108-0.219,0.217-0.327,0.325c-0.392,0.39-1.008,0.427-1.316,0.033
			c-0.309-0.395-0.183-1.069,0.208-1.458c0.56-0.56,1.122-1.117,1.687-1.675c0.016-0.018,0.031-0.034,0.047-0.052
			c0.025-0.027,0.047-0.069,0.049-0.093c0.001-0.022-0.32,0.27-0.718,0.653c-0.412,0.397-0.791,0.763-1.105,1.063
			c-0.398,0.383-0.832,0.488-0.938,0.227c-0.105-0.263,0.149-0.797,0.542-1.187c0.594-0.585,1.187-1.171,1.781-1.756
			c0.393-0.388,0.771-0.902,0.862-1.142c0.055-0.145,0.115-0.287,0.184-0.428c0.414-0.844,0.975-1.585,1.689-2.224
			c0.707-0.637,1.545-1.138,2.512-1.503c0.029-0.011,0.061-0.021,0.091-0.03c0.05-0.015,0.105-0.044,0.124-0.062
			c0.018-0.02,0.379-0.029,0.805-0.024c0.266,0.003,0.524,0.006,0.772,0.006c4.606,0,9.909-0.92,13.363,2.877
			c2.359,2.595,1.254,8.917,1.254,12.129c0,3.201,3.56,4.329,6.104,3.495c0.524-0.172,1.109-0.341,1.367-0.297
			c0.15,0.026,0.308,0.04,0.472,0.04c0,0,0.024,0,0.057,0s0.375-0.315,0.767-0.706c0.814-0.812,1.632-1.627,2.447-2.442
			c0.393-0.391,0.708-0.983,0.708-1.322c0-0.34-0.328-0.312-0.729,0.066c-0.678,0.639-1.378,1.311-2.093,1.999
			c-0.398,0.384-0.607,0.437-0.535,0.102c0.041-0.194,0.063-0.399,0.063-0.617c0-0.44,0-0.883,0-1.325
			c0-0.552,0.316-1.316,0.705-1.709c0.63-0.634,1.26-1.268,1.884-1.897c0.391-0.393,0.704-0.892,0.704-1.114
			c0-0.224-0.312-0.084-0.697,0.311c-0.634,0.648-1.266,1.297-1.896,1.945c-0.386,0.396-0.698,0.27-0.698-0.284
			c0-0.564,0-1.13,0-1.694c0-0.553,0.313-1.32,0.698-1.717c0.63-0.646,1.263-1.293,1.896-1.94c0.386-0.396,0.697-1.136,0.697-1.656
			c0-0.52-0.315-0.623-0.705-0.23c-0.635,0.64-1.261,1.271-1.883,1.897c-0.39,0.393-0.705,0.373-0.705-0.043s0.314-1.07,0.703-1.463
			c0.65-0.656,1.282-1.294,1.887-1.906c0.39-0.393,0.703-0.74,0.703-0.775c0-0.037,0.013,0.381,0.036,0.933
			c0.171,3.946,0.662,8.459,0.087,12.41c-0.08,0.546-0.485,1.301-0.878,1.689c-0.249,0.248-0.499,0.496-0.749,0.744
			c-0.392,0.39-0.342,0.662,0.062,0.47c0.237-0.114,0.459-0.266,0.662-0.454c0.142-0.136,0.262-0.279,0.36-0.432
			c0.171-0.261,0.179-0.168,0.063,0.242c-0.113,0.411-0.453,1.127-0.798,1.558c-1.447,1.809-3.602,2.759-5.789,2.93
			c-0.552,0.043-1.157-0.056-1.351-0.158c-0.191-0.104-0.41-0.134-0.495-0.052s-0.599,0.093-1.133-0.043
			c-0.161-0.042-0.32-0.087-0.478-0.138c-0.526-0.167-0.696-0.599-0.405-0.893c0.29-0.295,0.467-0.604,0.395-0.691
			s-0.391,0.108-0.714,0.439c-0.322,0.332-0.986,0.397-1.437,0.077c-0.158-0.113-0.312-0.233-0.459-0.359
			c-0.42-0.357-0.396-1.026-0.012-1.424c0.201-0.209,0.407-0.422,0.619-0.641c0.385-0.396,0.607-1.06,0.557-1.489
			c-0.031-0.256-0.047-0.518-0.047-0.783c0,0,0-0.082,0-0.182c0-0.101-0.315,0.136-0.704,0.527c-0.426,0.43-0.848,0.854-1.265,1.275
			c-0.39,0.392-0.818,0.477-0.93,0.177c-0.108-0.3,0.144-0.87,0.531-1.262c0.555-0.56,1.109-1.12,1.662-1.679
			c0.389-0.394,0.704-0.772,0.704-0.848c0-0.074-0.309,0.188-0.688,0.588c-0.582,0.613-1.154,1.216-1.722,1.812
			c-0.38,0.4-0.78,0.371-0.835-0.074c-0.031-0.262-0.049-0.531-0.049-0.811c0-0.056,0-0.11,0-0.165c0-0.091,0.307-0.493,0.684-0.897
			c0.644-0.688,1.286-1.376,1.927-2.062c0.377-0.404,0.684-1.179,0.684-1.731v-0.224c0-0.552-0.317-0.684-0.707-0.291
			c-0.626,0.628-1.253,1.26-1.882,1.893c-0.39,0.393-0.704,0.357-0.704-0.079c0-0.263,0-0.525,0-0.789
			c0-0.611,0.034-1.234,0.061-1.852c0.022-0.552,0.339-1.32,0.727-1.715c0.436-0.444,0.87-0.89,1.306-1.334
			c0.387-0.396,0.668-0.756,0.627-0.806c-0.042-0.049-0.41,0.213-0.819,0.583c-0.365,0.331-0.726,0.658-1.084,0.983
			c-0.409,0.371-0.75,0.223-0.847-0.321c-0.048-0.271-0.114-0.533-0.202-0.789c-0.182-0.521-0.316-1.011-0.165-1.153
			c0.15-0.144,0.22-0.26,0.152-0.26c-0.066,0-0.209,0.087-0.317,0.192c-0.107,0.107-0.389-0.086-0.69-0.369
			c-0.175-0.163-0.369-0.316-0.591-0.462c-1.571-1.029-5.318-0.338-6.996-0.338c-2.452,0-5.862-0.633-7.981,0.957
			c-1.932,1.45-1.156,4.357,1.009,5.122c1.797,0.635,3.786,0.395,5.65,0.983c4.123,1.3,5.11,5.808,2.86,9.084
			c-1.81,2.633-4.076,2.542-6.396,2.542c-3.43,0-6.86,0-10.29,0c-0.331,0-0.661,0-0.992,0c-0.381,0-0.761,0-1.14,0
			c-0.553,0-0.994-0.447-0.984-0.999C3.395,40.563,3.399,40.326,3.405,40.096z"/>
	</g>
</g>
<g>
</g>
<g>
</g>
<g>
</g>
<g>
</g>
<g>
</g>
<g>
</g>
<g>
</g>
<g>
</g>
<g>
</g>
<g>
</g>
<g>
</g>
<g>
</g>
<g>
</g>
<g>
</g>
<g>
</g>
</svg>
