<?xml version="1.0" encoding="iso-8859-1"?>
<!-- Generator: Adobe Illustrator 16.0.0, SVG Export Plug-In . SVG Version: 6.00 Build 0)  -->
<!DOCTYPE svg PUBLIC "-//W3C//DTD SVG 1.1//EN" "http://www.w3.org/Graphics/SVG/1.1/DTD/svg11.dtd">
<svg version="1.1" id="Capa_1" xmlns="http://www.w3.org/2000/svg" xmlns:xlink="http://www.w3.org/1999/xlink" x="0px" y="0px"
	 width="44.895px" height="44.895px" viewBox="0 0 44.895 44.895" style="enable-background:new 0 0 44.895 44.895;"
	 xml:space="preserve">
<g>
	<g>
		<path d="M44.048,27.754c1.493-4.776,0.558-10.667,0.558-15.624c0-5.207-5.762-9.857-10.769-9.857c-5.514,0-11.027,0-16.542,0
			c-6.191,0-10.008,1.375-14.051,6.59c-5.455,7.035-3.56,16.169,2.185,22.173c0.383,0.399,1,1.052,1.25,1.544
			c1.247,2.446,0.229,5.56-0.109,8.211c-0.139,1.078,0.412,2.096,1.634,1.768c1.68-0.45,3.213-2.485,4.406-3.575
			c3.364-3.075,9.58-0.856,13.979-1.228C32.102,37.293,42.166,33.776,44.048,27.754z M4.967,9.404
			c0.52-0.779,1.108-1.541,1.778-2.279c0.776-0.856,1.59-1.505,2.433-2.002c0.477-0.28,0.568-0.147,0.177,0.242
			c-1.406,1.396-2.811,2.79-4.211,4.181C4.752,9.936,4.661,9.863,4.967,9.404z M30.912,35.582
			c-5.126,1.639-9.745,0.452-14.879,0.082c-2.978-0.214-5.691,3.405-7.597,5.146c-0.636,0.581,0.148-0.676,0.237-1.373
			c0.04-0.311,0.08-0.623,0.119-0.934c0.066-0.517,0.434-1.252,0.821-1.646c0.678-0.688,1.357-1.378,2.041-2.071
			c0.388-0.393,0.704-0.804,0.697-0.918c-0.008-0.114-0.349,0.099-0.754,0.474c-0.613,0.569-1.229,1.139-1.844,1.707
			c-0.406,0.375-0.709,0.482-0.679,0.237c0.019-0.146,0.038-0.295,0.057-0.442c0.026-0.207,0.047-0.409,0.062-0.605
			c0.023-0.336,0.357-0.911,0.765-1.283c0.389-0.356,0.777-0.713,1.165-1.07c0.407-0.373,0.612-0.922,0.409-1.197
			c-0.203-0.273-0.734-0.16-1.138,0.217c-0.2,0.186-0.4,0.373-0.602,0.561c-0.404,0.377-0.829,0.24-1.063-0.258
			c-0.051-0.107-0.105-0.215-0.165-0.322c-0.269-0.483-0.567-0.87-0.597-0.909c-0.016-0.023-0.036-0.044-0.059-0.066
			c-0.125-0.118-0.243-0.239-0.36-0.362c-0.193-0.205-0.285-0.432-0.204-0.508c0.05-0.046,0.099-0.092,0.147-0.138
			c0.2-0.208,0.4-0.413,0.6-0.618c0.332-0.341,0.448-0.807,0.272-1.047s-0.578-0.175-0.902,0.148
			c-0.197,0.197-0.394,0.393-0.587,0.584c-0.065,0.07-0.133,0.143-0.2,0.214c-0.11,0.118-0.47-0.095-0.781-0.49
			c-0.312-0.396-0.231-1.045,0.16-1.435c0.102-0.102,0.202-0.201,0.304-0.303c0.392-0.389,0.697-0.725,0.685-0.75
			c-0.014-0.027-0.211,0.131-0.44,0.351c-0.229,0.219-0.623,0.596-0.873,0.848c-0.251,0.252-0.579,0.281-0.729,0.062
			c-0.15-0.221,0.054-0.719,0.447-1.105c0.127-0.125,0.254-0.251,0.381-0.376c0.393-0.388,0.614-0.908,0.507-1.167
			c-0.106-0.26-0.503-0.148-0.887,0.248c-0.16,0.165-0.32,0.33-0.48,0.495c-0.384,0.397-0.842,0.462-1.012,0.141
			c-0.169-0.321,0.017-0.909,0.402-1.306c0.207-0.214,0.415-0.428,0.621-0.641c0.384-0.396,0.565-1.127,0.44-1.642
			c-0.125-0.514-0.517-0.623-0.911-0.235c-0.273,0.271-0.549,0.543-0.823,0.815c-0.394,0.388-0.86,0.281-1.011-0.251
			c-0.066-0.237-0.128-0.476-0.183-0.714c-0.125-0.538,0.136-1.287,0.54-1.664c0.397-0.372,0.794-0.743,1.189-1.116
			c0.402-0.379,0.729-0.821,0.734-0.985c0.006-0.165-0.301,0.021-0.69,0.413c-0.433,0.438-0.866,0.876-1.301,1.314
			c-0.388,0.393-0.767,0.267-0.807-0.284c-0.015-0.206-0.026-0.411-0.033-0.617c-0.018-0.552,0.316-1.321,0.702-1.716
			c0.652-0.668,1.303-1.334,1.953-1.997c0.386-0.395,0.812-1.148,0.984-1.672c0.052-0.153,0.104-0.305,0.16-0.457
			c0.189-0.519,0.052-0.617-0.346-0.232c-0.786,0.761-1.632,1.581-2.524,2.446c-0.396,0.384-0.401,0.379-0.009-0.009
			c0.731-0.722,1.634-1.604,2.58-2.526c0.396-0.386,0.722-0.713,0.731-0.732c0.009-0.018-0.306,0.279-0.701,0.664
			c-0.834,0.812-1.696,1.648-2.581,2.506c-0.396,0.384-0.645,0.253-0.515-0.284c0.057-0.235,0.118-0.47,0.187-0.704
			c0.153-0.531,0.631-1.264,1.027-1.649c2.582-2.513,5.27-5.13,8.068-7.855c0.396-0.385,1.157-0.786,1.705-0.853
			c2.242-0.276,4.615-0.094,7.054-0.094c4.128,0,8.257,0,12.385,0c6.938,0,9.665,6.016,9.665,11.811c0,0.579,0.007,1.16,0.018,1.744
			c0.01,0.552-0.285,1.328-0.661,1.732c-0.748,0.803-1.495,1.606-2.246,2.407c-0.378,0.403-0.524,0.31-0.366-0.22
			c0.134-0.45,0.247-0.912,0.328-1.387c0.023-0.135,0.045-0.269,0.062-0.401c0.03-0.222,0.353-0.731,0.729-1.135
			c0.452-0.486,0.902-0.969,1.351-1.45c0.376-0.404,0.631-0.951,0.552-1.214c-0.079-0.264-0.47-0.16-0.863,0.228
			c-0.322,0.319-0.646,0.64-0.972,0.961c-0.393,0.388-0.728,0.255-0.811-0.291c-0.137-0.884-0.393-1.719-0.749-2.503
			c-0.229-0.502-0.124-1.184,0.291-1.549c0.083-0.073,0.165-0.146,0.248-0.219c0.414-0.365,0.688-0.738,0.609-0.829
			c-0.079-0.092-0.464,0.146-0.86,0.529c-0.068,0.066-0.137,0.132-0.204,0.197c-0.397,0.384-0.866,0.457-1.065,0.174
			c-0.199-0.282-0.054-0.813,0.342-1.198c0.026-0.025,0.053-0.05,0.078-0.076c0.396-0.385,0.706-0.707,0.692-0.718
			c-0.014-0.012-0.347,0.289-0.746,0.67c-0.009,0.009-0.02,0.018-0.028,0.027c-0.399,0.38-0.403,0.375-0.008-0.009
			c0.009-0.009,0.018-0.018,0.027-0.026c0.396-0.384,0.688-0.723,0.65-0.756c-0.037-0.033-0.389,0.251-0.786,0.636
			c-0.016,0.015-0.031,0.031-0.048,0.046c-0.396,0.385-1,0.349-1.384-0.048c-0.052-0.054-0.105-0.108-0.159-0.161
			c-0.391-0.39-0.436-0.956-0.069-1.297c0.365-0.341,0.42-0.783,0.109-0.975c-0.31-0.191-0.84-0.082-1.175,0.229
			s-0.855,0.381-1.17,0.169C34.05,8.511,34.03,8.126,34.329,7.85c0.299-0.277,0.383-0.571,0.185-0.648
			c-0.198-0.077-0.592,0.066-0.881,0.318c-0.29,0.251-0.815,0.271-1.184,0.085c-0.367-0.187-0.5-0.496-0.289-0.707
			s0.289-0.41,0.174-0.446c-0.115-0.036-0.369,0.101-0.565,0.302c-0.197,0.2-0.635,0.24-0.98,0.102
			c-0.346-0.138-0.513-0.359-0.37-0.506c0.145-0.146,0.175-0.279,0.07-0.291c-0.105-0.012-0.258,0.039-0.339,0.116
			C30.101,6.219,30.052,6.266,30,6.313c-0.032,0.031-0.062,0.06-0.094,0.089c-0.051,0.049-0.516-0.06-1.046-0.215
			c-0.032-0.01-0.065-0.019-0.098-0.028c-0.53-0.153-0.95-0.271-0.932-0.289c0.019-0.018,0.015-0.021-0.006-0.003
			c-0.021,0.018-0.47-0.073-1.013-0.178c-0.986-0.19-1.958-0.307-2.889-0.343c-0.016,0-0.032,0.002-0.049,0.005
			c-0.027,0.005-0.083,0.004-0.123-0.002c-0.022-0.003-0.046-0.006-0.075-0.005C16.211,5.637,8.814,9.571,7.442,17.456
			c-1.556,8.933,8.442,14.071,15.799,14.36c2.508,0.099,5.034-0.373,7.333-1.327c0.51-0.211,0.795-0.285,0.65-0.132
			c-0.146,0.151-0.174,0.258-0.066,0.235c0.108-0.023,0.381-0.23,0.61-0.461c0.229-0.232,0.81-0.629,1.278-0.922
			c2.044-1.271,3.783-2.97,5.001-5.022c0.282-0.476,0.793-1.197,1.183-1.589c0.974-0.983,1.901-1.921,2.772-2.802
			c0.389-0.393,0.714-0.264,0.725,0.288c0.039,2.19,0.031,4.383-0.228,6.529C41.946,31.258,34.618,34.397,30.912,35.582z
			 M25.148,30.41c-6.696,0.793-13.644-3.175-15.556-9.701C7.139,12.338,16.411,7.027,23.374,6.7
			c6.363,0.287,12.322,3.32,14.206,9.753C39.843,24.188,31.721,29.633,25.148,30.41z"/>
		<path d="M41.85,21.468c-2.703,2.724-5.297,5.336-7.772,7.831c-0.389,0.393-0.279,0.569,0.233,0.361
			c0.694-0.281,1.359-0.605,1.989-0.968c0.479-0.274,1.163-0.847,1.548-1.242c0.88-0.901,1.771-1.813,2.664-2.729
			c0.387-0.395,0.937-1.096,1.184-1.589c0.228-0.457,0.425-0.928,0.587-1.411C42.457,21.197,42.238,21.076,41.85,21.468z"/>
	</g>
</g>
<g>
</g>
<g>
</g>
<g>
</g>
<g>
</g>
<g>
</g>
<g>
</g>
<g>
</g>
<g>
</g>
<g>
</g>
<g>
</g>
<g>
</g>
<g>
</g>
<g>
</g>
<g>
</g>
<g>
</g>
</svg>
