<?xml version="1.0" encoding="iso-8859-1"?>
<!-- Generator: Adobe Illustrator 16.0.0, SVG Export Plug-In . SVG Version: 6.00 Build 0)  -->
<!DOCTYPE svg PUBLIC "-//W3C//DTD SVG 1.1//EN" "http://www.w3.org/Graphics/SVG/1.1/DTD/svg11.dtd">
<svg version="1.1" id="Capa_1" xmlns="http://www.w3.org/2000/svg" xmlns:xlink="http://www.w3.org/1999/xlink" x="0px" y="0px"
	 width="46.021px" height="46.021px" viewBox="0 0 46.021 46.021" style="enable-background:new 0 0 46.021 46.021;"
	 xml:space="preserve">
<g>
	<g>
		<path d="M43.034,12.403c-0.091-0.398-0.204-0.745-0.34-1.048c-0.246-0.557-0.55-0.966-0.498-1.015
			c0.05-0.048,0.045-0.152-0.018-0.229c-0.061-0.076-0.165-0.087-0.223-0.03c-0.06,0.057-0.118,0.092-0.134,0.08
			c-0.017-0.013,0.018-0.07,0.075-0.129c0.059-0.058,0.041-0.076-0.024-0.023c-0.065,0.054-0.906-0.476-2.006-0.371
			c-2.719,0.259-6.236,3.507-7.265,5.521c-0.971,1.903-1.526,8.379,0.071,10.005c0.889,0.905,0.574,0.671,1.73,1.183
			c3.141,1.387,3.048,4.694-1.55,4.376c-0.977-0.067-1.604-0.724-2.074-1.618c-0.514-0.979-0.672-1.926-0.589-2.011
			s0.112-0.264,0.062-0.398c-0.051-0.134-0.157-0.184-0.238-0.11s-0.31-0.421-0.559-1.088c-0.161-0.433-0.336-0.832-0.54-1.169
			c-0.322-0.532-1.544-0.078-1.853,0.284c-2.62,3.074-2,8.073-4.508,11.353c-0.39,0.508-4.517-2.701-1.584-5.364
			c0.82-0.744,1.562-1.34,2.241-2.213c1.215-1.562,1.608-4.259,1.525-6.438c0.014-0.278,0.017-0.54,0.006-0.779
			c-0.02-0.43-0.134-0.735-0.163-0.693c-0.031,0.042-0.475-0.036-0.967,0.116c-0.379,0.117-0.737,0.302-0.824,0.42
			c-1.812,2.446-7.767,11.861-10.152,6.376c-0.767-1.764,3.56-3.744,4.78-4.546c1.898-1.248,3.166-3.113,4.066-5.151
			c0.204-0.46-0.933-0.276-1.065-0.247c-2.38,0.521-6.919,2.821-7.705-0.767c-0.718-3.275,3.832-1.408,5.177-1.306
			c0.069,0.006,0.163-0.007,0.269-0.033c0.147-0.035,0.362-0.094,0.483-0.131c0.08-0.025,0.152-0.055,0.21-0.089
			c2.996-1.781,6.021-3.384,8.475-5.904c1.708-1.755,3.116-5.885,1.064-7.943c-0.096-0.096-0.193-0.184-0.295-0.267
			c-0.17-0.139-0.271-0.257-0.218-0.281c0.055-0.024,0.112-0.057,0.128-0.074c0.016-0.018-0.291-0.317-0.776-0.489
			c-0.483-0.171-0.936-0.15-0.968-0.118c-0.032,0.033-0.954-0.126-2.049,0.018c-3.864,0.508-8.462,3.978-10.8,5.41
			c-3.128,1.917-6.859,2.359-9.877,4.464C0.312,12.185,1.137,17.522,1.399,20.8c0.315,3.918-1.128,9.743,1.487,13.105
			c3.646,4.688,9.18,7.69,14.339,10.419c8.036,4.253,13.485-0.252,20.09-5.149c3.192-2.367,6.818-4.852,7.473-9.022
			c0.394-2.512-0.266-5.339-0.46-7.84C44.069,18.965,43.773,15.684,43.034,12.403z M27.351,27.862c0.224-0.811,0.63-1.099,0.8-0.653
			c0.169,0.445-0.042,1.11-0.44,1.475C27.309,29.046,27.128,28.673,27.351,27.862z M4.461,11.078
			c0.354-0.48,0.795-0.922,1.342-1.316c0.896-0.646,1.126-0.31,0.35,0.476c-0.395,0.398-0.789,0.797-1.185,1.196
			C4.192,12.219,3.805,11.967,4.461,11.078z M41.965,30.208c0.55-0.249,0.875,0.293,0.597,1.361c-0.23,0.889-0.605,1.75-1.188,2.572
			c-2.488,3.513-7.353,6.203-10.867,8.613c-1.365,0.936-2.638,1.524-3.853,1.847c-1.068,0.282-1.787,0.111-1.557-0.122
			s0.214-0.244-0.021-0.009c-0.235,0.234-0.972,0.463-1.646,0.401c-0.675-0.061-0.887-0.532-0.486-0.961
			c0.399-0.427,0.195-1.052-0.454-1.398c-0.648-0.35-1.565-0.242-2.046,0.237c-0.482,0.48-0.42,1.1,0.154,1.354
			c0.574,0.256,0.184,0.205-0.836-0.22c-1.664-0.693-3.349-1.662-5.165-2.676c-3.744-2.087-8.333-5.152-10.423-8.99
			c-0.994-1.827-0.936-4.255-0.809-6.498c0.061-1.103,0.102-1.607,0.091-1.127c-0.012,0.48,0.613,0.241,1.4-0.534
			c0.709-0.699,1.418-1.398,2.126-2.097c0.787-0.776,1.39-1.849,1.347-2.396c-0.043-0.549-0.701-0.351-1.47,0.442
			c-0.662,0.684-1.325,1.367-1.987,2.051c-0.769,0.794-1.389,1.371-1.386,1.29c0.002-0.051,0.004-0.101,0.005-0.147
			c0.005-0.338,0-0.684-0.013-1.029c-0.021-0.569,0.569-1.673,1.34-2.465c0.648-0.667,1.286-1.322,1.913-1.965
			c0.771-0.792,1.371-2.092,1.411-2.901c0.041-0.81-0.49-0.833-1.277-0.058c-0.742,0.732-1.487,1.465-2.235,2.202
			c-0.786,0.775-1.508,0.511-1.518-0.594c-0.001-0.076-0.001-0.151-0.001-0.227c0.003-1.104,0.783-2.615,1.58-3.381
			c0.664-0.639,1.329-1.279,1.993-1.928c0.488-0.492,0.976-0.983,1.464-1.474c0.779-0.783,2.23-1.783,3.223-2.268
			c1.769-0.862,3.484-1.785,5.215-2.701c0.977-0.517,1.133-0.302,0.345,0.473c-0.436,0.428-0.872,0.856-1.31,1.286
			c-0.788,0.773-0.571,1.136,0.474,0.776c0.622-0.214,1.251-0.448,1.875-0.726c0.02-0.01,0.041-0.021,0.062-0.031
			c0.034-0.018,0.692-0.667,1.476-1.446c0.854-0.851,1.521-1.506,1.96-1.922c1.867-1.879,0.674-0.628-1.562,1.684
			c-0.768,0.794-1.34,1.41-1.277,1.376c0.062-0.034,0.737-0.703,1.507-1.495c0.53-0.545,1.048-1.078,1.556-1.6
			c0.77-0.792,1.824-1.557,2.37-1.58c0.545-0.024,0.599,0.482,0.125,0.967c-0.472,0.484-0.295,0.542,0.407,0.151
			s2.094-0.152,2.452,0.893c0.418,1.217,0.305,2.832-0.35,4.414c-1.075,2.6-3.981,4.302-6.626,5.749
			c-0.969,0.53-2.631,0.79-3.717,0.589c-2.389-0.444-5.014-0.677-5.618,1.998c-1.045,4.622,3.201,4.075,6.596,3.187
			c1.068-0.279,1.534,0.269,0.874,1.154c-1.265,1.694-2.935,2.907-5.062,3.842c-0.97,0.426-1.683,0.937-2.304,1.785
			c-1.145,1.563,0.675,4.415,2.399,4.631c2.931,0.366,5.557-1.998,7.703-4.642c0.696-0.857,1.353-1.711,1.519-1.865
			s0.247,0.621-0.022,1.691c-0.391,1.553-1.107,3.006-2.212,4.024c-1.081,0.998-1.993,1.564-2.466,2.989
			c-0.648,1.955,2.369,4.65,4.256,4.365c2.396-0.364,3.465-2.249,4.156-4.516c0.322-1.057,0.939-2.377,1.475-2.924
			s1.103-0.502,1.213,0.111c0.112,0.612,0.172,1.174,0.225,1.221c0.031,0.027,0.067,0.047,0.113,0.06
			c2.605,0.865,5.387,0.899,7.86-0.348c3.54-1.784,0.431-4.302-1.609-6.173c-0.813-0.747-0.952-1.87-0.476-2.357
			c0.478-0.486,0.468-0.526-0.019-0.087c-0.486,0.438-0.874,0.832-0.866,0.876c0.008,0.044-0.013,0.03-0.038-0.034
			c-0.016-0.042-0.028-0.082-0.036-0.12c-0.63-3.292-0.348-7.1,1.661-9.841c1.37-1.87,2.414-2.609,3.216-2.669
			c1.103-0.082,0.935,1.673,0.145,2.444c-1.263,1.233-2.516,2.458-3.761,3.675c-0.79,0.771-1.43,1.425-1.429,1.46
			s0.642-0.564,1.428-1.339c1.324-1.302,2.653-2.607,3.798-3.735c0.785-0.775,1.429-1.396,1.436-1.384
			c0.008,0.013-0.63,0.647-1.422,1.418c-1.276,1.241-2.546,2.481-3.809,3.715c-0.789,0.772-1.431,1.472-1.429,1.562
			c0.003,0.09,0.652-0.453,1.451-1.216c1.359-1.295,2.671-2.548,3.935-3.758c0.8-0.763,1.782-0.613,2.02,0.39
			c0.17,0.718,0.278,1.395,0.361,1.83c0.468,2.449,0.604,4.951,0.782,7.434c0.038,0.522,0.091,1.048,0.147,1.576
			c0.093,0.868,0.156,1.561,0.141,1.544s-0.646,0.624-1.403,1.427c-0.561,0.596-1.117,1.185-1.669,1.769
			c-0.76,0.803-1.247,1.467-1.091,1.479c0.156,0.014,0.914-0.617,1.691-1.401c0.39-0.395,0.775-0.783,1.159-1.17
			c0.776-0.785,1.449-0.991,1.479-0.461c0.031,0.529-0.403,1.402-0.946,1.949C41.364,30.087,41.415,30.457,41.965,30.208z"/>
		<path d="M8.804,31.874c-0.155,0.155-0.149,0.162,0.007,0.008C8.967,31.728,8.959,31.719,8.804,31.874z"/>
		<path d="M39.177,15.677c0.015-0.065-0.497,0.391-1.146,1.019c-0.648,0.629-0.661,0.68-0.027,0.116
			C38.637,16.25,39.162,15.742,39.177,15.677z"/>
		<path d="M7.039,27.292c-0.636,0.633-1.265,1.259-1.889,1.879c-0.783,0.778-1.337,1.758-1.19,2.172
			c0.146,0.413,0.927,0.09,1.694-0.703c0.465-0.479,0.929-0.958,1.392-1.436c0.771-0.792,1.388-1.855,1.394-2.377
			C8.444,26.305,7.822,26.514,7.039,27.292z"/>
		<path d="M4.602,26.258c0.262-0.288,0.1-0.159-0.363,0.288c-0.462,0.446-0.838,0.842-0.837,0.881c0,0.04,0.163-0.09,0.363-0.289
			c0.12-0.12,0.241-0.24,0.362-0.359C4.286,26.604,4.444,26.431,4.602,26.258z"/>
		<path d="M15.618,39.811c-0.501,0.482-0.335,0.429-0.592,0.664c-0.256,0.233-0.19,0.586,0.148,0.784
			c0.339,0.196,1.04-0.075,1.562-0.6c0.521-0.523,0.686-1.117,0.367-1.328C16.786,39.12,16.118,39.327,15.618,39.811z"/>
		<path d="M10.285,38.048c0.075,0.058,0.638-0.403,1.255-1.029s1.085-1.162,1.045-1.198c-0.041-0.035-0.603,0.425-1.256,1.029
			C10.675,37.452,10.209,37.989,10.285,38.048z"/>
		<path d="M10.528,33.918c-0.308-0.349-1.109-0.112-1.828,0.558c-0.718,0.671-1.023,1.462-0.678,1.765
			c0.345,0.303,1.184,0.035,1.862-0.588C10.563,35.029,10.836,34.267,10.528,33.918z"/>
		<path d="M39.484,26.209c0.582-0.624,0.777-1.246,0.504-1.481c-0.274-0.235-0.488-0.576-0.551-0.688
			c-0.061-0.109-0.538,0.231-1.081,0.772c-0.544,0.54-0.642,1.108-0.352,1.428c0.162,0.178,0.286,0.398,0.358,0.686
			c0.019,0.071,0.028,0.14,0.038,0.206C38.418,27.245,38.902,26.833,39.484,26.209z"/>
		<path d="M29.693,33.478c-0.336,0.338-0.673,0.678-1.009,1.017c-0.777,0.785-0.39,1.87,0.45,1.152
			c0.449-0.385,0.85-0.993,1.212-1.735C30.833,32.918,30.471,32.693,29.693,33.478z"/>
	</g>
</g>
<g>
</g>
<g>
</g>
<g>
</g>
<g>
</g>
<g>
</g>
<g>
</g>
<g>
</g>
<g>
</g>
<g>
</g>
<g>
</g>
<g>
</g>
<g>
</g>
<g>
</g>
<g>
</g>
<g>
</g>
</svg>
