<?xml version="1.0" encoding="iso-8859-1"?>
<!-- Generator: Adobe Illustrator 16.0.0, SVG Export Plug-In . SVG Version: 6.00 Build 0)  -->
<!DOCTYPE svg PUBLIC "-//W3C//DTD SVG 1.1//EN" "http://www.w3.org/Graphics/SVG/1.1/DTD/svg11.dtd">
<svg version="1.1" id="Capa_1" xmlns="http://www.w3.org/2000/svg" xmlns:xlink="http://www.w3.org/1999/xlink" x="0px" y="0px"
	 width="43.912px" height="43.912px" viewBox="0 0 43.912 43.912" style="enable-background:new 0 0 43.912 43.912;"
	 xml:space="preserve">
<g>
	<g>
		<path d="M28.216,43.854c2.594-0.163,4.932-0.508,6.5-2.609c1.038-1.392,0.434-5.478,0.017-6.998
			c-0.632-2.309-7.947,1.155-9.324-1.899c-1.203-2.667-0.338-7.829-0.338-10.658c0-0.445-0.236-3.879,0.603-3.879
			c1.577,0,3.154,0,4.731,0c1.115,0,3.633-0.144,4.016-1.56c0.47-1.737,0.724-4.042-0.166-5.66c-0.266-0.484-0.921-1.139-1.449-1.3
			c-2.19-0.67-5.901,1.52-7.349-0.78c-0.294-0.468-0.374-1.366-0.326-1.916c0.154-1.754,0.486-4.573-0.39-5.45
			c-1.513-1.512-3.988-1.208-5.978-0.859c-2.547,0.447-2.161,3.222-3.013,5.203c-1.705,3.964-7.119,2.954-7.119,7.543
			c0,2.076-0.326,4.778,2.562,4.778c3.156,0,1.944,12.365,1.949,14.898C13.162,41.634,20.228,44.36,28.216,43.854z M19.12,1.687
			c0.359-0.375,0.47-0.25,0.109,0.111C18.869,2.16,18.759,2.062,19.12,1.687z M13.301,16.262c-0.146-0.304-0.452-0.301-0.787,0.045
			s-0.9,0.567-1.182,0.351c-0.28-0.217-0.103-0.807,0.284-1.202c0.262-0.269,0.521-0.535,0.776-0.797
			c0.386-0.396,0.698-1.164,0.698-1.716V12.91c0-0.552-0.318-0.687-0.712-0.299c-0.38,0.374-0.761,0.75-1.144,1.125
			c-0.394,0.388-0.728,0.271-0.706-0.261c0.014-0.372,0.034-0.708,0.034-0.963c0-2.504,3.993-3.762,5.623-5.265
			c0.702-0.647,1.107-1.497,1.436-2.364c0.195-0.517,0.65-1.259,1.041-1.65c0.538-0.542,1.077-1.083,1.615-1.625
			c0.39-0.391,0.744-0.711,0.794-0.716c0.027-0.003,0.057-0.006,0.089-0.006c2.465,0,2.182,4.036,2.029,6.222
			c-0.037,0.551,0.044,1.449,0.336,1.918c2.115,3.409,9.248-1.6,9.248,4.86c0,1.015,0.301,3.118-1.12,3.118c-1.404,0-2.81,0-4.214,0
			c-1.031,0-2.189,0.062-3.086,0.639c-2.654,1.709-1.215,8.742-1.215,11.342c0,2.242-0.146,5.118,2.589,5.86
			c1.404,0.381,7.33-0.596,7.33,1.061c0,1.042,0,2.084,0,3.126c0,4.247-3.491,4.212-7.427,4.061c-0.06-0.002-0.12-0.007-0.178-0.012
			c-0.099-0.008-0.155-0.037-0.126-0.066c0.027-0.028-0.039-0.073-0.15-0.099c-0.11-0.025-0.237-0.012-0.282,0.034
			s-0.527,0.046-1.073-0.041c-0.319-0.051-0.634-0.113-0.939-0.186c-0.538-0.126-0.853-0.378-0.717-0.518
			c0.137-0.14-0.098-0.426-0.494-0.687c-0.396-0.26-0.862-0.334-1.067-0.128s-0.771,0.175-1.235-0.124
			c-0.085-0.054-0.168-0.108-0.25-0.166c-0.455-0.312-0.555-0.862-0.26-1.176c0.294-0.312,0.267-0.93,0-1.413
			c-0.048-0.085-0.093-0.171-0.138-0.258c-0.251-0.492-0.727-0.603-1.125-0.22c-0.021,0.021-0.044,0.042-0.065,0.062
			c-0.398,0.382-0.98,0.325-1.244-0.16c-0.175-0.322-0.333-0.659-0.476-1.011c-0.205-0.513-0.009-1.262,0.382-1.653
			c0.231-0.232,0.468-0.469,0.705-0.707c0.391-0.392,0.706-0.731,0.706-0.759c0-0.017,0-0.032,0-0.05c0-0.05,0-0.272,0-0.661
			c0-0.365-0.332-0.358-0.738,0.014c-0.312,0.283-0.624,0.569-0.938,0.855c-0.408,0.372-0.768,0.496-0.8,0.275
			c-0.02-0.132-0.037-0.266-0.05-0.401c-0.097-0.972-0.084-1.976-0.059-2.976c0.016-0.553,0.344-1.319,0.731-1.712
			c0.378-0.383,0.755-0.766,1.134-1.149c0.388-0.393,0.702-0.723,0.702-0.737s-0.223,0.179-0.498,0.433
			c-0.163,0.149-0.329,0.302-0.5,0.458c-0.267,0.247-0.535,0.496-0.803,0.742c-0.405,0.375-0.729,0.468-0.725,0.207
			c0.002-0.158,0.005-0.315,0.005-0.473c0-0.153,0.002-0.313,0.008-0.479c0.009-0.267,0.351-0.785,0.758-1.158
			c0.336-0.31,0.673-0.617,1.01-0.926c0.407-0.374,0.734-1.062,0.732-1.537c-0.003-0.476-0.332-0.556-0.737-0.18
			c-0.295,0.274-0.59,0.549-0.885,0.822c-0.404,0.375-0.698,0.24-0.662-0.303s0.385-1.289,0.789-1.667
			c0.249-0.232,0.499-0.465,0.749-0.699c0.402-0.377,0.729-0.753,0.729-0.841c0-0.088-0.316,0.156-0.707,0.547
			c-0.256,0.256-0.518,0.52-0.788,0.79c-0.39,0.391-0.684,0.261-0.678-0.291c0.004-0.434-0.004-0.863-0.029-1.282
			c-0.031-0.551,0.216-1.316,0.601-1.713c0.202-0.208,0.403-0.416,0.604-0.623c0.386-0.397,0.6-0.893,0.436-1.072
			c-0.164-0.179-0.648,0.028-1.04,0.418c-0.07,0.07-0.142,0.14-0.211,0.21c-0.392,0.39-0.815,0.265-1.05-0.234
			c-0.191-0.405-0.432-0.765-0.733-1.065c-0.078-0.077-0.179-0.135-0.295-0.181c-0.179-0.07-0.263-0.163-0.175-0.25
			C13.578,16.832,13.449,16.565,13.301,16.262z"/>
		<path d="M20.056,5.54c0.266-0.484,0.115-0.588-0.279-0.201c-1.152,1.131-2.315,2.274-3.487,3.426
			c-0.395,0.387-0.68,0.688-0.638,0.674c0.024-0.009,0.05-0.018,0.074-0.029C17.675,8.568,19.108,7.268,20.056,5.54z"/>
	</g>
</g>
<g>
</g>
<g>
</g>
<g>
</g>
<g>
</g>
<g>
</g>
<g>
</g>
<g>
</g>
<g>
</g>
<g>
</g>
<g>
</g>
<g>
</g>
<g>
</g>
<g>
</g>
<g>
</g>
<g>
</g>
</svg>
