<?xml version="1.0" encoding="iso-8859-1"?>
<!-- Generator: Adobe Illustrator 16.0.0, SVG Export Plug-In . SVG Version: 6.00 Build 0)  -->
<!DOCTYPE svg PUBLIC "-//W3C//DTD SVG 1.1//EN" "http://www.w3.org/Graphics/SVG/1.1/DTD/svg11.dtd">
<svg version="1.1" id="Capa_1" xmlns="http://www.w3.org/2000/svg" xmlns:xlink="http://www.w3.org/1999/xlink" x="0px" y="0px"
	 width="56.971px" height="56.971px" viewBox="0 0 56.971 56.971" style="enable-background:new 0 0 56.971 56.971;"
	 xml:space="preserve">
<g>
	<g>
		<path d="M56.678,24.629c-0.283,0.016-0.574,0.023-0.877,0.023c-0.541,0-1.086-0.021-1.654-0.069
			c-0.559-0.062-1.069-0.144-1.534-0.246c-0.839-0.184-0.581-0.483,0.493-0.744c0.748-0.181,1.416-0.442,2.006-0.783
			c0.502-0.291,0.927-0.615,1.275-0.971c0.621-0.635,0.612-1.205,0.267-1.081c-0.188,0.067-0.399,0.137-0.632,0.208l-1.747,0.401
			c-0.648,0.106-1.296,0.137-1.95,0.106c-0.307-0.017-0.59-0.043-0.854-0.082c-0.467-0.069-0.863-0.326-0.902-0.499
			c-0.025-0.111-0.051-0.215-0.072-0.313l-0.143-0.563c-0.373-1.264-0.961-2.442-1.756-3.544c-0.793-1.102-1.722-2.065-2.771-2.878
			c-0.643-0.502-1.331-0.916-2.055-1.26c-1.227-0.741-2.59-1.263-4.01-1.496c0.147-0.044,0.41-0.108,0.815-0.197
			c0.429-0.098,0.867-0.21,1.294-0.349c0.436-0.146,0.809-0.314,1.109-0.513c0.302-0.197,0.383-0.438,0.244-0.719
			c-0.09-0.238-0.393-0.327-0.893-0.278c-0.008,0.001-0.018,0.003-0.027,0.004c-0.015-0.181-0.051-0.357-0.127-0.532l-0.062-0.142
			l-0.162,0.015c-0.517,0.048-1.039,0.118-1.558,0.206c-0.103-0.188-0.444-0.295-0.858-0.179c-0.058,0.017-0.112,0.043-0.169,0.061
			c0.004-0.172-0.043-0.348-0.175-0.497c-0.318-0.351-0.815-0.194-1.015-0.118c-0.517,0.178-1.004,0.374-1.502,0.588l-0.017,0.006
			l-0.019,0.012c-0.19,0.118-0.381,0.237-0.566,0.344c0-0.001,0-0.002-0.001-0.003c-0.043-0.09-0.123-0.137-0.2-0.171
			c-0.083-0.021-0.175-0.026-0.219-0.019c-0.116,0.008-0.197,0.031-0.283,0.055c-0.652,0.204-1.21,0.505-1.75,0.905L33.607,9.33
			L33.59,9.348c-0.959,1.047-1.854,2.132-2.678,3.298c-0.794,1.196-1.469,2.422-2.124,3.68c-0.332,0.639-0.626,1.257-0.918,1.913
			l-0.11,0.243l-0.046,0.1l-0.061,0.117c-0.074,0.121-0.138,0.198-0.255,0.284c-0.209,0.158-0.502,0.227-0.792,0.208
			c-0.132-0.005-0.265-0.035-0.391-0.076c-0.059-0.051-0.094-0.081-0.094-0.081c-0.425-0.351-0.846-0.627-1.267-0.865
			c-0.541-0.39-1.071-0.771-1.735-1.068l0.029,0.013c-2.319-1.208-4.695-2.285-7.102-3.276c-1.206-0.494-2.417-0.962-3.633-1.415
			l-1.83-0.668c-0.308-0.108-0.638-0.209-0.963-0.284c-0.165-0.039-0.331-0.073-0.503-0.098C9.03,11.36,8.942,11.35,8.846,11.344
			c-0.049-0.002-0.098-0.004-0.16-0.001c-0.023,0-0.077,0.008-0.115,0.015c-0.017,0.001-0.083,0.024-0.119,0.044
			c-0.003-0.021-0.195,0.142-0.193,0.283l0.001,0.061c0.041,1.418,0.572,2.717,1.382,3.829c0.423,0.552,0.923,1.023,1.458,1.44
			c0.273,0.207,0.546,0.392,0.781,0.581c0.049,0.04,0.097,0.082,0.143,0.123l-0.826,0.159l-0.262,0.049l-0.065,0.012l-0.032,0.006
			l-0.068,0.019l-0.008,0.003l-0.016,0.006l-0.063,0.025c-0.049,0.027-0.098,0.061-0.143,0.1c-0.265,0.286-0.249,0.487-0.292,0.699
			c-0.059,0.812,0.095,1.541,0.457,2.259l0.02,0.04l0.033,0.03c0.938,0.863,1.934,1.572,3.086,2.112
			c0.298,0.134,0.594,0.223,0.863,0.328c0.001,0.001,0.002,0.001,0.004,0.002c-0.444,0.109-0.894,0.245-1.327,0.403l-0.026,0.01
			l-0.02,0.013c-0.299,0.196-0.485,0.439-0.65,0.71c-0.133,0.274-0.342,0.572-0.16,1.047c0.409,0.546,0.757,0.872,1.15,1.308
			l0.025,0.028l0.031,0.017c0.822,0.45,1.642,0.831,2.535,1.123c0.45,0.125,0.904,0.179,1.358,0.206
			c0.073,0.016,0.134,0.042,0.21,0.056c0.136,0.026,0.282,0.041,0.425,0.06c-0.099,0.073-0.199,0.146-0.294,0.226
			c-0.024,0.021-0.048,0.042-0.072,0.062c-0.037,0.03-0.073,0.064-0.11,0.097c-0.166,0.14-0.332,0.275-0.482,0.465
			c-0.036,0.038-0.073,0.064-0.109,0.104c-0.037,0.059-0.081,0.184-0.083,0.187c-0.001,0.003-0.001,0.005-0.002,0.008
			c-0.154,0.385-0.093,0.787-0.033,1.139c0.093,0.427,0.226,0.838,0.449,1.249l0.031,0.059l0.06,0.022
			c0.577,0.225,1.16,0.411,1.773,0.57c0.183,0.042,0.375,0.083,0.573,0.11c0.182,0.067,0.367,0.131,0.564,0.169
			c-1.215,0.878-2.456,1.691-3.637,2.322c-0.69,0.376-1.416,0.582-2.075,0.747c-0.659,0.161-1.267,0.254-1.789,0.285
			c-0.1-0.059,1.526-0.334,3.033-0.935c1.436-0.67,2.811-1.663,2.64-1.668c-0.908,0.438-2.084,1.223-3.474,1.605
			c-1.42,0.424-3.082,0.729-4.703,0.74c-1.642,0.019-3.21-0.192-4.541-0.532c-1.317-0.286-2.318-0.815-3.012-1.055
			c-0.799-0.464-1.601-0.956-2.361-1.472L0,33.763c2.138,2.39,4.465,4.608,7.205,6.451c1.56,0.957,3.197,1.737,4.885,2.378
			c-0.689,0.062-1.378,0.12-2.062,0.195C9.043,42.9,8.065,43.029,7.095,43.21c-0.135,0.029-0.27,0.058-0.404,0.084
			c-0.11-0.136,0.48-0.352,0.315-0.481c-0.693-0.1-1.362,0.041-1.807,0.267c-0.45,0.228-0.652,0.525-0.477,0.628
			c-0.232,0.032-0.479,0.068-0.767,0.203c-0.143,0.067-0.303,0.165-0.459,0.348c-0.077,0.092-0.153,0.209-0.206,0.355
			c-0.03,0.069-0.045,0.152-0.061,0.232l-0.005,0.029l-0.001,0.004l0.003,0.08l-0.001,0.003l-0.001,0.005l-0.006,0.022l-0.013,0.044
			c0,0.087,0.019,0.226,0.044,0.325c0.019,0.074,0.042,0.153,0.069,0.224c0.053,0.136,0.115,0.252,0.179,0.357
			c0.127,0.201,0.254,0.354,0.381,0.494c0.249,0.268,0.494,0.479,0.738,0.671c0.972,0.747,1.973,1.241,2.938,1.522
			c0.327-0.047-0.466-0.46,0.057-0.442c2.087,1.555,5.834,1.52,6.019,0.846c-1.413-0.152-2.84-0.497-4.254-0.969
			c-1.137-0.391-2.277-0.844-3.367-1.42c0.083,0.037,0.165,0.076,0.249,0.111c0.852,0.352,1.731,0.617,2.622,0.838
			c1.782,0.438,3.612,0.691,5.459,0.847c3.698,0.302,7.468,0.19,11.212-0.028c3.748-0.225,7.468-0.559,11.123-0.82l5.444-0.364
			c0.905-0.062,1.808-0.121,2.729-0.222c0.463-0.053,0.928-0.111,1.422-0.22c0.248-0.056,0.504-0.122,0.787-0.233
			c0.279-0.127,0.604-0.234,0.992-0.71c0.104-0.346,0.069-0.67-0.025-0.821c-0.092-0.156-0.201-0.161-0.307-0.102
			c-0.195,0.152-0.529,0.436-0.89,0.447c-0.699,0.068-1.674-0.01-2.95-0.008c-2.529-0.017-6.08,0.095-9.314,0.803
			c-0.416-0.263,0.277-0.571-1.084-0.797c-5.306-0.117-11.133,1.229-16.777,1.328c-1.147-0.965-5.274-1.442-7.021-0.971
			c-0.182,0.477,2.69,0.507,2.579,0.842c-1.055,0.412-2.822,0.068-4.45-0.367l-2.154-0.62c-0.015-0.006-0.032-0.01-0.047-0.017
			c-0.423-0.176-0.925-0.449-1.042-0.662c-0.005-0.002-0.004-0.009-0.004-0.016c0.023,0.001,0.028-0.026,0.081-0.066
			c0.105-0.099,0.3-0.208,0.504-0.297c0.415-0.183,0.893-0.319,1.373-0.438c1.944-0.458,4.011-0.688,6.077-0.894
			c0.314-0.03,0.631-0.051,0.946-0.077c0.905,0.292,1.819,0.555,2.751,0.764c3.196,0.676,6.45,0.937,9.677,0.641
			c2.9-0.273,5.703-0.868,8.367-1.823c2.709,0.128,5.396,0.342,7.994,0.783c0.521,0.09,1.044,0.178,1.557,0.293
			c0.758,0.173,2.16,0.356,2.838,0.712c0.361,0.158,0.41,0.485,0.461,0.376c0.033-0.012,0.029-0.267-0.148-0.46
			c-0.126-0.154-0.346-0.3-0.609-0.438c-0.062-0.034-0.121-0.065-0.193-0.1c-0.031-0.015-0.051-0.03-0.083-0.044
			c-0.04-0.018-0.082-0.026-0.123-0.042c-0.086-0.036-0.157-0.072-0.257-0.107c-0.178-0.062-0.356-0.114-0.536-0.167
			c-0.056-0.017-0.112-0.036-0.169-0.052c-0.322-0.092-0.646-0.175-0.971-0.249c-0.141-0.034-0.309-0.063-0.484-0.09
			c-1.096-0.223-2.207-0.371-3.322-0.516c-1.549-0.18-3.113-0.294-4.682-0.385c1.178-0.534,1.447-0.757,1.507-0.841
			c0.03-0.052-0.004-0.072,0.005-0.112c0.684-0.292,1.357-0.602,2.012-0.94c2.869-1.489,5.346-3.374,7.424-5.659
			c1.619-1.765,2.842-3.716,3.668-5.845c0.399-1.029,1.521-1.874,2.613-2.029c0.807-0.115,1.512-0.305,2.117-0.573
			c0.497-0.221,0.952-0.46,1.366-0.717C57.049,25.031,57.162,24.603,56.678,24.629z M13.988,22.929
			c-1.092-0.503-2.1-1.214-2.993-2.033c-0.151-0.292-0.261-0.606-0.334-0.93c-0.01-0.046-0.02-0.092-0.028-0.139
			c-0.061-0.326-0.086-0.659-0.06-0.99c0.022-0.173,0.053-0.362,0.179-0.493c0.136-0.122,0.337-0.101,0.505-0.15l1.053-0.206h0.001
			c0.075-0.009,0.175-0.017,0.203-0.089c0.024-0.072-0.034-0.149-0.08-0.21c-0.1-0.126-0.226-0.232-0.351-0.336
			c-0.254-0.204-0.526-0.386-0.788-0.584c-0.518-0.401-1-0.855-1.403-1.378c-0.778-1.056-1.303-2.336-1.334-3.671v-0.004
			l0.001-0.001c0.117-0.129,0.185-0.056,0.272-0.074c0.083,0.005,0.164,0.014,0.244,0.026c0.161,0.023,0.32,0.055,0.478,0.092
			c0.315,0.072,0.627,0.166,0.933,0.272l1.822,0.661c0.465,0.172,0.926,0.361,1.39,0.539c-0.671-0.251-1.362-0.506-2.091-0.768
			c-1.039-0.374-1.901-0.582-1.912-0.475c-0.007,0.068-0.01,0.133-0.01,0.194c0,0.936,0.316,1.949,0.946,3.022
			c0.474,0.79,1.176,1.517,2.112,2.179c0.902,0.638,1.379,0.94,0.954,0.965c-0.23,0.014-0.485,0.049-0.763,0.107
			c-0.321,0.062-0.639,0.121-0.954,0.176c-0.528,0.092-0.828,0.986-0.34,1.869c0.286,0.516,0.654,0.999,1.103,1.447
			c0.451,0.45,1.057,0.847,1.812,1.19C14.363,23.073,14.171,23.009,13.988,22.929z M15.413,23.486
			c0.014,0.005,0.025,0.009,0.039,0.014c0.02,0.026,0.041,0.04,0.06,0.084c0.024,0.14-0.082,0.186-0.107,0.199
			c-0.042,0.021-0.067,0.02-0.092,0.026c-0.051,0-0.06-0.005-0.039-0.023c0.066-0.018,0.155-0.017,0.183-0.171
			c-0.05-0.134-0.132-0.141-0.197-0.187c-0.031-0.016-0.063-0.026-0.094-0.04C15.25,23.419,15.325,23.456,15.413,23.486z
			 M16.163,24.139c-0.438,0.07-0.818,0.167-1.143,0.289c-0.294,0.109-0.573,0.245-0.837,0.406c-0.439,0.268-0.569,0.864-0.306,1.215
			c0.156,0.208,0.326,0.411,0.51,0.608c0.125,0.132,0.277,0.256,0.424,0.382c-0.28-0.111-0.563-0.222-0.821-0.34l0.037,0.035
			l-0.05-0.04c0.004,0.002,0.009,0.003,0.013,0.005l-0.377-0.351c0.145,0.075,0.018-0.14-0.287-0.541l-0.245-0.326
			c0.001-0.005-0.014-0.038,0.029-0.175c0.073-0.231,0.31-0.577,0.551-0.747c-0.015,0.005-0.032,0.011-0.046,0.017l0.062-0.03
			c-0.005,0.004-0.011,0.01-0.016,0.014c0.371-0.139,0.793-0.284,1.212-0.407c0.112-0.033,0.199-0.054,0.338-0.085
			c0.07-0.018,0.14-0.034,0.241-0.08c0.053-0.039,0.129-0.039,0.224-0.223c0.022-0.066,0.023-0.123,0.017-0.176
			C16.508,23.889,16.744,24.045,16.163,24.139z M19.268,29.146c-0.438,0.289-0.734,0.6-0.888,0.934
			c-0.128,0.271-0.19,0.529-0.198,0.779c-0.018-0.052-0.043-0.104-0.058-0.154c-0.098-0.265-0.091-0.522-0.128-0.646
			c-0.001,0.002-0.003,0.004-0.005,0.008c-0.012-0.032-0.048-0.104-0.048-0.104l0.013,0.016l0.025,0.028
			c0.007,0.012,0.01,0.034,0.015,0.052c0.006-0.012,0.011-0.021,0.025-0.039c0.037-0.05,0.092-0.112,0.148-0.173
			c0.115-0.124,0.246-0.251,0.38-0.376c0.266-0.249,0.559-0.504,0.829-0.718l0.171-0.136c0.112-0.003,0.223-0.004,0.339-0.012
			C20.188,28.583,19.87,28.748,19.268,29.146z M4.543,44.896c-0.033,0.044-0.035-0.022-0.047-0.045
			c0.07,0.054,0.028,0.017,0.055,0.029C4.549,44.884,4.55,44.878,4.543,44.896z M16.762,36.05c1.648-0.873,3.109-1.888,4.557-2.967
			c0.062,0,0.123-0.005,0.185-0.008c-0.858,0.686-1.728,1.315-2.624,1.927c-0.856,0.56-1.724,1.162-2.753,1.563
			c-1.14,0.343-2.293,0.562-3.458,0.647C14.075,37.012,15.451,36.633,16.762,36.05z M36.902,9.15
			c0.249-0.44-0.471-0.463-1.288,0.179c-0.49,0.385-0.951,0.81-1.381,1.275c-0.868,0.936-1.642,1.971-2.332,3.092
			c-0.69,1.123-1.339,2.3-1.956,3.531c-0.307,0.617-0.592,1.235-0.86,1.855c-0.439,1.014-1.246,1.427-1.857,0.902
			c-0.232-0.199-0.435-0.374-0.613-0.527c0.33,0.015,0.673-0.06,0.938-0.255c0.291-0.191,0.415-0.525,0.56-0.847
			c0.286-0.643,0.586-1.275,0.911-1.901c0.647-1.247,1.327-2.479,2.104-3.654c0.811-1.15,1.707-2.238,2.656-3.274l0.001-0.001l0,0
			c0.502-0.374,1.062-0.673,1.658-0.859c0.075-0.022,0.151-0.041,0.229-0.045c0.053-0.011,0.147-0.001,0.166,0.059
			c-0.017,0.006-0.035,0.015-0.043,0.018c-0.012,0.004,0.002-0.003,0.004,0.001c0.014-0.002,0.026,0.004,0.041,0.006
			c0,0.007,0.004,0.012,0,0.02c-0.02,0.074-0.082,0.141-0.072,0.216c0.056,0.052,0.146-0.011,0.211-0.034
			c0.014-0.007,0.027-0.017,0.041-0.024c0.007,0.036,0.01,0.059,0.009,0.066c0.001-0.002,0-0.004,0.004-0.005l0.037-0.078
			l0.006-0.015c0.242-0.129,0.476-0.276,0.708-0.421c0.486-0.209,0.979-0.407,1.48-0.58c0.235-0.089,0.547-0.16,0.735,0.047
			c0.106,0.115,0.125,0.271,0.093,0.418c-0.233,0.08-0.472,0.151-0.699,0.252c-0.369,0.168-0.727,0.361-1.07,0.58
			C36.754,9.507,36.653,9.589,36.902,9.15z M38.686,9.64c0.277-0.124,0.572-0.265,0.883-0.421c0.309-0.152,0.557-0.325,0.744-0.521
			c0.033-0.035,0.053-0.07,0.072-0.104c0.518-0.088,1.039-0.149,1.562-0.2c0.058,0.135,0.085,0.281,0.097,0.428
			c-0.431,0.053-0.888,0.14-1.4,0.275c-0.621,0.16-1.207,0.344-1.758,0.544c-0.209,0.075-0.392,0.139-0.547,0.192
			C38.033,9.938,38.194,9.86,38.686,9.64z M39.186,11.272c-0.127,0-0.256,0.002-0.385,0.008c-0.213,0.009-0.095-0.076,0.266-0.202
			c0.035-0.013,0.066-0.023,0.101-0.035c0.709,0.077,1.408,0.226,2.085,0.442C40.572,11.349,39.883,11.272,39.186,11.272z"/>
		<path d="M8.263,11.961L8.26,11.747c0-0.009-0.003-0.017-0.003-0.025L8.263,11.961z"/>
	</g>
</g>
<g>
</g>
<g>
</g>
<g>
</g>
<g>
</g>
<g>
</g>
<g>
</g>
<g>
</g>
<g>
</g>
<g>
</g>
<g>
</g>
<g>
</g>
<g>
</g>
<g>
</g>
<g>
</g>
<g>
</g>
</svg>
