<?xml version="1.0" encoding="iso-8859-1"?>
<!-- Generator: Adobe Illustrator 16.0.0, SVG Export Plug-In . SVG Version: 6.00 Build 0)  -->
<!DOCTYPE svg PUBLIC "-//W3C//DTD SVG 1.1//EN" "http://www.w3.org/Graphics/SVG/1.1/DTD/svg11.dtd">
<svg version="1.1" id="Capa_1" xmlns="http://www.w3.org/2000/svg" xmlns:xlink="http://www.w3.org/1999/xlink" x="0px" y="0px"
	 width="54.422px" height="54.422px" viewBox="0 0 54.422 54.422" style="enable-background:new 0 0 54.422 54.422;"
	 xml:space="preserve">
<g>
	<g>
		<path d="M52.691,25.196c-0.971-0.085-0.957-0.452-0.125-1.178c0.86-0.748,1.64-1.601,1.773-1.825
			c0.02-0.037,0.025-0.068,0.018-0.099c-0.016-0.055-0.112-0.131-0.174-0.198c-0.035-0.041-0.072-0.081-0.109-0.122
			c-0.252-0.282-1.189,0.056-1.457,0.144c-4.965,1.634-4.391-1.259-6.135-4.141c-1.232-2.034-3.808-4.053-6.14-4.603
			c-0.366-0.086-0.646-0.151-0.877-0.203c-0.485-0.107-0.871-0.193-0.854-0.237c0.016-0.043,0.043-0.081,0.063-0.086
			c0.011-0.003,0.022-0.005,0.037-0.008c0.407-0.093,0.824-0.2,1.229-0.332c0.414-0.139,0.769-0.298,1.055-0.487
			c0.133-0.087,0.221-0.183,0.263-0.287c0.081-0.202,0.005-0.452,0.04-0.54c0.021-0.052,0.041-0.105,0.061-0.162
			c0.051-0.152-0.058-0.185-0.184-0.225c-0.443-0.138-0.888-0.201-1.332-0.209c-0.747-0.014-1.291,0-1.265-0.164
			c0.014-0.09,0.021-0.188,0.018-0.298c-0.004-0.14-0.331-0.139-0.395-0.145c-0.567-0.05-1.106-0.004-1.626,0.11
			c-0.883,0.195-1.926,0.395-2.398,0.501c-0.333,0.076-0.658,0.207-0.826,0.287c-3.5,1.66-4.838,5.089-6.598,8.219
			c-0.541,0.963-1.424,1.465-1.866,1.131c-0.289-0.219-0.56-0.435-0.8-0.608c-1.913-1.386-4.546-2.229-6.693-3.17
			c-2.464-1.08-5.374-2.599-8.084-2.871c-0.439-0.044-2.037,0.096-2.07,0.734c-0.065,1.22,0.4,1.979,0.889,3.057
			c0.158,0.349,0.71,0.83,1.29,1.314c0.786,0.655,0.458,1.279-0.091,2.058c-0.265,0.376-0.37,0.903-0.24,1.661
			c0.249,1.446,3.975,3.184,3.961,3.188c-0.332,0.118-2.061,0.765-1.938,1.477c0.237,1.381,1.715,2.427,3.033,2.775
			c2.578,0.683,2.52-0.573,1.367,1.563c-0.653,1.211,0.402,2.592,1.566,2.812c0.338,0.064,0.628,0.138,0.91,0.192
			c0.505,0.099,0.189,0.594-0.78,1.125c-3.756,2.058-7.419,2.491-10.992,1.304c-1.048-0.349-2.308-1.062-2.899-1.384
			c-0.357-0.195-0.72-0.378-1.09-0.55c-0.337-0.165-2.46,0.315-2.206,0.685c6.505,9.458,21.402,10.968,31.52,7.646
			c4.812-1.58,9.662-3.939,12.986-7.902c1.851-2.205,3.07-6.374,6.019-7.164c1.397-0.375,2.724-1.006,3.769-2.01
			c0.097-0.093,0.162-0.183,0.045-0.286C54.031,25.391,53.386,25.257,52.691,25.196z M37.521,12.713
			c0.207,0.007,0.207,0.014,0,0.004C37.312,12.708,37.312,12.706,37.521,12.713z M48.732,27.738
			c-3.019,1.322-3.513,3.872-5.355,6.528c-5.389,7.758-17.181,10.993-27.248,8.97c-1.083-0.218-1.333-1.041-0.578-1.753
			c0.755-0.713,1.352-1.3,1.334-1.312c-0.017-0.011-0.631,0.566-1.371,1.289c-0.74,0.725-1.835,1.177-2.435,0.979
			c-0.6-0.197-0.725-0.735-0.29-1.176s0.41-0.451-0.057-0.022c-0.466,0.429-1.687,0.468-2.684-0.008
			c-1.451-0.693-2.81-1.527-4.046-2.507c-0.865-0.687-1.446-1.304-1.38-1.283s0.185,0.077,0.267,0.129
			c0.082,0.051,0.166,0.08,0.186,0.062c0.02-0.02,0.887,0.252,1.973,0.454c0.472,0.088,0.948,0.152,1.432,0.19
			c1.101,0.086,1.703,0.272,1.339,0.61c-0.364,0.338-0.271,0.72,0.213,0.818c0.485,0.101,1.371-0.292,1.974-0.846
			c0.604-0.553,1.971-1.173,3.037-1.462c2.507-0.68,5.227-1.812,5.889-3.755c0.104-0.307-0.478-0.239-0.622-0.233
			c-0.37-0.007-0.692-0.042-0.969-0.101c-0.527-0.113-0.608-0.641-0.262-0.961c0.346-0.321,0.528-0.595,0.405-0.61
			c-0.076-0.01-0.151-0.021-0.223-0.035c-0.205-0.038-0.397-0.085-0.581-0.141c-0.317-0.096-0.443-0.595-0.203-1.042
			c0.24-0.447,0.57-0.83,0.661-0.914c0.061-0.055,0.106-0.122,0.089-0.193c-0.009-0.036-0.018-0.071-0.027-0.108
			c-0.033-0.137-0.303-0.148-0.394-0.145c-1.059,0.038-1.934-0.05-2.616-0.236c-1.065-0.292-1.317-1.387-0.956-1.758
			s0.447-0.771,0.205-0.912c-0.242-0.142-0.474-0.227-0.532-0.167c-0.059,0.058,0.071-0.187,0.349-0.498
			c0.155-0.174,0.333-0.353,0.538-0.532c0.062-0.055,0.196-0.222,0.046-0.286c-0.205-0.086-0.735-0.4-1.37-0.825
			c-0.735-0.491-1.283-1.144-1.141-1.351c0.094-0.136,0.219-0.227,0.365-0.253c0.066-0.011,0.132-0.024,0.199-0.036
			c0.11-0.021,0.378-0.213,0.597-0.429c0.219-0.216,0.292-0.466,0.163-0.558c-0.073-0.052-0.151-0.106-0.233-0.165
			c-0.13-0.092-0.253-0.185-0.372-0.279c-0.201-0.16-0.704,0.058-1.131,0.499c-0.427,0.44-0.976,0.619-1.203,0.375
			c-0.228-0.244-0.136-0.717,0.165-1.024c0.302-0.308,0.803-0.603,1.082-0.748c0.197-0.103,0.339-0.237,0.353-0.414
			c0.056-0.679-0.68-1.391-1.52-2.204c-0.793-0.769-1.206-1.619-1.003-1.823c0.203-0.205,0.97-0.161,1.699,0.132
			s1.239,0.625,1.152,0.71c-0.087,0.085,0.203,0.284,0.646,0.446c0.443,0.161,0.848,0.25,0.904,0.192
			c0.056-0.057,0.136-0.086,0.178-0.064c0.042,0.021,0.034,0.081-0.019,0.135c-0.053,0.054-0.081,0.102-0.064,0.108
			c0.017,0.008,0.072-0.03,0.124-0.084c0.051-0.052,0.343,0.025,0.652,0.175c0.308,0.148,0.533,0.294,0.504,0.322
			c-0.028,0.029,0.226,0.16,0.566,0.293c0.34,0.135,0.577,0.281,0.528,0.327c-0.048,0.045-0.273,0.418-0.493,0.836
			c-0.132,0.25-0.263,0.503-0.392,0.76c-0.052,0.104-0.1,0.21-0.148,0.314c-0.079,0.175,0.329-0.118,0.911-0.653
			c0.582-0.534,1.194-0.899,1.37-0.814c0.108,0.053,0.216,0.104,0.32,0.152c0.159,0.073,0.319,0.158,0.48,0.25
			c0.261,0.147,0.037,0.683-0.494,1.181c-0.53,0.498-1.144,1.237-1.365,1.655c-0.132,0.25-0.263,0.503-0.391,0.759
			c-0.052,0.104-0.1,0.21-0.148,0.314c-0.079,0.176,0.517-0.291,1.33-1.039c0.261-0.239,0.532-0.489,0.815-0.751
			c0.812-0.748,2.194-0.826,3.133-0.246c0.157,0.098,0.314,0.19,0.472,0.279c0.963,0.54,1.405,1.133,0.847,1.65
			c-0.558,0.518-0.786,1.13-0.509,1.368c0.147,0.126,0.317,0.271,0.501,0.431c0.028,0.023,0.056,0.044,0.085,0.062
			c0.049,0.031,0.539-0.365,1.092-0.881c0.553-0.515,1.091-1.128,1.201-1.369c0.066-0.145,0.133-0.288,0.204-0.433
			c0.037-0.073,0.075-0.144,0.112-0.215c0.063-0.118,0.145-0.229,0.183-0.247c0.023-0.011,0.047-0.022,0.068-0.035
			c2.753-1.67,3.198-5.489,5.108-8.241c0.63-0.906,1.732-1.492,2.208-1.613c0.397-0.103,0.765-0.232,0.843-0.278
			c1.167-0.682,0.053,0.132-0.178,0.239c-0.907,0.419-0.201,0.651,0.433,0.531c3.56-0.676,1.213-0.066-0.25,1.048
			c-0.302,0.229,0.083,0.356,0.285,0.353c0.269-0.005,0.53,0,0.788,0.014c0.436,0.025,0.388,0.449-0.102,0.91
			c-0.492,0.461-1.074,1.169-1.293,1.587c-0.133,0.25-0.264,0.503-0.393,0.76c-0.053,0.104-0.1,0.209-0.146,0.313
			c-0.08,0.175,0.516-0.29,1.328-1.038c0.311-0.285,0.637-0.585,0.978-0.898c0.812-0.749,1.753-1.288,2.094-1.178
			c0.343,0.11,0.593,0.238,0.572,0.259c-0.022,0.02-0.224,0.371-0.444,0.789c-0.132,0.25-0.263,0.504-0.393,0.761
			c-0.051,0.104-0.1,0.21-0.147,0.314c-0.079,0.175,0.302-0.093,0.853-0.599c0.55-0.505,1.256-0.781,1.563-0.592
			c0.31,0.188,0.524,0.382,0.496,0.409c-0.028,0.026,0.006,0.058,0.075,0.071c0.07,0.016,0.863,0.544,1.638,1.332
			c0.925,0.94,1.722,2.029,2.431,3.202c1.006,1.659,0.26,2.27,1.812,3.125c0.784,0.434,2.894,0.111,3.519-0.003
			c5.168-0.95-0.359,1.09-2.459,1.963c-0.113,0.046-0.682,0.324-0.422,0.513c0.148,0.109,0.299,0.218,0.447,0.326
			c0.03,0.022,0.08,0.026,0.12,0.039c0.039,0.011,0.071,0.02,0.099,0.025c0.055,0.012,0.775,0.143,1.616,0.218
			c0.394,0.035,0.815,0.054,1.526,0.084C52.248,26.338,49.186,27.539,48.732,27.738z"/>
	</g>
</g>
<g>
</g>
<g>
</g>
<g>
</g>
<g>
</g>
<g>
</g>
<g>
</g>
<g>
</g>
<g>
</g>
<g>
</g>
<g>
</g>
<g>
</g>
<g>
</g>
<g>
</g>
<g>
</g>
<g>
</g>
</svg>
