<?xml version="1.0" encoding="iso-8859-1"?>
<!-- Generator: Adobe Illustrator 16.0.0, SVG Export Plug-In . SVG Version: 6.00 Build 0)  -->
<!DOCTYPE svg PUBLIC "-//W3C//DTD SVG 1.1//EN" "http://www.w3.org/Graphics/SVG/1.1/DTD/svg11.dtd">
<svg version="1.1" id="Capa_1" xmlns="http://www.w3.org/2000/svg" xmlns:xlink="http://www.w3.org/1999/xlink" x="0px" y="0px"
	 width="34.389px" height="34.389px" viewBox="0 0 34.389 34.389" style="enable-background:new 0 0 34.389 34.389;"
	 xml:space="preserve">
<g>
	<g>
		<path d="M29.652,17.161c-0.736-0.823-0.752-2.181-0.395-3.209c0.211-0.606,0.325-1.257,0.325-1.938
			c0-1.104-0.306-2.134-0.829-3.02c-0.373-0.881-0.91-1.744-1.652-2.502c-0.86-0.874-2.037-1.604-3.391-1.796
			c-1.359-0.177-2.64,0.124-3.748,0.723c-0.3,0.069-0.229-0.048-0.318-0.086c-0.08-0.023-0.365-0.03-1.267,0.564
			c-1.303,0.997-2.334,7.551-2.156,7.993l0.218,0.492c0.059,0.138,0.117,0.277,0.164,0.414c0.207,0.551,0.238,1.104,0.144,1.201
			c0.023-0.021-0.003,0.056-0.076,0.061c-0.076,0.022-0.271-0.032-0.398-0.128c-0.008,0.042-0.119-0.175-0.166-0.075
			c0.077-0.067,0.008-0.012,0.009-0.062c-0.036-0.041-0.073-0.159-0.106-0.277c-0.06-0.253-0.08-0.573-0.074-0.895
			c0.001-0.073-0.006-0.21-0.019-0.386c0.026-0.097,0.054-0.193,0.086-0.286c0.211-0.606,0.326-1.257,0.326-1.938
			c0-1.829-0.826-3.464-2.124-4.556c-0.17-0.397-0.564-0.993-1.232-1.561c-0.665-0.565-1.622-1.1-2.762-1.232
			c-1.096-0.127-2.19,0.083-3.091,0.489c-0.901,0.4-1.567,0.987-1.947,1.477C5.202,6.775,5.93,6.096,6.831,5.685
			c0.891-0.437,1.888-0.561,1.844-0.459C8.005,5.463,7.11,5.782,6.238,6.379C5.369,6.967,4.544,7.843,4.043,8.881
			c-0.515,1.031-0.677,2.193-0.558,3.136c0.001,0.013,0.005,0.022,0.007,0.035c0.024,0.312,0.063,0.623,0.139,0.932
			c0.1,0.468,0.319,0.919,0.432,1.315c0.116,0.417,0.169,0.854,0.137,1.277c-0.029,0.42-0.154,0.836-0.382,1.15L2.954,17.8
			c-0.576,0.747-1.197,1.389-1.742,2.245c-0.254,0.414-0.477,0.84-0.679,1.278c-0.196,0.455-0.394,0.849-0.501,1.436L0,22.936
			l0.159,0.137c0.251,0.214,0.524,0.443,0.834,0.64c0.156,0.098,0.323,0.191,0.52,0.262c0.269,0.091,0.379,0.076,0.493,0.122
			c0.46,0.132,0.69,0.693,0.796,1.318c0.14,0.763,0.534,1.389,0.959,1.952c0.438,0.556,0.944,1.077,1.589,1.451
			c0.562,0.319,1.159,0.502,1.765,0.606c0.35,0.12,0.739,0.218,1.181,0.274c0,0,2.756,0.319,5.965-0.482
			c0,0,0.963-0.178,1.898-0.855c0.436-0.315,0.774-0.622,1.027-0.826c0.497,0.56,1.066,1.048,1.771,1.371
			c0.301,0.143,0.615,0.242,0.934,0.324c0.457,0.208,1.004,0.384,1.662,0.468c0,0,2.762,0.319,5.961-0.482
			c0,0,1.424-0.257,2.493-1.354c0.771-0.792,1.353-1.72,1.771-1.867s1.537-0.801,2.188-1.693c0.441-0.603,0.654-1.339,0.051-2.116
			C33.289,21.251,31.24,18.934,29.652,17.161z M1.213,22.694c-0.03,0.313-0.001,0.627,0.157,0.829
			c-0.36-0.191-0.688-0.457-0.988-0.717l-0.007-0.005l0.002-0.006c0.146-0.692,0.471-1.321,0.786-1.94
			c0.319-0.622,0.723-1.185,1.179-1.709l0.916-1.112c0.104-0.002-0.353,0.634-0.183,0.556c0.311-0.287,0.602-0.589,0.858-0.88
			c0.249-0.296,0.485-0.533,0.651-0.916c0.264-0.656,0.152-1.059,0.063-0.932c0.157-0.546,0.19-1.182,0.08-1.84
			c-0.048-0.211-0.089-0.397-0.126-0.578c0.077,0.309,0.173,0.609,0.296,0.897c0.438,1.014,0.523,2.373-0.162,3.239l-2.057,2.593
			C1.994,21.038,1.267,22.155,1.213,22.694z M5.492,28.538c-0.593-0.35-1.074-0.849-1.489-1.381
			c-0.403-0.539-0.767-1.14-0.882-1.816c-0.06-0.357-0.178-0.736-0.378-1.044c0.647,0.148,1.016,0.629,1.187,1.645
			c0.004,0.027,0.008,0.055,0.014,0.082c0.157,0.849,0.922,1.909,1.712,2.586C5.602,28.582,5.544,28.567,5.492,28.538z M8.028,6.541
			C7.329,6.725,6.646,7.039,6.062,7.496c-1.1,0.827-1.891,2.142-2.111,3.605C4.037,10.37,4.248,9.659,4.6,9.014
			c0.802-1.496,2.287-2.593,3.947-2.896c0.414-0.075,0.838-0.107,1.259-0.086c0.105,0.005,0.211,0.026,0.315,0.04
			C9.382,6.104,8.675,6.264,8.028,6.541z M17.428,27.365c0.133-0.078,0.229-0.097,0.287-0.01c0.11,0.166,0.448,0.614,0.932,1.053
			C18.191,28.127,17.788,27.766,17.428,27.365z M23.633,6.06c-3.291,0-5.953,2.667-5.953,5.955c0,0.826,0.17,1.609,0.477,2.322
			c0.435,1.015,0.67,2.189,0.168,2.823c-0.401,0.506-1.075,0.552-1.662,0.181c0.201-0.001,0.404-0.038,0.595-0.124
			c0.402-0.194,0.658-0.506,0.787-0.921c0.11-0.383,0.098-0.756,0.045-1.104c-0.091-0.695-0.414-1.352-0.642-1.928
			c-0.219-0.59-0.333-1.233-0.342-1.866c-0.019-1.284,0.407-2.566,1.201-3.581c0.782-1.021,1.922-1.763,3.166-2.065
			c1.244-0.318,2.594-0.188,3.678,0.473c0.031,0.02,0.058,0.043,0.088,0.062C24.727,6.142,24.189,6.06,23.633,6.06z"/>
	</g>
</g>
<g>
</g>
<g>
</g>
<g>
</g>
<g>
</g>
<g>
</g>
<g>
</g>
<g>
</g>
<g>
</g>
<g>
</g>
<g>
</g>
<g>
</g>
<g>
</g>
<g>
</g>
<g>
</g>
<g>
</g>
</svg>
