<?xml version="1.0" encoding="iso-8859-1"?>
<!-- Generator: Adobe Illustrator 16.0.0, SVG Export Plug-In . SVG Version: 6.00 Build 0)  -->
<!DOCTYPE svg PUBLIC "-//W3C//DTD SVG 1.1//EN" "http://www.w3.org/Graphics/SVG/1.1/DTD/svg11.dtd">
<svg version="1.1" id="Capa_1" xmlns="http://www.w3.org/2000/svg" xmlns:xlink="http://www.w3.org/1999/xlink" x="0px" y="0px"
	 width="53.37px" height="53.37px" viewBox="0 0 53.37 53.37" style="enable-background:new 0 0 53.37 53.37;" xml:space="preserve"
	>
<g>
	<g>
		<path d="M51.414,10.28c-1.859,1.642-3.979,2.83-6.024,4.218c-1.325,0.899-2.466,1.99-3.66,3.026
			c-0.834,0.724-1.695,0.375-1.925-0.705c-1.12-5.297-2.94-8.195-9.594-8.356c-9.502-0.23-19.052-0.708-28.484,0.749
			C1.399,9.264,1.131,9.438,0.958,9.646c-0.318,0.383-0.37,0.859-0.624,1.054c-0.165,0.125-0.274,0.29-0.278,0.486
			c-0.214,9.642,0.248,19.229,0.249,28.854c0,1.363,0.962,2.194,2.335,2.708c1.035,0.387,1.898,0.531,1.855,0.571
			c-0.044,0.04,0.073,0.105,0.264,0.138c0.19,0.03,0.379,0.021,0.422-0.023c0.043-0.043,0.967,0.041,2.069,0.107
			c1.783,0.107,3.438,0.085,4.291,0.189c0.233,0.028,0.467,0.056,0.7,0.08c0.388,0.043,0.615,0.155,0.509,0.252
			c-0.107,0.098,0.254,0.25,0.805,0.331c0.552,0.081,1.093,0.042,1.209-0.074c0.116-0.115,1.103-0.12,2.203-0.027
			c6.646,0.56,13.339,0.669,20.006,0.547c4.12-0.076,4.128-5.481,3.993-9.704c-0.035-1.105,0.599-1.393,1.397-0.631
			c0.898,0.853,1.797,1.706,2.749,2.461c0.865,0.687,1.627,1.157,1.616,1.168c-0.01,0.011,0.132,0.132,0.322,0.266
			c0.189,0.135,0.367,0.218,0.393,0.193c0.024-0.024,0.722,0.305,1.613,0.577c0.525,0.161,1.074,0.279,1.65,0.345
			c0.508,0.058,1.209-0.207,1.316-0.765c1.78-9.272,1.423-18.74,1.004-28.123C52.994,9.856,51.87,9.878,51.414,10.28z M50.55,35.934
			c-0.158,1.094-0.673,1.883-1.096,1.722c-0.423-0.16-0.559-0.521-0.32-0.76c0.236-0.237,0.286-0.562,0.113-0.726
			c-0.174-0.164-0.537-0.066-0.813,0.218c-0.277,0.284-1.271,0.051-2.125-0.649c-1.941-1.591-3.647-3.633-5.562-5.093
			c-0.51-0.389-1.622-0.032-1.725,0.627c-0.375,2.429-0.196,4.819-0.143,7.267c0.086,3.889-1.441,4.814-5.216,4.82
			c-7.178,0.014-14.333,0.1-21.444-1.001c-1.261-0.193-2.539-0.275-3.815-0.357c-1.103-0.071-2.02-0.194-2.044-0.256
			c-0.024-0.062-0.087-0.067-0.146-0.015c-0.059,0.055-0.127,0.097-0.154,0.095c-0.016-0.001-0.031-0.003-0.048-0.005
			c-0.447-0.045-0.844-0.134-1.197-0.259c-0.64-0.227-0.534-1.081,0.135-1.694c0.669-0.614,1.178-1.692,1.148-2.409
			s-0.711-0.688-1.519,0.065c-0.186,0.173-0.37,0.347-0.556,0.519c-0.807,0.754-1.81,0.528-1.956-0.565
			c-0.147-1.092-0.143-2.272-0.133-3.397c0.01-1.104,0.604-2.652,1.368-3.451c0.371-0.387,0.741-0.772,1.111-1.153
			c0.769-0.794,1.39-1.921,1.379-2.523c-0.01-0.601-0.646-0.457-1.43,0.321C4.002,27.63,3.645,27.985,3.29,28.34
			c-0.783,0.779-1.44,0.515-1.457-0.59c-0.012-0.786-0.02-1.572-0.024-2.356C1.803,24.29,2.445,22.766,3.23,21.99
			c0.393-0.388,0.786-0.776,1.18-1.164c0.786-0.776,1.434-1.996,1.446-2.725c0.014-0.729-0.598-0.678-1.366,0.115
			c-0.427,0.44-0.854,0.881-1.28,1.321c-0.768,0.794-1.384,0.786-1.371-0.018c0.014-0.803,0.649-2.097,1.42-2.888
			c0.434-0.445,0.863-0.886,1.287-1.321c0.772-0.791,1.404-1.804,1.414-2.264c0.01-0.46,0.152-1.102,0.318-1.435
			c0.167-0.333,0.863-0.698,1.56-0.795c0.696-0.098,1.365-0.271,1.493-0.401c0.127-0.13-0.537-0.195-1.482-0.123
			c-0.944,0.072-2.347,0.778-3.134,1.553c-0.452,0.445-0.905,0.891-1.358,1.337c-0.787,0.775-1.409,0.606-1.387-0.375
			c0.013-0.593,0.025-1.186,0.039-1.778c0.002-0.104-0.02-0.192-0.059-0.267c-0.071-0.135,0.7-0.336,1.797-0.472
			c6.47-0.798,12.959-0.757,19.484-0.597c2.948,0.073,5.925,0.059,8.866,0.263c5.541,0.385,5.645,6.236,6.332,10.449
			c0.091,0.555,1.05,0.494,1.389,0.294c2.132-1.259,3.892-2.862,5.752-4.488c1.208-1.057,2.564-1.897,3.905-2.76
			c0.93-0.597,1.686-0.559,1.715,0.121c0.028,0.681-0.588,1.862-1.373,2.639c-1.046,1.035-2.096,2.074-3.15,3.119
			c-0.784,0.777-0.665,0.921,0.188,0.218c1.395-1.152,2.716-2.495,4.117-3.515c0.052-0.037,0.102-0.07,0.15-0.104
			c0.084-0.056,0.186,0.793,0.215,1.897C51.503,23.88,51.419,29.941,50.55,35.934z"/>
		<path d="M5.537,33.677c0.208-0.193,0.376-0.363,0.375-0.377s-0.169,0.143-0.376,0.352C5.328,33.858,5.328,33.871,5.537,33.677z"/>
		<path d="M44.784,33.276c-0.059,0.543,0.194,0.713,0.523,0.376c0.328-0.337,0.389-0.785,0.125-0.991S44.845,32.733,44.784,33.276z"
			/>
		<path d="M28.399,45.146c0.013-0.014-0.017-0.023-0.065-0.023c-0.049-0.001-0.098,0.009-0.109,0.022
			c-0.015,0.015,0.015,0.024,0.062,0.024C28.336,45.17,28.387,45.159,28.399,45.146z"/>
		<path d="M23.008,45.108c1.104,0.03,2.028,0.012,2.063-0.027c0.036-0.038-0.802-0.11-1.87-0.19
			c-1.069-0.079-2.005-0.095-2.092-0.009c-0.086,0.086,0.738,0.194,1.843,0.225C22.971,45.107,22.99,45.107,23.008,45.108z"/>
		<path d="M31.098,45.163L31.098,45.163C30.904,45.164,30.904,45.164,31.098,45.163z"/>
		<path d="M13.892,10.022c-0.823,0.015-1.551,0.097-1.625,0.173c-0.074,0.077,0.563,0.08,1.426,0.023
			c0.861-0.056,1.59-0.115,1.625-0.15C15.353,10.034,14.715,10.007,13.892,10.022z"/>
		<path d="M9.579,10.583c0.026-0.004,0.14-0.102,0.254-0.218c0.115-0.117,0.189-0.211,0.162-0.209
			c-0.025,0.002-0.14,0.1-0.256,0.219C9.624,10.493,9.553,10.585,9.579,10.583z"/>
	</g>
</g>
<g>
</g>
<g>
</g>
<g>
</g>
<g>
</g>
<g>
</g>
<g>
</g>
<g>
</g>
<g>
</g>
<g>
</g>
<g>
</g>
<g>
</g>
<g>
</g>
<g>
</g>
<g>
</g>
<g>
</g>
</svg>
