<?xml version="1.0" encoding="iso-8859-1"?>
<!-- Generator: Adobe Illustrator 16.0.0, SVG Export Plug-In . SVG Version: 6.00 Build 0)  -->
<!DOCTYPE svg PUBLIC "-//W3C//DTD SVG 1.1//EN" "http://www.w3.org/Graphics/SVG/1.1/DTD/svg11.dtd">
<svg version="1.1" id="Capa_1" xmlns="http://www.w3.org/2000/svg" xmlns:xlink="http://www.w3.org/1999/xlink" x="0px" y="0px"
	 width="27.711px" height="27.711px" viewBox="0 0 27.711 27.711" style="enable-background:new 0 0 27.711 27.711;"
	 xml:space="preserve">
<g>
	<g>
		<path d="M25.856,5.306c-0.562-0.531-1.23-0.948-1.988-1.253c-0.059-0.023-0.119-0.039-0.178-0.062
			c-0.977-0.508-2.07-0.795-3.176-0.773c-1.217-0.014-2.438,0.329-3.492,0.956c-0.52,0.296-1.039,0.698-1.428,1.169
			c-0.4,0.458-0.756,0.934-1.08,1.452l-0.017,0.025l-0.01,0.028l-0.038,0.109c-0.06-0.117-0.102-0.242-0.171-0.357
			c-0.365-0.604-0.82-1.125-1.369-1.565c-0.352-0.285-0.749-0.517-1.17-0.726c-0.015-0.009-0.029-0.024-0.045-0.033
			c-0.979-0.622-2.071-0.993-3.207-1.072C6.241,3.026,3.912,4.011,2.609,5.826c-0.88,1.121-1.247,2.588-1.104,3.976
			c0.043,0.797,0.339,1.713,0.864,2.487c0.545,0.831,1.325,1.5,2.095,1.97c0.768,0.476,1.526,0.768,2.096,0.992
			c0.045,0.093-0.83-0.057-1.573-0.412c-0.768-0.337-1.43-0.855-1.449-0.734c0.373,0.413,0.993,0.885,1.789,1.229
			c0.8,0.359,1.763,0.159,1.685,0.255c-0.156,0.198-0.336,0.319-0.486,0.387c-0.151,0.06-0.273,0.063-0.581,0.023
			c-0.253-0.023-0.47-0.033-0.64-0.025l-2.311-0.686l-0.17-0.048l-0.146-0.037c-0.129-0.021-0.284-0.046-0.409-0.044
			c-0.264-0.006-0.54,0.034-0.802,0.14c-0.531,0.205-0.955,0.679-1.136,1.203c-0.096,0.258-0.13,0.546-0.143,0.783l-0.031,0.608
			L0.094,19.11l-0.062,1.216l-0.03,0.607c0.002,0.202-0.01,0.187,0.008,0.385c0.015,0.176,0.047,0.328,0.085,0.473
			c0.158,0.596,0.624,1.19,1.253,1.457c0.603,0.283,1.349,0.213,1.784,0.085l2.328-0.57c0.361-0.087,0.817-0.221,1.097-0.275
			c0.139-0.026,0.326-0.02,0.428-0.001l-0.008-0.072l-0.002-0.06c0-0.001-0.001-0.002-0.001-0.003l-0.003-0.012l0.001-0.007
			l0.001-0.003l0.001-0.001l0.001,0.026c-0.001,0.026,0.012,0.057,0.026,0.087c0.035,0.066,0.076,0.08,0.05,0.067
			c-0.01-0.009-0.033-0.017-0.066-0.021l0.01,0.096c0.179,0.978,0.737,1.364,1.228,1.662c0.526,0.249,0.855,0.268,1.054,0.282
			c0.201,0.004,0.277-0.02,0.31-0.049c0.065-0.059-0.037-0.127,0.247-0.171c1.941,0.126,3.861,0.144,5.743,0.11l0.693-0.016
			c0.229-0.011,0.436,0.003,0.781-0.056c0.494-0.077,0.988-0.368,1.295-0.795c0.51-0.317,0.717-0.933,0.455-1.647l-1.766-4.84
			c-0.328-0.896,0.068-1.643,0.895-1.831c0.311,0.01,0.605,0.027,0.834,0.016c0.422-0.006,0.838,0,1.258,0
			c0.283,0.002,0.566-0.005,0.854-0.018c0.096-0.003,0.188-0.001,0.285-0.007c0.031-0.003,0.051-0.008,0.08-0.011
			c0.104-0.01,0.207-0.027,0.311-0.04c0.818-0.016,1.594-0.153,2.318-0.437c0.76-0.297,1.426-0.711,1.988-1.243
			c0.564-0.53,1.012-1.145,1.348-1.844c0.336-0.698,0.506-1.449,0.506-2.25c0-0.802-0.17-1.553-0.506-2.251
			C26.868,6.451,26.42,5.834,25.856,5.306z M2.174,22.275c-0.124-0.01-0.246-0.032-0.363-0.081
			c-0.312-0.127-0.543-0.396-0.641-0.722c-0.098-0.292-0.05-0.719-0.047-1.129l0.057-2.445l0.013-0.61
			c0.008-0.184,0.025-0.337,0.078-0.487c0.104-0.296,0.311-0.523,0.579-0.633c0.112-0.046,0.239-0.059,0.367-0.062
			c-0.334,0.274-0.541,0.706-0.541,1.243v3.734C1.676,21.596,1.868,22.006,2.174,22.275z M3.321,12.702
			c-0.587-0.599-1.018-1.348-1.268-2.159c0.369,1.068,1.086,1.977,1.973,2.608c0.004,0.003,0.009,0.005,0.013,0.008
			c0.099,0.104,0.18,0.223,0.286,0.32c0.123,0.114,0.267,0.204,0.399,0.308C4.211,13.491,3.735,13.129,3.321,12.702z M6.354,4.053
			C5.586,4.358,4.918,4.775,4.356,5.306C3.792,5.834,3.342,6.452,3.008,7.15C2.672,7.848,2.506,8.599,2.506,9.401
			c0,0.358,0.037,0.705,0.102,1.042c-0.142-0.354-0.259-0.728-0.314-1.13c-0.169-0.941-0.01-1.989,0.352-2.797
			C2.68,6.767,3.428,5.655,4.479,4.738C4.55,4.596,4.048,4.912,4.004,4.866c0.211-0.168,0.429-0.327,0.66-0.465
			C6.068,3.554,7.825,3.29,9.463,3.656C9.24,3.634,9.022,3.599,8.794,3.599C7.935,3.599,7.125,3.75,6.354,4.053z M7.391,16.775
			c0.152-0.097,0.296-0.204,0.415-0.323c0.312-0.349,0.582-0.68,0.664-1.276c0.075,0.002,0.147,0.01,0.224,0.01h0.074
			c-0.02,0.239-0.075,0.413-0.136,0.574c0.038-0.027,0.131-0.092,0.21-0.315c0.019,0.183,0.031,0.443,0.031,0.741
			C8.873,16.655,8.24,16.885,7.391,16.775z M8.19,22.655c-0.079-0.163-0.044-0.347-0.096-0.584
			c-0.053-0.226-0.212-0.418-0.397-0.541c-0.007-0.005-0.016-0.006-0.023-0.011c0.702,0.006,1.198,0.351,1.198,0.915
			c0,0.481,0.378,0.903,0.943,1.141C9.146,23.518,8.459,23.25,8.19,22.655z M10.045,10.592c-0.348,0.331-0.766,0.497-1.252,0.497
			c-0.512,0-0.934-0.166-1.275-0.497c-0.342-0.333-0.512-0.729-0.512-1.191c0-0.461,0.17-0.861,0.512-1.199
			C7.86,7.863,8.282,7.694,8.793,7.694c0.498,0,0.918,0.169,1.26,0.508c0.34,0.338,0.512,0.738,0.512,1.199
			C10.564,9.863,10.393,10.259,10.045,10.592z M17.292,5.036c-0.553,0.44-1.012,0.966-1.383,1.574
			c-0.182,0.3-0.332,0.61-0.451,0.928c-0.197,0.535-0.309,0.999-0.367,0.999s-0.17-0.463-0.365-1.001
			c-0.03-0.082-0.079-0.156-0.113-0.237l0.124-0.358l0.001-0.005l0.003-0.004c0.674-1.07,1.51-2.112,2.678-2.687
			c1.121-0.62,2.443-0.862,3.715-0.75c0.293,0.02,0.582,0.066,0.867,0.129c-0.191-0.016-0.383-0.025-0.58-0.025
			c-0.803,0-1.555,0.129-2.252,0.387C18.469,4.244,17.846,4.595,17.292,5.036z M22.792,10.592c-0.342,0.331-0.756,0.497-1.242,0.497
			c-0.51,0-0.932-0.166-1.268-0.497c-0.334-0.333-0.504-0.729-0.504-1.191c0-0.461,0.17-0.861,0.504-1.199
			c0.336-0.339,0.758-0.508,1.268-0.508c0.486,0,0.9,0.169,1.242,0.508c0.342,0.338,0.512,0.738,0.512,1.199
			C23.303,9.863,23.133,10.259,22.792,10.592z"/>
	</g>
</g>
<g>
</g>
<g>
</g>
<g>
</g>
<g>
</g>
<g>
</g>
<g>
</g>
<g>
</g>
<g>
</g>
<g>
</g>
<g>
</g>
<g>
</g>
<g>
</g>
<g>
</g>
<g>
</g>
<g>
</g>
</svg>
