<?xml version="1.0" encoding="iso-8859-1"?>
<!-- Generator: Adobe Illustrator 16.0.0, SVG Export Plug-In . SVG Version: 6.00 Build 0)  -->
<!DOCTYPE svg PUBLIC "-//W3C//DTD SVG 1.1//EN" "http://www.w3.org/Graphics/SVG/1.1/DTD/svg11.dtd">
<svg version="1.1" id="Capa_1" xmlns="http://www.w3.org/2000/svg" xmlns:xlink="http://www.w3.org/1999/xlink" x="0px" y="0px"
	 width="42.677px" height="42.677px" viewBox="0 0 42.677 42.677" style="enable-background:new 0 0 42.677 42.677;"
	 xml:space="preserve">
<g>
	<g>
		<path d="M3.134,9.603C2.956,9.762,2.777,9.915,2.6,10.068c-0.123,0.099-0.235,0.18-0.361,0.284
			c-0.396,0.346-0.841,0.642-1.247,1.141c-0.374,0.471-0.695,0.997-0.89,1.609c-0.087,0.305-0.162,0.651-0.029,1.027
			c0.156,0.442,0.618,0.532,0.915,0.543c0.521,0.017,1.001-0.08,1.461-0.201c0.043,0.092,0.098,0.179,0.165,0.258
			c0.48,0.568,1.417,0.648,2.234,0.292c0.232,0.213,0.488,0.502,0.714,0.86c0.488,0.727,0.915,1.612,1.287,2.47
			c0.721,1.71,1.312,3.431,1.828,4.164c0.755,2.913,1.486,5.882,2.205,8.853l0.027,0.077c0.587,1.717,1.287,3.457,2.592,5.028
			c0.655,0.772,1.517,1.506,2.618,1.924c0.547,0.206,1.137,0.325,1.721,0.347c0.489,0.02,1.077-0.02,1.567-0.095
			c2.036-0.315,3.778-1.198,5.304-2.192c0.139-0.093,0.268-0.191,0.402-0.285c2.752-1.619,5.812-4.462,9.183-8.548
			c5.399-6.443,8.182-11.537,8.356-15.275c0.016-0.309,0.025-0.609,0.025-0.9c-0.019-4.039-1.709-6.247-5.043-6.672
			c-0.113-0.066-0.226-0.135-0.342-0.193c-0.073-0.035-0.146-0.067-0.221-0.099c-0.079-0.034-0.157-0.064-0.237-0.095
			c-0.095-0.037-0.188-0.075-0.284-0.106c-0.114-0.038-0.229-0.07-0.344-0.101c-0.077-0.021-0.152-0.043-0.229-0.061
			c-0.069-0.016-0.137-0.029-0.206-0.043c-0.057-0.011-0.112-0.03-0.169-0.04c-0.094-0.017-0.188-0.021-0.283-0.034
			c-0.062-0.008-0.125-0.024-0.187-0.031c-0.045-0.003-0.082-0.004-0.126-0.007c-0.913-0.086-1.83-0.012-2.729,0.113
			c-2.191,0.321-4.339,1.268-6,2.806c-0.833,0.762-1.546,1.652-2.135,2.615c-0.295,0.481-0.558,0.982-0.792,1.495
			c-0.123,0.257-0.24,0.549-0.275,0.896c-0.04,0.319,0.055,0.811,0.466,1.043c0.376,0.221,0.803,0.128,1.042,0.086
			c0.281-0.051,0.521-0.083,0.789-0.101c0.121-0.008,0.239-0.002,0.359-0.004c0.146,0.26,0.451,0.372,0.874,0.286
			c0.174-0.036,0.344-0.057,0.515-0.081c0.365,0.15,0.667,0.395,0.867,0.716c0.233,0.392,0.322,0.88,0.323,1.381
			c-0.212,1.421-0.906,2.868-1.616,4.208c-0.366,0.673-0.776,1.349-1.197,1.969c-0.453,0.643-0.91,1.254-1.405,1.843
			c-0.408,0.476-0.85,0.949-1.312,1.292c-0.541-0.971-1.062-2.468-1.561-4.521c-0.169-0.58-0.383-1.602-0.636-3.064
			c-0.262-1.461-0.584-3.361-0.975-5.701c-0.646-3.785-2.224-5.8-4.705-6.091c-0.246-0.177-0.503-0.34-0.778-0.472
			c-0.765-0.366-1.613-0.528-2.436-0.519h-0.034l-0.02,0.003c-0.935,0.141-1.726,0.515-2.488,0.911
			C8.389,5.481,7.674,5.939,6.988,6.429C5.604,7.404,4.374,8.534,3.134,9.603z M25.824,11.758c-0.129,0.295-0.181,0.549-0.179,0.766
			c-0.347,0.01-0.691,0.042-1.033,0.099c-0.308,0.055-0.636,0.131-0.893-0.034c-0.259-0.161-0.295-0.51-0.238-0.803
			c0.841-2.348,2.482-4.458,4.594-5.771c2.116-1.313,4.688-1.838,7.113-1.624c0.435,0.052,0.862,0.151,1.272,0.293
			c-0.074,0-0.147,0-0.223,0C31.362,4.7,27.892,7.057,25.824,11.758z M24.36,23.532c1.013-1.205,1.913-2.506,2.662-3.894
			c0.729-1.389,1.443-2.832,1.676-4.399c-0.001-0.63-0.122-1.293-0.521-1.804c-0.111-0.146-0.246-0.268-0.392-0.376
			c0.119-0.006,0.239-0.02,0.356-0.02c1.859,0,2.792,0.845,2.792,2.54c0,0.222-0.016,0.46-0.052,0.714
			c-0.117,1.251-1.034,3.174-2.739,5.771c-1.744,2.528-3.036,3.791-3.873,3.791c-0.44-0.006-0.869-0.344-1.286-0.98
			C23.499,24.501,23.938,24.015,24.36,23.532z M0.738,13.93l-0.013-0.002c0.006-0.001,0.013,0,0.02,0.001
			C0.742,13.928,0.741,13.932,0.738,13.93z M5.467,14.844c-0.027-0.027-0.061-0.053-0.09-0.08c0.076-0.045,0.152-0.09,0.223-0.13
			c0.188,0.241,0.345,0.488,0.449,0.724C6.01,15.429,5.8,15.167,5.467,14.844z M17.583,36.905c-0.086-0.009-0.176-0.009-0.26-0.021
			c-0.859-0.147-1.628-0.627-2.256-1.256c-1.254-1.276-2.038-3.003-2.68-4.728l0.005,0.019l-0.015-0.042
			c0.003,0.008,0.007,0.016,0.01,0.023l-2.663-9.522c-0.45-1.56-0.877-3.197-1.607-4.738c-0.363-0.77-0.778-1.527-1.345-2.225
			c-0.072-0.088-0.156-0.172-0.234-0.258c0.107-0.04,0.195-0.063,0.251-0.063c0.089,0,0.178,0.032,0.266,0.049
			c0.099,0.115,0.204,0.227,0.295,0.344c0.639,0.842,1.093,1.728,1.473,2.621c0.101-0.135-0.028-0.856-0.513-1.898
			c-0.083-0.172-0.181-0.356-0.288-0.544c0.947,0.858,1.853,2.701,2.715,5.577l1.668,5.661l1.69,5.667
			C15.101,34.161,16.262,35.938,17.583,36.905z M10.837,5.181c0.161-0.19-0.719,0.107-0.758,0.017
			c0.518-0.237,1.051-0.436,1.614-0.537c0.754-0.027,1.511,0.133,2.198,0.452c-0.059,0.003-0.118,0.001-0.176,0.008
			c-1.39,0.172-3.414,1.324-6.079,3.461l-2.974,2.483L3.15,12.322c-0.025,0.021-0.044,0.045-0.068,0.066
			c-0.15,0.075-0.322,0.153-0.483,0.22c-0.184,0.077-0.366,0.134-0.55,0.2c-0.16,0.298-0.294,0.618-0.34,0.812
			c0.027-0.007,0.056-0.013,0.083-0.021c0.202-0.056,0.413-0.126,0.624-0.203c-0.029,0.093-0.05,0.184-0.064,0.276
			c-0.363,0.105-0.727,0.19-1.063,0.226c-0.198,0.021-0.479-0.026-0.479-0.026s0.001-0.014-0.003,0.002H0.803
			c0,0-0.015-0.005-0.002,0.004c-0.001,0-0.004,0.001-0.005,0.002c-0.003-0.002-0.006-0.002-0.012-0.002
			c-0.007-0.021-0.03-0.063-0.032-0.139c-0.017-0.316,0.167-0.788,0.381-1.184c0.232-0.414,0.485-0.781,0.826-1.1l0.536-0.503
			L1.8,11.642c-0.446,0.533-0.735,1.471-0.735,1.471c0.01-0.006,0.018-0.01,0.036-0.016l0.139-0.035l0.405-0.11
			c0.127-0.038,0.598-0.491,0.694-0.616c-0.009-0.017,0.138-0.158,0.142-0.178l0.225-0.232l0.447-0.469l0.879-0.947l1.672-1.87
			C6.22,8.062,6.76,7.504,7.267,7.018C7.156,7.427,8.974,6.231,10.837,5.181z"/>
		<polygon points="0.823,13.861 0.825,13.859 0.824,13.86 		"/>
		<path d="M0.819,13.863l0.004-0.002L0.819,13.863z"/>
		<path d="M0.825,13.859c0.01-0.007,0.014-0.008,0.018-0.01c-0.003,0.002-0.005,0.002-0.008,0.003L0.825,13.859z"/>
	</g>
</g>
<g>
</g>
<g>
</g>
<g>
</g>
<g>
</g>
<g>
</g>
<g>
</g>
<g>
</g>
<g>
</g>
<g>
</g>
<g>
</g>
<g>
</g>
<g>
</g>
<g>
</g>
<g>
</g>
<g>
</g>
</svg>
