<?xml version="1.0" encoding="iso-8859-1"?>
<!-- Generator: Adobe Illustrator 16.0.0, SVG Export Plug-In . SVG Version: 6.00 Build 0)  -->
<!DOCTYPE svg PUBLIC "-//W3C//DTD SVG 1.1//EN" "http://www.w3.org/Graphics/SVG/1.1/DTD/svg11.dtd">
<svg version="1.1" id="Capa_1" xmlns="http://www.w3.org/2000/svg" xmlns:xlink="http://www.w3.org/1999/xlink" x="0px" y="0px"
	 width="51.195px" height="51.195px" viewBox="0 0 51.195 51.195" style="enable-background:new 0 0 51.195 51.195;"
	 xml:space="preserve">
<g>
	<g>
		<path d="M43.533,16.44c1.021,0.533,2.233,0.662,3.349,0.401c2.42-0.257,4.313-2.282,4.313-4.774c0-1.813-1.014-3.372-2.494-4.194
			c-0.033-0.031-0.075-0.067-0.139-0.118c-0.814-0.564-1.875-0.84-2.906-0.761c-1.035,0.069-2.026,0.484-2.805,1.101
			c-0.207,0.072-0.613,0.357-0.947,0.752c-0.336,0.39-0.582,0.877-0.652,1.176c0.018,0.048,0.48-0.855,0.531-0.79
			c-0.149,0.325-0.471,0.851-0.651,1.415c-0.093,0.268-0.146,0.538-0.173,0.774c-0.082,0.529-0.079,1.078,0.023,1.618
			C41.24,14.46,42.205,15.77,43.533,16.44z M41.119,11.223c0.027-0.123,0.074-0.237,0.109-0.357
			c0.006-0.016,0.012-0.032,0.018-0.047c-0.059,0.154-0.098,0.316-0.139,0.477C41.113,11.272,41.113,11.247,41.119,11.223z
			 M41.473,10.675c0.016-0.095-0.1,0.145-0.061-0.01c0.318-0.657,0.969-1.571,0.957-1.659c-0.455,0.497-0.854,1.095-1.107,1.768
			c0.245-0.732,0.635-1.421,1.188-1.984c0.732-0.754,1.735-1.25,2.806-1.397c-2.121,0.506-3.701,2.399-3.701,4.673
			c0,2.609,2.069,4.719,4.655,4.809c-0.536,0.05-1.081,0.015-1.604-0.116c-1.363-0.331-2.537-1.299-3.125-2.527
			c-0.172-0.346-0.283-0.711-0.359-1.081c0.022,0.035,0.06,0.157,0.07,0.117c-0.043-0.433-0.111-0.847-0.152-0.782
			C41.068,11.935,41.259,11.233,41.473,10.675z"/>
		<path d="M0.111,40.846c0.053,0.136,0.115,0.253,0.18,0.356c0.126,0.201,0.254,0.354,0.381,0.494
			c0.249,0.269,0.494,0.479,0.738,0.671c0.971,0.748,1.973,1.241,2.938,1.523c0.326-0.047-0.467-0.46,0.057-0.443
			c2.087,1.556,5.834,1.52,6.02,0.847c-1.413-0.152-2.84-0.497-4.254-0.97c-1.138-0.39-2.278-0.844-3.368-1.42
			c0.084,0.037,0.166,0.078,0.25,0.113c0.852,0.351,1.732,0.617,2.622,0.838c1.781,0.438,3.611,0.691,5.459,0.846
			c3.697,0.303,7.468,0.191,11.212-0.027c3.747-0.226,7.471-0.56,11.122-0.82l5.444-0.365c0.906-0.061,1.808-0.121,2.73-0.221
			c0.463-0.053,0.93-0.112,1.424-0.22c0.248-0.057,0.504-0.122,0.786-0.233c0.279-0.126,0.603-0.235,0.992-0.709
			c0.104-0.346,0.067-0.67-0.026-0.822c-0.093-0.155-0.201-0.161-0.308-0.101c-0.194,0.152-0.528,0.436-0.89,0.447
			c-0.698,0.067-1.674-0.011-2.949-0.009c-2.53-0.016-6.08,0.096-9.312,0.804c-0.418-0.264,0.275-0.571-1.086-0.797
			c-5.306-0.117-11.134,1.229-16.778,1.327c-1.146-0.965-5.273-1.441-7.021-0.971c-0.183,0.478,2.69,0.507,2.579,0.842
			c-1.055,0.412-2.822,0.069-4.45-0.366L2.45,40.84c-0.016-0.007-0.033-0.012-0.048-0.018c-0.422-0.175-0.924-0.448-1.041-0.662
			c-0.006-0.001-0.004-0.009-0.005-0.015c0.023,0.001,0.028-0.027,0.081-0.067c0.105-0.098,0.301-0.208,0.504-0.297
			c0.416-0.182,0.893-0.318,1.373-0.438c1.945-0.458,4.012-0.688,6.078-0.896c2.033-0.192,4.089-0.33,6.154-0.432
			c0.461,0.396,0.974,0.714,1.516,0.96c0.582,0.248,1.141,0.409,1.852,0.455c0.617,0.012,1.066-0.043,1.608-0.061
			c1.063-0.061,2.017-0.086,3.165-0.167c1.117-0.165,2.078-0.685,2.856-1.387c0.594,0.008,1.189,0.012,1.781,0.027
			c3.652,0.114,7.307,0.299,10.803,0.891c0.521,0.09,1.044,0.178,1.557,0.293c0.758,0.173,2.159,0.357,2.84,0.712
			c0.358,0.159,0.407,0.486,0.459,0.376c0.034-0.011,0.029-0.266-0.147-0.46c-0.127-0.153-0.347-0.299-0.61-0.437
			c-0.061-0.034-0.121-0.066-0.193-0.101c-0.029-0.014-0.049-0.029-0.082-0.043c-0.041-0.017-0.082-0.025-0.123-0.042
			c-0.086-0.035-0.156-0.071-0.258-0.106c-0.177-0.063-0.355-0.114-0.535-0.168c-0.057-0.018-0.111-0.036-0.168-0.052
			c-0.322-0.093-0.646-0.176-0.972-0.248c-0.141-0.034-0.309-0.063-0.483-0.091c-1.096-0.222-2.207-0.37-3.322-0.515
			c-1.992-0.232-4.008-0.372-6.031-0.466c-1.258-0.057-2.521-0.09-3.785-0.113c0.074-0.063,0.147-0.118,0.225-0.196
			c0.137-0.147,0.277-0.299,0.422-0.523c0.08-0.116,0.131-0.205,0.181-0.29c0.032-0.061,0.038-0.056,0.093-0.17l0.071-0.145
			c0.39-0.774,0.808-1.7,1.205-2.658c0.795-1.917,1.509-3.966,1.759-5.196c-0.041-0.05-0.133,0.081-0.251,0.311
			c2.5-6.275,5-12.551,7.57-18.757c0.411-0.991,0.204-1.853-0.438-2.342c-0.578-0.74-1.638-0.882-2.328-0.84l-2.291-0.001
			L31.191,6.47c-0.389,0.006-0.75-0.015-1.195,0.029c-0.424,0.048-0.834,0.16-1.217,0.321c-0.769,0.325-1.461,0.812-1.998,1.458
			c-0.266,0.314-0.504,0.692-0.666,1.084c-0.157,0.392-0.256,0.737-0.388,1.108l-1.442,4.385c-0.481,1.457-0.968,2.915-1.495,4.344
			c-0.283,0.691-0.511,1.502-0.854,2.05c-0.162,0.246-0.364,0.388-0.539,0.378c-0.185-0.201-0.355-0.497-0.499-0.886
			c-1.327-3.605-2.77-7.095-3.846-10.949c-0.353-1.264-1.442-2.34-2.703-2.739c-0.014-0.006-0.026-0.014-0.04-0.021
			c-0.077-0.035-0.151-0.073-0.232-0.103c-0.03-0.012-0.06-0.027-0.091-0.038c-0.012-0.004-0.022-0.011-0.034-0.015
			c-0.139-0.054-0.28-0.083-0.422-0.114c-0.002,0-0.004-0.001-0.006-0.002c-0.086-0.018-0.171-0.038-0.257-0.05
			c-0.015-0.003-0.028-0.009-0.044-0.011c-0.05-0.006-0.098-0.003-0.146-0.007c-0.023-0.002-0.046-0.005-0.069-0.007
			c-0.066-0.006-0.133-0.015-0.199-0.019c-0.104-0.004-0.206-0.002-0.31-0.002c-0.278-0.001-0.554,0.005-0.825-0.002
			c-1.61,0-5.014,0.17-5.158,0.273C6.379,6.963,6.256,7.01,6.135,7.058c-0.108-0.03-0.233-0.053-0.393-0.053
			c-0.412-0.009-1.133,0.2-1.523,0.993c-0.183,0.391-0.245,0.857-0.17,1.365c0.075,0.48,0.232,0.902,0.358,1.348
			c1.091,3.601,2.942,8.558,5.016,12.896c0.065,0.608-0.472-0.308,0.108,1.599c0.678,1.838,1.438,3.69,2.233,5.562l1.225,2.815
			l0.633,1.411l0.32,0.707c0.119,0.258,0.185,0.423,0.356,0.765c0.197,0.373,0.44,0.694,0.701,0.993
			c-2.753,0.124-5.486,0.302-8.174,0.596c-0.984,0.113-1.963,0.242-2.932,0.423c-0.135,0.029-0.27,0.057-0.405,0.084
			c-0.11-0.136,0.48-0.352,0.315-0.482c-0.693-0.099-1.361,0.04-1.807,0.268c-0.45,0.227-0.652,0.524-0.477,0.628
			c-0.232,0.032-0.48,0.068-0.767,0.203c-0.143,0.066-0.303,0.165-0.46,0.348c-0.077,0.091-0.153,0.21-0.206,0.355
			c-0.029,0.068-0.045,0.151-0.061,0.231l-0.005,0.03l-0.002,0.004l0.004,0.08l-0.001,0.003L0.02,40.234l-0.007,0.022L0,40.301
			c0,0.087,0.019,0.226,0.045,0.325C0.06,40.695,0.083,40.775,0.111,40.846z M22.398,21.08c0.285-0.68,0.543-1.371,0.795-2.064
			c1.012-2.771,1.879-5.594,2.824-8.385c0.242-0.685,0.423-1.435,0.913-2.016c0.46-0.587,1.061-1.059,1.73-1.378
			c0.664-0.336,1.433-0.462,2.162-0.428l2.191,0.004l2.186,0.008c0.434,0.011,0.891-0.009,1.332,0.053c-1.842,0-3.682,0-5.521,0
			c-1.657,0-3.482,1.253-4.027,2.818c-1.294,3.711-2.451,7.559-3.891,11.125c-0.375,0.929-0.891,1.264-1.367,1.046
			C22.039,21.696,22.247,21.39,22.398,21.08z M9.171,20.559c-0.987-2.46-1.932-4.91-2.812-7.344c-0.44-1.217-0.864-2.431-1.269-3.64
			c-0.03-0.101-0.099-0.312-0.112-0.42c-0.021-0.112-0.026-0.237-0.03-0.362C4.953,8.604,5,8.438,5.066,8.289
			C4.981,8.694,5.014,9.157,5.217,9.658c3.532,8.706,7.092,17.385,10.569,26.144c0.192,0.484,0.516,0.934,0.906,1.331
			c-0.561-0.45-1.029-1.018-1.286-1.71C13.283,30.445,11.149,25.478,9.171,20.559z M1.336,40.161
			c-0.033,0.044-0.034-0.021-0.047-0.045c0.069,0.055,0.028,0.018,0.055,0.03C1.342,40.15,1.343,40.145,1.336,40.161z"/>
	</g>
</g>
<g>
</g>
<g>
</g>
<g>
</g>
<g>
</g>
<g>
</g>
<g>
</g>
<g>
</g>
<g>
</g>
<g>
</g>
<g>
</g>
<g>
</g>
<g>
</g>
<g>
</g>
<g>
</g>
<g>
</g>
</svg>
