<?xml version="1.0" encoding="iso-8859-1"?>
<!-- Generator: Adobe Illustrator 16.0.0, SVG Export Plug-In . SVG Version: 6.00 Build 0)  -->
<!DOCTYPE svg PUBLIC "-//W3C//DTD SVG 1.1//EN" "http://www.w3.org/Graphics/SVG/1.1/DTD/svg11.dtd">
<svg version="1.1" id="Capa_1" xmlns="http://www.w3.org/2000/svg" xmlns:xlink="http://www.w3.org/1999/xlink" x="0px" y="0px"
	 width="43.611px" height="43.611px" viewBox="0 0 43.611 43.611" style="enable-background:new 0 0 43.611 43.611;"
	 xml:space="preserve">
<g>
	<g>
		<path d="M7.947,24.589c2.72,0,5.44,0,8.159,0c3.113,0,3.157-0.88,2.248,1.873c-1.859,5.64-3.718,11.28-5.578,16.92
			c-0.18,0.545,2.03-0.011,2.292-0.32c6.98-8.235,13.96-16.473,20.94-24.71c0.239-0.283-0.013-0.372-0.305-0.381
			c-2.588-0.083-5.177-0.165-7.765-0.248c-1.372-0.044-2.744-0.087-4.115-0.132c-1.314-0.042-0.851,0.385-0.543-0.668
			c1.624-5.565,3.247-11.133,4.871-16.698c0.135-0.462-2.217-0.16-2.392,0.438C19.687,8.55,13.614,16.437,7.542,24.325
			C7.377,24.542,7.871,24.589,7.947,24.589z M24.479,5.062c-0.044,0.042-0.085,0.081-0.132,0.125
			c-0.017,0.017-0.041,0.04-0.059,0.057c0.073-0.095,0.147-0.189,0.22-0.285C24.498,4.992,24.488,5.027,24.479,5.062z M10.89,22.646
			c1.036-1.345,2.071-2.69,3.107-4.035c2.243-2.913,4.485-5.826,6.728-8.739c1.091-1.12,2.174-2.231,3.247-3.331
			c0.036-0.037,0.071-0.074,0.106-0.111c-1.15,3.941-2.3,7.883-3.45,11.824c-0.071,0.241,0.238,0.259,0.405,0.264
			c3.96,0.127,7.92,0.254,11.88,0.38c1.386,0.044,0.957-0.407-0.042,0.771c-1.261,1.488-2.522,2.977-3.783,4.465
			c-4.211,4.969-8.423,9.94-12.635,14.91c0.796-2.415,1.593-4.831,2.389-7.246c0.044-0.043,0.085-0.079,0.132-0.126
			C20,30.642,21.05,29.59,22.12,28.518c0.981-0.981,1.903-2.165,2.06-2.643c0.158-0.478-0.545-0.107-1.569,0.83
			c-0.989,0.904-1.903,1.743-2.727,2.501c-0.092,0.085-0.183,0.175-0.274,0.265c0.613-1.86,1.227-3.722,1.84-5.582
			c0.079-0.236-0.246-0.263-0.405-0.263c-3.146,0-6.293,0-9.439,0c0.346-0.312,0.82-0.747,1.339-1.232
			c1.303-1.216,2.614-2.439,3.928-3.667c1.014-0.947,2.313-2.335,2.901-3.1c0.589-0.764,0.268-0.589-0.714,0.392
			c-1.674,1.671-3.74,3.738-6.305,6.31c-0.512,0.513-0.961,0.972-1.273,1.297c-0.439,0-0.878,0-1.317,0
			C9.62,23.625,10.191,23.554,10.89,22.646z"/>
	</g>
</g>
<g>
</g>
<g>
</g>
<g>
</g>
<g>
</g>
<g>
</g>
<g>
</g>
<g>
</g>
<g>
</g>
<g>
</g>
<g>
</g>
<g>
</g>
<g>
</g>
<g>
</g>
<g>
</g>
<g>
</g>
</svg>
