<?xml version="1.0" encoding="iso-8859-1"?>
<!-- Generator: Adobe Illustrator 16.0.0, SVG Export Plug-In . SVG Version: 6.00 Build 0)  -->
<!DOCTYPE svg PUBLIC "-//W3C//DTD SVG 1.1//EN" "http://www.w3.org/Graphics/SVG/1.1/DTD/svg11.dtd">
<svg version="1.1" id="Capa_1" xmlns="http://www.w3.org/2000/svg" xmlns:xlink="http://www.w3.org/1999/xlink" x="0px" y="0px"
	 width="42.978px" height="42.978px" viewBox="0 0 42.978 42.978" style="enable-background:new 0 0 42.978 42.978;"
	 xml:space="preserve">
<g>
	<g>
		<path d="M2.222,19.291c-0.028,0.168,0.096,0.297,0.461,0.318c0.111,0.018,0.229,0.021,0.354,0.009
			c3.167,0.012,6.333,0.026,9.5,0.069c0.36,0.005,1.33-0.178,1.333-0.7c0.038-5.009,0.075-10.018,0.1-15.027
			c0.002-0.566-0.725-0.514-1.113-0.428C9.788,4.209,5.661,4.613,2.959,6.394C1.782,7.17,2.366,9.007,2.362,10.249
			C2.353,13.21,2.244,16.17,2.177,19.13C2.175,19.196,2.204,19.241,2.222,19.291z M4.298,7.863C4.29,6.384,5.959,6.392,7.207,6.036
			c0.186-0.053,0.375-0.098,0.561-0.148c-0.68,0.363-1.398,0.861-1.9,1.359C5.527,7.586,5.186,7.925,4.845,8.264
			C4.647,8.46,4.459,8.678,4.288,8.905C4.288,8.556,4.3,8.209,4.298,7.863z M4.191,15.695c0.161-0.118,0.336-0.271,0.522-0.458
			c0.353-0.357,0.706-0.715,1.059-1.072c0.776-0.785,1.411-1.819,1.413-2.308c0.003-0.488-0.642-0.263-1.436,0.505
			c-0.295,0.285-0.614,0.594-0.955,0.924c-0.198,0.191-0.388,0.401-0.561,0.618c0.001-0.055,0.003-0.109,0.004-0.164
			c0.17-0.164,0.357-0.346,0.554-0.537c0.333-0.324,0.654-0.635,0.957-0.93c0.792-0.769,1.437-1.407,1.437-1.43
			c-0.001-0.022-0.64,0.587-1.43,1.359c-0.32,0.313-0.642,0.628-0.966,0.944c-0.195,0.191-0.381,0.374-0.551,0.541
			c0.02-0.924,0.02-1.847,0.031-2.771c0.175-0.113,0.368-0.267,0.573-0.467c1.349-1.314,2.722-2.65,4.111-4.003
			c0.503-0.489,0.661-0.853,0.492-0.998c0.581-0.143,1.163-0.28,1.746-0.412c0.426-0.097,0.777-0.199,1.032-0.296
			c-0.113,0.304-0.188,0.773-0.199,1.335c-0.053,0.047-0.106,0.092-0.16,0.145c-0.68,0.666-0.688,1.051-0.012,0.875
			c0.058-0.016,0.107-0.046,0.163-0.066c-0.019,3.391-0.043,6.781-0.068,10.171c-0.004,0.566,0.071,1.035,0.195,1.333
			c-0.233-0.031-0.526-0.053-0.877-0.056c-1.626-0.018-3.252-0.023-4.878-0.03c0.393-0.426,0.701-0.948,0.707-1.237
			c0.008-0.324-0.602,0.034-1.359,0.8c-0.15,0.151-0.28,0.295-0.398,0.432c-0.403-0.002-0.805-0.007-1.208-0.008
			C4.148,17.521,4.169,16.608,4.191,15.695z"/>
		<path d="M17.507,19.613c6.977,0.146,14.035-0.018,20.984,0.662c0.318,0.031,1.613-0.172,1.592-0.652
			C39.87,14.91,39.805,10.2,39.612,5.49c-0.104-2.528,0.27-4.938-2.396-5.385c-1.893-0.318-4.033,0.166-5.898,0.402
			c-4.322,0.548-8.619,1.324-12.897,2.136c-0.272,0.052-1.144,0.22-1.146,0.614c-0.029,5.407-0.072,10.813-0.107,16.221
			c0,0.042,0.04,0.071,0.101,0.093C17.309,19.595,17.384,19.61,17.507,19.613z M20.018,2.952c5.212-1.133,11.327-2.82,16.37-1.974
			c0.208,0.035,0.391,0.194,0.555,0.448c-0.136,0.111-0.274,0.233-0.412,0.373c-0.442,0.45-0.617,0.793-0.387,0.766
			c0.219-0.026,0.67-0.323,1.037-0.674c1.18,2.909,1.014,11.968,0.969,16.247c-0.005,0.514,0.074,0.944,0.202,1.247
			c-0.176-0.029-0.372-0.054-0.6-0.071c-6.19-0.471-12.451-0.363-18.651-0.484c0.003-0.557,0.007-1.113,0.011-1.669
			c0.162-0.132,0.338-0.293,0.524-0.484c0.336-0.345,0.671-0.69,1.006-1.033c0.771-0.791,1.397-1.704,1.4-2.039
			c0.002-0.336-0.641,0.013-1.438,0.777c-0.286,0.274-0.588,0.563-0.907,0.869c-0.205,0.196-0.399,0.404-0.576,0.613
			c0.013-1.862,0.024-3.724,0.038-5.585c0.169-0.102,0.356-0.25,0.552-0.443c0.316-0.312,0.632-0.624,0.949-0.937
			c0.786-0.776,1.428-1.999,1.433-2.732s0.695-1.459,1.542-1.617c0.847-0.158,2.032-0.836,2.644-1.522
			c0.612-0.688,0.469-1.144-0.318-1.017c-0.789,0.128-2.053,0.878-2.823,1.669c-1.145,1.175-2.291,2.35-3.436,3.525
			c-0.186,0.19-0.362,0.406-0.524,0.634c0.004-0.686,0.01-1.371,0.014-2.057c0.162-0.164,0.337-0.344,0.523-0.534
			c0.386-0.396,0.766-0.787,1.14-1.172c0.771-0.791,1.358-1.428,1.312-1.419c-0.044,0.008-0.7,0.663-1.467,1.457
			c-0.302,0.313-0.633,0.656-0.988,1.022c-0.184,0.19-0.358,0.372-0.519,0.541c0-0.096,0.002-0.191,0.002-0.287
			c0.167-0.107,0.349-0.256,0.542-0.447c0.789-0.785,1.41-1.394,1.825-1.788c0.086-0.086,0.164-0.165,0.237-0.237
			c0.131-0.131-0.43-0.118-1.252,0.032c-0.759,0.14-1.414,0.291-1.554,0.352c-0.028-0.065-0.058-0.119-0.091-0.162
			C19.154,3.119,19.537,3.057,20.018,2.952z"/>
		<path d="M13.606,34.375c-0.033-3.907,0.139-7.811,0.217-11.717c0.004-0.195-0.274-0.269-0.62-0.244
			c-3.237-0.047-6.474-0.059-9.711-0.065c-0.424-0.001-1.354,0.206-1.354,0.763c0.003,1.7,0.035,3.398,0.114,5.1
			c0.028,0.593-0.125,3.188,0.452,3.455c2.961,1.365,6.063,2.399,9.16,3.41C12.339,35.23,13.612,35.055,13.606,34.375z
			 M4.717,23.361c0.127,0,0.254,0.003,0.381,0.003c-0.293,0.152-0.668,0.431-0.997,0.763c-0.039,0.039-0.071,0.079-0.108,0.119
			c-0.007-0.386-0.056-0.707-0.137-0.936C4.087,23.34,4.373,23.36,4.717,23.361z M11.74,33.647
			c-0.073-0.027-0.143-0.056-0.223-0.083c-2.081-0.698-4.147-1.439-6.171-2.292c-0.061-0.024-0.115-0.063-0.17-0.098
			c0.189-0.158,0.385-0.338,0.577-0.536c0.721-0.743,1.274-1.991,1.252-2.789c-0.022-0.799-0.667-0.816-1.453-0.042
			c-0.234,0.231-0.469,0.463-0.703,0.694c-0.252,0.248-0.481,0.519-0.681,0.789c-0.256-1.24-0.25-2.835-0.198-4.218
			c0.185-0.148,0.39-0.328,0.61-0.54c0.536-0.516,0.885-0.957,0.944-1.167c1.704,0.007,3.407,0.021,5.11,0.04
			c-0.493,0.128-0.956,0.334-1.206,0.581c-0.404,0.398-0.102,0.723,0.673,0.729c0.602,0.005,1.296-0.188,1.763-0.46
			c-0.069,2.879-0.169,5.758-0.19,8.637C11.672,33.171,11.696,33.425,11.74,33.647z"/>
		<path d="M39.862,23.469c-6.959-1.07-14.133-0.663-21.156-0.861c-0.383-0.011-1.572,0.129-1.586,0.68
			c-0.092,3.759-0.229,7.512-0.162,11.27c0.019,1.104,0.075,2.051,0.126,2.09c0.051,0.038,0.965,0.302,2.028,0.603
			c6.457,1.824,13.157,3.275,19.393,5.688c0.356,0.139,1.649-0.083,1.743-0.553c1.213-6.056,0.22-12.614,0-18.747
			C40.243,23.524,40.083,23.476,39.862,23.469z M38.655,40.728c-0.043,0.346-0.047,0.649-0.023,0.909
			c-0.13-0.057-0.27-0.113-0.43-0.167c-3.489-1.183-7.139-2.018-10.664-3.017c-1.344-0.381-4.77-0.843-6.885-1.954
			c0.061-0.058,0.119-0.109,0.183-0.17c0.514-0.486,0.929-0.924,0.928-0.978c-0.002-0.055-0.442,0.333-0.985,0.863
			c-0.083,0.082-0.157,0.155-0.233,0.231c-0.962-0.525-1.629-1.193-1.663-2.062c-0.018-0.457-0.02-0.914-0.028-1.371
			c0.188-0.104,0.394-0.254,0.614-0.457c0.289-0.269,0.578-0.536,0.867-0.805c0.81-0.751,1.479-1.904,1.497-2.575
			c0.017-0.671-0.625-0.606-1.434,0.145c-0.311,0.287-0.622,0.575-0.932,0.864c-0.223,0.208-0.433,0.445-0.624,0.694
			c0.007-0.916,0.023-1.832,0.049-2.749c0.186-0.149,0.39-0.326,0.608-0.53c0.326-0.306,0.651-0.608,0.976-0.913
			c0.806-0.756,1.461-1.468,1.465-1.592c0.003-0.124,0.107-0.223,0.232-0.218s0.542-0.289,0.932-0.654
			c0.389-0.365,0.457-0.665,0.152-0.673c-0.305-0.007-1.193,0.611-1.979,1.387c-0.512,0.507-1.106,1.096-1.799,1.783
			c-0.201,0.2-0.392,0.402-0.566,0.598c0.026-0.852,0.055-1.701,0.083-2.552c0.018-0.552-0.057-1.014-0.19-1.313
			c0.189,0.02,0.408,0.032,0.662,0.036c4.68,0.067,9.409-0.041,14.083,0.275c-0.138,0.115-0.38,0.34-0.653,0.607
			c-0.394,0.384-0.685,0.693-0.65,0.693c0.035,0,0.377-0.31,0.768-0.69c0.271-0.266,0.487-0.49,0.588-0.607
			c0.051,0.004,0.104,0.005,0.154,0.01c-0.182,0.112-0.452,0.334-0.723,0.599c-0.391,0.382-0.625,0.69-0.521,0.693
			c0.104,0.001,0.508-0.306,0.902-0.684c0.271-0.26,0.457-0.479,0.518-0.599c0.801,0.059,1.6,0.131,2.395,0.219
			c-0.135,0.108-0.324,0.275-0.531,0.475c-0.348,0.336-0.611,0.609-0.59,0.61c0.021,0,0.341-0.269,0.715-0.602
			c0.219-0.194,0.391-0.36,0.494-0.474c0.639,0.071,1.275,0.157,1.91,0.251C38.522,29.613,39.315,35.362,38.655,40.728z"/>
		<path d="M34.06,1.909c0.581-0.593,0.936-1.067,0.792-1.058c-0.144,0.01-0.639,0.377-1.106,0.818
			c-0.273,0.26-0.555,0.525-0.846,0.8c-0.113,0.109-0.221,0.212-0.326,0.312c-0.18,0.172-0.154,0.285,0.056,0.255
			C32.839,3.007,33.479,2.502,34.06,1.909z"/>
		<path d="M29.837,1.99c-0.229,0.222-0.453,0.444-0.684,0.671c-0.008,0.007-0.015,0.015-0.021,0.021
			c-0.012,0.013,0.296-0.286,0.688-0.667S30.216,1.621,29.837,1.99z"/>
		<path d="M27.846,23.595c-0.706,0-1.61,0.309-2.021,0.688s-0.529,0.693-0.268,0.702c0.158,0.005,0.314,0.009,0.475,0.015
			c0.256,0.011,0.513,0.018,0.769,0.023c0.425,0.011,1.118-0.307,1.547-0.704C28.778,23.919,28.552,23.595,27.846,23.595z"/>
	</g>
</g>
<g>
</g>
<g>
</g>
<g>
</g>
<g>
</g>
<g>
</g>
<g>
</g>
<g>
</g>
<g>
</g>
<g>
</g>
<g>
</g>
<g>
</g>
<g>
</g>
<g>
</g>
<g>
</g>
<g>
</g>
</svg>
