<?xml version="1.0" encoding="iso-8859-1"?>
<!-- Generator: Adobe Illustrator 16.0.0, SVG Export Plug-In . SVG Version: 6.00 Build 0)  -->
<!DOCTYPE svg PUBLIC "-//W3C//DTD SVG 1.1//EN" "http://www.w3.org/Graphics/SVG/1.1/DTD/svg11.dtd">
<svg version="1.1" id="Capa_1" xmlns="http://www.w3.org/2000/svg" xmlns:xlink="http://www.w3.org/1999/xlink" x="0px" y="0px"
	 width="41.556px" height="41.556px" viewBox="0 0 41.556 41.556" style="enable-background:new 0 0 41.556 41.556;"
	 xml:space="preserve">
<g>
	<g>
		<path d="M40.673,8.489c-0.138-0.238-0.368-0.43-0.63-0.477c-0.378-0.097-0.764-0.008-1.082,0.054
			c-0.335,0.067-0.671,0.124-1.008,0.175c-2.693,0.396-5.445,0.371-8.029-0.189c-1.008-0.165-3.564-0.956-1.412-0.208
			c0.035,0.011,0.071,0.019,0.108,0.028c0.048,0.016,0.086,0.028,0.14,0.046c0.356,0.104,0.719,0.196,1.08,0.274
			c0.139,0.036,0.311,0.068,0.494,0.098c1.916,0.367,3.913,0.435,5.895,0.292c0.656-0.058,1.312-0.125,1.963-0.234
			c0.326-0.047,0.65-0.115,0.975-0.175c0.32-0.067,0.664-0.102,0.977,0.021c0.15,0.052,0.271,0.155,0.361,0.282
			c-0.113,0.003-0.234,0.018-0.365,0.042c-3.873,0.772-8.24,0.595-11.559-0.654c-0.355-0.135-0.716-0.17-1.049-0.125
			c0.142-0.047,0.098-0.164-0.184-0.326c-0.311-0.172-1.158-0.391-1.93,0.297c-0.174,0.155-0.341,0.407-0.439,0.628
			c-0.107,0.242-0.178,0.445-0.271,0.682c-0.177,0.461-0.351,0.954-0.517,1.464c-0.336,1.021-0.644,2.11-0.879,3.163
			c-0.145,0.233-0.082-0.239-0.403,0.596c-0.269,0.838-0.509,1.705-0.733,2.589l-0.327,1.336c-0.133,0.471-0.17,1.083-0.063,1.586
			c0.096,0.521,0.297,1.028,0.631,1.465c0.175,0.22,0.356,0.408,0.634,0.583l0.153,0.083c0.092,0.051,0.121,0.056,0.185,0.086
			l0.336,0.139c0.898,0.353,1.824,0.573,2.742,0.729c0.362,0.196,1.254,0.414,2.201,0.488c0.719,0.06,1.463,0.039,2.023-0.034
			c1.898,0.021,3.816-0.217,5.455-0.729c1.055-0.33,2.17-1.593,2.513-2.643c1.049-3.215,1.823-6.702,2.81-9.978
			C41.727,9.081,41.393,8.543,40.673,8.489z M26.141,8.911c-1.049,3.241-1.99,6.584-2.916,9.947
			c-0.235,0.858-0.011,1.997,0.597,2.678c-0.312-0.136-0.603-0.293-0.791-0.521c-0.366-0.415-0.575-0.984-0.634-1.557
			c-0.084-0.578,0.113-1.144,0.259-1.738l0.45-1.753c0.309-1.164,0.625-2.321,0.967-3.457c0.343-1.137,0.703-2.255,1.101-3.344
			c0.104-0.274,0.185-0.546,0.312-0.792c0.121-0.221,0.306-0.42,0.518-0.547c0.43-0.254,0.958-0.25,1.4-0.067
			C26.827,7.881,26.348,8.27,26.141,8.911z"/>
		<path d="M0.215,31.378c-0.071,0.331-0.145,0.638-0.201,0.991c-0.044,0.345,0.004,0.765,0.298,1.055
			c0.289,0.286,0.699,0.331,1.049,0.293c0.281,0.231,0.727,0.281,1.268,0.12c2.292-0.687,4.664-0.693,6.961-0.312
			c0.947,0.198,1.887,0.437,2.807,0.746l0.975,0.345c0.191,0.064,0.394,0.094,0.599,0.097c0.083,0.031,0.17,0.058,0.253,0.089
			c1.031,0.396,1.962-0.111,2.189-1.192c0.763-3.637,2.056-6.74,2.851-10.344c0.225-1.021-0.334-2.289-1.268-2.755
			c-0.109-0.155-0.237-0.307-0.398-0.444c-0.092-0.085-0.231-0.175-0.35-0.243l-0.159-0.083l-0.193-0.08
			c-0.465-0.196-0.97-0.377-1.498-0.52c-1.056-0.294-2.202-0.47-3.297-0.505c-0.262-0.099,0.227-0.133-0.679-0.275
			c-1.801-0.15-3.704-0.02-5.579,0.558l-0.662,0.228c-0.272,0.098-0.516,0.233-0.729,0.391c-0.425,0.317-0.76,0.698-1.041,1.106
			c-0.281,0.412-0.511,0.84-0.676,1.317c-0.154,0.477-0.238,0.902-0.368,1.35c-0.452,0.671-1.316,3.312-1.423,4.442
			c0.096,0.1,0.546-1.728,0.626-1.65c-0.118,1.035-0.901,3.156-1.152,4.49C0.349,30.853,0.275,31.111,0.215,31.378z M2.412,24.834
			l0.519-1.719c0.171-0.597,0.302-1.14,0.604-1.634c0.288-0.5,0.653-0.967,1.099-1.327c0.223-0.18,0.467-0.325,0.729-0.412
			c0.288-0.09,0.577-0.196,0.864-0.263c2.316-0.608,4.791-0.634,7.126-0.28c0.928,0.145,1.825,0.388,2.694,0.688
			c-3.132-0.783-7.005-0.883-9.899,0.073c-1.049,0.347-2.046,1.695-2.36,2.754c-0.96,3.235-2.067,6.323-2.718,9.867
			c-0.074,0.4-0.023,0.718,0.12,0.944c-0.106,0.004-0.213,0.01-0.319-0.012c-0.08-0.017-0.155-0.046-0.227-0.084
			c0.008-0.036,0.312,0.055,0.25-0.019c-0.727-0.27-0.507-1.155-0.643-1.029c0.327-0.993,0.873-2.279,1.227-3.427
			c0.022-0.19-0.177,0.297-0.116-0.013c0.632-1.287,1.229-3.513,1.088-3.657c-0.483,1.517-1.088,3.041-1.614,4.603
			C1.34,28.229,1.874,26.555,2.412,24.834z"/>
		<path d="M22.693,23.847c-0.168-0.102-0.43-0.211-0.781-0.227c-0.346-0.014-0.803,0.094-1.174,0.438
			c-0.4,0.35-0.547,0.87-0.74,1.307c-0.194,0.461-0.379,0.957-0.559,1.471c-0.359,1.027-0.674,2.132-0.905,3.2
			c-0.143,0.237-0.085-0.243-0.4,0.608c-0.26,0.856-0.482,1.74-0.677,2.649c-0.103,0.455-0.187,0.909-0.271,1.367
			c-0.085,0.409-0.205,1.03-0.097,1.564c0.092,0.537,0.292,1.045,0.611,1.487c0.157,0.221,0.347,0.425,0.571,0.593
			c0.24,0.186,0.495,0.298,0.717,0.371c0.907,0.342,1.837,0.574,2.762,0.742c0.364,0.198,1.26,0.436,2.219,0.523
			c0.729,0.072,1.485,0.052,2.055-0.021c1.979,0.038,3.957-0.238,5.611-0.879c1.03-0.399,2.057-1.765,2.381-2.82
			c1.006-3.271,1.892-6.664,2.881-9.956c0.254-0.848-0.062-1.342-0.744-1.365c-0.139-0.276-0.43-0.491-0.727-0.504
			c-0.393-0.053-0.761,0.068-1.08,0.146c-0.332,0.088-0.668,0.158-1.006,0.227c-2.289,0.438-4.652,0.503-6.898,0.108
			c-0.396-0.071-0.793-0.147-1.182-0.25c-0.921-0.177-3.078-0.985-1.877-0.469c-0.148-0.028-0.298-0.039-0.441-0.033
			C22.949,24.062,22.874,23.969,22.693,23.847z M21.473,25.203c-1.193,3.283-2.168,6.777-2.965,10.455
			c-0.176,0.812,0.089,1.822,0.657,2.471c-0.331-0.141-0.629-0.309-0.839-0.6c-0.356-0.44-0.57-1.013-0.614-1.59
			c-0.045-0.568,0.169-1.17,0.264-1.771l0.392-1.785c0.277-1.184,0.584-2.354,0.931-3.503c0.349-1.146,0.729-2.272,1.164-3.357
			c0.111-0.267,0.209-0.553,0.335-0.798c0.121-0.221,0.312-0.419,0.526-0.539c0.404-0.229,0.895-0.197,1.311-0.021
			C22.119,24.279,21.686,24.62,21.473,25.203z M24.987,24.712c0.061,0.017,0.12,0.039,0.181,0.055
			c0.133,0.04,0.296,0.078,0.473,0.112c1.931,0.435,3.969,0.5,5.972,0.297c0.659-0.075,1.319-0.169,1.972-0.31
			c0.328-0.062,0.65-0.146,0.975-0.228c0.319-0.084,0.658-0.158,0.986-0.069c0.188,0.04,0.336,0.169,0.434,0.33
			c-0.123,0.011-0.252,0.031-0.393,0.068c-3.527,0.924-7.538,0.872-10.757-0.295C24.88,24.687,24.934,24.698,24.987,24.712z"/>
		<path d="M4.975,14.762c-0.082,0.321-0.199,0.622-0.242,0.985c-0.04,0.35,0.052,0.768,0.354,1.03
			c0.299,0.266,0.695,0.323,1.058,0.3c0.005,0,0.009-0.002,0.014-0.002c0.269,0.189,0.655,0.261,1.13,0.169
			c2.789-0.54,5.685-0.454,8.383,0.043c0.504,0.109,1.009,0.221,1.505,0.358c0.334,0.093,0.638,0.21,1.01,0.275
			c0.043,0.007,0.087-0.001,0.13,0.003c0.152,0.046,0.31,0.085,0.46,0.133c1.052,0.337,2.082-0.181,2.382-1.245
			c0.963-3.425,2.169-6.604,2.798-10.364c0.168-1-0.432-2.157-1.338-2.62c-0.129-0.181-0.291-0.353-0.489-0.505
			c-0.096-0.079-0.234-0.16-0.354-0.226L21.615,3.02l-0.19-0.074c-0.463-0.184-0.963-0.352-1.484-0.496
			c-1.044-0.29-2.178-0.482-3.266-0.53c-0.26-0.097,0.228-0.128-0.671-0.282c-1.782-0.174-3.721-0.029-5.543,0.643
			c-0.459,0.186-0.892,0.332-1.356,0.675C8.686,3.285,8.373,3.68,8.109,4.093c-0.261,0.416-0.477,0.85-0.637,1.307
			C7.299,5.88,7.238,6.315,7.123,6.76c-0.42,0.686-1.208,3.316-1.326,4.429c0.1,0.101,0.533-1.712,0.609-1.639
			c-0.081,1.008-0.853,3.018-1.17,4.337L4.975,14.762z M5.901,12.513C6.36,11.13,6.808,9.726,7.216,8.277l0.461-1.726
			c0.137-0.598,0.297-1.105,0.584-1.625c0.273-0.505,0.614-0.988,1.042-1.36c0.415-0.366,1-0.547,1.555-0.744
			c2.271-0.722,4.744-0.707,7.055-0.323c0.962,0.165,1.896,0.418,2.8,0.725c-3.303-0.848-7.204-1.049-10.081,0.211
			C9.62,3.878,8.725,5.337,8.446,6.406c-0.827,3.171-1.804,6.194-2.623,9.379c-0.12,0.467-0.055,0.836,0.139,1.096
			c-0.107-0.003-0.213-0.002-0.318-0.025c-0.078-0.018-0.154-0.047-0.226-0.084c0.008-0.034,0.314,0.055,0.251-0.018
			c-0.742-0.277-0.579-1.117-0.699-1c0.356-0.945,0.984-2.223,1.348-3.36c0.024-0.189-0.181,0.294-0.115-0.014
			c0.662-1.277,1.21-3.518,1.064-3.657c-0.439,1.504-1.027,3.01-1.594,4.528C5.748,13.007,5.822,12.756,5.901,12.513z"/>
	</g>
</g>
<g>
</g>
<g>
</g>
<g>
</g>
<g>
</g>
<g>
</g>
<g>
</g>
<g>
</g>
<g>
</g>
<g>
</g>
<g>
</g>
<g>
</g>
<g>
</g>
<g>
</g>
<g>
</g>
<g>
</g>
</svg>
