<?xml version="1.0" encoding="iso-8859-1"?>
<!-- Generator: Adobe Illustrator 16.0.0, SVG Export Plug-In . SVG Version: 6.00 Build 0)  -->
<!DOCTYPE svg PUBLIC "-//W3C//DTD SVG 1.1//EN" "http://www.w3.org/Graphics/SVG/1.1/DTD/svg11.dtd">
<svg version="1.1" id="Capa_1" xmlns="http://www.w3.org/2000/svg" xmlns:xlink="http://www.w3.org/1999/xlink" x="0px" y="0px"
	 width="42.336px" height="42.336px" viewBox="0 0 42.336 42.336" style="enable-background:new 0 0 42.336 42.336;"
	 xml:space="preserve">
<g>
	<g>
		<path d="M6.736,17.605c2.614-0.04,4.994-0.418,7.62-0.065c1.479,0.199,3.107,1.044,4.642,0.976
			c0.802-0.036,2.213-0.451,2.618-1.249c1.501-2.961,2.326-6.726,2.963-10.072c0.103-0.542,0.181-1.007,0.185-1.037
			c0.004-0.026,0.012-0.039,0.01-0.053c-0.139-4.851-8.856-4.33-12.161-3.789c-6.246,1.023-6.551,8.471-7.897,13.538
			C4.301,17.413,5.603,17.624,6.736,17.605z M9.942,4.623c0.167-0.244,0.184-0.23,0.018,0.012C9.793,4.877,9.776,4.867,9.942,4.623z
			 M6.99,14.194c0.134-0.502,0.273-1.002,0.416-1.501c0.151-0.531,0.297-0.98,0.322-1.005c0.016-0.015,0.031-0.03,0.047-0.045
			c0.997-1.008,1.998-2.009,2.996-3.013c0.39-0.392,0.779-0.979,0.87-1.312c0.092-0.334-0.152-0.287-0.541,0.105
			c-0.793,0.8-1.584,1.602-2.376,2.403C8.335,10.218,8.145,10.108,8.3,9.578c0.199-0.685,0.397-1.369,0.59-2.056
			C8.922,7.365,8.96,7.208,9,7.054c0.067-0.256,0.444-0.78,0.833-1.172c0.7-0.707,1.397-1.409,2.094-2.108
			c0.39-0.392,1.146-0.798,1.696-0.843c1.34-0.11,2.728,0.033,3.732,0.139c2.017,0.212,4.589,0.582,5.297,2.529
			c0.188,0.519,0.103,1.42-0.014,1.96c-0.673,3.162-1.687,6.217-2.588,9.324c-0.008,0.026-0.029,0.05-0.061,0.071
			c-0.045,0.029-0.149,0.026-0.228,0.008c-0.077-0.019-0.172,0-0.21,0.038c-0.039,0.039-0.519,0.104-1.071,0.091
			c-0.412-0.009-0.886-0.034-1.395-0.069c-0.551-0.039-0.904-0.174-0.789-0.292c0.115-0.118-0.027-0.232-0.32-0.247
			c-0.294-0.015-0.623,0.065-0.734,0.172c-0.111,0.105-0.648,0.15-1.197,0.094c-1.824-0.186-3.461-0.375-3.883-0.361
			C9.757,16.4,9.36,16.443,8.99,16.482c-0.55,0.058-0.686-0.248-0.301-0.643c0.027-0.028,0.054-0.055,0.081-0.082
			c0.385-0.396,0.81-1.149,0.955-1.682c0.077-0.283,0.155-0.565,0.234-0.847c0.148-0.532-0.048-0.648-0.441-0.26
			c-0.667,0.656-1.336,1.314-2.008,1.977c-0.393,0.387-0.738,0.371-0.677-0.03C6.868,14.702,6.918,14.463,6.99,14.194z"/>
		<path d="M24.156,22.592c2.504,1.131,5.507,1.103,8.186,0.909c1.736-0.126,3.674-0.491,5.182-1.406
			c2.649-1.609,2.985-5.966,3.701-8.658c0.199-0.748,2.332-5.452,0.104-5.398c-3.917,0.095-7.367,0.669-11.146-0.334
			c-0.533-0.142-1.398-0.388-1.951-0.389c-4.152-0.01-4.461,5.761-5.41,9.119C22.107,18.965,21.282,21.293,24.156,22.592z
			 M26.943,8.866c0.006-0.013,0.014-0.025,0.02-0.038c0.268-0.484,0.773-0.645,0.902-0.607c0.129,0.039-0.094,0.378-0.496,0.756
			c-0.039,0.037-0.078,0.074-0.118,0.111C26.85,9.466,26.68,9.352,26.943,8.866z M24.423,17.086c0.108-0.542,0.537-1.282,0.94-1.658
			c0.597-0.554,1.19-1.107,1.787-1.661c0.403-0.376,0.857-1.112,1.02-1.64c0.055-0.177,0.107-0.354,0.163-0.531
			c0.164-0.528-0.032-0.65-0.438-0.275c-0.652,0.607-1.307,1.213-1.961,1.82c-0.404,0.376-0.617,0.247-0.462-0.283
			c0.064-0.22,0.13-0.438,0.196-0.652c0.162-0.528,0.636-1.255,1.042-1.629c0.457-0.42,0.951-0.876,1.481-1.364
			c0.404-0.375,1.168-0.56,1.707-0.44c1.992,0.445,4.043,0.62,6.088,0.473c0.805-0.038,1.604-0.115,2.402-0.232
			c2.475-0.301,2.151,0.422,1.615,2.26c-0.607,2.083-1.126,4.194-1.707,6.285c-0.23,0.823-0.479,1.642-0.742,2.455
			c-0.621,1.986-2.844,2.575-4.852,2.753c-0.551,0.049-0.973,0.034-0.942,0.001s-0.304-0.101-0.743-0.174
			c-0.441-0.073-0.879-0.069-0.981,0.034c-0.104,0.104-0.638,0.167-1.187,0.1c-0.568-0.068-1.146-0.174-1.699-0.331
			c-0.53-0.149-0.748-0.527-0.508-0.771c0.238-0.245,0.406-0.47,0.377-0.504c-0.031-0.034-0.277,0.138-0.553,0.385
			c-0.273,0.248-0.911,0.268-1.352-0.065c-0.15-0.113-0.291-0.235-0.422-0.366c-0.389-0.394-0.267-1.121,0.131-1.505
			c0.32-0.31,0.64-0.616,0.955-0.917c0.399-0.381,0.742-0.757,0.767-0.84c0.022-0.083-0.062-0.049-0.188,0.076
			c-0.127,0.124-0.127,0.123,0.002-0.002c0.127-0.126,0.238-0.259,0.25-0.297c0.011-0.038-0.301,0.243-0.695,0.629
			c-0.383,0.373-0.764,0.745-1.143,1.117c-0.395,0.386-0.738,0.25-0.676-0.299C24.16,18.5,24.273,17.83,24.423,17.086z"/>
		<path d="M1.341,34.229c2.773-0.348,5.413-0.756,8.205-0.257c1.553,0.277,3.073,1.214,4.645,1.27
			c0.31,0.011,0.603-0.027,0.885-0.103c0.478-0.127,1.128-0.375,1.417-0.586c0.29-0.21,0.717-0.834,0.909-1.352
			c0.433-1.169,0.592-2.914,0.841-3.77c0.531-1.821,1.101-3.621,1.58-5.453c0.14-0.535,0.239-0.988,0.244-1.014
			c0.004-0.019,0.012-0.031,0.013-0.044c0.126-4.86-8.635-4.519-11.881-3.879c-1.815,0.357-3.194,0.697-4.528,2.018
			c-2.156,2.135-2.765,7.447-3.437,10.299C-0.011,32.401-0.456,34.456,1.341,34.229z M3.931,27.981
			c0.043-0.551,0.404-1.302,0.808-1.679c0.405-0.379,0.809-0.76,1.212-1.14c0.401-0.379,0.775-0.84,0.833-1.03
			c0.059-0.19-0.209-0.026-0.598,0.366c-0.485,0.491-0.973,0.98-1.458,1.471c-0.388,0.394-0.689,0.539-0.678,0.326
			c0.01-0.177,0.015-0.311,0.015-0.387c0-0.107-0.011-0.379-0.029-0.773c-0.019-0.427,0.002-0.898,0.051-1.055
			c0.049-0.157,0.4-0.604,0.786-1c0.802-0.822,1.6-1.639,2.396-2.453c0.387-0.395,1.131-0.841,1.673-0.944
			c3.586-0.681,8.169,0.154,9.054,2.741c0.178,0.523,0.046,1.418-0.093,1.953c-0.47,1.813-1.018,3.601-1.564,5.396
			c-0.261,0.854-0.5,1.715-0.72,2.58c-0.448,1.685-0.162,2.2-1.964,1.558c-0.277-0.1-0.557-0.188-0.836-0.271
			c-0.466-0.137-0.755-0.324-0.641-0.441c0.114-0.118-0.1-0.253-0.479-0.285c-0.38-0.032-0.752,0.018-0.829,0.094
			c-0.077,0.077-0.581,0.058-1.129-0.011c-1.907-0.237-3.84-0.192-5.778,0.083c-0.028,0.004-0.053,0.006-0.077,0.008
			c-0.043,0.003,0.105-0.183,0.329-0.415c0.225-0.232,0.41-0.441,0.411-0.468c0.001-0.017,0.002-0.031,0.005-0.048
			c0.135-0.732,0.292-1.442,0.462-2.139c0.132-0.537-0.072-0.653-0.465-0.266c-0.068,0.068-0.137,0.135-0.205,0.203
			c-0.393,0.388-0.675,0.258-0.629-0.292C3.845,29.055,3.891,28.485,3.931,27.981z M1.95,31.15c0.063-0.283,0.151-0.583,0.249-0.886
			c0.169-0.525,0.203-0.516,0.072,0.021c-0.07,0.291-0.139,0.584-0.204,0.88C1.948,31.705,1.831,31.689,1.95,31.15z"/>
		<path d="M36.74,24.344c-1.029-0.149-2.688,0.399-3.529,0.539c-2.932,0.484-5.93,0.014-8.658-1.076
			c-0.025-0.01-0.055-0.017-0.086-0.021c-0.048-0.009-0.525-0.128-1.078-0.138c-4.046-0.062-4.53,6.112-5.357,9.346
			c-0.449,1.753-1.544,5.012,0.865,5.989c2.579,1.048,5.399,1.565,8.188,1.312c1.946-0.178,4.321-0.422,5.924-1.685
			c2.468-1.942,2.826-6.024,3.618-8.831C36.943,28.649,39.059,24.679,36.74,24.344z M33.998,32.559
			c-0.512,1.802-0.878,3.678-1.947,5.252c-0.492,0.725-1.281,1.168-2.224,1.419c-0.534,0.143-1.233,0.18-1.541,0.157
			c-0.31-0.021-0.595-0.012-0.64,0.034c-0.047,0.045-0.531,0.088-1.082,0.055c-0.645-0.039-1.289-0.115-1.908-0.214
			c-0.545-0.087-0.869-0.294-0.728-0.435c0.142-0.143,0.036-0.33-0.229-0.433c-0.266-0.102-0.625-0.055-0.812,0.118
			c-0.188,0.174-0.597,0.251-0.912,0.162c-0.205-0.058-0.396-0.114-0.57-0.169c-0.608-0.191-1.043-0.571-1.34-1.085
			c-0.275-0.479-0.048-1.247,0.341-1.641c0.03-0.031,0.061-0.062,0.093-0.095c0.388-0.393,0.372-0.408-0.034-0.034
			c-0.018,0.017-0.034,0.031-0.052,0.048c-0.406,0.374-0.823,0.294-0.857-0.187c-0.035-0.479,0.314-1.172,0.722-1.545
			c0.517-0.474,1.033-0.947,1.549-1.421c0.406-0.374,0.846-1.112,0.986-1.646c0.035-0.132,0.07-0.265,0.106-0.396
			c0.146-0.533-0.06-0.659-0.465-0.283c-0.656,0.609-1.312,1.217-1.968,1.827c-0.404,0.376-0.655,0.239-0.531-0.299
			c0.034-0.148,0.069-0.296,0.106-0.443c0.136-0.536,0.592-1.27,0.995-1.646c0.733-0.686,1.467-1.371,2.201-2.057
			c0.403-0.377,0.791-0.868,0.869-1.095c0.079-0.227-0.174-0.095-0.565,0.295c-0.709,0.707-1.502,1.502-2.394,2.394
			c-0.391,0.391-0.574,0.279-0.39-0.241c0.527-1.491,1.123-2.787,1.577-3.554c0.281-0.476,1.057-0.56,1.58-0.384
			c2.44,0.821,4.905,1.062,7.519,0.949c0.243-0.011,4.483-0.963,4.332,0.356C35.552,28.359,34.557,30.579,33.998,32.559z"/>
	</g>
</g>
<g>
</g>
<g>
</g>
<g>
</g>
<g>
</g>
<g>
</g>
<g>
</g>
<g>
</g>
<g>
</g>
<g>
</g>
<g>
</g>
<g>
</g>
<g>
</g>
<g>
</g>
<g>
</g>
<g>
</g>
</svg>
