<?xml version="1.0" encoding="iso-8859-1"?>
<!-- Generator: Adobe Illustrator 16.0.0, SVG Export Plug-In . SVG Version: 6.00 Build 0)  -->
<!DOCTYPE svg PUBLIC "-//W3C//DTD SVG 1.1//EN" "http://www.w3.org/Graphics/SVG/1.1/DTD/svg11.dtd">
<svg version="1.1" id="Capa_1" xmlns="http://www.w3.org/2000/svg" xmlns:xlink="http://www.w3.org/1999/xlink" x="0px" y="0px"
	 width="37.784px" height="37.783px" viewBox="0 0 37.784 37.783" style="enable-background:new 0 0 37.784 37.783;"
	 xml:space="preserve">
<g>
	<g>
		<path d="M37.342,1.889c-0.044-0.222-0.117-0.441-0.224-0.646c-0.401-0.811-1.382-1.272-2.174-1.222l-3.903-0.02L29.055,0
			c-0.868,0.035-1.65,0.474-2.182,1.111c-0.267,0.335-0.459,0.677-0.583,1.146c-0.097,0.419-0.107,0.672-0.165,1.017l-0.29,1.94
			l-0.61,3.884c-0.055,0.341-0.114,0.682-0.17,1.023c-0.158-2.157-0.312-4.259-0.402-6.794c-0.018-0.502-0.223-0.955-0.538-1.306
			c-0.074-0.263-0.187-0.522-0.34-0.736c-0.302-0.454-0.744-0.81-1.257-1.002c-0.128-0.05-0.26-0.084-0.393-0.115
			c-0.142-0.025-0.317-0.048-0.404-0.047c-0.271-0.01-0.445,0-0.672-0.001l-2.577,0.018l-2.574,0.018
			c-1.012-0.051-2.075,0.56-2.55,1.479c-0.12,0.229-0.212,0.479-0.267,0.758l-0.025,0.158l-0.021,0.184l-0.032,0.32l-0.126,1.278
			l-0.25,2.552c-0.148,1.492-0.294,2.982-0.445,4.468C11.841,8.778,11.5,6.232,11.29,3.325c-0.047-0.65-0.396-1.222-0.898-1.587
			C10.172,1.286,9.779,0.832,9.21,0.575C8.911,0.432,8.497,0.346,8.16,0.361L7.187,0.397C5.88,0.45,4.576,0.521,3.647,0.591
			C1.791,0.732,1.435,0.874,5.572,0.876c0.37,0.027,0.765,0.015,1.16,0.002C7.229,0.88,7.733,0.875,8.203,0.899
			C8.301,0.91,8.398,0.924,8.492,0.943c0.045,0.009,0.095,0.011,0.139,0.022C8.77,0.999,8.896,1.053,9.02,1.109
			c0.012,0.005,0.026,0.009,0.038,0.014c0.063,0.035,0.127,0.069,0.186,0.111c0.04,0.026,0.076,0.058,0.114,0.087
			c0.011,0.009,0.02,0.02,0.031,0.029C9.315,1.342,9.244,1.328,9.169,1.328c-1.949,0-3.897,0-5.847,0
			c-0.429,0-0.812,0.137-1.118,0.367C2.292,1.55,2.36,1.42,2.299,1.286c-0.07-0.177-0.462-0.452-1.131-0.188
			C0.845,1.231,0.485,1.544,0.286,2.05C0.087,2.63,0.14,3.121,0.083,3.716C0.021,4.887-0.002,6.267,0.021,7.801
			c0.071,6.139,0.95,14.756,2.607,22.423c-0.123,0.99-0.635-0.667-0.426,2.58l0.104,0.806l0.026,0.202
			c0.008,0.062,0.014,0.123,0.045,0.286c0.05,0.273,0.127,0.538,0.226,0.788c0.401,1.005,1.11,1.787,2.007,2.304
			c0.468,0.26,0.918,0.439,1.544,0.541c0.172,0.026,0.382,0.045,0.406,0.043l0.314,0.01h0.414l1.661-0.006l3.35-0.053l1.687-0.042
			l0.423-0.012c0.223-0.004,0.542-0.031,0.795-0.084c0.53-0.106,1.012-0.304,1.44-0.56c0.853-0.521,1.536-1.265,1.936-2.274
			c0.264-0.749,0.215-0.875,0.283-1.185L19,32.719l0.264-1.755L18.899,29c0.268-1.389,0.534-2.782,0.799-4.154
			c0.124-0.643,0.272-0.891,0.402-0.768l0.077,0.492l0.037-0.266c0.043,0.137,0.082,0.318,0.112,0.562
			c0.253,1.968,0.515,3.818,0.771,5.604l-0.922-5.901l-0.666,4.75l-0.247,1.644l0.203,1.095l0.289,1.594
			c0.102,0.709,0.5,1.426,1.033,1.888c0.272,0.399,0.756,0.874,1.607,1.112c0.489,0.112,0.746,0.116,1.063,0.162l1.005,0.098
			c1.406,0.121,3.058,0.191,4.746,0.214l1.271,0.007c0.638,0.018,1.426-0.189,1.984-0.539c0.584-0.35,1.062-0.835,1.396-1.417
			c0.168-0.313,0.286-0.556,0.393-0.993c0.049-0.223,0.027-0.148,0.069-0.413l0.028-0.294c0.148-1.558,0.211-2.953,0.165-3.977
			c-0.004-0.004-0.009,0.005-0.013,0.004c1.154-8.658,2.065-17.559,3.248-26.195C37.83,2.751,37.666,2.249,37.342,1.889z
			 M26.616,3.952c0.096-0.543,0.139-1.077,0.269-1.626c0.163-0.548,0.528-1.014,0.994-1.325c0.461-0.322,1.051-0.438,1.592-0.399
			l1.631,0.013l3.251,0.032c0.532,0.012,1.106-0.045,1.578,0.25c0.202,0.116,0.365,0.282,0.497,0.47
			c-0.127-0.026-0.26-0.041-0.398-0.041c-1.951,0-3.902,0-5.854,0c-1.104,0-2.123,0.886-2.278,1.98
			c-0.596,4.202-1.247,8.538-1.988,12.357c-0.211,1.084-0.434,1.063-0.49-0.04c-0.06-1.135-0.125-2.181-0.194-3.182
			C25.712,9.608,26.18,6.775,26.616,3.952z M1.515,2.433C1.522,2.38,1.536,2.394,1.539,2.372l0.035-0.091
			C1.65,2.117,1.777,2.027,1.915,1.973C1.7,2.228,1.556,2.542,1.51,2.893L1.509,2.825L1.505,2.604
			C1.51,2.633,1.511,2.484,1.515,2.433z M5.154,34.552c-0.185-0.22-0.328-0.476-0.411-0.747c-0.076-0.26-0.112-0.599-0.168-0.9
			l-0.593-3.707c-0.763-4.937-1.401-9.846-1.838-14.694c-0.219-2.425-0.387-4.835-0.497-7.225C1.591,6.083,1.549,4.894,1.526,3.71
			L1.523,3.535c0.983,10.579,2.404,20.728,3.967,30.73c0.045,0.286,0.151,0.558,0.301,0.804C5.551,34.936,5.331,34.762,5.154,34.552
			z M16.752,1.327c-1.104,0-2.106,0.889-2.224,1.987c-0.446,4.141-0.845,8.791-1.318,12.418c-0.143,1.095-0.362,1.088-0.483-0.009
			c-0.08-0.724-0.165-1.427-0.253-2.123c0.236-2.225,0.459-4.455,0.679-6.691l0.248-2.557l0.127-1.279
			c0.033-0.43,0.077-0.854,0.297-1.223c0.408-0.743,1.252-1.23,2.112-1.174l2.576-0.019L21.09,0.64
			c0.424-0.003,0.872-0.032,1.278,0.144c0.33,0.135,0.609,0.368,0.836,0.646c-0.194-0.061-0.396-0.104-0.608-0.104
			C20.647,1.327,18.7,1.327,16.752,1.327z"/>
	</g>
</g>
<g>
</g>
<g>
</g>
<g>
</g>
<g>
</g>
<g>
</g>
<g>
</g>
<g>
</g>
<g>
</g>
<g>
</g>
<g>
</g>
<g>
</g>
<g>
</g>
<g>
</g>
<g>
</g>
<g>
</g>
</svg>
