<?xml version="1.0" encoding="iso-8859-1"?>
<!-- Generator: Adobe Illustrator 16.0.0, SVG Export Plug-In . SVG Version: 6.00 Build 0)  -->
<!DOCTYPE svg PUBLIC "-//W3C//DTD SVG 1.1//EN" "http://www.w3.org/Graphics/SVG/1.1/DTD/svg11.dtd">
<svg version="1.1" id="Capa_1" xmlns="http://www.w3.org/2000/svg" xmlns:xlink="http://www.w3.org/1999/xlink" x="0px" y="0px"
	 width="43.312px" height="43.312px" viewBox="0 0 43.312 43.312" style="enable-background:new 0 0 43.312 43.312;"
	 xml:space="preserve">
<g>
	<g>
		<path d="M21.948,25.64l-5.025,14.607c-0.359,1.043,0.208,2.152,1.293,2.362c1.298,0.251,2.641,0.384,4.016,0.384
			c1.753,0,3.457-0.217,5.086-0.623c1.071-0.267,1.875-0.636,1.833-0.716c-0.025-0.047-0.049-0.096-0.069-0.147l-5.798-15.881
			C22.905,24.589,22.307,24.595,21.948,25.64z"/>
		<path d="M33.329,32.766l1.532-5.109c1.066-2.743,1.603-5.013,1.603-6.819c0-2.608-0.939-4.415-1.736-5.82
			c-1.071-1.736-2.071-3.205-2.071-4.947c0-1.938,1.466-3.741,3.542-3.741c0.045,0,0.09,0.003,0.137,0.007
			c0.075,0.006-0.519-0.603-1.398-1.269c-1.436-1.085-3.018-1.98-4.704-2.673c-0.854-0.397-1.73-0.749-2.634-1.03
			c-1.434-0.459-2.919-0.769-4.428-0.923c-1.51-0.16-3.039-0.181-4.56,0.049c-3.036,0.449-5.943,1.63-8.6,3.195
			C7.356,5.262,4.909,7.23,2.881,9.619l-0.73,0.859l1.161,0.068c1.491,0.087,3.048,0.078,4.536,0.019l2.25-0.106
			c0.108-0.006,0.232-0.014,0.316-0.018c0.031-0.074-0.063-0.05,0.121-0.118c0.047-0.026,0.051-0.045,0.03-0.012
			c-0.021,0.011-0.062,0.178-0.059,0.131c0.007-0.004-0.035-0.003-0.092-0.001c-0.001,0.001,0,0.002-0.001,0.003
			c-0.014,0.06-0.048,0.136-0.095,0.191c-0.046,0.057-0.1,0.097-0.154,0.12c-0.013,0.008-0.028,0.009-0.042,0.016
			c-0.019,0,0.031-0.003-0.034,0.007l-0.13,0.02c-0.087,0.011-0.162,0.03-0.232,0.052c-0.566,0.181-0.947,0.494-1.273,0.897
			c-0.315,0.406-0.549,0.938-0.5,1.568c0.009,0.085,0.021,0.178,0.035,0.254l0.033,0.134c0.054,0.198,0.065,0.207,0.1,0.319
			l0.174,0.526l1.415,4.187c0.955,2.774,1.937,5.513,2.955,8.2c0.501,1.324,1.011,2.635,1.532,3.934
			c-1.97-4.55-3.954-9.09-5.509-13.608c-0.398,0.418,1.465,6.851,3.558,10.487c0.231,0.887-0.432-0.492-0.334,0.057
			c0.619,1.642,1.412,3.357,2.226,5.003c0.093,0.18,0.233,0.514,0.454,0.8c0.131,0.159,0.251,0.32,0.537,0.495
			c0.256,0.18,0.794,0.259,1.134,0.077c0.313-0.149,0.453-0.334,0.553-0.485c0.284,0.168,0.59-0.075,0.809-0.733l3.348-10.047
			c0.349-1.049,0.325-2.74-0.054-3.777l-1.914-5.243c-0.379-1.038-1.182-1.908-1.793-1.964c-0.641-0.059-1.104-0.116-1.104-0.116
			c-1.138-0.068-1.001-1.804,0.136-1.742c0,0,3.481,0.271,5.554,0.271c2.201,0,5.622-0.271,5.622-0.271
			c1.133-0.062,1.267,1.603,0.13,1.742c0,0-0.499,0.058-1.205,0.117c-0.666,0.056-0.921,0.933-0.568,1.979l6.346,18.876
			C32.47,33.833,33.012,33.823,33.329,32.766z M11.719,11.812c0,0-0.257,0.029-0.652,0.067c0.543-0.39,0.893-0.984,0.803-1.77
			C12.727,10.322,12.748,11.687,11.719,11.812z M5.201,9.668C5.184,9.712,5.167,9.756,5.154,9.797
			C5.086,9.818,5.045,9.831,5.045,9.831C5.098,9.772,5.149,9.725,5.201,9.668z M9.837,13.507l-0.082-0.181l-0.021-0.044l-0.01-0.022
			l-0.002-0.006L9.72,13.252c0.041,0.139,0.011,0.037,0.019,0.067l-0.004-0.011l-0.034-0.09l-0.032-0.086
			c0.001,0.003,0.001,0.007-0.001,0.011c-0.006,0.014-0.017,0.012-0.021-0.013c-0.018-0.034-0.024-0.075-0.029-0.121
			c-0.021-0.188,0.082-0.442,0.174-0.621c0.054-0.041,0.113-0.075,0.17-0.104c-0.174,0.287-0.225,0.722-0.125,1.225V13.507z
			 M16.316,32.854l-0.066,0.089c-0.119,0.154-0.328,0.336-0.438,0.283c-0.256-0.092-0.392-0.777-0.581-1.387
			c-0.385-1.26-0.912-2.725-1.457-4.223c-1.089-3-2.248-6.141-2.48-8.066c0.212-0.221,1.697,4.994,1.974,4.688
			c-0.045-0.303-0.114-0.653-0.194-1.026L16.316,32.854z"/>
		<path d="M40.841,12.864c0.022,0.35,0.034,0.712,0.034,1.089c0,2.136-0.4,4.542-1.604,7.553l-5.785,16.732
			c-0.36,1.045,0.127,1.447,1.024,0.803c5.327-3.826,8.802-10.074,8.802-17.139c0-2.958-0.607-5.771-1.705-8.325
			C41.171,12.562,40.801,12.265,40.841,12.864z"/>
		<path d="M7.596,37.849c0.077,0.07,0.154,0.138,0.228,0.201c0.126,0.107,0.246,0.203,0.351,0.279
			c0.296,0.232,0.605,0.451,0.915,0.666c0.052,0.034,0.089,0.057,0.135,0.088c0.028,0.019,0.055,0.041,0.083,0.06
			c1.957,1.237-0.281-0.306-1.077-0.972c-2.128-1.642-3.971-3.752-5.335-6.16c-1.369-2.407-2.249-5.108-2.577-7.858
			c-0.331-2.751-0.127-5.547,0.567-8.162c0.078-0.33,0.185-0.65,0.278-0.974c0.092-0.316,0.217-0.633,0.445-0.781
			c0.222-0.154,0.494,0.083,0.643,0.354c0.04,0.086,0.08,0.18,0.12,0.279c-0.047,0.091-0.093,0.191-0.132,0.31
			c-0.712,2.111-1.1,4.37-1.1,6.724c0,7.488,3.913,14.063,9.799,17.804c-0.153,0.08-0.383,0.062-0.522,0.047
			c-0.392-0.065-0.56-0.051-0.303,0.223c0.295,0.104,0.677,0.268,1.112,0.012c0.024-0.016,0.031-0.043,0.052-0.061
			c0.939,0.568,1.44,0.109,1.063-0.926L3.653,15.195c-0.234-0.639-0.582-0.891-0.897-0.748c-0.067-0.108-0.142-0.216-0.237-0.32
			c-0.14-0.148-0.33-0.308-0.604-0.346c-0.281-0.041-0.526,0.115-0.643,0.263c-0.246,0.31-0.284,0.621-0.332,0.885
			c-0.045-0.15-0.392,0.631-0.472,1.488c0.02,0.098,0.155-0.33,0.175-0.224c-0.128,0.526-0.23,1.061-0.32,1.6
			c-0.015,0.076-0.039,0.158-0.051,0.233c0,0.017,0.001,0.023,0,0.039c-0.015,0.099-0.04,0.195-0.054,0.294
			c-0.362,2.587-0.284,5.29,0.309,7.903C1.512,30.788,4.115,34.95,7.596,37.849z"/>
	</g>
</g>
<g>
</g>
<g>
</g>
<g>
</g>
<g>
</g>
<g>
</g>
<g>
</g>
<g>
</g>
<g>
</g>
<g>
</g>
<g>
</g>
<g>
</g>
<g>
</g>
<g>
</g>
<g>
</g>
<g>
</g>
</svg>
