<?xml version="1.0" encoding="iso-8859-1"?>
<!-- Generator: Adobe Illustrator 16.0.0, SVG Export Plug-In . SVG Version: 6.00 Build 0)  -->
<!DOCTYPE svg PUBLIC "-//W3C//DTD SVG 1.1//EN" "http://www.w3.org/Graphics/SVG/1.1/DTD/svg11.dtd">
<svg version="1.1" id="Capa_1" xmlns="http://www.w3.org/2000/svg" xmlns:xlink="http://www.w3.org/1999/xlink" x="0px" y="0px"
	 width="23.312px" height="23.313px" viewBox="0 0 23.312 23.313" style="enable-background:new 0 0 23.312 23.313;"
	 xml:space="preserve">
<g>
	<g>
		<path d="M22.406,5.125c3.132-4.108-2.652-3.723-5.28-2.789c-1.811,0.643-3.196,2.038-4.488,3.479
			c-0.369,0.412-0.965,0.417-1.338,0.011c-2.471-2.685-5.184-5.26-9.332-3.872c-2.272,0.76-2.655,1.888-0.738,3.902
			c1.919,2.016,3.838,4.032,5.757,6.048c0.136,0.143-10.913,9.309-5.319,9.64c4.462,0.264,6.675-1.447,9.21-4.085
			c0.382-0.398,0.987-0.396,1.36,0.012c1.583,1.729,3.108,3.285,5.517,4.001c2.87,0.854,7.302-0.261,4.667-3.715
			c-0.006-0.008-0.015-0.013-0.023-0.017c-0.016-0.008-0.327-0.346-0.702-0.75c-1.16-1.254-3.381-3.627-4.525-4.799
			c-0.387-0.395-0.415-1.014-0.03-1.41C18.923,8.942,20.87,7.142,22.406,5.125z M14.599,11.982c1.741,1.862,3.482,3.726,5.226,5.588
			c0.377,0.402,0.979,1.074,1.205,1.579c0.441,0.995-0.091,1.436-0.96,1.485c-0.552,0.032-0.921-0.156-0.829-0.25
			c0.093-0.093,0.095-0.195,0.005-0.226c-0.09-0.031-0.24,0.022-0.337,0.126c-0.097,0.102-0.536,0.097-0.957-0.075
			c-0.422-0.172-0.625-0.485-0.485-0.635c0.141-0.15,0.186-0.325,0.105-0.395c-0.093-0.081-0.141-0.13-0.141-0.13
			s-0.166-0.175-0.37-0.39c-0.205-0.216-0.51-0.253-0.681-0.083c-0.17,0.17-0.616-0.016-0.997-0.415
			c-0.249-0.263-0.499-0.524-0.748-0.786c-0.381-0.4-0.553-0.864-0.385-1.036c0.169-0.172,0.265-0.355,0.214-0.408
			s-0.234,0.035-0.414,0.197c-0.179,0.162-0.557,0.048-0.844-0.254c-0.174-0.183-0.348-0.364-0.521-0.547
			c-0.303-0.318-1.543,0.148-1.783,0.405c-0.844,0.903-1.688,1.806-2.531,2.708c-0.423,0.451-0.845,0.902-1.267,1.354
			c-0.754,0.806-2.466,0.738-3.566,0.175c-0.492-0.251-0.694-1.065-0.434-1.553c0.21-0.393,0.499-0.795,0.827-1.14l4.158-4.368
			c0.381-0.4,0.361-0.419-0.044-0.044c-0.985,0.915-1.972,1.83-2.957,2.746c-0.404,0.376-0.425,0.356-0.044-0.043
			c1.268-1.331,2.533-2.662,3.801-3.993c0.085-0.09,0.132-0.145,0.039-0.242c-0.095-0.1-0.193-0.2-0.293-0.3
			c-0.164-0.165-0.151-0.432,0.028-0.6c0.179-0.168,0.24-0.391,0.139-0.498C8.656,9.83,8.431,9.885,8.255,10.06
			c-0.177,0.175-0.641,0.004-1.039-0.378C7.09,9.561,6.963,9.438,6.836,9.316C6.437,8.935,6.273,8.463,6.467,8.263
			s0.25-0.47,0.123-0.603C6.463,7.526,6.194,7.579,5.988,7.775C5.782,7.973,5.297,7.818,4.914,7.419
			c-0.196-0.205-0.39-0.412-0.579-0.621c-0.371-0.41-0.498-0.911-0.302-1.104c0.195-0.193,0.252-0.457,0.126-0.589l-0.228-0.24
			C3.855,4.785,3.781,4.7,3.708,4.613C3.59,4.47,3.36,4.492,3.187,4.67C3.014,4.85,2.74,4.807,2.586,4.567
			C2.433,4.329,2.462,3.981,2.641,3.797c0.18-0.184,0.32-0.346,0.314-0.36C2.949,3.423,2.797,3.562,2.617,3.748
			C2.436,3.934,2.274,4.055,2.254,4.019C2.235,3.982,2.367,3.801,2.552,3.614s0.304-0.415,0.277-0.512
			c-0.026-0.097,0.404-0.175,0.951-0.1c1.379,0.19,3.084,0.707,3.581,1.239c1.167,1.249,2.335,2.497,3.503,3.746
			c0.301,0.321,1.542-0.153,1.783-0.406c0.99-1.041,1.98-2.082,2.972-3.123c1.622-1.706,7.202-1.47,4.709,1.196
			c-1.897,2.028-3.794,4.056-5.69,6.085C14.553,11.832,14.506,11.883,14.599,11.982z"/>
	</g>
</g>
<g>
</g>
<g>
</g>
<g>
</g>
<g>
</g>
<g>
</g>
<g>
</g>
<g>
</g>
<g>
</g>
<g>
</g>
<g>
</g>
<g>
</g>
<g>
</g>
<g>
</g>
<g>
</g>
<g>
</g>
</svg>
