<?xml version="1.0" encoding="iso-8859-1"?>
<!-- Generator: Adobe Illustrator 16.0.0, SVG Export Plug-In . SVG Version: 6.00 Build 0)  -->
<!DOCTYPE svg PUBLIC "-//W3C//DTD SVG 1.1//EN" "http://www.w3.org/Graphics/SVG/1.1/DTD/svg11.dtd">
<svg version="1.1" id="Capa_1" xmlns="http://www.w3.org/2000/svg" xmlns:xlink="http://www.w3.org/1999/xlink" x="0px" y="0px"
	 width="45.188px" height="45.188px" viewBox="0 0 45.188 45.188" style="enable-background:new 0 0 45.188 45.188;"
	 xml:space="preserve">
<g>
	<g>
		<path d="M40.323,3.818c2.469-4.509-2.112-3.774-5.643-3.774c-0.04,0-0.081,0.004-0.123,0.011c-0.067,0.01-0.181,0.025-0.252,0.03
			c-0.042,0.003-0.085,0.008-0.133,0.018C29.68,1.04,27.946,6.768,25.94,10.352c-2.748,4.907-5.496,9.813-8.244,14.722
			c-2.171,3.878,4,11.224,5.706,14.304c1.144,2.064,1.878,3.998,3.963,5.227c1.58,0.932,5.128,0.518,6.822,0.324
			c5.13-0.584-0.705-7.596-1.819-9.584c-1.272-2.27-2.546-4.539-3.818-6.807c-1.3-2.32,1.235-5.477,2.286-7.396
			C33.999,15.368,37.161,9.594,40.323,3.818z M26.875,29.517c2.41,4.297,4.819,8.594,7.229,12.891
			c1.258,2.243-2.765,1.362-4.252,1.362c-0.023,0-0.046-0.003-0.068-0.006c-0.037-0.004,0.047-0.127,0.188-0.274
			c0.141-0.147,0.13-0.389-0.003-0.56c-0.083-0.106-0.157-0.215-0.22-0.325c0,0-0.093-0.167-0.207-0.373
			c-0.113-0.207-0.484-0.093-0.829,0.254s-0.979,0.351-1.333-0.073c-0.091-0.107-0.18-0.222-0.265-0.337
			c-0.328-0.444-0.242-1.161,0.135-1.565c0.054-0.055,0.105-0.111,0.158-0.168c0.377-0.402,0.466-1.121,0.197-1.604v-0.003
			c-0.269-0.483-0.804-0.56-1.196-0.17c-0.036,0.036-0.072,0.071-0.107,0.108c-0.394,0.389-0.799,0.525-0.908,0.31
			c-0.069-0.136-0.139-0.267-0.204-0.386c-0.174-0.314-0.395-0.676-0.647-1.072c-0.296-0.466-0.227-1.156,0.163-1.548
			c0.061-0.06,0.118-0.118,0.177-0.177c0.391-0.393,0.603-0.896,0.474-1.129s-0.562-0.117-0.967,0.26
			c-0.076,0.07-0.15,0.14-0.224,0.207c-0.403,0.377-0.976,0.31-1.273-0.155c-0.596-0.927-1.211-1.921-1.763-2.929
			c-0.266-0.484-0.446-0.852-0.422-0.807c0.024,0.043,0.374-0.224,0.781-0.597c0.117-0.106,0.233-0.215,0.351-0.321
			c0.407-0.373,0.612-0.9,0.459-1.178l-0.277-0.502c-0.014-0.023-0.022-0.051-0.03-0.078c-0.014-0.045-0.357,0.225-0.762,0.602
			c-0.104,0.097-0.209,0.193-0.313,0.291c-0.405,0.375-0.865,0.381-1.008,0.004c-0.143-0.377,0.086-0.995,0.49-1.373
			c0.165-0.153,0.331-0.309,0.497-0.463c0.404-0.377,0.732-0.752,0.74-0.836c0.009-0.084-0.302,0.164-0.692,0.556
			c-0.196,0.196-0.398,0.397-0.602,0.604c-0.391,0.391-0.847,0.279-0.95-0.264c-0.077-0.404-0.118-0.796-0.115-1.171
			c0.005-0.552,0.441-1.312,0.826-1.707c1.446-1.492,2.884-2.973,4.303-4.435c0.385-0.396,0.916-1.107,1.187-1.589l0.302-0.538
			c0.271-0.482,0.166-0.562-0.233-0.181c-0.654,0.628-1.403,1.346-2.269,2.173c-0.627,0.625-1.242,1.235-1.852,1.844
			c-0.392,0.39-0.49,0.314-0.221-0.167c1.322-2.36,2.643-4.72,3.964-7.079c0.271-0.481,0.808-1.188,1.2-1.575
			c0.78-0.771,1.56-1.54,2.341-2.309c0.821-0.909,1.624-1.814,2.431-2.722c0.367-0.411,0.885-1.137,1.153-1.617l1.373-2.452
			c0.269-0.481,0.176-0.552-0.21-0.156c-1.69,1.734-3.381,3.47-5.07,5.204c-0.386,0.396-0.717,0.749-0.737,0.789
			c-0.022,0.04,0.145-0.335,0.377-0.836c1.206-2.599,2.716-5.566,4.534-7.074c0.427-0.353,0.494-0.262,0.088,0.111
			c-0.188,0.174-0.378,0.347-0.564,0.519c-0.407,0.373-0.955,1.066-1.225,1.548l-0.777,1.389c-0.271,0.48-0.177,0.551,0.209,0.154
			c1.376-1.417,2.636-2.712,3.816-3.928c0.385-0.396,1.145-0.737,1.695-0.739c1.757-0.008,3.914,0.182,3.271,1.356
			c-0.747,1.363-1.493,2.727-2.24,4.091c-2.762,5.042-5.523,10.085-8.285,15.128C27.337,24.144,25.3,26.707,26.875,29.517z"/>
		<path d="M7.672,30.819c0.553-0.011,1.107-0.013,1.239-0.021c0.069-0.004,0.148-0.016,0.238-0.032
			c2.876-0.567,4.055-2.054,5.58-4.384c1.213-1.853,4.6-5.259,4.617-7.657c0.021-3.012-2.597-5.778-4.148-8.222
			c-1.766-2.783-4.223-2.616-7.185-2.616c-1.933,0-3.07,1.217-1.972,2.926c1.694,2.638,5.595,6.564,3.555,9.779
			c-1.688,2.66-3.377,5.323-5.066,7.983C3.186,30.701,5.855,30.855,7.672,30.819z M8.675,10.446
			c-0.207,0.184-0.063,0.008,0.337-0.373c0.495-0.47,0.589-0.542,0.03,0.032C8.956,10.188,8.832,10.31,8.675,10.446z M7.354,26.955
			c0.823-1.299,1.646-2.597,2.47-3.895c0.297-0.466,0.854-1.158,1.248-1.546c0.986-0.973,1.973-1.945,2.959-2.918
			c0.394-0.389,0.69-1.014,0.585-1.381c-0.066-0.229-0.156-0.443-0.277-0.632c0,0-0.007-0.013-0.016-0.025
			c-0.009-0.014-0.327,0.295-0.712,0.691c-0.289,0.299-0.578,0.598-0.867,0.896c-0.385,0.396-0.639,0.394-0.641-0.013
			c-0.002-0.405,0.252-1.05,0.639-1.444c0.098-0.1,0.2-0.203,0.306-0.312c0.388-0.395,0.372-0.409-0.021-0.021
			c-0.1,0.1-0.197,0.195-0.292,0.291c-0.389,0.394-0.706,0.67-0.716,0.614c-0.011-0.056,0.293-0.422,0.68-0.817
			c0.079-0.081,0.158-0.161,0.236-0.24c0.387-0.395,0.533-0.976,0.327-1.297c-0.206-0.32-0.686-0.274-1.068,0.104
			c-0.384,0.378-0.879,0.275-1.15-0.205c-0.045-0.079-0.091-0.158-0.137-0.237c-0.281-0.475-0.244-1.135,0.113-1.494
			c0.357-0.357,0.57-0.768,0.477-0.913c-0.094-0.146-0.463,0.028-0.822,0.393c-0.358,0.363-0.906,0.292-1.229-0.156
			c-0.003-0.004-0.006-0.008-0.008-0.011c-0.323-0.448-0.277-1.123,0.102-1.508s0.673-0.717,0.655-0.744l-0.031-0.049
			c-0.102-0.159-0.174-0.312-0.218-0.457C9.863,9.358,9.586,9.439,9.19,9.826c-0.068,0.067-0.138,0.136-0.207,0.202
			c-0.395,0.388-0.752,0.645-0.797,0.577c-0.028-0.041-0.056-0.082-0.081-0.122c-0.135-0.21-0.232-0.396-0.296-0.559
			C7.681,9.6,7.816,9.219,7.927,9.11C8.04,9.002,8.576,8.812,9.122,8.892c1.452,0.212,3.558,1.208,4.018,1.934
			c1.242,1.958,2.485,3.915,3.728,5.873c1.556,2.45-0.828,4.947-2.116,6.918c-1.062,1.622-2.381,4.644-4.327,5.765
			c-0.478,0.276-1.196,0.367-1.529,0.354c-0.334-0.015-0.531-0.116-0.44-0.21c0.09-0.093,0.163-0.357,0.239-0.574
			c0.042-0.119,0.102-0.244,0.184-0.373l1.034-1.632c0.296-0.467,0.219-0.528-0.173-0.14c-0.64,0.637-1.269,1.264-1.893,1.883
			c-0.392,0.391-1.19,0.432-1.164-0.12C6.701,28.176,6.911,27.65,7.354,26.955z"/>
		<path d="M21.458,32.6c0.013,0.021,0.312-0.254,0.672-0.618c0.359-0.362,0.35-0.382-0.021-0.04
			C21.735,32.281,21.444,32.576,21.458,32.6z"/>
	</g>
</g>
<g>
</g>
<g>
</g>
<g>
</g>
<g>
</g>
<g>
</g>
<g>
</g>
<g>
</g>
<g>
</g>
<g>
</g>
<g>
</g>
<g>
</g>
<g>
</g>
<g>
</g>
<g>
</g>
<g>
</g>
</svg>
