<?xml version="1.0" encoding="iso-8859-1"?>
<!-- Generator: Adobe Illustrator 16.0.0, SVG Export Plug-In . SVG Version: 6.00 Build 0)  -->
<!DOCTYPE svg PUBLIC "-//W3C//DTD SVG 1.1//EN" "http://www.w3.org/Graphics/SVG/1.1/DTD/svg11.dtd">
<svg version="1.1" id="Capa_1" xmlns="http://www.w3.org/2000/svg" xmlns:xlink="http://www.w3.org/1999/xlink" x="0px" y="0px"
	 width="53.21px" height="53.209px" viewBox="0 0 53.21 53.209" style="enable-background:new 0 0 53.21 53.209;"
	 xml:space="preserve">
<g>
	<g>
		<path d="M50.353,16.207c0.066-0.216-0.191-0.288-0.35-0.309c-5.587-0.694-11.54-0.102-17.162-0.102
			c-1.428,0-2.931,0.03-3.939,1.199c-1.777,2.061,3.13,2.582,3.981,2.582c1.561,0-2.132,3.006-2.217,3.077
			c-1.124,0.951-2.248,1.903-3.372,2.856c-0.832,0.704-5.226-5.453-5.834-6.213c-0.737-0.922-1.474-1.844-2.209-2.766
			c-1.391-1.742,1.445-0.888,2.441-1.04c1.872-0.288,3.844-1.096,3.123-3.449c-0.044-0.146-0.232-0.18-0.355-0.196
			C19.6,11.205,14.387,11.73,9.501,11.73c-2.523,0-8.237-1.1-9.425,2.041c-0.632,1.673,2.845,1.745,3.59,1.745
			c3.754,0,5.748,1.67,8.067,4.404c1.647,1.94,3.294,3.884,4.941,5.825c1.147,1.354,2.817,2.732,3.374,4.455
			c0.657,2.035,0.071,5.729-0.156,7.803c-0.068,0.62-5.171,0.521-6.304,1.183c-1.309,0.767-0.738,2.496,0.733,2.496
			c6.109,0,12.216-0.146,18.327-0.121c0.734,0.003,3.874,0.431,4.333-0.888c1.006-2.879-2.094-2.372-3.994-2.387
			c-0.843-0.007-2.66,0.403-3.081-0.702c-0.637-1.675-0.486-6.69,0.469-8.18c1.883-2.936,6.209-5.333,9.04-7.423
			c0.985-0.688,2.345-2.003,3.526-2.249c1.361-0.281,2.901,0.063,4.229-0.428C48.482,18.822,49.918,17.592,50.353,16.207z
			 M31.9,17.423c-0.254-0.225-0.394-0.474-0.314-0.554c0.079-0.081,0.527-0.147,1.002-0.147c0.476,0,0.618,0.246,0.321,0.549
			C32.61,17.575,32.154,17.647,31.9,17.423z M33.037,18.292c-0.353-0.207-0.327-0.679,0.019-0.995
			c0.346-0.317,0.702-0.573,0.797-0.573c0.057,0,0.113,0,0.171,0c0.271,0,0.544,0,0.815,0c0.451,0,0.595,0.209,0.32,0.466
			c-0.162,0.151-0.326,0.307-0.497,0.466c-0.175,0.173-0.332,0.326-0.475,0.468C33.928,18.378,33.391,18.499,33.037,18.292z
			 M16.426,40.756c-0.073,0-0.145,0-0.219,0.001c-0.232,0.024-0.44-0.008-0.628-0.09c-0.325-0.142-0.317-0.558-0.087-0.766
			c0.231-0.209,0.659-0.38,0.958-0.383c0.18-0.001,0.36-0.003,0.54-0.006c0.171-0.003,0.345-0.008,0.52-0.015
			c0.287-0.013,0.211,0.26-0.172,0.614C16.955,40.467,16.547,40.755,16.426,40.756z M41.529,19.397
			c-0.497,0.24-0.923,0.488-0.969,0.521s-0.092,0.076-0.113,0.09c-0.021,0.014,0.007-0.02,0.062-0.073
			c0.054-0.054,0.088-0.103,0.075-0.109c-0.013-0.009-0.11,0.069-0.218,0.175c-0.106,0.104-0.564,0.437-1.014,0.759
			c-0.493,0.355-0.976,0.717-1.449,1.049c-2.981,2.199-5.894,4.436-8.591,6.987c-1.05,0.994-1.451,1.709-1.466,3.122
			c-0.012,1.037-0.596,6.33,0.427,6.899c0.747,0.418,1.137,0.397,2.023,0.397c0.632,0,1.263,0,1.895,0
			c1.211,0,4.699,1.479,1.254,1.423c-2.952-0.049-5.909-0.007-8.862-0.007c-2.274,0-4.548,0.085-6.822,0.118
			c-0.082,0.001-0.165,0.001-0.247,0.001c-0.136,0.001,0.044-0.293,0.404-0.657c0.36-0.365,1.101-0.695,1.637-0.826
			c1.218-0.296,2.189-0.953,2.353-2.443c0.015-0.138,0.025-0.275,0.033-0.414c0.013-0.23,0.338-0.735,0.726-1.13
			c0.107-0.106,0.212-0.215,0.319-0.321c0.388-0.394,0.372-0.408-0.034-0.034c-0.268,0.246-0.541,0.496-0.82,0.752
			c-0.026,0.024-0.052,0.048-0.078,0.071c-0.043,0.04-0.052-0.355-0.037-0.881c0.015-0.527,0.342-1.259,0.749-1.632
			c1.085-0.997,2.169-1.992,3.251-2.99c0.406-0.374,0.664-0.771,0.574-0.887c-0.05-0.062-0.104-0.13-0.167-0.204
			c-0.079-0.094-0.162-0.189-0.246-0.29c-0.136-0.16-0.574,0.015-0.979,0.391c-0.817,0.759-1.634,1.517-2.451,2.275
			c-0.404,0.375-0.737,0.303-0.738-0.163c0-0.283,0.001-0.565,0.007-0.846c0-0.025-0.002-0.052-0.006-0.076
			c-0.006-0.042,0.319-0.382,0.723-0.759c0.526-0.491,1.052-0.981,1.581-1.476c0.404-0.377,0.685-0.737,0.627-0.806
			c-0.057-0.066-0.42,0.195-0.81,0.587c-0.453,0.453-0.934,0.935-1.442,1.442c-0.39,0.392-0.739,0.253-0.938-0.262
			c-0.071-0.185-0.156-0.362-0.251-0.535c-0.268-0.483-0.249-1.148,0.136-1.545c0.31-0.319,0.619-0.639,0.927-0.956
			c0.385-0.396,0.571-0.864,0.417-1.047c-0.154-0.183-0.597-0.015-0.988,0.375c-0.317,0.314-0.631,0.629-0.945,0.939
			c-0.392,0.391-1.004,0.393-1.369,0.005c-0.224-0.238-0.442-0.477-0.646-0.717c-0.096-0.112-0.193-0.228-0.29-0.342
			c-0.16-0.188,0.028-0.656,0.421-1.044c0.335-0.33,0.669-0.66,1.004-0.991c0.393-0.388,0.54-0.904,0.328-1.155
			c-0.212-0.25-0.696-0.133-1.081,0.265c-0.329,0.339-0.657,0.679-0.986,1.018c-0.384,0.397-0.876,0.507-1.098,0.244
			c-0.222-0.262-0.09-0.795,0.295-1.189c0.334-0.344,0.665-0.683,0.989-1.015c0.386-0.396,0.542-0.9,0.347-1.13l-0.351-0.414
			c0,0-0.054-0.056-0.121-0.124c-0.067-0.066-0.441,0.191-0.834,0.579c-0.328,0.322-0.657,0.646-0.986,0.971
			c-0.393,0.389-1.002,0.36-1.359-0.061c-0.045-0.054-0.091-0.106-0.136-0.16c-0.357-0.421-0.324-1.071,0.074-1.454
			c0.295-0.284,0.59-0.567,0.885-0.853c0.397-0.384,0.625-0.792,0.51-0.909c-0.115-0.117-0.523,0.104-0.911,0.497
			c-0.28,0.283-0.56,0.564-0.839,0.849c-0.389,0.394-0.849,0.54-1.027,0.329c-0.108-0.128-0.216-0.256-0.324-0.383
			c-0.102-0.119-0.206-0.244-0.313-0.372c-0.173-0.206,0-0.692,0.387-1.087c0.231-0.235,0.462-0.471,0.693-0.706
			c0.387-0.394,0.506-0.861,0.232-0.979c-0.274-0.119-0.83,0.13-1.227,0.514c-0.127,0.123-0.256,0.249-0.388,0.376
			c-0.397,0.385-0.41,0.37-0.02-0.021c0.122-0.122,0.244-0.242,0.366-0.363c0.393-0.389,0.384-0.397-0.016-0.018
			c-0.124,0.118-0.247,0.236-0.371,0.356c-0.397,0.383-0.927,0.461-1.196,0.181c-0.269-0.279-0.271-0.717,0.009-0.989
			c0.28-0.271,0.482-0.493,0.451-0.494c-0.019-0.002-0.037-0.003-0.055-0.003c0,0-0.325,0-0.727,0c-0.401,0-0.789,0.062-0.865,0.138
			c-0.076,0.076-0.486-0.148-0.963-0.427c-0.579-0.339-1.186-0.567-1.818-0.622c-0.155-0.015-0.309-0.021-0.463-0.026
			c-0.255-0.01-0.488-0.466-0.521-1.018c-0.033-0.552,0.39-0.997,0.942-0.997c0.802,0,1.605,0,2.407,0
			c0.553,0,0.979,0.021,0.952,0.047c-0.027,0.024-0.03,0.046-0.008,0.046s0.062-0.021,0.089-0.047s0.495-0.046,1.048-0.046
			c0.15,0,0.3,0,0.45,0c0.552,0,0.979,0.021,0.953,0.047c-0.026,0.024,0.317,0.046,0.766,0.046c0.449,0,0.834-0.021,0.86-0.046
			c0.026-0.025,0.281-0.047,0.568-0.047c0.173,0,0.347,0,0.521,0c0.123,0,0.293-0.007,0.498-0.015
			c0.275-0.012,0.469,0.006,0.433,0.042c-0.036,0.036-0.051,0.065-0.033,0.065s0.063-0.029,0.102-0.066
			c0.038-0.036,0.085-0.066,0.104-0.066c0.019-0.001,0.003,0.027-0.036,0.065c-0.039,0.037,0.214,0.067,0.566,0.067
			s0.677-0.041,0.727-0.092c0.05-0.052,0.539-0.106,1.091-0.104c0.242,0.002,0.482,0.007,0.716,0.018
			c0.552,0.021,0.975,0.102,0.948,0.128c-0.027,0.026,0.101,0.05,0.286,0.05s0.605,0.04,0.89,0.198
			c0.21,0.116,0.328,0.267,0.319,0.457c-0.106,2.241-4.513,0.479-5.732,1.893c-1.165,1.351,2.259,4.415,3.062,5.418
			c3.178,3.974,5.067,7.952,9.886,3.871c0.141-0.119,0.285-0.237,0.433-0.356c0.241-0.193,0.268-0.188,0.054,0.012
			c-0.214,0.198-0.278,0.495-0.145,0.663L30.7,25.21c0,0,0.061,0.075,0.161,0.2c0.088,0.11,0.487-0.104,0.892-0.479
			c1.676-1.555,3.351-3.107,5.022-4.664c0.404-0.376,0.426-0.745,0.086-0.917s-0.788-0.185-1.062,0.068
			c-0.272,0.254-0.414,0.344-0.32,0.198c0.057-0.087,0.111-0.177,0.161-0.269c0.071-0.133-0.081-0.231-0.178-0.271
			c-0.163-0.064-0.312-0.131-0.455-0.191c-0.25-0.106-0.132-0.471,0.275-0.845c0.218-0.2,0.451-0.414,0.697-0.642
			c0.406-0.374,1.18-0.677,1.729-0.677c0.548,0,0.972,0.021,0.943,0.047s0.37,0.046,0.889,0.046s0.961-0.021,0.988-0.046
			s0.498-0.047,1.05-0.047c0.422,0,0.844,0,1.267,0c0.552,0,0.979,0.021,0.952,0.047c-0.025,0.025,0.037,0.046,0.144,0.046
			c0.104,0,0.211-0.021,0.238-0.046c0.025-0.025,0.311-0.047,0.635-0.047c0.196,0,0.391,0,0.587,0c0.04,0,0.145,0.003,0.292,0.008
			c0.162,0.006,0.276,0.026,0.254,0.047c-0.021,0.021,0.096,0.038,0.263,0.038s0.316-0.013,0.334-0.027
			c0.019-0.018,0.418-0.018,0.895-0.008c0.476,0.008,0.626,0.363,0.246,0.764c-1.095,1.147-2.24,1.057-4.103,1.242
			C42.855,18.857,42.177,19.084,41.529,19.397z"/>
		<path d="M52.757,22.381c-0.035-0.013-0.08-0.022-0.137-0.029c-0.027-0.004-0.045-0.008-0.071-0.01
			c-1.952-0.12-4.942-1.026-6.796-0.305c-1.303,0.506-1.297,1.773-1.297,3.02c0,1.958,0,3.915,0,5.873
			c0,1.086-0.363,3.256,0.401,4.188c1.064,1.3,2.63,1.253,4.04,0.499c1.333-0.713,1.591-2.057,1.956-3.374
			c0.563-2.036,1.127-4.072,1.69-6.108c0.187-0.674,0.69-1.86,0.665-2.762C53.194,22.822,52.831,22.406,52.757,22.381z
			 M46.389,25.955c0-0.357,0-0.714,0.004-1.07c0.006-0.553,0.217-1.209,0.456-1.466c0.238-0.257,0.527-0.457,0.646-0.446
			c0.071,0.006,0.143,0.013,0.213,0.019c0.27,0.022,0.537,0.041,0.806,0.06c0.444,0.031,0.5,0.385,0.124,0.789
			c-0.521,0.559-1.042,1.116-1.564,1.674c-0.377,0.402-0.684,0.664-0.684,0.586C46.389,26.05,46.389,26.002,46.389,25.955z
			 M48.84,32.881c-0.059,0.214-0.117,0.428-0.177,0.642c-0.171,0.617-0.524,0.997-0.905,1.13c-0.521,0.183-0.609-0.523-0.221-0.917
			c0.26-0.263,0.521-0.523,0.778-0.784C48.703,32.559,48.938,32.527,48.84,32.881z M50.757,26.661
			c-0.458,1.574-1.069,3.157-1.188,3.584c-0.04,0.143-0.079,0.286-0.119,0.429c-0.064,0.236-0.431,0.749-0.815,1.145
			c-0.468,0.479-0.935,0.958-1.402,1.437c-0.385,0.396-0.771,0.541-0.811,0.313c-0.022-0.126-0.035-0.264-0.035-0.416
			c0-0.573,0-1.148,0-1.725c0-0.553,0.312-1.32,0.697-1.716c1.079-1.104,2.159-2.209,3.23-3.303
			C50.702,26.015,50.911,26.13,50.757,26.661z M50.542,24.325c-1.17,1.18-2.319,2.338-3.451,3.477
			c-0.389,0.392-0.703,0.371-0.703-0.045s0.314-1.073,0.703-1.465c0.842-0.852,1.64-1.656,2.387-2.412
			c0.389-0.394,0.908-0.696,1.161-0.678c0.253,0.02,0.516,0.106,0.557,0.213C51.236,23.522,50.933,23.933,50.542,24.325z"/>
		<path d="M46.319,41.601c1.658,0.141,3.04-0.29,3.411-2.063c0.132-0.632,0.171-1.598-0.489-1.951
			c-0.379-0.204-0.886-0.148-1.304-0.164c-0.743-0.075-1.455-0.188-2.172,0.093c-0.794,0.31-1.195,0.934-1.293,1.761
			c-0.081,0.693,0.055,1.466,0.515,2.006C45.275,41.619,45.922,41.568,46.319,41.601z M46.979,38.994
			c0.312-0.312,0.708-0.482,0.784-0.31c0.036,0.086,0.066,0.193,0.09,0.329c0.021,0.12,0.025,0.244,0.021,0.368
			c-0.009,0.205-0.246,0.574-0.503,0.82s-0.636,0.335-0.732,0.129c-0.061-0.129-0.111-0.274-0.146-0.388
			c-0.019-0.063-0.035-0.126-0.049-0.189C46.421,39.647,46.665,39.307,46.979,38.994z"/>
		<path d="M26.43,33.645c0.401-0.38,0.391-0.392-0.009-0.011c-0.005,0.005-0.011,0.01-0.016,0.015
			c-0.4,0.383-0.393,0.391,0.008,0.012C26.419,33.656,26.425,33.65,26.43,33.645z"/>
		<path d="M26.394,36.839c-0.942,0.869-1.703,1.576-2.228,2.073c-0.401,0.379-0.705,0.694-0.687,0.694s0.062-0.024,0.099-0.055
			s0.039-0.031,0.006-0.001c-0.033,0.03,0.28,0.05,0.697,0.014c0.417-0.034,1.068-0.4,1.458-0.793
			c0.212-0.212,0.425-0.426,0.64-0.641c0.39-0.392,0.722-0.991,0.733-1.34C27.125,36.443,26.8,36.464,26.394,36.839z"/>
	</g>
</g>
<g>
</g>
<g>
</g>
<g>
</g>
<g>
</g>
<g>
</g>
<g>
</g>
<g>
</g>
<g>
</g>
<g>
</g>
<g>
</g>
<g>
</g>
<g>
</g>
<g>
</g>
<g>
</g>
<g>
</g>
</svg>
