<?xml version="1.0" encoding="iso-8859-1"?>
<!-- Generator: Adobe Illustrator 16.0.0, SVG Export Plug-In . SVG Version: 6.00 Build 0)  -->
<!DOCTYPE svg PUBLIC "-//W3C//DTD SVG 1.1//EN" "http://www.w3.org/Graphics/SVG/1.1/DTD/svg11.dtd">
<svg version="1.1" id="Capa_1" xmlns="http://www.w3.org/2000/svg" xmlns:xlink="http://www.w3.org/1999/xlink" x="0px" y="0px"
	 width="53.545px" height="53.545px" viewBox="0 0 53.545 53.545" style="enable-background:new 0 0 53.545 53.545;"
	 xml:space="preserve">
<g>
	<g>
		<path d="M44.697,40.321l0.02,0.022c0.003,0,0.007,0,0.01,0.001c0.001-0.01,0.002-0.023,0.003-0.035
			c-0.008,0-0.021-0.001-0.032-0.001C44.697,40.312,44.697,40.317,44.697,40.321z"/>
		<path d="M44.697,40.308c0-0.007,0-0.013,0-0.021l-0.023-0.004c0,0.004-0.001,0.008-0.001,0.012l0.013,0.013
			C44.689,40.307,44.693,40.307,44.697,40.308z"/>
		<path d="M44.684,40.307c-0.005,0-0.009,0-0.014,0c0,0.005-0.001,0.009-0.002,0.014l0.019,0.021c0.003,0,0.007,0,0.01,0.001
			c0-0.006,0-0.014,0-0.02L44.684,40.307z"/>
		<path d="M44.758,40.301l-0.027-0.006c0,0.004-0.001,0.009-0.001,0.014C44.749,40.308,44.76,40.306,44.758,40.301z"/>
		<polygon points="47.773,40.542 47.769,40.542 47.769,40.546 		"/>
		<path d="M11.492,18.898c2.347,2.636,4.754,5.344,5.777,7.221c-0.134,0.326-3.941-4.617-4.107-4.173
			c0.936,1.618,2.914,4.17,4.942,6.501l0.697,0.806l0.038,0.048c-0.001-0.005-0.003-0.012-0.004-0.016l-0.007-0.01l-0.002-0.004
			c0.005,0.008,0.005,0.008,0.008,0.014c-0.002-0.006-0.003-0.015-0.005-0.02c-0.04-0.092-0.005-0.021-0.004-0.014
			c0.001,0.003,0.002,0.01,0.004,0.014c0.004,0.009,0.005,0.012,0.01,0.023c0.006,0.011,0.012,0.02,0.017,0.029
			c0.04,0.061-0.001-0.003,0.017,0.025l-0.005-0.005l-0.03-0.038c0.021,0.074,0.043,0.177,0.061,0.29
			c0.083,0.526,0.077,1.293,0.135,1.93c0.09,1.288,0.248,2.373,0.438,3.003c-0.026,0.586-0.063,1.219-0.12,1.752
			c-0.026,0.196-0.101,0.41-0.203,0.637c-0.043,0.094-0.093,0.186-0.143,0.275c0.117-0.013,0.238-0.023,0.353-0.038l-0.488,0.259
			c-0.026,0.035-0.062,0.074-0.001,0h0.001c0.006-0.008,0.013-0.017,0.016-0.022l0.093-0.146c0.01-0.017,0.017-0.035,0.027-0.052
			c-0.548,0.062-1.11,0.115-1.656,0.148c-0.353,0.02-0.615,0.028-0.952,0.014l-1.034-0.038l-1.034-0.046l-0.032-0.001l-0.016-0.001
			l-0.097,0.002l-0.064,0.002c-0.137,0.011-0.319,0.05-0.381,0.07c-0.183,0.05-0.32,0.11-0.457,0.177
			c-0.266,0.134-0.493,0.292-0.71,0.494c-0.214,0.204-0.421,0.447-0.578,0.793c-0.078,0.197-0.139,0.314-0.173,0.636
			c-0.003,0.032-0.005,0.021-0.008,0.089c-0.003,0.098,0.002,0.198,0.014,0.297c0.029,0.229,0.066,0.295,0.113,0.44
			c0.2,0.483,0.479,0.733,0.724,0.938c0.252,0.196,0.498,0.332,0.757,0.441c0.262,0.107,0.527,0.19,0.865,0.229l0.632,0.035
			l1.052,0.049l2.107,0.082l4.169,0.115c2.714,0.1,5.511,0.215,8.216,0.258l2.009,0.037l0.993,0.021l0.246,0.005l0.122,0.004
			l0.248-0.001l0.097-0.005l0.229-0.024c0.181-0.024,0.212-0.039,0.318-0.061c0.173-0.042,0.324-0.089,0.47-0.143
			c0.574-0.236,1.067-0.461,1.667-1.127c0.214-0.252,0.468-0.631,0.596-1.144c0.1-0.18,0.173-0.384,0.181-0.619
			c0.01-0.356-0.095-0.677-0.255-0.903c-0.048-0.149-0.093-0.304-0.155-0.434c-0.408-0.762-0.848-1.223-1.688-1.633
			c-0.229-0.096-0.505-0.197-0.921-0.227l-0.314-0.004h-0.504c-3.015,0.215-1.437,0.477-2.313,0.717l-1.228-0.067
			c-0.005-0.147-0.01-0.304-0.014-0.474c-0.022-0.846-0.041-1.75-0.064-2.703c-0.024-0.953-0.034-1.835-0.034-2.639
			c0-0.285,0.003-0.53,0.008-0.735c0.011-0.405,0.295-1.101,0.671-1.486c0.196-0.2,0.432-0.424,0.708-0.67
			c0.688-0.614,1.483-1.321,2.388-2.13c0.906-0.805,1.893-1.624,2.973-2.45l3.102-2.289l2.482-1.733
			c0.715-0.454,1.177-0.705,1.393-0.749c0.169-0.043,0.361-0.081,0.565-0.117c0.104-0.016,0.213-0.039,0.319-0.07
			c0.176-0.05,1.097-0.109,2.066-0.109s1.89-0.17,2.055-0.38s0.316-0.38,0.338-0.38s0.373-0.427,0.786-0.954
			s0.727-0.954,0.698-0.954s-0.015-0.042,0.029-0.094c0.044-0.052-0.815-0.094-1.92-0.094H32.67c-1.104,0-1.838,0.639-1.638,1.428
			c0.2,0.789,1.258,1.428,2.362,1.428h1.647c1.104,0,1.316,0.579,0.475,1.292l-6.237,5.281c-0.843,0.714-1.942,0.771-2.455,0.128
			c-0.512-0.643-0.928-1.165-0.928-1.165l-2.38-2.97l-2.681-3.351l-1.368-1.714c-0.688-0.864-0.352-1.563,0.753-1.563h2.964
			c1.104,0,2-0.482,2-1.076c0-0.594,0.015-1.186,0.033-1.321c0.018-0.135,0.018-0.245,0-0.245c-0.019,0-0.033-0.049-0.033-0.108
			c0-0.06-0.896-0.109-2-0.109H4.37c-0.518,0-0.986,0.145-1.342,0.376c-0.19-0.111-1.278-0.167-0.786-0.318
			c2.253-0.308,4.237-0.017,6.055-0.062c1.05-0.149,1.627-0.274,1.759-0.377c-1.957-0.09-3.94-0.103-5.941-0.062l-1.504,0.04
			c-0.495,0-1.115,0.055-1.624,0.343C0.487,11.735-0.007,12.251,0,12.92c0.01,0.668,0.514,1.142,1.003,1.353
			c0.5,0.234,1.064,0.249,1.563,0.197l1.452-0.105C4.133,14.38,4.25,14.39,4.37,14.39h0.111c0.339,0.088,0.754,0.144,1.181,0.255
			c0.577,0.162,1.247,0.411,1.942,0.744c0.338,0.172,0.719,0.349,0.941,0.601l0.941,0.949l2.018,1.979L11.492,18.898z
			 M14.493,39.901c-0.156-0.006-0.424-0.096-0.591-0.213c-0.065-0.042-0.11-0.087-0.14-0.122c-0.004,0.009-0.018,0.026-0.02,0.033
			l-0.002,0.003c-0.048-0.027-0.065-0.036-0.09-0.049c-0.01,0.004-0.019,0.008-0.034,0.011c-0.024,0.011-0.026,0.054-0.052,0.06
			l0.016-0.061l0.009-0.031c0.057,0.028-0.067-0.047,0.062,0.021c0.021-0.008,0.04-0.018,0.078-0.032
			c0.002,0.001-0.005,0.003,0.005,0.013c0.004,0.008,0.019,0.021,0.028,0.032c0.031-0.075,0.134-0.217,0.29-0.317
			c0.078-0.055,0.171-0.098,0.223-0.109c0-0.001,0-0.001,0-0.002c-0.007,0-0.016-0.008-0.026-0.061
			c-0.003-0.062,0.028-0.117,0.04-0.177l0.013-0.043c-0.018,0.175-0.025,0.249-0.027,0.281c0.002,0,0.004,0,0.005-0.001
			c0.004-0.021,0.009-0.043,0.006-0.001c0.004-0.001,0.019-0.006,0.003,0c-0.001,0-0.002,0-0.003,0.001c0,0,0,0,0,0.001h0.031
			l0.252,0.004l0.695,0.008c-0.041,0.105-0.081,0.214-0.102,0.33c-0.029,0.156-0.018,0.302,0.018,0.437L14.493,39.901z
			 M12.692,17.685c-0.18-0.212-0.213-0.288-0.177-0.3l0.865,0.884c-0.194-0.166-0.388-0.33-0.578-0.482l-0.257-0.205l0.187,0.129
			L12.692,17.685z M12.471,17.34l0.003,0.004l-0.02-0.012L12.471,17.34z M2.507,13.849c-0.462,0.084-0.799,0.116-1.184,0.016
			c0.113-0.035,0.056-0.128-0.068-0.268c-0.118-0.131-0.31-0.373-0.312-0.536c-0.029-0.189,0.043-0.404,0.432-0.67
			c0.177-0.12,0.438-0.216,0.669-0.273c0.264-0.051,0.557-0.08,0.859-0.125c-0.327,0.255-0.532,0.591-0.532,0.965
			c0,0.32,0.152,0.612,0.401,0.851L2.507,13.849z M9.645,15.918l-0.421-0.386l-0.093-0.085l0.238,0.206l0.582,0.502l2.32,2.008
			l-0.026-0.023l0.063,0.064c1.52,1.522,3.023,3.047,4.485,4.586l2.159,2.319l1.051,1.169c0.353,0.407,0.666,0.733,1.068,1.251
			c0.011-0.082-0.029-0.215-0.094-0.371c0.23,0.271,0.45,0.531,0.65,0.766c0.197,0.233,0.359,0.438,0.484,0.612
			c0.251,0.352,0.288,1.086,0.274,1.569c-0.006,0.25-0.012,0.542-0.017,0.875c-0.014,0.871-0.025,1.789-0.025,2.751
			c0,0.963-0.018,1.817-0.06,2.564c-0.042,0.746-0.133,1.186-0.259,1.314c-0.287,0.278-0.733,0.475-1.354,0.584
			c-0.097,0.017-0.2,0.024-0.298,0.039c0.018-0.031,0.037-0.064,0.062-0.103c0.071-0.125,0.136-0.25,0.195-0.378
			c0.119-0.256,0.221-0.522,0.297-0.815c0.158-0.702,0.112-1.089,0.152-1.6c0.038-0.976,0.033-1.927,0.052-2.866l0.023-1.417
			c0.002-0.463,0.033-0.94-0.003-1.491c-0.02-0.269-0.047-0.539-0.122-0.854c-0.042-0.155-0.084-0.333-0.23-0.588
			c-0.124-0.194-0.173-0.243-0.263-0.363c-0.329-0.416-0.628-0.746-0.935-1.108c-2.451-2.854-4.917-5.649-7.406-8.356l-0.032-0.035
			l-1.679-1.57L9.645,15.918z"/>
		<path d="M18.859,29.321c0.017,0.024,0.01,0.016,0-0.002c-0.006-0.009-0.012-0.019-0.023-0.033l0,0l0.003,0.004L18.859,29.321z"/>
		<rect x="14.283" y="39.134" width="0.001" height="0.005"/>
		<polygon points="14.287,39.136 14.287,39.136 14.286,39.136 		"/>
		<polygon points="12.165,18.265 12.165,18.265 12.167,18.267 		"/>
		<path d="M14.281,39.138c-0.001,0-0.004,0.002-0.005,0.002C14.274,39.171,14.277,39.159,14.281,39.138z"/>
		<path d="M53.275,22.13c-0.168-0.01-0.368-0.022-0.603-0.037c-0.552-0.036-1.162-0.08-1.809-0.131
			c-0.015-0.019-0.044-0.038-0.092-0.058c-0.236,0.006-0.48-0.006-0.72-0.006c-0.665-0.052-1.31-0.104-1.917-0.161
			c-0.268-0.023-0.497-0.044-0.691-0.065c-0.094-0.01-0.182,0.035-0.263,0.122c-0.202-0.014-0.399-0.021-0.603-0.037
			c-0.362-0.004-0.707-0.119-1.087-0.042c-0.344,0.172-0.543,0.513-0.689,0.847c-0.303,0.698-0.193,1.465-0.239,2.184
			c-0.038,2.212-0.118,4.421-0.028,6.548c0.001,0.045,0.001,0.086,0.003,0.119l0.002,0.045l0.037,1.002
			c-0.088-1.041-0.181-2.084-0.188-3.092c-0.106,0.058-0.166,1.457,0.006,2.318c-0.014,0.191-0.054-0.127-0.069-0.011
			c0.013,0.366,0.056,0.76,0.107,1.141c0.039,0.406,0.198,0.788,0.374,1.06c-0.084-0.062,0.078,0.484,0.542,0.774
			c0.06,0.019-0.161-0.206-0.06-0.151c0.008,0.007,0.016,0.011,0.023,0.017c0.227,0.216,0.498,0.365,0.799,0.446
			c0.045,0.014,0.089,0.044,0.135,0.052c0.032,0.001,0.047-0.003,0.074-0.004c0.043,0.005,0.082,0.026,0.126,0.028
			c0.423,0.017,0.826-0.127,1.177-0.358c0.262,0.198,0.564,0.331,0.891,0.358c0.971,0.08,1.996-0.719,2.291-1.783l2.537-9.166
			C53.638,23.021,53.607,22.149,53.275,22.13z M47.351,34.728c-0.352,0.179-0.745,0.249-1.13,0.171
			c-0.366-0.076-0.714-0.3-0.965-0.592c-0.254-0.295-0.425-0.658-0.498-1.04c-0.029-0.179-0.037-0.364-0.043-0.552
			c0.006-0.827-0.073-2.119,0.036-2.721c0.058-0.029,0.004,1.104,0.079,1.062c0.121-0.669,0.104-2.346-0.04-2.817l0.158-3.363
			c0.037-0.54,0.026-1.166,0.084-1.623c0.066-0.454,0.298-0.946,0.566-1.16c0.056-0.051,0.068-0.061,0.058-0.069
			c-0.021-0.017,0.048-0.021,0.043-0.032c0.018-0.021-0.012-0.045,0.07-0.06c0.403,0.063,0.821,0.111,1.236,0.149
			c-0.151,0.345-0.251,0.875-0.251,1.496v9.312c0,0.688,0.307,1.321,0.772,1.719C47.467,34.647,47.416,34.696,47.351,34.728z"/>
		<path d="M49.533,37.243l-0.872-0.033c0,0-0.426-0.043-0.952-0.096c-0.193-0.019-0.373,0.066-0.523,0.225
			c-0.009-0.008-0.012-0.01-0.019-0.018c-0.005-0.006-0.007-0.013-0.013-0.019c-0.013-0.011-0.02-0.013-0.03-0.021
			c-0.026-0.019-0.054-0.037-0.072-0.047c-0.083-0.046-0.068,0,0.01,0.014c0.037,0.021,0.07,0.066,0.104,0.111
			c-0.247,0.277-0.408,0.76-0.408,1.325c0,0.92,0.345,1.695,0.769,1.729l0.217,0.019c-0.002,0.024,0.001,0.052-0.002,0.076
			l-1.551-0.063l-0.83-0.053c-0.167-0.025-0.416-0.031-0.632-0.05c0,0.002,0,0.006-0.001,0.008l-0.009-0.009
			c-0.007-0.001-0.014-0.001-0.02-0.002c0,0.003,0,0.007,0,0.01h-0.001l-0.01-0.011c-0.006-0.001-0.014-0.001-0.021-0.001
			c0,0.004-0.001,0.007-0.001,0.01h-0.003l-0.008-0.009v-0.002c0.004,0,0.008,0.001,0.012,0.001c0-0.008,0.002-0.012,0.002-0.018
			l-0.013-0.016c0.006,0,0.009,0,0.015,0c0-0.005,0.001-0.008,0.001-0.012l-0.014-0.016l0.016,0.002
			c0.005-0.065,0.009-0.135,0.021-0.18c0.009-0.005,0.004,0.092,0.003,0.186l0.033,0.006c0.022-0.256,0.054-0.639,0.033-0.771
			c0.128-0.72,0.335-1.483,0.618-2.083c0.072-0.146,0.018-0.078,0.031-0.129c0.068-0.077,0.132-0.128,0.207-0.109l0.329,0.028
			c0.216,0.015,0.42,0.019,0.59,0.017c0.339-0.006,0.541-0.041,0.42-0.092c-0.382,0.008-0.775-0.006-1.177-0.035
			c-0.097,0.002-0.207-0.045-0.302,0.017c-0.09,0.054-0.15,0.142-0.203,0.229c-0.104,0.176-0.179,0.371-0.246,0.565
			c-0.252,0.786-0.422,1.612-0.429,2.42v0.045l0.045,0.002c0.069,0.004,0.138,0.004,0.208,0.007l0.012,0.002
			c0.105,0.006,0.217,0.01,0.323,0.017c-0.183,0-0.366-0.001-0.546-0.003h-0.061l-0.004-0.069c-0.009-0.159-0.006-0.315,0.007-0.468
			c-0.024,0.011-0.064,0.23-0.056,0.468l0.004,0.115l0.106,0.004c0.107,0.004,0.22,0.003,0.312-0.007
			c0.063,0.01-0.043,0.014-0.005,0.023c0.244,0.01,0.527-0.015,0.739-0.029c-0.026,0.017,0.138,0.045,0.307,0.033
			c0.021-0.008-0.083-0.02-0.046-0.026c0.002,0,0.003,0,0.005,0c0.135-0.007,0.253,0.021,0.362,0.021
			c0.008-0.001,0.006-0.002,0.013-0.002c0.463,0.021,0.935,0.04,1.409,0.057v0.002l0.002-0.002c0.01,0,0.019,0.002,0.029,0.002
			c0.001-0.008-0.001-0.017,0-0.025l0.006-0.005H47.77c0.003-0.025-0.001-0.05,0.001-0.074l0.52,0.043c0,0,0.355,0.015,0.794,0.033
			s0.912-0.699,1.058-1.603C50.287,38.008,50.015,37.261,49.533,37.243z"/>
	</g>
</g>
<g>
</g>
<g>
</g>
<g>
</g>
<g>
</g>
<g>
</g>
<g>
</g>
<g>
</g>
<g>
</g>
<g>
</g>
<g>
</g>
<g>
</g>
<g>
</g>
<g>
</g>
<g>
</g>
<g>
</g>
</svg>
