<?xml version="1.0" encoding="iso-8859-1"?>
<!-- Generator: Adobe Illustrator 16.0.0, SVG Export Plug-In . SVG Version: 6.00 Build 0)  -->
<!DOCTYPE svg PUBLIC "-//W3C//DTD SVG 1.1//EN" "http://www.w3.org/Graphics/SVG/1.1/DTD/svg11.dtd">
<svg version="1.1" id="Capa_1" xmlns="http://www.w3.org/2000/svg" xmlns:xlink="http://www.w3.org/1999/xlink" x="0px" y="0px"
	 width="39.341px" height="39.341px" viewBox="0 0 39.341 39.341" style="enable-background:new 0 0 39.341 39.341;"
	 xml:space="preserve">
<g>
	<g>
		<path d="M8.816,27.268c0.467,0.105,0.965,0.156,1.509,0.104c1.566-0.155,3.542-1.882,4.648-3.001
			c1.285-1.303,2.817-2.823,4.148-4.141c0.083-0.082,0.163-0.159,0.244-0.238l-0.277,1.157c-0.431,1.708-1.018,3.367-1.535,5.046
			c-0.26,0.841-0.526,1.679-0.715,2.533c-0.093,0.427-0.165,0.86-0.203,1.294c-0.05,0.44-0.039,0.863,0.129,1.27
			c0.312,0.81,0.866,1.515,1.453,2.161c0.598,0.639,1.25,1.235,1.981,1.716c1.333,0.438,2.771,0.544,4.174,0.477
			c0.037-0.003,0.074-0.007,0.111-0.01c1.379,0.143,2.977,0,3.938-0.476c1.361-0.675,3.274-2.513,3.528-4
			c0.122-0.712,0.011-1.585-0.592-2.607c-0.809-1.365-2.016-3.573-3.114-5.621l2.825,2.741l-0.01-0.01
			c0.667,0.699,1.476,1.268,2.438,1.5c0.479,0.105,0.995,0.104,1.471-0.042c0.22-0.07,0.427-0.157,0.626-0.276
			c0.738,0.198,1.588,0.156,2.431-0.48c0,0,1.832-1.221,1.172-3.054c-0.665-1.832-0.871-3.613-2.903-4.272
			c-0.445-0.146-1.152-0.381-1.979-0.656c-0.023-0.137-0.168-0.312-0.456-0.529c-0.608-0.146-1.574-0.324-2.602-0.497
			c-1.444-0.492-2.637-1.028-2.697-1.207c-0.034-0.099,0.28-0.199,0.798-0.279c0.36,0.031,0.738,0.105,1.139,0.287L31.25,16.1
			c0.301-0.013,0.541-0.076,0.805-0.134c0.313-0.082,0.631-0.175,0.939-0.317l0.604-0.021c0,0,3.515-0.354,1.88-2.088
			c-0.556-0.593-1.116-1.154-1.616-1.638c-0.911-0.884-2.303-2.442-3.436-2.567c-0.453-0.05-0.96,0.077-1.477,0.497
			c-0.518-0.292-1.061-0.544-1.686-0.664L27.19,9.153l-0.059,0.064l-0.649,0.72c0.25-0.84,0.594-1.814,0.517-2.538
			c-0.054-0.499-0.31-1.021-0.986-1.438c-1.88-1.17-3.818-2.29-4.982-2.033c-0.144,0.031-0.307,0.061-0.477,0.094
			c-0.343-0.139-0.7-0.259-1.093-0.332c-0.181-0.029-0.374-0.051-0.599-0.023L18.365,3.75c-0.325,0.056-0.661,0.112-1.002,0.202
			c-0.16,0.04-0.367,0.106-0.528,0.173c-0.111,0.041-0.415,0.173-0.565,0.399C15.962,5,16.04,5.443,16.09,5.801
			c0.136,0.688,0.394,1.278,0.652,1.86c-1.116-1.125-2.788-2.608-4.175-2.909C12.375,4.71,12.17,4.681,11.96,4.66
			c-0.323-0.183-0.623-0.347-1.055-0.494l-0.245-0.074l-0.162-0.042L10.36,4.02c-0.185-0.038-0.371-0.067-0.561-0.087
			C9.421,3.891,9.043,3.884,8.657,3.915C8.44,3.932,8.255,3.958,8.107,3.984C7.886,4.028,7.687,4.07,7.5,4.138
			C6.74,4.389,6.114,4.782,5.528,5.224C4.953,5.68,4.423,6.191,3.984,6.832C3.873,6.989,3.77,7.16,3.674,7.34
			C3.586,7.5,3.456,7.809,3.419,7.938L3.385,8.054L3.367,8.113C3.331,8.247,3.344,8.211,3.331,8.268
			c-0.029,0.14-0.04,0.289-0.039,0.436C3.295,8.999,3.37,9.285,3.476,9.522c0.461,0.948,1.138,1.362,1.75,1.758
			c0.63,0.376,1.269,0.657,1.924,0.896c1.072,0.355,2.06,0.647,3.063,0.953c-1.237,0.112-2.492,0.259-3.725,0.427
			C6,13.626,5.288,13.688,4.707,13.893c-0.594,0.188-1.147,0.452-1.638,0.783c-0.993,0.656-1.667,1.581-2.02,2.481
			c0.004-0.3-0.566,0.259-0.834,1.333c-0.274,1.062-0.348,2.591,0.146,4.058c0.114,0.153,0.088-0.233,0.108-0.568
			c0.016-0.268,0.049-0.491,0.116-0.425c0.05,0.569,0.146,1.136,0.353,1.681l0.003,0.01l0.004,0.005
			c1.009,1.407,2.392,2.47,3.846,3.369C5.968,27.347,7.487,27.692,8.816,27.268z M29.066,21.291l4.327,4.156
			c0,0,0.608,0.686,1.508,1.131c-0.114,0.042-0.229,0.082-0.349,0.101c-0.012,0.003-0.023,0.002-0.035,0.003
			c-0.144,0.023-0.288,0.03-0.436,0.025c-0.018,0-0.036-0.001-0.055-0.003c-0.021-0.001-0.04-0.004-0.062-0.006
			c-0.06-0.005-0.12-0.018-0.18-0.027c-0.163-0.026-0.325-0.064-0.485-0.118c-0.047-0.016-0.093-0.03-0.139-0.048
			c-0.64-0.248-1.238-0.69-1.712-1.187l-0.019-0.019l-0.002-0.002l-2.987-2.888c-0.325-0.311-0.647-0.625-0.973-0.941
			c-0.576-1.144-0.904-2.024-0.762-2.063C26.877,19.362,27.928,20.199,29.066,21.291z M26.097,12.556l0.731-0.75
			c0,0,0.65-0.881,0.953-0.75c-0.116,0.132-0.236,0.268-0.343,0.391c-0.636,0.738-1.168,1.311-1.225,1.255
			c-0.031-0.034-0.065-0.068-0.099-0.104c-0.011-0.01-0.022-0.018-0.033-0.028C26.087,12.565,26.092,12.561,26.097,12.556z
			 M21.316,18.325c0.053,0.03,0.107,0.06,0.165,0.086c0.067,0.032,0.134,0.062,0.198,0.09c0.113,0.049-0.141,1.317-0.565,2.836
			l-0.382,1.365c-0.427,1.517-1.292,3.922-1.67,5.449c-0.179,0.721-0.315,1.501-0.332,2.229c-0.038,1.574,1.8,3.566,3.133,4.406
			c0.186,0.117,0.392,0.226,0.606,0.326c-0.712-0.065-1.41-0.189-2.048-0.396c-0.651-0.436-1.276-0.999-1.829-1.593
			c-0.559-0.611-1.082-1.292-1.351-1.985c-0.141-0.377-0.152-0.575-0.107-1.044c0.034-0.396,0.102-0.814,0.189-1.221
			c0.177-0.813,0.44-1.646,0.699-2.478c0.517-1.665,1.106-3.318,1.553-5.052l0.316-1.294l0.141-0.661l0.007-0.037
			C20.734,18.712,21.251,18.291,21.316,18.325z M18.556,6.085l0.268-0.044c0.278,0.889,0.854,1.945,1.242,2.723l0.007,0.014
			c0.705,1.409,1.085,2.598,0.857,2.675c-0.082,0.027-0.274-0.067-0.535-0.249c-0.008-0.144-0.025-0.232-0.036-0.337
			c-0.024-0.146-0.053-0.276-0.08-0.392c-0.112-0.458-0.239-0.826-0.374-1.199c-0.268-0.731-0.604-1.44-0.876-2.044
			C18.755,6.625,18.273,6.126,18.556,6.085z M14.283,12.68c0.767,0.24,1.513,0.502,2.095,0.731l0.42,0.177
			c0.079,0.042,0.13,0.059,0.228,0.123c0.05,0.041,0.048,0.006,0.217,0.186c0.061,0.07,0.112,0.148,0.15,0.225
			c0.047,0.098,0.022,0.042,0.037,0.069l0.01,0.013h0.001c0.006,0.03,0.021,0.101,0.053,0.262l0.001,0.035l-0.002,0.071
			c-0.003,0.031-0.009,0.064-0.015,0.096c-0.257,0.017-0.538,0.028-0.843,0.037c0.088-0.03,0.155-0.06,0.166-0.079
			c0.012-0.022,0.019-0.045,0.022-0.067l0.005-0.034c-0.005-0.038,0.016,0.04-0.012-0.093l-0.01-0.02
			c-0.001-0.005-0.021-0.047-0.05-0.081c-0.187-0.19-0.506-0.373-0.508-0.379c0,0-1.928-0.856-2.16-0.817
			c-1.091-0.412-2.052-0.782-2.768-1.197C11.292,11.758,12.783,12.221,14.283,12.68z M6.428,8.288
			C6.32,8.739,6.494,9.162,6.827,9.544C6.377,9.349,5.98,9.139,5.709,8.944C5.535,8.822,5.423,8.711,5.378,8.676
			c-0.043-0.049-0.09,0.026-0.103-0.084l0.039-0.279C5.309,8.26,5.342,8.163,5.361,8.082c0.044-0.167,0.09-0.329,0.138-0.473
			C5.868,7.147,6.35,6.735,6.856,6.396c0.49-0.321,1.068-0.579,1.507-0.643C7.434,6.467,6.638,7.423,6.428,8.288z M7.305,26.861
			c-0.734-0.053-1.515-0.345-2.175-0.744c-1.356-0.832-2.734-1.935-3.61-3.162c-0.347-1.011-0.382-2.274-0.271-3.425
			c0.062-0.59,0.174-1.181,0.377-1.694c0.049-0.125,0.113-0.253,0.168-0.35c0.083-0.138,0.165-0.266,0.239-0.367
			c0.162-0.226,0.351-0.441,0.556-0.635c0.818-0.777,1.963-1.213,3.114-1.291l0.113-0.002c-0.79,0.349-1.623,0.941-2.239,1.962
			c-0.815,1.351-1.096,4.036-0.534,5.509c0.108,0.284,0.253,0.584,0.445,0.894c0.775,1.26,2.715,2.656,4.157,3.311
			C7.533,26.867,7.421,26.874,7.305,26.861z"/>
		<polygon points="20.204,35.171 20.2,35.169 20.196,35.168 		"/>
	</g>
</g>
<g>
</g>
<g>
</g>
<g>
</g>
<g>
</g>
<g>
</g>
<g>
</g>
<g>
</g>
<g>
</g>
<g>
</g>
<g>
</g>
<g>
</g>
<g>
</g>
<g>
</g>
<g>
</g>
<g>
</g>
</svg>
