<?xml version="1.0" encoding="iso-8859-1"?>
<!-- Generator: Adobe Illustrator 16.0.0, SVG Export Plug-In . SVG Version: 6.00 Build 0)  -->
<!DOCTYPE svg PUBLIC "-//W3C//DTD SVG 1.1//EN" "http://www.w3.org/Graphics/SVG/1.1/DTD/svg11.dtd">
<svg version="1.1" id="Capa_1" xmlns="http://www.w3.org/2000/svg" xmlns:xlink="http://www.w3.org/1999/xlink" x="0px" y="0px"
	 width="41.638px" height="41.638px" viewBox="0 0 41.638 41.638" style="enable-background:new 0 0 41.638 41.638;"
	 xml:space="preserve">
<g>
	<g>
		<path d="M40.68,30.896c0.603-0.992,0.64-2.24,0.716-3.355c0-4.934,0.622-10.245-0.128-15.128
			c-0.951-6.191-7.144-5.645-11.881-5.645c-6.728,0-13.453,0-20.181,0c-4.013,0-7.73,1.859-8.647,6.009
			c-1.038,4.694-0.363,10.825-0.087,15.609c0.354,6.104,5.727,6.496,10.49,6.496c6.984,0,13.97,0,20.954,0
			C35.351,34.88,38.786,34.013,40.68,30.896z M3.134,10.257c0.445-0.805,1.073-1.381,1.823-1.79C5.441,8.202,5.555,8.38,5.162,8.769
			C4.591,9.337,4.02,9.904,3.449,10.47C3.056,10.86,2.865,10.74,3.134,10.257z M28.569,34.156c-5.873,0-11.745,0-17.618,0
			c-0.31,0-0.619-0.008-0.924-0.026c-0.511-0.03-0.911-0.092-0.896-0.104c0.015-0.015-0.24-0.129-0.554-0.293
			c-0.312-0.162-0.639-0.242-0.752-0.137c-0.113,0.106-0.643,0.094-1.164-0.09c-0.553-0.195-1.07-0.439-1.543-0.736
			c-0.467-0.295-0.473-0.906-0.069-1.285c0.043-0.039,0.086-0.08,0.129-0.121c0.401-0.379,0.627-0.926,0.524-1.233
			c-0.102-0.308-0.469-0.237-0.847,0.166c-0.157,0.167-0.312,0.334-0.47,0.5c-0.379,0.401-0.978,0.385-1.24-0.099
			c-0.264-0.482-0.081-1.229,0.311-1.618c0.371-0.369,0.742-0.738,1.113-1.107c0.393-0.389,0.709-0.745,0.709-0.795
			c0-0.051-0.316,0.226-0.706,0.617c-0.387,0.39-0.771,0.776-1.154,1.163c-0.39,0.393-0.784,0.464-0.853,0.154
			c-0.069-0.311,0.218-0.881,0.612-1.269c0.463-0.457,0.927-0.913,1.39-1.37c0.395-0.388,0.712-1,0.712-1.367
			S4.97,24.763,4.585,25.16c-0.5,0.516-1,1.031-1.5,1.548c-0.385,0.396-0.696,0.317-0.696-0.179c0-0.494,0.311-1.217,0.694-1.613
			c0.505-0.52,1.006-1.038,1.5-1.549c0.386-0.397,0.696-1.165,0.696-1.717v-0.287c0-0.553-0.318-0.686-0.712-0.297
			c-0.488,0.481-0.978,0.965-1.469,1.451c-0.394,0.387-0.711,0.254-0.711-0.298c0-0.422,0-0.844,0-1.267
			c0-0.552,0.327-1.306,0.729-1.684c0.479-0.449,0.959-0.898,1.437-1.35c0.4-0.379,0.725-0.835,0.725-1.016
			s-0.313-0.009-0.703,0.384c-0.495,0.5-0.99,1.001-1.485,1.501c-0.39,0.393-0.703,0.263-0.703-0.29c0-0.253,0-0.507,0-0.76
			c0-0.552,0.312-1.322,0.699-1.717c0.5-0.512,1-1.023,1.497-1.533c0.387-0.395,0.699-1.1,0.753-1.569
			c0.053-0.47-0.182-0.532-0.578-0.147c-0.525,0.508-1.08,1.046-1.654,1.603c-0.396,0.384-0.402,0.377-0.01-0.013
			c0.523-0.521,1.094-1.079,1.679-1.65c0.396-0.386,0.389-0.391-0.011-0.01c-0.54,0.514-1.093,1.048-1.657,1.594
			c-0.396,0.384-0.718,0.383-0.718-0.003c0-0.233,0-0.467,0-0.7c0-0.104,0.006-0.202,0.013-0.297
			c0.012-0.164,0.343-0.608,0.739-0.993c1.34-1.305,2.708-2.636,4.104-3.997C7.64,7.921,8.405,7.554,8.956,7.521
			c1.44-0.086,2.944-0.028,4.319-0.028c5.873,0,11.745,0,17.618,0c4.407,0,8.568,1.617,8.568,6.71c0,4.619,0,9.238,0,13.857
			C39,34.845,33.534,34.156,28.569,34.156z"/>
		<path d="M29.646,22.201c-0.41,0.369-0.594,0.583-0.41,0.476c0.185-0.108,0.646-0.516,1.033-0.911
			c0.118-0.119,0.236-0.24,0.353-0.361c0.388-0.395,0.367-0.416-0.043-0.045C30.267,21.64,29.955,21.921,29.646,22.201z"/>
		<path d="M28.806,19.237c-0.17,0.166-0.169,0.164-0.001-0.002c0.169-0.166,0.291-0.309,0.272-0.319
			c-0.018-0.011-0.259,0.203-0.539,0.477c-0.279,0.273-0.811,0.16-1.273-0.142c-0.14-0.09-0.285-0.178-0.433-0.263
			c-0.478-0.276-0.661-0.683-0.404-0.922s0.206-0.585-0.115-0.773s-0.79-0.147-1.047,0.092c-0.257,0.239-0.748,0.267-1.096,0.062
			c-0.349-0.204-0.423-0.564-0.166-0.805c0.256-0.24,0.345-0.503,0.199-0.588c-0.145-0.086-0.466,0.042-0.715,0.286
			s-0.837,0.215-1.312-0.064c-0.185-0.108-0.368-0.216-0.553-0.325c-0.476-0.28-0.665-0.708-0.423-0.956s0.364-0.492,0.273-0.545
			l-0.164-0.097c-0.04-0.023-0.08-0.043-0.119-0.061c-0.067-0.03-0.324,0.14-0.571,0.377s-0.659,0.305-0.921,0.151
			c-0.158-0.093-0.315-0.186-0.474-0.278c-1.128-0.663-2.259-1.12-3.523-0.396c-1.437,0.822-0.94,3.04-0.94,4.461
			c0,2.424,0,4.85,0,7.275c0,1.81,0.952,2.453,2.69,1.756c1.749-0.7,3.438-1.663,5.097-2.688c0.47-0.291,0.526-0.217,0.132,0.169
			c-0.58,0.567-1.16,1.134-1.736,1.698c-0.395,0.386-0.704,0.701-0.689,0.707c0.014,0.006,0.351-0.299,0.752-0.678
			c0.74-0.699,1.468-1.389,2.186-2.068c0.401-0.379,1.104-0.928,1.57-1.226c0.918-0.586,1.831-1.164,2.743-1.7
			c0.052-0.031,0.091-0.058,0.12-0.082c0.314-0.274,0.511-0.529,0.612-0.764c0.218-0.499,0.169-1.174,0.472-1.462
			c0.304-0.288,0.516-0.54,0.476-0.564S28.975,19.072,28.806,19.237z M25.063,22.436c-2.295,1.349-4.591,2.696-6.886,4.045
			c-1.36,0.799-1.484,1.127-1.484-0.666c0-1.742,0-3.486,0-5.229c0-1.676,0-3.352,0-5.029c0-0.107,0.007-0.283-0.002-0.45
			c-0.013-0.248,0.195-0.23,0.589,0.002c0.238,0.14,0.478,0.28,0.715,0.42c1.64,0.962,3.277,1.925,4.916,2.888
			c0.47,0.276,3.199,1.417,3.39,2.633C26.385,21.593,25.539,22.156,25.063,22.436z"/>
	</g>
</g>
<g>
</g>
<g>
</g>
<g>
</g>
<g>
</g>
<g>
</g>
<g>
</g>
<g>
</g>
<g>
</g>
<g>
</g>
<g>
</g>
<g>
</g>
<g>
</g>
<g>
</g>
<g>
</g>
<g>
</g>
</svg>
