<?xml version="1.0" encoding="iso-8859-1"?>
<!-- Generator: Adobe Illustrator 16.0.0, SVG Export Plug-In . SVG Version: 6.00 Build 0)  -->
<!DOCTYPE svg PUBLIC "-//W3C//DTD SVG 1.1//EN" "http://www.w3.org/Graphics/SVG/1.1/DTD/svg11.dtd">
<svg version="1.1" id="Capa_1" xmlns="http://www.w3.org/2000/svg" xmlns:xlink="http://www.w3.org/1999/xlink" x="0px" y="0px"
	 width="46.873px" height="46.872px" viewBox="0 0 46.873 46.872" style="enable-background:new 0 0 46.873 46.872;"
	 xml:space="preserve">
<g>
	<g>
		<path d="M39.618,36.571c-3.998-0.096-6.58,0.783-10.644-1c-0.458-0.201-10.588-5.656-10.461-5.921
			c0.791-1.646,2.716-3.25,3.877-4.638c4.542-5.435,9.083-10.868,13.624-16.301c1.837-2.199,4.365-6.469,1.281-7.69
			c-0.515-0.203-1.033-0.281-1.122-0.294c-0.09-0.013-0.225-0.019-0.3-0.016c-0.046,0.002-0.09,0.008-0.135,0.016
			c-2.763,0.397-5.516,0.594-8.31,0.606c-3.223,0.014-6.21-0.992-9.339-1.299c-0.339-0.033-0.658-0.042-0.96-0.03
			c-0.53,0.023-0.978,0.11-1.013,0.098C16.081,0.091,16.03,0.104,16,0.133c-0.029,0.029-0.494,0.16-0.978,0.425
			c-1.523,0.83-2.394,2.53-3.11,4.633c-0.873,2.565,0.802,4.098,3.03,4.739c1.541,0.444,3.386,0.347,4.95,0.225
			c1.663-0.13,3.729-0.403,2.3,1.28c-4.464,5.26-8.928,10.521-13.392,15.78c-1.586,1.869-2.813,3.254-3.186,5.819
			c-0.202,1.389-0.021,2.294,0.433,2.884c0.336,0.438,0.737,0.653,0.695,0.693C6.7,36.65,6.666,36.703,6.666,36.729
			c0,0.025,0.136,0.034,0.305,0.018c0.169-0.016,0.735,0.108,1.283,0.178c0.759,0.095,1.627,0.091,2.541,0.087
			c9.586-0.04,15.607,13.477,25.978,8.923c2.268-0.996,5.222-5.202,4.438-7.792C40.952,37.288,40.707,36.598,39.618,36.571z
			 M13.788,5.124c0.069-0.272,0.157-0.543,0.254-0.806C14.234,3.8,14.75,3.085,15.146,2.7c0.237-0.232,0.476-0.463,0.718-0.699
			c0,0,0.111-0.104,0.249-0.234c0.138-0.129,0.69-0.325,1.243-0.33c0.001,0,0.002,0,0.004,0c0.552-0.006,0.678,0.363,0.283,0.75
			c-1.099,1.073-2.192,2.144-3.294,3.224C13.956,5.796,13.653,5.659,13.788,5.124z M33.636,45.669
			c-0.553-0.027-0.949-0.154-0.894-0.211c0.057-0.057-0.03-0.162-0.191-0.241c-0.161-0.08-0.368-0.069-0.462,0.024
			c-0.096,0.094-0.455,0.104-0.801,0.004c-0.345-0.1-0.502-0.314-0.354-0.462c0.147-0.147,0.031-0.396-0.257-0.562
			c-0.289-0.167-0.677-0.155-0.871,0.033c-0.195,0.188-0.769,0.172-1.269-0.062c-0.045-0.021-0.091-0.042-0.137-0.065
			c-0.499-0.235-0.696-0.646-0.451-0.896c0.246-0.25,0.375-0.5,0.287-0.559c-0.087-0.058-0.363,0.104-0.615,0.363
			c-0.253,0.259-0.853,0.259-1.333-0.015c-0.169-0.096-0.336-0.193-0.503-0.292c-0.476-0.28-0.614-0.773-0.316-1.086
			c0.298-0.314,0.25-0.779-0.105-1.045c-0.354-0.267-0.907-0.215-1.234,0.114c-0.327,0.33-0.965,0.352-1.419,0.036
			c-0.114-0.079-0.226-0.156-0.336-0.233c-0.452-0.317-0.545-0.869-0.214-1.224c0.331-0.354,0.241-0.907-0.217-1.217
			c-0.007-0.004-0.014-0.009-0.021-0.014c-0.459-0.308-1.119-0.265-1.449,0.056c-0.331,0.32-0.961,0.315-1.424,0.013
			c-0.314-0.204-0.625-0.393-0.934-0.565c-0.482-0.27-0.794-0.549-0.676-0.668c0.118-0.118-0.118-0.246-0.526-0.271
			c-0.409-0.024-0.759-0.018-0.781,0.003c-0.023,0.021-0.464-0.109-1-0.244c-1.075-0.271-2.235-0.416-3.586-0.471
			c-0.365-0.015-0.699-0.049-1.005-0.101c-0.544-0.092-0.635-0.543-0.225-0.913c0.006-0.006,0.012-0.011,0.018-0.017
			c0.41-0.37,0.741-1.04,0.741-1.493c0-0.454-0.328-0.518-0.732-0.141c-0.377,0.353-0.753,0.703-1.13,1.056
			c-0.403,0.377-1.105,0.404-1.365-0.082c-0.406-0.762-0.39-1.714-0.063-2.722c0.171-0.523,0.495-1.032,0.638-1.168
			c0.086-0.081,0.172-0.162,0.26-0.244c1.657-1.714,3.312-3.425,4.961-5.107c5.03-5.196,9.958-10.257,14.613-15.019
			c0.386-0.395,0.532-0.69,0.328-0.66c-0.205,0.029-0.694,0.361-1.093,0.745c-3.198,3.085,1.325-1.157-8.465,8.202
			c-1.485,1.478-2.929,2.916-4.336,4.315c-0.392,0.39-0.42,0.365-0.062-0.057c2.294-2.702,4.587-5.405,6.88-8.107
			c2.192-2.584,6.194-6.115,0.139-5.438c-0.469,0.053-1.028,0.118-1.63,0.166c-0.55,0.043-1.038,0.041-1.086,0.023
			c-0.049-0.018-0.102-0.018-0.123,0.002c-0.021,0.021-0.485,0.051-1.037,0.018c-0.295-0.017-0.588-0.046-0.874-0.09
			c-0.546-0.083-0.66-0.538-0.271-0.929c0.389-0.391,0.654-0.871,0.621-1.08c-0.032-0.209-0.352-0.064-0.741,0.328
			c-0.168,0.169-0.336,0.338-0.504,0.507c-0.389,0.392-1.11,0.536-1.51,0.185c-0.237-0.21-0.442-0.457-0.604-0.747
			c-0.008-0.015-0.013-0.03-0.018-0.046c-0.008-0.025,0.298-0.364,0.687-0.757c1.062-1.07,2.12-2.136,3.171-3.19
			c0.39-0.392,0.846-0.955,1.035-1.248c0.188-0.294,0.792-0.456,1.334-0.349c0.674,0.133,1.275,0.271,1.706,0.337
			c4.098,0.63,8.379,0.398,12.499-0.139c0.547-0.071,1.458-0.126,1.951,0.125c2.437,1.243-1.627,6.095-2.712,7.392
			c-1.911,2.288-3.824,4.576-5.736,6.864c-3.615,4.325-7.23,8.651-10.846,12.978c-0.92,1.101-0.861,2.253,0.777,2.492
			c4.09,0.599,7.59,3.771,11.321,5.409c1.493,0.655,3.096,0.846,4.691,1.013c1.162,0.12,5.681-1.284,5.424,1.404
			C38.724,44.334,36.48,45.813,33.636,45.669z"/>
	</g>
</g>
<g>
</g>
<g>
</g>
<g>
</g>
<g>
</g>
<g>
</g>
<g>
</g>
<g>
</g>
<g>
</g>
<g>
</g>
<g>
</g>
<g>
</g>
<g>
</g>
<g>
</g>
<g>
</g>
<g>
</g>
</svg>
